<svg width="266" height="121" viewBox="0 0 266 121" fill="none" xmlns="http://www.w3.org/2000/svg"><g clip-path="url(#a)" fill="#1c1c20"><path d="M208.219 77.796c3.276 0 5.597-.589 7.326-1.857v-5.75c-1.775 1.222-3.914 1.992-6.917 1.992-5.051 0-7.144-3.895-7.144-10.053 0-6.475 2.548-9.781 7.19-9.781 2.73 0 5.415.95 6.825 1.856v-5.977c-1.501-.815-4.095-1.404-7.644-1.404-9.056 0-13.743 6.476-13.743 15.532.046 9.917 4.642 15.442 14.107 15.442Zm-44.276-2.627v-5.75c-2.184 1.494-5.915 2.807-9.328 2.807-5.188 0-7.144-2.445-7.463-7.426h17.11v-3.714c0-10.37-4.596-14.264-11.649-14.264-8.646 0-12.742 6.566-12.742 15.578 0 10.37 5.142 15.396 14.152 15.396 4.505 0 7.827-1.223 9.92-2.627ZM99.009 47.366v11.773h-9.465V47.366h-7.099v29.841h7.099V64.754h9.465v12.453h7.098V47.366h-7.098Zm39.088 24.226h-3.14V47.366h-20.659V49.9c0 7.291-.455 16.71-2.958 21.691h-2.275V84h6.553v-6.793h15.881V84h6.552V71.592h.046Zm48.462 5.615h8.054l-11.376-16.075 10.011-13.766h-7.144l-10.011 13.766V47.366h-7.099v29.841h7.099V62.536l10.466 14.671Zm-34.128-24.86c3.503 0 4.596 2.898 4.596 6.656v.59h-9.875c.182-4.756 1.911-7.246 5.279-7.246Zm-24.573 19.245h-10.011c1.957-4.483 2.503-12.634 2.503-17.796v-.906h7.508v18.702ZM76.53 77.207h-7.235V41.57h-3.231c-5.915 0-9.01 2.943-9.01 7.336 0 4.98 2.139 7.29 6.553 10.234l3.64 2.445-10.466 15.622H49l9.42-13.947c-5.416-3.849-8.464-7.607-8.464-13.947C49.956 41.39 55.507 36 66.019 36h10.465v41.207h.046Z"/></g><defs><clipPath id="a"><path fill="#fff" transform="translate(49 36)" d="M0 0h167v48H0z"/></clipPath></defs></svg>