<svg width="270" height="90" viewBox="0 0 270 90" fill="none" xmlns="http://www.w3.org/2000/svg"><path d="M118.488 44.77c0 8.328-6.515 14.465-14.51 14.465-7.996 0-14.511-6.137-14.511-14.465 0-8.387 6.515-14.465 14.511-14.465 7.995 0 14.51 6.078 14.51 14.465Zm-6.352 0c0-5.205-3.776-8.765-8.158-8.765-4.383 0-8.16 3.56-8.16 8.765 0 5.152 3.777 8.765 8.16 8.765 4.382 0 8.158-3.62 8.158-8.765Zm37.657 0c0 8.328-6.515 14.465-14.511 14.465-7.995 0-14.511-6.137-14.511-14.465 0-8.38 6.516-14.465 14.511-14.465 7.996 0 14.511 6.078 14.511 14.465Zm-6.352 0c0-5.205-3.776-8.765-8.159-8.765-4.382 0-8.158 3.56-8.158 8.765 0 5.152 3.776 8.765 8.158 8.765 4.383 0 8.159-3.62 8.159-8.765Zm36.352-13.591v25.969c0 10.682-6.3 15.045-13.748 15.045-7.011 0-11.23-4.689-12.822-8.523l5.531-2.303c.985 2.355 3.398 5.133 7.284 5.133 4.768 0 7.722-2.941 7.722-8.478v-2.08h-.222c-1.421 1.754-4.16 3.286-7.617 3.286-7.232 0-13.859-6.3-13.859-14.406 0-8.165 6.627-14.517 13.859-14.517 3.45 0 6.189 1.532 7.617 3.234h.222v-2.354h6.033v-.006Zm-5.583 13.643c0-5.094-3.398-8.817-7.722-8.817-4.382 0-8.054 3.723-8.054 8.817 0 5.041 3.672 8.713 8.054 8.713 4.324 0 7.722-3.672 7.722-8.713Zm15.528-28.866v42.391h-6.196v-42.39h6.196Zm24.143 33.574 4.931 3.287c-1.592 2.355-5.426 6.411-12.052 6.411-8.218 0-14.355-6.352-14.355-14.465 0-8.602 6.189-14.465 13.644-14.465 7.506 0 11.178 5.974 12.378 9.202l.659 1.643-19.337 8.01c1.48 2.901 3.782 4.382 7.011 4.382 3.234 0 5.478-1.592 7.121-4.005Zm-15.176-5.204 12.926-5.367c-.711-1.807-2.85-3.066-5.367-3.066-3.228 0-7.722 2.85-7.559 8.433Zm-132.69-3.32V34.87h20.68c.202 1.07.306 2.334.306 3.704 0 4.604-1.258 10.298-5.315 14.354-3.945 4.109-8.987 6.3-15.665 6.3-12.378 0-22.787-10.083-22.787-22.46 0-12.379 10.409-22.461 22.787-22.461 6.848 0 11.726 2.687 15.391 6.189l-4.33 4.33c-2.628-2.465-6.19-4.382-11.067-4.382-9.04 0-16.109 7.284-16.109 16.323 0 9.04 7.07 16.324 16.109 16.324 5.863 0 9.202-2.354 11.34-4.493 1.736-1.735 2.877-4.213 3.327-7.598l-14.667.006Z" fill="#1C1C20"/></svg>