<svg width="32" height="32" viewBox="0 0 32 32" fill="none" xmlns="http://www.w3.org/2000/svg">
  <path d="M25.3346 13.3337C25.3346 15.1737 22.508 16.667 20.668 16.667C18.828 16.667 17.0013 15.1737 17.0013 13.3337H15.0013C15.0013 15.1737 13.1746 16.667 11.3346 16.667C9.49464 16.667 6.66797 15.1737 6.66797 13.3337H5.66797C5.45464 14.187 5.33464 15.0803 5.33464 16.0003C5.33464 18.8293 6.45844 21.5424 8.45883 23.5428C10.4592 25.5432 13.1723 26.667 16.0013 26.667C18.8303 26.667 21.5434 25.5432 23.5438 23.5428C25.5442 21.5424 26.668 18.8293 26.668 16.0003C26.668 15.0803 26.548 14.187 26.3346 13.3337H25.3346ZM16.0013 5.33366C12.0546 5.33366 8.6013 7.48033 6.7613 10.667H25.2413C23.4013 7.48033 19.948 5.33366 16.0013 5.33366ZM29.3346 16.0003C29.3346 19.5365 27.9299 22.9279 25.4294 25.4284C22.9289 27.9289 19.5375 29.3337 16.0013 29.3337C14.2503 29.3337 12.5165 28.9888 10.8989 28.3187C9.28118 27.6487 7.81133 26.6665 6.57321 25.4284C4.07273 22.9279 2.66797 19.5365 2.66797 16.0003C2.66797 12.4641 4.07273 9.07272 6.57321 6.57223C9.0737 4.07175 12.4651 2.66699 16.0013 2.66699C17.7523 2.66699 19.4861 3.01187 21.1037 3.68193C22.7214 4.35199 24.1913 5.33412 25.4294 6.57223C26.6675 7.81035 27.6496 9.2802 28.3197 10.8979C28.9898 12.5156 29.3346 14.2494 29.3346 16.0003ZM16.0013 22.9737C13.668 22.9737 11.6146 22.0003 10.4146 20.5603L12.308 18.667C12.908 19.627 14.3346 20.307 16.0013 20.307C17.668 20.307 19.0946 19.627 19.6946 18.667L21.588 20.5603C20.388 22.0003 18.3346 22.9737 16.0013 22.9737Z" fill="#818181" />
</svg>
