<svg width="32" height="32" viewBox="0 0 32 32" fill="none" xmlns="http://www.w3.org/2000/svg">
  <path d="M24.8 8.82715C22.88 8.82715 21.0667 9.57381 19.7733 10.8671L10.4 19.1871C9.54667 20.0405 8.41333 20.5071 7.2 20.5071C4.70667 20.5071 2.66667 18.4938 2.66667 16.0005C2.66667 13.5071 4.70667 11.4938 7.2 11.4938C8.41333 11.4938 9.54667 11.9605 10.4533 12.8671L11.96 14.2005L14 12.4138L12.2933 10.9338C10.9333 9.57381 9.12 8.82715 7.2 8.82715C3.22667 8.82715 0 12.0538 0 16.0005C0 19.9471 3.22667 23.1738 7.2 23.1738C9.12 23.1738 10.9333 22.4271 12.2267 21.1338L21.6 12.8138C22.4533 11.9605 23.5867 11.4938 24.8 11.4938C27.2933 11.4938 29.3333 13.5071 29.3333 16.0005C29.3333 18.4938 27.2933 20.5071 24.8 20.5071C23.6 20.5071 22.4533 20.0405 21.5467 19.1338L20 17.7871L18 19.5738L19.7067 21.0671C21.0667 22.4138 22.8667 23.1605 24.8 23.1605C28.7733 23.1605 32 19.9471 32 16.0005C32 12.0005 28.7733 8.82715 24.8 8.82715Z" fill="#818181" />
</svg>
