<svg width="266" height="121" viewBox="0 0 266 121" fill="none" xmlns="http://www.w3.org/2000/svg"><g clip-path="url(#a)" fill-rule="evenodd" clip-rule="evenodd" fill="#8E8E93"><path d="M109.559 60.302c-1.694 0-3.069 1.358-3.069 3.031 0 1.677 1.375 3.034 3.069 3.034 1.696 0 3.069-1.357 3.069-3.034 0-1.673-1.373-3.03-3.069-3.03Zm124.882-2.225c2.012 0 3.484 1.113 4.449 2.225v-5.374c-1.581-1.06-3.486-1.484-5.142-1.484-5.087 0-9.507 3.6-9.507 9.794 0 5.93 4.017 9.796 9.586 9.796 1.607 0 3.374-.24 5.063-1.377v-5.271c-.965.981-2.489 2.015-4.449 2.015-2.997 0-4.793-2.197-4.793-5.004 0-3.044 1.902-5.32 4.793-5.32Zm-9.625-4.102h-6.161l-5.652 7.78v-7.78h-5.248l.002 18.529h5.246v-7.97l5.435 7.97h6.566l-7.313-9.557 7.125-8.972Zm-32.562 11.118V53.975h-5.062v18.529h5.143l7.258-11.119v11.119h5.062v-18.53h-5.144l-7.257 11.119Zm-15.211-2.782h-1.497v-4.26h1.497c2.25 0 2.57 1.19 2.57 2.117 0 .794-.24 2.143-2.57 2.143Zm1.151-8.336h-7.9v18.529h5.252v-6.118h2.648c5.304 0 6.831-3.649 6.831-6.218 0-2.542-1.5-6.193-6.831-6.193Zm-23.539 4.445h4.121v14.084h5.252V58.42h4.123v-4.445h-13.496v4.445Zm-14.546 6.673V53.975h-5.06v18.529h5.143l7.255-11.119v11.119h5.063v-18.53h-5.141l-7.26 11.119Zm-15.64 3.703h-2.249v-3.89h2.249c1.662 0 2.626.477 2.626 1.934 0 1.481-.99 1.956-2.626 1.956Zm.51-7.596h-2.759v-2.78h8.597v-4.445h-13.845l-.001 18.529h8.008c1.365 0 7.365.051 7.365-5.744 0-5.586-5.945-5.56-7.365-5.56Zm-37.388 2.038c0 5.93 4.017 9.796 9.588 9.796 1.608 0 3.375-.24 5.063-1.377v-5.271c-.967.981-2.493 2.015-4.447 2.015-3 0-4.794-2.197-4.794-5.004 0-3.044 1.9-5.32 4.794-5.32 2.008 0 3.48 1.113 4.447 2.225v-5.374c-1.584-1.06-3.483-1.484-5.144-1.484-5.089 0-9.507 3.6-9.507 9.794Zm-10.99-5.002h2.867v14.268h4.848v-18.53h-7.715v4.262ZM46.612 41c-1.535 0-3.029.17-4.468.486v19.9c0 2.439 2.012 4.428 4.48 4.428 2.467 0 4.478-1.99 4.478-4.427 0-2.342-1.852-4.265-4.18-4.418v-3.544c4.302.155 7.764 3.672 7.764 7.962 0 4.388-3.622 7.97-8.062 7.97-4.442 0-8.063-3.582-8.063-7.97V42.611c-.51.214-1.006.45-1.494.705v18.07c.001 5.2 4.294 9.441 9.557 9.441 5.263 0 9.554-4.24 9.554-9.44 0-5.104-4.13-9.282-9.256-9.44v-3.542c7.1.158 12.839 5.929 12.839 12.981 0 7.153-5.902 12.984-13.137 12.984-7.237 0-13.14-5.831-13.14-12.985V45.667C28.913 49.402 26 55.05 26 61.371c0 11.25 9.228 20.373 20.613 20.373 11.386 0 20.612-9.123 20.612-20.373C67.225 50.12 57.999 41 46.612 41Z"/></g><defs><clipPath id="a"><path fill="#fff" transform="translate(26 41)" d="M0 0h213v41H0z"/></clipPath></defs></svg>