<svg width="167" height="48" viewBox="0 0 167 48" fill="none" xmlns="http://www.w3.org/2000/svg"><g clip-path="url(#a)" fill="#1C1C20"><path d="M159.219 41.796c3.276 0 5.597-.588 7.326-1.856v-5.751c-1.775 1.222-3.914 1.992-6.917 1.992-5.051 0-7.144-3.894-7.144-10.053 0-6.475 2.548-9.78 7.19-9.78 2.73 0 5.415.95 6.825 1.856v-5.978c-1.501-.815-4.095-1.403-7.644-1.403-9.056 0-13.743 6.475-13.743 15.532.046 9.917 4.642 15.441 14.107 15.441Zm-44.276-2.626v-5.751c-2.184 1.494-5.915 2.808-9.328 2.808-5.188 0-7.144-2.446-7.463-7.427h17.11v-3.713c0-10.37-4.596-14.264-11.649-14.264-8.646 0-12.742 6.566-12.742 15.577 0 10.37 5.142 15.396 14.152 15.396 4.505 0 7.827-1.222 9.92-2.626ZM50.009 11.366V23.14h-9.465V11.366h-7.099v29.842h7.099V28.755h9.465v12.453h7.098V11.366H50.01Zm39.088 24.227h-3.14V11.366H65.298v2.536c0 7.29-.455 16.71-2.958 21.69h-2.275V48h6.553v-6.792h15.88V48h6.553V35.593h.046Zm48.462 5.615h8.054l-11.376-16.076 10.011-13.766h-7.144l-10.011 13.766V11.366h-7.099v29.842h7.099V26.536l10.466 14.672Zm-34.128-24.86c3.503 0 4.596 2.897 4.596 6.656v.589h-9.875c.182-4.755 1.911-7.246 5.279-7.246ZM78.858 35.592h-10.01c1.956-4.484 2.502-12.634 2.502-17.797v-.905h7.508v18.702ZM27.53 41.208h-7.235V5.57h-3.231c-5.915 0-9.01 2.943-9.01 7.336 0 4.98 2.139 7.29 6.553 10.234l3.64 2.445L7.781 41.208H0L9.42 27.26C4.003 23.411.955 19.653.955 13.313.956 5.39 6.507 0 17.019 0h10.466v41.208h.045Z"/></g><defs><clipPath id="a"><path fill="#fff" d="M0 0h167v48H0z"/></clipPath></defs></svg>