<svg width="945" height="585" viewBox="0 0 945 585" fill="none" xmlns="http://www.w3.org/2000/svg"><path d="m0 172.347 278.002-172 292.001 499.999-188.001 84L0 172.347Z" fill="#FFE2FC"/><path d="m774.004 582.999 170.938-263.21L427.84 59.265l-72.215 192.833 418.379 330.901Z" fill="#FFE2FC"/><path d="M592.058 306.454c-.96 0-1.704-.258-2.232-.774-.528-.516-.792-1.254-.792-2.214v-8.748h1.728v8.676c0 .516.126.912.378 1.188.264.276.636.414 1.116.414.54 0 .99-.15 1.35-.45l.54 1.242a2.506 2.506 0 0 1-.954.504c-.36.108-.738.162-1.134.162Zm-4.644-8.226v-1.422h6.084v1.422h-6.084Zm-4.73 8.118V295.96c0-.936.27-1.68.81-2.232.552-.564 1.332-.846 2.34-.846.372 0 .726.048 1.062.144.348.084.642.222.882.414l-.522 1.314a1.873 1.873 0 0 0-.612-.324 2.066 2.066 0 0 0-.72-.126c-.504 0-.888.144-1.152.432-.264.276-.396.69-.396 1.242v1.278l.036.792v8.298h-1.728Zm-1.622-8.118v-1.422h6.086v1.422h-6.086Zm-3.654 8.12v-9.54h1.728v9.54h-1.728Zm.864-11.376c-.336 0-.618-.108-.846-.324a1.077 1.077 0 0 1-.324-.792c0-.324.108-.594.324-.81.228-.216.51-.324.846-.324.336 0 .612.108.828.324a.994.994 0 0 1 .342.774c0 .324-.108.6-.324.828-.216.216-.498.324-.846.324Zm-15.039 11.376-3.545-9.54h1.638l3.149 8.64h-.774l3.276-8.64h1.459l3.203 8.64h-.755l3.221-8.64h1.548l-3.564 9.54h-1.656l-3.005-7.884h.503l-3.042 7.884h-1.656Zm-9.096.144c-.96 0-1.877-.144-2.753-.432-.876-.3-1.567-.684-2.072-1.152l.666-1.404c.48.42 1.093.768 1.837 1.044a6.623 6.623 0 0 0 2.322.414c.732 0 1.326-.084 1.782-.252.456-.168.792-.396 1.008-.684.216-.3.324-.636.324-1.008 0-.432-.144-.78-.432-1.044-.276-.264-.643-.474-1.098-.63a10.777 10.777 0 0 0-1.475-.432 29.804 29.804 0 0 1-1.639-.414 7.98 7.98 0 0 1-1.494-.63 3.105 3.105 0 0 1-1.079-1.008c-.276-.432-.415-.984-.415-1.656 0-.648.167-1.242.503-1.782.349-.552.877-.99 1.584-1.314.72-.336 1.634-.504 2.738-.504.732 0 1.457.096 2.177.288.72.192 1.344.468 1.872.828l-.595 1.44a5.594 5.594 0 0 0-1.708-.774 6.47 6.47 0 0 0-1.746-.252c-.708 0-1.29.09-1.747.27-.455.18-.791.42-1.008.72-.203.3-.305.636-.305 1.008 0 .444.136.798.413 1.062.288.264.655.474 1.098.63.457.156.954.3 1.494.432.539.12 1.08.258 1.62.414.551.156 1.051.36 1.494.612.457.252.822.588 1.098 1.008.276.42.414.96.414 1.62 0 .636-.174 1.23-.522 1.782-.349.54-.888.978-1.62 1.314-.72.324-1.632.486-2.736.486Zm-13.516 2.521.9-3.636.234 1.044a1.27 1.27 0 0 1-.882-.324c-.228-.216-.342-.51-.342-.882 0-.36.114-.654.342-.882a1.21 1.21 0 0 1 .864-.342c.348 0 .63.12.846.36.216.228.324.516.324.864 0 .12-.012.24-.036.36-.012.108-.042.24-.09.396a4.69 4.69 0 0 1-.18.54l-.846 2.502h-1.134Zm-6.527-2.665v-9.54h1.656v2.592l-.162-.648a2.93 2.93 0 0 1 1.332-1.512c.624-.348 1.392-.522 2.304-.522v1.674a1.312 1.312 0 0 0-.216-.018h-.18c-.924 0-1.656.276-2.196.828-.54.552-.81 1.35-.81 2.394v4.752h-1.728Zm-6.778.108c-1.02 0-1.92-.21-2.7-.63a4.62 4.62 0 0 1-1.8-1.728c-.42-.732-.628-1.572-.628-2.52s.202-1.788.61-2.52a4.508 4.508 0 0 1 1.71-1.71c.732-.42 1.554-.63 2.466-.63.924 0 1.74.204 2.448.612a4.25 4.25 0 0 1 1.656 1.728c.408.732.612 1.59.612 2.574 0 .072-.006.156-.018.252 0 .096-.005.186-.018.27h-8.118v-1.242h7.219l-.703.432c.012-.612-.113-1.158-.378-1.638a2.8 2.8 0 0 0-1.098-1.116c-.456-.276-.989-.414-1.602-.414-.6 0-1.134.138-1.602.414a2.77 2.77 0 0 0-1.097 1.134c-.265.48-.397 1.032-.397 1.656v.288c0 .636.144 1.206.432 1.71.301.492.714.876 1.242 1.152.528.276 1.134.414 1.818.414.564 0 1.074-.096 1.53-.288.468-.192.876-.48 1.225-.864l.953 1.116a4.162 4.162 0 0 1-1.619 1.152c-.636.264-1.351.396-2.143.396Zm-8.102-.002c-.96 0-1.704-.258-2.232-.774-.528-.516-.792-1.254-.792-2.214v-8.748h1.728v8.676c0 .516.126.912.379 1.188.263.276.635.414 1.115.414.54 0 .991-.15 1.35-.45l.54 1.242a2.506 2.506 0 0 1-.954.504c-.36.108-.738.162-1.134.162Zm-4.644-8.226v-1.422h6.084v1.422h-6.084Zm-2.582 8.226c-.96 0-1.704-.258-2.232-.774-.528-.516-.792-1.254-.792-2.214v-8.748h1.728v8.676c0 .516.126.912.378 1.188.264.276.636.414 1.116.414.54 0 .99-.15 1.35-.45l.54 1.242a2.506 2.506 0 0 1-.954.504c-.36.108-.738.162-1.134.162Zm-4.644-8.226v-1.422h6.084v1.422h-6.084Zm-6.802 8.228c-.816 0-1.536-.15-2.16-.45a3.301 3.301 0 0 1-1.441-1.368c-.336-.624-.503-1.404-.503-2.34v-5.49h1.727v5.292c0 .936.222 1.638.666 2.106.456.468 1.093.702 1.909.702.6 0 1.121-.12 1.566-.36a2.547 2.547 0 0 0 1.025-1.08c.24-.48.36-1.056.36-1.728v-4.932h1.728v9.54h-1.638v-2.574l.27.684a3.338 3.338 0 0 1-1.404 1.476c-.624.348-1.325.522-2.105.522Zm-9.042-.109v-13.356h1.728v13.356H491.5Zm-9.552-6.64h6.498v1.548h-6.498v-1.548Zm.18 6.642h-1.8v-12.6h8.892v1.566h-7.092v11.034Zm-11.647 2.664.899-3.636.234 1.044a1.27 1.27 0 0 1-.881-.324c-.229-.216-.342-.51-.342-.882 0-.36.113-.654.342-.882a1.21 1.21 0 0 1 .864-.342c.347 0 .63.12.846.36.216.228.323.516.323.864 0 .12-.011.24-.035.36a2.32 2.32 0 0 1-.09.396 4.69 4.69 0 0 1-.18.54l-.847 2.502h-1.133Zm-4.149-2.665v-2.016l-.09-.378v-3.438c0-.732-.216-1.296-.648-1.692-.42-.408-1.056-.612-1.908-.612-.564 0-1.116.096-1.656.288a4.14 4.14 0 0 0-1.368.738l-.72-1.296a5.105 5.105 0 0 1 1.764-.9 7.306 7.306 0 0 1 2.178-.324c1.308 0 2.316.318 3.024.954.708.636 1.062 1.608 1.062 2.916v5.76h-1.638Zm-3.132.108c-.708 0-1.332-.12-1.872-.36-.528-.24-.936-.57-1.224-.99a2.57 2.57 0 0 1-.432-1.458c0-.516.12-.984.36-1.404.252-.42.654-.756 1.206-1.008.564-.252 1.32-.378 2.268-.378h3.024v1.242h-2.952c-.864 0-1.446.144-1.746.432-.3.288-.45.636-.45 1.044 0 .468.186.846.558 1.134.372.276.888.414 1.548.414.648 0 1.212-.144 1.692-.432a2.446 2.446 0 0 0 1.062-1.26l.342 1.188c-.228.564-.63 1.014-1.206 1.35-.576.324-1.302.486-2.178.486Zm-10.047-.108-4.176-9.54h1.799l3.708 8.64h-.864l3.78-8.64h1.692l-4.176 9.54h-1.763Zm-7.165 0v-2.016l-.09-.378v-3.438c0-.732-.216-1.296-.648-1.692-.42-.408-1.056-.612-1.908-.612-.564 0-1.116.096-1.656.288a4.14 4.14 0 0 0-1.368.738l-.72-1.296a5.105 5.105 0 0 1 1.764-.9 7.306 7.306 0 0 1 2.178-.324c1.308 0 2.316.318 3.024.954.708.636 1.062 1.608 1.062 2.916v5.76h-1.638Zm-3.132.108c-.708 0-1.332-.12-1.872-.36-.528-.24-.936-.57-1.224-.99a2.57 2.57 0 0 1-.432-1.458c0-.516.12-.984.36-1.404.252-.42.654-.756 1.206-1.008.564-.252 1.32-.378 2.268-.378h3.024v1.242h-2.952c-.864 0-1.446.144-1.746.432-.3.288-.45.636-.45 1.044 0 .468.186.846.558 1.134.372.276.888.414 1.548.414.648 0 1.212-.144 1.692-.432a2.446 2.446 0 0 0 1.062-1.26l.342 1.188c-.228.564-.63 1.014-1.206 1.35-.576.324-1.302.486-2.178.486Zm-10.137.037a4.75 4.75 0 0 1-2.088-.468 4.016 4.016 0 0 1-1.584-1.35l1.044-1.224c.348.48.738.852 1.17 1.116.444.252.93.378 1.458.378 1.44 0 2.16-.852 2.16-2.556v-7.074h-4.554v-1.566h6.336v8.55c0 1.404-.336 2.454-1.008 3.15-.66.696-1.638 1.044-2.934 1.044Zm-13.748-.144 1.548-12.6h1.278l-1.548 12.6h-1.278Zm-6.768-3.24v-1.314h11.106v1.314h-11.106Zm2.088 3.24 1.566-12.6h1.278l-1.566 12.6h-1.278Zm-1.512-8.046v-1.314h11.106v1.314h-11.106Zm-14.602 11.536h-1.638a15.113 15.113 0 0 0 1.602-3.978 18.9 18.9 0 0 0 .504-4.446c0-1.572-.168-3.048-.504-4.428a15.064 15.064 0 0 0-1.602-3.996h1.638c.708 1.068 1.242 2.328 1.602 3.78.372 1.44.558 2.988.558 4.644 0 1.656-.186 3.204-.558 4.644-.36 1.428-.894 2.688-1.602 3.78Zm-6.086 0h-1.638a15.113 15.113 0 0 0 1.602-3.978 18.9 18.9 0 0 0 .504-4.446c0-1.572-.168-3.048-.504-4.428a15.064 15.064 0 0 0-1.602-3.996h1.638c.708 1.068 1.242 2.328 1.602 3.78.372 1.44.558 2.988.558 4.644 0 1.656-.186 3.204-.558 4.644-.36 1.428-.894 2.688-1.602 3.78Zm-11.88-3.491v-1.224l5.13-4.95c.456-.432.792-.81 1.008-1.134.228-.336.378-.642.45-.918.084-.288.126-.564.126-.828 0-.648-.228-1.158-.684-1.53-.456-.372-1.122-.558-1.998-.558-.672 0-1.278.114-1.818.342a3.548 3.548 0 0 0-1.404 1.026l-1.224-1.062c.48-.612 1.122-1.08 1.926-1.404.816-.336 1.71-.504 2.682-.504.876 0 1.638.144 2.286.432.648.276 1.146.678 1.494 1.206.36.528.54 1.152.54 1.872 0 .408-.054.81-.162 1.206-.108.396-.312.816-.612 1.26-.3.444-.732.942-1.296 1.494l-4.572 4.41-.432-.702h7.614v1.566h-9.054Zm-3.082.106c-.961 0-1.705-.258-2.233-.774s-.791-1.254-.791-2.214v-8.748h1.727v8.676c0 .516.127.912.379 1.188.263.276.635.414 1.115.414.54 0 .991-.15 1.35-.45l.54 1.242a2.51 2.51 0 0 1-.953.504 3.935 3.935 0 0 1-1.134.162Zm-4.645-8.226v-1.422h6.085v1.422h-6.085Zm-4.917 8.228a7.85 7.85 0 0 1-2.268-.324c-.708-.216-1.266-.48-1.674-.792l.72-1.368c.408.276.912.51 1.512.702a5.99 5.99 0 0 0 1.836.288c.804 0 1.38-.114 1.728-.342.36-.228.54-.546.54-.954 0-.3-.108-.534-.324-.702-.216-.168-.504-.294-.864-.378a12.123 12.123 0 0 0-1.17-.216 24.668 24.668 0 0 1-1.296-.252 5.786 5.786 0 0 1-1.188-.432 2.343 2.343 0 0 1-.864-.774c-.216-.336-.324-.78-.324-1.332 0-.576.162-1.08.486-1.512.324-.432.78-.762 1.368-.99.6-.24 1.308-.36 2.124-.36.624 0 1.254.078 1.89.234.648.144 1.176.354 1.584.63l-.738 1.368a4.077 4.077 0 0 0-1.35-.594 6.226 6.226 0 0 0-1.404-.162c-.756 0-1.32.126-1.692.378-.372.24-.558.552-.558.936 0 .324.108.576.324.756.228.168.516.3.864.396.36.096.756.18 1.188.252.432.06.864.144 1.296.252.432.096.822.234 1.17.414.36.18.648.432.864.756.228.324.342.756.342 1.296 0 .576-.168 1.074-.504 1.494-.336.42-.81.75-1.422.99-.612.228-1.344.342-2.196.342Zm-7.761-.108v-9.54h1.728v9.54h-1.728Zm.864-11.376c-.336 0-.618-.108-.846-.324a1.077 1.077 0 0 1-.324-.792c0-.324.108-.594.324-.81.228-.216.51-.324.846-.324.336 0 .612.108.828.324a.994.994 0 0 1 .342.774c0 .324-.108.6-.324.828-.216.216-.498.324-.846.324Zm-5.889 11.375v-13.356h1.728v13.356h-1.728Zm-10.64 1.116v-1.116h8.999v1.116h-8.999Zm-7.771 2.485c-.456 0-.9-.078-1.332-.234a3.038 3.038 0 0 1-1.116-.648l.738-1.296c.24.228.504.402.792.522.288.12.594.18.918.18.42 0 .768-.108 1.044-.324.276-.216.534-.6.774-1.152l.594-1.314.18-.216 3.744-8.658h1.692l-4.626 10.494c-.276.672-.588 1.2-.936 1.584-.336.384-.708.654-1.116.81a3.513 3.513 0 0 1-1.35.252Zm2.268-3.294-4.356-9.846h1.8l3.708 8.496-1.152 1.35Zm-9.594-9.936c.768 0 1.445.15 2.033.45.588.3 1.044.756 1.369 1.368.336.612.503 1.386.503 2.322v5.49h-1.728v-5.292c0-.924-.215-1.62-.647-2.088-.432-.468-1.039-.702-1.818-.702-.576 0-1.081.12-1.513.36-.432.24-.768.594-1.008 1.062-.227.468-.342 1.05-.342 1.746v4.914h-1.728v-5.292c0-.924-.215-1.62-.647-2.088-.421-.468-1.027-.702-1.818-.702-.565 0-1.062.12-1.494.36-.432.24-.768.594-1.008 1.062-.24.468-.361 1.05-.361 1.746v4.914h-1.728v-9.54h1.657v2.538l-.271-.648c.3-.624.762-1.11 1.386-1.458.624-.348 1.35-.522 2.178-.522.912 0 1.699.228 2.358.684.66.444 1.092 1.122 1.296 2.034l-.701-.288c.288-.732.791-1.32 1.511-1.764.72-.444 1.561-.666 2.521-.666Zm-15.792 13.121c-.684-1.092-1.213-2.352-1.584-3.78-.372-1.44-.559-2.988-.559-4.644 0-1.656.187-3.204.559-4.644.371-1.452.9-2.712 1.584-3.78h1.638a15.426 15.426 0 0 0-1.584 3.996c-.336 1.38-.505 2.856-.505 4.428a18.9 18.9 0 0 0 .505 4.446c.336 1.38.864 2.706 1.584 3.978h-1.638Zm-9.369-13.121c.78 0 1.464.15 2.052.45.6.3 1.068.756 1.404 1.368.336.612.504 1.386.504 2.322v5.49h-1.728v-5.292c0-.924-.228-1.62-.684-2.088-.444-.468-1.074-.702-1.89-.702-.612 0-1.146.12-1.602.36-.456.24-.81.594-1.062 1.062-.24.468-.36 1.05-.36 1.746v4.914h-1.728v-9.54h1.656v2.574l-.27-.684a3.313 3.313 0 0 1 1.44-1.458c.648-.348 1.404-.522 2.268-.522Zm-10.124 9.63v-9.54h1.728v9.54h-1.728Zm.864-11.376c-.336 0-.618-.108-.846-.324a1.077 1.077 0 0 1-.324-.792c0-.324.108-.594.324-.81.228-.216.51-.324.846-.324.336 0 .612.108.828.324a.994.994 0 0 1 .342.774c0 .324-.108.6-.324.828-.216.216-.498.324-.846.324Zm-8.202 11.484c-.96 0-1.812-.21-2.556-.63a4.69 4.69 0 0 1-1.764-1.728c-.432-.744-.648-1.584-.648-2.52 0-.948.216-1.788.648-2.52a4.557 4.557 0 0 1 1.764-1.71c.744-.42 1.596-.63 2.556-.63.948 0 1.794.21 2.538.63a4.4 4.4 0 0 1 1.764 1.71c.432.72.648 1.56.648 2.52 0 .948-.216 1.788-.648 2.52a4.524 4.524 0 0 1-1.764 1.728c-.744.42-1.59.63-2.538.63Zm0-1.512c.612 0 1.158-.138 1.638-.414a2.922 2.922 0 0 0 1.152-1.17c.276-.516.414-1.11.414-1.782 0-.684-.138-1.272-.414-1.764a2.922 2.922 0 0 0-1.152-1.17c-.48-.276-1.026-.414-1.638-.414-.612 0-1.158.138-1.638.414-.48.276-.864.666-1.152 1.17-.288.492-.432 1.08-.432 1.764 0 .672.144 1.266.432 1.782.288.504.672.894 1.152 1.17.48.276 1.026.414 1.638.414ZM276 309.948c-.396 0-.774-.048-1.134-.144a2.597 2.597 0 0 1-.936-.432l.558-1.332c.36.3.828.45 1.404.45.456 0 .804-.144 1.044-.432.252-.276.378-.69.378-1.242v-10.008h1.728v9.972c0 .972-.264 1.74-.792 2.304-.516.576-1.266.864-2.25.864Zm2.178-14.976c-.336 0-.618-.108-.846-.324a1.077 1.077 0 0 1-.324-.792c0-.324.108-.594.324-.81.228-.216.51-.324.846-.324.336 0 .612.108.828.324a.994.994 0 0 1 .342.774c0 .324-.108.6-.324.828-.216.216-.498.324-.846.324Zm-4.798 11.485a1.21 1.21 0 0 1-.864-.342c-.24-.24-.36-.54-.36-.9s.12-.654.36-.882a1.21 1.21 0 0 1 .864-.342c.324 0 .6.114.828.342.24.228.36.522.36.882s-.12.66-.36.9a1.128 1.128 0 0 1-.828.342Zm-6.85-7.848-.108-4.86h1.512l-.126 4.86h-1.278Zm3.258 0-.108-4.86h1.512l-.126 4.86h-1.278Zm-12.464 10.404.9-3.636.234 1.044a1.27 1.27 0 0 1-.882-.324c-.228-.216-.342-.51-.342-.882 0-.36.114-.654.342-.882a1.21 1.21 0 0 1 .864-.342c.348 0 .63.12.846.36.216.228.324.516.324.864 0 .12-.012.24-.036.36-.012.108-.042.24-.09.396a4.69 4.69 0 0 1-.18.54l-.846 2.502h-1.134Zm-5.763-10.404-.108-4.86h1.512l-.126 4.86h-1.278Zm3.258 0-.108-4.86h1.512l-.126 4.86h-1.278Zm-6.708 11.23c-.684-1.092-1.212-2.352-1.584-3.78-.372-1.44-.558-2.988-.558-4.644 0-1.656.186-3.204.558-4.644.372-1.452.9-2.712 1.584-3.78h1.638a15.426 15.426 0 0 0-1.584 3.996c-.336 1.38-.504 2.856-.504 4.428a18.9 18.9 0 0 0 .504 4.446c.336 1.38.864 2.706 1.584 3.978h-1.638Zm-6.389-3.385c-.96 0-1.704-.258-2.232-.774-.528-.516-.792-1.254-.792-2.214v-8.748h1.728v8.676c0 .516.126.912.378 1.188.264.276.636.414 1.116.414.54 0 .99-.15 1.35-.45l.54 1.242a2.506 2.506 0 0 1-.954.504c-.36.108-.738.162-1.134.162Zm-4.644-8.226v-1.422h6.084v1.422h-6.084Zm-5.796-1.51c.78 0 1.463.15 2.051.45.601.3 1.069.756 1.405 1.368.336.612.503 1.386.503 2.322v5.49h-1.728v-5.292c0-.924-.228-1.62-.683-2.088-.444-.468-1.075-.702-1.891-.702-.611 0-1.145.12-1.602.36-.455.24-.81.594-1.062 1.062-.24.468-.36 1.05-.36 1.746v4.914h-1.727v-9.54h1.655v2.574l-.27-.684a3.324 3.324 0 0 1 1.44-1.458c.649-.348 1.405-.522 2.269-.522Zm-10.116 9.63v-9.54h1.727v9.54h-1.727Zm.864-11.376c-.336 0-.618-.108-.846-.324a1.074 1.074 0 0 1-.325-.792c0-.324.108-.594.325-.81.228-.216.51-.324.846-.324.336 0 .611.108.828.324a.994.994 0 0 1 .342.774c0 .324-.108.6-.325.828-.215.216-.497.324-.845.324Zm-8.124 11.376v-9.54h1.656v2.592l-.162-.648a2.93 2.93 0 0 1 1.332-1.512c.624-.348 1.392-.522 2.304-.522v1.674a1.312 1.312 0 0 0-.216-.018h-.18c-.924 0-1.656.276-2.196.828-.54.552-.81 1.35-.81 2.394v4.752h-1.728Zm-7.207.108c-.792 0-1.518-.18-2.178-.54-.648-.372-1.17-.918-1.566-1.638-.384-.72-.576-1.62-.576-2.7s.186-1.98.558-2.7c.384-.72.9-1.26 1.548-1.62.66-.36 1.398-.54 2.214-.54.936 0 1.764.204 2.484.612a4.5 4.5 0 0 1 1.71 1.71c.42.72.63 1.566.63 2.538 0 .972-.21 1.824-.63 2.556a4.5 4.5 0 0 1-1.71 1.71c-.72.408-1.548.612-2.484.612Zm-5.058 3.384v-13.032h1.656v2.574l-.108 2.214.18 2.214v6.03h-1.728Zm4.914-4.896c.612 0 1.158-.138 1.638-.414a2.922 2.922 0 0 0 1.152-1.17c.288-.516.432-1.11.432-1.782 0-.684-.144-1.272-.432-1.764a2.922 2.922 0 0 0-1.152-1.17c-.48-.276-1.026-.414-1.638-.414-.6 0-1.146.138-1.638.414-.48.276-.864.666-1.152 1.17-.276.492-.414 1.08-.414 1.764 0 .672.138 1.266.414 1.782.288.504.672.894 1.152 1.17a3.29 3.29 0 0 0 1.638.414Zm473.502-26.956v-7.884h1.512v7.884h-1.512Zm-3.276-3.222v-1.422h8.064v1.422h-8.064Zm-7.192 3.222v-7.884h1.511v7.884h-1.511Zm-3.277-3.222v-1.422h8.064v1.422h-8.064Zm-6.699 5.726c-.96 0-1.848-.155-2.664-.468a6.516 6.516 0 0 1-2.106-1.35 6.499 6.499 0 0 1-1.386-2.052c-.336-.78-.504-1.638-.504-2.573 0-.937.168-1.795.504-2.575a6.18 6.18 0 0 1 1.404-2.033 6.126 6.126 0 0 1 2.106-1.35 7.155 7.155 0 0 1 2.664-.487c.972 0 1.866.168 2.682.504.828.325 1.53.811 2.106 1.458l-1.17 1.134a4.567 4.567 0 0 0-1.62-1.115 4.923 4.923 0 0 0-1.926-.378c-.708 0-1.368.119-1.98.359-.6.24-1.122.576-1.566 1.008a4.632 4.632 0 0 0-1.044 1.549 5.045 5.045 0 0 0-.36 1.926c0 .695.12 1.344.36 1.943a4.674 4.674 0 0 0 2.61 2.538c.612.24 1.272.361 1.98.361.684 0 1.326-.121 1.926-.361.6-.251 1.14-.635 1.62-1.152l1.17 1.135a5.593 5.593 0 0 1-2.106 1.475c-.816.336-1.716.504-2.7.504Zm-15.476 2.521.9-3.636.234 1.044a1.27 1.27 0 0 1-.882-.324c-.228-.216-.342-.51-.342-.882 0-.36.114-.654.342-.882a1.21 1.21 0 0 1 .864-.342c.348 0 .63.12.846.36.216.228.324.516.324.864 0 .12-.012.24-.036.36-.012.108-.042.24-.09.396a4.69 4.69 0 0 1-.18.54l-.846 2.502h-1.134Zm-3.665-2.559c-.96 0-1.704-.258-2.232-.774-.528-.516-.792-1.254-.792-2.214v-8.748h1.728v8.676c0 .516.126.912.378 1.188.264.276.636.414 1.116.414.54 0 .99-.15 1.35-.45l.54 1.242a2.506 2.506 0 0 1-.954.504c-.36.108-.738.162-1.134.162Zm-4.644-8.226v-1.422h6.084v1.422h-6.084Zm-5.848 8.228c-.792 0-1.518-.18-2.178-.54-.648-.372-1.17-.918-1.566-1.638-.384-.72-.576-1.62-.576-2.7s.186-1.98.558-2.7c.384-.72.9-1.26 1.548-1.62.66-.36 1.398-.54 2.214-.54.936 0 1.764.204 2.484.612a4.5 4.5 0 0 1 1.71 1.71c.42.72.63 1.566.63 2.538 0 .972-.21 1.824-.63 2.556a4.5 4.5 0 0 1-1.71 1.71c-.72.408-1.548.612-2.484.612Zm-5.058 3.384v-13.032h1.656v2.574l-.108 2.214.18 2.214v6.03h-1.728Zm4.914-4.896c.612 0 1.158-.138 1.638-.414a2.922 2.922 0 0 0 1.152-1.17c.288-.516.432-1.11.432-1.782 0-.684-.144-1.272-.432-1.764a2.922 2.922 0 0 0-1.152-1.17c-.48-.276-1.026-.414-1.638-.414-.6 0-1.146.138-1.638.414-.48.276-.864.666-1.152 1.17-.276.492-.414 1.08-.414 1.764 0 .672.138 1.266.414 1.782.288.504.672.894 1.152 1.17a3.29 3.29 0 0 0 1.638.414Zm-9.936 1.404v-9.54h1.727v9.54H619.9Zm.863-11.376c-.336 0-.618-.108-.845-.324a1.073 1.073 0 0 1-.324-.792c0-.324.107-.595.324-.81.227-.217.509-.324.845-.324.336 0 .612.107.829.324a.995.995 0 0 1 .342.774c0 .324-.108.599-.324.828-.216.216-.498.324-.847.324Zm-8.13 11.376v-9.54h1.656v2.592l-.162-.648a2.93 2.93 0 0 1 1.332-1.512c.624-.348 1.392-.522 2.304-.522v1.674a1.312 1.312 0 0 0-.216-.018h-.18c-.924 0-1.656.276-2.196.828-.54.552-.81 1.35-.81 2.394v4.752h-1.728Zm-6.124.108c-.972 0-1.842-.21-2.61-.63a4.653 4.653 0 0 1-1.782-1.728c-.432-.732-.648-1.572-.648-2.52s.216-1.788.648-2.52a4.524 4.524 0 0 1 1.782-1.71c.768-.42 1.638-.63 2.61-.63.864 0 1.632.174 2.304.522.684.336 1.212.84 1.584 1.512l-1.314.846c-.312-.468-.696-.81-1.152-1.026a3.106 3.106 0 0 0-1.44-.342c-.624 0-1.182.138-1.674.414a3.045 3.045 0 0 0-1.17 1.17c-.288.492-.432 1.08-.432 1.764 0 .684.144 1.278.432 1.782.288.504.678.894 1.17 1.17.492.276 1.05.414 1.674.414.516 0 .996-.108 1.44-.324.456-.228.84-.576 1.152-1.044l1.314.828c-.372.66-.9 1.17-1.584 1.53-.672.348-1.44.522-2.304.522Zm-11.411.036c-.96 0-1.878-.144-2.755-.432-.876-.299-1.565-.683-2.07-1.152l.666-1.403c.48.42 1.093.768 1.836 1.044a6.654 6.654 0 0 0 2.323.413c.732 0 1.325-.084 1.782-.251.455-.169.791-.396 1.008-.684.215-.301.324-.637.324-1.008 0-.432-.144-.781-.432-1.044-.276-.265-.643-.475-1.098-.63a10.597 10.597 0 0 0-1.476-.432 30.483 30.483 0 0 1-1.638-.415 7.887 7.887 0 0 1-1.494-.63 3.093 3.093 0 0 1-1.081-1.008c-.276-.432-.413-.984-.413-1.656 0-.648.167-1.241.503-1.782.348-.551.876-.989 1.584-1.314.72-.336 1.632-.504 2.736-.504.732 0 1.459.096 2.179.288.72.192 1.343.468 1.871.829l-.594 1.44a5.576 5.576 0 0 0-1.709-.774 6.429 6.429 0 0 0-1.747-.253c-.708 0-1.29.09-1.745.27-.457.181-.793.421-1.008.72-.205.3-.307.636-.307 1.008 0 .444.138.799.415 1.062.288.265.654.474 1.098.63.455.157.954.3 1.494.432.539.121 1.08.259 1.62.415a6.64 6.64 0 0 1 1.494.612 3.07 3.07 0 0 1 1.098 1.008c.276.419.413.96.413 1.619a3.27 3.27 0 0 1-.522 1.782c-.348.541-.887.979-1.619 1.315-.72.324-1.632.485-2.736.485Zm-8.766-.144v-2.016l-.09-.378v-3.438c0-.732-.216-1.296-.648-1.692-.42-.408-1.056-.612-1.908-.612-.564 0-1.116.096-1.656.288a4.14 4.14 0 0 0-1.368.738l-.72-1.296a5.105 5.105 0 0 1 1.764-.9 7.306 7.306 0 0 1 2.178-.324c1.308 0 2.316.318 3.024.954.708.636 1.062 1.608 1.062 2.916v5.76h-1.638Zm-3.132.108c-.708 0-1.332-.12-1.872-.36-.528-.24-.936-.57-1.224-.99a2.57 2.57 0 0 1-.432-1.458c0-.516.12-.984.36-1.404.252-.42.654-.756 1.206-1.008.564-.252 1.32-.378 2.268-.378h3.024v1.242h-2.952c-.864 0-1.446.144-1.746.432-.3.288-.45.636-.45 1.044 0 .468.186.846.558 1.134.372.276.888.414 1.548.414.648 0 1.212-.144 1.692-.432a2.446 2.446 0 0 0 1.062-1.26l.342 1.188c-.228.564-.63 1.014-1.206 1.35-.576.324-1.302.486-2.178.486Zm-10.04-.108-4.176-9.54h1.8l3.708 8.64h-.864l3.78-8.64h1.692l-4.176 9.54h-1.764Zm-7.164 0v-2.016l-.09-.378v-3.438c0-.732-.216-1.296-.648-1.692-.42-.408-1.056-.612-1.908-.612-.564 0-1.116.096-1.656.288a4.14 4.14 0 0 0-1.368.738l-.72-1.296a5.105 5.105 0 0 1 1.764-.9 7.306 7.306 0 0 1 2.178-.324c1.308 0 2.316.318 3.024.954.708.636 1.062 1.608 1.062 2.916v5.76h-1.638Zm-3.132.108c-.708 0-1.332-.12-1.872-.36-.528-.24-.936-.57-1.224-.99a2.57 2.57 0 0 1-.432-1.458c0-.516.12-.984.36-1.404.252-.42.654-.756 1.206-1.008.564-.252 1.32-.378 2.268-.378h3.024v1.242h-2.952c-.864 0-1.446.144-1.746.432-.3.288-.45.636-.45 1.044 0 .468.186.846.558 1.134.372.276.888.414 1.548.414.648 0 1.212-.144 1.692-.432a2.446 2.446 0 0 0 1.062-1.26l.342 1.188c-.228.564-.63 1.014-1.206 1.35-.576.324-1.302.486-2.178.486Zm-10.145.037a4.75 4.75 0 0 1-2.088-.468 4.016 4.016 0 0 1-1.584-1.35l1.044-1.224c.348.48.738.852 1.17 1.116.444.252.93.378 1.458.378 1.44 0 2.16-.852 2.16-2.556v-7.074h-4.554v-1.566h6.336v8.55c0 1.404-.336 2.454-1.008 3.15-.66.696-1.638 1.044-2.934 1.044Zm-11.473 2.52.9-3.636.234 1.044a1.27 1.27 0 0 1-.882-.324c-.228-.216-.342-.51-.342-.882 0-.36.114-.654.342-.882a1.21 1.21 0 0 1 .864-.342c.348 0 .63.12.846.36.216.228.324.516.324.864 0 .12-.012.24-.036.36-.012.108-.042.24-.09.396a4.69 4.69 0 0 1-.18.54l-.846 2.502h-1.134Zm-6.464-12.295c.78 0 1.464.15 2.051.45.601.3 1.069.756 1.405 1.368.336.612.504 1.386.504 2.322v5.49h-1.728v-5.292c0-.924-.229-1.62-.684-2.088-.444-.468-1.075-.702-1.891-.702-.611 0-1.145.12-1.601.36-.456.24-.81.594-1.062 1.062-.24.468-.361 1.05-.361 1.746v4.914h-1.727v-9.54h1.656v2.574l-.271-.684a3.324 3.324 0 0 1 1.44-1.458c.649-.348 1.405-.522 2.269-.522Zm-12.439 9.738c-.96 0-1.812-.21-2.556-.63a4.69 4.69 0 0 1-1.764-1.728c-.432-.744-.648-1.584-.648-2.52 0-.948.216-1.788.648-2.52a4.557 4.557 0 0 1 1.764-1.71c.744-.42 1.596-.63 2.556-.63.948 0 1.794.21 2.538.63a4.4 4.4 0 0 1 1.764 1.71c.432.72.648 1.56.648 2.52 0 .948-.216 1.788-.648 2.52a4.524 4.524 0 0 1-1.764 1.728c-.744.42-1.59.63-2.538.63Zm0-1.512c.612 0 1.158-.138 1.638-.414a2.922 2.922 0 0 0 1.152-1.17c.276-.516.414-1.11.414-1.782 0-.684-.138-1.272-.414-1.764a2.922 2.922 0 0 0-1.152-1.17c-.48-.276-1.026-.414-1.638-.414-.612 0-1.158.138-1.638.414-.48.276-.864.666-1.152 1.17-.288.492-.432 1.08-.432 1.764 0 .672.144 1.266.432 1.782.288.504.672.894 1.152 1.17.48.276 1.026.414 1.638.414Zm-11.249-8.227c.78 0 1.464.15 2.052.45.6.3 1.068.756 1.404 1.368.336.612.504 1.386.504 2.322v5.49h-1.728v-5.292c0-.924-.228-1.62-.684-2.088-.444-.468-1.074-.702-1.89-.702-.612 0-1.146.12-1.602.36-.456.24-.81.594-1.062 1.062-.24.468-.36 1.05-.36 1.746v4.914H506v-13.356h1.728v6.39l-.342-.684a3.313 3.313 0 0 1 1.44-1.458c.648-.348 1.404-.522 2.268-.522Zm-9.263 9.737c-.96 0-1.704-.258-2.232-.774-.528-.516-.792-1.254-.792-2.214v-8.748h1.728v8.676c0 .516.126.912.378 1.188.265.276.636.414 1.116.414.541 0 .99-.15 1.351-.45l.539 1.242a2.499 2.499 0 0 1-.954.504 3.92 3.92 0 0 1-1.134.162Zm-4.643-8.226v-1.422h6.083v1.422h-6.083Zm-8.537 11.72c-.456 0-.9-.079-1.332-.234a3.04 3.04 0 0 1-1.116-.649l.738-1.296c.24.228.504.403.792.522.288.121.594.181.918.181.42 0 .768-.108 1.044-.325.276-.215.534-.599.774-1.152l.594-1.313.18-.217 3.744-8.657h1.692l-4.626 10.493c-.276.672-.588 1.2-.936 1.584-.336.384-.708.654-1.116.81a3.494 3.494 0 0 1-1.35.253Zm2.268-3.295-4.356-9.845h1.8l3.708 8.496-1.152 1.349Zm-15.302-.304v-12.6h4.914c1.104 0 2.046.174 2.826.522.78.348 1.38.852 1.8 1.512.42.66.63 1.446.63 2.358 0 .912-.21 1.698-.63 2.358-.42.648-1.02 1.152-1.8 1.512-.78.348-1.722.522-2.826.522h-3.924l.81-.846v4.662h-1.8Zm1.8-4.482-.81-.9h3.87c1.152 0 2.022-.246 2.61-.738.6-.492.9-1.188.9-2.088 0-.9-.3-1.596-.9-2.088-.588-.492-1.458-.738-2.61-.738h-3.87l.81-.9v7.452Zm-13.662 4.589c-1.02 0-1.92-.21-2.7-.63a4.62 4.62 0 0 1-1.8-1.728c-.42-.732-.63-1.572-.63-2.52s.204-1.788.612-2.52a4.5 4.5 0 0 1 1.71-1.71c.732-.42 1.554-.63 2.466-.63.924 0 1.74.204 2.448.612.708.408 1.26.984 1.656 1.728.408.732.612 1.59.612 2.574 0 .072-.006.156-.018.252 0 .096-.006.186-.018.27h-8.118v-1.242h7.218l-.702.432c.012-.612-.114-1.158-.378-1.638a2.807 2.807 0 0 0-1.098-1.116c-.456-.276-.99-.414-1.602-.414-.6 0-1.134.138-1.602.414a2.779 2.779 0 0 0-1.098 1.134c-.264.48-.396 1.032-.396 1.656v.288c0 .636.144 1.206.432 1.71.3.492.714.876 1.242 1.152.528.276 1.134.414 1.818.414.564 0 1.074-.096 1.53-.288.468-.192.876-.48 1.224-.864l.954 1.116a4.166 4.166 0 0 1-1.62 1.152c-.636.264-1.35.396-2.142.396Zm-11.411-.108v-9.54H454v2.592l-.162-.648a2.93 2.93 0 0 1 1.332-1.512c.624-.348 1.392-.522 2.304-.522v1.674a1.312 1.312 0 0 0-.216-.018h-.18c-.924 0-1.656.276-2.196.828-.54.552-.81 1.35-.81 2.394v4.752h-1.728Zm-4.84 0v-2.016l-.09-.378v-3.438c0-.732-.216-1.296-.648-1.692-.42-.408-1.056-.612-1.908-.612-.564 0-1.116.096-1.656.288a4.14 4.14 0 0 0-1.368.738l-.72-1.296a5.105 5.105 0 0 1 1.764-.9 7.306 7.306 0 0 1 2.178-.324c1.308 0 2.316.318 3.024.954.708.636 1.062 1.608 1.062 2.916v5.76h-1.638Zm-3.132.108c-.708 0-1.332-.12-1.872-.36-.528-.24-.936-.57-1.224-.99a2.57 2.57 0 0 1-.432-1.458c0-.516.12-.984.36-1.404.252-.42.654-.756 1.206-1.008.564-.252 1.32-.378 2.268-.378h3.024v1.242h-2.952c-.864 0-1.446.144-1.746.432-.3.288-.45.636-.45 1.044 0 .468.186.846.558 1.134.372.276.888.414 1.548.414.648 0 1.212-.144 1.692-.432a2.446 2.446 0 0 0 1.062-1.26l.342 1.188c-.228.564-.63 1.014-1.206 1.35-.576.324-1.302.486-2.178.486Zm-13.907 0a7.85 7.85 0 0 1-2.268-.324c-.708-.216-1.265-.48-1.674-.792l.72-1.368c.409.276.912.51 1.513.702a5.978 5.978 0 0 0 1.835.288c.805 0 1.381-.114 1.728-.342.361-.228.54-.546.54-.954 0-.3-.108-.534-.323-.702-.217-.168-.505-.294-.864-.378a12.204 12.204 0 0 0-1.171-.216 24.668 24.668 0 0 1-1.296-.252 5.786 5.786 0 0 1-1.188-.432 2.343 2.343 0 0 1-.864-.774c-.216-.336-.323-.78-.323-1.332 0-.576.161-1.08.486-1.512.324-.432.779-.762 1.367-.99.601-.24 1.309-.36 2.125-.36.624 0 1.254.078 1.889.234.649.144 1.176.354 1.584.63l-.737 1.368a4.086 4.086 0 0 0-1.35-.594 6.234 6.234 0 0 0-1.405-.162c-.756 0-1.319.126-1.692.378-.372.24-.558.552-.558.936 0 .324.109.576.324.756.229.168.517.3.864.396.361.096.757.18 1.189.252.432.06.864.144 1.296.252.432.096.821.234 1.169.414.361.18.649.432.864.756.228.324.342.756.342 1.296 0 .576-.167 1.074-.503 1.494-.336.42-.811.75-1.423.99-.612.228-1.344.342-2.196.342Zm-9.507 0c-1.02 0-1.92-.21-2.7-.63a4.62 4.62 0 0 1-1.8-1.728c-.42-.732-.63-1.572-.63-2.52s.204-1.788.612-2.52a4.5 4.5 0 0 1 1.71-1.71c.732-.42 1.554-.63 2.466-.63.924 0 1.74.204 2.448.612.708.408 1.26.984 1.656 1.728.408.732.612 1.59.612 2.574 0 .072-.006.156-.018.252 0 .096-.006.186-.018.27h-8.118v-1.242h7.218l-.702.432c.012-.612-.114-1.158-.378-1.638a2.807 2.807 0 0 0-1.098-1.116c-.456-.276-.99-.414-1.602-.414-.6 0-1.134.138-1.602.414a2.779 2.779 0 0 0-1.098 1.134c-.264.48-.396 1.032-.396 1.656v.288c0 .636.144 1.206.432 1.71.3.492.714.876 1.242 1.152.528.276 1.134.414 1.818.414.564 0 1.074-.096 1.53-.288.468-.192.876-.48 1.224-.864l.954 1.116a4.166 4.166 0 0 1-1.62 1.152c-.636.264-1.35.396-2.142.396Zm-12.501 3.492a8.737 8.737 0 0 1-2.557-.378c-.816-.24-1.481-.588-1.997-1.044l.827-1.332c.444.384.991.684 1.638.9a6.093 6.093 0 0 0 2.035.342c1.127 0 1.955-.264 2.483-.792s.793-1.332.793-2.412v-2.016l.18-1.89-.09-1.908v-2.61h1.638v8.244c0 1.68-.421 2.916-1.26 3.708-.841.792-2.071 1.188-3.69 1.188Zm-.217-3.996c-.923 0-1.751-.192-2.484-.576a4.622 4.622 0 0 1-1.728-1.638c-.419-.696-.63-1.5-.63-2.412 0-.924.211-1.728.63-2.412a4.484 4.484 0 0 1 1.728-1.62c.733-.384 1.561-.576 2.484-.576.816 0 1.561.168 2.233.504.672.324 1.206.828 1.601 1.512.409.684.613 1.548.613 2.592 0 1.032-.204 1.89-.613 2.574a3.89 3.89 0 0 1-1.601 1.548c-.672.336-1.417.504-2.233.504Zm.198-1.512c.637 0 1.2-.132 1.693-.396a2.9 2.9 0 0 0 1.152-1.098c.288-.468.432-1.008.432-1.62 0-.612-.144-1.152-.432-1.62a2.78 2.78 0 0 0-1.152-1.08c-.493-.264-1.056-.396-1.693-.396-.636 0-1.206.132-1.709.396a2.897 2.897 0 0 0-1.171 1.08c-.275.468-.413 1.008-.413 1.62 0 .612.138 1.152.413 1.62.288.468.678.834 1.171 1.098.503.264 1.073.396 1.709.396Zm-8.996 1.908v-2.016l-.091-.378v-3.438c0-.732-.216-1.296-.648-1.692-.42-.408-1.056-.612-1.908-.612-.564 0-1.116.096-1.656.288a4.14 4.14 0 0 0-1.368.738l-.719-1.296c.491-.396 1.079-.696 1.763-.9a7.307 7.307 0 0 1 2.179-.324c1.307 0 2.315.318 3.024.954.707.636 1.061 1.608 1.061 2.916v5.76h-1.637Zm-3.133.108c-.707 0-1.331-.12-1.872-.36-.528-.24-.936-.57-1.224-.99a2.57 2.57 0 0 1-.432-1.458c0-.516.12-.984.36-1.404.253-.42.654-.756 1.206-1.008.564-.252 1.32-.378 2.268-.378h3.024v1.242h-2.952c-.864 0-1.446.144-1.746.432-.299.288-.45.636-.45 1.044 0 .468.186.846.558 1.134.372.276.889.414 1.548.414.648 0 1.213-.144 1.693-.432a2.449 2.449 0 0 0 1.061-1.26l.342 1.188c-.228.564-.63 1.014-1.206 1.35-.576.324-1.301.486-2.178.486Zm-10.955 0c-.816 0-1.536-.15-2.16-.451a3.293 3.293 0 0 1-1.44-1.368c-.336-.624-.504-1.403-.504-2.34v-5.489h1.728v5.291c0 .937.222 1.638.666 2.106.456.469 1.092.703 1.908.703.6 0 1.122-.121 1.566-.361a2.546 2.546 0 0 0 1.026-1.079c.24-.48.36-1.056.36-1.728v-4.932h1.728v9.54h-1.638v-2.575l.27.684a3.333 3.333 0 0 1-1.404 1.476c-.624.348-1.326.523-2.106.523Zm-12.265 3.492a8.73 8.73 0 0 1-2.556-.378c-.816-.24-1.482-.588-1.998-1.044l.829-1.332c.443.384.989.684 1.637.9a6.083 6.083 0 0 0 2.034.342c1.129 0 1.956-.264 2.484-.792s.792-1.332.792-2.412v-2.016l.18-1.89-.09-1.908v-2.61h1.638v8.244c0 1.68-.419 2.916-1.26 3.708-.839.792-2.07 1.188-3.69 1.188Zm-.216-3.996c-.924 0-1.752-.192-2.484-.576a4.622 4.622 0 0 1-1.728-1.638c-.42-.696-.63-1.5-.63-2.412 0-.924.21-1.728.63-2.412a4.484 4.484 0 0 1 1.728-1.62c.732-.384 1.56-.576 2.484-.576.816 0 1.56.168 2.232.504.672.324 1.206.828 1.603 1.512.407.684.611 1.548.611 2.592 0 1.032-.204 1.89-.611 2.574a3.906 3.906 0 0 1-1.603 1.548c-.672.336-1.416.504-2.232.504Zm.198-1.512c.636 0 1.2-.132 1.692-.396a2.9 2.9 0 0 0 1.152-1.098c.288-.468.432-1.008.432-1.62 0-.612-.144-1.152-.432-1.62a2.78 2.78 0 0 0-1.152-1.08c-.492-.264-1.056-.396-1.692-.396-.635 0-1.206.132-1.71.396a2.9 2.9 0 0 0-1.17 1.08c-.276.468-.414 1.008-.414 1.62 0 .612.138 1.152.414 1.62a3.03 3.03 0 0 0 1.17 1.098c.504.264 1.075.396 1.71.396Zm-11.321-7.722c.78 0 1.464.15 2.052.45.6.3 1.068.756 1.404 1.368.336.612.504 1.386.504 2.322v5.49h-1.728v-5.292c0-.924-.228-1.62-.684-2.088-.444-.468-1.074-.702-1.89-.702-.612 0-1.146.12-1.602.36-.456.24-.81.594-1.062 1.062-.24.468-.36 1.05-.36 1.746v4.914h-1.728v-9.54h1.656v2.574l-.27-.684a3.313 3.313 0 0 1 1.44-1.458c.648-.348 1.404-.522 2.268-.522Zm-9.934 9.63v-2.016l-.09-.378v-3.438c0-.732-.216-1.296-.648-1.692-.42-.408-1.056-.612-1.908-.612-.564 0-1.116.096-1.656.288a4.14 4.14 0 0 0-1.368.738l-.72-1.296a5.105 5.105 0 0 1 1.764-.9 7.306 7.306 0 0 1 2.178-.324c1.308 0 2.316.318 3.024.954.708.636 1.062 1.608 1.062 2.916v5.76h-1.638Zm-3.132.108c-.708 0-1.332-.12-1.872-.36-.528-.24-.936-.57-1.224-.99a2.57 2.57 0 0 1-.432-1.458c0-.516.12-.984.36-1.404.252-.42.654-.756 1.206-1.008.564-.252 1.32-.378 2.268-.378h3.024v1.242h-2.952c-.864 0-1.446.144-1.746.432-.3.288-.45.636-.45 1.044 0 .468.186.846.558 1.134.372.276.888.414 1.548.414.648 0 1.212-.144 1.692-.432a2.446 2.446 0 0 0 1.062-1.26l.342 1.188c-.228.564-.63 1.014-1.206 1.35-.576.324-1.302.486-2.178.486Zm-13.215-.107v-12.6h1.8v11.034h6.822v1.566h-8.622Zm-13.341 3.599a8.73 8.73 0 0 1-2.556-.378c-.816-.24-1.482-.588-1.998-1.044l.828-1.332c.444.384.99.684 1.638.9a6.083 6.083 0 0 0 2.034.342c1.128 0 1.956-.264 2.484-.792s.792-1.332.792-2.412v-2.016l.18-1.89-.09-1.908v-2.61h1.638v8.244c0 1.68-.42 2.916-1.26 3.708-.84.792-2.07 1.188-3.69 1.188Zm-.216-3.996c-.924 0-1.752-.192-2.484-.576a4.622 4.622 0 0 1-1.728-1.638c-.42-.696-.63-1.5-.63-2.412 0-.924.21-1.728.63-2.412a4.484 4.484 0 0 1 1.728-1.62c.732-.384 1.56-.576 2.484-.576.816 0 1.56.168 2.232.504.672.324 1.206.828 1.602 1.512.408.684.612 1.548.612 2.592 0 1.032-.204 1.89-.612 2.574-.396.684-.93 1.2-1.602 1.548-.672.336-1.416.504-2.232.504Zm.198-1.512c.636 0 1.2-.132 1.692-.396a2.9 2.9 0 0 0 1.152-1.098c.288-.468.432-1.008.432-1.62 0-.612-.144-1.152-.432-1.62a2.78 2.78 0 0 0-1.152-1.08c-.492-.264-1.056-.396-1.692-.396-.636 0-1.206.132-1.71.396a2.9 2.9 0 0 0-1.17 1.08c-.276.468-.414 1.008-.414 1.62 0 .612.138 1.152.414 1.62a3.03 3.03 0 0 0 1.17 1.098c.504.264 1.074.396 1.71.396Zm-11.313-7.722c.78 0 1.464.15 2.052.45.6.3 1.068.756 1.404 1.368.336.612.504 1.386.504 2.322v5.49h-1.728v-5.292c0-.924-.228-1.62-.684-2.088-.444-.468-1.074-.702-1.89-.702-.612 0-1.146.12-1.602.36-.456.24-.81.594-1.062 1.062-.24.468-.36 1.05-.36 1.746v4.914h-1.728v-9.54h1.656v2.574l-.27-.684a3.313 3.313 0 0 1 1.44-1.458c.648-.348 1.404-.522 2.268-.522Zm-10.124 9.63v-9.54h1.728v9.54h-1.728Zm.864-11.376c-.336 0-.618-.108-.846-.324a1.077 1.077 0 0 1-.324-.792c0-.324.108-.595.324-.81.228-.217.51-.324.846-.324.336 0 .612.107.828.324a.992.992 0 0 1 .342.774c0 .324-.108.599-.324.828-.216.216-.498.324-.846.324Zm-7.947 1.746c.768 0 1.447.15 2.034.45.588.3 1.045.756 1.368 1.368.336.612.505 1.386.505 2.322v5.49h-1.728v-5.292c0-.924-.217-1.62-.649-2.088-.432-.468-1.037-.702-1.817-.702-.576 0-1.081.12-1.513.36-.432.24-.768.594-1.008 1.062-.228.468-.342 1.05-.342 1.746v4.914h-1.727v-5.292c0-.924-.217-1.62-.649-2.088-.419-.468-1.026-.702-1.818-.702-.563 0-1.062.12-1.494.36-.432.24-.768.594-1.008 1.062-.24.468-.36 1.05-.36 1.746v4.914h-1.728v-9.54h1.656v2.538l-.269-.648a3.248 3.248 0 0 1 1.386-1.458c.624-.348 1.35-.522 2.177-.522.912 0 1.698.228 2.358.684.66.444 1.093 1.122 1.296 2.034l-.702-.288c.288-.732.792-1.32 1.512-1.764.72-.444 1.56-.666 2.52-.666Zm-19.023 0c.768 0 1.446.15 2.034.45.588.3 1.044.756 1.368 1.368.336.612.504 1.386.504 2.322v5.49h-1.728v-5.292c0-.924-.216-1.62-.648-2.088-.432-.468-1.038-.702-1.818-.702-.576 0-1.08.12-1.512.36-.432.24-.768.594-1.008 1.062-.228.468-.342 1.05-.342 1.746v4.914h-1.728v-5.292c0-.924-.216-1.62-.648-2.088-.42-.468-1.026-.702-1.818-.702-.564 0-1.062.12-1.494.36-.432.24-.768.594-1.008 1.062-.24.468-.36 1.05-.36 1.746v4.914h-1.728v-9.54h1.656v2.538l-.27-.648c.3-.624.762-1.11 1.386-1.458.624-.348 1.35-.522 2.178-.522.912 0 1.698.228 2.358.684.66.444 1.092 1.122 1.296 2.034l-.702-.288c.288-.732.792-1.32 1.512-1.764.72-.444 1.56-.666 2.52-.666Zm-16.766 9.63v-2.016l-.09-.378v-3.438c0-.732-.216-1.296-.648-1.692-.421-.408-1.056-.612-1.909-.612-.563 0-1.115.096-1.655.288-.54.18-.996.426-1.369.738l-.719-1.296a5.105 5.105 0 0 1 1.764-.9 7.306 7.306 0 0 1 2.178-.324c1.308 0 2.316.318 3.024.954.707.636 1.062 1.608 1.062 2.916v5.76h-1.638Zm-3.133.108c-.707 0-1.331-.12-1.872-.36-.528-.24-.935-.57-1.223-.99a2.57 2.57 0 0 1-.432-1.458c0-.516.119-.984.359-1.404.253-.42.655-.756 1.207-1.008.564-.252 1.32-.378 2.268-.378h3.024v1.242h-2.952c-.864 0-1.446.144-1.746.432-.3.288-.451.636-.451 1.044 0 .468.186.846.559 1.134.372.276.888.414 1.547.414.649 0 1.213-.144 1.693-.432a2.446 2.446 0 0 0 1.062-1.26l.342 1.188c-.228.564-.63 1.014-1.206 1.35-.576.324-1.302.486-2.179.486Zm-9.356-.108v-9.54h1.657v2.592l-.162-.648a2.93 2.93 0 0 1 1.332-1.512c.624-.348 1.392-.522 2.304-.522v1.674a1.312 1.312 0 0 0-.216-.018h-.18c-.924 0-1.656.276-2.196.828-.54.552-.81 1.35-.81 2.394v4.752h-1.729Zm-8.246 3.6a8.73 8.73 0 0 1-2.556-.378c-.816-.24-1.482-.588-1.998-1.044l.828-1.332c.444.384.99.684 1.638.9a6.083 6.083 0 0 0 2.034.342c1.128 0 1.956-.264 2.484-.792s.792-1.332.792-2.412v-2.016l.18-1.89-.09-1.908v-2.61h1.638v8.244c0 1.68-.42 2.916-1.26 3.708-.84.792-2.07 1.188-3.69 1.188Zm-.216-3.996c-.924 0-1.752-.192-2.484-.576a4.622 4.622 0 0 1-1.728-1.638c-.42-.696-.63-1.5-.63-2.412 0-.924.21-1.728.63-2.412a4.484 4.484 0 0 1 1.728-1.62c.732-.384 1.56-.576 2.484-.576.816 0 1.56.168 2.232.504.672.324 1.206.828 1.602 1.512.408.684.612 1.548.612 2.592 0 1.032-.204 1.89-.612 2.574-.396.684-.93 1.2-1.602 1.548-.672.336-1.416.504-2.232.504Zm.198-1.512c.636 0 1.2-.132 1.692-.396a2.9 2.9 0 0 0 1.152-1.098c.288-.468.432-1.008.432-1.62 0-.612-.144-1.152-.432-1.62a2.78 2.78 0 0 0-1.152-1.08c-.492-.264-1.056-.396-1.692-.396-.636 0-1.206.132-1.71.396a2.9 2.9 0 0 0-1.17 1.08c-.276.468-.414 1.008-.414 1.62 0 .612.138 1.152.414 1.62a3.03 3.03 0 0 0 1.17 1.098c.504.264 1.074.396 1.71.396Zm-11.502 2.016c-.96 0-1.812-.21-2.556-.63a4.69 4.69 0 0 1-1.764-1.728c-.432-.744-.648-1.584-.648-2.52 0-.948.216-1.788.648-2.52a4.557 4.557 0 0 1 1.764-1.71c.744-.42 1.596-.63 2.556-.63.948 0 1.794.21 2.538.63a4.4 4.4 0 0 1 1.764 1.71c.432.72.648 1.56.648 2.52 0 .948-.216 1.788-.648 2.52a4.524 4.524 0 0 1-1.764 1.728c-.744.42-1.59.63-2.538.63Zm0-1.512c.612 0 1.158-.138 1.638-.414a2.922 2.922 0 0 0 1.152-1.17c.276-.516.414-1.11.414-1.782 0-.684-.138-1.272-.414-1.764a2.922 2.922 0 0 0-1.152-1.17c-.48-.276-1.026-.414-1.638-.414-.612 0-1.158.138-1.638.414-.48.276-.864.666-1.152 1.17-.288.492-.432 1.08-.432 1.764 0 .672.144 1.266.432 1.782.288.504.672.894 1.152 1.17.48.276 1.026.414 1.638.414Zm-11.249 1.404v-9.54h1.656v2.592l-.162-.648a2.93 2.93 0 0 1 1.332-1.512c.624-.348 1.392-.522 2.304-.522v1.674a1.312 1.312 0 0 0-.216-.018h-.18c-.924 0-1.656.276-2.196.828-.54.552-.81 1.35-.81 2.394v4.752h-1.728Zm-12.406.001v-12.6h4.913c1.104 0 2.047.174 2.826.522.78.348 1.381.852 1.801 1.512.419.66.63 1.446.63 2.358 0 .912-.211 1.698-.63 2.358-.42.648-1.021 1.152-1.801 1.512-.779.348-1.722.522-2.826.522h-3.924l.81-.846v4.662h-1.799Zm1.799-4.482-.81-.9h3.87c1.152 0 2.022-.246 2.61-.738.6-.492.9-1.188.9-2.088 0-.9-.3-1.596-.9-2.088-.588-.492-1.458-.738-2.61-.738h-3.87l.81-.9v7.452Zm548.003-18.028h-1.638a15.099 15.099 0 0 0 1.602-3.978 18.9 18.9 0 0 0 .504-4.446c0-1.572-.168-3.048-.504-4.428a15.064 15.064 0 0 0-1.602-3.996h1.638c.708 1.068 1.242 2.328 1.602 3.781.372 1.44.558 2.987.558 4.643 0 1.656-.186 3.204-.558 4.644-.36 1.428-.894 2.688-1.602 3.78Zm-5.896-3.49v-11.88l.774.846h-3.618v-1.566h4.626v12.6h-1.782Zm-5.184.105c-.96 0-1.704-.258-2.232-.774-.528-.516-.792-1.254-.792-2.214v-8.748h1.728v8.676c0 .516.126.912.378 1.188.264.276.636.414 1.116.414.54 0 .99-.15 1.35-.45l.54 1.242a2.506 2.506 0 0 1-.954.504c-.36.108-.738.162-1.134.162Zm-4.644-8.226v-1.422h6.084v1.422h-6.084Zm-4.918 8.228a7.85 7.85 0 0 1-2.268-.324c-.708-.216-1.266-.48-1.674-.792l.72-1.368c.408.276.912.51 1.512.702a5.99 5.99 0 0 0 1.836.288c.804 0 1.38-.114 1.728-.342.36-.228.54-.546.54-.954 0-.3-.108-.534-.324-.702-.216-.168-.504-.294-.864-.378a12.123 12.123 0 0 0-1.17-.216 24.668 24.668 0 0 1-1.296-.252 5.786 5.786 0 0 1-1.188-.432 2.343 2.343 0 0 1-.864-.774c-.216-.336-.323-.78-.323-1.332 0-.576.161-1.08.485-1.512.324-.432.78-.762 1.368-.99.6-.24 1.308-.36 2.124-.36.624 0 1.255.078 1.89.234.648.144 1.176.354 1.584.63l-.738 1.368a4.077 4.077 0 0 0-1.35-.594 6.226 6.226 0 0 0-1.404-.162c-.756 0-1.319.126-1.692.378-.372.24-.558.552-.558.936 0 .324.108.576.324.756.228.168.516.3.864.396.36.096.756.18 1.188.252.432.06.864.144 1.296.252.432.096.822.234 1.17.414.36.18.649.432.864.756.228.324.342.756.342 1.296 0 .576-.168 1.074-.504 1.494-.336.42-.81.75-1.422.99-.612.228-1.344.342-2.196.342Zm-7.761-.108v-9.54h1.729v9.54h-1.729Zm.865-11.376c-.336 0-.618-.108-.846-.324a1.078 1.078 0 0 1-.325-.792 1.1 1.1 0 0 1 .325-.81c.228-.216.51-.324.846-.324.336 0 .612.108.828.324a.993.993 0 0 1 .341.774c0 .324-.107.6-.323.828-.216.216-.498.324-.846.324Zm-5.889 11.375v-13.356h1.728v13.356h-1.728Zm-10.641 1.116v-1.116h9v1.116h-9Zm-7.771 2.485c-.456 0-.9-.078-1.332-.234a3.038 3.038 0 0 1-1.116-.648l.738-1.296c.24.228.504.402.792.522.288.12.594.18.918.18.42 0 .768-.108 1.044-.324.276-.216.534-.6.774-1.152l.594-1.314.18-.216 3.744-8.658h1.692l-4.626 10.493c-.276.672-.588 1.2-.936 1.584-.336.384-.708.655-1.116.81a3.494 3.494 0 0 1-1.35.253Zm2.268-3.294-4.356-9.846h1.8l3.708 8.496-1.152 1.35Zm-9.594-9.936c.768 0 1.446.15 2.034.45.588.3 1.044.756 1.368 1.368.336.612.504 1.386.504 2.322v5.49h-1.728v-5.292c0-.924-.216-1.62-.648-2.088-.432-.468-1.038-.702-1.818-.702-.576 0-1.08.12-1.512.36-.432.24-.768.594-1.008 1.062-.228.468-.342 1.05-.342 1.746v4.914h-1.728v-5.292c0-.924-.216-1.62-.648-2.088-.42-.468-1.026-.702-1.818-.702-.564 0-1.062.12-1.494.36-.432.24-.768.594-1.008 1.062-.24.468-.36 1.05-.36 1.746v4.914h-1.728v-9.54h1.656v2.538l-.27-.648c.3-.624.762-1.11 1.386-1.458.624-.348 1.35-.522 2.178-.522.912 0 1.698.228 2.358.684.66.444 1.092 1.122 1.296 2.034l-.702-.288c.288-.732.792-1.32 1.512-1.764.72-.444 1.56-.666 2.52-.666Zm-15.792 13.121c-.684-1.092-1.212-2.352-1.584-3.78-.372-1.44-.558-2.988-.558-4.644 0-1.656.186-3.203.558-4.643.372-1.453.9-2.713 1.584-3.781h1.638a15.426 15.426 0 0 0-1.584 3.996c-.336 1.38-.505 2.856-.505 4.428a18.9 18.9 0 0 0 .505 4.446 15.464 15.464 0 0 0 1.584 3.978h-1.638Zm-9.369-13.121c.781 0 1.465.15 2.052.45.601.3 1.068.756 1.404 1.368.336.612.505 1.386.505 2.322v5.49H669.6v-5.292c0-.924-.229-1.62-.684-2.088-.445-.468-1.075-.702-1.891-.702-.612 0-1.146.12-1.601.36-.457.24-.81.594-1.062 1.062-.24.468-.361 1.05-.361 1.746v4.914h-1.728v-9.54h1.657v2.574l-.271-.684a3.324 3.324 0 0 1 1.44-1.458c.649-.348 1.404-.522 2.268-.522Zm-10.124 9.63v-9.54h1.727v9.54h-1.727Zm.864-11.376c-.336 0-.618-.108-.846-.324a1.076 1.076 0 0 1-.323-.792c0-.324.107-.594.323-.81.228-.216.51-.324.846-.324.336 0 .611.108.827.324a.99.99 0 0 1 .342.774c0 .324-.107.6-.324.828-.215.216-.497.324-.845.324Zm-8.202 11.484c-.96 0-1.813-.21-2.557-.63a4.687 4.687 0 0 1-1.763-1.728c-.432-.744-.647-1.584-.647-2.52 0-.948.215-1.788.647-2.52a4.555 4.555 0 0 1 1.763-1.71c.744-.42 1.597-.63 2.557-.63.947 0 1.793.21 2.538.63a4.398 4.398 0 0 1 1.763 1.71c.432.72.648 1.56.648 2.52 0 .948-.216 1.788-.648 2.52a4.52 4.52 0 0 1-1.763 1.728c-.745.42-1.591.63-2.538.63Zm0-1.512c.611 0 1.157-.138 1.637-.414a2.922 2.922 0 0 0 1.152-1.17c.277-.516.414-1.11.414-1.782 0-.684-.137-1.272-.414-1.764a2.922 2.922 0 0 0-1.152-1.17c-.48-.276-1.026-.414-1.637-.414-.613 0-1.158.138-1.638.414-.48.276-.865.666-1.153 1.17-.288.492-.431 1.08-.431 1.764 0 .672.143 1.266.431 1.782.288.504.673.894 1.153 1.17.48.276 1.025.414 1.638.414Zm-10.421 5.004c-.396 0-.774-.048-1.134-.144a2.597 2.597 0 0 1-.936-.432l.558-1.332c.36.3.828.45 1.404.45.456 0 .804-.144 1.044-.432.252-.276.378-.69.378-1.242v-10.008h1.728v9.972c0 .972-.264 1.74-.792 2.304-.516.576-1.266.864-2.25.864Zm2.178-14.976c-.336 0-.618-.108-.846-.324a1.077 1.077 0 0 1-.324-.792c0-.324.108-.594.324-.81.228-.216.51-.324.846-.324.336 0 .612.108.828.324a.994.994 0 0 1 .342.774c0 .324-.108.6-.324.828-.216.216-.498.324-.846.324Zm-4.797 11.485a1.21 1.21 0 0 1-.864-.342c-.24-.24-.36-.54-.36-.9s.12-.654.36-.882a1.21 1.21 0 0 1 .864-.342c.324 0 .6.114.828.342.24.228.36.522.36.882s-.12.66-.36.9a1.128 1.128 0 0 1-.828.342Zm-6.851-7.848-.108-4.86h1.512l-.125 4.86h-1.279Zm3.258 0-.107-4.86h1.511l-.126 4.86h-1.278Zm-12.463 10.404.9-3.636.234 1.044c-.349 0-.642-.108-.882-.324-.228-.216-.342-.51-.342-.882 0-.36.114-.654.342-.882a1.21 1.21 0 0 1 .864-.342c.348 0 .63.12.846.36.216.228.324.516.324.864 0 .12-.013.24-.036.36-.012.108-.042.24-.09.396a4.69 4.69 0 0 1-.18.54l-.846 2.502h-1.134Zm-5.764-10.404-.107-4.86h1.511l-.127 4.86h-1.277Zm3.257 0-.108-4.86h1.512l-.125 4.86h-1.279Zm-12.446 10.404.899-3.636.234 1.044a1.27 1.27 0 0 1-.881-.324c-.228-.216-.342-.51-.342-.882 0-.36.114-.654.342-.882a1.21 1.21 0 0 1 .864-.342c.348 0 .63.12.846.36.216.228.323.516.323.864 0 .12-.011.24-.035.36a2.32 2.32 0 0 1-.09.396 4.69 4.69 0 0 1-.18.54l-.847 2.502h-1.133Zm-11.584-10.404-.108-4.86h1.512l-.126 4.86h-1.278Zm3.258 0-.108-4.86h1.512l-.126 4.86h-1.278Z" fill="#1C1C20"/><path d="M588.302 254.456c-1.02 0-1.92-.21-2.7-.63a4.62 4.62 0 0 1-1.8-1.728c-.42-.732-.63-1.572-.63-2.52s.204-1.788.612-2.52a4.5 4.5 0 0 1 1.71-1.71c.732-.42 1.554-.63 2.466-.63.924 0 1.74.204 2.448.612.708.408 1.26.984 1.656 1.728.408.732.612 1.59.612 2.574 0 .072-.006.156-.018.252 0 .096-.006.186-.018.27h-8.118v-1.242h7.218l-.702.432c.012-.612-.114-1.158-.378-1.638a2.807 2.807 0 0 0-1.098-1.116c-.456-.276-.99-.414-1.602-.414-.6 0-1.134.138-1.602.414a2.779 2.779 0 0 0-1.098 1.134c-.264.48-.396 1.032-.396 1.656v.288c0 .636.144 1.206.432 1.71.3.492.714.876 1.242 1.152.528.276 1.134.414 1.818.414.564 0 1.074-.096 1.53-.288.468-.192.876-.48 1.224-.864l.954 1.116a4.166 4.166 0 0 1-1.62 1.152c-.636.264-1.35.396-2.142.396Zm-11.427-.108v-9.54h1.656v2.592l-.162-.648a2.93 2.93 0 0 1 1.332-1.512c.624-.348 1.392-.522 2.304-.522v1.674a1.312 1.312 0 0 0-.216-.018h-.18c-.924 0-1.656.276-2.196.828-.54.552-.81 1.35-.81 2.394v4.752h-1.728Zm-4.832 0v-2.016l-.09-.378v-3.438c0-.732-.216-1.296-.648-1.692-.42-.408-1.056-.612-1.908-.612-.564 0-1.116.096-1.656.288a4.14 4.14 0 0 0-1.368.738l-.72-1.296a5.105 5.105 0 0 1 1.764-.9 7.306 7.306 0 0 1 2.178-.324c1.308 0 2.316.318 3.024.954.708.636 1.062 1.608 1.062 2.916v5.76h-1.638Zm-3.132.108c-.708 0-1.332-.12-1.872-.36-.528-.24-.936-.57-1.224-.99a2.57 2.57 0 0 1-.432-1.458c0-.516.12-.984.36-1.404.252-.42.654-.756 1.206-1.008.564-.252 1.32-.378 2.268-.378h3.024v1.242h-2.952c-.864 0-1.446.144-1.746.432-.3.288-.45.636-.45 1.044 0 .468.186.846.558 1.134.372.276.888.414 1.548.414.648 0 1.212-.144 1.692-.432a2.446 2.446 0 0 0 1.062-1.26l.342 1.188c-.228.564-.63 1.014-1.206 1.35-.576.324-1.302.486-2.178.486Zm-13.906 0a7.85 7.85 0 0 1-2.268-.324c-.708-.216-1.265-.48-1.675-.792l.722-1.368c.408.276.911.51 1.511.702a5.99 5.99 0 0 0 1.836.288c.804 0 1.38-.114 1.728-.342.36-.228.54-.546.54-.954 0-.3-.108-.534-.324-.702-.216-.168-.504-.294-.864-.378a12.123 12.123 0 0 0-1.17-.216 24.632 24.632 0 0 1-1.295-.252 5.796 5.796 0 0 1-1.189-.432 2.34 2.34 0 0 1-.863-.774c-.216-.336-.325-.78-.325-1.332 0-.576.162-1.08.486-1.512.324-.432.781-.762 1.369-.99.6-.24 1.307-.36 2.123-.36.624 0 1.254.078 1.89.234.648.144 1.176.354 1.584.63l-.738 1.368a4.077 4.077 0 0 0-1.35-.594 6.226 6.226 0 0 0-1.404-.162c-.756 0-1.319.126-1.691.378-.372.24-.56.552-.56.936 0 .324.109.576.325.756.228.168.516.3.864.396.36.096.756.18 1.188.252.432.06.864.144 1.296.252.432.096.823.234 1.171.414.36.18.647.432.863.756.228.324.341.756.341 1.296 0 .576-.167 1.074-.503 1.494-.336.42-.81.75-1.421.99-.612.228-1.345.342-2.197.342Zm-9.508 0c-1.02 0-1.92-.21-2.7-.63a4.62 4.62 0 0 1-1.8-1.728c-.42-.732-.63-1.572-.63-2.52s.204-1.788.612-2.52a4.5 4.5 0 0 1 1.71-1.71c.732-.42 1.554-.63 2.466-.63.924 0 1.74.204 2.448.612.708.408 1.26.984 1.656 1.728.408.732.612 1.59.612 2.574 0 .072-.006.156-.018.252 0 .096-.006.186-.018.27h-8.118v-1.242h7.218l-.702.432c.012-.612-.114-1.158-.378-1.638a2.807 2.807 0 0 0-1.098-1.116c-.456-.276-.99-.414-1.602-.414-.6 0-1.134.138-1.602.414a2.779 2.779 0 0 0-1.098 1.134c-.264.48-.396 1.032-.396 1.656v.288c0 .636.144 1.206.432 1.71.3.492.714.876 1.242 1.152.528.276 1.134.414 1.818.414.564 0 1.074-.096 1.53-.288.468-.192.876-.48 1.224-.864l.954 1.116a4.166 4.166 0 0 1-1.62 1.152c-.636.264-1.35.396-2.142.396Zm-12.502 3.492a8.737 8.737 0 0 1-2.557-.378c-.816-.24-1.482-.588-1.997-1.044l.828-1.332c.444.384.991.684 1.638.9a6.086 6.086 0 0 0 2.033.342c1.129 0 1.957-.264 2.485-.792.528-.528.792-1.332.792-2.412v-2.016l.179-1.89-.09-1.908v-2.61h1.639v8.244c0 1.68-.42 2.916-1.261 3.708-.839.792-2.07 1.188-3.689 1.188Zm-.216-3.996c-.924 0-1.751-.192-2.483-.576a4.628 4.628 0 0 1-1.73-1.638c-.42-.696-.628-1.5-.628-2.412 0-.924.208-1.728.628-2.412a4.49 4.49 0 0 1 1.73-1.62c.732-.384 1.559-.576 2.483-.576.816 0 1.559.168 2.231.504.672.324 1.207.828 1.603 1.512.407.684.612 1.548.612 2.592 0 1.032-.205 1.89-.612 2.574a3.9 3.9 0 0 1-1.603 1.548c-.672.336-1.415.504-2.231.504Zm.198-1.512c.635 0 1.2-.132 1.691-.396a2.9 2.9 0 0 0 1.154-1.098c.288-.468.43-1.008.43-1.62 0-.612-.142-1.152-.43-1.62a2.779 2.779 0 0 0-1.154-1.08c-.491-.264-1.056-.396-1.691-.396-.636 0-1.206.132-1.711.396a2.898 2.898 0 0 0-1.169 1.08c-.277.468-.413 1.008-.413 1.62 0 .612.136 1.152.413 1.62.288.468.677.834 1.169 1.098.505.264 1.075.396 1.711.396Zm-8.989 1.908v-2.016l-.09-.378v-3.438c0-.732-.216-1.296-.648-1.692-.42-.408-1.056-.612-1.908-.612-.564 0-1.116.096-1.656.288a4.14 4.14 0 0 0-1.368.738l-.72-1.296a5.105 5.105 0 0 1 1.764-.9 7.306 7.306 0 0 1 2.178-.324c1.308 0 2.316.318 3.024.954.708.636 1.062 1.608 1.062 2.916v5.76h-1.638Zm-3.132.108c-.708 0-1.332-.12-1.872-.36-.528-.24-.936-.57-1.224-.99a2.57 2.57 0 0 1-.432-1.458c0-.516.12-.984.36-1.404.252-.42.654-.756 1.206-1.008.564-.252 1.32-.378 2.268-.378h3.024v1.242h-2.952c-.864 0-1.446.144-1.746.432-.3.288-.45.636-.45 1.044 0 .468.186.846.558 1.134.372.276.888.414 1.548.414.648 0 1.212-.144 1.692-.432a2.446 2.446 0 0 0 1.062-1.26l.342 1.188c-.228.564-.63 1.014-1.206 1.35-.576.324-1.302.486-2.178.486Zm-10.955 0c-.816 0-1.536-.15-2.16-.451a3.291 3.291 0 0 1-1.44-1.367c-.336-.624-.504-1.404-.504-2.34v-5.49h1.728v5.292c0 .936.222 1.638.666 2.106.456.468 1.092.702 1.908.702.6 0 1.122-.12 1.566-.36a2.554 2.554 0 0 0 1.026-1.08c.24-.48.36-1.056.36-1.728v-4.932h1.728v9.54h-1.638v-2.574l.27.684a3.343 3.343 0 0 1-1.404 1.476c-.624.348-1.326.522-2.106.522Zm-12.265 3.492a8.73 8.73 0 0 1-2.556-.378c-.816-.24-1.482-.588-1.998-1.044l.828-1.332c.444.384.99.684 1.638.9a6.083 6.083 0 0 0 2.034.342c1.128 0 1.956-.264 2.484-.792s.792-1.332.792-2.412v-2.016l.18-1.89-.09-1.908v-2.61h1.638v8.244c0 1.68-.42 2.916-1.26 3.708-.84.792-2.07 1.188-3.69 1.188Zm-.216-3.996c-.924 0-1.752-.192-2.484-.576a4.622 4.622 0 0 1-1.728-1.638c-.42-.696-.63-1.5-.63-2.412 0-.924.21-1.728.63-2.412a4.484 4.484 0 0 1 1.728-1.62c.732-.384 1.56-.576 2.484-.576.816 0 1.56.168 2.232.504.672.324 1.206.828 1.602 1.512.408.684.612 1.548.612 2.592 0 1.032-.204 1.89-.612 2.574-.396.684-.93 1.2-1.602 1.548-.672.336-1.416.504-2.232.504Zm.198-1.512c.636 0 1.2-.132 1.692-.396a2.9 2.9 0 0 0 1.152-1.098c.288-.468.432-1.008.432-1.62 0-.612-.144-1.152-.432-1.62a2.78 2.78 0 0 0-1.152-1.08c-.492-.264-1.056-.396-1.692-.396-.636 0-1.206.132-1.71.396a2.9 2.9 0 0 0-1.17 1.08c-.276.468-.414 1.008-.414 1.62 0 .612.138 1.152.414 1.62a3.03 3.03 0 0 0 1.17 1.098c.504.264 1.074.396 1.71.396Zm-11.321-7.722c.78 0 1.464.15 2.052.45.6.3 1.068.756 1.404 1.368.336.612.504 1.386.504 2.322v5.49h-1.728v-5.292c0-.924-.228-1.62-.684-2.088-.444-.468-1.074-.702-1.89-.702-.612 0-1.146.12-1.602.36-.456.24-.81.594-1.062 1.062-.24.468-.36 1.05-.36 1.746v4.914h-1.728v-9.54h1.656v2.574l-.27-.684a3.313 3.313 0 0 1 1.44-1.458c.648-.348 1.404-.522 2.268-.522Zm-9.934 9.63v-2.016l-.09-.378v-3.438c0-.732-.216-1.296-.648-1.692-.42-.408-1.056-.612-1.908-.612-.564 0-1.116.096-1.656.288a4.14 4.14 0 0 0-1.368.738l-.72-1.296a5.105 5.105 0 0 1 1.764-.9 7.306 7.306 0 0 1 2.178-.324c1.308 0 2.316.318 3.024.954.708.636 1.062 1.608 1.062 2.916v5.76h-1.638Zm-3.132.108c-.708 0-1.332-.12-1.872-.36-.528-.24-.936-.57-1.224-.99a2.57 2.57 0 0 1-.432-1.458c0-.516.12-.984.36-1.404.252-.42.654-.756 1.206-1.008.564-.252 1.32-.378 2.268-.378h3.024v1.242h-2.952c-.864 0-1.446.144-1.746.432-.3.288-.45.636-.45 1.044 0 .468.186.846.558 1.134.372.276.888.414 1.548.414.648 0 1.212-.144 1.692-.432a2.446 2.446 0 0 0 1.062-1.26l.342 1.188c-.228.564-.63 1.014-1.206 1.35-.576.324-1.302.486-2.178.486Zm-13.223-.107v-12.6h1.8v11.034h6.822v1.566h-8.622Zm-13.34 3.599a8.737 8.737 0 0 1-2.557-.378c-.816-.24-1.482-.588-1.997-1.044l.827-1.332c.444.384.991.684 1.638.9a6.092 6.092 0 0 0 2.034.342c1.128 0 1.956-.264 2.484-.792s.793-1.332.793-2.412v-2.016l.179-1.89-.089-1.908v-2.61h1.638v8.244c0 1.68-.421 2.916-1.261 3.708-.84.792-2.07 1.188-3.689 1.188Zm-.217-3.996c-.924 0-1.751-.192-2.484-.576a4.622 4.622 0 0 1-1.728-1.638c-.419-.696-.63-1.5-.63-2.412 0-.924.211-1.728.63-2.412a4.484 4.484 0 0 1 1.728-1.62c.733-.384 1.56-.576 2.484-.576.816 0 1.561.168 2.233.504.672.324 1.206.828 1.601 1.512.408.684.613 1.548.613 2.592 0 1.032-.205 1.89-.613 2.574a3.89 3.89 0 0 1-1.601 1.548c-.672.336-1.417.504-2.233.504Zm.198-1.512c.636 0 1.2-.132 1.692-.396.493-.264.877-.63 1.152-1.098.288-.468.432-1.008.432-1.62 0-.612-.144-1.152-.432-1.62a2.768 2.768 0 0 0-1.152-1.08c-.492-.264-1.056-.396-1.692-.396-.636 0-1.206.132-1.71.396a2.9 2.9 0 0 0-1.17 1.08c-.276.468-.413 1.008-.413 1.62 0 .612.137 1.152.413 1.62a3.03 3.03 0 0 0 1.17 1.098c.504.264 1.074.396 1.71.396Zm-11.313-7.722c.78 0 1.464.15 2.052.45.6.3 1.068.756 1.404 1.368.336.612.504 1.386.504 2.322v5.49h-1.728v-5.292c0-.924-.228-1.62-.684-2.088-.444-.468-1.074-.702-1.89-.702-.612 0-1.146.12-1.602.36-.456.24-.81.594-1.062 1.062-.24.468-.36 1.05-.36 1.746v4.914h-1.728v-9.54h1.656v2.574l-.27-.684a3.313 3.313 0 0 1 1.44-1.458c.648-.348 1.404-.522 2.268-.522Zm-10.124 9.63v-9.54h1.728v9.54h-1.728Zm.864-11.376c-.336 0-.618-.108-.846-.324a1.077 1.077 0 0 1-.324-.792c0-.324.108-.594.324-.81.228-.216.51-.324.846-.324.336 0 .612.108.828.324a.994.994 0 0 1 .342.774c0 .324-.108.6-.324.828-.216.216-.498.324-.846.324Zm-7.947 1.746c.768 0 1.446.15 2.034.45.588.3 1.044.756 1.368 1.368.336.612.504 1.386.504 2.322v5.49h-1.728v-5.292c0-.924-.216-1.62-.648-2.088-.432-.468-1.038-.702-1.818-.702-.576 0-1.08.12-1.512.36-.432.24-.768.594-1.008 1.062-.228.468-.342 1.05-.342 1.746v4.914h-1.728v-5.292c0-.924-.216-1.62-.648-2.088-.42-.468-1.026-.702-1.818-.702-.564 0-1.062.12-1.494.36-.432.24-.768.594-1.008 1.062-.24.468-.36 1.05-.36 1.746v4.914h-1.728v-9.54h1.656v2.538l-.27-.648c.3-.624.762-1.11 1.386-1.458.624-.348 1.35-.522 2.178-.522.912 0 1.698.228 2.358.684.66.444 1.092 1.122 1.296 2.034l-.702-.288c.288-.732.792-1.32 1.512-1.764.72-.444 1.56-.666 2.52-.666Zm-19.023 0c.768 0 1.446.15 2.034.45.588.3 1.044.756 1.368 1.368.336.612.504 1.386.504 2.322v5.49h-1.728v-5.292c0-.924-.216-1.62-.648-2.088-.432-.468-1.038-.702-1.818-.702-.576 0-1.08.12-1.512.36-.432.24-.768.594-1.008 1.062-.228.468-.342 1.05-.342 1.746v4.914h-1.728v-5.292c0-.924-.216-1.62-.648-2.088-.42-.468-1.026-.702-1.818-.702-.564 0-1.062.12-1.494.36-.432.24-.768.594-1.008 1.062-.24.468-.36 1.05-.36 1.746v4.914h-1.728v-9.54h1.656v2.538l-.27-.648c.3-.624.762-1.11 1.386-1.458.624-.348 1.35-.522 2.178-.522.912 0 1.698.228 2.358.684.66.444 1.092 1.122 1.296 2.034l-.702-.288c.288-.732.792-1.32 1.512-1.764.72-.444 1.56-.666 2.52-.666Zm-16.766 9.63v-2.016l-.09-.378v-3.438c0-.732-.216-1.296-.648-1.692-.42-.408-1.056-.612-1.908-.612-.564 0-1.116.096-1.656.288a4.14 4.14 0 0 0-1.368.738l-.72-1.296a5.105 5.105 0 0 1 1.764-.9 7.306 7.306 0 0 1 2.178-.324c1.308 0 2.316.318 3.024.954.708.636 1.062 1.608 1.062 2.916v5.76h-1.638Zm-3.132.108c-.708 0-1.332-.12-1.872-.36-.528-.24-.936-.57-1.224-.99a2.57 2.57 0 0 1-.432-1.458c0-.516.12-.984.36-1.404.252-.42.654-.756 1.206-1.008.564-.252 1.32-.378 2.268-.378h3.024v1.242h-2.952c-.864 0-1.446.144-1.746.432-.3.288-.45.636-.45 1.044 0 .468.186.846.558 1.134.372.276.888.414 1.548.414.648 0 1.212-.144 1.692-.432a2.446 2.446 0 0 0 1.062-1.26l.342 1.188c-.228.564-.63 1.014-1.206 1.35-.576.324-1.302.486-2.178.486Zm-9.349-.108v-9.54h1.656v2.592l-.162-.648a2.93 2.93 0 0 1 1.332-1.512c.624-.348 1.392-.522 2.304-.522v1.674a1.312 1.312 0 0 0-.216-.018h-.18c-.924 0-1.656.276-2.196.828-.54.552-.81 1.35-.81 2.394v4.752h-1.728Zm-8.254 3.6a8.73 8.73 0 0 1-2.556-.378c-.816-.24-1.482-.588-1.998-1.044l.828-1.332c.444.384.99.684 1.638.9a6.083 6.083 0 0 0 2.034.342c1.128 0 1.956-.264 2.484-.792s.792-1.332.792-2.412v-2.016l.18-1.89-.09-1.908v-2.61h1.638v8.244c0 1.68-.42 2.916-1.26 3.708-.84.792-2.07 1.188-3.69 1.188Zm-.216-3.996c-.924 0-1.752-.192-2.484-.576a4.622 4.622 0 0 1-1.728-1.638c-.42-.696-.63-1.5-.63-2.412 0-.924.21-1.728.63-2.412a4.484 4.484 0 0 1 1.728-1.62c.732-.384 1.56-.576 2.484-.576.816 0 1.56.168 2.232.504.672.324 1.206.828 1.602 1.512.408.684.612 1.548.612 2.592 0 1.032-.204 1.89-.612 2.574-.396.684-.93 1.2-1.602 1.548-.672.336-1.416.504-2.232.504Zm.198-1.512c.636 0 1.2-.132 1.692-.396a2.9 2.9 0 0 0 1.152-1.098c.288-.468.432-1.008.432-1.62 0-.612-.144-1.152-.432-1.62a2.78 2.78 0 0 0-1.152-1.08c-.492-.264-1.056-.396-1.692-.396-.636 0-1.206.132-1.71.396a2.9 2.9 0 0 0-1.17 1.08c-.276.468-.414 1.008-.414 1.62 0 .612.138 1.152.414 1.62a3.03 3.03 0 0 0 1.17 1.098c.504.264 1.074.396 1.71.396Zm-11.494 2.016c-.96 0-1.812-.21-2.556-.63a4.69 4.69 0 0 1-1.764-1.728c-.432-.744-.648-1.584-.648-2.52 0-.948.216-1.788.648-2.52a4.557 4.557 0 0 1 1.764-1.71c.744-.42 1.596-.63 2.556-.63.948 0 1.794.21 2.538.63a4.4 4.4 0 0 1 1.764 1.71c.432.72.648 1.56.648 2.52 0 .948-.216 1.788-.648 2.52a4.524 4.524 0 0 1-1.764 1.728c-.744.42-1.59.63-2.538.63Zm0-1.512c.612 0 1.158-.138 1.638-.414a2.922 2.922 0 0 0 1.152-1.17c.276-.516.414-1.11.414-1.782 0-.684-.138-1.272-.414-1.764a2.922 2.922 0 0 0-1.152-1.17c-.48-.276-1.026-.414-1.638-.414-.612 0-1.158.138-1.638.414-.48.276-.864.666-1.152 1.17-.288.492-.432 1.08-.432 1.764 0 .672.144 1.266.432 1.782.288.504.672.894 1.152 1.17.48.276 1.026.414 1.638.414Zm-11.265 1.404v-9.54h1.656v2.592l-.162-.648a2.93 2.93 0 0 1 1.332-1.512c.624-.348 1.392-.522 2.304-.522v1.674a1.312 1.312 0 0 0-.216-.018h-.18c-.924 0-1.656.276-2.196.828-.54.552-.81 1.35-.81 2.394v4.752h-1.728Zm-12.398.001v-12.6h4.913c1.104 0 2.047.174 2.826.522.781.348 1.381.852 1.801 1.512.42.66.63 1.446.63 2.358 0 .912-.21 1.698-.63 2.358-.42.648-1.02 1.152-1.801 1.512-.779.348-1.722.522-2.826.522h-3.923l.81-.846v4.662h-1.8Zm1.8-4.482-.81-.9h3.869c1.152 0 2.022-.246 2.611-.738.599-.492.899-1.188.899-2.088 0-.9-.3-1.596-.899-2.088-.589-.492-1.459-.738-2.611-.738h-3.869l.81-.9v7.452Zm-13.663 4.589c-1.02 0-1.92-.21-2.7-.63a4.62 4.62 0 0 1-1.8-1.728c-.42-.732-.629-1.572-.629-2.52s.203-1.788.611-2.52a4.5 4.5 0 0 1 1.71-1.71c.732-.42 1.554-.63 2.466-.63.925 0 1.741.204 2.448.612.708.408 1.26.984 1.656 1.728.408.732.612 1.59.612 2.574 0 .072-.006.156-.018.252 0 .096-.006.186-.018.27h-8.118v-1.242h7.218l-.702.432c.012-.612-.114-1.158-.377-1.638a2.816 2.816 0 0 0-1.099-1.116c-.456-.276-.99-.414-1.602-.414-.6 0-1.134.138-1.602.414a2.785 2.785 0 0 0-1.098 1.134c-.263.48-.396 1.032-.396 1.656v.288c0 .636.144 1.206.432 1.71.3.492.714.876 1.242 1.152.528.276 1.134.414 1.819.414.563 0 1.073-.096 1.529-.288.468-.192.876-.48 1.224-.864l.954 1.116a4.166 4.166 0 0 1-1.62 1.152c-.636.264-1.35.396-2.142.396Zm-8.111-.002c-.96 0-1.703-.258-2.231-.774-.528-.516-.793-1.254-.793-2.214v-8.748h1.728v8.676c0 .516.127.912.378 1.188.265.276.636.414 1.116.414.541 0 .991-.15 1.351-.45l.54 1.242a2.514 2.514 0 0 1-.954.504 3.932 3.932 0 0 1-1.135.162Zm-4.644-8.226v-1.422h6.084v1.422h-6.084Zm-3.654 8.12v-9.54h1.728v9.54h-1.728Zm.864-11.376c-.336 0-.619-.108-.847-.324a1.08 1.08 0 0 1-.323-.792c0-.324.108-.594.323-.81.228-.216.511-.324.847-.324.336 0 .612.108.827.324a.99.99 0 0 1 .342.774c0 .324-.108.6-.323.828-.217.216-.499.324-.846.324Zm-8.124 11.376v-9.54h1.656v2.592l-.162-.648a2.93 2.93 0 0 1 1.332-1.512c.624-.348 1.392-.522 2.304-.522v1.674a1.3 1.3 0 0 0-.215-.018h-.181c-.923 0-1.656.276-2.196.828-.54.552-.81 1.35-.81 2.394v4.752h-1.728Zm-8.169.108c-.816 0-1.536-.15-2.16-.451a3.291 3.291 0 0 1-1.44-1.367c-.336-.624-.504-1.404-.504-2.34v-5.49h1.728v5.292c0 .936.222 1.638.666 2.106.456.468 1.092.702 1.908.702.6 0 1.122-.12 1.566-.36a2.554 2.554 0 0 0 1.026-1.08c.24-.48.36-1.056.36-1.728v-4.932h1.728v9.54h-1.638v-2.574l.27.684a3.343 3.343 0 0 1-1.404 1.476c-.624.348-1.326.522-2.106.522Zm-11.355 0c-.96 0-1.812-.21-2.556-.63a4.69 4.69 0 0 1-1.764-1.728c-.432-.744-.648-1.584-.648-2.52 0-.948.216-1.788.648-2.52a4.557 4.557 0 0 1 1.764-1.71c.744-.42 1.596-.63 2.556-.63.948 0 1.794.21 2.538.63a4.4 4.4 0 0 1 1.764 1.71c.432.72.648 1.56.648 2.52 0 .948-.216 1.788-.648 2.52a4.524 4.524 0 0 1-1.764 1.728c-.744.42-1.59.63-2.538.63Zm0-1.512c.612 0 1.158-.138 1.638-.414a2.922 2.922 0 0 0 1.152-1.17c.276-.516.414-1.11.414-1.782 0-.684-.138-1.272-.414-1.764a2.922 2.922 0 0 0-1.152-1.17c-.48-.276-1.026-.414-1.638-.414-.612 0-1.158.138-1.638.414-.48.276-.864.666-1.152 1.17-.288.492-.432 1.08-.432 1.764 0 .672.144 1.266.432 1.782.288.504.672.894 1.152 1.17.48.276 1.026.414 1.638.414Zm-11.37 1.404-4.176-9.54h1.8l3.708 8.64h-.864l3.78-8.64h1.692l-4.176 9.54h-1.764Zm-7.164 0v-2.016l-.09-.378v-3.438c0-.732-.216-1.296-.648-1.692-.42-.408-1.056-.612-1.908-.612-.564 0-1.116.096-1.656.288a4.14 4.14 0 0 0-1.368.738l-.72-1.296a5.105 5.105 0 0 1 1.764-.9 7.306 7.306 0 0 1 2.178-.324c1.308 0 2.316.318 3.024.954.708.636 1.062 1.608 1.062 2.916v5.76h-1.638Zm-3.132.108c-.708 0-1.332-.12-1.872-.36-.528-.24-.936-.57-1.224-.99a2.57 2.57 0 0 1-.432-1.458c0-.516.12-.984.36-1.404.252-.42.654-.756 1.206-1.008.564-.252 1.32-.378 2.268-.378h3.024v1.242h-2.952c-.864 0-1.446.144-1.746.432-.3.288-.45.636-.45 1.044 0 .468.186.846.558 1.134.372.276.888.414 1.548.414.648 0 1.212-.144 1.692-.432a2.446 2.446 0 0 0 1.062-1.26l.342 1.188c-.228.564-.63 1.014-1.206 1.35-.576.324-1.302.486-2.178.486Zm-8.713-.11V243.96c0-.936.27-1.68.81-2.232.552-.564 1.332-.846 2.34-.846.372 0 .726.048 1.062.144.348.084.642.222.882.414l-.522 1.314a1.873 1.873 0 0 0-.612-.324 2.066 2.066 0 0 0-.72-.126c-.504 0-.888.144-1.152.432-.264.276-.396.69-.396 1.242v1.278l.036.792v8.298h-1.728Zm-1.62-8.118v-1.422h6.084v1.422h-6.084Zm-13.099 11.72c-.456 0-.9-.078-1.332-.234a3.038 3.038 0 0 1-1.116-.648l.738-1.296c.24.228.504.402.792.522.288.12.594.18.918.18.42 0 .768-.108 1.044-.324.276-.216.534-.6.774-1.152l.594-1.314.18-.216 3.744-8.658h1.692l-4.626 10.493c-.276.672-.588 1.2-.936 1.584-.336.384-.708.655-1.116.81a3.494 3.494 0 0 1-1.35.253Zm2.268-3.294-4.356-9.846h1.8l3.708 8.496-1.152 1.35Zm-19.622-.305v-12.6h1.476l5.652 9.522h-.792l5.58-9.522h1.476l.018 12.6h-1.728l-.018-9.882H221l-4.968 8.352h-.828l-5.004-8.352h.45v9.882h-1.728Z" fill="#166FF5"/><path d="m201.241 246.609-.108-4.86h1.512l-.126 4.86h-1.278Zm3.258 0-.108-4.86h1.512l-.126 4.86h-1.278Zm94.587-18.26v-11.88l.774.846h-3.618v-1.566h4.626v12.6h-1.782Zm-12.956.107c-1.02 0-1.92-.21-2.7-.63a4.62 4.62 0 0 1-1.8-1.728c-.42-.732-.63-1.572-.63-2.52s.204-1.788.612-2.52a4.5 4.5 0 0 1 1.71-1.71c.732-.42 1.554-.63 2.466-.63.924 0 1.74.204 2.448.612.708.408 1.26.984 1.656 1.728.408.732.612 1.59.612 2.574 0 .072-.006.156-.018.252 0 .096-.006.186-.018.27h-8.118v-1.242h7.218l-.702.432c.012-.612-.114-1.158-.378-1.638a2.807 2.807 0 0 0-1.098-1.116c-.456-.276-.99-.414-1.602-.414-.6 0-1.134.138-1.602.414a2.779 2.779 0 0 0-1.098 1.134c-.264.48-.396 1.032-.396 1.656v.288c0 .636.144 1.206.432 1.71.3.492.714.876 1.242 1.152.528.276 1.134.414 1.818.414.564 0 1.074-.096 1.53-.288.468-.192.876-.48 1.224-.864l.954 1.116a4.166 4.166 0 0 1-1.62 1.152c-.636.264-1.35.396-2.142.396Zm-9.278-.109v-13.356h1.728v13.356h-1.728Zm-7.216.109c-.792 0-1.518-.18-2.178-.54-.648-.372-1.17-.918-1.566-1.638-.384-.72-.576-1.62-.576-2.7s.186-1.98.558-2.7c.384-.72.9-1.26 1.548-1.62.66-.36 1.398-.54 2.214-.54.936 0 1.764.204 2.484.612a4.5 4.5 0 0 1 1.71 1.71c.42.72.63 1.566.63 2.538 0 .972-.21 1.824-.63 2.556a4.5 4.5 0 0 1-1.71 1.71c-.72.408-1.548.612-2.484.612Zm-5.058 3.384v-13.032h1.656v2.574l-.108 2.214.18 2.214v6.03h-1.728Zm4.914-4.896c.612 0 1.158-.138 1.638-.414a2.922 2.922 0 0 0 1.152-1.17c.288-.516.432-1.11.432-1.782 0-.684-.144-1.272-.432-1.764a2.922 2.922 0 0 0-1.152-1.17c-.48-.276-1.026-.414-1.638-.414-.6 0-1.146.138-1.638.414-.48.276-.864.666-1.152 1.17-.276.492-.414 1.08-.414 1.764 0 .672.138 1.266.414 1.782.288.504.672.894 1.152 1.17a3.29 3.29 0 0 0 1.638.414Zm-11.995-8.226c.768 0 1.446.15 2.034.45.588.3 1.044.756 1.368 1.368.336.612.505 1.386.505 2.322v5.49h-1.73v-5.292c0-.924-.214-1.62-.646-2.088-.432-.468-1.04-.702-1.819-.702-.576 0-1.08.12-1.512.36-.432.24-.768.594-1.008 1.062-.228.468-.341 1.05-.341 1.746v4.914h-1.729v-5.292c0-.924-.215-1.62-.647-2.088-.42-.468-1.026-.702-1.819-.702-.563 0-1.061.12-1.493.36-.432.24-.768.594-1.008 1.062-.24.468-.36 1.05-.36 1.746v4.914h-1.73v-9.54h1.657v2.538l-.269-.648c.3-.624.761-1.11 1.385-1.458.624-.348 1.351-.522 2.179-.522.912 0 1.697.228 2.357.684.66.444 1.093 1.122 1.297 2.034l-.703-.288c.288-.732.793-1.32 1.513-1.764.72-.444 1.559-.666 2.519-.666Zm-16.775 9.63v-2.016l-.09-.378v-3.438c0-.732-.216-1.296-.648-1.692-.42-.408-1.056-.612-1.908-.612-.564 0-1.116.096-1.655.288-.541.18-.997.426-1.369.738l-.72-1.296a5.114 5.114 0 0 1 1.764-.9 7.31 7.31 0 0 1 2.178-.324c1.309 0 2.317.318 3.024.954.708.636 1.062 1.608 1.062 2.916v5.76h-1.638Zm-3.132.108c-.708 0-1.332-.12-1.872-.36-.528-.24-.935-.57-1.223-.99a2.57 2.57 0 0 1-.433-1.458c0-.516.12-.984.36-1.404.252-.42.655-.756 1.206-1.008.564-.252 1.321-.378 2.268-.378h3.024v1.242h-2.951c-.865 0-1.446.144-1.746.432a1.392 1.392 0 0 0-.451 1.044c0 .468.186.846.559 1.134.371.276.887.414 1.547.414.648 0 1.212-.144 1.692-.432a2.441 2.441 0 0 0 1.062-1.26l.342 1.188c-.227.564-.63 1.014-1.206 1.35-.576.324-1.302.486-2.178.486Zm-13.926-.108 4.104-5.328-.018.882-3.906-5.094h1.926l2.988 3.924h-.738l2.988-3.924h1.89l-3.96 5.13.018-.918 4.14 5.328h-1.962l-3.15-4.176.702.108-3.096 4.068h-1.926Zm-5.128.108c-1.02 0-1.92-.21-2.7-.63a4.62 4.62 0 0 1-1.8-1.728c-.42-.732-.63-1.572-.63-2.52s.204-1.788.612-2.52a4.5 4.5 0 0 1 1.71-1.71c.732-.42 1.554-.63 2.466-.63.924 0 1.74.204 2.448.612.708.408 1.26.984 1.656 1.728.408.732.612 1.59.612 2.574 0 .072-.006.156-.018.252 0 .096-.006.186-.018.27h-8.118v-1.242h7.218l-.702.432c.012-.612-.114-1.158-.378-1.638a2.807 2.807 0 0 0-1.098-1.116c-.456-.276-.99-.414-1.602-.414-.6 0-1.134.138-1.602.414a2.779 2.779 0 0 0-1.098 1.134c-.264.48-.396 1.032-.396 1.656v.288c0 .636.144 1.206.432 1.71.3.492.714.876 1.242 1.152.528.276 1.134.414 1.818.414.564 0 1.074-.096 1.53-.288.468-.192.876-.48 1.224-.864l.954 1.116a4.166 4.166 0 0 1-1.62 1.152c-.636.264-1.35.396-2.142.396Zm-11.284-.107 1.548-12.6h1.279l-1.548 12.6h-1.279Zm-6.768-3.24v-1.314h11.107v1.314h-11.107Zm2.089 3.24 1.565-12.6h1.279l-1.567 12.6h-1.277Zm-1.513-8.046v-1.314h11.107v1.314H201.06Zm299.999-14.464h-3.762v-1.422h2.034v-14.004h-2.034v-1.422h3.762v16.848Zm-10.045-11.23-.108-4.86h1.512l-.126 4.86h-1.278Zm3.258 0-.108-4.86h1.512l-.126 4.86h-1.278Z" fill="#1C1C20"/><path d="M487.238 202.454c-.96 0-1.704-.258-2.232-.774-.528-.516-.792-1.254-.792-2.214v-8.748h1.728v8.676c0 .516.126.912.378 1.188.264.276.636.414 1.116.414.54 0 .99-.15 1.35-.45l.54 1.242a2.506 2.506 0 0 1-.954.504c-.36.108-.738.162-1.134.162Zm-4.644-8.226v-1.422h6.084v1.422h-6.084Zm-4.724 8.118V191.96c0-.936.27-1.68.81-2.232.552-.564 1.332-.846 2.34-.846.372 0 .726.048 1.062.144.348.084.642.222.882.414l-.522 1.314a1.873 1.873 0 0 0-.612-.324 2.066 2.066 0 0 0-.72-.126c-.504 0-.888.144-1.152.432-.264.276-.396.69-.396 1.242v1.278l.036.792v8.298h-1.728Zm-1.62-8.118v-1.422h6.084v1.422h-6.084Zm-3.663 8.12v-9.54h1.728v9.54h-1.728Zm.864-11.376c-.336 0-.618-.108-.846-.324a1.077 1.077 0 0 1-.324-.792c0-.324.108-.595.324-.81.228-.217.51-.324.846-.324.336 0 .612.107.828.324a.992.992 0 0 1 .342.774c0 .324-.108.599-.324.828-.216.216-.498.324-.846.324Zm-15.03 11.376-3.546-9.54h1.638l3.15 8.64h-.774l3.276-8.64h1.458l3.204 8.64h-.756l3.222-8.64h1.548l-3.564 9.54h-1.656l-3.006-7.885h.504l-3.042 7.885h-1.656Zm-9.097.144a8.76 8.76 0 0 1-2.754-.432c-.876-.299-1.566-.683-2.07-1.152l.666-1.403c.48.419 1.092.768 1.836 1.043a6.623 6.623 0 0 0 2.322.414c.732 0 1.326-.084 1.782-.251.456-.169.792-.396 1.008-.684.216-.301.324-.637.324-1.008 0-.432-.144-.781-.432-1.044-.276-.265-.642-.475-1.098-.63a10.517 10.517 0 0 0-1.476-.432 30.724 30.724 0 0 1-1.638-.415 7.915 7.915 0 0 1-1.494-.63 3.09 3.09 0 0 1-1.08-1.008c-.276-.432-.414-.984-.414-1.656 0-.648.168-1.241.504-1.782.348-.551.876-.989 1.584-1.314.72-.336 1.632-.504 2.736-.504.732 0 1.458.096 2.178.288.72.192 1.344.468 1.872.829l-.594 1.44a5.592 5.592 0 0 0-1.71-.774 6.427 6.427 0 0 0-1.746-.253c-.708 0-1.29.09-1.746.27-.456.181-.792.421-1.008.72-.204.3-.306.636-.306 1.008 0 .444.138.799.414 1.062.288.265.654.474 1.098.63.456.156.954.3 1.494.432a27.5 27.5 0 0 1 1.62.415 6.62 6.62 0 0 1 1.494.612c.456.252.822.588 1.098 1.008.276.419.414.96.414 1.619 0 .637-.174 1.23-.522 1.782-.348.541-.888.979-1.62 1.315-.72.324-1.632.485-2.736.485Z" fill="#166FF5"/><path d="m437.967 194.609-.108-4.86h1.512l-.126 4.86h-1.278Zm3.258 0-.108-4.86h1.512l-.126 4.86h-1.278Zm-12.455 10.404.9-3.636.234 1.044a1.27 1.27 0 0 1-.882-.324c-.228-.216-.342-.51-.342-.882 0-.36.114-.654.342-.882a1.21 1.21 0 0 1 .864-.342c.348 0 .63.12.846.36.216.228.324.516.324.864 0 .12-.012.24-.036.36-.012.108-.042.24-.09.396a4.69 4.69 0 0 1-.18.54l-.846 2.502h-1.134Zm-5.756-10.404-.108-4.86h1.512l-.126 4.86h-1.278Zm3.258 0-.108-4.86h1.512l-.126 4.86h-1.278Z" fill="#1C1C20"/><path d="M416.023 202.348v-9.54h1.656v2.592l-.162-.648a2.93 2.93 0 0 1 1.332-1.512c.624-.348 1.392-.522 2.304-.522v1.674a1.312 1.312 0 0 0-.216-.018h-.18c-.924 0-1.656.276-2.196.828-.54.552-.81 1.35-.81 2.394v4.752h-1.728Zm-6.768.108c-1.02 0-1.92-.21-2.7-.63a4.62 4.62 0 0 1-1.8-1.728c-.42-.732-.63-1.572-.63-2.52s.204-1.788.612-2.52a4.5 4.5 0 0 1 1.71-1.71c.732-.42 1.554-.63 2.466-.63.924 0 1.74.204 2.448.612.708.408 1.26.984 1.656 1.728.408.732.612 1.59.612 2.574 0 .072-.006.156-.018.252 0 .096-.006.186-.018.27h-8.118v-1.242h7.218l-.702.432c.012-.612-.114-1.158-.378-1.638a2.807 2.807 0 0 0-1.098-1.116c-.456-.276-.99-.414-1.602-.414-.6 0-1.134.138-1.602.414a2.779 2.779 0 0 0-1.098 1.134c-.264.48-.396 1.032-.396 1.656v.288c0 .636.144 1.206.432 1.71.3.492.714.876 1.242 1.152.528.276 1.134.414 1.818.414.564 0 1.074-.096 1.53-.288.468-.192.876-.48 1.224-.864l.954 1.116a4.166 4.166 0 0 1-1.62 1.152c-.636.264-1.35.396-2.142.396Zm-8.111-.002c-.96 0-1.704-.258-2.232-.774-.528-.516-.792-1.254-.792-2.214v-8.748h1.728v8.676c0 .516.126.912.378 1.188.264.276.636.414 1.116.414.54 0 .99-.15 1.35-.45l.54 1.242a2.506 2.506 0 0 1-.954.504c-.36.108-.738.162-1.134.162Zm-4.644-8.226v-1.422h6.084v1.422H396.5Zm-2.583 8.226c-.96 0-1.703-.258-2.231-.774-.528-.516-.793-1.254-.793-2.214v-8.748h1.728v8.676c0 .516.126.912.378 1.188.264.276.636.414 1.116.414.54 0 .99-.15 1.35-.45l.54 1.242a2.506 2.506 0 0 1-.954.504c-.36.108-.738.162-1.134.162Zm-4.644-8.226v-1.422h6.084v1.422h-6.084Zm-6.802 8.228c-.816 0-1.536-.15-2.16-.451a3.293 3.293 0 0 1-1.44-1.368c-.336-.624-.504-1.403-.504-2.34v-5.489h1.728v5.291c0 .937.222 1.638.666 2.106.456.469 1.092.703 1.908.703.6 0 1.122-.121 1.566-.361a2.546 2.546 0 0 0 1.026-1.079c.24-.48.36-1.056.36-1.728v-4.932h1.728v9.54h-1.638v-2.575l.27.684a3.333 3.333 0 0 1-1.404 1.476c-.624.348-1.326.523-2.106.523Zm-9.041-.109v-13.356h1.728v13.356h-1.728Zm-9.552-6.64h6.498v1.548h-6.498v-1.548Zm.18 6.642h-1.8v-12.6h8.892v1.566h-7.092v11.034Z" fill="#166FF5"/><path d="m354.576 194.609-.107-4.86h1.512l-.126 4.86h-1.279Zm3.258 0-.107-4.86h1.512l-.126 4.86h-1.279Zm-12.463 10.404.9-3.636.234 1.044a1.27 1.27 0 0 1-.882-.324c-.228-.216-.342-.51-.342-.882 0-.36.114-.654.342-.882a1.21 1.21 0 0 1 .864-.342c.348 0 .63.12.846.36.216.228.324.516.324.864 0 .12-.012.24-.036.36-.012.108-.042.24-.09.396a4.69 4.69 0 0 1-.18.54l-.846 2.502h-1.134Zm-5.755-10.404-.108-4.86h1.512l-.126 4.86h-1.278Zm3.258 0-.108-4.86h1.512l-.126 4.86h-1.278Z" fill="#1C1C20"/><path d="M335.176 202.348v-2.016l-.09-.378v-3.438c0-.732-.217-1.296-.649-1.692-.42-.408-1.056-.612-1.908-.612-.563 0-1.116.096-1.655.288-.54.18-.997.426-1.369.738l-.72-1.296a5.123 5.123 0 0 1 1.764-.9 7.317 7.317 0 0 1 2.179-.324c1.308 0 2.316.318 3.024.954.707.636 1.062 1.608 1.062 2.916v5.76h-1.638Zm-3.133.108c-.707 0-1.331-.12-1.872-.36-.528-.24-.935-.57-1.223-.99a2.57 2.57 0 0 1-.432-1.458c0-.516.119-.984.359-1.404.253-.42.655-.756 1.206-1.008.564-.252 1.321-.378 2.269-.378h3.024v1.242h-2.953c-.864 0-1.445.144-1.745.432-.3.288-.451.636-.451 1.044 0 .468.186.846.559 1.134.372.276.888.414 1.547.414.649 0 1.213-.144 1.693-.432a2.45 2.45 0 0 0 1.062-1.26l.342 1.188c-.228.564-.63 1.014-1.206 1.35-.576.324-1.302.486-2.179.486Zm-10.039-.108-4.176-9.54h1.8l3.708 8.64h-.864l3.78-8.64h1.692l-4.176 9.54h-1.764Zm-7.172 0v-2.016l-.09-.378v-3.438c0-.732-.216-1.296-.648-1.692-.42-.408-1.056-.612-1.908-.612-.564 0-1.116.096-1.656.288a4.14 4.14 0 0 0-1.368.738l-.72-1.296a5.105 5.105 0 0 1 1.764-.9 7.306 7.306 0 0 1 2.178-.324c1.308 0 2.316.318 3.024.954.708.636 1.062 1.608 1.062 2.916v5.76h-1.638Zm-3.132.108c-.708 0-1.332-.12-1.872-.36-.528-.24-.936-.57-1.224-.99a2.57 2.57 0 0 1-.432-1.458c0-.516.12-.984.36-1.404.252-.42.654-.756 1.206-1.008.564-.252 1.32-.378 2.268-.378h3.024v1.242h-2.952c-.864 0-1.446.144-1.746.432-.3.288-.45.636-.45 1.044 0 .468.186.846.558 1.134.372.276.888.414 1.548.414.648 0 1.212-.144 1.692-.432a2.446 2.446 0 0 0 1.062-1.26l.342 1.188c-.228.564-.63 1.014-1.206 1.35-.576.324-1.302.486-2.178.486Zm-10.138.037c-.743 0-1.44-.156-2.087-.468a4.003 4.003 0 0 1-1.584-1.35l1.044-1.224c.348.48.737.852 1.169 1.116.444.252.93.378 1.458.378 1.44 0 2.16-.852 2.16-2.556v-7.074h-4.554v-1.566h6.336v8.55c0 1.404-.336 2.454-1.008 3.15-.659.696-1.638 1.044-2.934 1.044Z" fill="#166FF5"/><path d="m292.264 194.609-.108-4.86h1.512l-.126 4.86h-1.278Zm3.258 0-.108-4.86h1.512l-.126 4.86h-1.278Zm-8.749 11.23v-16.848h3.762v1.422h-2.034v14.004h2.034v1.422h-3.762Zm-11.164-11.215v-1.422h8.064v1.422h-8.064Zm0 4.266v-1.422h8.064v1.422h-8.064Zm-10.867 3.458v-1.224l5.13-4.95c.456-.432.792-.81 1.008-1.133.228-.336.378-.643.45-.918.084-.288.126-.564.126-.829 0-.647-.228-1.158-.684-1.53-.456-.371-1.122-.557-1.998-.557-.672 0-1.278.113-1.818.341a3.558 3.558 0 0 0-1.404 1.026l-1.224-1.062c.48-.612 1.122-1.079 1.926-1.404.816-.336 1.71-.504 2.682-.504.876 0 1.638.144 2.286.432.648.276 1.146.679 1.494 1.207.36.528.54 1.152.54 1.872 0 .407-.054.809-.162 1.206-.108.395-.312.816-.612 1.259-.3.444-.732.943-1.296 1.494l-4.572 4.41-.432-.702h7.614v1.566h-9.054Zm-3.082.106c-.96 0-1.704-.258-2.232-.774-.528-.516-.792-1.254-.792-2.214v-8.748h1.728v8.676c0 .516.126.912.378 1.188.264.276.636.414 1.116.414.54 0 .99-.15 1.35-.45l.54 1.242a2.506 2.506 0 0 1-.954.504c-.36.108-.738.162-1.134.162Zm-4.644-8.226v-1.422h6.084v1.422h-6.084Zm-4.918 8.228a7.85 7.85 0 0 1-2.268-.324c-.708-.216-1.266-.48-1.674-.792l.72-1.368c.408.276.912.51 1.512.702a5.99 5.99 0 0 0 1.836.288c.804 0 1.38-.114 1.728-.342.36-.228.54-.546.54-.954 0-.3-.108-.534-.324-.702-.216-.168-.504-.294-.864-.378a12.123 12.123 0 0 0-1.17-.216 24.668 24.668 0 0 1-1.296-.252 5.786 5.786 0 0 1-1.188-.432 2.343 2.343 0 0 1-.864-.774c-.216-.336-.324-.78-.324-1.332 0-.576.162-1.08.486-1.512.324-.432.78-.762 1.368-.99.6-.24 1.308-.36 2.124-.36.624 0 1.254.078 1.89.234.648.144 1.176.354 1.584.63l-.738 1.368a4.077 4.077 0 0 0-1.35-.594 6.226 6.226 0 0 0-1.404-.162c-.756 0-1.32.126-1.692.378-.372.24-.558.552-.558.936 0 .324.108.576.324.756.228.168.516.3.864.396.36.096.756.18 1.188.252.432.06.864.144 1.296.252.432.096.822.234 1.17.414.36.18.648.432.864.756.228.324.342.756.342 1.296 0 .576-.168 1.074-.504 1.494-.336.42-.81.75-1.422.99-.612.228-1.344.342-2.196.342Zm-7.761-.108v-9.54h1.728v9.54h-1.728Zm.864-11.376c-.336 0-.618-.108-.846-.324a1.077 1.077 0 0 1-.324-.792c0-.324.108-.595.324-.81.228-.217.51-.324.846-.324.336 0 .612.107.828.324a.992.992 0 0 1 .342.774c0 .324-.108.599-.324.828-.216.216-.498.324-.846.324Zm-5.896 11.375v-13.356h1.728v13.356h-1.728Zm-10.633 1.116v-1.116h9v1.116h-9Zm-7.779 2.485c-.456 0-.9-.079-1.332-.234a3.048 3.048 0 0 1-1.116-.649l.738-1.296c.24.228.504.403.792.522.288.121.594.181.918.181.421 0 .768-.108 1.045-.325.275-.215.533-.599.773-1.152l.594-1.313.18-.217 3.744-8.657h1.692l-4.626 10.493c-.276.672-.587 1.2-.936 1.584-.336.384-.707.654-1.116.81a3.49 3.49 0 0 1-1.35.253Zm2.268-3.295-4.356-9.845h1.8l3.708 8.496-1.152 1.349Zm-9.586-9.935c.768 0 1.446.15 2.034.45.588.3 1.044.756 1.368 1.368.336.612.504 1.386.504 2.322v5.49h-1.728v-5.292c0-.924-.216-1.62-.648-2.088-.432-.468-1.038-.702-1.818-.702-.576 0-1.08.12-1.512.36-.432.24-.768.594-1.008 1.062-.228.468-.342 1.05-.342 1.746v4.914h-1.728v-5.292c0-.924-.216-1.62-.648-2.088-.42-.468-1.026-.702-1.818-.702-.564 0-1.062.12-1.494.36-.432.24-.768.594-1.008 1.062-.24.468-.36 1.05-.36 1.746v4.914h-1.728v-9.54h1.656v2.538l-.27-.648c.3-.624.762-1.11 1.386-1.458.624-.348 1.35-.522 2.178-.522.912 0 1.698.228 2.358.684.66.444 1.092 1.122 1.296 2.034l-.702-.288c.288-.732.792-1.32 1.512-1.764.72-.444 1.56-.666 2.52-.666Zm318.539-12.879h-3.762v-1.422h2.034v-14.004h-2.034v-1.422h3.762v16.848Zm-10.037-11.23-.108-4.86h1.512l-.126 4.86h-1.278Zm3.258 0-.108-4.86h1.512l-.126 4.86h-1.278Z" fill="#1C1C20"/><path d="M514.839 173.989v-7.885h1.511v7.885h-1.511Zm-3.277-3.222v-1.423h8.065v1.423h-8.065Zm-7.192 3.222v-7.885h1.512v7.885h-1.512Zm-3.276-3.222v-1.423h8.064v1.423h-8.064Zm-6.692 5.726c-.96 0-1.848-.156-2.664-.468a6.55 6.55 0 0 1-2.106-1.35 6.514 6.514 0 0 1-1.386-2.053c-.336-.779-.504-1.637-.504-2.573 0-.936.168-1.795.504-2.574a6.174 6.174 0 0 1 1.404-2.034 6.14 6.14 0 0 1 2.106-1.35 7.155 7.155 0 0 1 2.664-.487c.972 0 1.866.169 2.682.505.828.324 1.53.81 2.106 1.457l-1.17 1.135a4.557 4.557 0 0 0-1.62-1.116 4.905 4.905 0 0 0-1.926-.378c-.708 0-1.368.119-1.98.359-.6.24-1.122.576-1.566 1.008a4.642 4.642 0 0 0-1.044 1.549c-.24.588-.36 1.23-.36 1.926s.12 1.344.36 1.944c.252.587.6 1.098 1.044 1.53.444.432.966.768 1.566 1.008.612.24 1.272.36 1.98.36.684 0 1.326-.12 1.926-.36.6-.252 1.14-.636 1.62-1.152l1.17 1.134a5.582 5.582 0 0 1-2.106 1.475c-.816.336-1.716.505-2.7.505Z" fill="#166FF5"/><path d="m481.092 168.609-.108-4.86h1.513l-.127 4.86h-1.278Zm3.258 0-.108-4.86h1.513l-.127 4.86h-1.278Zm-6.643 10.404.9-3.636.234 1.044a1.27 1.27 0 0 1-.882-.324c-.228-.216-.342-.51-.342-.882 0-.36.114-.654.342-.882a1.21 1.21 0 0 1 .864-.342c.348 0 .63.12.846.36.216.228.324.516.324.864 0 .12-.012.24-.036.36-.012.108-.042.24-.09.396a4.69 4.69 0 0 1-.18.54l-.846 2.502h-1.134Zm-5.756-10.404-.107-4.86h1.512l-.126 4.86h-1.279Zm3.259 0-.108-4.86h1.512l-.126 4.86h-1.278Z" fill="#1C1C20"/><path d="M468.167 176.454c-.96 0-1.703-.258-2.231-.774-.528-.516-.793-1.254-.793-2.214v-8.748h1.728v8.676c0 .516.127.912.378 1.188.264.276.636.414 1.116.414.54 0 .99-.15 1.35-.45l.541 1.242a2.521 2.521 0 0 1-.954.504 3.937 3.937 0 0 1-1.135.162Zm-4.644-8.226v-1.422h6.084v1.422h-6.084Zm-5.84 8.228c-.792 0-1.518-.18-2.178-.54-.648-.372-1.17-.918-1.566-1.638-.384-.72-.576-1.62-.576-2.7s.186-1.98.558-2.7c.384-.72.9-1.26 1.548-1.62.66-.36 1.398-.54 2.214-.54.936 0 1.764.204 2.484.612a4.5 4.5 0 0 1 1.71 1.71c.42.72.63 1.566.63 2.538 0 .972-.21 1.824-.63 2.556a4.5 4.5 0 0 1-1.71 1.71c-.72.408-1.548.612-2.484.612Zm-5.058 3.384v-13.032h1.656v2.574l-.108 2.214.18 2.214v6.03h-1.728Zm4.914-4.896c.612 0 1.158-.138 1.638-.414a2.922 2.922 0 0 0 1.152-1.17c.288-.516.432-1.11.432-1.782 0-.684-.144-1.272-.432-1.764a2.922 2.922 0 0 0-1.152-1.17c-.48-.276-1.026-.414-1.638-.414-.6 0-1.146.138-1.638.414-.48.276-.864.666-1.152 1.17-.276.492-.414 1.08-.414 1.764 0 .672.138 1.266.414 1.782.288.504.672.894 1.152 1.17a3.29 3.29 0 0 0 1.638.414Zm-9.944 1.404v-9.54h1.728v9.54h-1.728Zm.864-11.376c-.336 0-.618-.108-.846-.324a1.077 1.077 0 0 1-.324-.792c0-.324.108-.594.324-.81.228-.216.51-.324.846-.324.336 0 .612.108.828.324a.994.994 0 0 1 .342.774c0 .324-.108.6-.324.828-.216.216-.498.324-.846.324Zm-8.131 11.376v-9.54h1.656v2.592l-.162-.648a2.93 2.93 0 0 1 1.332-1.512c.624-.348 1.392-.522 2.304-.522v1.674a1.312 1.312 0 0 0-.216-.018h-.18c-.924 0-1.656.276-2.196.828-.54.552-.81 1.35-.81 2.394v4.752h-1.728Zm-6.116.108c-.972 0-1.842-.21-2.61-.63a4.653 4.653 0 0 1-1.782-1.728c-.432-.732-.648-1.572-.648-2.52s.216-1.788.648-2.52a4.524 4.524 0 0 1 1.782-1.71c.768-.42 1.638-.63 2.61-.63.864 0 1.632.174 2.304.522.684.336 1.212.84 1.584 1.512l-1.314.846c-.312-.468-.696-.81-1.152-1.026a3.106 3.106 0 0 0-1.44-.342c-.624 0-1.182.138-1.674.414a3.045 3.045 0 0 0-1.17 1.17c-.288.492-.432 1.08-.432 1.764 0 .684.144 1.278.432 1.782.288.504.678.894 1.17 1.17.492.276 1.05.414 1.674.414.516 0 .996-.108 1.44-.324.456-.228.84-.576 1.152-1.044l1.314.828c-.372.66-.9 1.17-1.584 1.53-.672.348-1.44.522-2.304.522Zm-11.419.037c-.96 0-1.878-.144-2.755-.432-.875-.3-1.565-.684-2.069-1.152l.666-1.404c.48.419 1.092.768 1.835 1.043a6.61 6.61 0 0 0 2.323.415c.732 0 1.325-.085 1.782-.252.455-.169.791-.396 1.008-.684.215-.301.324-.637.324-1.008 0-.432-.144-.781-.432-1.044-.276-.265-.642-.474-1.098-.63a10.835 10.835 0 0 0-1.476-.432c-.54-.12-1.087-.259-1.638-.414a7.98 7.98 0 0 1-1.494-.63 3.1 3.1 0 0 1-1.08-1.008c-.277-.432-.414-.985-.414-1.657 0-.647.168-1.241.504-1.782.347-.551.875-.989 1.584-1.313.72-.336 1.632-.505 2.736-.505.731 0 1.457.096 2.177.288.72.192 1.344.469 1.872.829l-.593 1.44a5.615 5.615 0 0 0-1.71-.774 6.466 6.466 0 0 0-1.746-.253c-.709 0-1.29.091-1.746.271-.456.18-.792.42-1.008.72-.205.3-.307.636-.307 1.008 0 .444.139.798.415 1.062.288.264.654.474 1.098.63.455.155.954.299 1.494.432.54.12 1.079.258 1.62.414.552.156 1.05.359 1.494.612a3.07 3.07 0 0 1 1.098 1.008c.275.419.413.96.413 1.619 0 .637-.173 1.231-.522 1.782-.347.541-.887.979-1.619 1.315-.72.324-1.632.486-2.736.486Zm-8.758-.145v-2.016l-.09-.378v-3.438c0-.732-.216-1.296-.648-1.692-.42-.408-1.056-.612-1.908-.612-.564 0-1.116.096-1.656.288a4.14 4.14 0 0 0-1.368.738l-.72-1.296a5.105 5.105 0 0 1 1.764-.9 7.306 7.306 0 0 1 2.178-.324c1.308 0 2.316.318 3.024.954.708.636 1.062 1.608 1.062 2.916v5.76h-1.638Zm-3.132.108c-.708 0-1.332-.12-1.872-.36-.528-.24-.936-.57-1.224-.99a2.57 2.57 0 0 1-.432-1.458c0-.516.12-.984.36-1.404.252-.42.654-.756 1.206-1.008.564-.252 1.32-.378 2.268-.378h3.024v1.242h-2.952c-.864 0-1.446.144-1.746.432-.3.288-.45.636-.45 1.044 0 .468.186.846.558 1.134.372.276.888.414 1.548.414.648 0 1.212-.144 1.692-.432a2.446 2.446 0 0 0 1.062-1.26l.342 1.188c-.228.564-.63 1.014-1.206 1.35-.576.324-1.302.486-2.178.486Zm-10.039-.108-4.176-9.54h1.8l3.708 8.64h-.864l3.78-8.64h1.692l-4.176 9.54h-1.764Zm-7.173 0v-2.016l-.09-.378v-3.438c0-.732-.216-1.296-.648-1.692-.42-.408-1.056-.612-1.908-.612-.564 0-1.116.096-1.656.288a4.14 4.14 0 0 0-1.368.738l-.72-1.296a5.105 5.105 0 0 1 1.764-.9 7.306 7.306 0 0 1 2.178-.324c1.308 0 2.316.318 3.024.954.708.636 1.062 1.608 1.062 2.916v5.76h-1.638Zm-3.132.108c-.708 0-1.332-.12-1.872-.36-.528-.24-.936-.57-1.224-.99a2.57 2.57 0 0 1-.432-1.458c0-.516.12-.984.36-1.404.252-.42.654-.756 1.206-1.008.564-.252 1.32-.378 2.268-.378h3.024v1.242h-2.952c-.864 0-1.446.144-1.746.432-.3.288-.45.636-.45 1.044 0 .468.186.846.558 1.134.372.276.888.414 1.548.414.648 0 1.212-.144 1.692-.432a2.446 2.446 0 0 0 1.062-1.26l.342 1.188c-.228.564-.63 1.014-1.206 1.35-.576.324-1.302.486-2.178.486Zm-10.137.037a4.75 4.75 0 0 1-2.088-.468 4.016 4.016 0 0 1-1.584-1.35l1.044-1.224c.348.48.738.852 1.17 1.116.444.252.93.378 1.458.378 1.44 0 2.16-.852 2.16-2.556v-7.074h-4.554v-1.566h6.336v8.55c0 1.404-.336 2.454-1.008 3.15-.66.696-1.638 1.044-2.934 1.044Z" fill="#166FF5"/><path d="m371.123 168.609-.107-4.86h1.511l-.125 4.86h-1.279Zm3.258 0-.107-4.86h1.511l-.125 4.86h-1.279Zm-6.643 10.404.9-3.636.234 1.044a1.27 1.27 0 0 1-.882-.324c-.228-.216-.342-.51-.342-.882 0-.36.114-.654.342-.882a1.21 1.21 0 0 1 .864-.342c.348 0 .63.12.846.36.216.228.324.516.324.864 0 .12-.012.24-.036.36-.012.108-.042.24-.09.396a4.69 4.69 0 0 1-.18.54l-.846 2.502h-1.134Zm-5.763-10.404-.108-4.86h1.512l-.126 4.86h-1.278Zm3.258 0-.108-4.86h1.512l-.126 4.86h-1.278Z" fill="#1C1C20"/><path d="M355.211 166.718c.78 0 1.464.15 2.053.45a3.22 3.22 0 0 1 1.403 1.368c.336.612.504 1.386.504 2.322v5.49h-1.728v-5.292c0-.924-.227-1.62-.684-2.088-.444-.468-1.074-.702-1.89-.702-.612 0-1.146.12-1.602.36-.456.24-.81.594-1.062 1.062-.24.468-.36 1.05-.36 1.746v4.914h-1.728v-9.54h1.656v2.574l-.269-.684c.311-.624.791-1.11 1.44-1.458.647-.348 1.403-.522 2.267-.522Zm-12.43 9.738c-.96 0-1.812-.21-2.556-.63a4.69 4.69 0 0 1-1.764-1.728c-.432-.744-.649-1.584-.649-2.52 0-.948.217-1.788.649-2.52a4.557 4.557 0 0 1 1.764-1.71c.744-.42 1.596-.63 2.556-.63.948 0 1.793.21 2.537.63a4.403 4.403 0 0 1 1.765 1.71c.432.72.647 1.56.647 2.52 0 .948-.215 1.788-.647 2.52a4.526 4.526 0 0 1-1.765 1.728c-.744.42-1.589.63-2.537.63Zm0-1.512c.612 0 1.158-.138 1.638-.414a2.922 2.922 0 0 0 1.152-1.17c.276-.516.413-1.11.413-1.782 0-.684-.137-1.272-.413-1.764a2.922 2.922 0 0 0-1.152-1.17c-.48-.276-1.026-.414-1.638-.414-.612 0-1.158.138-1.638.414-.48.276-.864.666-1.152 1.17-.288.492-.432 1.08-.432 1.764 0 .672.144 1.266.432 1.782.288.504.672.894 1.152 1.17.48.276 1.026.414 1.638.414Zm-11.249-8.227c.779 0 1.463.151 2.051.45.6.3 1.069.756 1.405 1.368.336.612.503 1.386.503 2.323v5.489h-1.728v-5.292c0-.923-.228-1.62-.684-2.088-.443-.468-1.073-.701-1.889-.701-.613 0-1.146.119-1.603.359-.455.24-.81.594-1.062 1.062-.24.468-.36 1.05-.36 1.747v4.913h-1.727v-13.356h1.727v6.39l-.342-.683a3.315 3.315 0 0 1 1.44-1.459c.648-.348 1.405-.522 2.269-.522Zm-9.263 9.737c-.96 0-1.704-.258-2.232-.774-.528-.516-.792-1.254-.792-2.214v-8.748h1.728v8.676c0 .516.126.912.378 1.188.264.276.636.414 1.116.414.54 0 .99-.15 1.35-.45l.54 1.242a2.506 2.506 0 0 1-.954.504c-.36.108-.738.162-1.134.162Zm-4.644-8.226v-1.422h6.084v1.422h-6.084Zm-8.536 11.72c-.457 0-.901-.078-1.333-.234a3.025 3.025 0 0 1-1.115-.648l.737-1.296c.24.228.505.402.793.522.288.12.593.18.918.18.42 0 .768-.108 1.044-.324.275-.216.534-.6.774-1.152l.593-1.314.181-.216 3.744-8.658h1.691l-4.625 10.493c-.276.672-.589 1.2-.937 1.584-.336.384-.708.655-1.115.81a3.502 3.502 0 0 1-1.35.253Zm2.267-3.294L307 166.808h1.801l3.707 8.496-1.152 1.35Zm-15.301-.305v-12.6h4.914c1.104 0 2.046.174 2.826.522.78.348 1.38.852 1.8 1.512.42.66.63 1.446.63 2.358 0 .912-.21 1.698-.63 2.358-.42.648-1.02 1.152-1.8 1.512-.78.348-1.722.522-2.826.522h-3.924l.81-.846v4.662h-1.8Zm1.8-4.482-.81-.9h3.87c1.152 0 2.022-.246 2.61-.738.6-.492.9-1.188.9-2.088 0-.9-.3-1.596-.9-2.088-.588-.492-1.458-.738-2.61-.738h-3.87l.81-.9v7.452Z" fill="#166FF5"/><path d="m288.374 168.609-.108-4.86h1.512l-.126 4.86h-1.278Zm3.258 0-.108-4.86h1.512l-.126 4.86h-1.278Zm-8.741 11.23v-16.848h3.762v1.422h-2.034v14.004h2.034v1.422h-3.762Zm-11.164-11.215v-1.422h8.064v1.422h-8.064Zm0 4.266v-1.422h8.064v1.422h-8.064Zm-4.883 3.459v-11.88l.774.846H264v-1.566h4.626v12.6h-1.782Zm-5.184.105c-.96 0-1.704-.258-2.232-.774-.528-.516-.792-1.254-.792-2.214v-8.748h1.728v8.676c0 .516.126.912.378 1.188.264.276.636.414 1.116.414.54 0 .99-.15 1.35-.45l.54 1.242a2.506 2.506 0 0 1-.954.504c-.36.108-.738.162-1.134.162Zm-4.644-8.226v-1.422h6.084v1.422h-6.084Zm-4.918 8.228a7.85 7.85 0 0 1-2.268-.324c-.708-.216-1.266-.48-1.674-.792l.72-1.368c.408.276.912.51 1.512.702a5.99 5.99 0 0 0 1.836.288c.804 0 1.38-.114 1.728-.342.36-.228.54-.546.54-.954 0-.3-.108-.534-.324-.702-.216-.168-.504-.294-.864-.378a12.123 12.123 0 0 0-1.17-.216 24.668 24.668 0 0 1-1.296-.252 5.786 5.786 0 0 1-1.188-.432 2.343 2.343 0 0 1-.864-.774c-.216-.336-.324-.78-.324-1.332 0-.576.162-1.08.486-1.512.324-.432.78-.762 1.368-.99.6-.24 1.308-.36 2.124-.36.624 0 1.254.078 1.89.234.648.144 1.176.354 1.584.63l-.738 1.368a4.077 4.077 0 0 0-1.35-.594 6.226 6.226 0 0 0-1.404-.162c-.756 0-1.32.126-1.692.378-.372.24-.558.552-.558.936 0 .324.108.576.324.756.228.168.516.3.864.396.36.096.756.18 1.188.252.432.06.864.144 1.296.252.432.096.822.234 1.17.414.36.18.648.432.864.756.228.324.342.756.342 1.296 0 .576-.168 1.074-.504 1.494-.336.42-.81.75-1.422.99-.612.228-1.344.342-2.196.342Zm-7.761-.108v-9.54h1.728v9.54h-1.728Zm.864-11.376c-.336 0-.618-.108-.846-.324a1.077 1.077 0 0 1-.324-.792c0-.324.108-.594.324-.81.228-.216.51-.324.846-.324.336 0 .612.108.828.324a.994.994 0 0 1 .342.774c0 .324-.108.6-.324.828-.216.216-.498.324-.846.324Zm-5.896 11.375v-13.356h1.728v13.356h-1.728Zm-10.633 1.116v-1.116h9v1.116h-9Zm-7.779 2.485c-.456 0-.9-.078-1.332-.234a3.046 3.046 0 0 1-1.116-.648l.738-1.296c.24.228.504.402.792.522.288.12.594.18.918.18.421 0 .768-.108 1.045-.324.275-.216.533-.6.773-1.152l.594-1.314.18-.216 3.744-8.658h1.692l-4.626 10.493c-.276.672-.587 1.2-.936 1.584-.336.384-.707.655-1.116.81a3.49 3.49 0 0 1-1.35.253Zm2.268-3.294-4.356-9.846h1.8l3.708 8.496-1.152 1.35Zm-9.586-9.936c.768 0 1.446.15 2.034.45.588.3 1.044.756 1.368 1.368.336.612.504 1.386.504 2.322v5.49h-1.728v-5.292c0-.924-.216-1.62-.648-2.088-.432-.468-1.038-.702-1.818-.702-.576 0-1.08.12-1.512.36-.432.24-.768.594-1.008 1.062-.228.468-.342 1.05-.342 1.746v4.914h-1.728v-5.292c0-.924-.216-1.62-.648-2.088-.42-.468-1.026-.702-1.818-.702-.564 0-1.062.12-1.494.36-.432.24-.768.594-1.008 1.062-.24.468-.36 1.05-.36 1.746v4.914h-1.728v-9.54h1.656v2.538l-.27-.648c.3-.624.762-1.11 1.386-1.458.624-.348 1.35-.522 2.178-.522.912 0 1.698.228 2.358.684.66.444 1.092 1.122 1.296 2.034l-.702-.288c.288-.732.792-1.32 1.512-1.764.72-.444 1.56-.666 2.52-.666Zm457.909-13.203 25.915-7.13-12.995-3.784-1.2-12.899-11.72 23.813ZM643 167.687h17.02v17.02H643v-17.02Z" fill="#1C1C20"/><path d="M916.097 257.347 662 351.562l1.043 2.813L917.14 260.16l-1.043-2.813Zm-733.079-176L110 216.1l2.638 1.429 73.017-134.754-2.637-1.43Z" fill="#166FF5"/></svg>