<svg width="945" height="585" viewBox="0 0 945 585" fill="none" xmlns="http://www.w3.org/2000/svg"><path d="m0 172.347 278.002-172 292.001 499.999-188.001 84L0 172.347Z" fill="#FFE2FC"/><path d="m774.004 582.999 170.938-263.21L427.84 59.265l-72.215 192.833 418.379 330.901Z" fill="#FFE2FC"/><path d="M684.574 366.732c-.96 0-1.704-.258-2.232-.774-.528-.516-.792-1.254-.792-2.214v-8.748h1.728v8.676c0 .516.126.912.378 1.188.264.276.636.414 1.116.414.54 0 .99-.15 1.35-.45l.54 1.242a2.506 2.506 0 0 1-.954.504c-.36.108-.738.162-1.134.162Zm-4.644-8.226v-1.422h6.084v1.422h-6.084Zm-4.731 8.118v-10.386c0-.936.27-1.68.81-2.232.552-.564 1.332-.846 2.34-.846.372 0 .726.048 1.062.144.348.084.642.222.882.414l-.522 1.314a1.873 1.873 0 0 0-.612-.324 2.066 2.066 0 0 0-.72-.126c-.504 0-.888.144-1.152.432-.264.276-.396.69-.396 1.242v1.278l.036.792v8.298h-1.728Zm-1.621-8.118v-1.422h6.085v1.422h-6.085Zm-3.655 8.12v-9.54h1.728v9.54h-1.728Zm.864-11.376c-.336 0-.618-.108-.846-.324a1.077 1.077 0 0 1-.324-.792c0-.324.108-.594.324-.81.228-.216.51-.324.846-.324.336 0 .612.108.828.324a.994.994 0 0 1 .342.774c0 .324-.108.6-.324.828-.216.216-.498.324-.846.324Zm-15.038 11.376-3.546-9.54h1.638l3.15 8.64h-.774l3.276-8.64h1.458l3.204 8.64h-.756l3.222-8.64h1.548l-3.564 9.54h-1.656l-3.006-7.884h.504l-3.042 7.884h-1.656Zm-9.096.145a8.76 8.76 0 0 1-2.754-.432c-.876-.3-1.566-.685-2.071-1.152l.666-1.404c.48.42 1.092.768 1.836 1.044a6.628 6.628 0 0 0 2.323.414c.732 0 1.325-.084 1.781-.252.456-.168.792-.397 1.008-.685a1.68 1.68 0 0 0 .324-1.008c0-.432-.144-.779-.432-1.043-.276-.264-.642-.474-1.098-.63a10.777 10.777 0 0 0-1.475-.432c-.54-.12-1.086-.258-1.638-.414a8.058 8.058 0 0 1-1.495-.63 3.105 3.105 0 0 1-1.079-1.008c-.276-.432-.415-.984-.415-1.656 0-.648.168-1.243.504-1.782.348-.552.876-.991 1.584-1.314.72-.336 1.633-.504 2.737-.504.732 0 1.457.096 2.177.288.72.192 1.344.468 1.872.828l-.594 1.439a5.658 5.658 0 0 0-1.709-.774 6.501 6.501 0 0 0-1.746-.251c-.708 0-1.29.09-1.746.27-.456.179-.792.42-1.008.72-.204.3-.306.636-.306 1.008 0 .444.137.797.413 1.062.288.263.655.474 1.099.63.456.156.953.3 1.493.432.54.12 1.08.257 1.62.414.552.156 1.051.36 1.495.611.456.253.821.589 1.097 1.008.276.421.414.96.414 1.621 0 .635-.174 1.23-.522 1.782-.348.539-.888.978-1.62 1.314-.72.323-1.631.486-2.735.486Zm-13.516 2.52.9-3.636.234 1.044a1.27 1.27 0 0 1-.882-.323c-.228-.216-.342-.51-.342-.883 0-.359.114-.654.342-.881a1.21 1.21 0 0 1 .864-.342c.348 0 .63.119.846.359.216.229.324.517.324.864 0 .121-.012.24-.036.361-.012.108-.042.24-.09.396a4.621 4.621 0 0 1-.18.539l-.846 2.502h-1.134Zm-6.528-2.665v-9.54h1.657v2.592l-.163-.648a2.937 2.937 0 0 1 1.333-1.512c.624-.348 1.392-.522 2.304-.522v1.674a1.324 1.324 0 0 0-.217-.018h-.179c-.924 0-1.657.276-2.196.828-.54.552-.811 1.35-.811 2.394v4.752h-1.728Zm-6.777.108c-1.02 0-1.92-.21-2.7-.63a4.62 4.62 0 0 1-1.8-1.728c-.42-.732-.629-1.572-.629-2.52s.203-1.788.611-2.52a4.5 4.5 0 0 1 1.71-1.71c.732-.42 1.554-.63 2.466-.63.924 0 1.74.204 2.448.612.708.408 1.26.984 1.656 1.728.408.732.612 1.59.612 2.574 0 .072-.006.156-.018.252 0 .096-.006.186-.018.27h-8.118v-1.242h7.218l-.702.432c.012-.612-.114-1.158-.378-1.638a2.807 2.807 0 0 0-1.098-1.116c-.456-.276-.99-.414-1.602-.414-.6 0-1.134.138-1.602.414a2.779 2.779 0 0 0-1.098 1.134c-.264.48-.396 1.032-.396 1.656v.288c0 .636.144 1.206.432 1.71.3.492.714.876 1.242 1.152.528.276 1.134.414 1.818.414.564 0 1.074-.096 1.53-.288.468-.192.876-.48 1.224-.864l.954 1.116a4.162 4.162 0 0 1-1.619 1.152c-.636.264-1.351.396-2.143.396Zm-8.102-.002c-.96 0-1.704-.258-2.232-.774-.528-.516-.792-1.254-.792-2.214v-8.748h1.728v8.676c0 .516.126.912.378 1.188.264.276.636.414 1.116.414.54 0 .99-.15 1.35-.45l.54 1.242a2.506 2.506 0 0 1-.954.504c-.36.108-.738.162-1.134.162Zm-4.644-8.226v-1.422h6.084v1.422h-6.084Zm-2.582 8.226c-.96 0-1.705-.258-2.233-.774s-.791-1.254-.791-2.214v-8.748h1.728v8.676c0 .516.126.912.378 1.188.263.276.635.414 1.115.414.54 0 .991-.15 1.35-.45l.54 1.242a2.502 2.502 0 0 1-.953.504 3.935 3.935 0 0 1-1.134.162Zm-4.645-8.226v-1.422h6.085v1.422h-6.085Zm-6.802 8.228c-.816 0-1.536-.15-2.16-.45a3.301 3.301 0 0 1-1.441-1.368c-.336-.624-.503-1.404-.503-2.34v-5.49h1.727v5.292c0 .936.222 1.638.666 2.106.456.468 1.093.702 1.909.702.6 0 1.122-.12 1.566-.36a2.547 2.547 0 0 0 1.025-1.08c.24-.48.36-1.056.36-1.728v-4.932h1.728v9.54h-1.638v-2.574l.27.684a3.338 3.338 0 0 1-1.404 1.476c-.624.348-1.325.522-2.105.522Zm-9.041-.109V353.27h1.728v13.355h-1.728Zm-9.552-6.64h6.498v1.548h-6.498v-1.548Zm.18 6.642h-1.8v-12.6h8.892v1.566h-7.092v11.034Zm-11.648 2.664.9-3.636.234 1.044a1.27 1.27 0 0 1-.882-.323c-.228-.216-.342-.51-.342-.883 0-.359.114-.654.342-.881a1.21 1.21 0 0 1 .864-.342c.348 0 .63.119.846.359.216.229.324.517.324.864 0 .121-.012.24-.036.361-.012.108-.042.24-.09.396a4.621 4.621 0 0 1-.18.539l-.846 2.502h-1.134Zm-4.149-2.665v-2.016l-.09-.378v-3.438c0-.732-.216-1.296-.648-1.692-.42-.408-1.056-.612-1.908-.612-.564 0-1.116.096-1.656.288a4.14 4.14 0 0 0-1.368.738l-.72-1.296a5.105 5.105 0 0 1 1.764-.9 7.306 7.306 0 0 1 2.178-.324c1.308 0 2.317.318 3.024.954.708.636 1.062 1.608 1.062 2.916v5.76h-1.638Zm-3.132.108c-.708 0-1.332-.12-1.872-.36-.528-.24-.936-.57-1.224-.99a2.569 2.569 0 0 1-.431-1.458c0-.516.119-.984.359-1.404.252-.42.654-.756 1.206-1.008.564-.252 1.32-.378 2.268-.378h3.024v1.242h-2.952c-.864 0-1.446.144-1.746.432-.3.288-.45.636-.45 1.044 0 .468.186.846.558 1.134.373.276.888.414 1.548.414.648 0 1.212-.144 1.692-.432a2.446 2.446 0 0 0 1.062-1.26l.342 1.188c-.228.564-.63 1.014-1.206 1.35-.576.324-1.302.486-2.178.486Zm-10.047-.108-4.176-9.54h1.8l3.708 8.64h-.864l3.78-8.64h1.692l-4.176 9.54h-1.764Zm-7.164 0v-2.016l-.09-.378v-3.438c0-.732-.216-1.296-.648-1.692-.42-.408-1.056-.612-1.908-.612-.564 0-1.116.096-1.656.288a4.14 4.14 0 0 0-1.368.738l-.72-1.296a5.105 5.105 0 0 1 1.764-.9 7.306 7.306 0 0 1 2.178-.324c1.308 0 2.316.318 3.024.954.708.636 1.062 1.608 1.062 2.916v5.76h-1.638Zm-3.132.108c-.708 0-1.332-.12-1.872-.36-.528-.24-.936-.57-1.224-.99a2.57 2.57 0 0 1-.432-1.458c0-.516.12-.984.36-1.404.252-.42.654-.756 1.206-1.008.564-.252 1.32-.378 2.268-.378h3.024v1.242h-2.952c-.864 0-1.446.144-1.746.432-.3.288-.45.636-.45 1.044 0 .468.186.846.558 1.134.372.276.888.414 1.548.414.648 0 1.212-.144 1.692-.432a2.446 2.446 0 0 0 1.062-1.26l.342 1.188c-.228.564-.63 1.014-1.206 1.35-.576.324-1.302.486-2.178.486Zm-10.138.037c-.744 0-1.44-.156-2.087-.468a4.012 4.012 0 0 1-1.585-1.35l1.044-1.224c.349.48.739.852 1.171 1.116a2.9 2.9 0 0 0 1.457.378c1.44 0 2.16-.852 2.16-2.556v-7.074h-4.554v-1.566h6.336v8.55c0 1.404-.336 2.454-1.008 3.15-.66.696-1.638 1.044-2.934 1.044Zm-13.747-.144 1.547-12.6h1.279l-1.548 12.6h-1.278Zm-6.768-3.24v-1.314h11.106v1.314h-11.106Zm2.088 3.24 1.565-12.6h1.279l-1.567 12.6h-1.277Zm-1.512-8.046v-1.314h11.106v1.314h-11.106Zm-14.602 11.537h-1.638a15.123 15.123 0 0 0 1.601-3.978c.336-1.392.505-2.875.505-4.447s-.169-3.047-.505-4.428a15.042 15.042 0 0 0-1.601-3.995h1.638c.708 1.067 1.242 2.327 1.601 3.779.373 1.44.559 2.989.559 4.644 0 1.657-.186 3.204-.559 4.644-.359 1.429-.893 2.688-1.601 3.781Zm-6.086 0h-1.638a15.126 15.126 0 0 0 1.602-3.978 18.91 18.91 0 0 0 .504-4.447c0-1.572-.168-3.047-.504-4.428a15.045 15.045 0 0 0-1.602-3.995h1.638c.708 1.067 1.242 2.327 1.602 3.779.372 1.44.558 2.989.558 4.644 0 1.657-.186 3.204-.558 4.644-.36 1.429-.894 2.688-1.602 3.781Zm-11.88-3.491v-1.224l5.13-4.95c.455-.432.791-.81 1.008-1.134.228-.336.378-.642.449-.919.085-.288.127-.563.127-.827 0-.648-.229-1.158-.684-1.53-.457-.372-1.123-.558-1.998-.558-.672 0-1.279.114-1.819.342a3.535 3.535 0 0 0-1.403 1.026l-1.225-1.062c.48-.612 1.123-1.081 1.927-1.404.816-.336 1.709-.504 2.681-.504.877 0 1.639.144 2.287.432.648.276 1.146.677 1.493 1.205.361.528.54 1.152.54 1.872 0 .409-.054.811-.161 1.207-.108.396-.312.816-.613 1.26-.299.444-.731.941-1.296 1.494l-4.571 4.41-.432-.702h7.614v1.566h-9.054Zm-3.083.105c-.96 0-1.704-.258-2.232-.774-.528-.516-.792-1.254-.792-2.214v-8.748h1.728v8.676c0 .516.126.912.378 1.188.264.276.636.414 1.116.414.54 0 .99-.15 1.35-.45l.54 1.242a2.506 2.506 0 0 1-.954.504c-.36.108-.738.162-1.134.162ZM465 358.506v-1.422h6.084v1.422H465Zm-4.917 8.228a7.85 7.85 0 0 1-2.268-.324c-.708-.216-1.266-.48-1.674-.792l.72-1.368c.408.276.912.51 1.512.702a5.99 5.99 0 0 0 1.836.288c.804 0 1.38-.114 1.728-.342.36-.228.54-.546.54-.954 0-.3-.108-.534-.324-.702-.216-.168-.504-.294-.864-.378a12.123 12.123 0 0 0-1.17-.216 24.668 24.668 0 0 1-1.296-.252 5.786 5.786 0 0 1-1.188-.432 2.343 2.343 0 0 1-.864-.774c-.216-.336-.324-.78-.324-1.332 0-.576.162-1.08.486-1.512.324-.432.78-.762 1.368-.99.6-.24 1.308-.36 2.124-.36.624 0 1.254.078 1.89.234.648.144 1.176.354 1.584.63l-.738 1.368a4.077 4.077 0 0 0-1.35-.594 6.226 6.226 0 0 0-1.404-.162c-.756 0-1.32.126-1.692.378-.372.24-.558.552-.558.936 0 .324.108.576.324.756.228.168.516.3.864.396.36.096.756.18 1.188.252.432.06.864.144 1.296.252.432.096.822.234 1.17.414.36.18.648.432.864.756.228.324.342.756.342 1.296 0 .576-.168 1.074-.504 1.494-.336.42-.81.75-1.422.99-.612.228-1.344.342-2.196.342Zm-7.761-.108v-9.54h1.728v9.54h-1.728Zm.864-11.376c-.336 0-.618-.108-.846-.324a1.077 1.077 0 0 1-.324-.792c0-.324.108-.594.324-.81.228-.216.51-.324.846-.324.336 0 .612.108.828.324a.994.994 0 0 1 .342.774c0 .324-.108.6-.324.828-.216.216-.498.324-.846.324Zm-5.889 11.375V353.27h1.728v13.355h-1.728Zm-10.641 1.116v-1.116h9v1.116h-9Zm-7.77 2.485c-.457 0-.901-.078-1.333-.234a3.025 3.025 0 0 1-1.115-.648l.737-1.296c.24.228.504.402.792.522.288.12.594.18.919.18.419 0 .767-.108 1.043-.324.276-.216.534-.6.774-1.152l.594-1.314.18-.216 3.745-8.658h1.691l-4.626 10.494c-.275.672-.588 1.2-.936 1.584-.336.384-.708.654-1.115.81a3.52 3.52 0 0 1-1.35.252Zm2.267-3.294-4.356-9.846h1.801l3.707 8.496-1.152 1.35Zm-9.594-9.936c.768 0 1.446.15 2.034.45.588.3 1.044.756 1.368 1.368.336.612.504 1.386.504 2.322v5.49h-1.728v-5.292c0-.924-.216-1.62-.648-2.088-.432-.468-1.038-.702-1.818-.702-.576 0-1.08.12-1.512.36-.432.24-.768.594-1.008 1.062-.228.468-.342 1.05-.342 1.746v4.914h-1.728v-5.292c0-.924-.216-1.62-.648-2.088-.42-.468-1.026-.702-1.818-.702-.564 0-1.062.12-1.494.36-.432.24-.768.594-1.008 1.062-.24.468-.36 1.05-.36 1.746v4.914h-1.728v-9.54h1.656v2.538l-.27-.648c.3-.624.762-1.11 1.386-1.458.624-.348 1.35-.522 2.178-.522.912 0 1.698.228 2.358.684.66.444 1.092 1.122 1.296 2.034l-.702-.288c.288-.732.792-1.32 1.512-1.764.72-.444 1.56-.666 2.52-.666Zm-15.792 13.122c-.684-1.093-1.212-2.352-1.584-3.781-.372-1.44-.558-2.987-.558-4.644 0-1.655.186-3.204.558-4.644.372-1.452.9-2.712 1.584-3.779h1.638a15.406 15.406 0 0 0-1.584 3.995c-.336 1.381-.504 2.856-.504 4.428s.168 3.055.504 4.447c.336 1.38.864 2.705 1.584 3.978h-1.638Zm-9.368-13.122c.78 0 1.464.15 2.052.45.6.3 1.068.756 1.404 1.368.336.612.504 1.386.504 2.322v5.49h-1.728v-5.292c0-.924-.228-1.62-.684-2.088-.444-.468-1.074-.702-1.89-.702-.612 0-1.146.12-1.602.36-.456.24-.81.594-1.062 1.062-.24.468-.36 1.05-.36 1.746v4.914h-1.728v-9.54h1.656v2.574l-.27-.684a3.313 3.313 0 0 1 1.44-1.458c.648-.348 1.404-.522 2.268-.522Zm-10.124 9.63v-9.54h1.727v9.54h-1.727Zm.863-11.376a1.18 1.18 0 0 1-.845-.324 1.073 1.073 0 0 1-.324-.792c0-.324.107-.594.324-.81a1.18 1.18 0 0 1 .845-.324c.336 0 .612.108.829.324a.997.997 0 0 1 .342.774c0 .324-.108.6-.324.828-.216.216-.498.324-.847.324Zm-8.201 11.484c-.96 0-1.812-.21-2.557-.63a4.694 4.694 0 0 1-1.763-1.728c-.432-.744-.648-1.584-.648-2.52 0-.948.216-1.788.648-2.52a4.561 4.561 0 0 1 1.763-1.71c.745-.42 1.597-.63 2.557-.63.947 0 1.794.21 2.538.63a4.398 4.398 0 0 1 1.763 1.71c.432.72.649 1.56.649 2.52 0 .948-.217 1.788-.649 2.52a4.52 4.52 0 0 1-1.763 1.728c-.744.42-1.591.63-2.538.63Zm0-1.512c.611 0 1.158-.138 1.638-.414a2.922 2.922 0 0 0 1.152-1.17c.276-.516.413-1.11.413-1.782 0-.684-.137-1.272-.413-1.764a2.922 2.922 0 0 0-1.152-1.17c-.48-.276-1.027-.414-1.638-.414-.612 0-1.159.138-1.639.414-.48.276-.864.666-1.152 1.17-.288.492-.432 1.08-.432 1.764 0 .672.144 1.266.432 1.782.288.504.672.894 1.152 1.17.48.276 1.027.414 1.639.414Zm-10.422 5.004c-.396 0-.774-.048-1.134-.144a2.605 2.605 0 0 1-.936-.432l.559-1.332c.359.3.827.45 1.403.45.456 0 .805-.144 1.045-.432.251-.276.378-.69.378-1.242v-10.008h1.727v9.972c0 .972-.264 1.74-.792 2.304-.516.576-1.265.864-2.25.864Zm2.178-14.976c-.336 0-.617-.108-.846-.324a1.077 1.077 0 0 1-.324-.792c0-.324.108-.594.324-.81.229-.216.51-.324.846-.324.336 0 .612.108.829.324a.997.997 0 0 1 .342.774c0 .324-.108.6-.325.828-.215.216-.497.324-.846.324Zm-4.797 11.486a1.21 1.21 0 0 1-.864-.342c-.24-.24-.36-.54-.36-.901 0-.359.12-.654.36-.881a1.21 1.21 0 0 1 .864-.342c.324 0 .6.114.828.342.24.227.36.522.36.881 0 .361-.12.661-.36.901a1.128 1.128 0 0 1-.828.342Zm-6.85-7.849-.108-4.86h1.511l-.126 4.86h-1.277Zm3.258 0-.109-4.86h1.512l-.126 4.86h-1.277Zm-12.464 10.404.9-3.636.234 1.044a1.27 1.27 0 0 1-.882-.323c-.228-.216-.342-.51-.342-.883 0-.359.114-.654.342-.881a1.21 1.21 0 0 1 .864-.342c.348 0 .63.119.846.359.216.229.324.517.324.864 0 .121-.012.24-.036.361-.012.108-.042.24-.09.396a4.621 4.621 0 0 1-.18.539l-.846 2.502h-1.134Zm-5.764-10.404-.107-4.86h1.512l-.126 4.86h-1.279Zm3.258 0-.107-4.86h1.511l-.125 4.86h-1.279Zm-6.707 11.231c-.684-1.093-1.213-2.352-1.584-3.781-.373-1.44-.559-2.987-.559-4.644 0-1.655.186-3.204.559-4.644.371-1.452.9-2.712 1.584-3.779h1.637a15.406 15.406 0 0 0-1.584 3.995c-.336 1.381-.504 2.856-.504 4.428s.168 3.055.504 4.447c.336 1.38.864 2.705 1.584 3.978h-1.637Zm-6.389-3.386c-.96 0-1.704-.258-2.232-.774-.528-.516-.792-1.254-.792-2.214v-8.748h1.728v8.676c0 .516.126.912.378 1.188.264.276.636.414 1.116.414.54 0 .99-.15 1.35-.45l.54 1.242a2.506 2.506 0 0 1-.954.504c-.36.108-.738.162-1.134.162Zm-4.644-8.226v-1.422h6.084v1.422h-6.084Zm-5.797-1.51c.78 0 1.464.15 2.052.45.6.3 1.068.756 1.404 1.368.336.612.504 1.386.504 2.322v5.49h-1.728v-5.292c0-.924-.228-1.62-.684-2.088-.444-.468-1.074-.702-1.89-.702-.612 0-1.146.12-1.602.36-.456.24-.81.594-1.062 1.062-.24.468-.36 1.05-.36 1.746v4.914h-1.728v-9.54h1.656v2.574l-.27-.684a3.313 3.313 0 0 1 1.44-1.458c.648-.348 1.404-.522 2.268-.522Zm-10.116 9.63v-9.54h1.728v9.54h-1.728Zm.864-11.376c-.336 0-.618-.108-.846-.324a1.077 1.077 0 0 1-.324-.792c0-.324.108-.594.324-.81.228-.216.51-.324.846-.324.336 0 .612.108.828.324a.994.994 0 0 1 .342.774c0 .324-.108.6-.324.828-.216.216-.498.324-.846.324Zm-8.123 11.376v-9.54h1.656v2.592l-.162-.648a2.93 2.93 0 0 1 1.332-1.512c.624-.348 1.392-.522 2.304-.522v1.674a1.312 1.312 0 0 0-.216-.018h-.18c-.924 0-1.656.276-2.196.828-.54.552-.81 1.35-.81 2.394v4.752h-1.728Zm-7.208.108c-.792 0-1.518-.18-2.178-.54-.648-.372-1.17-.918-1.566-1.638-.384-.72-.576-1.62-.576-2.7s.186-1.98.558-2.7c.384-.72.9-1.26 1.548-1.62.66-.36 1.398-.54 2.214-.54.936 0 1.764.204 2.484.612a4.5 4.5 0 0 1 1.71 1.71c.42.72.63 1.566.63 2.538 0 .972-.21 1.824-.63 2.556a4.5 4.5 0 0 1-1.71 1.71c-.72.408-1.548.612-2.484.612Zm-5.058 3.384v-13.032h1.656v2.574l-.108 2.214.18 2.214v6.03h-1.728Zm4.914-4.896c.612 0 1.158-.138 1.638-.414a2.922 2.922 0 0 0 1.152-1.17c.288-.516.432-1.11.432-1.782 0-.684-.144-1.272-.432-1.764a2.922 2.922 0 0 0-1.152-1.17c-.48-.276-1.026-.414-1.638-.414-.6 0-1.146.138-1.638.414-.48.276-.864.666-1.152 1.17-.276.492-.414 1.08-.414 1.764 0 .672.138 1.266.414 1.782.288.504.672.894 1.152 1.17a3.29 3.29 0 0 0 1.638.414Zm473.503-26.955v-7.884h1.512v7.884h-1.512Zm-3.276-3.223v-1.421h8.064v1.421h-8.064Zm-7.193 3.223v-7.884h1.512v7.884h-1.512Zm-3.276-3.223v-1.421h8.064v1.421h-8.064Zm-6.699 5.727c-.96 0-1.848-.156-2.664-.468a6.533 6.533 0 0 1-2.106-1.35 6.521 6.521 0 0 1-1.386-2.052c-.336-.78-.504-1.638-.504-2.574 0-.936.168-1.794.504-2.574a6.174 6.174 0 0 1 1.404-2.034 6.155 6.155 0 0 1 2.106-1.35 7.155 7.155 0 0 1 2.664-.486c.972 0 1.866.168 2.682.504.828.324 1.53.81 2.106 1.458l-1.17 1.134a4.57 4.57 0 0 0-1.62-1.116 4.923 4.923 0 0 0-1.926-.378c-.708 0-1.368.12-1.98.36-.6.24-1.122.576-1.566 1.008a4.638 4.638 0 0 0-1.044 1.548c-.24.588-.36 1.23-.36 1.926s.12 1.344.36 1.944c.252.588.6 1.098 1.044 1.53.444.432.966.768 1.566 1.008.612.24 1.272.36 1.98.36.684 0 1.326-.12 1.926-.36.6-.252 1.14-.636 1.62-1.152l1.17 1.134a5.584 5.584 0 0 1-2.106 1.476c-.816.336-1.716.504-2.7.504Zm-15.477 2.521.9-3.637.234 1.045c-.348 0-.641-.108-.881-.325-.229-.215-.343-.509-.343-.881 0-.36.114-.655.343-.882a1.21 1.21 0 0 1 .864-.342c.347 0 .629.12.845.36.216.228.324.516.324.864 0 .12-.012.24-.036.36-.012.108-.042.24-.09.396a4.657 4.657 0 0 1-.179.54l-.847 2.502h-1.134Zm-3.664-2.56c-.96 0-1.704-.258-2.232-.774-.528-.516-.792-1.254-.792-2.214v-8.748h1.728v8.676c0 .516.126.912.378 1.188.264.276.636.414 1.116.414.54 0 .99-.15 1.35-.45l.54 1.242a2.506 2.506 0 0 1-.954.504c-.36.108-.738.162-1.134.162Zm-4.644-8.226v-1.422h6.084v1.422h-6.084Zm-5.848 8.228c-.793 0-1.519-.18-2.178-.54-.648-.372-1.17-.918-1.566-1.638-.384-.72-.576-1.62-.576-2.7s.186-1.98.558-2.7c.384-.72.899-1.26 1.548-1.62.659-.36 1.398-.54 2.214-.54.935 0 1.764.204 2.484.612.72.408 1.29.978 1.709 1.71.421.72.63 1.566.63 2.538 0 .972-.209 1.824-.63 2.556a4.491 4.491 0 0 1-1.709 1.71c-.72.408-1.549.612-2.484.612Zm-5.058 3.384v-13.032h1.656v2.574l-.108 2.214.18 2.214v6.03h-1.728Zm4.914-4.896c.612 0 1.158-.138 1.638-.414a2.935 2.935 0 0 0 1.152-1.17c.288-.516.432-1.11.432-1.782 0-.684-.144-1.272-.432-1.764a2.935 2.935 0 0 0-1.152-1.17c-.48-.276-1.026-.414-1.638-.414-.6 0-1.146.138-1.638.414-.48.276-.864.666-1.152 1.17-.276.492-.414 1.08-.414 1.764 0 .672.138 1.266.414 1.782.288.504.672.894 1.152 1.17a3.29 3.29 0 0 0 1.638.414Zm-9.937 1.404v-9.54h1.728v9.54h-1.728Zm.864-11.376c-.336 0-.618-.108-.846-.324a1.077 1.077 0 0 1-.324-.792c0-.324.108-.594.324-.81.228-.216.51-.324.846-.324.336 0 .612.108.828.324a.994.994 0 0 1 .342.774c0 .324-.108.6-.324.828-.216.216-.498.324-.846.324Zm-8.131 11.376v-9.54h1.657v2.592l-.163-.648a2.937 2.937 0 0 1 1.333-1.512c.624-.348 1.392-.522 2.304-.522v1.674a1.312 1.312 0 0 0-.216-.018h-.18c-.924 0-1.657.276-2.196.828-.54.552-.811 1.35-.811 2.394v4.752h-1.728Zm-6.124.108c-.971 0-1.841-.21-2.609-.63a4.653 4.653 0 0 1-1.782-1.728c-.432-.732-.649-1.572-.649-2.52s.217-1.788.649-2.52a4.524 4.524 0 0 1 1.782-1.71c.768-.42 1.638-.63 2.609-.63.864 0 1.632.174 2.304.522.684.336 1.212.84 1.584 1.512l-1.313.846c-.313-.468-.697-.81-1.152-1.026a3.106 3.106 0 0 0-1.44-.342c-.624 0-1.183.138-1.674.414a3.045 3.045 0 0 0-1.17 1.17c-.288.492-.432 1.08-.432 1.764 0 .684.144 1.278.432 1.782.288.504.678.894 1.17 1.17.491.276 1.05.414 1.674.414.516 0 .996-.108 1.44-.324a2.998 2.998 0 0 0 1.152-1.044l1.313.828c-.372.66-.9 1.17-1.584 1.53-.672.348-1.44.522-2.304.522Zm-11.411.037a8.76 8.76 0 0 1-2.754-.432c-.876-.3-1.566-.684-2.07-1.152l.666-1.404c.48.42 1.092.768 1.836 1.044a6.623 6.623 0 0 0 2.322.414c.732 0 1.326-.084 1.782-.252.456-.168.792-.396 1.008-.684.216-.3.324-.636.324-1.008 0-.432-.144-.78-.432-1.044-.276-.264-.642-.474-1.098-.63a10.793 10.793 0 0 0-1.476-.432c-.54-.12-1.086-.258-1.638-.414a7.98 7.98 0 0 1-1.494-.63 3.108 3.108 0 0 1-1.08-1.008c-.276-.432-.414-.984-.414-1.656 0-.648.168-1.242.504-1.782.348-.552.876-.99 1.584-1.314.72-.336 1.632-.504 2.736-.504.732 0 1.458.096 2.178.288.72.192 1.344.468 1.872.828l-.594 1.44a5.615 5.615 0 0 0-1.71-.774 6.464 6.464 0 0 0-1.746-.252c-.708 0-1.29.09-1.746.27-.456.18-.792.42-1.008.72-.204.3-.306.636-.306 1.008 0 .444.138.798.414 1.062.288.264.654.474 1.098.63.456.156.954.3 1.494.432.54.12 1.08.258 1.62.414.552.156 1.05.36 1.494.612.456.252.822.588 1.098 1.008.276.42.414.96.414 1.62 0 .636-.174 1.23-.522 1.782-.348.54-.888.978-1.62 1.314-.72.324-1.632.486-2.736.486Zm-8.766-.145v-2.016l-.09-.378v-3.438c0-.732-.216-1.296-.648-1.692-.42-.408-1.056-.612-1.908-.612-.564 0-1.116.096-1.655.288-.541.18-.997.426-1.369.738l-.72-1.296a5.114 5.114 0 0 1 1.764-.9 7.306 7.306 0 0 1 2.178-.324c1.308 0 2.316.318 3.024.954.708.636 1.062 1.608 1.062 2.916v5.76h-1.638Zm-3.132.108c-.708 0-1.332-.12-1.872-.36-.528-.24-.936-.57-1.224-.99a2.569 2.569 0 0 1-.431-1.458c0-.516.119-.984.359-1.404.252-.42.655-.756 1.206-1.008.564-.252 1.321-.378 2.268-.378h3.024v1.242h-2.952c-.864 0-1.445.144-1.745.432a1.392 1.392 0 0 0-.451 1.044c0 .468.186.846.559 1.134.371.276.887.414 1.547.414.648 0 1.212-.144 1.692-.432a2.441 2.441 0 0 0 1.062-1.26l.342 1.188c-.227.564-.63 1.014-1.206 1.35-.576.324-1.302.486-2.178.486Zm-10.039-.108-4.176-9.54h1.8l3.708 8.64h-.864l3.78-8.64h1.692l-4.176 9.54h-1.764Zm-7.164 0v-2.016l-.09-.378v-3.438c0-.732-.217-1.296-.649-1.692-.42-.408-1.056-.612-1.908-.612-.564 0-1.116.096-1.656.288a4.15 4.15 0 0 0-1.368.738l-.72-1.296a5.114 5.114 0 0 1 1.764-.9 7.315 7.315 0 0 1 2.178-.324c1.309 0 2.317.318 3.024.954.708.636 1.063 1.608 1.063 2.916v5.76h-1.638Zm-3.133.108c-.708 0-1.332-.12-1.872-.36-.528-.24-.935-.57-1.223-.99a2.57 2.57 0 0 1-.432-1.458c0-.516.119-.984.359-1.404.252-.42.654-.756 1.206-1.008.564-.252 1.32-.378 2.268-.378h3.024v1.242h-2.952c-.864 0-1.446.144-1.745.432a1.392 1.392 0 0 0-.451 1.044c0 .468.186.846.558 1.134.373.276.889.414 1.548.414.649 0 1.212-.144 1.692-.432a2.448 2.448 0 0 0 1.063-1.26l.342 1.188c-.229.564-.63 1.014-1.206 1.35-.576.324-1.303.486-2.179.486Zm-10.145.037c-.743 0-1.44-.156-2.087-.468a4.012 4.012 0 0 1-1.585-1.35l1.044-1.224c.349.48.738.852 1.17 1.116.444.252.93.378 1.458.378 1.44 0 2.16-.852 2.16-2.556v-7.074h-4.554v-1.566h6.336v8.55c0 1.404-.336 2.454-1.008 3.15-.659.696-1.638 1.044-2.934 1.044Zm-11.472 2.521.9-3.637.234 1.045c-.348 0-.642-.108-.882-.325-.228-.215-.342-.509-.342-.881 0-.36.114-.655.342-.882a1.21 1.21 0 0 1 .864-.342c.348 0 .63.12.846.36.216.228.324.516.324.864 0 .12-.012.24-.036.36-.012.108-.042.24-.09.396a4.69 4.69 0 0 1-.18.54l-.846 2.502h-1.134Zm-6.465-12.296c.78 0 1.464.15 2.052.45.6.3 1.068.756 1.404 1.368.336.612.504 1.386.504 2.322v5.49h-1.728v-5.292c0-.924-.228-1.62-.684-2.088-.444-.468-1.074-.702-1.89-.702-.612 0-1.146.12-1.602.36-.456.24-.81.594-1.062 1.062-.24.468-.36 1.05-.36 1.746v4.914h-1.728v-9.54h1.656v2.574l-.27-.684a3.313 3.313 0 0 1 1.44-1.458c.648-.348 1.404-.522 2.268-.522Zm-12.439 9.738c-.96 0-1.811-.21-2.556-.63a4.697 4.697 0 0 1-1.764-1.728c-.432-.744-.647-1.584-.647-2.52 0-.948.215-1.788.647-2.52a4.564 4.564 0 0 1 1.764-1.71c.745-.42 1.596-.63 2.556-.63.948 0 1.795.21 2.538.63a4.403 4.403 0 0 1 1.765 1.71c.432.72.647 1.56.647 2.52 0 .948-.215 1.788-.647 2.52a4.526 4.526 0 0 1-1.765 1.728c-.743.42-1.59.63-2.538.63Zm0-1.512c.612 0 1.158-.138 1.638-.414a2.91 2.91 0 0 0 1.152-1.17c.276-.516.414-1.11.414-1.782 0-.684-.138-1.272-.414-1.764a2.91 2.91 0 0 0-1.152-1.17c-.48-.276-1.026-.414-1.638-.414-.611 0-1.158.138-1.638.414-.48.276-.864.666-1.152 1.17-.288.492-.432 1.08-.432 1.764 0 .672.144 1.266.432 1.782.288.504.672.894 1.152 1.17.48.276 1.027.414 1.638.414Zm-11.248-8.227c.78 0 1.463.15 2.052.451.6.3 1.068.755 1.404 1.368.336.612.503 1.386.503 2.321v5.491h-1.728v-5.292c0-.925-.227-1.62-.683-2.088-.444-.469-1.074-.703-1.89-.703-.612 0-1.146.121-1.603.361-.455.24-.809.593-1.062 1.062-.24.468-.359 1.05-.359 1.745v4.915h-1.728V327.27h1.728v6.39l-.342-.685a3.306 3.306 0 0 1 1.44-1.457c.648-.348 1.404-.523 2.268-.523Zm-9.263 9.737c-.96 0-1.704-.258-2.232-.774-.528-.516-.792-1.254-.792-2.214v-8.748h1.728v8.676c0 .516.126.912.378 1.188.264.276.636.414 1.116.414.54 0 .99-.15 1.35-.45l.54 1.242a2.506 2.506 0 0 1-.954.504c-.36.108-.738.162-1.134.162Zm-4.644-8.226v-1.422h6.084v1.422h-6.084Zm-8.536 11.72c-.456 0-.9-.078-1.332-.234a3.038 3.038 0 0 1-1.116-.648l.738-1.296c.24.228.504.402.792.522.288.12.594.18.918.18.42 0 .768-.108 1.044-.324.276-.216.534-.6.774-1.152l.594-1.314.18-.216 3.744-8.658h1.692l-4.626 10.494c-.276.672-.588 1.2-.936 1.584-.336.384-.708.654-1.116.81a3.513 3.513 0 0 1-1.35.252Zm2.268-3.294-4.356-9.846h1.8l3.708 8.496-1.152 1.35Zm-15.302-.305v-12.6h4.914c1.104 0 2.046.174 2.826.522.78.348 1.38.852 1.8 1.512.42.66.63 1.446.63 2.358 0 .912-.21 1.698-.63 2.358-.42.648-1.02 1.152-1.8 1.512-.78.348-1.722.522-2.826.522h-3.924l.81-.846v4.662h-1.8Zm1.8-4.482-.81-.9h3.87c1.152 0 2.022-.246 2.61-.738.6-.492.9-1.188.9-2.088 0-.9-.3-1.596-.9-2.088-.588-.492-1.458-.738-2.61-.738h-3.87l.81-.9v7.452Zm-13.662 4.589c-1.02 0-1.92-.21-2.701-.63a4.62 4.62 0 0 1-1.8-1.728c-.42-.732-.629-1.572-.629-2.52s.203-1.788.612-2.52a4.491 4.491 0 0 1 1.709-1.71c.732-.42 1.555-.63 2.467-.63.924 0 1.74.204 2.448.612.707.408 1.26.984 1.655 1.728.409.732.613 1.59.613 2.574 0 .072-.006.156-.018.252 0 .096-.007.186-.019.27h-8.118v-1.242h7.218l-.701.432c.011-.612-.115-1.158-.378-1.638a2.81 2.81 0 0 0-1.099-1.116c-.456-.276-.99-.414-1.601-.414-.601 0-1.135.138-1.603.414a2.785 2.785 0 0 0-1.098 1.134c-.263.48-.396 1.032-.396 1.656v.288c0 .636.144 1.206.432 1.71.3.492.714.876 1.242 1.152.528.276 1.135.414 1.819.414a3.91 3.91 0 0 0 1.53-.288c.467-.192.875-.48 1.223-.864l.954 1.116a4.158 4.158 0 0 1-1.62 1.152c-.636.264-1.35.396-2.141.396Zm-11.412-.108v-9.54h1.656v2.592l-.162-.648a2.93 2.93 0 0 1 1.332-1.512c.624-.348 1.392-.522 2.304-.522v1.674a1.3 1.3 0 0 0-.215-.018h-.181c-.923 0-1.656.276-2.196.828-.54.552-.81 1.35-.81 2.394v4.752h-1.728Zm-4.839 0v-2.016l-.09-.378v-3.438c0-.732-.216-1.296-.648-1.692-.42-.408-1.056-.612-1.908-.612-.564 0-1.116.096-1.657.288-.539.18-.995.426-1.367.738l-.72-1.296a5.096 5.096 0 0 1 1.764-.9 7.3 7.3 0 0 1 2.178-.324c1.307 0 2.315.318 3.024.954.708.636 1.062 1.608 1.062 2.916v5.76h-1.638Zm-3.132.108c-.708 0-1.332-.12-1.872-.36-.528-.24-.937-.57-1.225-.99a2.57 2.57 0 0 1-.432-1.458c0-.516.121-.984.361-1.404.252-.42.653-.756 1.206-1.008.564-.252 1.319-.378 2.268-.378h3.024v1.242h-2.952c-.864 0-1.447.144-1.747.432a1.397 1.397 0 0 0-.449 1.044c0 .468.186.846.557 1.134.372.276.889.414 1.549.414.647 0 1.212-.144 1.692-.432a2.45 2.45 0 0 0 1.062-1.26l.341 1.188c-.228.564-.629 1.014-1.205 1.35-.576.324-1.302.486-2.178.486Zm-13.907 0a7.85 7.85 0 0 1-2.268-.324c-.708-.216-1.266-.48-1.674-.792l.72-1.368c.408.276.912.51 1.512.702a5.99 5.99 0 0 0 1.836.288c.804 0 1.38-.114 1.728-.342.36-.228.54-.546.54-.954 0-.3-.108-.534-.324-.702-.216-.168-.504-.294-.864-.378a12.123 12.123 0 0 0-1.17-.216 24.668 24.668 0 0 1-1.296-.252 5.786 5.786 0 0 1-1.188-.432 2.343 2.343 0 0 1-.864-.774c-.216-.336-.324-.78-.324-1.332 0-.576.162-1.08.486-1.512.324-.432.78-.762 1.368-.99.6-.24 1.308-.36 2.124-.36.624 0 1.254.078 1.89.234.648.144 1.176.354 1.584.63l-.738 1.368a4.077 4.077 0 0 0-1.35-.594 6.226 6.226 0 0 0-1.404-.162c-.756 0-1.32.126-1.692.378-.372.24-.558.552-.558.936 0 .324.108.576.324.756.228.168.516.3.864.396.36.096.756.18 1.188.252.432.06.864.144 1.296.252.432.096.822.234 1.17.414.36.18.648.432.864.756.228.324.342.756.342 1.296 0 .576-.168 1.074-.504 1.494-.336.42-.81.75-1.422.99-.612.228-1.344.342-2.196.342Zm-9.507 0c-1.02 0-1.92-.21-2.7-.63a4.62 4.62 0 0 1-1.8-1.728c-.42-.732-.63-1.572-.63-2.52s.204-1.788.612-2.52a4.5 4.5 0 0 1 1.71-1.71c.732-.42 1.554-.63 2.466-.63.924 0 1.74.204 2.448.612.708.408 1.26.984 1.656 1.728.408.732.612 1.59.612 2.574 0 .072-.006.156-.018.252 0 .096-.006.186-.018.27h-8.118v-1.242h7.218l-.702.432c.012-.612-.114-1.158-.378-1.638a2.807 2.807 0 0 0-1.098-1.116c-.456-.276-.99-.414-1.602-.414-.6 0-1.134.138-1.602.414a2.779 2.779 0 0 0-1.098 1.134c-.264.48-.396 1.032-.396 1.656v.288c0 .636.144 1.206.432 1.71.3.492.714.876 1.242 1.152.528.276 1.134.414 1.818.414.564 0 1.074-.096 1.53-.288.468-.192.876-.48 1.224-.864l.954 1.116a4.166 4.166 0 0 1-1.62 1.152c-.636.264-1.35.396-2.142.396Zm-12.502 3.492a8.73 8.73 0 0 1-2.556-.378c-.816-.24-1.482-.588-1.998-1.044l.828-1.332c.444.384.99.684 1.638.9a6.083 6.083 0 0 0 2.034.342c1.128 0 1.956-.264 2.484-.792s.792-1.332.792-2.412v-2.016l.18-1.89-.09-1.908v-2.61h1.638v8.244c0 1.68-.42 2.916-1.26 3.708-.84.792-2.07 1.188-3.69 1.188Zm-.216-3.996c-.924 0-1.752-.192-2.484-.576a4.622 4.622 0 0 1-1.728-1.638c-.42-.696-.63-1.5-.63-2.412 0-.924.21-1.728.63-2.412a4.484 4.484 0 0 1 1.728-1.62c.732-.384 1.56-.576 2.484-.576.816 0 1.56.168 2.232.504.672.324 1.206.828 1.602 1.512.408.684.612 1.548.612 2.592 0 1.032-.204 1.89-.612 2.574-.396.684-.93 1.2-1.602 1.548-.672.336-1.416.504-2.232.504Zm.198-1.512c.636 0 1.2-.132 1.692-.396a2.9 2.9 0 0 0 1.152-1.098c.288-.468.432-1.008.432-1.62 0-.612-.144-1.152-.432-1.62a2.78 2.78 0 0 0-1.152-1.08c-.492-.264-1.056-.396-1.692-.396-.636 0-1.206.132-1.71.396a2.9 2.9 0 0 0-1.17 1.08c-.276.468-.414 1.008-.414 1.62 0 .612.138 1.152.414 1.62a3.03 3.03 0 0 0 1.17 1.098c.504.264 1.074.396 1.71.396Zm-8.997 1.908v-2.016l-.09-.378v-3.438c0-.732-.216-1.296-.648-1.692-.42-.408-1.056-.612-1.908-.612-.564 0-1.116.096-1.656.288a4.14 4.14 0 0 0-1.368.738l-.72-1.296a5.105 5.105 0 0 1 1.764-.9 7.306 7.306 0 0 1 2.178-.324c1.308 0 2.316.318 3.024.954.708.636 1.062 1.608 1.062 2.916v5.76h-1.638Zm-3.132.108c-.708 0-1.332-.12-1.872-.36-.528-.24-.936-.57-1.224-.99a2.57 2.57 0 0 1-.432-1.458c0-.516.12-.984.36-1.404.252-.42.654-.756 1.206-1.008.564-.252 1.32-.378 2.268-.378h3.024v1.242h-2.952c-.864 0-1.446.144-1.746.432-.3.288-.45.636-.45 1.044 0 .468.186.846.558 1.134.372.276.888.414 1.548.414.648 0 1.212-.144 1.692-.432a2.446 2.446 0 0 0 1.062-1.26l.342 1.188c-.228.564-.63 1.014-1.206 1.35-.576.324-1.302.486-2.178.486Zm-10.956 0c-.816 0-1.536-.15-2.16-.45a3.31 3.31 0 0 1-1.44-1.368c-.336-.624-.503-1.404-.503-2.34v-5.49h1.728v5.292c0 .936.222 1.638.666 2.106.455.468 1.091.702 1.907.702.601 0 1.123-.12 1.566-.36a2.549 2.549 0 0 0 1.026-1.08c.24-.48.361-1.056.361-1.728v-4.932h1.728v9.54h-1.638v-2.574l.269.684a3.332 3.332 0 0 1-1.404 1.476c-.624.348-1.325.522-2.106.522Zm-12.264 3.492a8.73 8.73 0 0 1-2.556-.378c-.816-.24-1.482-.588-1.998-1.044l.828-1.332c.444.384.99.684 1.638.9a6.083 6.083 0 0 0 2.034.342c1.128 0 1.956-.264 2.484-.792s.792-1.332.792-2.412v-2.016l.18-1.89-.09-1.908v-2.61h1.638v8.244c0 1.68-.42 2.916-1.26 3.708-.84.792-2.07 1.188-3.69 1.188Zm-.216-3.996c-.924 0-1.752-.192-2.484-.576a4.622 4.622 0 0 1-1.728-1.638c-.42-.696-.63-1.5-.63-2.412 0-.924.21-1.728.63-2.412a4.484 4.484 0 0 1 1.728-1.62c.732-.384 1.56-.576 2.484-.576.816 0 1.56.168 2.232.504.672.324 1.206.828 1.602 1.512.408.684.612 1.548.612 2.592 0 1.032-.204 1.89-.612 2.574-.396.684-.93 1.2-1.602 1.548-.672.336-1.416.504-2.232.504Zm.198-1.512c.636 0 1.2-.132 1.692-.396a2.9 2.9 0 0 0 1.152-1.098c.288-.468.432-1.008.432-1.62 0-.612-.144-1.152-.432-1.62a2.78 2.78 0 0 0-1.152-1.08c-.492-.264-1.056-.396-1.692-.396-.636 0-1.206.132-1.71.396a2.9 2.9 0 0 0-1.17 1.08c-.276.468-.414 1.008-.414 1.62 0 .612.138 1.152.414 1.62a3.03 3.03 0 0 0 1.17 1.098c.504.264 1.074.396 1.71.396Zm-11.321-7.722c.78 0 1.464.15 2.052.45.6.3 1.068.756 1.404 1.368.336.612.504 1.386.504 2.322v5.49h-1.728v-5.292c0-.924-.228-1.62-.684-2.088-.444-.468-1.074-.702-1.89-.702-.612 0-1.146.12-1.602.36-.456.24-.81.594-1.062 1.062-.24.468-.36 1.05-.36 1.746v4.914h-1.728v-9.54h1.656v2.574l-.27-.684a3.313 3.313 0 0 1 1.44-1.458c.648-.348 1.404-.522 2.268-.522Zm-9.934 9.63v-2.016l-.09-.378v-3.438c0-.732-.216-1.296-.648-1.692-.42-.408-1.056-.612-1.908-.612-.564 0-1.116.096-1.656.288a4.14 4.14 0 0 0-1.368.738l-.72-1.296a5.105 5.105 0 0 1 1.764-.9 7.306 7.306 0 0 1 2.178-.324c1.308 0 2.316.318 3.024.954.708.636 1.062 1.608 1.062 2.916v5.76h-1.638Zm-3.132.108c-.708 0-1.332-.12-1.872-.36-.528-.24-.936-.57-1.224-.99a2.57 2.57 0 0 1-.432-1.458c0-.516.12-.984.36-1.404.252-.42.654-.756 1.206-1.008.564-.252 1.32-.378 2.268-.378h3.024v1.242h-2.952c-.864 0-1.446.144-1.746.432-.3.288-.45.636-.45 1.044 0 .468.186.846.558 1.134.372.276.888.414 1.548.414.648 0 1.212-.144 1.692-.432a2.446 2.446 0 0 0 1.062-1.26l.342 1.188c-.228.564-.63 1.014-1.206 1.35-.576.324-1.302.486-2.178.486Zm-13.216-.107v-12.6h1.8v11.034h6.822v1.566h-8.622Zm-13.34 3.599a8.73 8.73 0 0 1-2.556-.378c-.816-.24-1.482-.588-1.998-1.044l.828-1.332c.444.384.99.684 1.638.9a6.083 6.083 0 0 0 2.034.342c1.128 0 1.956-.264 2.484-.792s.792-1.332.792-2.412v-2.016l.18-1.89-.09-1.908v-2.61h1.638v8.244c0 1.68-.42 2.916-1.26 3.708-.84.792-2.07 1.188-3.69 1.188Zm-.216-3.996c-.924 0-1.752-.192-2.484-.576a4.622 4.622 0 0 1-1.728-1.638c-.42-.696-.63-1.5-.63-2.412 0-.924.21-1.728.63-2.412a4.484 4.484 0 0 1 1.728-1.62c.732-.384 1.56-.576 2.484-.576.816 0 1.56.168 2.232.504.672.324 1.206.828 1.602 1.512.408.684.612 1.548.612 2.592 0 1.032-.204 1.89-.612 2.574-.396.684-.93 1.2-1.602 1.548-.672.336-1.416.504-2.232.504Zm.198-1.512c.636 0 1.2-.132 1.692-.396a2.9 2.9 0 0 0 1.152-1.098c.288-.468.432-1.008.432-1.62 0-.612-.144-1.152-.432-1.62a2.78 2.78 0 0 0-1.152-1.08c-.492-.264-1.056-.396-1.692-.396-.636 0-1.206.132-1.71.396a2.9 2.9 0 0 0-1.17 1.08c-.276.468-.414 1.008-.414 1.62 0 .612.138 1.152.414 1.62a3.03 3.03 0 0 0 1.17 1.098c.504.264 1.074.396 1.71.396Zm-11.313-7.722c.78 0 1.464.15 2.052.45.6.3 1.068.756 1.404 1.368.336.612.504 1.386.504 2.322v5.49h-1.728v-5.292c0-.924-.228-1.62-.684-2.088-.444-.468-1.074-.702-1.89-.702-.612 0-1.146.12-1.602.36-.456.24-.81.594-1.062 1.062-.24.468-.36 1.05-.36 1.746v4.914h-1.728v-9.54h1.656v2.574l-.27-.684a3.313 3.313 0 0 1 1.44-1.458c.648-.348 1.404-.522 2.268-.522Zm-10.124 9.63v-9.54h1.728v9.54h-1.728Zm.864-11.376c-.336 0-.618-.108-.846-.324a1.077 1.077 0 0 1-.324-.792c0-.324.108-.594.324-.81.228-.216.51-.324.846-.324.336 0 .612.108.828.324a.994.994 0 0 1 .342.774c0 .324-.108.6-.324.828-.216.216-.498.324-.846.324Zm-7.947 1.746c.768 0 1.446.15 2.034.45.588.3 1.044.756 1.368 1.368.336.612.504 1.386.504 2.322v5.49h-1.728v-5.292c0-.924-.216-1.62-.648-2.088-.432-.468-1.038-.702-1.818-.702-.576 0-1.08.12-1.512.36-.432.24-.768.594-1.008 1.062-.228.468-.342 1.05-.342 1.746v4.914h-1.728v-5.292c0-.924-.216-1.62-.648-2.088-.42-.468-1.026-.702-1.818-.702-.564 0-1.062.12-1.494.36-.432.24-.768.594-1.008 1.062-.24.468-.36 1.05-.36 1.746v4.914h-1.728v-9.54h1.656v2.538l-.27-.648c.3-.624.762-1.11 1.386-1.458.624-.348 1.35-.522 2.178-.522.912 0 1.698.228 2.358.684.66.444 1.092 1.122 1.296 2.034l-.702-.288c.288-.732.792-1.32 1.512-1.764.72-.444 1.56-.666 2.52-.666Zm-19.023 0c.768 0 1.446.15 2.033.45.589.3 1.045.756 1.369 1.368.336.612.503 1.386.503 2.322v5.49h-1.728v-5.292c0-.924-.215-1.62-.647-2.088-.432-.468-1.038-.702-1.818-.702-.576 0-1.081.12-1.513.36-.432.24-.768.594-1.008 1.062-.227.468-.342 1.05-.342 1.746v4.914h-1.728v-5.292c0-.924-.215-1.62-.647-2.088-.42-.468-1.027-.702-1.818-.702-.564 0-1.062.12-1.494.36-.432.24-.768.594-1.008 1.062-.24.468-.361 1.05-.361 1.746v4.914h-1.728v-9.54h1.657v2.538l-.27-.648a3.248 3.248 0 0 1 1.386-1.458c.624-.348 1.35-.522 2.177-.522.912 0 1.699.228 2.359.684.659.444 1.091 1.122 1.296 2.034l-.702-.288c.288-.732.791-1.32 1.511-1.764.72-.444 1.561-.666 2.521-.666Zm-16.767 9.63v-2.016l-.09-.378v-3.438c0-.732-.216-1.296-.648-1.692-.42-.408-1.056-.612-1.908-.612-.564 0-1.116.096-1.656.288a4.14 4.14 0 0 0-1.368.738l-.72-1.296a5.105 5.105 0 0 1 1.764-.9 7.306 7.306 0 0 1 2.178-.324c1.308 0 2.316.318 3.024.954.708.636 1.062 1.608 1.062 2.916v5.76h-1.638Zm-3.132.108c-.708 0-1.332-.12-1.872-.36-.528-.24-.936-.57-1.224-.99a2.57 2.57 0 0 1-.432-1.458c0-.516.12-.984.36-1.404.252-.42.654-.756 1.206-1.008.564-.252 1.32-.378 2.268-.378h3.024v1.242h-2.952c-.864 0-1.446.144-1.746.432-.3.288-.45.636-.45 1.044 0 .468.186.846.558 1.134.372.276.888.414 1.548.414.648 0 1.212-.144 1.692-.432a2.446 2.446 0 0 0 1.062-1.26l.342 1.188c-.228.564-.63 1.014-1.206 1.35-.576.324-1.302.486-2.178.486Zm-9.356-.108v-9.54h1.656v2.592l-.162-.648a2.93 2.93 0 0 1 1.332-1.512c.624-.348 1.392-.522 2.304-.522v1.674a1.312 1.312 0 0 0-.216-.018h-.18c-.924 0-1.656.276-2.196.828-.54.552-.81 1.35-.81 2.394v4.752h-1.728Zm-8.247 3.6a8.73 8.73 0 0 1-2.556-.378c-.816-.24-1.482-.588-1.998-1.044l.828-1.332c.444.384.99.684 1.638.9a6.083 6.083 0 0 0 2.034.342c1.128 0 1.956-.264 2.484-.792s.792-1.332.792-2.412v-2.016l.18-1.89-.09-1.908v-2.61h1.638v8.244c0 1.68-.42 2.916-1.26 3.708-.84.792-2.07 1.188-3.69 1.188Zm-.216-3.996c-.924 0-1.752-.192-2.483-.576a4.622 4.622 0 0 1-1.728-1.638c-.421-.696-.631-1.5-.631-2.412 0-.924.21-1.728.631-2.412a4.484 4.484 0 0 1 1.728-1.62c.731-.384 1.559-.576 2.483-.576.816 0 1.56.168 2.232.504.672.324 1.206.828 1.602 1.512.409.684.612 1.548.612 2.592 0 1.032-.203 1.89-.612 2.574-.396.684-.93 1.2-1.602 1.548-.672.336-1.416.504-2.232.504Zm.198-1.512c.636 0 1.2-.132 1.693-.396.491-.264.875-.63 1.151-1.098.288-.468.433-1.008.433-1.62 0-.612-.145-1.152-.433-1.62a2.783 2.783 0 0 0-1.151-1.08c-.493-.264-1.057-.396-1.693-.396-.636 0-1.206.132-1.71.396a2.907 2.907 0 0 0-1.17 1.08c-.276.468-.414 1.008-.414 1.62 0 .612.138 1.152.414 1.62.288.468.679.834 1.17 1.098.504.264 1.074.396 1.71.396Zm-11.501 2.016c-.96 0-1.812-.21-2.556-.63a4.69 4.69 0 0 1-1.764-1.728c-.432-.744-.648-1.584-.648-2.52 0-.948.216-1.788.648-2.52a4.557 4.557 0 0 1 1.764-1.71c.744-.42 1.596-.63 2.556-.63.948 0 1.794.21 2.538.63a4.4 4.4 0 0 1 1.764 1.71c.432.72.648 1.56.648 2.52 0 .948-.216 1.788-.648 2.52a4.524 4.524 0 0 1-1.764 1.728c-.744.42-1.59.63-2.538.63Zm0-1.512c.612 0 1.158-.138 1.638-.414a2.922 2.922 0 0 0 1.152-1.17c.276-.516.414-1.11.414-1.782 0-.684-.138-1.272-.414-1.764a2.922 2.922 0 0 0-1.152-1.17c-.48-.276-1.026-.414-1.638-.414-.612 0-1.158.138-1.638.414-.48.276-.864.666-1.152 1.17-.288.492-.432 1.08-.432 1.764 0 .672.144 1.266.432 1.782.288.504.672.894 1.152 1.17.48.276 1.026.414 1.638.414Zm-11.25 1.404v-9.54h1.656v2.592l-.161-.648a2.924 2.924 0 0 1 1.331-1.512c.624-.348 1.392-.522 2.304-.522v1.674a1.312 1.312 0 0 0-.216-.018h-.18c-.924 0-1.655.276-2.196.828-.54.552-.81 1.35-.81 2.394v4.752h-1.728Zm-12.406.001v-12.6h4.914c1.104 0 2.046.174 2.826.522.78.348 1.38.852 1.8 1.512.42.66.63 1.446.63 2.358 0 .912-.21 1.698-.63 2.358-.42.648-1.02 1.152-1.8 1.512-.78.348-1.722.522-2.826.522h-3.924l.81-.846v4.662h-1.8Zm1.8-4.482-.81-.9h3.87c1.152 0 2.022-.246 2.61-.738.6-.492.9-1.188.9-2.088 0-.9-.3-1.596-.9-2.088-.588-.492-1.458-.738-2.61-.738h-3.87l.81-.9v7.452Zm548.002-18.027h-1.638a15.113 15.113 0 0 0 1.602-3.978 18.9 18.9 0 0 0 .504-4.446c0-1.572-.168-3.048-.504-4.428a15.064 15.064 0 0 0-1.602-3.996h1.638c.708 1.068 1.242 2.328 1.603 3.78.371 1.44.557 2.988.557 4.644 0 1.656-.186 3.204-.557 4.644-.361 1.428-.895 2.688-1.603 3.78Zm-5.895-3.49v-11.881l.774.847h-3.618v-1.567h4.626v12.601h-1.782Zm-5.184.104c-.96 0-1.705-.258-2.233-.774s-.791-1.254-.791-2.214v-8.748h1.728v8.676c0 .516.126.912.378 1.188.263.276.636.414 1.116.414.539 0 .99-.15 1.349-.45l.54 1.242a2.499 2.499 0 0 1-.954.504 3.919 3.919 0 0 1-1.133.162Zm-4.645-8.226v-1.422h6.085v1.422h-6.085Zm-4.917 8.228a7.85 7.85 0 0 1-2.268-.324c-.708-.216-1.266-.48-1.674-.792l.72-1.368c.408.276.912.51 1.512.702a5.99 5.99 0 0 0 1.836.288c.804 0 1.38-.114 1.728-.342.36-.228.54-.546.54-.954 0-.3-.108-.534-.324-.702-.216-.168-.504-.294-.864-.378a12.123 12.123 0 0 0-1.17-.216 24.668 24.668 0 0 1-1.296-.252 5.786 5.786 0 0 1-1.188-.432 2.343 2.343 0 0 1-.864-.774c-.216-.336-.324-.78-.324-1.332 0-.576.162-1.08.486-1.512.324-.432.78-.762 1.368-.99.6-.24 1.308-.36 2.124-.36.624 0 1.254.078 1.89.234.648.144 1.176.354 1.584.63l-.738 1.368a4.077 4.077 0 0 0-1.35-.594 6.226 6.226 0 0 0-1.404-.162c-.756 0-1.32.126-1.692.378-.372.24-.558.552-.558.936 0 .324.108.576.324.756.228.168.516.3.864.396.36.096.756.18 1.188.252.432.06.864.144 1.296.252.432.096.822.234 1.17.414.36.18.648.432.864.756.228.324.342.756.342 1.296 0 .576-.168 1.074-.504 1.494-.336.42-.81.75-1.422.99-.612.228-1.344.342-2.196.342Zm-7.761-.108v-9.54h1.729v9.54h-1.729Zm.865-11.376c-.336 0-.618-.108-.846-.324a1.078 1.078 0 0 1-.325-.792 1.1 1.1 0 0 1 .325-.81c.228-.216.51-.324.846-.324.336 0 .612.108.828.324a.993.993 0 0 1 .341.774c0 .324-.107.6-.323.828-.216.216-.498.324-.846.324Zm-5.89 11.376V301.27h1.728v13.356h-1.728Zm-10.64 1.115v-1.116h9v1.116h-9Zm-7.771 2.485c-.456 0-.9-.078-1.332-.234a3.038 3.038 0 0 1-1.116-.648l.738-1.296c.24.228.504.402.792.522.288.12.594.18.918.18.42 0 .768-.108 1.044-.324.276-.216.534-.6.774-1.152l.594-1.314.18-.216 3.744-8.658h1.692l-4.626 10.494c-.276.672-.588 1.2-.936 1.584-.336.384-.708.654-1.116.81a3.513 3.513 0 0 1-1.35.252Zm2.268-3.294-4.356-9.846h1.8l3.708 8.496-1.152 1.35Zm-9.594-9.936c.768 0 1.446.15 2.033.45.588.3 1.045.756 1.369 1.368.336.612.503 1.386.503 2.322v5.49h-1.728v-5.292c0-.924-.215-1.62-.647-2.088-.432-.468-1.038-.702-1.818-.702-.576 0-1.081.12-1.513.36-.432.24-.768.594-1.008 1.062-.227.468-.342 1.05-.342 1.746v4.914h-1.728v-5.292c0-.924-.215-1.62-.647-2.088-.42-.468-1.027-.702-1.818-.702-.564 0-1.062.12-1.494.36-.432.24-.768.594-1.008 1.062-.24.468-.361 1.05-.361 1.746v4.914h-1.728v-9.54h1.657v2.538l-.27-.648a3.248 3.248 0 0 1 1.386-1.458c.624-.348 1.35-.522 2.177-.522.912 0 1.699.228 2.358.684.66.444 1.092 1.122 1.296 2.034l-.701-.288c.288-.732.791-1.32 1.511-1.764.72-.444 1.561-.666 2.521-.666Zm-15.793 13.122c-.684-1.092-1.212-2.352-1.584-3.78-.372-1.44-.558-2.988-.558-4.644 0-1.656.186-3.204.558-4.644.372-1.452.9-2.712 1.584-3.78h1.638a15.426 15.426 0 0 0-1.584 3.996c-.336 1.38-.504 2.856-.504 4.428a18.9 18.9 0 0 0 .504 4.446c.336 1.38.864 2.706 1.584 3.978h-1.638Zm-9.368-13.122c.78 0 1.464.15 2.052.45.6.3 1.068.756 1.404 1.368.336.612.504 1.386.504 2.322v5.49h-1.728v-5.292c0-.924-.228-1.62-.684-2.088-.444-.468-1.074-.702-1.89-.702-.612 0-1.146.12-1.602.36-.456.24-.81.594-1.062 1.062-.24.468-.36 1.05-.36 1.746v4.914h-1.728v-9.54h1.656v2.574l-.27-.684a3.313 3.313 0 0 1 1.44-1.458c.648-.348 1.404-.522 2.268-.522Zm-10.125 9.63v-9.54h1.728v9.54h-1.728Zm.865-11.376c-.336 0-.618-.108-.846-.324a1.077 1.077 0 0 1-.324-.792c0-.324.108-.594.324-.81.228-.216.51-.324.846-.324.336 0 .611.108.827.324a.994.994 0 0 1 .342.774c0 .324-.108.6-.324.828-.216.216-.497.324-.845.324Zm-8.203 11.484c-.96 0-1.812-.21-2.556-.63a4.69 4.69 0 0 1-1.764-1.728c-.432-.744-.647-1.584-.647-2.52 0-.948.215-1.788.647-2.52a4.557 4.557 0 0 1 1.764-1.71c.744-.42 1.596-.63 2.556-.63.948 0 1.794.21 2.538.63a4.4 4.4 0 0 1 1.764 1.71c.432.72.648 1.56.648 2.52 0 .948-.216 1.788-.648 2.52a4.524 4.524 0 0 1-1.764 1.728c-.744.42-1.59.63-2.538.63Zm0-1.512c.612 0 1.158-.138 1.638-.414a2.922 2.922 0 0 0 1.152-1.17c.276-.516.414-1.11.414-1.782 0-.684-.138-1.272-.414-1.764a2.922 2.922 0 0 0-1.152-1.17c-.48-.276-1.026-.414-1.638-.414-.612 0-1.158.138-1.638.414-.48.276-.864.666-1.152 1.17-.288.492-.431 1.08-.431 1.764 0 .672.143 1.266.431 1.782.288.504.672.894 1.152 1.17.48.276 1.026.414 1.638.414ZM732 318.226c-.396 0-.774-.048-1.135-.144a2.6 2.6 0 0 1-.935-.432l.558-1.332c.36.3.828.45 1.404.45.456 0 .804-.144 1.044-.432.252-.276.377-.69.377-1.242v-10.008h1.728v9.972c0 .972-.263 1.74-.791 2.304-.516.576-1.266.864-2.25.864Zm2.177-14.976a1.18 1.18 0 0 1-.845-.324 1.077 1.077 0 0 1-.324-.792c0-.324.108-.594.324-.81a1.18 1.18 0 0 1 .845-.324c.336 0 .613.108.829.324a.997.997 0 0 1 .342.774c0 .324-.108.6-.324.828-.216.216-.498.324-.847.324Zm-4.797 11.485c-.336 0-.624-.113-.864-.342a1.22 1.22 0 0 1-.36-.9c0-.359.12-.654.36-.882a1.21 1.21 0 0 1 .864-.341c.324 0 .6.113.829.341.24.228.359.523.359.882 0 .361-.119.66-.359.9a1.128 1.128 0 0 1-.829.342Zm-6.85-7.848-.108-4.86h1.512l-.126 4.86h-1.278Zm3.258 0-.108-4.86h1.512l-.126 4.86h-1.278Zm-12.464 10.404.9-3.636.234 1.044c-.348 0-.642-.108-.882-.323-.228-.217-.342-.511-.342-.883 0-.359.114-.654.342-.882a1.21 1.21 0 0 1 .864-.341c.348 0 .63.119.846.359.216.228.324.516.324.864 0 .121-.012.24-.036.361a2.22 2.22 0 0 1-.09.395 4.628 4.628 0 0 1-.18.54l-.846 2.502h-1.134Zm-5.763-10.404-.108-4.86h1.511l-.126 4.86h-1.277Zm3.257 0-.108-4.86h1.512l-.125 4.86h-1.279Zm-12.447 10.404.9-3.636.234 1.044c-.348 0-.642-.108-.882-.323-.228-.217-.342-.511-.342-.883 0-.359.114-.654.342-.882a1.21 1.21 0 0 1 .864-.341c.348 0 .63.119.846.359.216.228.324.516.324.864 0 .121-.012.24-.036.361a2.22 2.22 0 0 1-.09.395 4.628 4.628 0 0 1-.18.54l-.846 2.502h-1.134Zm-11.584-10.404-.107-4.86h1.511l-.125 4.86h-1.279Zm3.258 0-.107-4.86h1.511l-.125 4.86h-1.279Z" fill="#1C1C20"/><path d="M680.817 314.734c-1.02 0-1.92-.21-2.7-.63a4.62 4.62 0 0 1-1.8-1.728c-.42-.732-.629-1.572-.629-2.52s.203-1.788.611-2.52a4.5 4.5 0 0 1 1.71-1.71c.732-.42 1.554-.63 2.466-.63.924 0 1.74.204 2.448.612.708.408 1.26.984 1.656 1.728.408.732.612 1.59.612 2.574 0 .072-.006.156-.018.252 0 .096-.006.186-.018.27h-8.118v-1.242h7.218l-.702.432c.012-.612-.114-1.158-.378-1.638a2.807 2.807 0 0 0-1.098-1.116c-.456-.276-.99-.414-1.602-.414-.6 0-1.134.138-1.602.414a2.785 2.785 0 0 0-1.098 1.134c-.263.48-.396 1.032-.396 1.656v.288c0 .636.144 1.206.432 1.71.3.492.714.876 1.242 1.152.528.276 1.134.414 1.819.414.563 0 1.073-.096 1.529-.288.468-.192.876-.48 1.224-.864l.954 1.116a4.158 4.158 0 0 1-1.62 1.152c-.636.264-1.35.396-2.142.396Zm-11.426-.108v-9.54h1.656v2.592l-.162-.648a2.93 2.93 0 0 1 1.332-1.512c.624-.348 1.392-.522 2.304-.522v1.674a1.312 1.312 0 0 0-.216-.018h-.18c-.924 0-1.656.276-2.196.828-.54.552-.81 1.35-.81 2.394v4.752h-1.728Zm-4.833 0v-2.016l-.09-.378v-3.438c0-.732-.216-1.296-.648-1.692-.42-.408-1.056-.612-1.908-.612-.564 0-1.116.096-1.655.288-.541.18-.997.426-1.369.738l-.72-1.296a5.114 5.114 0 0 1 1.764-.9 7.306 7.306 0 0 1 2.178-.324c1.308 0 2.316.318 3.024.954.708.636 1.062 1.608 1.062 2.916v5.76h-1.638Zm-3.132.108c-.708 0-1.332-.12-1.872-.36-.528-.24-.936-.57-1.224-.99a2.57 2.57 0 0 1-.432-1.458c0-.516.12-.984.36-1.404.252-.42.654-.756 1.206-1.008.564-.252 1.32-.378 2.268-.378h3.024v1.242h-2.952c-.864 0-1.445.144-1.746.432-.3.288-.45.636-.45 1.044 0 .468.186.846.559 1.134.371.276.887.414 1.547.414.648 0 1.212-.144 1.692-.432a2.446 2.446 0 0 0 1.062-1.26l.342 1.188c-.228.564-.63 1.014-1.206 1.35-.576.324-1.302.486-2.178.486Zm-13.906 0a7.85 7.85 0 0 1-2.268-.324c-.708-.216-1.265-.48-1.674-.792l.721-1.368c.408.276.911.51 1.511.702a5.99 5.99 0 0 0 1.836.288c.804 0 1.38-.114 1.728-.342.36-.228.54-.546.54-.954 0-.3-.108-.534-.324-.702-.216-.168-.504-.294-.864-.378a12.123 12.123 0 0 0-1.17-.216 24.632 24.632 0 0 1-1.295-.252 5.796 5.796 0 0 1-1.189-.432 2.34 2.34 0 0 1-.863-.774c-.216-.336-.325-.78-.325-1.332 0-.576.162-1.08.486-1.512.324-.432.781-.762 1.369-.99.6-.24 1.307-.36 2.123-.36.624 0 1.254.078 1.89.234.648.144 1.176.354 1.584.63l-.738 1.368a4.077 4.077 0 0 0-1.35-.594 6.226 6.226 0 0 0-1.404-.162c-.756 0-1.319.126-1.691.378-.372.24-.559.552-.559.936 0 .324.108.576.324.756.228.168.516.3.864.396.36.096.756.18 1.188.252.432.06.864.144 1.296.252.432.096.823.234 1.171.414.36.18.647.432.863.756.228.324.342.756.342 1.296 0 .576-.168 1.074-.504 1.494-.336.42-.809.75-1.421.99-.612.228-1.345.342-2.197.342Zm-9.507 0c-1.02 0-1.92-.21-2.7-.63a4.62 4.62 0 0 1-1.8-1.728c-.42-.732-.63-1.572-.63-2.52s.204-1.788.612-2.52a4.5 4.5 0 0 1 1.71-1.71c.732-.42 1.554-.63 2.466-.63.924 0 1.74.204 2.448.612.708.408 1.26.984 1.656 1.728.408.732.612 1.59.612 2.574 0 .072-.006.156-.018.252 0 .096-.006.186-.018.27h-8.118v-1.242h7.218l-.702.432c.012-.612-.114-1.158-.378-1.638a2.807 2.807 0 0 0-1.098-1.116c-.456-.276-.99-.414-1.602-.414-.6 0-1.134.138-1.602.414a2.779 2.779 0 0 0-1.098 1.134c-.264.48-.396 1.032-.396 1.656v.288c0 .636.144 1.206.432 1.71.3.492.714.876 1.242 1.152.528.276 1.134.414 1.818.414.564 0 1.074-.096 1.53-.288.468-.192.876-.48 1.224-.864l.954 1.116a4.166 4.166 0 0 1-1.62 1.152c-.636.264-1.35.396-2.142.396Zm-12.503 3.492a8.73 8.73 0 0 1-2.556-.378c-.816-.24-1.482-.588-1.998-1.044l.829-1.332c.444.384.99.684 1.638.9a6.077 6.077 0 0 0 2.033.342c1.128 0 1.956-.264 2.484-.792s.792-1.332.792-2.412v-2.016l.18-1.89-.09-1.908v-2.61h1.638v8.244c0 1.68-.42 2.916-1.26 3.708-.84.792-2.07 1.188-3.69 1.188Zm-.216-3.996c-.924 0-1.751-.192-2.483-.576a4.625 4.625 0 0 1-1.729-1.638c-.42-.696-.629-1.5-.629-2.412 0-.924.209-1.728.629-2.412a4.487 4.487 0 0 1 1.729-1.62c.732-.384 1.559-.576 2.483-.576.816 0 1.56.168 2.232.504.672.324 1.206.828 1.602 1.512.408.684.612 1.548.612 2.592 0 1.032-.204 1.89-.612 2.574-.396.684-.93 1.2-1.602 1.548-.672.336-1.416.504-2.232.504Zm.198-1.512c.636 0 1.2-.132 1.692-.396s.877-.63 1.153-1.098c.288-.468.431-1.008.431-1.62 0-.612-.143-1.152-.431-1.62a2.782 2.782 0 0 0-1.153-1.08c-.492-.264-1.056-.396-1.692-.396-.636 0-1.206.132-1.71.396a2.9 2.9 0 0 0-1.17 1.08c-.276.468-.413 1.008-.413 1.62 0 .612.137 1.152.413 1.62a3.03 3.03 0 0 0 1.17 1.098c.504.264 1.074.396 1.71.396Zm-8.988 1.908v-2.016l-.09-.378v-3.438c0-.732-.216-1.296-.648-1.692-.42-.408-1.056-.612-1.908-.612-.564 0-1.116.096-1.656.288a4.14 4.14 0 0 0-1.368.738l-.72-1.296a5.105 5.105 0 0 1 1.764-.9 7.306 7.306 0 0 1 2.178-.324c1.308 0 2.316.318 3.024.954.708.636 1.062 1.608 1.062 2.916v5.76h-1.638Zm-3.132.108c-.708 0-1.332-.12-1.872-.36-.528-.24-.936-.57-1.224-.99a2.57 2.57 0 0 1-.432-1.458c0-.516.12-.984.36-1.404.252-.42.654-.756 1.206-1.008.564-.252 1.32-.378 2.268-.378h3.024v1.242h-2.952c-.864 0-1.446.144-1.746.432-.3.288-.45.636-.45 1.044 0 .468.186.846.558 1.134.372.276.888.414 1.548.414.648 0 1.212-.144 1.692-.432a2.446 2.446 0 0 0 1.062-1.26l.342 1.188c-.228.564-.63 1.014-1.206 1.35-.576.324-1.302.486-2.178.486Zm-10.956 0c-.816 0-1.536-.15-2.16-.45a3.3 3.3 0 0 1-1.44-1.368c-.336-.624-.504-1.404-.504-2.34v-5.49h1.728v5.292c0 .936.222 1.638.666 2.106.456.468 1.092.702 1.908.702.601 0 1.122-.12 1.566-.36a2.549 2.549 0 0 0 1.026-1.08c.24-.48.361-1.056.361-1.728v-4.932h1.728v9.54h-1.638v-2.574l.269.684a3.332 3.332 0 0 1-1.404 1.476c-.624.348-1.326.522-2.106.522Zm-12.264 3.492a8.73 8.73 0 0 1-2.556-.378c-.816-.24-1.482-.588-1.998-1.044l.828-1.332c.444.384.99.684 1.638.9a6.083 6.083 0 0 0 2.034.342c1.128 0 1.956-.264 2.484-.792s.792-1.332.792-2.412v-2.016l.18-1.89-.09-1.908v-2.61h1.638v8.244c0 1.68-.42 2.916-1.26 3.708-.84.792-2.07 1.188-3.69 1.188Zm-.216-3.996c-.924 0-1.752-.192-2.484-.576a4.622 4.622 0 0 1-1.728-1.638c-.42-.696-.63-1.5-.63-2.412 0-.924.21-1.728.63-2.412a4.484 4.484 0 0 1 1.728-1.62c.732-.384 1.56-.576 2.484-.576.816 0 1.56.168 2.232.504.672.324 1.206.828 1.602 1.512.408.684.612 1.548.612 2.592 0 1.032-.204 1.89-.612 2.574-.396.684-.93 1.2-1.602 1.548-.672.336-1.416.504-2.232.504Zm.198-1.512c.636 0 1.2-.132 1.692-.396a2.9 2.9 0 0 0 1.152-1.098c.288-.468.432-1.008.432-1.62 0-.612-.144-1.152-.432-1.62a2.78 2.78 0 0 0-1.152-1.08c-.492-.264-1.056-.396-1.692-.396-.636 0-1.206.132-1.71.396a2.9 2.9 0 0 0-1.17 1.08c-.276.468-.414 1.008-.414 1.62 0 .612.138 1.152.414 1.62a3.03 3.03 0 0 0 1.17 1.098c.504.264 1.074.396 1.71.396Zm-11.322-7.722c.78 0 1.465.15 2.053.45a3.22 3.22 0 0 1 1.403 1.368c.336.612.505 1.386.505 2.322v5.49h-1.728v-5.292c0-.924-.228-1.62-.685-2.088-.444-.468-1.073-.702-1.889-.702-.613 0-1.147.12-1.602.36-.457.24-.81.594-1.062 1.062-.24.468-.36 1.05-.36 1.746v4.914h-1.728v-9.54h1.656v2.574l-.27-.684a3.308 3.308 0 0 1 1.44-1.458c.647-.348 1.403-.522 2.267-.522Zm-9.933 9.63v-2.016l-.09-.378v-3.438c0-.732-.216-1.296-.648-1.692-.42-.408-1.056-.612-1.908-.612-.564 0-1.116.096-1.656.288a4.14 4.14 0 0 0-1.368.738l-.72-1.296a5.105 5.105 0 0 1 1.764-.9 7.306 7.306 0 0 1 2.178-.324c1.308 0 2.316.318 3.024.954.708.636 1.062 1.608 1.062 2.916v5.76h-1.638Zm-3.132.108c-.708 0-1.332-.12-1.872-.36-.528-.24-.936-.57-1.224-.99a2.57 2.57 0 0 1-.432-1.458c0-.516.12-.984.36-1.404.252-.42.654-.756 1.206-1.008.564-.252 1.32-.378 2.268-.378h3.024v1.242h-2.952c-.864 0-1.446.144-1.746.432-.3.288-.45.636-.45 1.044 0 .468.186.846.558 1.134.372.276.888.414 1.548.414.648 0 1.212-.144 1.692-.432a2.446 2.446 0 0 0 1.062-1.26l.342 1.188c-.228.564-.63 1.014-1.206 1.35-.576.324-1.302.486-2.178.486Zm-13.224-.106v-12.601h1.801v11.034h6.822v1.567h-8.623Zm-13.34 3.598a8.73 8.73 0 0 1-2.556-.378c-.816-.24-1.482-.588-1.998-1.044l.828-1.332c.444.384.99.684 1.638.9a6.083 6.083 0 0 0 2.034.342c1.128 0 1.956-.264 2.484-.792s.792-1.332.792-2.412v-2.016l.18-1.89-.09-1.908v-2.61h1.638v8.244c0 1.68-.42 2.916-1.26 3.708-.84.792-2.07 1.188-3.69 1.188Zm-.216-3.996c-.924 0-1.752-.192-2.484-.576a4.622 4.622 0 0 1-1.728-1.638c-.42-.696-.63-1.5-.63-2.412 0-.924.21-1.728.63-2.412a4.484 4.484 0 0 1 1.728-1.62c.732-.384 1.56-.576 2.484-.576.816 0 1.56.168 2.232.504.672.324 1.206.828 1.602 1.512.408.684.612 1.548.612 2.592 0 1.032-.204 1.89-.612 2.574-.396.684-.93 1.2-1.602 1.548-.672.336-1.416.504-2.232.504Zm.198-1.512c.636 0 1.2-.132 1.692-.396a2.9 2.9 0 0 0 1.152-1.098c.288-.468.432-1.008.432-1.62 0-.612-.144-1.152-.432-1.62a2.78 2.78 0 0 0-1.152-1.08c-.492-.264-1.056-.396-1.692-.396-.636 0-1.206.132-1.71.396a2.9 2.9 0 0 0-1.17 1.08c-.276.468-.414 1.008-.414 1.62 0 .612.138 1.152.414 1.62a3.03 3.03 0 0 0 1.17 1.098c.504.264 1.074.396 1.71.396Zm-11.313-7.722c.78 0 1.464.15 2.052.45.6.3 1.068.756 1.404 1.368.336.612.504 1.386.504 2.322v5.49h-1.728v-5.292c0-.924-.228-1.62-.684-2.088-.444-.468-1.074-.702-1.89-.702-.612 0-1.146.12-1.602.36-.456.24-.81.594-1.062 1.062-.24.468-.36 1.05-.36 1.746v4.914h-1.728v-9.54h1.656v2.574l-.27-.684a3.313 3.313 0 0 1 1.44-1.458c.648-.348 1.404-.522 2.268-.522Zm-10.124 9.63v-9.54h1.728v9.54h-1.728Zm.864-11.376c-.336 0-.618-.108-.846-.324a1.077 1.077 0 0 1-.324-.792c0-.324.108-.594.324-.81.228-.216.51-.324.846-.324.336 0 .612.108.828.324a.994.994 0 0 1 .342.774c0 .324-.108.6-.324.828-.216.216-.498.324-.846.324Zm-7.947 1.746c.768 0 1.446.15 2.034.45.588.3 1.044.756 1.368 1.368.336.612.504 1.386.504 2.322v5.49h-1.728v-5.292c0-.924-.216-1.62-.648-2.088-.432-.468-1.038-.702-1.818-.702-.576 0-1.08.12-1.512.36-.432.24-.768.594-1.008 1.062-.228.468-.342 1.05-.342 1.746v4.914h-1.728v-5.292c0-.924-.216-1.62-.648-2.088-.42-.468-1.026-.702-1.818-.702-.564 0-1.062.12-1.494.36-.432.24-.768.594-1.008 1.062-.24.468-.36 1.05-.36 1.746v4.914h-1.728v-9.54h1.656v2.538l-.27-.648c.3-.624.762-1.11 1.386-1.458.624-.348 1.35-.522 2.178-.522.912 0 1.698.228 2.358.684.66.444 1.092 1.122 1.296 2.034l-.702-.288c.288-.732.792-1.32 1.512-1.764.72-.444 1.56-.666 2.52-.666Zm-19.024 0c.768 0 1.446.15 2.035.45.588.3 1.043.756 1.367 1.368.336.612.505 1.386.505 2.322v5.49h-1.729v-5.292c0-.924-.216-1.62-.648-2.088-.432-.468-1.038-.702-1.818-.702-.576 0-1.079.12-1.511.36-.432.24-.768.594-1.008 1.062-.229.468-.342 1.05-.342 1.746v4.914h-1.728v-5.292c0-.924-.217-1.62-.649-2.088-.42-.468-1.025-.702-1.818-.702-.564 0-1.062.12-1.494.36-.432.24-.768.594-1.008 1.062-.24.468-.359 1.05-.359 1.746v4.914h-1.728v-9.54h1.655v2.538l-.27-.648a3.259 3.259 0 0 1 1.386-1.458c.624-.348 1.35-.522 2.179-.522.912 0 1.697.228 2.358.684.66.444 1.092 1.122 1.296 2.034l-.703-.288c.288-.732.793-1.32 1.513-1.764.72-.444 1.559-.666 2.519-.666Zm-16.765 9.63v-2.016l-.091-.378v-3.438c0-.732-.216-1.296-.648-1.692-.419-.408-1.056-.612-1.907-.612a4.91 4.91 0 0 0-1.657.288c-.54.18-.996.426-1.367.738l-.72-1.296c.491-.396 1.079-.696 1.763-.9a7.307 7.307 0 0 1 2.179-.324c1.307 0 2.315.318 3.024.954.708.636 1.061 1.608 1.061 2.916v5.76h-1.637Zm-3.132.108c-.708 0-1.332-.12-1.872-.36-.528-.24-.937-.57-1.225-.99a2.57 2.57 0 0 1-.432-1.458c0-.516.121-.984.361-1.404.252-.42.653-.756 1.206-1.008.563-.252 1.319-.378 2.267-.378h3.024v1.242h-2.952c-.864 0-1.446.144-1.746.432a1.397 1.397 0 0 0-.449 1.044c0 .468.185.846.557 1.134.372.276.889.414 1.549.414.647 0 1.212-.144 1.692-.432a2.449 2.449 0 0 0 1.061-1.26l.342 1.188c-.228.564-.63 1.014-1.206 1.35-.576.324-1.301.486-2.177.486Zm-9.349-.108v-9.54h1.656v2.592l-.162-.648a2.93 2.93 0 0 1 1.332-1.512c.624-.348 1.392-.522 2.304-.522v1.674a1.312 1.312 0 0 0-.216-.018h-.18c-.924 0-1.656.276-2.196.828-.54.552-.81 1.35-.81 2.394v4.752h-1.728Zm-8.255 3.6a8.723 8.723 0 0 1-2.555-.378c-.816-.24-1.482-.588-1.999-1.044l.828-1.332c.445.384.99.684 1.638.9a6.085 6.085 0 0 0 2.035.342c1.127 0 1.956-.264 2.484-.792s.791-1.332.791-2.412v-2.016l.181-1.89-.091-1.908v-2.61h1.638v8.244c0 1.68-.42 2.916-1.259 3.708-.841.792-2.07 1.188-3.691 1.188Zm-.216-3.996c-.924 0-1.752-.192-2.483-.576a4.622 4.622 0 0 1-1.728-1.638c-.421-.696-.631-1.5-.631-2.412 0-.924.21-1.728.631-2.412a4.484 4.484 0 0 1 1.728-1.62c.731-.384 1.559-.576 2.483-.576.816 0 1.56.168 2.232.504.672.324 1.206.828 1.602 1.512.409.684.612 1.548.612 2.592 0 1.032-.203 1.89-.612 2.574-.396.684-.93 1.2-1.602 1.548-.672.336-1.416.504-2.232.504Zm.198-1.512c.637 0 1.201-.132 1.693-.396.491-.264.875-.63 1.152-1.098.288-.468.432-1.008.432-1.62 0-.612-.144-1.152-.432-1.62a2.792 2.792 0 0 0-1.152-1.08c-.492-.264-1.056-.396-1.693-.396-.636 0-1.206.132-1.71.396a2.904 2.904 0 0 0-1.169 1.08c-.276.468-.415 1.008-.415 1.62 0 .612.139 1.152.415 1.62.288.468.678.834 1.169 1.098.504.264 1.074.396 1.71.396Zm-11.493 2.016c-.96 0-1.812-.21-2.556-.63a4.69 4.69 0 0 1-1.764-1.728c-.432-.744-.648-1.584-.648-2.52 0-.948.216-1.788.648-2.52a4.557 4.557 0 0 1 1.764-1.71c.744-.42 1.596-.63 2.556-.63.948 0 1.794.21 2.538.63a4.4 4.4 0 0 1 1.764 1.71c.432.72.648 1.56.648 2.52 0 .948-.216 1.788-.648 2.52a4.524 4.524 0 0 1-1.764 1.728c-.744.42-1.59.63-2.538.63Zm0-1.512c.612 0 1.158-.138 1.638-.414a2.922 2.922 0 0 0 1.152-1.17c.276-.516.414-1.11.414-1.782 0-.684-.138-1.272-.414-1.764a2.922 2.922 0 0 0-1.152-1.17c-.48-.276-1.026-.414-1.638-.414-.612 0-1.158.138-1.638.414-.48.276-.864.666-1.152 1.17-.288.492-.432 1.08-.432 1.764 0 .672.144 1.266.432 1.782.288.504.672.894 1.152 1.17.48.276 1.026.414 1.638.414Zm-11.265 1.404v-9.54H433v2.592l-.162-.648a2.93 2.93 0 0 1 1.332-1.512c.624-.348 1.392-.522 2.304-.522v1.674a1.312 1.312 0 0 0-.216-.018h-.18c-.924 0-1.656.276-2.196.828-.54.552-.81 1.35-.81 2.394v4.752h-1.728Zm-12.399.002v-12.601h4.914c1.104 0 2.046.175 2.826.522.78.348 1.38.853 1.8 1.512.42.66.63 1.447.63 2.359 0 .912-.21 1.697-.63 2.358-.42.647-1.02 1.152-1.8 1.511-.78.348-1.722.522-2.826.522h-3.924l.81-.846v4.663h-1.8Zm1.8-4.483-.81-.9h3.87c1.152 0 2.022-.246 2.61-.738.6-.491.9-1.188.9-2.087 0-.9-.3-1.597-.9-2.089-.588-.491-1.458-.737-2.61-.737h-3.87l.81-.901v7.452Zm-13.662 4.589c-1.02 0-1.92-.21-2.7-.63a4.62 4.62 0 0 1-1.8-1.728c-.42-.732-.63-1.572-.63-2.52s.204-1.788.612-2.52a4.5 4.5 0 0 1 1.71-1.71c.732-.42 1.554-.63 2.466-.63.924 0 1.74.204 2.448.612.708.408 1.26.984 1.655 1.728.409.732.613 1.59.613 2.574 0 .072-.006.156-.018.252 0 .096-.006.186-.019.27h-8.117v-1.242h7.218l-.702.432c.011-.612-.114-1.158-.378-1.638a2.807 2.807 0 0 0-1.098-1.116c-.456-.276-.99-.414-1.602-.414-.6 0-1.134.138-1.602.414a2.779 2.779 0 0 0-1.098 1.134c-.264.48-.396 1.032-.396 1.656v.288c0 .636.144 1.206.432 1.71.3.492.714.876 1.242 1.152.528.276 1.134.414 1.818.414.564 0 1.074-.096 1.53-.288.468-.192.876-.48 1.224-.864l.953 1.116a4.162 4.162 0 0 1-1.619 1.152c-.636.264-1.35.396-2.142.396Zm-8.111-.002c-.96 0-1.704-.258-2.232-.774-.528-.516-.792-1.254-.792-2.214v-8.748h1.728v8.676c0 .516.126.912.378 1.188.264.276.636.414 1.116.414.54 0 .99-.15 1.35-.45l.54 1.242a2.506 2.506 0 0 1-.954.504c-.36.108-.738.162-1.134.162Zm-4.644-8.226v-1.422h6.084v1.422h-6.084Zm-3.655 8.12v-9.54h1.728v9.54h-1.728Zm.864-11.376c-.336 0-.618-.108-.846-.324a1.077 1.077 0 0 1-.324-.792c0-.324.108-.594.324-.81.228-.216.51-.324.846-.324.336 0 .612.108.828.324a.994.994 0 0 1 .342.774c0 .324-.108.6-.324.828-.216.216-.498.324-.846.324Zm-8.123 11.376v-9.54h1.656v2.592l-.162-.648a2.93 2.93 0 0 1 1.332-1.512c.624-.348 1.392-.522 2.304-.522v1.674a1.312 1.312 0 0 0-.216-.018h-.18c-.924 0-1.656.276-2.196.828-.54.552-.81 1.35-.81 2.394v4.752h-1.728Zm-8.17.108c-.816 0-1.536-.15-2.16-.45a3.31 3.31 0 0 1-1.44-1.368c-.336-.624-.503-1.404-.503-2.34v-5.49h1.728v5.292c0 .936.221 1.638.666 2.106.455.468 1.091.702 1.907.702.6 0 1.123-.12 1.566-.36a2.549 2.549 0 0 0 1.026-1.08c.24-.48.36-1.056.36-1.728v-4.932h1.728v9.54h-1.637v-2.574l.269.684a3.338 3.338 0 0 1-1.404 1.476c-.624.348-1.325.522-2.106.522Zm-11.354 0c-.96 0-1.812-.21-2.556-.63a4.69 4.69 0 0 1-1.764-1.728c-.432-.744-.648-1.584-.648-2.52 0-.948.216-1.788.648-2.52a4.557 4.557 0 0 1 1.764-1.71c.744-.42 1.596-.63 2.556-.63.948 0 1.794.21 2.538.63a4.4 4.4 0 0 1 1.764 1.71c.432.72.648 1.56.648 2.52 0 .948-.216 1.788-.648 2.52a4.524 4.524 0 0 1-1.764 1.728c-.744.42-1.59.63-2.538.63Zm0-1.512c.612 0 1.158-.138 1.638-.414a2.922 2.922 0 0 0 1.152-1.17c.276-.516.414-1.11.414-1.782 0-.684-.138-1.272-.414-1.764a2.922 2.922 0 0 0-1.152-1.17c-.48-.276-1.026-.414-1.638-.414-.612 0-1.158.138-1.638.414-.48.276-.864.666-1.152 1.17-.288.492-.432 1.08-.432 1.764 0 .672.144 1.266.432 1.782.288.504.672.894 1.152 1.17.48.276 1.026.414 1.638.414Zm-11.37 1.404-4.176-9.54h1.8l3.708 8.64h-.864l3.78-8.64h1.692l-4.176 9.54h-1.764Zm-7.164 0v-2.016l-.09-.378v-3.438c0-.732-.217-1.296-.649-1.692-.419-.408-1.056-.612-1.907-.612-.564 0-1.117.096-1.657.288-.539.18-.996.426-1.367.738l-.72-1.296a5.1 5.1 0 0 1 1.763-.9 7.312 7.312 0 0 1 2.179-.324c1.307 0 2.315.318 3.024.954.708.636 1.062 1.608 1.062 2.916v5.76h-1.638Zm-3.132.108c-.708 0-1.332-.12-1.872-.36-.528-.24-.937-.57-1.225-.99a2.577 2.577 0 0 1-.432-1.458c0-.516.121-.984.361-1.404.252-.42.653-.756 1.206-1.008.563-.252 1.319-.378 2.268-.378h3.024v1.242h-2.953c-.864 0-1.446.144-1.746.432a1.397 1.397 0 0 0-.449 1.044c0 .468.186.846.557 1.134.372.276.889.414 1.549.414.647 0 1.212-.144 1.692-.432a2.455 2.455 0 0 0 1.062-1.26l.342 1.188c-.229.564-.63 1.014-1.206 1.35-.576.324-1.302.486-2.178.486Zm-8.713-.11v-10.386c0-.936.27-1.68.81-2.232.552-.564 1.332-.846 2.34-.846.372 0 .726.048 1.062.144.348.084.642.222.882.414l-.522 1.314a1.873 1.873 0 0 0-.612-.324 2.066 2.066 0 0 0-.72-.126c-.504 0-.888.144-1.152.432-.264.276-.396.69-.396 1.242v1.278l.036.792v8.298h-1.728Zm-1.62-8.118v-1.422h6.084v1.422h-6.084Zm-13.099 11.72c-.456 0-.9-.078-1.332-.234a3.038 3.038 0 0 1-1.116-.648l.738-1.296c.24.228.504.402.792.522.288.12.594.18.918.18.42 0 .768-.108 1.044-.324.276-.216.534-.6.774-1.152l.594-1.314.18-.216 3.744-8.658h1.692l-4.626 10.494c-.276.672-.588 1.2-.936 1.584-.336.384-.708.654-1.116.81a3.513 3.513 0 0 1-1.35.252Zm2.268-3.294-4.356-9.846h1.8l3.708 8.496-1.152 1.35Zm-19.622-.304v-12.601h1.476l5.652 9.522h-.792l5.58-9.522h1.476l.018 12.601h-1.728l-.018-9.882h.414l-4.968 8.352h-.828l-5.004-8.352h.45v9.882h-1.728Z" fill="#166FF5"/><path d="m293.756 306.887-.108-4.86h1.512l-.126 4.86h-1.278Zm3.258 0-.108-4.86h1.512l-.126 4.86h-1.278Zm94.588-18.26v-11.88l.774.846h-3.618v-1.566h4.626v12.6h-1.782Zm-12.956.107c-1.02 0-1.92-.21-2.7-.63a4.62 4.62 0 0 1-1.8-1.728c-.42-.732-.63-1.572-.63-2.52s.204-1.788.612-2.52a4.5 4.5 0 0 1 1.71-1.71c.732-.42 1.554-.63 2.466-.63.924 0 1.74.204 2.448.612.708.408 1.26.984 1.656 1.728.408.732.612 1.59.612 2.574 0 .072-.006.156-.018.252 0 .096-.006.186-.018.27h-8.118v-1.242h7.218l-.702.432c.012-.612-.114-1.158-.378-1.638a2.807 2.807 0 0 0-1.098-1.116c-.456-.276-.99-.414-1.602-.414-.6 0-1.134.138-1.602.414a2.779 2.779 0 0 0-1.098 1.134c-.264.48-.396 1.032-.396 1.656v.288c0 .636.144 1.206.432 1.71.3.492.714.876 1.242 1.152.528.276 1.134.414 1.818.414.564 0 1.074-.096 1.53-.288.468-.192.876-.48 1.224-.864l.954 1.116a4.166 4.166 0 0 1-1.62 1.152c-.636.264-1.35.396-2.142.396Zm-9.279-.109V275.27h1.728v13.355h-1.728Zm-7.215.109c-.792 0-1.518-.18-2.178-.54-.648-.372-1.17-.918-1.566-1.638-.384-.72-.576-1.62-.576-2.7s.186-1.98.558-2.7c.384-.72.9-1.26 1.548-1.62.66-.36 1.398-.54 2.214-.54.936 0 1.764.204 2.484.612a4.5 4.5 0 0 1 1.71 1.71c.42.72.63 1.566.63 2.538 0 .972-.21 1.824-.63 2.556a4.5 4.5 0 0 1-1.71 1.71c-.72.408-1.548.612-2.484.612Zm-5.058 3.384v-13.032h1.656v2.574l-.108 2.214.18 2.214v6.03h-1.728Zm4.914-4.896c.612 0 1.158-.138 1.638-.414a2.922 2.922 0 0 0 1.152-1.17c.288-.516.432-1.11.432-1.782 0-.684-.144-1.272-.432-1.764a2.922 2.922 0 0 0-1.152-1.17c-.48-.276-1.026-.414-1.638-.414-.6 0-1.146.138-1.638.414-.48.276-.864.666-1.152 1.17-.276.492-.414 1.08-.414 1.764 0 .672.138 1.266.414 1.782.288.504.672.894 1.152 1.17a3.29 3.29 0 0 0 1.638.414Zm-11.996-8.226c.768 0 1.446.15 2.034.45.588.3 1.044.756 1.368 1.368.336.612.505 1.386.505 2.322v5.49h-1.729v-5.292c0-.924-.215-1.62-.647-2.088-.432-.468-1.039-.702-1.819-.702-.576 0-1.08.12-1.512.36-.432.24-.768.594-1.008 1.062-.228.468-.341 1.05-.341 1.746v4.914h-1.729v-5.292c0-.924-.215-1.62-.647-2.088-.42-.468-1.026-.702-1.818-.702-.564 0-1.062.12-1.494.36-.432.24-.768.594-1.008 1.062-.24.468-.36 1.05-.36 1.746v4.914h-1.729v-9.54h1.656v2.538l-.269-.648c.3-.624.761-1.11 1.385-1.458.624-.348 1.351-.522 2.179-.522.912 0 1.697.228 2.357.684.66.444 1.093 1.122 1.297 2.034l-.702-.288c.288-.732.792-1.32 1.512-1.764.72-.444 1.559-.666 2.519-.666Zm-16.774 9.63v-2.016l-.09-.378v-3.438c0-.732-.216-1.296-.648-1.692-.42-.408-1.056-.612-1.908-.612-.564 0-1.116.096-1.656.288a4.14 4.14 0 0 0-1.368.738l-.72-1.296a5.105 5.105 0 0 1 1.764-.9 7.306 7.306 0 0 1 2.178-.324c1.308 0 2.316.318 3.024.954.708.636 1.062 1.608 1.062 2.916v5.76h-1.638Zm-3.132.108c-.708 0-1.332-.12-1.872-.36-.528-.24-.936-.57-1.224-.99a2.57 2.57 0 0 1-.432-1.458c0-.516.12-.984.36-1.404.252-.42.654-.756 1.206-1.008.564-.252 1.32-.378 2.268-.378h3.024v1.242h-2.952c-.864 0-1.446.144-1.746.432-.3.288-.45.636-.45 1.044 0 .468.186.846.558 1.134.372.276.888.414 1.548.414.648 0 1.212-.144 1.692-.432a2.446 2.446 0 0 0 1.062-1.26l.342 1.188c-.228.564-.63 1.014-1.206 1.35-.576.324-1.302.486-2.178.486Zm-13.926-.108 4.104-5.328-.018.882-3.906-5.094h1.926l2.988 3.924h-.738l2.988-3.924h1.89l-3.96 5.13.018-.918 4.139 5.328h-1.961l-3.15-4.176.702.108-3.096 4.068h-1.926Zm-5.128.108c-1.02 0-1.92-.21-2.7-.63a4.62 4.62 0 0 1-1.8-1.728c-.42-.732-.63-1.572-.63-2.52s.204-1.788.612-2.52a4.5 4.5 0 0 1 1.71-1.71c.732-.42 1.554-.63 2.466-.63.924 0 1.74.204 2.448.612.708.408 1.26.984 1.656 1.728.408.732.612 1.59.612 2.574 0 .072-.006.156-.018.252 0 .096-.006.186-.018.27h-8.118v-1.242h7.218l-.702.432c.012-.612-.114-1.158-.378-1.638a2.807 2.807 0 0 0-1.098-1.116c-.456-.276-.99-.414-1.602-.414-.6 0-1.134.138-1.602.414a2.779 2.779 0 0 0-1.098 1.134c-.264.48-.396 1.032-.396 1.656v.288c0 .636.144 1.206.432 1.71.3.492.714.876 1.242 1.152.528.276 1.134.414 1.818.414.564 0 1.074-.096 1.53-.288.468-.192.876-.48 1.224-.864l.954 1.116a4.166 4.166 0 0 1-1.62 1.152c-.636.264-1.35.396-2.142.396Zm-11.284-.107 1.548-12.6h1.278l-1.548 12.6h-1.278Zm-6.768-3.24v-1.314h11.106v1.314H293Zm2.088 3.24 1.566-12.6h1.278l-1.566 12.6h-1.278Zm-1.512-8.046v-1.314h11.106v1.314h-11.106Zm299.999-14.463h-3.763v-1.422h2.035v-14.005h-2.035v-1.421h3.763v16.848Zm-10.045-11.231-.108-4.86h1.512l-.126 4.86h-1.278Zm3.258 0-.108-4.86h1.512l-.126 4.86h-1.278Z" fill="#1C1C20"/><path d="M579.753 262.732c-.96 0-1.704-.258-2.232-.774-.528-.516-.792-1.254-.792-2.214v-8.748h1.728v8.676c0 .516.127.912.378 1.188.264.276.636.414 1.116.414.54 0 .99-.15 1.35-.45l.54 1.242a2.51 2.51 0 0 1-.953.504 3.937 3.937 0 0 1-1.135.162Zm-4.644-8.226v-1.422h6.084v1.422h-6.084Zm-4.723 8.118v-10.386c0-.936.269-1.68.809-2.232.553-.564 1.332-.846 2.34-.846.373 0 .726.048 1.062.144.349.084.643.222.883.414l-.522 1.314a1.873 1.873 0 0 0-.612-.324 2.074 2.074 0 0 0-.72-.126c-.504 0-.888.144-1.152.432-.264.276-.396.69-.396 1.242v1.278l.036.792v8.298h-1.728Zm-1.62-8.118v-1.422h6.084v1.422h-6.084Zm-3.663 8.12v-9.54h1.728v9.54h-1.728Zm.864-11.376c-.336 0-.618-.108-.846-.324a1.077 1.077 0 0 1-.324-.792c0-.324.108-.594.324-.81.228-.216.51-.324.846-.324.336 0 .612.108.828.324a.994.994 0 0 1 .342.774c0 .324-.108.6-.324.828-.216.216-.498.324-.846.324Zm-15.03 11.376-3.546-9.54h1.637l3.151 8.64h-.775l3.277-8.64h1.457l3.205 8.64h-.757l3.222-8.64h1.548l-3.564 9.54h-1.655l-3.007-7.884h.505l-3.043 7.884h-1.655Zm-9.098.145c-.96 0-1.877-.144-2.753-.432-.876-.3-1.567-.684-2.07-1.152l.666-1.404c.48.42 1.091.768 1.836 1.044a6.617 6.617 0 0 0 2.321.414c.733 0 1.327-.084 1.782-.252.457-.168.793-.396 1.008-.684.217-.3.325-.636.325-1.008 0-.432-.144-.78-.432-1.044-.276-.264-.642-.474-1.099-.63a10.736 10.736 0 0 0-1.475-.432 29.804 29.804 0 0 1-1.639-.414 8.038 8.038 0 0 1-1.494-.63 3.114 3.114 0 0 1-1.079-1.008c-.276-.432-.414-.984-.414-1.656 0-.648.168-1.242.504-1.782.348-.552.876-.99 1.584-1.314.72-.336 1.632-.504 2.736-.504.732 0 1.458.096 2.178.288.72.192 1.344.468 1.872.828l-.594 1.44a5.615 5.615 0 0 0-1.71-.774 6.464 6.464 0 0 0-1.746-.252c-.708 0-1.29.09-1.747.27-.455.18-.791.42-1.008.72-.203.3-.305.636-.305 1.008 0 .444.138.798.414 1.062.288.264.654.474 1.098.63.456.156.954.3 1.494.432.54.12 1.08.258 1.619.414.553.156 1.051.36 1.494.612.457.252.823.588 1.098 1.008.277.42.415.96.415 1.62a3.29 3.29 0 0 1-.522 1.782c-.348.54-.888.978-1.62 1.314-.721.324-1.633.486-2.737.486Z" fill="#166FF5"/><path d="m530.483 254.887-.108-4.86h1.512l-.126 4.86h-1.278Zm3.258 0-.108-4.86h1.512l-.126 4.86h-1.278Zm-12.455 10.405.9-3.637.234 1.045c-.349 0-.643-.108-.883-.325-.228-.215-.342-.509-.342-.881 0-.36.114-.655.342-.882a1.21 1.21 0 0 1 .864-.342c.348 0 .63.12.847.36.215.228.324.516.324.864 0 .12-.013.24-.036.36a2.32 2.32 0 0 1-.09.396 4.724 4.724 0 0 1-.181.54l-.845 2.502h-1.134Zm-5.756-10.405-.108-4.86h1.512l-.126 4.86h-1.278Zm3.258 0-.108-4.86h1.512l-.126 4.86h-1.278Z" fill="#1C1C20"/><path d="M508.539 262.626v-9.54h1.656v2.592l-.162-.648a2.93 2.93 0 0 1 1.332-1.512c.624-.348 1.392-.522 2.304-.522v1.674a1.312 1.312 0 0 0-.216-.018h-.18c-.924 0-1.656.276-2.196.828-.54.552-.81 1.35-.81 2.394v4.752h-1.728Zm-6.768.108c-1.02 0-1.92-.21-2.7-.63a4.62 4.62 0 0 1-1.8-1.728c-.42-.732-.63-1.572-.63-2.52s.204-1.788.612-2.52a4.5 4.5 0 0 1 1.71-1.71c.732-.42 1.554-.63 2.466-.63.924 0 1.74.204 2.448.612.708.408 1.26.984 1.656 1.728.408.732.612 1.59.612 2.574 0 .072-.006.156-.018.252 0 .096-.006.186-.018.27h-8.118v-1.242h7.218l-.702.432c.012-.612-.114-1.158-.378-1.638a2.807 2.807 0 0 0-1.098-1.116c-.456-.276-.99-.414-1.602-.414-.6 0-1.134.138-1.602.414a2.779 2.779 0 0 0-1.098 1.134c-.264.48-.396 1.032-.396 1.656v.288c0 .636.144 1.206.432 1.71.3.492.714.876 1.242 1.152.528.276 1.134.414 1.818.414.564 0 1.074-.096 1.53-.288.468-.192.876-.48 1.224-.864l.954 1.116a4.166 4.166 0 0 1-1.62 1.152c-.636.264-1.35.396-2.142.396Zm-8.111-.002c-.96 0-1.704-.258-2.232-.774-.528-.516-.792-1.254-.792-2.214v-8.748h1.728v8.676c0 .516.126.912.377 1.188.265.276.637.414 1.117.414.54 0 .989-.15 1.35-.45l.54 1.242a2.506 2.506 0 0 1-.954.504c-.36.108-.738.162-1.134.162Zm-4.644-8.226v-1.422h6.084v1.422h-6.084Zm-2.583 8.226c-.96 0-1.704-.258-2.232-.774-.528-.516-.792-1.254-.792-2.214v-8.748h1.728v8.676c0 .516.126.912.378 1.188.264.276.636.414 1.116.414.54 0 .99-.15 1.35-.45l.54 1.242a2.506 2.506 0 0 1-.954.504c-.36.108-.738.162-1.134.162Zm-4.644-8.226v-1.422h6.084v1.422h-6.084Zm-6.802 8.228c-.816 0-1.536-.15-2.16-.45a3.3 3.3 0 0 1-1.44-1.368c-.336-.624-.504-1.404-.504-2.34v-5.49h1.728v5.292c0 .936.222 1.638.666 2.106.456.468 1.092.702 1.908.702.6 0 1.122-.12 1.566-.36a2.549 2.549 0 0 0 1.026-1.08c.24-.48.36-1.056.36-1.728v-4.932h1.728v9.54h-1.638v-2.574l.27.684a3.338 3.338 0 0 1-1.404 1.476c-.624.348-1.326.522-2.106.522Zm-9.042-.108V249.27h1.728v13.356h-1.728Zm-9.552-6.641h6.498v1.548h-6.498v-1.548Zm.18 6.642h-1.8v-12.6h8.893v1.566h-7.093v11.034Z" fill="#166FF5"/><path d="m447.092 254.887-.108-4.86h1.512l-.126 4.86h-1.278Zm3.258 0-.108-4.86h1.512l-.126 4.86h-1.278Zm-12.463 10.405.9-3.637.234 1.045c-.348 0-.642-.108-.882-.325-.228-.215-.342-.509-.342-.881 0-.36.114-.655.342-.882a1.21 1.21 0 0 1 .864-.342c.348 0 .63.12.846.36.216.228.324.516.324.864 0 .12-.012.24-.036.36-.012.108-.042.24-.09.396a4.69 4.69 0 0 1-.18.54l-.846 2.502h-1.134Zm-5.755-10.405-.109-4.86h1.512l-.126 4.86h-1.277Zm3.257 0-.108-4.86h1.512l-.126 4.86h-1.278Z" fill="#1C1C20"/><path d="M427.691 262.626v-2.016l-.09-.378v-3.438c0-.732-.216-1.296-.648-1.692-.42-.408-1.056-.612-1.908-.612-.564 0-1.116.096-1.656.288a4.14 4.14 0 0 0-1.368.738l-.72-1.296a5.105 5.105 0 0 1 1.764-.9 7.306 7.306 0 0 1 2.178-.324c1.308 0 2.316.318 3.024.954.708.636 1.062 1.608 1.062 2.916v5.76h-1.638Zm-3.132.108c-.708 0-1.332-.12-1.872-.36-.528-.24-.936-.57-1.224-.99a2.57 2.57 0 0 1-.432-1.458c0-.516.12-.984.36-1.404.252-.42.654-.756 1.206-1.008.564-.252 1.32-.378 2.268-.378h3.024v1.242h-2.952c-.864 0-1.446.144-1.746.432-.3.288-.45.636-.45 1.044 0 .468.186.846.558 1.134.372.276.888.414 1.548.414.648 0 1.212-.144 1.692-.432a2.446 2.446 0 0 0 1.062-1.26l.342 1.188c-.228.564-.63 1.014-1.206 1.35-.576.324-1.302.486-2.178.486Zm-10.039-.108-4.176-9.54h1.8l3.708 8.64h-.864l3.78-8.64h1.692l-4.176 9.54h-1.764Zm-7.173 0v-2.016l-.09-.378v-3.438c0-.732-.216-1.296-.648-1.692-.42-.408-1.056-.612-1.908-.612-.564 0-1.116.096-1.656.288a4.14 4.14 0 0 0-1.368.738l-.72-1.296a5.105 5.105 0 0 1 1.764-.9 7.31 7.31 0 0 1 2.178-.324c1.309 0 2.317.318 3.024.954.708.636 1.062 1.608 1.062 2.916v5.76h-1.638Zm-3.132.108c-.708 0-1.332-.12-1.872-.36-.528-.24-.936-.57-1.224-.99a2.569 2.569 0 0 1-.431-1.458c0-.516.119-.984.359-1.404.252-.42.654-.756 1.206-1.008.564-.252 1.32-.378 2.268-.378h3.024v1.242h-2.952c-.864 0-1.446.144-1.745.432a1.392 1.392 0 0 0-.451 1.044c0 .468.186.846.558 1.134.373.276.888.414 1.548.414.648 0 1.212-.144 1.692-.432a2.441 2.441 0 0 0 1.062-1.26l.342 1.188c-.228.564-.63 1.014-1.206 1.35-.576.324-1.302.486-2.178.486Zm-10.137.037a4.75 4.75 0 0 1-2.088-.468 4.016 4.016 0 0 1-1.584-1.35l1.044-1.224c.348.48.738.852 1.17 1.116.444.252.93.378 1.458.378 1.44 0 2.16-.852 2.16-2.556v-7.074h-4.554v-1.566h6.336v8.55c0 1.404-.336 2.454-1.008 3.15-.66.696-1.638 1.044-2.934 1.044Z" fill="#166FF5"/><path d="m384.78 254.887-.108-4.86h1.512l-.126 4.86h-1.278Zm3.258 0-.108-4.86h1.512l-.126 4.86h-1.278Zm-8.749 11.231V249.27h3.762v1.421h-2.034v14.005h2.034v1.422h-3.762Zm-11.164-11.216v-1.422h8.064v1.422h-8.064Zm0 4.267v-1.423h8.064v1.423h-8.064Zm-10.867 3.458v-1.224l5.13-4.95c.456-.432.792-.81 1.008-1.134.227-.336.378-.642.45-.918.084-.288.126-.564.126-.828 0-.648-.228-1.158-.685-1.53-.455-.372-1.121-.558-1.997-.558-.672 0-1.278.114-1.818.342a3.548 3.548 0 0 0-1.404 1.026l-1.224-1.062c.479-.612 1.122-1.08 1.925-1.404.816-.336 1.711-.504 2.683-.504.875 0 1.637.144 2.286.432.647.276 1.146.678 1.494 1.206.359.528.54 1.152.54 1.872 0 .408-.054.81-.162 1.206-.108.396-.313.816-.612 1.26-.3.444-.732.942-1.296 1.494l-4.572 4.41-.432-.702h7.613v1.566h-9.053Zm-3.083.105c-.96 0-1.704-.258-2.232-.774-.528-.516-.792-1.254-.792-2.214v-8.748h1.728v8.676c0 .516.126.912.378 1.188.264.276.636.414 1.116.414.54 0 .99-.15 1.35-.45l.54 1.242a2.506 2.506 0 0 1-.954.504c-.36.108-.738.162-1.134.162Zm-4.644-8.226v-1.422h6.084v1.422h-6.084Zm-4.917 8.228a7.85 7.85 0 0 1-2.268-.324c-.708-.216-1.266-.48-1.674-.792l.72-1.368c.408.276.912.51 1.512.702a5.99 5.99 0 0 0 1.836.288c.804 0 1.38-.114 1.728-.342.36-.228.54-.546.54-.954 0-.3-.108-.534-.324-.702-.216-.168-.504-.294-.864-.378a12.123 12.123 0 0 0-1.17-.216 24.668 24.668 0 0 1-1.296-.252 5.786 5.786 0 0 1-1.188-.432 2.343 2.343 0 0 1-.864-.774c-.216-.336-.324-.78-.324-1.332 0-.576.162-1.08.486-1.512.324-.432.78-.762 1.368-.99.6-.24 1.308-.36 2.124-.36.624 0 1.254.078 1.89.234.648.144 1.176.354 1.584.63l-.738 1.368a4.077 4.077 0 0 0-1.35-.594 6.226 6.226 0 0 0-1.404-.162c-.756 0-1.32.126-1.692.378-.372.24-.558.552-.558.936 0 .324.108.576.324.756.228.168.516.3.864.396.36.096.756.18 1.188.252.432.06.864.144 1.296.252.432.096.822.234 1.17.414.36.18.648.432.864.756.228.324.342.756.342 1.296 0 .576-.168 1.074-.504 1.494-.336.42-.81.75-1.422.99-.612.228-1.344.342-2.196.342Zm-7.761-.108v-9.54h1.728v9.54h-1.728Zm.864-11.376c-.336 0-.618-.108-.846-.324a1.077 1.077 0 0 1-.324-.792c0-.324.108-.594.324-.81.228-.216.51-.324.846-.324.336 0 .612.108.828.324a.994.994 0 0 1 .342.774c0 .324-.108.6-.324.828-.216.216-.498.324-.846.324Zm-5.897 11.376V249.27h1.728v13.356h-1.728Zm-10.632 1.115v-1.116h8.999v1.116h-8.999Zm-7.779 2.485c-.456 0-.9-.078-1.332-.234a3.038 3.038 0 0 1-1.116-.648l.738-1.296c.24.228.504.402.792.522.288.12.594.18.918.18.42 0 .768-.108 1.044-.324.276-.216.534-.6.774-1.152l.594-1.314.18-.216 3.744-8.658h1.692l-4.626 10.494c-.276.672-.588 1.2-.936 1.584-.336.384-.708.654-1.116.81a3.513 3.513 0 0 1-1.35.252Zm2.268-3.294-4.356-9.846h1.8l3.708 8.496-1.152 1.35Zm-9.587-9.936c.768 0 1.446.15 2.034.45.588.3 1.044.756 1.368 1.368.336.612.504 1.386.504 2.322v5.49h-1.728v-5.292c0-.924-.216-1.62-.648-2.088-.432-.468-1.038-.702-1.818-.702-.576 0-1.08.12-1.512.36-.432.24-.768.594-1.008 1.062-.228.468-.342 1.05-.342 1.746v4.914h-1.728v-5.292c0-.924-.216-1.62-.648-2.088-.42-.468-1.026-.702-1.818-.702-.564 0-1.062.12-1.494.36-.432.24-.768.594-1.008 1.062-.24.468-.36 1.05-.36 1.746v4.914h-1.728v-9.54h1.656v2.538l-.27-.648c.3-.624.762-1.11 1.386-1.458.624-.348 1.35-.522 2.178-.522.912 0 1.698.228 2.358.684.66.444 1.092 1.122 1.296 2.034l-.702-.288c.288-.732.792-1.32 1.512-1.764.72-.444 1.56-.666 2.52-.666Zm318.539-12.878h-3.762v-1.422h2.034v-14.004h-2.034v-1.422h3.762v16.848Zm-10.037-11.231-.108-4.86h1.513l-.127 4.86h-1.278Zm3.258 0-.108-4.86h1.513l-.127 4.86h-1.278Z" fill="#1C1C20"/><path d="M607.355 234.267v-7.884h1.511v7.884h-1.511Zm-3.277-3.222v-1.422h8.064v1.422h-8.064Zm-7.193 3.222v-7.884h1.513v7.884h-1.513Zm-3.276-3.222v-1.422h8.064v1.422h-8.064Zm-6.691 5.726c-.96 0-1.848-.156-2.664-.468a6.533 6.533 0 0 1-2.106-1.35 6.521 6.521 0 0 1-1.386-2.052c-.336-.78-.504-1.638-.504-2.574 0-.936.168-1.794.504-2.574a6.174 6.174 0 0 1 1.404-2.034 6.155 6.155 0 0 1 2.106-1.35 7.155 7.155 0 0 1 2.664-.486c.972 0 1.866.168 2.682.504.828.324 1.53.81 2.106 1.458l-1.17 1.134a4.57 4.57 0 0 0-1.62-1.116 4.923 4.923 0 0 0-1.926-.378c-.708 0-1.368.12-1.98.36-.6.24-1.122.576-1.566 1.008a4.638 4.638 0 0 0-1.044 1.548c-.24.588-.36 1.23-.36 1.926s.12 1.344.36 1.944c.252.588.6 1.098 1.044 1.53.444.432.966.768 1.566 1.008.612.24 1.272.36 1.98.36.684 0 1.326-.12 1.926-.36.6-.252 1.14-.636 1.62-1.152l1.17 1.134a5.584 5.584 0 0 1-2.106 1.476c-.816.336-1.716.504-2.7.504Z" fill="#166FF5"/><path d="m573.608 228.887-.108-4.86h1.512l-.126 4.86h-1.278Zm3.258 0-.108-4.86h1.512l-.126 4.86h-1.278Zm-6.643 10.404.9-3.636.234 1.044a1.27 1.27 0 0 1-.882-.324c-.228-.216-.342-.51-.342-.882 0-.359.114-.654.342-.882a1.21 1.21 0 0 1 .864-.341c.348 0 .63.119.846.359.216.228.324.516.324.864 0 .121-.012.24-.036.361a2.22 2.22 0 0 1-.09.395 4.628 4.628 0 0 1-.18.54l-.846 2.502h-1.134Zm-5.756-10.404-.108-4.86h1.512l-.126 4.86h-1.278Zm3.258 0-.108-4.86h1.512l-.126 4.86h-1.278Z" fill="#1C1C20"/><path d="M560.683 236.732c-.96 0-1.704-.258-2.232-.774-.528-.516-.792-1.254-.792-2.214v-8.748h1.728v8.676c0 .516.126.912.378 1.188.264.276.636.414 1.116.414.54 0 .99-.15 1.35-.45l.54 1.242a2.506 2.506 0 0 1-.954.504c-.36.108-.738.162-1.134.162Zm-4.644-8.226v-1.422h6.084v1.422h-6.084Zm-5.84 8.228c-.792 0-1.518-.18-2.178-.54-.648-.372-1.17-.918-1.566-1.638-.384-.72-.576-1.62-.576-2.7s.186-1.98.558-2.7c.384-.72.9-1.26 1.548-1.62.66-.36 1.398-.54 2.214-.54.936 0 1.764.204 2.484.612a4.5 4.5 0 0 1 1.71 1.71c.42.72.63 1.566.63 2.538 0 .972-.21 1.824-.63 2.556a4.5 4.5 0 0 1-1.71 1.71c-.72.408-1.548.612-2.484.612Zm-5.058 3.384v-13.032h1.656v2.574l-.108 2.214.18 2.214v6.03h-1.728Zm4.914-4.896c.612 0 1.158-.138 1.638-.414a2.922 2.922 0 0 0 1.152-1.17c.288-.516.432-1.11.432-1.782 0-.684-.144-1.272-.432-1.764a2.922 2.922 0 0 0-1.152-1.17c-.48-.276-1.026-.414-1.638-.414-.6 0-1.146.138-1.638.414-.48.276-.864.666-1.152 1.17-.276.492-.414 1.08-.414 1.764 0 .672.138 1.266.414 1.782.288.504.672.894 1.152 1.17a3.29 3.29 0 0 0 1.638.414Zm-9.945 1.404v-9.54h1.728v9.54h-1.728Zm.864-11.376a1.18 1.18 0 0 1-.845-.324 1.077 1.077 0 0 1-.324-.792c0-.324.108-.594.324-.81a1.18 1.18 0 0 1 .845-.324c.336 0 .613.108.829.324a.997.997 0 0 1 .342.774c0 .324-.109.6-.324.828-.217.216-.498.324-.847.324Zm-8.13 11.376v-9.54h1.656v2.592l-.162-.648a2.93 2.93 0 0 1 1.332-1.512c.624-.348 1.392-.522 2.304-.522v1.674a1.312 1.312 0 0 0-.216-.018h-.18c-.924 0-1.656.276-2.196.828-.54.552-.81 1.35-.81 2.394v4.752h-1.728Zm-6.116.108c-.973 0-1.843-.21-2.611-.63a4.653 4.653 0 0 1-1.782-1.728c-.432-.732-.647-1.572-.647-2.52s.215-1.788.647-2.52a4.524 4.524 0 0 1 1.782-1.71c.768-.42 1.638-.63 2.611-.63.864 0 1.632.174 2.304.522.683.336 1.211.84 1.584 1.512l-1.315.846c-.311-.468-.695-.81-1.152-1.026a3.106 3.106 0 0 0-1.44-.342c-.624 0-1.181.138-1.674.414a3.045 3.045 0 0 0-1.17 1.17c-.288.492-.432 1.08-.432 1.764 0 .684.144 1.278.432 1.782.288.504.678.894 1.17 1.17.493.276 1.05.414 1.674.414.516 0 .996-.108 1.44-.324a2.97 2.97 0 0 0 1.152-1.044l1.315.828a3.83 3.83 0 0 1-1.584 1.53c-.672.348-1.44.522-2.304.522Zm-11.42.037a8.76 8.76 0 0 1-2.754-.432c-.876-.3-1.566-.684-2.07-1.152l.666-1.404c.48.42 1.092.768 1.836 1.044a6.623 6.623 0 0 0 2.322.414c.732 0 1.326-.084 1.782-.252.456-.168.792-.396 1.008-.684.216-.3.324-.636.324-1.008 0-.432-.144-.78-.432-1.044-.276-.264-.642-.474-1.098-.63a10.793 10.793 0 0 0-1.476-.432c-.54-.12-1.086-.258-1.638-.414a7.98 7.98 0 0 1-1.494-.63 3.108 3.108 0 0 1-1.08-1.008c-.276-.432-.414-.984-.414-1.656 0-.648.168-1.242.504-1.782.348-.552.876-.99 1.584-1.314.72-.336 1.632-.504 2.736-.504.732 0 1.458.096 2.178.288.72.192 1.344.468 1.872.828l-.594 1.44a5.615 5.615 0 0 0-1.71-.774 6.464 6.464 0 0 0-1.746-.252c-.708 0-1.29.09-1.746.27-.456.18-.792.42-1.008.72-.204.3-.306.636-.306 1.008 0 .444.138.798.414 1.062.288.264.654.474 1.098.63.456.156.954.3 1.494.432.54.12 1.08.258 1.62.414.552.156 1.05.36 1.494.612.456.252.822.588 1.098 1.008.276.42.414.96.414 1.62 0 .636-.174 1.23-.522 1.782-.348.54-.888.978-1.62 1.314-.72.324-1.632.486-2.736.486Zm-8.757-.145v-2.016l-.09-.378v-3.438c0-.732-.216-1.296-.648-1.692-.421-.408-1.056-.612-1.909-.612-.563 0-1.115.096-1.655.288-.54.18-.996.426-1.369.738l-.72-1.296a5.118 5.118 0 0 1 1.765-.9 7.306 7.306 0 0 1 2.178-.324c1.308 0 2.316.318 3.024.954.708.636 1.062 1.608 1.062 2.916v5.76h-1.638Zm-3.132.108c-.708 0-1.332-.12-1.872-.36-.528-.24-.936-.57-1.224-.99a2.57 2.57 0 0 1-.432-1.458c0-.516.12-.984.36-1.404.252-.42.654-.756 1.205-1.008.565-.252 1.321-.378 2.269-.378h3.024v1.242h-2.952c-.864 0-1.446.144-1.746.432-.3.288-.451.636-.451 1.044 0 .468.187.846.559 1.134.372.276.888.414 1.548.414.648 0 1.212-.144 1.692-.432a2.446 2.446 0 0 0 1.062-1.26l.342 1.188c-.228.564-.63 1.014-1.206 1.35-.576.324-1.302.486-2.178.486Zm-10.04-.108-4.176-9.54h1.8l3.708 8.64h-.864l3.78-8.64h1.692l-4.176 9.54h-1.764Zm-7.172 0v-2.016l-.09-.378v-3.438c0-.732-.216-1.296-.648-1.692-.42-.408-1.056-.612-1.908-.612-.564 0-1.116.096-1.656.288a4.14 4.14 0 0 0-1.368.738l-.72-1.296a5.105 5.105 0 0 1 1.764-.9 7.306 7.306 0 0 1 2.178-.324c1.308 0 2.316.318 3.024.954.708.636 1.062 1.608 1.062 2.916v5.76h-1.638Zm-3.132.108c-.708 0-1.332-.12-1.872-.36-.528-.24-.936-.57-1.224-.99a2.57 2.57 0 0 1-.432-1.458c0-.516.12-.984.36-1.404.252-.42.654-.756 1.206-1.008.564-.252 1.32-.378 2.268-.378h3.024v1.242h-2.952c-.864 0-1.446.144-1.746.432-.3.288-.45.636-.45 1.044 0 .468.186.846.558 1.134.372.276.888.414 1.548.414.648 0 1.212-.144 1.692-.432a2.446 2.446 0 0 0 1.062-1.26l.342 1.188c-.228.564-.63 1.014-1.206 1.35-.576.324-1.302.486-2.178.486Zm-10.138.038a4.76 4.76 0 0 1-2.087-.468 4.019 4.019 0 0 1-1.584-1.35l1.044-1.225c.348.48.738.852 1.17 1.116.443.253.929.378 1.457.378 1.44 0 2.16-.851 2.16-2.556v-7.073h-4.553v-1.567h6.335v8.55c0 1.404-.336 2.454-1.008 3.151-.659.695-1.638 1.044-2.934 1.044Z" fill="#166FF5"/><path d="m463.639 228.887-.108-4.86h1.512l-.126 4.86h-1.278Zm3.258 0-.108-4.86h1.512l-.126 4.86h-1.278Zm-6.643 10.404.9-3.636.234 1.044a1.27 1.27 0 0 1-.882-.324c-.228-.216-.342-.51-.342-.882 0-.359.114-.654.342-.882a1.21 1.21 0 0 1 .864-.341c.348 0 .63.119.846.359.216.228.324.516.324.864 0 .121-.012.24-.036.361a2.22 2.22 0 0 1-.09.395 4.628 4.628 0 0 1-.18.54l-.846 2.502h-1.134Zm-5.763-10.404-.108-4.86h1.512l-.126 4.86h-1.278Zm3.258 0-.108-4.86h1.512l-.126 4.86h-1.278Z" fill="#1C1C20"/><path d="M447.727 226.996c.78 0 1.464.15 2.052.45.6.3 1.068.756 1.404 1.368.336.612.504 1.386.504 2.322v5.49h-1.728v-5.292c0-.924-.228-1.62-.684-2.088-.444-.468-1.074-.702-1.89-.702-.612 0-1.146.12-1.602.36-.456.24-.81.594-1.062 1.062-.24.468-.36 1.05-.36 1.746v4.914h-1.728v-9.54h1.656v2.574l-.27-.684a3.313 3.313 0 0 1 1.44-1.458c.648-.348 1.404-.522 2.268-.522Zm-12.43 9.738c-.96 0-1.812-.21-2.556-.63a4.69 4.69 0 0 1-1.764-1.728c-.432-.744-.649-1.584-.649-2.52 0-.948.217-1.788.649-2.52a4.557 4.557 0 0 1 1.764-1.71c.744-.42 1.596-.63 2.556-.63.948 0 1.793.21 2.537.63a4.403 4.403 0 0 1 1.765 1.71c.432.72.647 1.56.647 2.52 0 .948-.215 1.788-.647 2.52a4.526 4.526 0 0 1-1.765 1.728c-.744.42-1.589.63-2.537.63Zm0-1.512c.612 0 1.158-.138 1.638-.414a2.922 2.922 0 0 0 1.152-1.17c.276-.516.413-1.11.413-1.782 0-.684-.137-1.272-.413-1.764a2.922 2.922 0 0 0-1.152-1.17c-.48-.276-1.026-.414-1.638-.414-.612 0-1.158.138-1.638.414-.48.276-.864.666-1.152 1.17-.288.492-.432 1.08-.432 1.764 0 .672.144 1.266.432 1.782.288.504.672.894 1.152 1.17.48.276 1.026.414 1.638.414Zm-11.25-8.226c.78 0 1.464.15 2.052.45.6.3 1.068.756 1.404 1.368.336.612.504 1.386.504 2.322v5.49h-1.728v-5.292c0-.924-.228-1.62-.684-2.088-.444-.468-1.074-.702-1.89-.702-.612 0-1.146.12-1.602.36-.456.24-.81.594-1.062 1.062-.24.468-.36 1.05-.36 1.746v4.914h-1.728V223.27h1.728v6.39l-.342-.684a3.313 3.313 0 0 1 1.44-1.458c.648-.348 1.404-.522 2.268-.522Zm-9.262 9.736c-.96 0-1.704-.258-2.232-.774-.528-.516-.792-1.254-.792-2.214v-8.748h1.728v8.676c0 .516.126.912.378 1.188.264.276.636.414 1.116.414.54 0 .99-.15 1.35-.45l.54 1.242a2.506 2.506 0 0 1-.954.504c-.36.108-.738.162-1.134.162Zm-4.644-8.226v-1.422h6.084v1.422h-6.084Zm-8.537 11.72c-.456 0-.9-.078-1.332-.234a3.038 3.038 0 0 1-1.116-.648l.738-1.296c.24.228.504.402.792.522.288.12.594.18.918.18.42 0 .768-.108 1.044-.324.276-.216.534-.6.774-1.152l.594-1.314.18-.216 3.744-8.658h1.692l-4.626 10.494c-.276.672-.588 1.2-.936 1.584-.336.384-.708.654-1.116.81a3.513 3.513 0 0 1-1.35.252Zm2.268-3.294-4.356-9.846h1.8l3.708 8.496-1.152 1.35Zm-15.302-.304v-12.601h4.914c1.104 0 2.046.175 2.826.522.781.348 1.38.853 1.801 1.512.419.66.63 1.447.63 2.359 0 .912-.211 1.697-.63 2.358-.421.647-1.02 1.152-1.801 1.511-.78.348-1.722.522-2.826.522h-3.923l.809-.846v4.663h-1.8Zm1.8-4.483-.809-.9h3.869c1.152 0 2.022-.246 2.611-.738.599-.491.899-1.188.899-2.087 0-.9-.3-1.597-.899-2.089-.589-.491-1.459-.737-2.611-.737h-3.869l.809-.901v7.452Z" fill="#166FF5"/><path d="m380.889 228.887-.108-4.86h1.512l-.126 4.86h-1.278Zm3.258 0-.108-4.86h1.512l-.126 4.86h-1.278Zm-8.741 11.231V223.27h3.762v1.422h-2.034v14.004h2.034v1.422h-3.762Zm-11.164-11.215v-1.423h8.064v1.423h-8.064Zm0 4.266v-1.423h8.064v1.423h-8.064Zm-4.882 3.459v-11.881l.773.847h-3.617v-1.567h4.625v12.601h-1.781Zm-5.185.104c-.96 0-1.704-.258-2.232-.774-.528-.516-.792-1.254-.792-2.214v-8.748h1.728v8.676c0 .516.126.912.378 1.188.264.276.636.414 1.116.414.54 0 .99-.15 1.35-.45l.54 1.242a2.506 2.506 0 0 1-.954.504c-.36.108-.738.162-1.134.162Zm-4.644-8.226v-1.422h6.084v1.422h-6.084Zm-4.917 8.228a7.85 7.85 0 0 1-2.268-.324c-.708-.216-1.266-.48-1.674-.792l.72-1.368c.408.276.912.51 1.512.702a5.99 5.99 0 0 0 1.836.288c.804 0 1.38-.114 1.728-.342.36-.228.54-.546.54-.954 0-.3-.108-.534-.324-.702-.216-.168-.504-.294-.864-.378a12.123 12.123 0 0 0-1.17-.216 24.668 24.668 0 0 1-1.296-.252 5.786 5.786 0 0 1-1.188-.432 2.343 2.343 0 0 1-.864-.774c-.216-.336-.324-.78-.324-1.332 0-.576.162-1.08.486-1.512.324-.432.78-.762 1.368-.99.6-.24 1.308-.36 2.124-.36.624 0 1.254.078 1.89.234.648.144 1.176.354 1.584.63l-.738 1.368a4.077 4.077 0 0 0-1.35-.594 6.226 6.226 0 0 0-1.404-.162c-.756 0-1.32.126-1.692.378-.372.24-.558.552-.558.936 0 .324.108.576.324.756.228.168.516.3.864.396.36.096.756.18 1.188.252.432.06.864.144 1.296.252.432.096.822.234 1.17.414.36.18.648.432.864.756.228.324.342.756.342 1.296 0 .576-.168 1.074-.504 1.494-.336.42-.81.75-1.422.99-.612.228-1.344.342-2.196.342Zm-7.761-.108v-9.54h1.728v9.54h-1.728Zm.864-11.376c-.336 0-.618-.108-.846-.324a1.077 1.077 0 0 1-.324-.792c0-.324.108-.594.324-.81.228-.216.51-.324.846-.324.336 0 .612.108.828.324a.994.994 0 0 1 .342.774c0 .324-.108.6-.324.828-.216.216-.498.324-.846.324Zm-5.897 11.376V223.27h1.728v13.356h-1.728Zm-10.632 1.115v-1.116h8.999v1.116h-8.999Zm-7.779 2.485c-.456 0-.9-.078-1.332-.234a3.038 3.038 0 0 1-1.116-.648l.738-1.296c.24.228.504.402.792.522.288.12.594.18.918.18.42 0 .768-.108 1.044-.324.276-.216.534-.6.774-1.152l.594-1.314.18-.216 3.744-8.658h1.692l-4.626 10.494c-.276.672-.588 1.2-.936 1.584-.336.384-.708.654-1.116.81a3.513 3.513 0 0 1-1.35.252Zm2.268-3.294-4.356-9.846h1.8l3.708 8.496-1.152 1.35Zm-9.587-9.936c.768 0 1.446.15 2.034.45.588.3 1.044.756 1.368 1.368.336.612.504 1.386.504 2.322v5.49h-1.728v-5.292c0-.924-.216-1.62-.648-2.088-.432-.468-1.038-.702-1.818-.702-.576 0-1.08.12-1.512.36-.432.24-.768.594-1.008 1.062-.228.468-.342 1.05-.342 1.746v4.914h-1.728v-5.292c0-.924-.216-1.62-.648-2.088-.42-.468-1.026-.702-1.818-.702-.564 0-1.062.12-1.494.36-.432.24-.768.594-1.008 1.062-.24.468-.36 1.05-.36 1.746v4.914h-1.728v-9.54h1.656v2.538l-.27-.648c.3-.624.762-1.11 1.386-1.458.624-.348 1.35-.522 2.178-.522.912 0 1.698.228 2.358.684.66.444 1.092 1.122 1.296 2.034l-.702-.288c.288-.732.792-1.32 1.512-1.764.72-.444 1.56-.666 2.52-.666Zm320.394-70.183 25.915-7.13-12.995-3.784-1.2-12.899-11.72 23.813ZM598 170.984h17.02v17.02H598v-17.02Z" fill="#1C1C20"/><path d="M858.097 397 604 491.215l1.043 2.813 254.097-94.215-1.043-2.813ZM346.288 89.003 243.002 202.238l2.217 2.022L348.505 91.025l-2.217-2.022Z" fill="#166FF5"/></svg>