<svg width="945" height="608" viewBox="0 0 945 608" fill="none" xmlns="http://www.w3.org/2000/svg"><path d="M0 172 278 0l292 500-188 84L0 172Z" fill="#FFE2FC"/><path d="m790.453 607.549 154.482-288.103L427.836 58.922l-72.215 192.834 434.832 355.793Z" fill="#FFE2FC"/><path d="M916.096 282 662 376.215l1.043 2.813 254.096-94.215-1.043-2.813ZM183.017 81 110 215.754l2.638 1.429 73.017-134.754-2.638-1.43Z" fill="#166FF5"/><path d="M404.886 404.191h-6.46a.794.794 0 0 0 0 1.587h6.46a.792.792 0 1 0 0-1.587Zm12.918 0h-6.46a.794.794 0 0 0 0 1.587h6.46a.792.792 0 1 0 0-1.587Zm12.918 0h-6.459a.795.795 0 0 0 0 1.587h6.459a.793.793 0 1 0 0-1.587Zm12.918 0h-6.459a.794.794 0 0 0 0 1.587h6.459a.792.792 0 1 0 0-1.587Zm12.916 0h-6.458a.793.793 0 1 0 0 1.587h6.458a.792.792 0 1 0 0-1.587Zm12.919 0h-6.458a.795.795 0 0 0 0 1.587h6.458a.793.793 0 1 0 0-1.587Zm12.917 0h-6.458a.794.794 0 0 0 0 1.587h6.458a.793.793 0 1 0 0-1.587Zm12.92 0h-6.46a.794.794 0 0 0 0 1.587h6.46a.792.792 0 1 0 0-1.587Zm12.917 0h-6.459a.793.793 0 0 0 0 1.587h6.459a.792.792 0 1 0 0-1.587Zm-6.459-62.604h6.459a.793.793 0 1 0 0-1.587h-6.459a.793.793 0 1 0 0 1.587Zm-12.918 0h6.46a.793.793 0 1 0 0-1.587h-6.46a.793.793 0 0 0 0 1.587Zm-12.918 0h6.46a.793.793 0 1 0 0-1.587h-6.46a.794.794 0 0 0 0 1.587Zm-12.917 0h6.458a.792.792 0 1 0 0-1.587h-6.458a.794.794 0 0 0 0 1.587Zm-12.919 0h6.458a.793.793 0 1 0 0-1.587h-6.458a.793.793 0 0 0 0 1.587Zm-12.918 0h6.458a.793.793 0 1 0 0-1.587h-6.458a.792.792 0 0 0-.793.794c0 .438.353.793.793.793Zm-12.917 0h6.459a.793.793 0 1 0 0-1.587h-6.459a.794.794 0 0 0 0 1.587Zm-12.919 0h6.46a.793.793 0 1 0 0-1.587h-6.46a.793.793 0 0 0 0 1.587Zm-12.918 0h6.46a.793.793 0 1 0 0-1.587h-6.46a.793.793 0 0 0 0 1.587Zm-6.459 62.607h-2.38v-2.381a.793.793 0 0 0-1.587 0v3.174c0 .21.086.414.233.562a.802.802 0 0 0 .56.231h3.174a.79.79 0 0 0 .793-.793.792.792 0 0 0-.793-.793Zm-2.38-47.569v-6.328a.793.793 0 1 0-1.587 0v6.328a.793.793 0 1 0 1.587 0Zm0 12.662v-6.33a.793.793 0 1 0-1.587 0v6.33a.793.793 0 1 0 1.587 0Zm0 12.654v-6.327a.793.793 0 1 0-1.587 0v6.327a.794.794 0 1 0 1.587 0Zm0 12.662v-6.328a.794.794 0 1 0-1.587 0v6.328a.794.794 0 1 0 1.587 0Zm0-50.636v-2.38h2.38c.44 0 .793-.355.793-.793a.792.792 0 0 0-.793-.794h-3.174a.797.797 0 0 0-.793.794v3.173a.793.793 0 1 0 1.587 0Zm125.537-2.38h2.38v2.38a.793.793 0 1 0 1.587 0v-3.173a.797.797 0 0 0-.793-.794h-3.174c-1.043 0-1.043 1.587 0 1.587Zm2.38 46.688v6.328a.793.793 0 1 0 1.587 0v-6.328a.795.795 0 1 0-1.587 0Zm0-12.661v6.327a.793.793 0 1 0 1.587 0v-6.327a.793.793 0 1 0-1.587 0Zm0-12.657v6.33a.793.793 0 1 0 1.587 0v-6.33a.793.793 0 1 0-1.587 0Zm0-12.66v6.33a.793.793 0 1 0 1.587 0v-6.33a.793.793 0 1 0-1.587 0Zm.001 51.516v2.381h-2.38a.792.792 0 1 0 0 1.586h3.174a.8.8 0 0 0 .56-.231.803.803 0 0 0 .233-.562v-3.174a.794.794 0 0 0-1.587 0Z" fill="#1C1C20" stroke="#1C1C20" stroke-width=".5" stroke-miterlimit="22.926"/><path d="M434.426 383.565c-2.074 0-3.887-.428-5.437-1.284a9.11 9.11 0 0 1-3.625-3.625c-.856-1.57-1.284-3.401-1.284-5.494 0-1.522.252-2.915.756-4.181a9.921 9.921 0 0 1 2.155-3.31 9.85 9.85 0 0 1 3.296-2.169c1.266-.514 2.655-.771 4.167-.771 1.522 0 2.835.191 3.938.571 1.113.381 2.084.923 2.911 1.627l-1.655 2.611a6.091 6.091 0 0 0-2.197-1.298c-.837-.286-1.76-.428-2.769-.428-1.113 0-2.116.171-3.01.513a6.495 6.495 0 0 0-2.298 1.47c-.628.628-1.113 1.394-1.455 2.297-.333.895-.5 1.908-.5 3.04 0 1.541.3 2.858.899 3.952a6.164 6.164 0 0 0 2.569 2.512c1.113.571 2.426.856 3.938.856a9.591 9.591 0 0 0 2.911-.442 8.004 8.004 0 0 0 2.64-1.47l1.484 2.697a10.58 10.58 0 0 1-3.296 1.726c-1.228.4-2.607.6-4.138.6Zm17.302 0a14.25 14.25 0 0 1-4.053-.585c-1.313-.4-2.421-.971-3.325-1.713l1.57-2.44a7.252 7.252 0 0 0 1.655 1.056c.638.295 1.313.524 2.027.685.713.152 1.426.229 2.14.229 1.303 0 2.354-.248 3.153-.742.809-.495 1.213-1.218 1.213-2.169 0-.714-.276-1.318-.827-1.813-.543-.494-1.551-.951-3.025-1.37l-2.055-.599c-1.884-.542-3.258-1.26-4.124-2.155-.856-.894-1.284-2.007-1.284-3.339 0-.884.176-1.683.528-2.397a5.65 5.65 0 0 1 1.512-1.855 7.009 7.009 0 0 1 2.312-1.198c.885-.276 1.855-.414 2.911-.414 1.341 0 2.587.195 3.738.585 1.151.39 2.103.913 2.854 1.569l-1.626 2.369a6.019 6.019 0 0 0-1.442-.956 8 8 0 0 0-1.755-.614 8.641 8.641 0 0 0-1.912-.214c-.799 0-1.508.119-2.126.357-.609.228-1.084.561-1.427.999-.342.438-.514.97-.514 1.598 0 .457.115.856.343 1.199.228.342.618.656 1.17.942.561.276 1.332.556 2.312.842l2.169.642c1.845.542 3.196 1.251 4.052 2.126.856.865 1.284 1.993 1.284 3.382 0 1.189-.295 2.235-.884 3.139-.581.894-1.427 1.593-2.54 2.098-1.113.504-2.455.756-4.024.756Zm17.92 0c-1.379 0-2.73-.195-4.052-.585-1.313-.4-2.422-.971-3.325-1.713l1.569-2.44a7.259 7.259 0 0 0 1.656 1.056c.637.295 1.312.524 2.026.685.713.152 1.427.229 2.14.229 1.304 0 2.355-.248 3.154-.742.808-.495 1.213-1.218 1.213-2.169 0-.714-.276-1.318-.828-1.813-.542-.494-1.55-.951-3.025-1.37l-2.055-.599c-1.883-.542-3.258-1.26-4.124-2.155-.856-.894-1.284-2.007-1.284-3.339 0-.884.176-1.683.528-2.397a5.666 5.666 0 0 1 1.513-1.855 7.004 7.004 0 0 1 2.311-1.198c.885-.276 1.855-.414 2.911-.414 1.342 0 2.588.195 3.739.585 1.151.39 2.102.913 2.854 1.569l-1.627 2.369a6.012 6.012 0 0 0-1.441-.956 8.018 8.018 0 0 0-1.755-.614 8.648 8.648 0 0 0-1.912-.214c-.8 0-1.508.119-2.127.357-.608.228-1.084.561-1.427.999-.342.438-.513.97-.513 1.598 0 .457.114.856.342 1.199.229.342.619.656 1.17.942.562.276 1.332.556 2.312.842l2.169.642c1.845.542 3.196 1.251 4.052 2.126.857.865 1.285 1.993 1.285 3.382 0 1.189-.295 2.235-.885 3.139-.58.894-1.427 1.593-2.54 2.098-1.113.504-2.454.756-4.024.756Zm-226.88-274.162-13.799-5.594v-2.268l13.784-5.551.928 2.269-11.087 4.409 11.087 4.452-.913 2.283Zm18.493 0-.913-2.283 11.073-4.409-11.073-4.453.899-2.268 13.798 5.593v2.255l-13.784 5.565Zm-13.129 5.879-2.626-1.027 10.389-25.229 2.611 1.028-10.374 25.228Z" fill="#2B2A29"/><path d="M519 292.895v28.21a.919.919 0 0 1-.258.632.87.87 0 0 1-.287.193.856.856 0 0 1-.338.07h-73.234a.877.877 0 0 1-.621-.261.884.884 0 0 1-.262-.634v-28.21a.91.91 0 0 1 .261-.634.889.889 0 0 1 .622-.261h73.234c.115 0 .23.024.337.069.108.045.207.11.288.192a.915.915 0 0 1 .258.634Z" fill="#166FF5"/><path d="M499.258 313.644v-13.437h2.15v11.46h5.854v1.977h-8.004Zm-17.545 0v-13.437h2.083l5.48 8.916-.835.01 5.279-8.926h2.044v13.437h-2.102l.029-10.577.413.144-4.569 7.534h-1.574l-4.655-7.534.346-.144.028 10.577h-1.967Zm-8.189 0v-11.469h-3.782v-1.968h9.713v1.968h-3.781v11.469h-2.15Zm-16.856 0v-13.437h2.15v5.336h6.507v-5.336h2.15v13.437h-2.15v-6.124h-6.507v6.124h-2.15Z" fill="#fff"/><path d="M346.163 298.739h90.935v2.161h-92.015a1.08 1.08 0 0 1-1.083-1.08V85.08c0-.597.485-1.08 1.083-1.08H618.91c.597 0 1.08.483 1.08 1.08v117.43h-2.161V86.161H346.163V298.74Zm178.248 0h63.416v2.161h-63.416v-2.161Z" fill="#000"/><path d="M346.164 113.403h271.665V86.161H346.164v27.242Zm272.746 2.161H345.083a1.083 1.083 0 0 1-1.083-1.081V85.08c0-.597.485-1.08 1.083-1.08H618.91c.597 0 1.08.483 1.08 1.08v29.403a1.08 1.08 0 0 1-1.08 1.081Z" fill="#000"/><path d="M619.989 113.403h41.796V86.161h-41.796v27.242Zm42.879 2.161h-43.959a1.082 1.082 0 0 1-1.081-1.081V85.08c0-.597.485-1.08 1.081-1.08h43.959c.595 0 1.08.483 1.08 1.08v29.403c0 .596-.485 1.081-1.08 1.081Z" fill="#000"/><path d="M637.263 92.442a5.748 5.748 0 0 0-5.742 5.743 5.748 5.748 0 0 0 5.742 5.74 5.748 5.748 0 0 0 5.74-5.74 5.748 5.748 0 0 0-5.74-5.743Zm0 13.644c-4.358 0-7.904-3.545-7.904-7.901 0-4.359 3.546-7.904 7.904-7.904 4.356 0 7.901 3.545 7.901 7.904 0 4.356-3.545 7.901-7.901 7.901Z" fill="#166FF5"/><path d="M561.328 152.547h-96.147a1.083 1.083 0 0 1 0-2.164h96.147a1.083 1.083 0 0 1 0 2.164Zm-48.073 24.388h-48.074a1.081 1.081 0 0 1 0-2.162h48.074a1.081 1.081 0 0 1 0 2.162Zm-77.902 86.822h-48.075a1.083 1.083 0 0 1 0-2.163h48.075a1.082 1.082 0 0 1 0 2.163Zm100.91-25.451H386.276a1.08 1.08 0 1 1 0-2.161h149.987a1.08 1.08 0 1 1 0 2.161Z" fill="#000"/><path d="M652.478 108.439c-.206 0-.412-.058-.595-.18l-9.009-5.947a1.078 1.078 0 0 1-.305-1.497c.329-.5 1-.636 1.496-.308l9.008 5.95a1.08 1.08 0 0 1-.595 1.982Zm-51.944 211.364h24.501V212.095h-24.501v107.708Zm25.584 2.161h-26.664a1.083 1.083 0 0 1-1.081-1.081V211.015a1.08 1.08 0 0 1 1.081-1.081h26.664c.595 0 1.08.482 1.08 1.081v109.868c0 .595-.485 1.081-1.08 1.081Zm58.367-2.161h24.501V198.021h-24.501v121.782Zm25.582 2.161h-26.663a1.08 1.08 0 0 1-1.08-1.081V196.94a1.08 1.08 0 0 1 1.08-1.081h26.663c.597 0 1.08.483 1.08 1.081v123.943a1.08 1.08 0 0 1-1.08 1.081Zm-68.097-2.161h24.5v-64.854h-24.5v64.854Zm25.581 2.161h-26.664c-.596 0-1.08-.486-1.08-1.081v-67.017c0-.596.484-1.081 1.08-1.081h26.664c.596 0 1.081.485 1.081 1.081v67.017c0 .595-.485 1.081-1.081 1.081ZM394.677 215.05l-3.759 2.269.99-4.279-3.32-2.88 4.38-.37 1.709-4.04 1.71 4.04 4.38.37-3.32 2.88.99 4.279-3.76-2.269Zm10-6.15-7.19-.61-2.81-6.63-2.809 6.63-7.19.61 5.449 4.73-1.629 7.03 6.179-3.73 6.18 3.73-1.64-7.03 5.46-4.73Zm22.514 6.15-3.76 2.269.99-4.279-3.32-2.88 4.38-.37 1.71-4.04 1.71 4.04 4.38.37-3.32 2.88.99 4.279-3.76-2.269Zm10-6.15-7.19-.61-2.81-6.63-2.81 6.63-7.19.61 5.45 4.73-1.63 7.03 6.18-3.73 6.18 3.73-1.64-7.03 5.46-4.73Zm20.801 6.15-3.76 2.269.99-4.279-3.32-2.88 4.38-.37 1.71-4.04 1.71 4.04 4.38.37-3.32 2.88.99 4.279-3.76-2.269Zm10-6.15-7.19-.61-2.81-6.63-2.81 6.63-7.19.61 5.45 4.73-1.63 7.03 6.18-3.73 6.18 3.73-1.64-7.03 5.46-4.73Z" fill="#166FF5"/></svg>