<svg width="901" height="589" viewBox="0 0 901 589" fill="none" xmlns="http://www.w3.org/2000/svg"><path d="M0 172 278 0l292 500-188 84L0 172Z" fill="#FFE2FC"/><path d="m714 588.997 151-378L427.84 58.914l-72.215 192.834L714 588.997Z" fill="#FFE2FC"/><path d="M338.14 125.522h95.87a.754.754 0 0 0 0-1.506h-95.87a.753.753 0 1 0 0 1.506Z" fill="#1C1C20" stroke="#1C1C20" stroke-width=".5" stroke-miterlimit="22.926"/><path d="M577.631 372.606V158.842H325.612v10.02h-2.432v-11.236a1.225 1.225 0 0 1 .358-.861 1.231 1.231 0 0 1 .858-.355h254.45c.159 0 .317.033.465.094.148.06.284.15.396.261a1.23 1.23 0 0 1 .355.861v216.197a1.214 1.214 0 0 1-1.216 1.215h-1.215v-2.432ZM325.612 484.349h-1.216a1.223 1.223 0 0 1-1.123-.75 1.222 1.222 0 0 1-.093-.466V363.557h2.432v120.792Z" fill="#1C1C20"/><path d="M899.288 309.001 664 396.242l.966 2.605 235.288-87.241-.966-2.605Zm-642.675-250L189 183.781l2.443 1.324 67.612-124.78L256.613 59Zm68.999 84.006h185.912v-35.911H325.612v35.911Zm188.344-37.127v38.343a1.217 1.217 0 0 1-.356.858 1.192 1.192 0 0 1-.394.264 1.205 1.205 0 0 1-.466.094H324.396a1.205 1.205 0 0 1-.856-.354 1.205 1.205 0 0 1-.36-.862V105.88a1.225 1.225 0 0 1 .358-.861 1.231 1.231 0 0 1 .858-.355H512.74c.158 0 .317.033.464.094a1.203 1.203 0 0 1 .66.66c.059.147.092.304.092.462Z" fill="#166FF5"/><path d="M343.226 376.632h174.012c.755 0 1.367-.338 1.367-.754s-.612-.753-1.367-.753H343.226c-.755 0-1.367.337-1.367.753s.612.754 1.367.754Zm0 19.303h174.012c.755 0 1.367-.337 1.367-.753 0-.415-.612-.752-1.367-.752H343.226c-.755 0-1.367.337-1.367.752 0 .416.612.753 1.367.753Zm0 20.392h136.471c.753 0 1.365-.338 1.365-.754 0-.415-.612-.753-1.365-.753H343.226c-.755 0-1.367.338-1.367.753 0 .416.612.754 1.367.754Zm0 19.304h100.363c.754 0 1.366-.337 1.366-.753s-.612-.753-1.366-.753H343.226c-.755 0-1.367.337-1.367.753s.612.753 1.367.753Z" fill="#1C1C20" stroke="#1C1C20" stroke-width=".5" stroke-miterlimit="22.926"/><path d="M264.874 228.402h238.603v-51.068H264.874v51.068Zm241.035-52.284v53.501a1.217 1.217 0 0 1-.356.858 1.192 1.192 0 0 1-.394.264 1.205 1.205 0 0 1-.466.094H263.657a1.218 1.218 0 0 1-1.216-1.216v-53.501a1.226 1.226 0 0 1 .359-.86 1.22 1.22 0 0 1 .857-.356h241.036c.158 0 .316.033.464.094a1.206 1.206 0 0 1 .752 1.122ZM286.745 291.004h238.603v-51.068H286.745v51.068ZM527.78 238.72v53.501a1.225 1.225 0 0 1-1.216 1.216H285.528a1.218 1.218 0 0 1-1.216-1.216V238.72a1.226 1.226 0 0 1 .753-1.123c.148-.061.306-.093.463-.093h241.036a1.235 1.235 0 0 1 .86.355 1.24 1.24 0 0 1 .356.861ZM303.663 352.949h238.603v-51.068H303.663v51.068Zm241.035-52.284v53.501a1.221 1.221 0 0 1-1.216 1.216H302.446a1.218 1.218 0 0 1-1.216-1.216v-53.501a1.226 1.226 0 0 1 .359-.861 1.22 1.22 0 0 1 .857-.355h241.036c.158 0 .316.033.464.094.148.061.285.15.396.261a1.248 1.248 0 0 1 .356.861Zm49.492 12.077h124.265v-153.9H594.19v153.9Zm126.697-155.116v156.333a1.235 1.235 0 0 1-.355.858 1.22 1.22 0 0 1-.861.358H592.974a1.215 1.215 0 0 1-.856-.355 1.205 1.205 0 0 1-.36-.861V157.626c0-.158.032-.317.094-.465a1.198 1.198 0 0 1 .659-.657c.147-.061.305-.094.463-.094h126.697c.158 0 .317.033.465.094.148.06.284.15.396.261a1.23 1.23 0 0 1 .355.861Z" fill="#166FF5"/><path d="M759.43 230.892v1.659h-1.659a.553.553 0 0 0 0 1.106h2.212a.555.555 0 0 0 .552-.553v-2.212a.552.552 0 0 0-1.105 0Zm-6.162 1.659h-4.501a.553.553 0 1 0 0 1.105h4.501a.552.552 0 1 0 0-1.105Zm-9 0h-4.501a.554.554 0 0 0 0 1.105h4.501a.552.552 0 1 0 0-1.105Zm-9 0h-4.501a.553.553 0 0 0 0 1.105h4.501a.552.552 0 1 0 0-1.105Zm-9 0h-4.501a.554.554 0 0 0 0 1.105h4.501a.553.553 0 0 0 0-1.105Zm-9.001 0h-4.5a.554.554 0 0 0 0 1.105h4.5a.552.552 0 0 0 0-1.105Zm-9 0h-4.5a.554.554 0 0 0 0 1.105h4.5a.553.553 0 0 0 0-1.105Zm-9.001 0h-4.499a.552.552 0 1 0 0 1.105h4.499a.552.552 0 1 0 0-1.105Zm-9 0h-4.5a.553.553 0 1 0 0 1.105h4.5a.551.551 0 1 0 0-1.105Zm-9 0h-4.501a.553.553 0 0 0 0 1.105h4.501a.551.551 0 1 0 0-1.105Zm-9 0h-4.501a.553.553 0 0 0 0 1.105h4.501a.552.552 0 1 0 0-1.105Zm-9.002 0h-4.499a.553.553 0 1 0 0 1.105h4.499a.552.552 0 1 0 0-1.105Zm-8.999 0h-4.5a.554.554 0 0 0 0 1.105h4.5a.552.552 0 1 0 0-1.105Zm-9 0h-4.5a.552.552 0 1 0 0 1.105h4.5a.553.553 0 0 0 0-1.105Zm-9.001 0h-4.5a.553.553 0 1 0 0 1.105h4.5a.552.552 0 1 0 0-1.105Zm-9 0h-4.5a.554.554 0 0 0 0 1.105h4.5a.551.551 0 1 0 0-1.105Zm-9 0h-4.5a.553.553 0 1 0 0 1.105h4.5a.552.552 0 1 0 0-1.105Zm-9 0h-4.501a.553.553 0 0 0 0 1.105h4.501a.552.552 0 1 0 0-1.105Zm-9.004 0h-1.658v-1.659a.553.553 0 0 0-1.106 0v2.212a.557.557 0 0 0 .552.553h2.212a.552.552 0 0 0 0-1.106Zm-1.658-6.068v-4.41a.553.553 0 0 0-1.106 0v4.41a.553.553 0 1 0 1.106 0Zm0-8.82v-4.408a.552.552 0 1 0-1.106 0v4.408a.553.553 0 1 0 1.106 0Zm0-8.818v-4.411a.552.552 0 0 0-1.106 0v4.411a.552.552 0 1 0 1.106 0Zm0-8.82v-4.409a.553.553 0 0 0-1.106 0v4.409a.552.552 0 1 0 1.106 0Zm0-8.819v-4.409a.552.552 0 1 0-1.106 0v4.409a.553.553 0 1 0 1.106 0Zm0-8.819v-4.41a.553.553 0 0 0-1.106 0v4.41a.553.553 0 1 0 1.106 0Zm0-8.82v-4.409a.553.553 0 0 0-1.106 0v4.409a.552.552 0 1 0 1.106 0Zm0-8.819v-1.658h1.658a.552.552 0 0 0 0-1.106h-2.212a.554.554 0 0 0-.552.553v2.211a.553.553 0 1 0 1.106 0Zm6.161-1.658h4.501a.553.553 0 1 0 0-1.106h-4.501a.553.553 0 0 0 0 1.106Zm9.001 0h4.5a.553.553 0 1 0 0-1.106h-4.5a.553.553 0 1 0 0 1.106Zm9 0h4.5a.552.552 0 1 0 0-1.106h-4.5a.554.554 0 0 0 0 1.106Zm9.001 0h4.499a.553.553 0 1 0 0-1.106h-4.499a.552.552 0 1 0 0 1.106Zm9 0h4.5a.552.552 0 0 0 0-1.106h-4.5a.554.554 0 0 0 0 1.106Zm9 0h4.5a.552.552 0 0 0 0-1.106h-4.5a.554.554 0 0 0 0 1.106Zm9 0h4.501a.552.552 0 0 0 0-1.106h-4.501a.554.554 0 0 0 0 1.106Zm9 0h4.501a.553.553 0 1 0 0-1.106h-4.501a.553.553 0 0 0 0 1.106Zm9 0h4.501a.552.552 0 1 0 0-1.106h-4.501a.553.553 0 0 0 0 1.106Zm9.001 0h4.5a.552.552 0 1 0 0-1.106h-4.5a.554.554 0 1 0 0 1.106Zm9.001 0h4.499a.553.553 0 1 0 0-1.106h-4.499a.552.552 0 1 0 0 1.106Zm9 0h4.5a.552.552 0 0 0 0-1.106h-4.5a.554.554 0 0 0 0 1.106Zm9 0h4.501a.552.552 0 0 0 0-1.106h-4.501a.554.554 0 0 0 0 1.106Zm9 0h4.501a.552.552 0 0 0 0-1.106h-4.501a.554.554 0 0 0 0 1.106Zm9 0h4.501a.553.553 0 1 0 0-1.106h-4.501a.553.553 0 0 0 0 1.106Zm9 0h4.501a.553.553 0 1 0 0-1.106h-4.501a.554.554 0 0 0 0 1.106Zm9.001 0h4.5a.553.553 0 1 0 0-1.106h-4.5a.553.553 0 0 0 0 1.106Zm9.003 0h1.659v1.658a.552.552 0 1 0 1.105 0v-2.211a.554.554 0 0 0-.552-.553h-2.212a.553.553 0 0 0 0 1.106Zm1.655 6.068v4.41a.553.553 0 1 0 1.105 0v-4.41a.553.553 0 1 0-1.105 0Zm0 8.819v4.41a.553.553 0 1 0 1.105 0v-4.41a.553.553 0 1 0-1.105 0Zm0 8.82v4.409a.553.553 0 1 0 1.105 0v-4.409a.551.551 0 1 0-1.105 0Zm0 8.819v4.409a.552.552 0 1 0 1.105 0v-4.409a.553.553 0 1 0-1.105 0Zm0 8.818v4.411a.552.552 0 0 0 1.105 0v-4.411a.552.552 0 1 0-1.105 0Zm0 8.821v4.408a.552.552 0 1 0 1.105 0v-4.408a.552.552 0 1 0-1.105 0Zm0 8.818v4.41a.553.553 0 1 0 1.105 0v-4.41a.553.553 0 1 0-1.105 0Z" fill="#1C1C20" stroke="#1C1C20" stroke-width=".5" stroke-miterlimit="22.926"/><path d="m278.498 193.789-3.482 2.102.917-3.963-3.074-2.667 4.056-.342 1.583-3.741 1.583 3.741 4.056.342-3.074 2.667.916 3.963-3.481-2.102Zm9.259-5.694-6.657-.565-2.602-6.139-2.602 6.139-6.658.565 5.047 4.379-1.509 6.51 5.722-3.454 5.722 3.454-1.518-6.51 5.055-4.379Zm13.163 68.573-3.482 2.102.917-3.963-3.074-2.667 4.056-.342 1.583-3.741 1.583 3.741 4.056.342-3.075 2.667.917 3.963-3.481-2.102Zm9.259-5.694-6.657-.565-2.602-6.139-2.602 6.139-6.658.565 5.046 4.379-1.509 6.51 5.723-3.454 5.722 3.454-1.519-6.51 5.056-4.379Zm7.135 67.6-3.481 2.102.916-3.963-3.074-2.667 4.056-.342 1.583-3.741 1.583 3.741 4.056.342-3.074 2.667.917 3.963-3.482-2.102Zm9.26-5.694-6.658-.565-2.602-6.139-2.602 6.139-6.657.565 5.046 4.379-1.509 6.51 5.722-3.454 5.723 3.454-1.519-6.51 5.056-4.379Z" fill="#000"/><path d="m645.754 253.551 23.997 6.602-12.034 3.504-1.111 11.944-10.852-22.05Zm-26.367-13.123h15.76v-15.76h-15.76v15.76Z" fill="#1C1C20"/><path d="m686.753 224.671-16.401-14.122-23.857 11.622a1.054 1.054 0 0 1-1.249-.244l-28.302-31.376-11.456 6.675v-2.449l11.136-6.487a1.06 1.06 0 0 1 1.316.208l28.343 31.421 23.767-11.579a1.075 1.075 0 0 1 1.151.15l18.791 16.181h-3.239Zm-3.252-39.233a10.21 10.21 0 0 0 2.997 7.241 10.268 10.268 0 0 0 3.325 2.224c1.204.499 2.528.774 3.919.774s2.714-.275 3.918-.774a10.274 10.274 0 0 0 5.548-5.547c.499-1.204.774-2.528.774-3.918 0-1.392-.275-2.716-.774-3.919a10.236 10.236 0 0 0-2.225-3.323 10.189 10.189 0 0 0-7.241-3 10.201 10.201 0 0 0-7.244 2.999 10.296 10.296 0 0 0-2.224 3.324 10.242 10.242 0 0 0-.773 3.919Zm-2.118 0c0-3.413 1.384-6.503 3.62-8.74a12.323 12.323 0 0 1 8.739-3.62c3.412 0 6.501 1.384 8.738 3.62a12.325 12.325 0 0 1 3.62 8.74 12.32 12.32 0 0 1-3.62 8.737 12.322 12.322 0 0 1-8.738 3.62 12.323 12.323 0 0 1-8.739-3.62 12.32 12.32 0 0 1-3.62-8.737Z" fill="#166FF5"/></svg>