<svg width="114" height="56" viewBox="0 0 114 56" fill="none" xmlns="http://www.w3.org/2000/svg">
<path d="M27.88 28.14C27.1333 28.14 26.438 28.0187 25.794 27.776C25.1593 27.524 24.604 27.174 24.128 26.726C23.6613 26.2687 23.2973 25.732 23.036 25.116C22.7747 24.5 22.644 23.828 22.644 23.1C22.644 22.372 22.7747 21.7 23.036 21.084C23.2973 20.468 23.666 19.936 24.142 19.488C24.618 19.0307 25.1733 18.6807 25.808 18.438C26.4427 18.186 27.138 18.06 27.894 18.06C28.6967 18.06 29.4293 18.2 30.092 18.48C30.7547 18.7507 31.3147 19.1567 31.772 19.698L30.596 20.804C30.2413 20.4213 29.8447 20.1367 29.406 19.95C28.9673 19.754 28.4913 19.656 27.978 19.656C27.4647 19.656 26.9933 19.74 26.564 19.908C26.144 20.076 25.7753 20.314 25.458 20.622C25.15 20.93 24.9073 21.294 24.73 21.714C24.562 22.134 24.478 22.596 24.478 23.1C24.478 23.604 24.562 24.066 24.73 24.486C24.9073 24.906 25.15 25.27 25.458 25.578C25.7753 25.886 26.144 26.124 26.564 26.292C26.9933 26.46 27.4647 26.544 27.978 26.544C28.4913 26.544 28.9673 26.4507 29.406 26.264C29.8447 26.068 30.2413 25.774 30.596 25.382L31.772 26.502C31.3147 27.034 30.7547 27.44 30.092 27.72C29.4293 28 28.692 28.14 27.88 28.14ZM32.9858 28V20.524H40.1538V28H38.4178V21.602L38.8238 22.008H34.3298L34.7358 21.602V28H32.9858ZM45.7211 28.098C44.8905 28.098 44.1625 27.9347 43.5371 27.608C42.9211 27.272 42.4405 26.8147 42.0951 26.236C41.7591 25.6573 41.5911 24.9993 41.5911 24.262C41.5911 23.5153 41.7545 22.8573 42.0811 22.288C42.4171 21.7093 42.8745 21.2567 43.4531 20.93C44.0411 20.6033 44.7085 20.44 45.4551 20.44C46.1831 20.44 46.8318 20.5987 47.4011 20.916C47.9705 21.2333 48.4185 21.6813 48.7451 22.26C49.0718 22.8387 49.2351 23.52 49.2351 24.304C49.2351 24.3787 49.2305 24.4627 49.2211 24.556C49.2211 24.6493 49.2165 24.738 49.2071 24.822H42.9771V23.66H48.2831L47.5971 24.024C47.6065 23.5947 47.5178 23.2167 47.3311 22.89C47.1445 22.5633 46.8878 22.3067 46.5611 22.12C46.2438 21.9333 45.8751 21.84 45.4551 21.84C45.0258 21.84 44.6478 21.9333 44.3211 22.12C44.0038 22.3067 43.7518 22.568 43.5651 22.904C43.3878 23.2307 43.2991 23.618 43.2991 24.066V24.346C43.2991 24.794 43.4018 25.1907 43.6071 25.536C43.8125 25.8813 44.1018 26.1473 44.4751 26.334C44.8485 26.5207 45.2778 26.614 45.7631 26.614C46.1831 26.614 46.5611 26.5487 46.8971 26.418C47.2331 26.2873 47.5318 26.082 47.7931 25.802L48.7311 26.88C48.3951 27.272 47.9705 27.5753 47.4571 27.79C46.9531 27.9953 46.3745 28.098 45.7211 28.098ZM50.8692 28V20.524H52.6192V26.516H56.1892V20.524H57.9392V28H50.8692ZM57.4352 29.666V27.958L57.8412 28H56.1892V26.516H59.0732V29.666H57.4352ZM60.3509 28V20.524H62.1009V25.452L66.2309 20.524H67.8269V28H66.0769V23.072L61.9609 28H60.3509ZM74.437 28V26.488L74.339 26.166V23.52C74.339 23.0067 74.185 22.61 73.877 22.33C73.569 22.0407 73.1023 21.896 72.477 21.896C72.057 21.896 71.6417 21.9613 71.231 22.092C70.8297 22.2227 70.489 22.4047 70.209 22.638L69.523 21.364C69.9243 21.056 70.4003 20.8273 70.951 20.678C71.511 20.5193 72.0897 20.44 72.687 20.44C73.7697 20.44 74.605 20.7013 75.193 21.224C75.7903 21.7373 76.089 22.5353 76.089 23.618V28H74.437ZM72.085 28.098C71.525 28.098 71.035 28.0047 70.615 27.818C70.195 27.622 69.8683 27.356 69.635 27.02C69.411 26.6747 69.299 26.2873 69.299 25.858C69.299 25.438 69.397 25.06 69.593 24.724C69.7983 24.388 70.1297 24.122 70.587 23.926C71.0443 23.73 71.651 23.632 72.407 23.632H74.577V24.794H72.533C71.9357 24.794 71.5343 24.892 71.329 25.088C71.1237 25.2747 71.021 25.508 71.021 25.788C71.021 26.1053 71.147 26.3573 71.399 26.544C71.651 26.7307 72.001 26.824 72.449 26.824C72.8783 26.824 73.261 26.726 73.597 26.53C73.9423 26.334 74.1897 26.0447 74.339 25.662L74.633 26.712C74.465 27.1507 74.1617 27.4913 73.723 27.734C73.2937 27.9767 72.7477 28.098 72.085 28.098ZM76.8825 27.986L76.9665 26.516C77.0318 26.5253 77.0925 26.5347 77.1485 26.544C77.2045 26.5533 77.2558 26.558 77.3025 26.558C77.5918 26.558 77.8158 26.4693 77.9745 26.292C78.1332 26.1147 78.2498 25.8767 78.3245 25.578C78.4085 25.27 78.4645 24.9293 78.4925 24.556C78.5298 24.1733 78.5578 23.7907 78.5765 23.408L78.7025 20.524H84.7505V28H83.0005V21.532L83.4065 22.008H79.8505L80.2285 21.518L80.1305 23.492C80.1025 24.1547 80.0465 24.7707 79.9625 25.34C79.8878 25.9 79.7665 26.39 79.5985 26.81C79.4398 27.23 79.2158 27.5567 78.9265 27.79C78.6465 28.0233 78.2872 28.14 77.8485 28.14C77.7085 28.14 77.5545 28.126 77.3865 28.098C77.2278 28.07 77.0598 28.0327 76.8825 27.986ZM86.8273 28V20.524H88.5773V25.452L92.7073 20.524H94.3033V28H92.5533V23.072L88.4373 28H86.8273ZM99.7794 28.098C98.9954 28.098 98.2954 27.9347 97.6794 27.608C97.0727 27.272 96.5967 26.8147 96.2514 26.236C95.9061 25.6573 95.7334 24.9993 95.7334 24.262C95.7334 23.5153 95.9061 22.8573 96.2514 22.288C96.5967 21.7093 97.0727 21.2567 97.6794 20.93C98.2954 20.6033 98.9954 20.44 99.7794 20.44C100.507 20.44 101.147 20.5893 101.697 20.888C102.257 21.1773 102.682 21.6067 102.971 22.176L101.627 22.96C101.403 22.6053 101.128 22.344 100.801 22.176C100.484 22.008 100.139 21.924 99.7654 21.924C99.3361 21.924 98.9487 22.0173 98.6034 22.204C98.2581 22.3907 97.9874 22.6613 97.7914 23.016C97.5954 23.3613 97.4974 23.7767 97.4974 24.262C97.4974 24.7473 97.5954 25.1673 97.7914 25.522C97.9874 25.8673 98.2581 26.1333 98.6034 26.32C98.9487 26.5067 99.3361 26.6 99.7654 26.6C100.139 26.6 100.484 26.516 100.801 26.348C101.128 26.18 101.403 25.9187 101.627 25.564L102.971 26.348C102.682 26.908 102.257 27.342 101.697 27.65C101.147 27.9487 100.507 28.098 99.7794 28.098ZM105.718 28V21.588L106.124 22.008H103.086V20.524H110.086V22.008H107.062L107.468 21.588V28H105.718ZM23.176 45V37.524H30.344V45H28.608V38.602L29.014 39.008H24.52L24.926 38.602V45H23.176ZM35.7573 45.098C34.992 45.098 34.3106 44.9347 33.7133 44.608C33.116 44.272 32.6446 43.8147 32.2993 43.236C31.954 42.6573 31.7813 41.9993 31.7813 41.262C31.7813 40.5153 31.954 39.8573 32.2993 39.288C32.6446 38.7093 33.116 38.2567 33.7133 37.93C34.3106 37.6033 34.992 37.44 35.7573 37.44C36.532 37.44 37.218 37.6033 37.8153 37.93C38.422 38.2567 38.8933 38.7047 39.2293 39.274C39.5746 39.8433 39.7473 40.506 39.7473 41.262C39.7473 41.9993 39.5746 42.6573 39.2293 43.236C38.8933 43.8147 38.422 44.272 37.8153 44.608C37.218 44.9347 36.532 45.098 35.7573 45.098ZM35.7573 43.6C36.1866 43.6 36.5693 43.5067 36.9053 43.32C37.2413 43.1333 37.5026 42.8627 37.6893 42.508C37.8853 42.1533 37.9833 41.738 37.9833 41.262C37.9833 40.7767 37.8853 40.3613 37.6893 40.016C37.5026 39.6613 37.2413 39.3907 36.9053 39.204C36.5693 39.0173 36.1913 38.924 35.7713 38.924C35.342 38.924 34.9593 39.0173 34.6233 39.204C34.2966 39.3907 34.0353 39.6613 33.8393 40.016C33.6433 40.3613 33.5453 40.7767 33.5453 41.262C33.5453 41.738 33.6433 42.1533 33.8393 42.508C34.0353 42.8627 34.2966 43.1333 34.6233 43.32C34.9593 43.5067 35.3373 43.6 35.7573 43.6ZM48.9292 45.098C48.3226 45.098 47.7672 44.958 47.2632 44.678C46.7686 44.398 46.3719 43.978 46.0732 43.418C45.7839 42.8487 45.6392 42.13 45.6392 41.262C45.6392 40.3847 45.7792 39.666 46.0592 39.106C46.3486 38.546 46.7406 38.1307 47.2352 37.86C47.7299 37.58 48.2946 37.44 48.9292 37.44C49.6666 37.44 50.3152 37.5987 50.8752 37.916C51.4446 38.2333 51.8926 38.6767 52.2192 39.246C52.5552 39.8153 52.7232 40.4873 52.7232 41.262C52.7232 42.0367 52.5552 42.7133 52.2192 43.292C51.8926 43.8613 51.4446 44.3047 50.8752 44.622C50.3152 44.9393 49.6666 45.098 48.9292 45.098ZM44.7852 47.716V37.524H46.4512V39.288L46.3952 41.276L46.5352 43.264V47.716H44.7852ZM48.7332 43.6C49.1532 43.6 49.5266 43.5067 49.8532 43.32C50.1892 43.1333 50.4552 42.8627 50.6512 42.508C50.8472 42.1533 50.9452 41.738 50.9452 41.262C50.9452 40.7767 50.8472 40.3613 50.6512 40.016C50.4552 39.6613 50.1892 39.3907 49.8532 39.204C49.5266 39.0173 49.1532 38.924 48.7332 38.924C48.3132 38.924 47.9352 39.0173 47.5992 39.204C47.2632 39.3907 46.9972 39.6613 46.8012 40.016C46.6052 40.3613 46.5072 40.7767 46.5072 41.262C46.5072 41.738 46.6052 42.1533 46.8012 42.508C46.9972 42.8627 47.2632 43.1333 47.5992 43.32C47.9352 43.5067 48.3132 43.6 48.7332 43.6ZM57.6709 45.098C56.8402 45.098 56.1122 44.9347 55.4869 44.608C54.8709 44.272 54.3902 43.8147 54.0449 43.236C53.7089 42.6573 53.5409 41.9993 53.5409 41.262C53.5409 40.5153 53.7042 39.8573 54.0309 39.288C54.3669 38.7093 54.8242 38.2567 55.4029 37.93C55.9909 37.6033 56.6582 37.44 57.4049 37.44C58.1329 37.44 58.7816 37.5987 59.3509 37.916C59.9202 38.2333 60.3682 38.6813 60.6949 39.26C61.0216 39.8387 61.1849 40.52 61.1849 41.304C61.1849 41.3787 61.1802 41.4627 61.1709 41.556C61.1709 41.6493 61.1662 41.738 61.1569 41.822H54.9269V40.66H60.2329L59.5469 41.024C59.5562 40.5947 59.4676 40.2167 59.2809 39.89C59.0942 39.5633 58.8376 39.3067 58.5109 39.12C58.1936 38.9333 57.8249 38.84 57.4049 38.84C56.9756 38.84 56.5976 38.9333 56.2709 39.12C55.9536 39.3067 55.7016 39.568 55.5149 39.904C55.3376 40.2307 55.2489 40.618 55.2489 41.066V41.346C55.2489 41.794 55.3516 42.1907 55.5569 42.536C55.7622 42.8813 56.0516 43.1473 56.4249 43.334C56.7982 43.5207 57.2276 43.614 57.7129 43.614C58.1329 43.614 58.5109 43.5487 58.8469 43.418C59.1829 43.2873 59.4816 43.082 59.7429 42.802L60.6809 43.88C60.3449 44.272 59.9202 44.5753 59.4069 44.79C58.9029 44.9953 58.3242 45.098 57.6709 45.098ZM68.181 45L65.479 41.416L66.907 40.534L70.239 45H68.181ZM62.819 45V37.524H64.569V45H62.819ZM64.051 42.004V40.548H66.585V42.004H64.051ZM67.075 41.472L65.437 41.276L68.181 37.524H70.057L67.075 41.472ZM70.1013 44.986L70.1853 43.516C70.2506 43.5253 70.3113 43.5347 70.3673 43.544C70.4233 43.5533 70.4746 43.558 70.5213 43.558C70.8106 43.558 71.0346 43.4693 71.1933 43.292C71.3519 43.1147 71.4686 42.8767 71.5433 42.578C71.6273 42.27 71.6833 41.9293 71.7113 41.556C71.7486 41.1733 71.7766 40.7907 71.7953 40.408L71.9213 37.524H77.9693V45H76.2193V38.532L76.6253 39.008H73.0693L73.4473 38.518L73.3493 40.492C73.3213 41.1547 73.2653 41.7707 73.1813 42.34C73.1066 42.9 72.9853 43.39 72.8173 43.81C72.6586 44.23 72.4346 44.5567 72.1453 44.79C71.8653 45.0233 71.5059 45.14 71.0673 45.14C70.9273 45.14 70.7733 45.126 70.6053 45.098C70.4466 45.07 70.2786 45.0327 70.1013 44.986ZM84.5821 45V43.488L84.4841 43.166V40.52C84.4841 40.0067 84.3301 39.61 84.0221 39.33C83.7141 39.0407 83.2474 38.896 82.6221 38.896C82.2021 38.896 81.7867 38.9613 81.3761 39.092C80.9747 39.2227 80.6341 39.4047 80.3541 39.638L79.6681 38.364C80.0694 38.056 80.5454 37.8273 81.0961 37.678C81.6561 37.5193 82.2347 37.44 82.8321 37.44C83.9147 37.44 84.7501 37.7013 85.3381 38.224C85.9354 38.7373 86.2341 39.5353 86.2341 40.618V45H84.5821ZM82.2301 45.098C81.6701 45.098 81.1801 45.0047 80.7601 44.818C80.3401 44.622 80.0134 44.356 79.7801 44.02C79.5561 43.6747 79.4441 43.2873 79.4441 42.858C79.4441 42.438 79.5421 42.06 79.7381 41.724C79.9434 41.388 80.2747 41.122 80.7321 40.926C81.1894 40.73 81.7961 40.632 82.5521 40.632H84.7221V41.794H82.6781C82.0807 41.794 81.6794 41.892 81.4741 42.088C81.2687 42.2747 81.1661 42.508 81.1661 42.788C81.1661 43.1053 81.2921 43.3573 81.5441 43.544C81.7961 43.7307 82.1461 43.824 82.5941 43.824C83.0234 43.824 83.4061 43.726 83.7421 43.53C84.0874 43.334 84.3347 43.0447 84.4841 42.662L84.7781 43.712C84.6101 44.1507 84.3067 44.4913 83.8681 44.734C83.4387 44.9767 82.8927 45.098 82.2301 45.098ZM88.1196 45V37.524H89.9536L92.9636 42.83H92.2356L95.3996 37.524H97.0376L97.0516 45H95.4696V39.4L95.7496 39.582L92.9496 44.216H92.1936L89.3796 39.456L89.7156 39.372V45H88.1196ZM102.605 45.098C101.774 45.098 101.046 44.9347 100.421 44.608C99.8049 44.272 99.3242 43.8147 98.9789 43.236C98.6429 42.6573 98.4749 41.9993 98.4749 41.262C98.4749 40.5153 98.6382 39.8573 98.9649 39.288C99.3009 38.7093 99.7582 38.2567 100.337 37.93C100.925 37.6033 101.592 37.44 102.339 37.44C103.067 37.44 103.716 37.5987 104.285 37.916C104.854 38.2333 105.302 38.6813 105.629 39.26C105.956 39.8387 106.119 40.52 106.119 41.304C106.119 41.3787 106.114 41.4627 106.105 41.556C106.105 41.6493 106.1 41.738 106.091 41.822H99.8609V40.66H105.167L104.481 41.024C104.49 40.5947 104.402 40.2167 104.215 39.89C104.028 39.5633 103.772 39.3067 103.445 39.12C103.128 38.9333 102.759 38.84 102.339 38.84C101.91 38.84 101.532 38.9333 101.205 39.12C100.888 39.3067 100.636 39.568 100.449 39.904C100.272 40.2307 100.183 40.618 100.183 41.066V41.346C100.183 41.794 100.286 42.1907 100.491 42.536C100.696 42.8813 100.986 43.1473 101.359 43.334C101.732 43.5207 102.162 43.614 102.647 43.614C103.067 43.614 103.445 43.5487 103.781 43.418C104.117 43.2873 104.416 43.082 104.677 42.802L105.615 43.88C105.279 44.272 104.854 44.5753 104.341 44.79C103.837 44.9953 103.258 45.098 102.605 45.098Z" fill="black"/>
<path fill-rule="evenodd" clip-rule="evenodd" d="M10.1874 7.34022L19.2386 4.18762L0.0550183 -0.000184152L9.77774 17.3455L10.1874 7.34022ZM8.651 12.6392L8.90685 6.39024L14.3933 4.47926L2.63884 1.91324L8.651 12.6392Z" fill="#8E8E93"/>
<path d="M15.75 42.5418L6.75 52.0418L2.625 47.6876L3.6825 46.5714L6.75 49.8014L14.6925 41.4255L15.75 42.5418Z" fill="#166FF5"/>
</svg>
