<svg width="118" height="76" viewBox="0 0 118 76" fill="none" xmlns="http://www.w3.org/2000/svg">
<path fill-rule="evenodd" clip-rule="evenodd" d="M15.1548 9.92144L27.389 5.66015L1.45913 -0.000382547L14.6011 23.4453L15.1548 9.92144ZM13.0781 17.0839L13.4239 8.63737L20.8398 6.05436L4.95161 2.58594L13.0781 17.0839Z" fill="#8E8E93"/>
<path d="M21.8283 57.4862L9.35475 69.9597L3.6377 64.2427L5.10334 62.777L9.35475 67.018L20.3627 56.0205L21.8283 57.4862Z" fill="#166FF5"/>
<path d="M31.88 34.139C31.1333 34.139 30.438 34.0177 29.794 33.775C29.1593 33.523 28.604 33.173 28.128 32.725C27.6613 32.2677 27.2973 31.731 27.036 31.115C26.7747 30.499 26.644 29.827 26.644 29.099C26.644 28.371 26.7747 27.699 27.036 27.083C27.2973 26.467 27.666 25.935 28.142 25.487C28.618 25.0297 29.1733 24.6797 29.808 24.437C30.4427 24.185 31.138 24.059 31.894 24.059C32.6967 24.059 33.4293 24.199 34.092 24.479C34.7547 24.7497 35.3147 25.1557 35.772 25.697L34.596 26.803C34.2413 26.4204 33.8447 26.1357 33.406 25.949C32.9673 25.753 32.4913 25.655 31.978 25.655C31.4647 25.655 30.9933 25.739 30.564 25.907C30.144 26.075 29.7753 26.313 29.458 26.621C29.15 26.929 28.9073 27.293 28.73 27.713C28.562 28.133 28.478 28.595 28.478 29.099C28.478 29.603 28.562 30.065 28.73 30.485C28.9073 30.905 29.15 31.269 29.458 31.577C29.7753 31.885 30.144 32.123 30.564 32.291C30.9933 32.459 31.4647 32.543 31.978 32.543C32.4913 32.543 32.9673 32.4497 33.406 32.263C33.8447 32.067 34.2413 31.773 34.596 31.381L35.772 32.501C35.3147 33.033 34.7547 33.439 34.092 33.719C33.4293 33.999 32.692 34.139 31.88 34.139ZM36.9858 33.999V26.523H44.1538V33.999H42.4178V27.601L42.8238 28.007H38.3298L38.7358 27.601V33.999H36.9858ZM49.7211 34.097C48.8905 34.097 48.1625 33.9337 47.5371 33.607C46.9211 33.271 46.4405 32.8137 46.0951 32.235C45.7591 31.6564 45.5911 30.9984 45.5911 30.261C45.5911 29.5144 45.7545 28.8564 46.0811 28.287C46.4171 27.7084 46.8745 27.2557 47.4531 26.929C48.0411 26.6024 48.7085 26.439 49.4551 26.439C50.1831 26.439 50.8318 26.5977 51.4011 26.915C51.9705 27.2324 52.4185 27.6804 52.7451 28.259C53.0718 28.8377 53.2351 29.519 53.2351 30.303C53.2351 30.3777 53.2305 30.4617 53.2211 30.555C53.2211 30.6484 53.2165 30.737 53.2071 30.821H46.9771V29.659H52.2831L51.5971 30.023C51.6065 29.5937 51.5178 29.2157 51.3311 28.889C51.1445 28.5624 50.8878 28.3057 50.5611 28.119C50.2438 27.9324 49.8751 27.839 49.4551 27.839C49.0258 27.839 48.6478 27.9324 48.3211 28.119C48.0038 28.3057 47.7518 28.567 47.5651 28.903C47.3878 29.2297 47.2991 29.617 47.2991 30.065V30.345C47.2991 30.793 47.4018 31.1897 47.6071 31.535C47.8125 31.8804 48.1018 32.1464 48.4751 32.333C48.8485 32.5197 49.2778 32.613 49.7631 32.613C50.1831 32.613 50.5611 32.5477 50.8971 32.417C51.2331 32.2864 51.5318 32.081 51.7931 31.801L52.7311 32.879C52.3951 33.271 51.9705 33.5744 51.4571 33.789C50.9531 33.9944 50.3745 34.097 49.7211 34.097ZM54.8692 33.999V26.523H56.6192V32.515H60.1892V26.523H61.9392V33.999H54.8692ZM61.4352 35.665V33.957L61.8412 33.999H60.1892V32.515H63.0732V35.665H61.4352ZM64.3509 33.999V26.523H66.1009V31.451L70.2309 26.523H71.8269V33.999H70.0769V29.071L65.9609 33.999H64.3509ZM78.437 33.999V32.487L78.339 32.165V29.519C78.339 29.0057 78.185 28.609 77.877 28.329C77.569 28.0397 77.1023 27.895 76.477 27.895C76.057 27.895 75.6417 27.9604 75.231 28.091C74.8297 28.2217 74.489 28.4037 74.209 28.637L73.523 27.363C73.9243 27.055 74.4003 26.8264 74.951 26.677C75.511 26.5184 76.0897 26.439 76.687 26.439C77.7697 26.439 78.605 26.7004 79.193 27.223C79.7903 27.7364 80.089 28.5344 80.089 29.617V33.999H78.437ZM76.085 34.097C75.525 34.097 75.035 34.0037 74.615 33.817C74.195 33.621 73.8683 33.355 73.635 33.019C73.411 32.6737 73.299 32.2864 73.299 31.857C73.299 31.437 73.397 31.059 73.593 30.723C73.7983 30.387 74.1297 30.121 74.587 29.925C75.0443 29.729 75.651 29.631 76.407 29.631H78.577V30.793H76.533C75.9357 30.793 75.5343 30.891 75.329 31.087C75.1237 31.2737 75.021 31.507 75.021 31.787C75.021 32.1044 75.147 32.3564 75.399 32.543C75.651 32.7297 76.001 32.823 76.449 32.823C76.8783 32.823 77.261 32.725 77.597 32.529C77.9423 32.333 78.1897 32.0437 78.339 31.661L78.633 32.711C78.465 33.1497 78.1617 33.4904 77.723 33.733C77.2937 33.9757 76.7477 34.097 76.085 34.097ZM80.8825 33.985L80.9665 32.515C81.0318 32.5244 81.0925 32.5337 81.1485 32.543C81.2045 32.5524 81.2558 32.557 81.3025 32.557C81.5918 32.557 81.8158 32.4684 81.9745 32.291C82.1332 32.1137 82.2498 31.8757 82.3245 31.577C82.4085 31.269 82.4645 30.9284 82.4925 30.555C82.5298 30.1724 82.5578 29.7897 82.5765 29.407L82.7025 26.523H88.7505V33.999H87.0005V27.531L87.4065 28.007H83.8505L84.2285 27.517L84.1305 29.491C84.1025 30.1537 84.0465 30.7697 83.9625 31.339C83.8878 31.899 83.7665 32.389 83.5985 32.809C83.4398 33.229 83.2158 33.5557 82.9265 33.789C82.6465 34.0224 82.2872 34.139 81.8485 34.139C81.7085 34.139 81.5545 34.125 81.3865 34.097C81.2278 34.069 81.0598 34.0317 80.8825 33.985ZM90.8273 33.999V26.523H92.5773V31.451L96.7073 26.523H98.3033V33.999H96.5533V29.071L92.4373 33.999H90.8273ZM103.779 34.097C102.995 34.097 102.295 33.9337 101.679 33.607C101.073 33.271 100.597 32.8137 100.251 32.235C99.9061 31.6564 99.7334 30.9984 99.7334 30.261C99.7334 29.5144 99.9061 28.8564 100.251 28.287C100.597 27.7084 101.073 27.2557 101.679 26.929C102.295 26.6024 102.995 26.439 103.779 26.439C104.507 26.439 105.147 26.5884 105.697 26.887C106.257 27.1764 106.682 27.6057 106.971 28.175L105.627 28.959C105.403 28.6044 105.128 28.343 104.801 28.175C104.484 28.007 104.139 27.923 103.765 27.923C103.336 27.923 102.949 28.0164 102.603 28.203C102.258 28.3897 101.987 28.6604 101.791 29.015C101.595 29.3604 101.497 29.7757 101.497 30.261C101.497 30.7464 101.595 31.1664 101.791 31.521C101.987 31.8664 102.258 32.1324 102.603 32.319C102.949 32.5057 103.336 32.599 103.765 32.599C104.139 32.599 104.484 32.515 104.801 32.347C105.128 32.179 105.403 31.9177 105.627 31.563L106.971 32.347C106.682 32.907 106.257 33.341 105.697 33.649C105.147 33.9477 104.507 34.097 103.779 34.097ZM109.718 33.999V27.587L110.124 28.007H107.086V26.523H114.086V28.007H111.062L111.468 27.587V33.999H109.718ZM27.176 50.999V43.523H34.344V50.999H32.608V44.601L33.014 45.007H28.52L28.926 44.601V50.999H27.176ZM39.7573 51.097C38.992 51.097 38.3106 50.9337 37.7133 50.607C37.116 50.271 36.6446 49.8137 36.2993 49.235C35.954 48.6564 35.7813 47.9984 35.7813 47.261C35.7813 46.5144 35.954 45.8564 36.2993 45.287C36.6446 44.7084 37.116 44.2557 37.7133 43.929C38.3106 43.6024 38.992 43.439 39.7573 43.439C40.532 43.439 41.218 43.6024 41.8153 43.929C42.422 44.2557 42.8933 44.7037 43.2293 45.273C43.5746 45.8424 43.7473 46.505 43.7473 47.261C43.7473 47.9984 43.5746 48.6564 43.2293 49.235C42.8933 49.8137 42.422 50.271 41.8153 50.607C41.218 50.9337 40.532 51.097 39.7573 51.097ZM39.7573 49.599C40.1866 49.599 40.5693 49.5057 40.9053 49.319C41.2413 49.1324 41.5026 48.8617 41.6893 48.507C41.8853 48.1524 41.9833 47.737 41.9833 47.261C41.9833 46.7757 41.8853 46.3604 41.6893 46.015C41.5026 45.6604 41.2413 45.3897 40.9053 45.203C40.5693 45.0164 40.1913 44.923 39.7713 44.923C39.342 44.923 38.9593 45.0164 38.6233 45.203C38.2966 45.3897 38.0353 45.6604 37.8393 46.015C37.6433 46.3604 37.5453 46.7757 37.5453 47.261C37.5453 47.737 37.6433 48.1524 37.8393 48.507C38.0353 48.8617 38.2966 49.1324 38.6233 49.319C38.9593 49.5057 39.3373 49.599 39.7573 49.599ZM52.9292 51.097C52.3226 51.097 51.7672 50.957 51.2632 50.677C50.7686 50.397 50.3719 49.977 50.0732 49.417C49.7839 48.8477 49.6392 48.129 49.6392 47.261C49.6392 46.3837 49.7792 45.665 50.0592 45.105C50.3486 44.545 50.7406 44.1297 51.2352 43.859C51.7299 43.579 52.2946 43.439 52.9292 43.439C53.6666 43.439 54.3152 43.5977 54.8752 43.915C55.4446 44.2324 55.8926 44.6757 56.2192 45.245C56.5552 45.8144 56.7232 46.4864 56.7232 47.261C56.7232 48.0357 56.5552 48.7124 56.2192 49.291C55.8926 49.8604 55.4446 50.3037 54.8752 50.621C54.3152 50.9384 53.6666 51.097 52.9292 51.097ZM48.7852 53.715V43.523H50.4512V45.287L50.3952 47.275L50.5352 49.263V53.715H48.7852ZM52.7332 49.599C53.1532 49.599 53.5266 49.5057 53.8532 49.319C54.1892 49.1324 54.4552 48.8617 54.6512 48.507C54.8472 48.1524 54.9452 47.737 54.9452 47.261C54.9452 46.7757 54.8472 46.3604 54.6512 46.015C54.4552 45.6604 54.1892 45.3897 53.8532 45.203C53.5266 45.0164 53.1532 44.923 52.7332 44.923C52.3132 44.923 51.9352 45.0164 51.5992 45.203C51.2632 45.3897 50.9972 45.6604 50.8012 46.015C50.6052 46.3604 50.5072 46.7757 50.5072 47.261C50.5072 47.737 50.6052 48.1524 50.8012 48.507C50.9972 48.8617 51.2632 49.1324 51.5992 49.319C51.9352 49.5057 52.3132 49.599 52.7332 49.599ZM61.6709 51.097C60.8402 51.097 60.1122 50.9337 59.4869 50.607C58.8709 50.271 58.3902 49.8137 58.0449 49.235C57.7089 48.6564 57.5409 47.9984 57.5409 47.261C57.5409 46.5144 57.7042 45.8564 58.0309 45.287C58.3669 44.7084 58.8242 44.2557 59.4029 43.929C59.9909 43.6024 60.6582 43.439 61.4049 43.439C62.1329 43.439 62.7816 43.5977 63.3509 43.915C63.9202 44.2324 64.3682 44.6804 64.6949 45.259C65.0216 45.8377 65.1849 46.519 65.1849 47.303C65.1849 47.3777 65.1802 47.4617 65.1709 47.555C65.1709 47.6484 65.1662 47.737 65.1569 47.821H58.9269V46.659H64.2329L63.5469 47.023C63.5562 46.5937 63.4676 46.2157 63.2809 45.889C63.0942 45.5624 62.8376 45.3057 62.5109 45.119C62.1936 44.9324 61.8249 44.839 61.4049 44.839C60.9756 44.839 60.5976 44.9324 60.2709 45.119C59.9536 45.3057 59.7016 45.567 59.5149 45.903C59.3376 46.2297 59.2489 46.617 59.2489 47.065V47.345C59.2489 47.793 59.3516 48.1897 59.5569 48.535C59.7622 48.8804 60.0516 49.1464 60.4249 49.333C60.7982 49.5197 61.2276 49.613 61.7129 49.613C62.1329 49.613 62.5109 49.5477 62.8469 49.417C63.1829 49.2864 63.4816 49.081 63.7429 48.801L64.6809 49.879C64.3449 50.271 63.9202 50.5744 63.4069 50.789C62.9029 50.9944 62.3242 51.097 61.6709 51.097ZM72.181 50.999L69.479 47.415L70.907 46.533L74.239 50.999H72.181ZM66.819 50.999V43.523H68.569V50.999H66.819ZM68.051 48.003V46.547H70.585V48.003H68.051ZM71.075 47.471L69.437 47.275L72.181 43.523H74.057L71.075 47.471ZM74.1013 50.985L74.1853 49.515C74.2506 49.5244 74.3113 49.5337 74.3673 49.543C74.4233 49.5524 74.4746 49.557 74.5213 49.557C74.8106 49.557 75.0346 49.4684 75.1933 49.291C75.3519 49.1137 75.4686 48.8757 75.5433 48.577C75.6273 48.269 75.6833 47.9284 75.7113 47.555C75.7486 47.1724 75.7766 46.7897 75.7953 46.407L75.9213 43.523H81.9693V50.999H80.2193V44.531L80.6253 45.007H77.0693L77.4473 44.517L77.3493 46.491C77.3213 47.1537 77.2653 47.7697 77.1813 48.339C77.1066 48.899 76.9853 49.389 76.8173 49.809C76.6586 50.229 76.4346 50.5557 76.1453 50.789C75.8653 51.0224 75.5059 51.139 75.0673 51.139C74.9273 51.139 74.7733 51.125 74.6053 51.097C74.4466 51.069 74.2786 51.0317 74.1013 50.985ZM88.5821 50.999V49.487L88.4841 49.165V46.519C88.4841 46.0057 88.3301 45.609 88.0221 45.329C87.7141 45.0397 87.2474 44.895 86.6221 44.895C86.2021 44.895 85.7867 44.9604 85.3761 45.091C84.9747 45.2217 84.6341 45.4037 84.3541 45.637L83.6681 44.363C84.0694 44.055 84.5454 43.8264 85.0961 43.677C85.6561 43.5184 86.2347 43.439 86.8321 43.439C87.9147 43.439 88.7501 43.7004 89.3381 44.223C89.9354 44.7364 90.2341 45.5344 90.2341 46.617V50.999H88.5821ZM86.2301 51.097C85.6701 51.097 85.1801 51.0037 84.7601 50.817C84.3401 50.621 84.0134 50.355 83.7801 50.019C83.5561 49.6737 83.4441 49.2864 83.4441 48.857C83.4441 48.437 83.5421 48.059 83.7381 47.723C83.9434 47.387 84.2747 47.121 84.7321 46.925C85.1894 46.729 85.7961 46.631 86.5521 46.631H88.7221V47.793H86.6781C86.0807 47.793 85.6794 47.891 85.4741 48.087C85.2687 48.2737 85.1661 48.507 85.1661 48.787C85.1661 49.1044 85.2921 49.3564 85.5441 49.543C85.7961 49.7297 86.1461 49.823 86.5941 49.823C87.0234 49.823 87.4061 49.725 87.7421 49.529C88.0874 49.333 88.3347 49.0437 88.4841 48.661L88.7781 49.711C88.6101 50.1497 88.3067 50.4904 87.8681 50.733C87.4387 50.9757 86.8927 51.097 86.2301 51.097ZM92.1196 50.999V43.523H93.9536L96.9636 48.829H96.2356L99.3996 43.523H101.038L101.052 50.999H99.4696V45.399L99.7496 45.581L96.9496 50.215H96.1936L93.3796 45.455L93.7156 45.371V50.999H92.1196ZM106.605 51.097C105.774 51.097 105.046 50.9337 104.421 50.607C103.805 50.271 103.324 49.8137 102.979 49.235C102.643 48.6564 102.475 47.9984 102.475 47.261C102.475 46.5144 102.638 45.8564 102.965 45.287C103.301 44.7084 103.758 44.2557 104.337 43.929C104.925 43.6024 105.592 43.439 106.339 43.439C107.067 43.439 107.716 43.5977 108.285 43.915C108.854 44.2324 109.302 44.6804 109.629 45.259C109.956 45.8377 110.119 46.519 110.119 47.303C110.119 47.3777 110.114 47.4617 110.105 47.555C110.105 47.6484 110.1 47.737 110.091 47.821H103.861V46.659H109.167L108.481 47.023C108.49 46.5937 108.402 46.2157 108.215 45.889C108.028 45.5624 107.772 45.3057 107.445 45.119C107.128 44.9324 106.759 44.839 106.339 44.839C105.91 44.839 105.532 44.9324 105.205 45.119C104.888 45.3057 104.636 45.567 104.449 45.903C104.272 46.2297 104.183 46.617 104.183 47.065V47.345C104.183 47.793 104.286 48.1897 104.491 48.535C104.696 48.8804 104.986 49.1464 105.359 49.333C105.732 49.5197 106.162 49.613 106.647 49.613C107.067 49.613 107.445 49.5477 107.781 49.417C108.117 49.2864 108.416 49.081 108.677 48.801L109.615 49.879C109.279 50.271 108.854 50.5744 108.341 50.789C107.837 50.9944 107.258 51.097 106.605 51.097Z" fill="black"/>
</svg>
