<svg width="99" height="66" viewBox="0 0 99 66" fill="none" xmlns="http://www.w3.org/2000/svg">
<path fill-rule="evenodd" clip-rule="evenodd" d="M84.8471 48.4766L86.0473 35.5772L97.7661 59.3904L71.8514 52.2602L84.8471 48.4766ZM78.3925 52.2118L86.509 49.8487L87.2366 42.0296L94.4171 56.6208L78.3925 52.2118Z" fill="#8E8E93"/>
<path d="M95.8283 7.27619L83.3548 19.7498L77.6377 14.0327L79.1033 12.5671L83.3548 16.8081L94.3627 5.81055L95.8283 7.27619Z" fill="#166FF5"/>
<path d="M7.882 36.16V28.74H4.046L3.976 30.476C3.948 31.1293 3.906 31.75 3.85 32.338C3.80333 32.9167 3.724 33.444 3.612 33.92C3.50933 34.396 3.36467 34.7927 3.178 35.11C2.99133 35.4273 2.76267 35.6373 2.492 35.74L0.532 35.46C0.886667 35.4787 1.176 35.3573 1.4 35.096C1.63333 34.8347 1.81533 34.4707 1.946 34.004C2.07667 33.5373 2.17467 32.9913 2.24 32.366C2.30533 31.7313 2.352 31.0453 2.38 30.308L2.492 27.2H9.674V36.16H7.882ZM0.196 39.086L0.21 35.46H11.088V39.086H9.408V37H1.89V39.086H0.196ZM12.3257 37V29.524H14.0757V34.452L18.2057 29.524H19.8017V37H18.0517V32.072L13.9357 37H12.3257ZM24.1461 37.126C23.5767 37.126 23.0121 37.0607 22.4521 36.93C21.9014 36.79 21.4021 36.594 20.9541 36.342L21.4441 35.04C21.8081 35.2453 22.2187 35.404 22.6761 35.516C23.1334 35.628 23.5907 35.684 24.0481 35.684C24.4401 35.684 24.7761 35.6467 25.0561 35.572C25.3361 35.488 25.5507 35.3667 25.7001 35.208C25.8587 35.0493 25.9381 34.8673 25.9381 34.662C25.9381 34.3633 25.8074 34.1393 25.5461 33.99C25.2941 33.8313 24.9301 33.752 24.4541 33.752H23.0121V32.576H24.3141C24.6127 32.576 24.8647 32.5433 25.0701 32.478C25.2847 32.4127 25.4481 32.3147 25.5601 32.184C25.6721 32.0533 25.7281 31.8993 25.7281 31.722C25.7281 31.5447 25.6581 31.3907 25.5181 31.26C25.3874 31.12 25.1961 31.0173 24.9441 30.952C24.6921 30.8773 24.3887 30.84 24.0341 30.84C23.6607 30.84 23.2734 30.8867 22.8721 30.98C22.4801 31.0733 22.0787 31.2087 21.6681 31.386L21.2201 30.098C21.6961 29.8833 22.1581 29.72 22.6061 29.608C23.0634 29.4867 23.5161 29.4213 23.9641 29.412C24.6454 29.384 25.2521 29.454 25.7841 29.622C26.3161 29.79 26.7361 30.0327 27.0441 30.35C27.3521 30.6673 27.5061 31.0407 27.5061 31.47C27.5061 31.8247 27.3941 32.1467 27.1701 32.436C26.9554 32.716 26.6567 32.9353 26.2741 33.094C25.9007 33.2527 25.4714 33.332 24.9861 33.332L25.0421 32.954C25.8727 32.954 26.5261 33.122 27.0021 33.458C27.4781 33.7847 27.7161 34.2327 27.7161 34.802C27.7161 35.2593 27.5621 35.6653 27.2541 36.02C26.9461 36.3653 26.5214 36.636 25.9801 36.832C25.4481 37.028 24.8367 37.126 24.1461 37.126ZM33.7743 37V35.488L33.6763 35.166V32.52C33.6763 32.0067 33.5223 31.61 33.2143 31.33C32.9063 31.0407 32.4397 30.896 31.8143 30.896C31.3943 30.896 30.979 30.9613 30.5683 31.092C30.167 31.2227 29.8263 31.4047 29.5463 31.638L28.8603 30.364C29.2617 30.056 29.7377 29.8273 30.2883 29.678C30.8483 29.5193 31.427 29.44 32.0243 29.44C33.107 29.44 33.9423 29.7013 34.5303 30.224C35.1277 30.7373 35.4263 31.5353 35.4263 32.618V37H33.7743ZM31.4223 37.098C30.8623 37.098 30.3723 37.0047 29.9523 36.818C29.5323 36.622 29.2057 36.356 28.9723 36.02C28.7483 35.6747 28.6363 35.2873 28.6363 34.858C28.6363 34.438 28.7343 34.06 28.9303 33.724C29.1357 33.388 29.467 33.122 29.9243 32.926C30.3817 32.73 30.9883 32.632 31.7443 32.632H33.9143V33.794H31.8703C31.273 33.794 30.8717 33.892 30.6663 34.088C30.461 34.2747 30.3583 34.508 30.3583 34.788C30.3583 35.1053 30.4843 35.3573 30.7363 35.544C30.9883 35.7307 31.3383 35.824 31.7863 35.824C32.2157 35.824 32.5983 35.726 32.9343 35.53C33.2797 35.334 33.527 35.0447 33.6763 34.662L33.9703 35.712C33.8023 36.1507 33.499 36.4913 33.0603 36.734C32.631 36.9767 32.085 37.098 31.4223 37.098ZM37.3119 37V29.524H39.0619V34.452L43.1919 29.524H44.7879V37H43.0379V32.072L38.9219 37H37.3119ZM40.9379 28.642C40.1912 28.642 39.6172 28.4693 39.2159 28.124C38.8145 27.7693 38.6092 27.256 38.5999 26.584H39.7619C39.7712 26.92 39.8739 27.186 40.0699 27.382C40.2752 27.578 40.5599 27.676 40.9239 27.676C41.2785 27.676 41.5585 27.578 41.7639 27.382C41.9785 27.186 42.0905 26.92 42.0999 26.584H43.2899C43.2805 27.256 43.0705 27.7693 42.6599 28.124C42.2585 28.4693 41.6845 28.642 40.9379 28.642ZM46.8619 37V29.524H48.6119V32.562H52.3779V29.524H54.1279V37H52.3779V34.046H48.6119V37H46.8619ZM59.6793 37.098C58.8486 37.098 58.1206 36.9347 57.4953 36.608C56.8793 36.272 56.3986 35.8147 56.0533 35.236C55.7173 34.6573 55.5493 33.9993 55.5493 33.262C55.5493 32.5153 55.7126 31.8573 56.0393 31.288C56.3753 30.7093 56.8326 30.2567 57.4113 29.93C57.9993 29.6033 58.6666 29.44 59.4133 29.44C60.1413 29.44 60.7899 29.5987 61.3593 29.916C61.9286 30.2333 62.3766 30.6813 62.7033 31.26C63.0299 31.8387 63.1933 32.52 63.1933 33.304C63.1933 33.3787 63.1886 33.4627 63.1793 33.556C63.1793 33.6493 63.1746 33.738 63.1653 33.822H56.9353V32.66H62.2413L61.5553 33.024C61.5646 32.5947 61.4759 32.2167 61.2893 31.89C61.1026 31.5633 60.8459 31.3067 60.5193 31.12C60.2019 30.9333 59.8333 30.84 59.4133 30.84C58.9839 30.84 58.6059 30.9333 58.2793 31.12C57.9619 31.3067 57.7099 31.568 57.5233 31.904C57.3459 32.2307 57.2573 32.618 57.2573 33.066V33.346C57.2573 33.794 57.3599 34.1907 57.5653 34.536C57.7706 34.8813 58.0599 35.1473 58.4333 35.334C58.8066 35.5207 59.2359 35.614 59.7213 35.614C60.1413 35.614 60.5193 35.5487 60.8553 35.418C61.1913 35.2873 61.4899 35.082 61.7513 34.802L62.6893 35.88C62.3533 36.272 61.9286 36.5753 61.4153 36.79C60.9113 36.9953 60.3326 37.098 59.6793 37.098ZM68.9713 37.098C68.3647 37.098 67.8093 36.958 67.3053 36.678C66.8107 36.398 66.414 35.978 66.1153 35.418C65.826 34.8487 65.6813 34.13 65.6813 33.262C65.6813 32.3847 65.8213 31.666 66.1013 31.106C66.3907 30.546 66.7827 30.1307 67.2773 29.86C67.772 29.58 68.3367 29.44 68.9713 29.44C69.7087 29.44 70.3573 29.5987 70.9173 29.916C71.4867 30.2333 71.9347 30.6767 72.2613 31.246C72.5973 31.8153 72.7653 32.4873 72.7653 33.262C72.7653 34.0367 72.5973 34.7133 72.2613 35.292C71.9347 35.8613 71.4867 36.3047 70.9173 36.622C70.3573 36.9393 69.7087 37.098 68.9713 37.098ZM64.8273 39.716V29.524H66.4933V31.288L66.4373 33.276L66.5773 35.264V39.716H64.8273ZM68.7753 35.6C69.1953 35.6 69.5687 35.5067 69.8953 35.32C70.2313 35.1333 70.4973 34.8627 70.6933 34.508C70.8893 34.1533 70.9873 33.738 70.9873 33.262C70.9873 32.7767 70.8893 32.3613 70.6933 32.016C70.4973 31.6613 70.2313 31.3907 69.8953 31.204C69.5687 31.0173 69.1953 30.924 68.7753 30.924C68.3553 30.924 67.9773 31.0173 67.6413 31.204C67.3053 31.3907 67.0393 31.6613 66.8433 32.016C66.6473 32.3613 66.5493 32.7767 66.5493 33.262C66.5493 33.738 66.6473 34.1533 66.8433 34.508C67.0393 34.8627 67.3053 35.1333 67.6413 35.32C67.9773 35.5067 68.3553 35.6 68.7753 35.6Z" fill="black"/>
</svg>
