<svg width="97" height="49" viewBox="0 0 97 49" fill="none" xmlns="http://www.w3.org/2000/svg">
<path d="M7.882 27.16V19.74H4.046L3.976 21.476C3.948 22.1293 3.906 22.75 3.85 23.338C3.80333 23.9167 3.724 24.444 3.612 24.92C3.50933 25.396 3.36467 25.7927 3.178 26.11C2.99133 26.4273 2.76267 26.6373 2.492 26.74L0.532 26.46C0.886667 26.4787 1.176 26.3573 1.4 26.096C1.63333 25.8347 1.81533 25.4707 1.946 25.004C2.07667 24.5373 2.17467 23.9913 2.24 23.366C2.30533 22.7313 2.352 22.0453 2.38 21.308L2.492 18.2H9.674V27.16H7.882ZM0.196 30.086L0.21 26.46H11.088V30.086H9.408V28H1.89V30.086H0.196ZM12.3257 28V20.524H14.0757V25.452L18.2057 20.524H19.8017V28H18.0517V23.072L13.9357 28H12.3257ZM24.1461 28.126C23.5767 28.126 23.0121 28.0607 22.4521 27.93C21.9014 27.79 21.4021 27.594 20.9541 27.342L21.4441 26.04C21.8081 26.2453 22.2187 26.404 22.6761 26.516C23.1334 26.628 23.5907 26.684 24.0481 26.684C24.4401 26.684 24.7761 26.6467 25.0561 26.572C25.3361 26.488 25.5507 26.3667 25.7001 26.208C25.8587 26.0493 25.9381 25.8673 25.9381 25.662C25.9381 25.3633 25.8074 25.1393 25.5461 24.99C25.2941 24.8313 24.9301 24.752 24.4541 24.752H23.0121V23.576H24.3141C24.6127 23.576 24.8647 23.5433 25.0701 23.478C25.2847 23.4127 25.4481 23.3147 25.5601 23.184C25.6721 23.0533 25.7281 22.8993 25.7281 22.722C25.7281 22.5447 25.6581 22.3907 25.5181 22.26C25.3874 22.12 25.1961 22.0173 24.9441 21.952C24.6921 21.8773 24.3887 21.84 24.0341 21.84C23.6607 21.84 23.2734 21.8867 22.8721 21.98C22.4801 22.0733 22.0787 22.2087 21.6681 22.386L21.2201 21.098C21.6961 20.8833 22.1581 20.72 22.6061 20.608C23.0634 20.4867 23.5161 20.4213 23.9641 20.412C24.6454 20.384 25.2521 20.454 25.7841 20.622C26.3161 20.79 26.7361 21.0327 27.0441 21.35C27.3521 21.6673 27.5061 22.0407 27.5061 22.47C27.5061 22.8247 27.3941 23.1467 27.1701 23.436C26.9554 23.716 26.6567 23.9353 26.2741 24.094C25.9007 24.2527 25.4714 24.332 24.9861 24.332L25.0421 23.954C25.8727 23.954 26.5261 24.122 27.0021 24.458C27.4781 24.7847 27.7161 25.2327 27.7161 25.802C27.7161 26.2593 27.5621 26.6653 27.2541 27.02C26.9461 27.3653 26.5214 27.636 25.9801 27.832C25.4481 28.028 24.8367 28.126 24.1461 28.126ZM33.7743 28V26.488L33.6763 26.166V23.52C33.6763 23.0067 33.5223 22.61 33.2143 22.33C32.9063 22.0407 32.4397 21.896 31.8143 21.896C31.3943 21.896 30.979 21.9613 30.5683 22.092C30.167 22.2227 29.8263 22.4047 29.5463 22.638L28.8603 21.364C29.2617 21.056 29.7377 20.8273 30.2883 20.678C30.8483 20.5193 31.427 20.44 32.0243 20.44C33.107 20.44 33.9423 20.7013 34.5303 21.224C35.1277 21.7373 35.4263 22.5353 35.4263 23.618V28H33.7743ZM31.4223 28.098C30.8623 28.098 30.3723 28.0047 29.9523 27.818C29.5323 27.622 29.2057 27.356 28.9723 27.02C28.7483 26.6747 28.6363 26.2873 28.6363 25.858C28.6363 25.438 28.7343 25.06 28.9303 24.724C29.1357 24.388 29.467 24.122 29.9243 23.926C30.3817 23.73 30.9883 23.632 31.7443 23.632H33.9143V24.794H31.8703C31.273 24.794 30.8717 24.892 30.6663 25.088C30.461 25.2747 30.3583 25.508 30.3583 25.788C30.3583 26.1053 30.4843 26.3573 30.7363 26.544C30.9883 26.7307 31.3383 26.824 31.7863 26.824C32.2157 26.824 32.5983 26.726 32.9343 26.53C33.2797 26.334 33.527 26.0447 33.6763 25.662L33.9703 26.712C33.8023 27.1507 33.499 27.4913 33.0603 27.734C32.631 27.9767 32.085 28.098 31.4223 28.098ZM37.3119 28V20.524H39.0619V25.452L43.1919 20.524H44.7879V28H43.0379V23.072L38.9219 28H37.3119ZM40.9379 19.642C40.1912 19.642 39.6172 19.4693 39.2159 19.124C38.8145 18.7693 38.6092 18.256 38.5999 17.584H39.7619C39.7712 17.92 39.8739 18.186 40.0699 18.382C40.2752 18.578 40.5599 18.676 40.9239 18.676C41.2785 18.676 41.5585 18.578 41.7639 18.382C41.9785 18.186 42.0905 17.92 42.0999 17.584H43.2899C43.2805 18.256 43.0705 18.7693 42.6599 19.124C42.2585 19.4693 41.6845 19.642 40.9379 19.642ZM46.8619 28V20.524H48.6119V23.562H52.3779V20.524H54.1279V28H52.3779V25.046H48.6119V28H46.8619ZM59.6793 28.098C58.8486 28.098 58.1206 27.9347 57.4953 27.608C56.8793 27.272 56.3986 26.8147 56.0533 26.236C55.7173 25.6573 55.5493 24.9993 55.5493 24.262C55.5493 23.5153 55.7126 22.8573 56.0393 22.288C56.3753 21.7093 56.8326 21.2567 57.4113 20.93C57.9993 20.6033 58.6666 20.44 59.4133 20.44C60.1413 20.44 60.7899 20.5987 61.3593 20.916C61.9286 21.2333 62.3766 21.6813 62.7033 22.26C63.0299 22.8387 63.1933 23.52 63.1933 24.304C63.1933 24.3787 63.1886 24.4627 63.1793 24.556C63.1793 24.6493 63.1746 24.738 63.1653 24.822H56.9353V23.66H62.2413L61.5553 24.024C61.5646 23.5947 61.4759 23.2167 61.2893 22.89C61.1026 22.5633 60.8459 22.3067 60.5193 22.12C60.2019 21.9333 59.8333 21.84 59.4133 21.84C58.9839 21.84 58.6059 21.9333 58.2793 22.12C57.9619 22.3067 57.7099 22.568 57.5233 22.904C57.3459 23.2307 57.2573 23.618 57.2573 24.066V24.346C57.2573 24.794 57.3599 25.1907 57.5653 25.536C57.7706 25.8813 58.0599 26.1473 58.4333 26.334C58.8066 26.5207 59.2359 26.614 59.7213 26.614C60.1413 26.614 60.5193 26.5487 60.8553 26.418C61.1913 26.2873 61.4899 26.082 61.7513 25.802L62.6893 26.88C62.3533 27.272 61.9286 27.5753 61.4153 27.79C60.9113 27.9953 60.3326 28.098 59.6793 28.098ZM68.9713 28.098C68.3647 28.098 67.8093 27.958 67.3053 27.678C66.8107 27.398 66.414 26.978 66.1153 26.418C65.826 25.8487 65.6813 25.13 65.6813 24.262C65.6813 23.3847 65.8213 22.666 66.1013 22.106C66.3907 21.546 66.7827 21.1307 67.2773 20.86C67.772 20.58 68.3367 20.44 68.9713 20.44C69.7087 20.44 70.3573 20.5987 70.9173 20.916C71.4867 21.2333 71.9347 21.6767 72.2613 22.246C72.5973 22.8153 72.7653 23.4873 72.7653 24.262C72.7653 25.0367 72.5973 25.7133 72.2613 26.292C71.9347 26.8613 71.4867 27.3047 70.9173 27.622C70.3573 27.9393 69.7087 28.098 68.9713 28.098ZM64.8273 30.716V20.524H66.4933V22.288L66.4373 24.276L66.5773 26.264V30.716H64.8273ZM68.7753 26.6C69.1953 26.6 69.5687 26.5067 69.8953 26.32C70.2313 26.1333 70.4973 25.8627 70.6933 25.508C70.8893 25.1533 70.9873 24.738 70.9873 24.262C70.9873 23.7767 70.8893 23.3613 70.6933 23.016C70.4973 22.6613 70.2313 22.3907 69.8953 22.204C69.5687 22.0173 69.1953 21.924 68.7753 21.924C68.3553 21.924 67.9773 22.0173 67.6413 22.204C67.3053 22.3907 67.0393 22.6613 66.8433 23.016C66.6473 23.3613 66.5493 23.7767 66.5493 24.262C66.5493 24.738 66.6473 25.1533 66.8433 25.508C67.0393 25.8627 67.3053 26.1333 67.6413 26.32C67.9773 26.5067 68.3553 26.6 68.7753 26.6Z" fill="black"/>
<path fill-rule="evenodd" clip-rule="evenodd" d="M85.9034 36.5464L86.7914 27.0031L95.4613 44.6207L76.289 39.3456L85.9034 36.5464ZM81.1282 39.3098L87.133 37.5615L87.6712 31.7768L92.9836 42.5717L81.1282 39.3098Z" fill="#8E8E93"/>
<path d="M94.6252 5.24988L85.1252 14.2499L80.771 10.1249L81.8872 9.06738L85.1252 12.1274L93.5089 4.19238L94.6252 5.24988Z" fill="#166FF5"/>
</svg>
