<svg width="137" height="82" viewBox="0 0 137 82" fill="none" xmlns="http://www.w3.org/2000/svg">
<path d="M28.478 50.657L54.3927 43.5268L41.3971 39.7432L40.1969 26.8438L28.478 50.657Z" fill="#1C1C20"/>
<path d="M0 64.8281H17.0204V81.8485H0V64.8281Z" fill="#1C1C20"/>
<path d="M54.8645 14V4.2H56.3485L60.6465 11.354H59.8485L64.0765 4.2H65.5605L65.5885 14H63.8525L63.8385 6.902H64.2025L60.6185 12.88H59.8065L56.1665 6.902H56.5865V14H54.8645ZM71.341 14.098C70.5103 14.098 69.7823 13.9347 69.157 13.608C68.541 13.272 68.0603 12.8147 67.715 12.236C67.379 11.6573 67.211 10.9993 67.211 10.262C67.211 9.51533 67.3743 8.85733 67.701 8.288C68.037 7.70933 68.4943 7.25667 69.073 6.93C69.661 6.60333 70.3283 6.44 71.075 6.44C71.803 6.44 72.4517 6.59867 73.021 6.916C73.5903 7.23333 74.0383 7.68133 74.365 8.26C74.6917 8.83867 74.855 9.52 74.855 10.304C74.855 10.3787 74.8503 10.4627 74.841 10.556C74.841 10.6493 74.8363 10.738 74.827 10.822H68.597V9.66H73.903L73.217 10.024C73.2263 9.59467 73.1377 9.21667 72.951 8.89C72.7643 8.56333 72.5077 8.30667 72.181 8.12C71.8637 7.93333 71.495 7.84 71.075 7.84C70.6457 7.84 70.2677 7.93333 69.941 8.12C69.6237 8.30667 69.3717 8.568 69.185 8.904C69.0077 9.23067 68.919 9.618 68.919 10.066V10.346C68.919 10.794 69.0217 11.1907 69.227 11.536C69.4323 11.8813 69.7217 12.1473 70.095 12.334C70.4683 12.5207 70.8977 12.614 71.383 12.614C71.803 12.614 72.181 12.5487 72.517 12.418C72.853 12.2873 73.1517 12.082 73.413 11.802L74.351 12.88C74.015 13.272 73.5903 13.5753 73.077 13.79C72.573 13.9953 71.9943 14.098 71.341 14.098ZM76.489 14V6.524H78.239V9.562H82.005V6.524H83.755V14H82.005V11.046H78.239V14H76.489ZM89.3064 14.098C88.4757 14.098 87.7477 13.9347 87.1224 13.608C86.5064 13.272 86.0257 12.8147 85.6804 12.236C85.3444 11.6573 85.1764 10.9993 85.1764 10.262C85.1764 9.51533 85.3397 8.85733 85.6664 8.288C86.0024 7.70933 86.4597 7.25667 87.0384 6.93C87.6264 6.60333 88.2937 6.44 89.0404 6.44C89.7684 6.44 90.417 6.59867 90.9864 6.916C91.5557 7.23333 92.0037 7.68133 92.3304 8.26C92.657 8.83867 92.8204 9.52 92.8204 10.304C92.8204 10.3787 92.8157 10.4627 92.8064 10.556C92.8064 10.6493 92.8017 10.738 92.7924 10.822H86.5624V9.66H91.8684L91.1824 10.024C91.1917 9.59467 91.103 9.21667 90.9164 8.89C90.7297 8.56333 90.473 8.30667 90.1464 8.12C89.829 7.93333 89.4604 7.84 89.0404 7.84C88.611 7.84 88.233 7.93333 87.9064 8.12C87.589 8.30667 87.337 8.568 87.1504 8.904C86.973 9.23067 86.8844 9.618 86.8844 10.066V10.346C86.8844 10.794 86.987 11.1907 87.1924 11.536C87.3977 11.8813 87.687 12.1473 88.0604 12.334C88.4337 12.5207 88.863 12.614 89.3484 12.614C89.7684 12.614 90.1464 12.5487 90.4824 12.418C90.8184 12.2873 91.117 12.082 91.3784 11.802L92.3164 12.88C91.9804 13.272 91.5557 13.5753 91.0424 13.79C90.5384 13.9953 89.9597 14.098 89.3064 14.098ZM99.4827 13.188V8.008H96.6127L96.5707 9.212C96.5521 9.64133 96.5241 10.0567 96.4867 10.458C96.4494 10.85 96.3887 11.214 96.3047 11.55C96.2207 11.8767 96.0994 12.1473 95.9407 12.362C95.7821 12.5767 95.5721 12.7167 95.3107 12.782L93.5747 12.516C93.8547 12.516 94.0787 12.4273 94.2467 12.25C94.4241 12.0633 94.5594 11.8113 94.6527 11.494C94.7554 11.1673 94.8301 10.7987 94.8767 10.388C94.9234 9.968 94.9561 9.534 94.9747 9.086L95.0727 6.524H101.233V13.188H99.4827ZM93.3087 15.666V12.516H102.339V15.666H100.701V14H94.9327V15.666H93.3087ZM112.54 14L110.356 10.416L111.784 9.534L114.626 14H112.54ZM108.942 11.004V9.548H111.448V11.004H108.942ZM111.952 10.472L110.3 10.276L112.568 6.524H114.43L111.952 10.472ZM104.644 14H102.572L105.4 9.534L106.828 10.416L104.644 14ZM109.46 14H107.724V6.524H109.46V14ZM108.242 11.004H105.75V9.548H108.242V11.004ZM105.232 10.472L102.754 6.524H104.616L106.87 10.276L105.232 10.472ZM118.886 14.098C118.056 14.098 117.328 13.9347 116.702 13.608C116.086 13.272 115.606 12.8147 115.26 12.236C114.924 11.6573 114.756 10.9993 114.756 10.262C114.756 9.51533 114.92 8.85733 115.246 8.288C115.582 7.70933 116.04 7.25667 116.618 6.93C117.206 6.60333 117.874 6.44 118.62 6.44C119.348 6.44 119.997 6.59867 120.566 6.916C121.136 7.23333 121.584 7.68133 121.91 8.26C122.237 8.83867 122.4 9.52 122.4 10.304C122.4 10.3787 122.396 10.4627 122.386 10.556C122.386 10.6493 122.382 10.738 122.372 10.822H116.142V9.66H121.448L120.762 10.024C120.772 9.59467 120.683 9.21667 120.496 8.89C120.31 8.56333 120.053 8.30667 119.726 8.12C119.409 7.93333 119.04 7.84 118.62 7.84C118.191 7.84 117.813 7.93333 117.486 8.12C117.169 8.30667 116.917 8.568 116.73 8.904C116.553 9.23067 116.464 9.618 116.464 10.066V10.346C116.464 10.794 116.567 11.1907 116.772 11.536C116.978 11.8813 117.267 12.1473 117.64 12.334C118.014 12.5207 118.443 12.614 118.928 12.614C119.348 12.614 119.726 12.5487 120.062 12.418C120.398 12.2873 120.697 12.082 120.958 11.802L121.896 12.88C121.56 13.272 121.136 13.5753 120.622 13.79C120.118 13.9953 119.54 14.098 118.886 14.098ZM128.178 14.098C127.572 14.098 127.016 13.958 126.512 13.678C126.018 13.398 125.621 12.978 125.322 12.418C125.033 11.8487 124.888 11.13 124.888 10.262C124.888 9.38467 125.028 8.666 125.308 8.106C125.598 7.546 125.99 7.13067 126.484 6.86C126.979 6.58 127.544 6.44 128.178 6.44C128.916 6.44 129.564 6.59867 130.124 6.916C130.694 7.23333 131.142 7.67667 131.468 8.246C131.804 8.81533 131.972 9.48733 131.972 10.262C131.972 11.0367 131.804 11.7133 131.468 12.292C131.142 12.8613 130.694 13.3047 130.124 13.622C129.564 13.9393 128.916 14.098 128.178 14.098ZM124.034 16.716V6.524H125.7V8.288L125.644 10.276L125.784 12.264V16.716H124.034ZM127.982 12.6C128.402 12.6 128.776 12.5067 129.102 12.32C129.438 12.1333 129.704 11.8627 129.9 11.508C130.096 11.1533 130.194 10.738 130.194 10.262C130.194 9.77667 130.096 9.36133 129.9 9.016C129.704 8.66133 129.438 8.39067 129.102 8.204C128.776 8.01733 128.402 7.924 127.982 7.924C127.562 7.924 127.184 8.01733 126.848 8.204C126.512 8.39067 126.246 8.66133 126.05 9.016C125.854 9.36133 125.756 9.77667 125.756 10.262C125.756 10.738 125.854 11.1533 126.05 11.508C126.246 11.8627 126.512 12.1333 126.848 12.32C127.184 12.5067 127.562 12.6 127.982 12.6ZM54.6545 31V23.524H61.8225V31H60.0865V24.602L60.4925 25.008H55.9985L56.4045 24.602V31H54.6545ZM68.0478 31.098C67.4411 31.098 66.8858 30.958 66.3818 30.678C65.8871 30.398 65.4905 29.978 65.1918 29.418C64.9025 28.8487 64.7578 28.13 64.7578 27.262C64.7578 26.3847 64.8978 25.666 65.1778 25.106C65.4671 24.546 65.8591 24.1307 66.3538 23.86C66.8485 23.58 67.4131 23.44 68.0478 23.44C68.7851 23.44 69.4338 23.5987 69.9938 23.916C70.5631 24.2333 71.0111 24.6767 71.3378 25.246C71.6738 25.8153 71.8418 26.4873 71.8418 27.262C71.8418 28.0367 71.6738 28.7133 71.3378 29.292C71.0111 29.8613 70.5631 30.3047 69.9938 30.622C69.4338 30.9393 68.7851 31.098 68.0478 31.098ZM63.9038 33.716V23.524H65.5698V25.288L65.5138 27.276L65.6538 29.264V33.716H63.9038ZM67.8518 29.6C68.2718 29.6 68.6451 29.5067 68.9718 29.32C69.3078 29.1333 69.5738 28.8627 69.7698 28.508C69.9658 28.1533 70.0638 27.738 70.0638 27.262C70.0638 26.7767 69.9658 26.3613 69.7698 26.016C69.5738 25.6613 69.3078 25.3907 68.9718 25.204C68.6451 25.0173 68.2718 24.924 67.8518 24.924C67.4318 24.924 67.0538 25.0173 66.7178 25.204C66.3818 25.3907 66.1158 25.6613 65.9198 26.016C65.7238 26.3613 65.6258 26.7767 65.6258 27.262C65.6258 27.738 65.7238 28.1533 65.9198 28.508C66.1158 28.8627 66.3818 29.1333 66.7178 29.32C67.0538 29.5067 67.4318 29.6 67.8518 29.6ZM76.6355 31.098C75.8702 31.098 75.1888 30.9347 74.5915 30.608C73.9942 30.272 73.5228 29.8147 73.1775 29.236C72.8322 28.6573 72.6595 27.9993 72.6595 27.262C72.6595 26.5153 72.8322 25.8573 73.1775 25.288C73.5228 24.7093 73.9942 24.2567 74.5915 23.93C75.1888 23.6033 75.8702 23.44 76.6355 23.44C77.4102 23.44 78.0962 23.6033 78.6935 23.93C79.3002 24.2567 79.7715 24.7047 80.1075 25.274C80.4528 25.8433 80.6255 26.506 80.6255 27.262C80.6255 27.9993 80.4528 28.6573 80.1075 29.236C79.7715 29.8147 79.3002 30.272 78.6935 30.608C78.0962 30.9347 77.4102 31.098 76.6355 31.098ZM76.6355 29.6C77.0648 29.6 77.4475 29.5067 77.7835 29.32C78.1195 29.1333 78.3808 28.8627 78.5675 28.508C78.7635 28.1533 78.8615 27.738 78.8615 27.262C78.8615 26.7767 78.7635 26.3613 78.5675 26.016C78.3808 25.6613 78.1195 25.3907 77.7835 25.204C77.4475 25.0173 77.0695 24.924 76.6495 24.924C76.2202 24.924 75.8375 25.0173 75.5015 25.204C75.1748 25.3907 74.9135 25.6613 74.7175 26.016C74.5215 26.3613 74.4235 26.7767 74.4235 27.262C74.4235 27.738 74.5215 28.1533 74.7175 28.508C74.9135 28.8627 75.1748 29.1333 75.5015 29.32C75.8375 29.5067 76.2155 29.6 76.6355 29.6ZM85.5603 31.098C84.7296 31.098 84.0016 30.9347 83.3763 30.608C82.7603 30.272 82.2796 29.8147 81.9343 29.236C81.5983 28.6573 81.4303 27.9993 81.4303 27.262C81.4303 26.5153 81.5936 25.8573 81.9203 25.288C82.2563 24.7093 82.7136 24.2567 83.2923 23.93C83.8803 23.6033 84.5476 23.44 85.2943 23.44C86.0223 23.44 86.6709 23.5987 87.2403 23.916C87.8096 24.2333 88.2576 24.6813 88.5843 25.26C88.9109 25.8387 89.0743 26.52 89.0743 27.304C89.0743 27.3787 89.0696 27.4627 89.0603 27.556C89.0603 27.6493 89.0556 27.738 89.0463 27.822H82.8163V26.66H88.1223L87.4363 27.024C87.4456 26.5947 87.3569 26.2167 87.1703 25.89C86.9836 25.5633 86.7269 25.3067 86.4003 25.12C86.0829 24.9333 85.7143 24.84 85.2943 24.84C84.8649 24.84 84.4869 24.9333 84.1603 25.12C83.8429 25.3067 83.5909 25.568 83.4043 25.904C83.2269 26.2307 83.1383 26.618 83.1383 27.066V27.346C83.1383 27.794 83.2409 28.1907 83.4463 28.536C83.6516 28.8813 83.9409 29.1473 84.3143 29.334C84.6876 29.5207 85.1169 29.614 85.6023 29.614C86.0223 29.614 86.4003 29.5487 86.7363 29.418C87.0723 29.2873 87.3709 29.082 87.6323 28.802L88.5703 29.88C88.2343 30.272 87.8096 30.5753 87.2963 30.79C86.7923 30.9953 86.2136 31.098 85.5603 31.098ZM96.0703 31L93.3683 27.416L94.7963 26.534L98.1283 31H96.0703ZM90.7083 31V23.524H92.4583V31H90.7083ZM91.9403 28.004V26.548H94.4743V28.004H91.9403ZM94.9643 27.472L93.3263 27.276L96.0703 23.524H97.9463L94.9643 27.472ZM100.541 31V24.588L100.947 25.008H97.9089V23.524H104.909V25.008H101.885L102.291 24.588V31H100.541ZM110.434 31V29.488L110.336 29.166V26.52C110.336 26.0067 110.182 25.61 109.874 25.33C109.566 25.0407 109.1 24.896 108.474 24.896C108.054 24.896 107.639 24.9613 107.228 25.092C106.827 25.2227 106.486 25.4047 106.206 25.638L105.52 24.364C105.922 24.056 106.398 23.8273 106.948 23.678C107.508 23.5193 108.087 23.44 108.684 23.44C109.767 23.44 110.602 23.7013 111.19 24.224C111.788 24.7373 112.086 25.5353 112.086 26.618V31H110.434ZM108.082 31.098C107.522 31.098 107.032 31.0047 106.612 30.818C106.192 30.622 105.866 30.356 105.632 30.02C105.408 29.6747 105.296 29.2873 105.296 28.858C105.296 28.438 105.394 28.06 105.59 27.724C105.796 27.388 106.127 27.122 106.584 26.926C107.042 26.73 107.648 26.632 108.404 26.632H110.574V27.794H108.53C107.933 27.794 107.532 27.892 107.326 28.088C107.121 28.2747 107.018 28.508 107.018 28.788C107.018 29.1053 107.144 29.3573 107.396 29.544C107.648 29.7307 107.998 29.824 108.446 29.824C108.876 29.824 109.258 29.726 109.594 29.53C109.94 29.334 110.187 29.0447 110.336 28.662L110.63 29.712C110.462 30.1507 110.159 30.4913 109.72 30.734C109.291 30.9767 108.745 31.098 108.082 31.098Z" fill="black"/>
</svg>
