<svg width="122" height="69" viewBox="0 0 122 69" fill="none" xmlns="http://www.w3.org/2000/svg">
<path d="M0 56H13V69H0V56Z" fill="#1C1C20"/>
<path d="M40.386 14V4.2H41.87L46.168 11.354H45.37L49.598 4.2H51.082L51.11 14H49.374L49.36 6.902H49.724L46.14 12.88H45.328L41.688 6.902H42.108V14H40.386ZM56.8625 14.098C56.0318 14.098 55.3038 13.9347 54.6785 13.608C54.0625 13.272 53.5818 12.8147 53.2365 12.236C52.9005 11.6573 52.7325 10.9993 52.7325 10.262C52.7325 9.51533 52.8958 8.85733 53.2225 8.288C53.5585 7.70933 54.0158 7.25667 54.5945 6.93C55.1825 6.60333 55.8498 6.44 56.5965 6.44C57.3245 6.44 57.9731 6.59867 58.5425 6.916C59.1118 7.23333 59.5598 7.68133 59.8865 8.26C60.2131 8.83867 60.3765 9.52 60.3765 10.304C60.3765 10.3787 60.3718 10.4627 60.3625 10.556C60.3625 10.6493 60.3578 10.738 60.3485 10.822H54.1185V9.66H59.4245L58.7385 10.024C58.7478 9.59467 58.6591 9.21667 58.4725 8.89C58.2858 8.56333 58.0291 8.30667 57.7025 8.12C57.3851 7.93333 57.0165 7.84 56.5965 7.84C56.1671 7.84 55.7891 7.93333 55.4625 8.12C55.1451 8.30667 54.8931 8.568 54.7065 8.904C54.5291 9.23067 54.4405 9.618 54.4405 10.066V10.346C54.4405 10.794 54.5431 11.1907 54.7485 11.536C54.9538 11.8813 55.2431 12.1473 55.6165 12.334C55.9898 12.5207 56.4191 12.614 56.9045 12.614C57.3245 12.614 57.7025 12.5487 58.0385 12.418C58.3745 12.2873 58.6731 12.082 58.9345 11.802L59.8725 12.88C59.5365 13.272 59.1118 13.5753 58.5985 13.79C58.0945 13.9953 57.5158 14.098 56.8625 14.098ZM62.0105 14V6.524H63.7605V9.562H67.5265V6.524H69.2765V14H67.5265V11.046H63.7605V14H62.0105ZM74.8279 14.098C73.9972 14.098 73.2692 13.9347 72.6439 13.608C72.0279 13.272 71.5472 12.8147 71.2019 12.236C70.8659 11.6573 70.6979 10.9993 70.6979 10.262C70.6979 9.51533 70.8612 8.85733 71.1879 8.288C71.5239 7.70933 71.9812 7.25667 72.5599 6.93C73.1479 6.60333 73.8152 6.44 74.5619 6.44C75.2899 6.44 75.9385 6.59867 76.5079 6.916C77.0772 7.23333 77.5252 7.68133 77.8519 8.26C78.1785 8.83867 78.3419 9.52 78.3419 10.304C78.3419 10.3787 78.3372 10.4627 78.3279 10.556C78.3279 10.6493 78.3232 10.738 78.3139 10.822H72.0839V9.66H77.3899L76.7039 10.024C76.7132 9.59467 76.6245 9.21667 76.4379 8.89C76.2512 8.56333 75.9945 8.30667 75.6679 8.12C75.3505 7.93333 74.9819 7.84 74.5619 7.84C74.1325 7.84 73.7545 7.93333 73.4279 8.12C73.1105 8.30667 72.8585 8.568 72.6719 8.904C72.4945 9.23067 72.4059 9.618 72.4059 10.066V10.346C72.4059 10.794 72.5085 11.1907 72.7139 11.536C72.9192 11.8813 73.2085 12.1473 73.5819 12.334C73.9552 12.5207 74.3845 12.614 74.8699 12.614C75.2899 12.614 75.6679 12.5487 76.0039 12.418C76.3399 12.2873 76.6385 12.082 76.8999 11.802L77.8379 12.88C77.5019 13.272 77.0772 13.5753 76.5639 13.79C76.0599 13.9953 75.4812 14.098 74.8279 14.098ZM85.0042 13.188V8.008H82.1342L82.0922 9.212C82.0736 9.64133 82.0456 10.0567 82.0082 10.458C81.9709 10.85 81.9102 11.214 81.8262 11.55C81.7422 11.8767 81.6209 12.1473 81.4622 12.362C81.3036 12.5767 81.0936 12.7167 80.8322 12.782L79.0962 12.516C79.3762 12.516 79.6002 12.4273 79.7682 12.25C79.9456 12.0633 80.0809 11.8113 80.1742 11.494C80.2769 11.1673 80.3516 10.7987 80.3982 10.388C80.4449 9.968 80.4776 9.534 80.4962 9.086L80.5942 6.524H86.7542V13.188H85.0042ZM78.8302 15.666V12.516H87.8602V15.666H86.2222V14H80.4542V15.666H78.8302ZM98.0612 14L95.8772 10.416L97.3052 9.534L100.147 14H98.0612ZM94.4632 11.004V9.548H96.9692V11.004H94.4632ZM97.4732 10.472L95.8212 10.276L98.0892 6.524H99.9512L97.4732 10.472ZM90.1652 14H88.0932L90.9212 9.534L92.3492 10.416L90.1652 14ZM94.9812 14H93.2452V6.524H94.9812V14ZM93.7632 11.004H91.2712V9.548H93.7632V11.004ZM90.7532 10.472L88.2752 6.524H90.1372L92.3912 10.276L90.7532 10.472ZM104.408 14.098C103.577 14.098 102.849 13.9347 102.224 13.608C101.608 13.272 101.127 12.8147 100.782 12.236C100.446 11.6573 100.278 10.9993 100.278 10.262C100.278 9.51533 100.441 8.85733 100.768 8.288C101.104 7.70933 101.561 7.25667 102.14 6.93C102.728 6.60333 103.395 6.44 104.142 6.44C104.87 6.44 105.518 6.59867 106.088 6.916C106.657 7.23333 107.105 7.68133 107.432 8.26C107.758 8.83867 107.922 9.52 107.922 10.304C107.922 10.3787 107.917 10.4627 107.908 10.556C107.908 10.6493 107.903 10.738 107.894 10.822H101.664V9.66H106.97L106.284 10.024C106.293 9.59467 106.204 9.21667 106.018 8.89C105.831 8.56333 105.574 8.30667 105.248 8.12C104.93 7.93333 104.562 7.84 104.142 7.84C103.712 7.84 103.334 7.93333 103.008 8.12C102.69 8.30667 102.438 8.568 102.252 8.904C102.074 9.23067 101.986 9.618 101.986 10.066V10.346C101.986 10.794 102.088 11.1907 102.294 11.536C102.499 11.8813 102.788 12.1473 103.162 12.334C103.535 12.5207 103.964 12.614 104.45 12.614C104.87 12.614 105.248 12.5487 105.584 12.418C105.92 12.2873 106.218 12.082 106.48 11.802L107.418 12.88C107.082 13.272 106.657 13.5753 106.144 13.79C105.64 13.9953 105.061 14.098 104.408 14.098ZM113.7 14.098C113.093 14.098 112.538 13.958 112.034 13.678C111.539 13.398 111.143 12.978 110.844 12.418C110.555 11.8487 110.41 11.13 110.41 10.262C110.41 9.38467 110.55 8.666 110.83 8.106C111.119 7.546 111.511 7.13067 112.006 6.86C112.501 6.58 113.065 6.44 113.7 6.44C114.437 6.44 115.086 6.59867 115.646 6.916C116.215 7.23333 116.663 7.67667 116.99 8.246C117.326 8.81533 117.494 9.48733 117.494 10.262C117.494 11.0367 117.326 11.7133 116.99 12.292C116.663 12.8613 116.215 13.3047 115.646 13.622C115.086 13.9393 114.437 14.098 113.7 14.098ZM109.556 16.716V6.524H111.222V8.288L111.166 10.276L111.306 12.264V16.716H109.556ZM113.504 12.6C113.924 12.6 114.297 12.5067 114.624 12.32C114.96 12.1333 115.226 11.8627 115.422 11.508C115.618 11.1533 115.716 10.738 115.716 10.262C115.716 9.77667 115.618 9.36133 115.422 9.016C115.226 8.66133 114.96 8.39067 114.624 8.204C114.297 8.01733 113.924 7.924 113.504 7.924C113.084 7.924 112.706 8.01733 112.37 8.204C112.034 8.39067 111.768 8.66133 111.572 9.016C111.376 9.36133 111.278 9.77667 111.278 10.262C111.278 10.738 111.376 11.1533 111.572 11.508C111.768 11.8627 112.034 12.1333 112.37 12.32C112.706 12.5067 113.084 12.6 113.504 12.6ZM40.176 31V23.524H47.344V31H45.608V24.602L46.014 25.008H41.52L41.926 24.602V31H40.176ZM53.5693 31.098C52.9626 31.098 52.4073 30.958 51.9033 30.678C51.4086 30.398 51.012 29.978 50.7133 29.418C50.424 28.8487 50.2793 28.13 50.2793 27.262C50.2793 26.3847 50.4193 25.666 50.6993 25.106C50.9886 24.546 51.3806 24.1307 51.8753 23.86C52.37 23.58 52.9346 23.44 53.5693 23.44C54.3066 23.44 54.9553 23.5987 55.5153 23.916C56.0846 24.2333 56.5326 24.6767 56.8593 25.246C57.1953 25.8153 57.3633 26.4873 57.3633 27.262C57.3633 28.0367 57.1953 28.7133 56.8593 29.292C56.5326 29.8613 56.0846 30.3047 55.5153 30.622C54.9553 30.9393 54.3066 31.098 53.5693 31.098ZM49.4253 33.716V23.524H51.0913V25.288L51.0353 27.276L51.1753 29.264V33.716H49.4253ZM53.3733 29.6C53.7933 29.6 54.1666 29.5067 54.4933 29.32C54.8293 29.1333 55.0953 28.8627 55.2913 28.508C55.4873 28.1533 55.5853 27.738 55.5853 27.262C55.5853 26.7767 55.4873 26.3613 55.2913 26.016C55.0953 25.6613 54.8293 25.3907 54.4933 25.204C54.1666 25.0173 53.7933 24.924 53.3733 24.924C52.9533 24.924 52.5753 25.0173 52.2393 25.204C51.9033 25.3907 51.6373 25.6613 51.4413 26.016C51.2453 26.3613 51.1473 26.7767 51.1473 27.262C51.1473 27.738 51.2453 28.1533 51.4413 28.508C51.6373 28.8627 51.9033 29.1333 52.2393 29.32C52.5753 29.5067 52.9533 29.6 53.3733 29.6ZM62.157 31.098C61.3917 31.098 60.7103 30.9347 60.113 30.608C59.5157 30.272 59.0443 29.8147 58.699 29.236C58.3537 28.6573 58.181 27.9993 58.181 27.262C58.181 26.5153 58.3537 25.8573 58.699 25.288C59.0443 24.7093 59.5157 24.2567 60.113 23.93C60.7103 23.6033 61.3917 23.44 62.157 23.44C62.9317 23.44 63.6177 23.6033 64.215 23.93C64.8217 24.2567 65.293 24.7047 65.629 25.274C65.9743 25.8433 66.147 26.506 66.147 27.262C66.147 27.9993 65.9743 28.6573 65.629 29.236C65.293 29.8147 64.8217 30.272 64.215 30.608C63.6177 30.9347 62.9317 31.098 62.157 31.098ZM62.157 29.6C62.5863 29.6 62.969 29.5067 63.305 29.32C63.641 29.1333 63.9023 28.8627 64.089 28.508C64.285 28.1533 64.383 27.738 64.383 27.262C64.383 26.7767 64.285 26.3613 64.089 26.016C63.9023 25.6613 63.641 25.3907 63.305 25.204C62.969 25.0173 62.591 24.924 62.171 24.924C61.7417 24.924 61.359 25.0173 61.023 25.204C60.6963 25.3907 60.435 25.6613 60.239 26.016C60.043 26.3613 59.945 26.7767 59.945 27.262C59.945 27.738 60.043 28.1533 60.239 28.508C60.435 28.8627 60.6963 29.1333 61.023 29.32C61.359 29.5067 61.737 29.6 62.157 29.6ZM71.0818 31.098C70.2511 31.098 69.5231 30.9347 68.8978 30.608C68.2818 30.272 67.8011 29.8147 67.4558 29.236C67.1198 28.6573 66.9518 27.9993 66.9518 27.262C66.9518 26.5153 67.1151 25.8573 67.4418 25.288C67.7778 24.7093 68.2351 24.2567 68.8138 23.93C69.4018 23.6033 70.0691 23.44 70.8158 23.44C71.5438 23.44 72.1924 23.5987 72.7618 23.916C73.3311 24.2333 73.7791 24.6813 74.1058 25.26C74.4324 25.8387 74.5958 26.52 74.5958 27.304C74.5958 27.3787 74.5911 27.4627 74.5818 27.556C74.5818 27.6493 74.5771 27.738 74.5678 27.822H68.3378V26.66H73.6438L72.9578 27.024C72.9671 26.5947 72.8784 26.2167 72.6918 25.89C72.5051 25.5633 72.2484 25.3067 71.9218 25.12C71.6044 24.9333 71.2358 24.84 70.8158 24.84C70.3864 24.84 70.0084 24.9333 69.6818 25.12C69.3644 25.3067 69.1124 25.568 68.9258 25.904C68.7484 26.2307 68.6598 26.618 68.6598 27.066V27.346C68.6598 27.794 68.7624 28.1907 68.9678 28.536C69.1731 28.8813 69.4624 29.1473 69.8358 29.334C70.2091 29.5207 70.6384 29.614 71.1238 29.614C71.5438 29.614 71.9218 29.5487 72.2578 29.418C72.5938 29.2873 72.8924 29.082 73.1538 28.802L74.0918 29.88C73.7558 30.272 73.3311 30.5753 72.8178 30.79C72.3138 30.9953 71.7351 31.098 71.0818 31.098ZM81.5918 31L78.8898 27.416L80.3178 26.534L83.6498 31H81.5918ZM76.2298 31V23.524H77.9798V31H76.2298ZM77.4618 28.004V26.548H79.9958V28.004H77.4618ZM80.4858 27.472L78.8478 27.276L81.5918 23.524H83.4678L80.4858 27.472ZM86.0624 31V24.588L86.4684 25.008H83.4304V23.524H90.4304V25.008H87.4064L87.8124 24.588V31H86.0624ZM95.9558 31V29.488L95.8578 29.166V26.52C95.8578 26.0067 95.7038 25.61 95.3958 25.33C95.0878 25.0407 94.6212 24.896 93.9958 24.896C93.5758 24.896 93.1605 24.9613 92.7498 25.092C92.3485 25.2227 92.0078 25.4047 91.7278 25.638L91.0418 24.364C91.4432 24.056 91.9192 23.8273 92.4698 23.678C93.0298 23.5193 93.6085 23.44 94.2058 23.44C95.2885 23.44 96.1238 23.7013 96.7118 24.224C97.3092 24.7373 97.6078 25.5353 97.6078 26.618V31H95.9558ZM93.6038 31.098C93.0438 31.098 92.5538 31.0047 92.1338 30.818C91.7138 30.622 91.3872 30.356 91.1538 30.02C90.9298 29.6747 90.8178 29.2873 90.8178 28.858C90.8178 28.438 90.9158 28.06 91.1118 27.724C91.3172 27.388 91.6485 27.122 92.1058 26.926C92.5632 26.73 93.1698 26.632 93.9258 26.632H96.0958V27.794H94.0518C93.4545 27.794 93.0532 27.892 92.8478 28.088C92.6425 28.2747 92.5398 28.508 92.5398 28.788C92.5398 29.1053 92.6658 29.3573 92.9178 29.544C93.1698 29.7307 93.5198 29.824 93.9678 29.824C94.3972 29.824 94.7798 29.726 95.1158 29.53C95.4612 29.334 95.7085 29.0447 95.8578 28.662L96.1518 29.712C95.9838 30.1507 95.6805 30.4913 95.2418 30.734C94.8125 30.9767 94.2665 31.098 93.6038 31.098Z" fill="black"/>
<path d="M21.9997 45.6207L41.172 40.3456L31.5575 37.5464L30.6696 28.0031L21.9997 45.6207Z" fill="#1C1C20"/>
</svg>
