<svg width="121" height="64" viewBox="0 0 121 64" fill="none" xmlns="http://www.w3.org/2000/svg">
<path d="M0 51H13V64H0V51Z" fill="#1C1C20"/>
<path d="M39.0423 14V4.2H40.5263L44.8243 11.354H44.0263L48.2543 4.2H49.7383L49.7663 14H48.0303L48.0163 6.902H48.3803L44.7963 12.88H43.9843L40.3443 6.902H40.7643V14H39.0423ZM55.5187 14.098C54.6881 14.098 53.9601 13.9347 53.3347 13.608C52.7187 13.272 52.2381 12.8147 51.8927 12.236C51.5567 11.6573 51.3887 10.9993 51.3887 10.262C51.3887 9.51533 51.5521 8.85733 51.8787 8.288C52.2147 7.70933 52.6721 7.25667 53.2507 6.93C53.8387 6.60333 54.5061 6.44 55.2527 6.44C55.9807 6.44 56.6294 6.59867 57.1987 6.916C57.7681 7.23333 58.2161 7.68133 58.5427 8.26C58.8694 8.83867 59.0327 9.52 59.0327 10.304C59.0327 10.3787 59.0281 10.4627 59.0187 10.556C59.0187 10.6493 59.0141 10.738 59.0047 10.822H52.7747V9.66H58.0807L57.3947 10.024C57.4041 9.59467 57.3154 9.21667 57.1287 8.89C56.9421 8.56333 56.6854 8.30667 56.3587 8.12C56.0414 7.93333 55.6727 7.84 55.2527 7.84C54.8234 7.84 54.4454 7.93333 54.1187 8.12C53.8014 8.30667 53.5494 8.568 53.3627 8.904C53.1854 9.23067 53.0967 9.618 53.0967 10.066V10.346C53.0967 10.794 53.1994 11.1907 53.4047 11.536C53.6101 11.8813 53.8994 12.1473 54.2727 12.334C54.6461 12.5207 55.0754 12.614 55.5607 12.614C55.9807 12.614 56.3587 12.5487 56.6947 12.418C57.0307 12.2873 57.3294 12.082 57.5907 11.802L58.5287 12.88C58.1927 13.272 57.7681 13.5753 57.2547 13.79C56.7507 13.9953 56.1721 14.098 55.5187 14.098ZM60.6668 14V6.524H62.4168V9.562H66.1828V6.524H67.9328V14H66.1828V11.046H62.4168V14H60.6668ZM73.4841 14.098C72.6534 14.098 71.9254 13.9347 71.3001 13.608C70.6841 13.272 70.2034 12.8147 69.8581 12.236C69.5221 11.6573 69.3541 10.9993 69.3541 10.262C69.3541 9.51533 69.5174 8.85733 69.8441 8.288C70.1801 7.70933 70.6374 7.25667 71.2161 6.93C71.8041 6.60333 72.4714 6.44 73.2181 6.44C73.9461 6.44 74.5948 6.59867 75.1641 6.916C75.7334 7.23333 76.1814 7.68133 76.5081 8.26C76.8348 8.83867 76.9981 9.52 76.9981 10.304C76.9981 10.3787 76.9934 10.4627 76.9841 10.556C76.9841 10.6493 76.9794 10.738 76.9701 10.822H70.7401V9.66H76.0461L75.3601 10.024C75.3694 9.59467 75.2808 9.21667 75.0941 8.89C74.9074 8.56333 74.6508 8.30667 74.3241 8.12C74.0068 7.93333 73.6381 7.84 73.2181 7.84C72.7888 7.84 72.4108 7.93333 72.0841 8.12C71.7668 8.30667 71.5148 8.568 71.3281 8.904C71.1508 9.23067 71.0621 9.618 71.0621 10.066V10.346C71.0621 10.794 71.1648 11.1907 71.3701 11.536C71.5754 11.8813 71.8648 12.1473 72.2381 12.334C72.6114 12.5207 73.0408 12.614 73.5261 12.614C73.9461 12.614 74.3241 12.5487 74.6601 12.418C74.9961 12.2873 75.2948 12.082 75.5561 11.802L76.4941 12.88C76.1581 13.272 75.7334 13.5753 75.2201 13.79C74.7161 13.9953 74.1374 14.098 73.4841 14.098ZM83.6605 13.188V8.008H80.7905L80.7485 9.212C80.7298 9.64133 80.7018 10.0567 80.6645 10.458C80.6271 10.85 80.5665 11.214 80.4825 11.55C80.3985 11.8767 80.2771 12.1473 80.1185 12.362C79.9598 12.5767 79.7498 12.7167 79.4885 12.782L77.7525 12.516C78.0325 12.516 78.2565 12.4273 78.4245 12.25C78.6018 12.0633 78.7371 11.8113 78.8305 11.494C78.9331 11.1673 79.0078 10.7987 79.0545 10.388C79.1011 9.968 79.1338 9.534 79.1525 9.086L79.2505 6.524H85.4105V13.188H83.6605ZM77.4865 15.666V12.516H86.5165V15.666H84.8785V14H79.1105V15.666H77.4865ZM96.7174 14L94.5334 10.416L95.9614 9.534L98.8034 14H96.7174ZM93.1194 11.004V9.548H95.6254V11.004H93.1194ZM96.1294 10.472L94.4774 10.276L96.7454 6.524H98.6074L96.1294 10.472ZM88.8214 14H86.7494L89.5774 9.534L91.0054 10.416L88.8214 14ZM93.6374 14H91.9014V6.524H93.6374V14ZM92.4194 11.004H89.9274V9.548H92.4194V11.004ZM89.4094 10.472L86.9314 6.524H88.7934L91.0474 10.276L89.4094 10.472ZM103.064 14.098C102.233 14.098 101.505 13.9347 100.88 13.608C100.264 13.272 99.7834 12.8147 99.438 12.236C99.102 11.6573 98.934 10.9993 98.934 10.262C98.934 9.51533 99.0974 8.85733 99.424 8.288C99.76 7.70933 100.217 7.25667 100.796 6.93C101.384 6.60333 102.051 6.44 102.798 6.44C103.526 6.44 104.175 6.59867 104.744 6.916C105.313 7.23333 105.761 7.68133 106.088 8.26C106.415 8.83867 106.578 9.52 106.578 10.304C106.578 10.3787 106.573 10.4627 106.564 10.556C106.564 10.6493 106.559 10.738 106.55 10.822H100.32V9.66H105.626L104.94 10.024C104.949 9.59467 104.861 9.21667 104.674 8.89C104.487 8.56333 104.231 8.30667 103.904 8.12C103.587 7.93333 103.218 7.84 102.798 7.84C102.369 7.84 101.991 7.93333 101.664 8.12C101.347 8.30667 101.095 8.568 100.908 8.904C100.731 9.23067 100.642 9.618 100.642 10.066V10.346C100.642 10.794 100.745 11.1907 100.95 11.536C101.155 11.8813 101.445 12.1473 101.818 12.334C102.191 12.5207 102.621 12.614 103.106 12.614C103.526 12.614 103.904 12.5487 104.24 12.418C104.576 12.2873 104.875 12.082 105.136 11.802L106.074 12.88C105.738 13.272 105.313 13.5753 104.8 13.79C104.296 13.9953 103.717 14.098 103.064 14.098ZM112.356 14.098C111.749 14.098 111.194 13.958 110.69 13.678C110.195 13.398 109.799 12.978 109.5 12.418C109.211 11.8487 109.066 11.13 109.066 10.262C109.066 9.38467 109.206 8.666 109.486 8.106C109.775 7.546 110.167 7.13067 110.662 6.86C111.157 6.58 111.721 6.44 112.356 6.44C113.093 6.44 113.742 6.59867 114.302 6.916C114.871 7.23333 115.319 7.67667 115.646 8.246C115.982 8.81533 116.15 9.48733 116.15 10.262C116.15 11.0367 115.982 11.7133 115.646 12.292C115.319 12.8613 114.871 13.3047 114.302 13.622C113.742 13.9393 113.093 14.098 112.356 14.098ZM108.212 16.716V6.524H109.878V8.288L109.822 10.276L109.962 12.264V16.716H108.212ZM112.16 12.6C112.58 12.6 112.953 12.5067 113.28 12.32C113.616 12.1333 113.882 11.8627 114.078 11.508C114.274 11.1533 114.372 10.738 114.372 10.262C114.372 9.77667 114.274 9.36133 114.078 9.016C113.882 8.66133 113.616 8.39067 113.28 8.204C112.953 8.01733 112.58 7.924 112.16 7.924C111.74 7.924 111.362 8.01733 111.026 8.204C110.69 8.39067 110.424 8.66133 110.228 9.016C110.032 9.36133 109.934 9.77667 109.934 10.262C109.934 10.738 110.032 11.1533 110.228 11.508C110.424 11.8627 110.69 12.1333 111.026 12.32C111.362 12.5067 111.74 12.6 112.16 12.6ZM38.8323 31V23.524H46.0003V31H44.2643V24.602L44.6703 25.008H40.1763L40.5823 24.602V31H38.8323ZM52.2255 31.098C51.6189 31.098 51.0635 30.958 50.5595 30.678C50.0649 30.398 49.6682 29.978 49.3695 29.418C49.0802 28.8487 48.9355 28.13 48.9355 27.262C48.9355 26.3847 49.0755 25.666 49.3555 25.106C49.6449 24.546 50.0369 24.1307 50.5315 23.86C51.0262 23.58 51.5909 23.44 52.2255 23.44C52.9629 23.44 53.6115 23.5987 54.1715 23.916C54.7409 24.2333 55.1889 24.6767 55.5155 25.246C55.8515 25.8153 56.0195 26.4873 56.0195 27.262C56.0195 28.0367 55.8515 28.7133 55.5155 29.292C55.1889 29.8613 54.7409 30.3047 54.1715 30.622C53.6115 30.9393 52.9629 31.098 52.2255 31.098ZM48.0815 33.716V23.524H49.7475V25.288L49.6915 27.276L49.8315 29.264V33.716H48.0815ZM52.0295 29.6C52.4495 29.6 52.8229 29.5067 53.1495 29.32C53.4855 29.1333 53.7515 28.8627 53.9475 28.508C54.1435 28.1533 54.2415 27.738 54.2415 27.262C54.2415 26.7767 54.1435 26.3613 53.9475 26.016C53.7515 25.6613 53.4855 25.3907 53.1495 25.204C52.8229 25.0173 52.4495 24.924 52.0295 24.924C51.6095 24.924 51.2315 25.0173 50.8955 25.204C50.5595 25.3907 50.2935 25.6613 50.0975 26.016C49.9015 26.3613 49.8035 26.7767 49.8035 27.262C49.8035 27.738 49.9015 28.1533 50.0975 28.508C50.2935 28.8627 50.5595 29.1333 50.8955 29.32C51.2315 29.5067 51.6095 29.6 52.0295 29.6ZM60.8132 31.098C60.0479 31.098 59.3666 30.9347 58.7692 30.608C58.1719 30.272 57.7006 29.8147 57.3552 29.236C57.0099 28.6573 56.8372 27.9993 56.8372 27.262C56.8372 26.5153 57.0099 25.8573 57.3552 25.288C57.7006 24.7093 58.1719 24.2567 58.7692 23.93C59.3666 23.6033 60.0479 23.44 60.8132 23.44C61.5879 23.44 62.2739 23.6033 62.8712 23.93C63.4779 24.2567 63.9492 24.7047 64.2852 25.274C64.6306 25.8433 64.8032 26.506 64.8032 27.262C64.8032 27.9993 64.6306 28.6573 64.2852 29.236C63.9492 29.8147 63.4779 30.272 62.8712 30.608C62.2739 30.9347 61.5879 31.098 60.8132 31.098ZM60.8132 29.6C61.2426 29.6 61.6252 29.5067 61.9612 29.32C62.2972 29.1333 62.5586 28.8627 62.7452 28.508C62.9412 28.1533 63.0392 27.738 63.0392 27.262C63.0392 26.7767 62.9412 26.3613 62.7452 26.016C62.5586 25.6613 62.2972 25.3907 61.9612 25.204C61.6252 25.0173 61.2472 24.924 60.8272 24.924C60.3979 24.924 60.0152 25.0173 59.6792 25.204C59.3526 25.3907 59.0912 25.6613 58.8952 26.016C58.6992 26.3613 58.6012 26.7767 58.6012 27.262C58.6012 27.738 58.6992 28.1533 58.8952 28.508C59.0912 28.8627 59.3526 29.1333 59.6792 29.32C60.0152 29.5067 60.3932 29.6 60.8132 29.6ZM69.738 31.098C68.9073 31.098 68.1793 30.9347 67.554 30.608C66.938 30.272 66.4573 29.8147 66.112 29.236C65.776 28.6573 65.608 27.9993 65.608 27.262C65.608 26.5153 65.7713 25.8573 66.098 25.288C66.434 24.7093 66.8913 24.2567 67.47 23.93C68.058 23.6033 68.7253 23.44 69.472 23.44C70.2 23.44 70.8487 23.5987 71.418 23.916C71.9873 24.2333 72.4353 24.6813 72.762 25.26C73.0887 25.8387 73.252 26.52 73.252 27.304C73.252 27.3787 73.2473 27.4627 73.238 27.556C73.238 27.6493 73.2333 27.738 73.224 27.822H66.994V26.66H72.3L71.614 27.024C71.6233 26.5947 71.5347 26.2167 71.348 25.89C71.1613 25.5633 70.9047 25.3067 70.578 25.12C70.2607 24.9333 69.892 24.84 69.472 24.84C69.0427 24.84 68.6647 24.9333 68.338 25.12C68.0207 25.3067 67.7687 25.568 67.582 25.904C67.4047 26.2307 67.316 26.618 67.316 27.066V27.346C67.316 27.794 67.4187 28.1907 67.624 28.536C67.8293 28.8813 68.1187 29.1473 68.492 29.334C68.8653 29.5207 69.2947 29.614 69.78 29.614C70.2 29.614 70.578 29.5487 70.914 29.418C71.25 29.2873 71.5487 29.082 71.81 28.802L72.748 29.88C72.412 30.272 71.9873 30.5753 71.474 30.79C70.97 30.9953 70.3913 31.098 69.738 31.098ZM80.2481 31L77.5461 27.416L78.9741 26.534L82.3061 31H80.2481ZM74.8861 31V23.524H76.6361V31H74.8861ZM76.1181 28.004V26.548H78.6521V28.004H76.1181ZM79.1421 27.472L77.5041 27.276L80.2481 23.524H82.1241L79.1421 27.472ZM84.7187 31V24.588L85.1247 25.008H82.0867V23.524H89.0867V25.008H86.0627L86.4687 24.588V31H84.7187ZM94.6121 31V29.488L94.5141 29.166V26.52C94.5141 26.0067 94.3601 25.61 94.0521 25.33C93.7441 25.0407 93.2774 24.896 92.6521 24.896C92.2321 24.896 91.8167 24.9613 91.4061 25.092C91.0047 25.2227 90.6641 25.4047 90.3841 25.638L89.6981 24.364C90.0994 24.056 90.5754 23.8273 91.1261 23.678C91.6861 23.5193 92.2647 23.44 92.8621 23.44C93.9447 23.44 94.7801 23.7013 95.3681 24.224C95.9654 24.7373 96.2641 25.5353 96.2641 26.618V31H94.6121ZM92.2601 31.098C91.7001 31.098 91.2101 31.0047 90.7901 30.818C90.3701 30.622 90.0434 30.356 89.8101 30.02C89.5861 29.6747 89.4741 29.2873 89.4741 28.858C89.4741 28.438 89.5721 28.06 89.7681 27.724C89.9734 27.388 90.3047 27.122 90.7621 26.926C91.2194 26.73 91.8261 26.632 92.5821 26.632H94.7521V27.794H92.7081C92.1107 27.794 91.7094 27.892 91.5041 28.088C91.2987 28.2747 91.1961 28.508 91.1961 28.788C91.1961 29.1053 91.3221 29.3573 91.5741 29.544C91.8261 29.7307 92.1761 29.824 92.6241 29.824C93.0534 29.824 93.4361 29.726 93.7721 29.53C94.1174 29.334 94.3647 29.0447 94.5141 28.662L94.8081 29.712C94.6401 30.1507 94.3367 30.4913 93.8981 30.734C93.4687 30.9767 92.9227 31.098 92.2601 31.098Z" fill="black"/>
<path d="M23.0015 42.0741L38.5219 37.8038L30.7388 35.5378L30.02 27.8123L23.0015 42.0741Z" fill="#1C1C20"/>
</svg>
