<svg width="123" height="49" viewBox="0 0 123 49" fill="none" xmlns="http://www.w3.org/2000/svg">
<path d="M1.386 28V18.2H10.052V28H8.26V19.292L8.68 19.74H2.758L3.178 19.292V28H1.386ZM16.4834 28.098C15.8767 28.098 15.3214 27.958 14.8174 27.678C14.3227 27.398 13.926 26.978 13.6274 26.418C13.338 25.8487 13.1934 25.13 13.1934 24.262C13.1934 23.3847 13.3334 22.666 13.6134 22.106C13.9027 21.546 14.2947 21.1307 14.7894 20.86C15.284 20.58 15.8487 20.44 16.4834 20.44C17.2207 20.44 17.8694 20.5987 18.4294 20.916C18.9987 21.2333 19.4467 21.6767 19.7734 22.246C20.1094 22.8153 20.2774 23.4873 20.2774 24.262C20.2774 25.0367 20.1094 25.7133 19.7734 26.292C19.4467 26.8613 18.9987 27.3047 18.4294 27.622C17.8694 27.9393 17.2207 28.098 16.4834 28.098ZM12.3394 30.716V20.524H14.0054V22.288L13.9494 24.276L14.0894 26.264V30.716H12.3394ZM16.2874 26.6C16.7074 26.6 17.0807 26.5067 17.4074 26.32C17.7434 26.1333 18.0094 25.8627 18.2054 25.508C18.4014 25.1533 18.4994 24.738 18.4994 24.262C18.4994 23.7767 18.4014 23.3613 18.2054 23.016C18.0094 22.6613 17.7434 22.3907 17.4074 22.204C17.0807 22.0173 16.7074 21.924 16.2874 21.924C15.8674 21.924 15.4894 22.0173 15.1534 22.204C14.8174 22.3907 14.5514 22.6613 14.3554 23.016C14.1594 23.3613 14.0614 23.7767 14.0614 24.262C14.0614 24.738 14.1594 25.1533 14.3554 25.508C14.5514 25.8627 14.8174 26.1333 15.1534 26.32C15.4894 26.5067 15.8674 26.6 16.2874 26.6ZM25.071 28.098C24.3057 28.098 23.6244 27.9347 23.027 27.608C22.4297 27.272 21.9584 26.8147 21.613 26.236C21.2677 25.6573 21.095 24.9993 21.095 24.262C21.095 23.5153 21.2677 22.8573 21.613 22.288C21.9584 21.7093 22.4297 21.2567 23.027 20.93C23.6244 20.6033 24.3057 20.44 25.071 20.44C25.8457 20.44 26.5317 20.6033 27.129 20.93C27.7357 21.2567 28.207 21.7047 28.543 22.274C28.8884 22.8433 29.061 23.506 29.061 24.262C29.061 24.9993 28.8884 25.6573 28.543 26.236C28.207 26.8147 27.7357 27.272 27.129 27.608C26.5317 27.9347 25.8457 28.098 25.071 28.098ZM25.071 26.6C25.5004 26.6 25.883 26.5067 26.219 26.32C26.555 26.1333 26.8164 25.8627 27.003 25.508C27.199 25.1533 27.297 24.738 27.297 24.262C27.297 23.7767 27.199 23.3613 27.003 23.016C26.8164 22.6613 26.555 22.3907 26.219 22.204C25.883 22.0173 25.505 21.924 25.085 21.924C24.6557 21.924 24.273 22.0173 23.937 22.204C23.6104 22.3907 23.349 22.6613 23.153 23.016C22.957 23.3613 22.859 23.7767 22.859 24.262C22.859 24.738 22.957 25.1533 23.153 25.508C23.349 25.8627 23.6104 26.1333 23.937 26.32C24.273 26.5067 24.651 26.6 25.071 26.6ZM30.5098 28V20.524H36.2498V22.008H31.8538L32.2598 21.616V28H30.5098ZM41.3875 28.098C40.7808 28.098 40.2255 27.958 39.7215 27.678C39.2268 27.398 38.8302 26.978 38.5315 26.418C38.2422 25.8487 38.0975 25.13 38.0975 24.262C38.0975 23.3847 38.2375 22.666 38.5175 22.106C38.8068 21.546 39.1988 21.1307 39.6935 20.86C40.1882 20.58 40.7528 20.44 41.3875 20.44C42.1248 20.44 42.7735 20.5987 43.3335 20.916C43.9028 21.2333 44.3508 21.6767 44.6775 22.246C45.0135 22.8153 45.1815 23.4873 45.1815 24.262C45.1815 25.0367 45.0135 25.7133 44.6775 26.292C44.3508 26.8613 43.9028 27.3047 43.3335 27.622C42.7735 27.9393 42.1248 28.098 41.3875 28.098ZM37.2435 30.716V20.524H38.9095V22.288L38.8535 24.276L38.9935 26.264V30.716H37.2435ZM41.1915 26.6C41.6115 26.6 41.9848 26.5067 42.3115 26.32C42.6475 26.1333 42.9135 25.8627 43.1095 25.508C43.3055 25.1533 43.4035 24.738 43.4035 24.262C43.4035 23.7767 43.3055 23.3613 43.1095 23.016C42.9135 22.6613 42.6475 22.3907 42.3115 22.204C41.9848 22.0173 41.6115 21.924 41.1915 21.924C40.7715 21.924 40.3935 22.0173 40.0575 22.204C39.7215 22.3907 39.4555 22.6613 39.2595 23.016C39.0635 23.3613 38.9655 23.7767 38.9655 24.262C38.9655 24.738 39.0635 25.1533 39.2595 25.508C39.4555 25.8627 39.7215 26.1333 40.0575 26.32C40.3935 26.5067 40.7715 26.6 41.1915 26.6ZM51.0835 28V26.488L50.9855 26.166V23.52C50.9855 23.0067 50.8315 22.61 50.5235 22.33C50.2155 22.0407 49.7488 21.896 49.1235 21.896C48.7035 21.896 48.2881 21.9613 47.8775 22.092C47.4761 22.2227 47.1355 22.4047 46.8555 22.638L46.1695 21.364C46.5708 21.056 47.0468 20.8273 47.5975 20.678C48.1575 20.5193 48.7361 20.44 49.3335 20.44C50.4161 20.44 51.2515 20.7013 51.8395 21.224C52.4368 21.7373 52.7355 22.5353 52.7355 23.618V28H51.0835ZM48.7315 28.098C48.1715 28.098 47.6815 28.0047 47.2615 27.818C46.8415 27.622 46.5148 27.356 46.2815 27.02C46.0575 26.6747 45.9455 26.2873 45.9455 25.858C45.9455 25.438 46.0435 25.06 46.2395 24.724C46.4448 24.388 46.7761 24.122 47.2335 23.926C47.6908 23.73 48.2975 23.632 49.0535 23.632H51.2235V24.794H49.1795C48.5821 24.794 48.1808 24.892 47.9755 25.088C47.7701 25.2747 47.6675 25.508 47.6675 25.788C47.6675 26.1053 47.7935 26.3573 48.0455 26.544C48.2975 26.7307 48.6475 26.824 49.0955 26.824C49.5248 26.824 49.9075 26.726 50.2435 26.53C50.5888 26.334 50.8361 26.0447 50.9855 25.662L51.2795 26.712C51.1115 27.1507 50.8081 27.4913 50.3695 27.734C49.9401 27.9767 49.3941 28.098 48.7315 28.098ZM54.621 28V20.524H56.455L59.465 25.83H58.737L61.901 20.524H63.539L63.553 28H61.971V22.4L62.251 22.582L59.451 27.216H58.695L55.881 22.456L56.217 22.372V28H54.621ZM65.6203 28V20.524H67.4543L70.4643 25.83H69.7363L72.9003 20.524H74.5383L74.5523 28H72.9703V22.4L73.2503 22.582L70.4503 27.216H69.6943L66.8803 22.456L67.2163 22.372V28H65.6203ZM76.6196 28V20.524H78.3696V25.452L82.4996 20.524H84.0956V28H82.3456V23.072L78.2296 28H76.6196ZM89.5717 28.098C88.7877 28.098 88.0877 27.9347 87.4717 27.608C86.865 27.272 86.389 26.8147 86.0437 26.236C85.6983 25.6573 85.5257 24.9993 85.5257 24.262C85.5257 23.5153 85.6983 22.8573 86.0437 22.288C86.389 21.7093 86.865 21.2567 87.4717 20.93C88.0877 20.6033 88.7877 20.44 89.5717 20.44C90.2997 20.44 90.939 20.5893 91.4897 20.888C92.0497 21.1773 92.4743 21.6067 92.7637 22.176L91.4197 22.96C91.1957 22.6053 90.9203 22.344 90.5937 22.176C90.2763 22.008 89.931 21.924 89.5577 21.924C89.1283 21.924 88.741 22.0173 88.3957 22.204C88.0503 22.3907 87.7797 22.6613 87.5837 23.016C87.3877 23.3613 87.2897 23.7767 87.2897 24.262C87.2897 24.7473 87.3877 25.1673 87.5837 25.522C87.7797 25.8673 88.0503 26.1333 88.3957 26.32C88.741 26.5067 89.1283 26.6 89.5577 26.6C89.931 26.6 90.2763 26.516 90.5937 26.348C90.9203 26.18 91.1957 25.9187 91.4197 25.564L92.7637 26.348C92.4743 26.908 92.0497 27.342 91.4897 27.65C90.939 27.9487 90.2997 28.098 89.5717 28.098ZM95.5101 28V21.588L95.9161 22.008H92.8781V20.524H99.8781V22.008H96.8541L97.2601 21.588V28H95.5101Z" fill="black"/>
<path fill-rule="evenodd" clip-rule="evenodd" d="M111.903 36.1368L112.791 26.5935L121.461 44.2111L102.289 38.936L111.903 36.1368ZM107.128 38.9001L113.133 37.1518L113.671 31.3671L118.984 42.162L107.128 38.9001Z" fill="#8E8E93"/>
<path d="M120.625 5.24988L111.125 14.2499L106.771 10.1249L107.887 9.06738L111.125 12.1274L119.509 4.19238L120.625 5.24988Z" fill="#166FF5"/>
</svg>
