<svg width="126" height="66" viewBox="0 0 126 66" fill="none" xmlns="http://www.w3.org/2000/svg">
<path fill-rule="evenodd" clip-rule="evenodd" d="M111.847 48.4766L113.047 35.5772L124.766 59.3904L98.8514 52.2602L111.847 48.4766ZM105.392 52.2118L113.509 49.8487L114.237 42.0296L121.417 56.6208L105.392 52.2118Z" fill="#8E8E93"/>
<path d="M122.828 7.27619L110.355 19.7498L104.638 14.0327L106.103 12.5671L110.355 16.8081L121.363 5.81055L122.828 7.27619Z" fill="#166FF5"/>
<path d="M1.386 37V27.2H10.052V37H8.26V28.292L8.68 28.74H2.758L3.178 28.292V37H1.386ZM16.4834 37.098C15.8767 37.098 15.3214 36.958 14.8174 36.678C14.3227 36.398 13.926 35.978 13.6274 35.418C13.338 34.8487 13.1934 34.13 13.1934 33.262C13.1934 32.3847 13.3334 31.666 13.6134 31.106C13.9027 30.546 14.2947 30.1307 14.7894 29.86C15.284 29.58 15.8487 29.44 16.4834 29.44C17.2207 29.44 17.8694 29.5987 18.4294 29.916C18.9987 30.2333 19.4467 30.6767 19.7734 31.246C20.1094 31.8153 20.2774 32.4873 20.2774 33.262C20.2774 34.0367 20.1094 34.7133 19.7734 35.292C19.4467 35.8613 18.9987 36.3047 18.4294 36.622C17.8694 36.9393 17.2207 37.098 16.4834 37.098ZM12.3394 39.716V29.524H14.0054V31.288L13.9494 33.276L14.0894 35.264V39.716H12.3394ZM16.2874 35.6C16.7074 35.6 17.0807 35.5067 17.4074 35.32C17.7434 35.1333 18.0094 34.8627 18.2054 34.508C18.4014 34.1533 18.4994 33.738 18.4994 33.262C18.4994 32.7767 18.4014 32.3613 18.2054 32.016C18.0094 31.6613 17.7434 31.3907 17.4074 31.204C17.0807 31.0173 16.7074 30.924 16.2874 30.924C15.8674 30.924 15.4894 31.0173 15.1534 31.204C14.8174 31.3907 14.5514 31.6613 14.3554 32.016C14.1594 32.3613 14.0614 32.7767 14.0614 33.262C14.0614 33.738 14.1594 34.1533 14.3554 34.508C14.5514 34.8627 14.8174 35.1333 15.1534 35.32C15.4894 35.5067 15.8674 35.6 16.2874 35.6ZM25.071 37.098C24.3057 37.098 23.6244 36.9347 23.027 36.608C22.4297 36.272 21.9584 35.8147 21.613 35.236C21.2677 34.6573 21.095 33.9993 21.095 33.262C21.095 32.5153 21.2677 31.8573 21.613 31.288C21.9584 30.7093 22.4297 30.2567 23.027 29.93C23.6244 29.6033 24.3057 29.44 25.071 29.44C25.8457 29.44 26.5317 29.6033 27.129 29.93C27.7357 30.2567 28.207 30.7047 28.543 31.274C28.8884 31.8433 29.061 32.506 29.061 33.262C29.061 33.9993 28.8884 34.6573 28.543 35.236C28.207 35.8147 27.7357 36.272 27.129 36.608C26.5317 36.9347 25.8457 37.098 25.071 37.098ZM25.071 35.6C25.5004 35.6 25.883 35.5067 26.219 35.32C26.555 35.1333 26.8164 34.8627 27.003 34.508C27.199 34.1533 27.297 33.738 27.297 33.262C27.297 32.7767 27.199 32.3613 27.003 32.016C26.8164 31.6613 26.555 31.3907 26.219 31.204C25.883 31.0173 25.505 30.924 25.085 30.924C24.6557 30.924 24.273 31.0173 23.937 31.204C23.6104 31.3907 23.349 31.6613 23.153 32.016C22.957 32.3613 22.859 32.7767 22.859 33.262C22.859 33.738 22.957 34.1533 23.153 34.508C23.349 34.8627 23.6104 35.1333 23.937 35.32C24.273 35.5067 24.651 35.6 25.071 35.6ZM30.5098 37V29.524H36.2498V31.008H31.8538L32.2598 30.616V37H30.5098ZM41.3875 37.098C40.7808 37.098 40.2255 36.958 39.7215 36.678C39.2268 36.398 38.8302 35.978 38.5315 35.418C38.2422 34.8487 38.0975 34.13 38.0975 33.262C38.0975 32.3847 38.2375 31.666 38.5175 31.106C38.8068 30.546 39.1988 30.1307 39.6935 29.86C40.1882 29.58 40.7528 29.44 41.3875 29.44C42.1248 29.44 42.7735 29.5987 43.3335 29.916C43.9028 30.2333 44.3508 30.6767 44.6775 31.246C45.0135 31.8153 45.1815 32.4873 45.1815 33.262C45.1815 34.0367 45.0135 34.7133 44.6775 35.292C44.3508 35.8613 43.9028 36.3047 43.3335 36.622C42.7735 36.9393 42.1248 37.098 41.3875 37.098ZM37.2435 39.716V29.524H38.9095V31.288L38.8535 33.276L38.9935 35.264V39.716H37.2435ZM41.1915 35.6C41.6115 35.6 41.9848 35.5067 42.3115 35.32C42.6475 35.1333 42.9135 34.8627 43.1095 34.508C43.3055 34.1533 43.4035 33.738 43.4035 33.262C43.4035 32.7767 43.3055 32.3613 43.1095 32.016C42.9135 31.6613 42.6475 31.3907 42.3115 31.204C41.9848 31.0173 41.6115 30.924 41.1915 30.924C40.7715 30.924 40.3935 31.0173 40.0575 31.204C39.7215 31.3907 39.4555 31.6613 39.2595 32.016C39.0635 32.3613 38.9655 32.7767 38.9655 33.262C38.9655 33.738 39.0635 34.1533 39.2595 34.508C39.4555 34.8627 39.7215 35.1333 40.0575 35.32C40.3935 35.5067 40.7715 35.6 41.1915 35.6ZM51.0835 37V35.488L50.9855 35.166V32.52C50.9855 32.0067 50.8315 31.61 50.5235 31.33C50.2155 31.0407 49.7488 30.896 49.1235 30.896C48.7035 30.896 48.2881 30.9613 47.8775 31.092C47.4761 31.2227 47.1355 31.4047 46.8555 31.638L46.1695 30.364C46.5708 30.056 47.0468 29.8273 47.5975 29.678C48.1575 29.5193 48.7361 29.44 49.3335 29.44C50.4161 29.44 51.2515 29.7013 51.8395 30.224C52.4368 30.7373 52.7355 31.5353 52.7355 32.618V37H51.0835ZM48.7315 37.098C48.1715 37.098 47.6815 37.0047 47.2615 36.818C46.8415 36.622 46.5148 36.356 46.2815 36.02C46.0575 35.6747 45.9455 35.2873 45.9455 34.858C45.9455 34.438 46.0435 34.06 46.2395 33.724C46.4448 33.388 46.7761 33.122 47.2335 32.926C47.6908 32.73 48.2975 32.632 49.0535 32.632H51.2235V33.794H49.1795C48.5821 33.794 48.1808 33.892 47.9755 34.088C47.7701 34.2747 47.6675 34.508 47.6675 34.788C47.6675 35.1053 47.7935 35.3573 48.0455 35.544C48.2975 35.7307 48.6475 35.824 49.0955 35.824C49.5248 35.824 49.9075 35.726 50.2435 35.53C50.5888 35.334 50.8361 35.0447 50.9855 34.662L51.2795 35.712C51.1115 36.1507 50.8081 36.4913 50.3695 36.734C49.9401 36.9767 49.3941 37.098 48.7315 37.098ZM54.621 37V29.524H56.455L59.465 34.83H58.737L61.901 29.524H63.539L63.553 37H61.971V31.4L62.251 31.582L59.451 36.216H58.695L55.881 31.456L56.217 31.372V37H54.621ZM65.6203 37V29.524H67.4543L70.4643 34.83H69.7363L72.9003 29.524H74.5383L74.5523 37H72.9703V31.4L73.2503 31.582L70.4503 36.216H69.6943L66.8803 31.456L67.2163 31.372V37H65.6203ZM76.6196 37V29.524H78.3696V34.452L82.4996 29.524H84.0956V37H82.3456V32.072L78.2296 37H76.6196ZM89.5717 37.098C88.7877 37.098 88.0877 36.9347 87.4717 36.608C86.865 36.272 86.389 35.8147 86.0437 35.236C85.6983 34.6573 85.5257 33.9993 85.5257 33.262C85.5257 32.5153 85.6983 31.8573 86.0437 31.288C86.389 30.7093 86.865 30.2567 87.4717 29.93C88.0877 29.6033 88.7877 29.44 89.5717 29.44C90.2997 29.44 90.939 29.5893 91.4897 29.888C92.0497 30.1773 92.4743 30.6067 92.7637 31.176L91.4197 31.96C91.1957 31.6053 90.9203 31.344 90.5937 31.176C90.2763 31.008 89.931 30.924 89.5577 30.924C89.1283 30.924 88.741 31.0173 88.3957 31.204C88.0503 31.3907 87.7797 31.6613 87.5837 32.016C87.3877 32.3613 87.2897 32.7767 87.2897 33.262C87.2897 33.7473 87.3877 34.1673 87.5837 34.522C87.7797 34.8673 88.0503 35.1333 88.3957 35.32C88.741 35.5067 89.1283 35.6 89.5577 35.6C89.931 35.6 90.2763 35.516 90.5937 35.348C90.9203 35.18 91.1957 34.9187 91.4197 34.564L92.7637 35.348C92.4743 35.908 92.0497 36.342 91.4897 36.65C90.939 36.9487 90.2997 37.098 89.5717 37.098ZM95.5101 37V30.588L95.9161 31.008H92.8781V29.524H99.8781V31.008H96.8541L97.2601 30.588V37H95.5101Z" fill="black"/>
</svg>
