<svg width="110" height="56" viewBox="0 0 110 56" fill="none" xmlns="http://www.w3.org/2000/svg">
<path d="M27.354 28.14C26.5887 28.14 25.856 28.0327 25.156 27.818C24.456 27.594 23.9007 27.3093 23.49 26.964L24.12 25.55C24.512 25.858 24.9973 26.1147 25.576 26.32C26.1547 26.5253 26.7473 26.628 27.354 26.628C27.8673 26.628 28.2827 26.572 28.6 26.46C28.9173 26.348 29.1507 26.1987 29.3 26.012C29.4493 25.816 29.524 25.5967 29.524 25.354C29.524 25.0553 29.4167 24.8173 29.202 24.64C28.9873 24.4533 28.7073 24.3087 28.362 24.206C28.026 24.094 27.648 23.9913 27.228 23.898C26.8173 23.8047 26.402 23.6973 25.982 23.576C25.5713 23.4453 25.1933 23.282 24.848 23.086C24.512 22.8807 24.2367 22.61 24.022 22.274C23.8073 21.938 23.7 21.5087 23.7 20.986C23.7 20.454 23.84 19.9687 24.12 19.53C24.4093 19.082 24.8433 18.7273 25.422 18.466C26.01 18.1953 26.752 18.06 27.648 18.06C28.236 18.06 28.8193 18.1347 29.398 18.284C29.9767 18.4333 30.4807 18.648 30.91 18.928L30.336 20.342C29.8973 20.0807 29.4447 19.8893 28.978 19.768C28.5113 19.6373 28.0633 19.572 27.634 19.572C27.13 19.572 26.7193 19.6327 26.402 19.754C26.094 19.8753 25.8653 20.034 25.716 20.23C25.576 20.426 25.506 20.65 25.506 20.902C25.506 21.2007 25.6087 21.4433 25.814 21.63C26.0287 21.8073 26.304 21.9473 26.64 22.05C26.9853 22.1527 27.368 22.2553 27.788 22.358C28.208 22.4513 28.6233 22.5587 29.034 22.68C29.454 22.8013 29.832 22.96 30.168 23.156C30.5133 23.352 30.7887 23.618 30.994 23.954C31.2087 24.29 31.316 24.7147 31.316 25.228C31.316 25.7507 31.1713 26.236 30.882 26.684C30.602 27.1227 30.168 27.4773 29.58 27.748C28.992 28.0093 28.25 28.14 27.354 28.14ZM34.5207 22.274H39.3927V23.772H34.5207V22.274ZM34.6607 26.474H40.1907V28H32.8407V18.2H39.9947V19.726H34.6607V26.474ZM46.5316 28.14C45.7663 28.14 45.0616 28.014 44.4176 27.762C43.7736 27.51 43.2136 27.16 42.7376 26.712C42.2616 26.2547 41.8929 25.7227 41.6316 25.116C41.3703 24.5 41.2396 23.828 41.2396 23.1C41.2396 22.372 41.3703 21.7047 41.6316 21.098C41.8929 20.482 42.2616 19.95 42.7376 19.502C43.2136 19.0447 43.7736 18.69 44.4176 18.438C45.0616 18.186 45.7616 18.06 46.5176 18.06C47.2829 18.06 47.9829 18.186 48.6176 18.438C49.2616 18.69 49.8216 19.0447 50.2976 19.502C50.7736 19.95 51.1423 20.482 51.4036 21.098C51.6649 21.7047 51.7956 22.372 51.7956 23.1C51.7956 23.828 51.6649 24.5 51.4036 25.116C51.1423 25.732 50.7736 26.264 50.2976 26.712C49.8216 27.16 49.2616 27.51 48.6176 27.762C47.9829 28.014 47.2876 28.14 46.5316 28.14ZM46.5176 26.544C47.0123 26.544 47.4696 26.46 47.8896 26.292C48.3096 26.124 48.6736 25.886 48.9816 25.578C49.2896 25.2607 49.5276 24.8967 49.6956 24.486C49.8729 24.066 49.9616 23.604 49.9616 23.1C49.9616 22.596 49.8729 22.1387 49.6956 21.728C49.5276 21.308 49.2896 20.944 48.9816 20.636C48.6736 20.3187 48.3096 20.076 47.8896 19.908C47.4696 19.74 47.0123 19.656 46.5176 19.656C46.0229 19.656 45.5656 19.74 45.1456 19.908C44.7349 20.076 44.3709 20.3187 44.0536 20.636C43.7456 20.944 43.5029 21.308 43.3256 21.728C43.1576 22.1387 43.0736 22.596 43.0736 23.1C43.0736 23.5947 43.1576 24.052 43.3256 24.472C43.5029 24.892 43.7456 25.2607 44.0536 25.578C44.3616 25.886 44.7256 26.124 45.1456 26.292C45.5656 26.46 46.0229 26.544 46.5176 26.544ZM27.578 45.098C26.794 45.098 26.094 44.9347 25.478 44.608C24.8713 44.272 24.3953 43.8147 24.05 43.236C23.7047 42.6573 23.532 41.9993 23.532 41.262C23.532 40.5153 23.7047 39.8573 24.05 39.288C24.3953 38.7093 24.8713 38.2567 25.478 37.93C26.094 37.6033 26.794 37.44 27.578 37.44C28.306 37.44 28.9453 37.5893 29.496 37.888C30.056 38.1773 30.4807 38.6067 30.77 39.176L29.426 39.96C29.202 39.6053 28.9267 39.344 28.6 39.176C28.2827 39.008 27.9373 38.924 27.564 38.924C27.1347 38.924 26.7473 39.0173 26.402 39.204C26.0567 39.3907 25.786 39.6613 25.59 40.016C25.394 40.3613 25.296 40.7767 25.296 41.262C25.296 41.7473 25.394 42.1673 25.59 42.522C25.786 42.8673 26.0567 43.1333 26.402 43.32C26.7473 43.5067 27.1347 43.6 27.564 43.6C27.9373 43.6 28.2827 43.516 28.6 43.348C28.9267 43.18 29.202 42.9187 29.426 42.564L30.77 43.348C30.4807 43.908 30.056 44.342 29.496 44.65C28.9453 44.9487 28.306 45.098 27.578 45.098ZM32.0308 45V37.524H39.1988V45H37.4628V38.602L37.8688 39.008H33.3748L33.7808 38.602V45H32.0308ZM44.7661 45.098C43.9354 45.098 43.2074 44.9347 42.5821 44.608C41.9661 44.272 41.4854 43.8147 41.1401 43.236C40.8041 42.6573 40.6361 41.9993 40.6361 41.262C40.6361 40.5153 40.7994 39.8573 41.1261 39.288C41.4621 38.7093 41.9194 38.2567 42.4981 37.93C43.0861 37.6033 43.7534 37.44 44.5001 37.44C45.2281 37.44 45.8767 37.5987 46.4461 37.916C47.0154 38.2333 47.4634 38.6813 47.7901 39.26C48.1167 39.8387 48.2801 40.52 48.2801 41.304C48.2801 41.3787 48.2754 41.4627 48.2661 41.556C48.2661 41.6493 48.2614 41.738 48.2521 41.822H42.0221V40.66H47.3281L46.6421 41.024C46.6514 40.5947 46.5627 40.2167 46.3761 39.89C46.1894 39.5633 45.9327 39.3067 45.6061 39.12C45.2887 38.9333 44.9201 38.84 44.5001 38.84C44.0707 38.84 43.6927 38.9333 43.3661 39.12C43.0487 39.3067 42.7967 39.568 42.6101 39.904C42.4327 40.2307 42.3441 40.618 42.3441 41.066V41.346C42.3441 41.794 42.4467 42.1907 42.6521 42.536C42.8574 42.8813 43.1467 43.1473 43.5201 43.334C43.8934 43.5207 44.3227 43.614 44.8081 43.614C45.2281 43.614 45.6061 43.5487 45.9421 43.418C46.2781 43.2873 46.5767 43.082 46.8381 42.802L47.7761 43.88C47.4401 44.272 47.0154 44.5753 46.5021 44.79C45.9981 44.9953 45.4194 45.098 44.7661 45.098ZM49.9141 45V37.524H51.6641V43.516H55.2341V37.524H56.9841V45H49.9141ZM56.4801 46.666V44.958L56.8861 45H55.2341V43.516H58.1181V46.666H56.4801ZM59.3958 45V37.524H61.1458V42.452L65.2758 37.524H66.8718V45H65.1218V40.072L61.0058 45H59.3958ZM73.4819 45V43.488L73.3839 43.166V40.52C73.3839 40.0067 73.2299 39.61 72.9219 39.33C72.6139 39.0407 72.1473 38.896 71.5219 38.896C71.1019 38.896 70.6866 38.9613 70.2759 39.092C69.8746 39.2227 69.5339 39.4047 69.2539 39.638L68.5679 38.364C68.9693 38.056 69.4453 37.8273 69.9959 37.678C70.5559 37.5193 71.1346 37.44 71.7319 37.44C72.8146 37.44 73.6499 37.7013 74.2379 38.224C74.8353 38.7373 75.1339 39.5353 75.1339 40.618V45H73.4819ZM71.1299 45.098C70.5699 45.098 70.0799 45.0047 69.6599 44.818C69.2399 44.622 68.9133 44.356 68.6799 44.02C68.4559 43.6747 68.3439 43.2873 68.3439 42.858C68.3439 42.438 68.4419 42.06 68.6379 41.724C68.8433 41.388 69.1746 41.122 69.6319 40.926C70.0893 40.73 70.6959 40.632 71.4519 40.632H73.6219V41.794H71.5779C70.9806 41.794 70.5793 41.892 70.3739 42.088C70.1686 42.2747 70.0659 42.508 70.0659 42.788C70.0659 43.1053 70.1919 43.3573 70.4439 43.544C70.6959 43.7307 71.0459 43.824 71.4939 43.824C71.9233 43.824 72.3059 43.726 72.6419 43.53C72.9873 43.334 73.2346 43.0447 73.3839 42.662L73.6779 43.712C73.5099 44.1507 73.2066 44.4913 72.7679 44.734C72.3386 44.9767 71.7926 45.098 71.1299 45.098ZM75.9274 44.986L76.0114 43.516C76.0768 43.5253 76.1374 43.5347 76.1934 43.544C76.2494 43.5533 76.3008 43.558 76.3474 43.558C76.6368 43.558 76.8608 43.4693 77.0194 43.292C77.1781 43.1147 77.2948 42.8767 77.3694 42.578C77.4534 42.27 77.5094 41.9293 77.5374 41.556C77.5748 41.1733 77.6028 40.7907 77.6214 40.408L77.7474 37.524H83.7954V45H82.0454V38.532L82.4514 39.008H78.8954L79.2734 38.518L79.1754 40.492C79.1474 41.1547 79.0914 41.7707 79.0074 42.34C78.9328 42.9 78.8114 43.39 78.6434 43.81C78.4848 44.23 78.2608 44.5567 77.9714 44.79C77.6914 45.0233 77.3321 45.14 76.8934 45.14C76.7534 45.14 76.5994 45.126 76.4314 45.098C76.2728 45.07 76.1048 45.0327 75.9274 44.986ZM85.8723 45V37.524H87.6223V42.452L91.7523 37.524H93.3483V45H91.5983V40.072L87.4823 45H85.8723ZM98.8243 45.098C98.0403 45.098 97.3403 44.9347 96.7243 44.608C96.1177 44.272 95.6417 43.8147 95.2963 43.236C94.951 42.6573 94.7783 41.9993 94.7783 41.262C94.7783 40.5153 94.951 39.8573 95.2963 39.288C95.6417 38.7093 96.1177 38.2567 96.7243 37.93C97.3403 37.6033 98.0403 37.44 98.8243 37.44C99.5523 37.44 100.192 37.5893 100.742 37.888C101.302 38.1773 101.727 38.6067 102.016 39.176L100.672 39.96C100.448 39.6053 100.173 39.344 99.8463 39.176C99.529 39.008 99.1837 38.924 98.8103 38.924C98.381 38.924 97.9937 39.0173 97.6483 39.204C97.303 39.3907 97.0323 39.6613 96.8363 40.016C96.6403 40.3613 96.5423 40.7767 96.5423 41.262C96.5423 41.7473 96.6403 42.1673 96.8363 42.522C97.0323 42.8673 97.303 43.1333 97.6483 43.32C97.9937 43.5067 98.381 43.6 98.8103 43.6C99.1837 43.6 99.529 43.516 99.8463 43.348C100.173 43.18 100.448 42.9187 100.672 42.564L102.016 43.348C101.727 43.908 101.302 44.342 100.742 44.65C100.192 44.9487 99.5523 45.098 98.8243 45.098ZM104.763 45V38.588L105.169 39.008H102.131V37.524H109.131V39.008H106.107L106.513 38.588V45H104.763Z" fill="black"/>
<path fill-rule="evenodd" clip-rule="evenodd" d="M13.1874 7.34022L22.2386 4.18762L3.05502 -0.000184152L12.7777 17.3455L13.1874 7.34022ZM11.651 12.6392L11.9069 6.39024L17.3933 4.47926L5.63884 1.91324L11.651 12.6392Z" fill="#8E8E93"/>
<path d="M16.6252 42.5418L7.12516 52.0418L2.771 47.6876L3.88725 46.5714L7.12516 49.8014L15.5089 41.4255L16.6252 42.5418Z" fill="#166FF5"/>
</svg>
