<svg width="107" height="49" viewBox="0 0 107 49" fill="none" xmlns="http://www.w3.org/2000/svg">
<path d="M24.354 14.14C23.5887 14.14 22.856 14.0327 22.156 13.818C21.456 13.594 20.9007 13.3093 20.49 12.964L21.12 11.55C21.512 11.858 21.9973 12.1147 22.576 12.32C23.1547 12.5253 23.7473 12.628 24.354 12.628C24.8673 12.628 25.2827 12.572 25.6 12.46C25.9173 12.348 26.1507 12.1987 26.3 12.012C26.4493 11.816 26.524 11.5967 26.524 11.354C26.524 11.0553 26.4167 10.8173 26.202 10.64C25.9873 10.4533 25.7073 10.3087 25.362 10.206C25.026 10.094 24.648 9.99133 24.228 9.898C23.8173 9.80467 23.402 9.69733 22.982 9.576C22.5713 9.44533 22.1933 9.282 21.848 9.086C21.512 8.88067 21.2367 8.61 21.022 8.274C20.8073 7.938 20.7 7.50867 20.7 6.986C20.7 6.454 20.84 5.96867 21.12 5.53C21.4093 5.082 21.8433 4.72733 22.422 4.466C23.01 4.19533 23.752 4.06 24.648 4.06C25.236 4.06 25.8193 4.13467 26.398 4.284C26.9767 4.43333 27.4807 4.648 27.91 4.928L27.336 6.342C26.8973 6.08067 26.4447 5.88933 25.978 5.768C25.5113 5.63733 25.0633 5.572 24.634 5.572C24.13 5.572 23.7193 5.63267 23.402 5.754C23.094 5.87533 22.8653 6.034 22.716 6.23C22.576 6.426 22.506 6.65 22.506 6.902C22.506 7.20067 22.6087 7.44333 22.814 7.63C23.0287 7.80733 23.304 7.94733 23.64 8.05C23.9853 8.15267 24.368 8.25533 24.788 8.358C25.208 8.45133 25.6233 8.55867 26.034 8.68C26.454 8.80133 26.832 8.96 27.168 9.156C27.5133 9.352 27.7887 9.618 27.994 9.954C28.2087 10.29 28.316 10.7147 28.316 11.228C28.316 11.7507 28.1713 12.236 27.882 12.684C27.602 13.1227 27.168 13.4773 26.58 13.748C25.992 14.0093 25.25 14.14 24.354 14.14ZM31.5207 8.274H36.3927V9.772H31.5207V8.274ZM31.6607 12.474H37.1907V14H29.8407V4.2H36.9947V5.726H31.6607V12.474ZM43.5316 14.14C42.7663 14.14 42.0616 14.014 41.4176 13.762C40.7736 13.51 40.2136 13.16 39.7376 12.712C39.2616 12.2547 38.8929 11.7227 38.6316 11.116C38.3703 10.5 38.2396 9.828 38.2396 9.1C38.2396 8.372 38.3703 7.70467 38.6316 7.098C38.8929 6.482 39.2616 5.95 39.7376 5.502C40.2136 5.04467 40.7736 4.69 41.4176 4.438C42.0616 4.186 42.7616 4.06 43.5176 4.06C44.2829 4.06 44.9829 4.186 45.6176 4.438C46.2616 4.69 46.8216 5.04467 47.2976 5.502C47.7736 5.95 48.1423 6.482 48.4036 7.098C48.6649 7.70467 48.7956 8.372 48.7956 9.1C48.7956 9.828 48.6649 10.5 48.4036 11.116C48.1423 11.732 47.7736 12.264 47.2976 12.712C46.8216 13.16 46.2616 13.51 45.6176 13.762C44.9829 14.014 44.2876 14.14 43.5316 14.14ZM43.5176 12.544C44.0123 12.544 44.4696 12.46 44.8896 12.292C45.3096 12.124 45.6736 11.886 45.9816 11.578C46.2896 11.2607 46.5276 10.8967 46.6956 10.486C46.8729 10.066 46.9616 9.604 46.9616 9.1C46.9616 8.596 46.8729 8.13867 46.6956 7.728C46.5276 7.308 46.2896 6.944 45.9816 6.636C45.6736 6.31867 45.3096 6.076 44.8896 5.908C44.4696 5.74 44.0123 5.656 43.5176 5.656C43.0229 5.656 42.5656 5.74 42.1456 5.908C41.7349 6.076 41.3709 6.31867 41.0536 6.636C40.7456 6.944 40.5029 7.308 40.3256 7.728C40.1576 8.13867 40.0736 8.596 40.0736 9.1C40.0736 9.59467 40.1576 10.052 40.3256 10.472C40.5029 10.892 40.7456 11.2607 41.0536 11.578C41.3616 11.886 41.7256 12.124 42.1456 12.292C42.5656 12.46 43.0229 12.544 43.5176 12.544ZM24.578 31.098C23.794 31.098 23.094 30.9347 22.478 30.608C21.8713 30.272 21.3953 29.8147 21.05 29.236C20.7047 28.6573 20.532 27.9993 20.532 27.262C20.532 26.5153 20.7047 25.8573 21.05 25.288C21.3953 24.7093 21.8713 24.2567 22.478 23.93C23.094 23.6033 23.794 23.44 24.578 23.44C25.306 23.44 25.9453 23.5893 26.496 23.888C27.056 24.1773 27.4807 24.6067 27.77 25.176L26.426 25.96C26.202 25.6053 25.9267 25.344 25.6 25.176C25.2827 25.008 24.9373 24.924 24.564 24.924C24.1347 24.924 23.7473 25.0173 23.402 25.204C23.0567 25.3907 22.786 25.6613 22.59 26.016C22.394 26.3613 22.296 26.7767 22.296 27.262C22.296 27.7473 22.394 28.1673 22.59 28.522C22.786 28.8673 23.0567 29.1333 23.402 29.32C23.7473 29.5067 24.1347 29.6 24.564 29.6C24.9373 29.6 25.2827 29.516 25.6 29.348C25.9267 29.18 26.202 28.9187 26.426 28.564L27.77 29.348C27.4807 29.908 27.056 30.342 26.496 30.65C25.9453 30.9487 25.306 31.098 24.578 31.098ZM29.0308 31V23.524H36.1988V31H34.4628V24.602L34.8688 25.008H30.3748L30.7808 24.602V31H29.0308ZM41.7661 31.098C40.9354 31.098 40.2074 30.9347 39.5821 30.608C38.9661 30.272 38.4854 29.8147 38.1401 29.236C37.8041 28.6573 37.6361 27.9993 37.6361 27.262C37.6361 26.5153 37.7994 25.8573 38.1261 25.288C38.4621 24.7093 38.9194 24.2567 39.4981 23.93C40.0861 23.6033 40.7534 23.44 41.5001 23.44C42.2281 23.44 42.8767 23.5987 43.4461 23.916C44.0154 24.2333 44.4634 24.6813 44.7901 25.26C45.1167 25.8387 45.2801 26.52 45.2801 27.304C45.2801 27.3787 45.2754 27.4627 45.2661 27.556C45.2661 27.6493 45.2614 27.738 45.2521 27.822H39.0221V26.66H44.3281L43.6421 27.024C43.6514 26.5947 43.5627 26.2167 43.3761 25.89C43.1894 25.5633 42.9327 25.3067 42.6061 25.12C42.2887 24.9333 41.9201 24.84 41.5001 24.84C41.0707 24.84 40.6927 24.9333 40.3661 25.12C40.0487 25.3067 39.7967 25.568 39.6101 25.904C39.4327 26.2307 39.3441 26.618 39.3441 27.066V27.346C39.3441 27.794 39.4467 28.1907 39.6521 28.536C39.8574 28.8813 40.1467 29.1473 40.5201 29.334C40.8934 29.5207 41.3227 29.614 41.8081 29.614C42.2281 29.614 42.6061 29.5487 42.9421 29.418C43.2781 29.2873 43.5767 29.082 43.8381 28.802L44.7761 29.88C44.4401 30.272 44.0154 30.5753 43.5021 30.79C42.9981 30.9953 42.4194 31.098 41.7661 31.098ZM46.9141 31V23.524H48.6641V29.516H52.2341V23.524H53.9841V31H46.9141ZM53.4801 32.666V30.958L53.8861 31H52.2341V29.516H55.1181V32.666H53.4801ZM56.3958 31V23.524H58.1458V28.452L62.2758 23.524H63.8718V31H62.1218V26.072L58.0058 31H56.3958ZM70.4819 31V29.488L70.3839 29.166V26.52C70.3839 26.0067 70.2299 25.61 69.9219 25.33C69.6139 25.0407 69.1473 24.896 68.5219 24.896C68.1019 24.896 67.6866 24.9613 67.2759 25.092C66.8746 25.2227 66.5339 25.4047 66.2539 25.638L65.5679 24.364C65.9693 24.056 66.4453 23.8273 66.9959 23.678C67.5559 23.5193 68.1346 23.44 68.7319 23.44C69.8146 23.44 70.6499 23.7013 71.2379 24.224C71.8353 24.7373 72.1339 25.5353 72.1339 26.618V31H70.4819ZM68.1299 31.098C67.5699 31.098 67.0799 31.0047 66.6599 30.818C66.2399 30.622 65.9133 30.356 65.6799 30.02C65.4559 29.6747 65.3439 29.2873 65.3439 28.858C65.3439 28.438 65.4419 28.06 65.6379 27.724C65.8433 27.388 66.1746 27.122 66.6319 26.926C67.0893 26.73 67.6959 26.632 68.4519 26.632H70.6219V27.794H68.5779C67.9806 27.794 67.5793 27.892 67.3739 28.088C67.1686 28.2747 67.0659 28.508 67.0659 28.788C67.0659 29.1053 67.1919 29.3573 67.4439 29.544C67.6959 29.7307 68.0459 29.824 68.4939 29.824C68.9233 29.824 69.3059 29.726 69.6419 29.53C69.9873 29.334 70.2346 29.0447 70.3839 28.662L70.6779 29.712C70.5099 30.1507 70.2066 30.4913 69.7679 30.734C69.3386 30.9767 68.7926 31.098 68.1299 31.098ZM72.9274 30.986L73.0114 29.516C73.0768 29.5253 73.1374 29.5347 73.1934 29.544C73.2494 29.5533 73.3008 29.558 73.3474 29.558C73.6368 29.558 73.8608 29.4693 74.0194 29.292C74.1781 29.1147 74.2948 28.8767 74.3694 28.578C74.4534 28.27 74.5094 27.9293 74.5374 27.556C74.5748 27.1733 74.6028 26.7907 74.6214 26.408L74.7474 23.524H80.7954V31H79.0454V24.532L79.4514 25.008H75.8954L76.2734 24.518L76.1754 26.492C76.1474 27.1547 76.0914 27.7707 76.0074 28.34C75.9328 28.9 75.8114 29.39 75.6434 29.81C75.4848 30.23 75.2608 30.5567 74.9714 30.79C74.6914 31.0233 74.3321 31.14 73.8934 31.14C73.7534 31.14 73.5994 31.126 73.4314 31.098C73.2728 31.07 73.1048 31.0327 72.9274 30.986ZM82.8723 31V23.524H84.6223V28.452L88.7523 23.524H90.3483V31H88.5983V26.072L84.4823 31H82.8723ZM95.8243 31.098C95.0403 31.098 94.3403 30.9347 93.7243 30.608C93.1177 30.272 92.6417 29.8147 92.2963 29.236C91.951 28.6573 91.7783 27.9993 91.7783 27.262C91.7783 26.5153 91.951 25.8573 92.2963 25.288C92.6417 24.7093 93.1177 24.2567 93.7243 23.93C94.3403 23.6033 95.0403 23.44 95.8243 23.44C96.5523 23.44 97.1917 23.5893 97.7423 23.888C98.3023 24.1773 98.727 24.6067 99.0163 25.176L97.6723 25.96C97.4483 25.6053 97.173 25.344 96.8463 25.176C96.529 25.008 96.1837 24.924 95.8103 24.924C95.381 24.924 94.9937 25.0173 94.6483 25.204C94.303 25.3907 94.0323 25.6613 93.8363 26.016C93.6403 26.3613 93.5423 26.7767 93.5423 27.262C93.5423 27.7473 93.6403 28.1673 93.8363 28.522C94.0323 28.8673 94.303 29.1333 94.6483 29.32C94.9937 29.5067 95.381 29.6 95.8103 29.6C96.1837 29.6 96.529 29.516 96.8463 29.348C97.173 29.18 97.4483 28.9187 97.6723 28.564L99.0163 29.348C98.727 29.908 98.3023 30.342 97.7423 30.65C97.1917 30.9487 96.5523 31.098 95.8243 31.098ZM101.763 31V24.588L102.169 25.008H99.1307V23.524H106.131V25.008H103.107L103.513 24.588V31H101.763Z" fill="black"/>
<path fill-rule="evenodd" clip-rule="evenodd" d="M10.1029 35.865L9.8895 26.2828L2.78474e-05 43.2459L19.4963 39.3345L10.1029 35.865ZM14.6717 38.9578L8.80491 36.7909L8.67553 30.9826L2.61589 41.3765L14.6717 38.9578Z" fill="#8E8E93"/>
</svg>
