<svg width="113" height="76" viewBox="0 0 113 76" fill="none" xmlns="http://www.w3.org/2000/svg">
<path fill-rule="evenodd" clip-rule="evenodd" d="M15.1548 9.92144L27.389 5.66015L1.45913 -0.000382547L14.6011 23.4453L15.1548 9.92144ZM13.0781 17.0839L13.4239 8.63737L20.8398 6.05436L4.95161 2.58594L13.0781 17.0839Z" fill="#8E8E93"/>
<path d="M21.8283 57.4862L9.35475 69.9597L3.6377 64.2427L5.10334 62.777L9.35475 67.018L20.3627 56.0205L21.8283 57.4862Z" fill="#166FF5"/>
<path d="M30.354 34.139C29.5887 34.139 28.856 34.0317 28.156 33.817C27.456 33.593 26.9007 33.3084 26.49 32.963L27.12 31.549C27.512 31.857 27.9973 32.1137 28.576 32.319C29.1547 32.5244 29.7473 32.627 30.354 32.627C30.8673 32.627 31.2827 32.571 31.6 32.459C31.9173 32.347 32.1507 32.1977 32.3 32.011C32.4493 31.815 32.524 31.5957 32.524 31.353C32.524 31.0544 32.4167 30.8164 32.202 30.639C31.9873 30.4524 31.7073 30.3077 31.362 30.205C31.026 30.093 30.648 29.9904 30.228 29.897C29.8173 29.8037 29.402 29.6964 28.982 29.575C28.5713 29.4444 28.1933 29.281 27.848 29.085C27.512 28.8797 27.2367 28.609 27.022 28.273C26.8073 27.937 26.7 27.5077 26.7 26.985C26.7 26.453 26.84 25.9677 27.12 25.529C27.4093 25.081 27.8433 24.7264 28.422 24.465C29.01 24.1944 29.752 24.059 30.648 24.059C31.236 24.059 31.8193 24.1337 32.398 24.283C32.9767 24.4324 33.4807 24.647 33.91 24.927L33.336 26.341C32.8973 26.0797 32.4447 25.8884 31.978 25.767C31.5113 25.6364 31.0633 25.571 30.634 25.571C30.13 25.571 29.7193 25.6317 29.402 25.753C29.094 25.8744 28.8653 26.033 28.716 26.229C28.576 26.425 28.506 26.649 28.506 26.901C28.506 27.1997 28.6087 27.4424 28.814 27.629C29.0287 27.8064 29.304 27.9464 29.64 28.049C29.9853 28.1517 30.368 28.2544 30.788 28.357C31.208 28.4504 31.6233 28.5577 32.034 28.679C32.454 28.8004 32.832 28.959 33.168 29.155C33.5133 29.351 33.7887 29.617 33.994 29.953C34.2087 30.289 34.316 30.7137 34.316 31.227C34.316 31.7497 34.1713 32.235 33.882 32.683C33.602 33.1217 33.168 33.4764 32.58 33.747C31.992 34.0084 31.25 34.139 30.354 34.139ZM37.5207 28.273H42.3927V29.771H37.5207V28.273ZM37.6607 32.473H43.1907V33.999H35.8407V24.199H42.9947V25.725H37.6607V32.473ZM49.5316 34.139C48.7663 34.139 48.0616 34.013 47.4176 33.761C46.7736 33.509 46.2136 33.159 45.7376 32.711C45.2616 32.2537 44.8929 31.7217 44.6316 31.115C44.3703 30.499 44.2396 29.827 44.2396 29.099C44.2396 28.371 44.3703 27.7037 44.6316 27.097C44.8929 26.481 45.2616 25.949 45.7376 25.501C46.2136 25.0437 46.7736 24.689 47.4176 24.437C48.0616 24.185 48.7616 24.059 49.5176 24.059C50.2829 24.059 50.9829 24.185 51.6176 24.437C52.2616 24.689 52.8216 25.0437 53.2976 25.501C53.7736 25.949 54.1423 26.481 54.4036 27.097C54.6649 27.7037 54.7956 28.371 54.7956 29.099C54.7956 29.827 54.6649 30.499 54.4036 31.115C54.1423 31.731 53.7736 32.263 53.2976 32.711C52.8216 33.159 52.2616 33.509 51.6176 33.761C50.9829 34.013 50.2876 34.139 49.5316 34.139ZM49.5176 32.543C50.0123 32.543 50.4696 32.459 50.8896 32.291C51.3096 32.123 51.6736 31.885 51.9816 31.577C52.2896 31.2597 52.5276 30.8957 52.6956 30.485C52.8729 30.065 52.9616 29.603 52.9616 29.099C52.9616 28.595 52.8729 28.1377 52.6956 27.727C52.5276 27.307 52.2896 26.943 51.9816 26.635C51.6736 26.3177 51.3096 26.075 50.8896 25.907C50.4696 25.739 50.0123 25.655 49.5176 25.655C49.0229 25.655 48.5656 25.739 48.1456 25.907C47.7349 26.075 47.3709 26.3177 47.0536 26.635C46.7456 26.943 46.5029 27.307 46.3256 27.727C46.1576 28.1377 46.0736 28.595 46.0736 29.099C46.0736 29.5937 46.1576 30.051 46.3256 30.471C46.5029 30.891 46.7456 31.2597 47.0536 31.577C47.3616 31.885 47.7256 32.123 48.1456 32.291C48.5656 32.459 49.0229 32.543 49.5176 32.543ZM30.578 51.097C29.794 51.097 29.094 50.9337 28.478 50.607C27.8713 50.271 27.3953 49.8137 27.05 49.235C26.7047 48.6564 26.532 47.9984 26.532 47.261C26.532 46.5144 26.7047 45.8564 27.05 45.287C27.3953 44.7084 27.8713 44.2557 28.478 43.929C29.094 43.6024 29.794 43.439 30.578 43.439C31.306 43.439 31.9453 43.5884 32.496 43.887C33.056 44.1764 33.4807 44.6057 33.77 45.175L32.426 45.959C32.202 45.6044 31.9267 45.343 31.6 45.175C31.2827 45.007 30.9373 44.923 30.564 44.923C30.1347 44.923 29.7473 45.0164 29.402 45.203C29.0567 45.3897 28.786 45.6604 28.59 46.015C28.394 46.3604 28.296 46.7757 28.296 47.261C28.296 47.7464 28.394 48.1664 28.59 48.521C28.786 48.8664 29.0567 49.1324 29.402 49.319C29.7473 49.5057 30.1347 49.599 30.564 49.599C30.9373 49.599 31.2827 49.515 31.6 49.347C31.9267 49.179 32.202 48.9177 32.426 48.563L33.77 49.347C33.4807 49.907 33.056 50.341 32.496 50.649C31.9453 50.9477 31.306 51.097 30.578 51.097ZM35.0308 50.999V43.523H42.1988V50.999H40.4628V44.601L40.8688 45.007H36.3748L36.7808 44.601V50.999H35.0308ZM47.7661 51.097C46.9354 51.097 46.2074 50.9337 45.5821 50.607C44.9661 50.271 44.4854 49.8137 44.1401 49.235C43.8041 48.6564 43.6361 47.9984 43.6361 47.261C43.6361 46.5144 43.7994 45.8564 44.1261 45.287C44.4621 44.7084 44.9194 44.2557 45.4981 43.929C46.0861 43.6024 46.7534 43.439 47.5001 43.439C48.2281 43.439 48.8767 43.5977 49.4461 43.915C50.0154 44.2324 50.4634 44.6804 50.7901 45.259C51.1167 45.8377 51.2801 46.519 51.2801 47.303C51.2801 47.3777 51.2754 47.4617 51.2661 47.555C51.2661 47.6484 51.2614 47.737 51.2521 47.821H45.0221V46.659H50.3281L49.6421 47.023C49.6514 46.5937 49.5627 46.2157 49.3761 45.889C49.1894 45.5624 48.9327 45.3057 48.6061 45.119C48.2887 44.9324 47.9201 44.839 47.5001 44.839C47.0707 44.839 46.6927 44.9324 46.3661 45.119C46.0487 45.3057 45.7967 45.567 45.6101 45.903C45.4327 46.2297 45.3441 46.617 45.3441 47.065V47.345C45.3441 47.793 45.4467 48.1897 45.6521 48.535C45.8574 48.8804 46.1467 49.1464 46.5201 49.333C46.8934 49.5197 47.3227 49.613 47.8081 49.613C48.2281 49.613 48.6061 49.5477 48.9421 49.417C49.2781 49.2864 49.5767 49.081 49.8381 48.801L50.7761 49.879C50.4401 50.271 50.0154 50.5744 49.5021 50.789C48.9981 50.9944 48.4194 51.097 47.7661 51.097ZM52.9141 50.999V43.523H54.6641V49.515H58.2341V43.523H59.9841V50.999H52.9141ZM59.4801 52.665V50.957L59.8861 50.999H58.2341V49.515H61.1181V52.665H59.4801ZM62.3958 50.999V43.523H64.1458V48.451L68.2758 43.523H69.8718V50.999H68.1218V46.071L64.0058 50.999H62.3958ZM76.4819 50.999V49.487L76.3839 49.165V46.519C76.3839 46.0057 76.2299 45.609 75.9219 45.329C75.6139 45.0397 75.1473 44.895 74.5219 44.895C74.1019 44.895 73.6866 44.9604 73.2759 45.091C72.8746 45.2217 72.5339 45.4037 72.2539 45.637L71.5679 44.363C71.9693 44.055 72.4453 43.8264 72.9959 43.677C73.5559 43.5184 74.1346 43.439 74.7319 43.439C75.8146 43.439 76.6499 43.7004 77.2379 44.223C77.8353 44.7364 78.1339 45.5344 78.1339 46.617V50.999H76.4819ZM74.1299 51.097C73.5699 51.097 73.0799 51.0037 72.6599 50.817C72.2399 50.621 71.9133 50.355 71.6799 50.019C71.4559 49.6737 71.3439 49.2864 71.3439 48.857C71.3439 48.437 71.4419 48.059 71.6379 47.723C71.8433 47.387 72.1746 47.121 72.6319 46.925C73.0893 46.729 73.6959 46.631 74.4519 46.631H76.6219V47.793H74.5779C73.9806 47.793 73.5793 47.891 73.3739 48.087C73.1686 48.2737 73.0659 48.507 73.0659 48.787C73.0659 49.1044 73.1919 49.3564 73.4439 49.543C73.6959 49.7297 74.0459 49.823 74.4939 49.823C74.9233 49.823 75.3059 49.725 75.6419 49.529C75.9873 49.333 76.2346 49.0437 76.3839 48.661L76.6779 49.711C76.5099 50.1497 76.2066 50.4904 75.7679 50.733C75.3386 50.9757 74.7926 51.097 74.1299 51.097ZM78.9274 50.985L79.0114 49.515C79.0768 49.5244 79.1374 49.5337 79.1934 49.543C79.2494 49.5524 79.3008 49.557 79.3474 49.557C79.6368 49.557 79.8608 49.4684 80.0194 49.291C80.1781 49.1137 80.2948 48.8757 80.3694 48.577C80.4534 48.269 80.5094 47.9284 80.5374 47.555C80.5748 47.1724 80.6028 46.7897 80.6214 46.407L80.7474 43.523H86.7954V50.999H85.0454V44.531L85.4514 45.007H81.8954L82.2734 44.517L82.1754 46.491C82.1474 47.1537 82.0914 47.7697 82.0074 48.339C81.9328 48.899 81.8114 49.389 81.6434 49.809C81.4848 50.229 81.2608 50.5557 80.9714 50.789C80.6914 51.0224 80.3321 51.139 79.8934 51.139C79.7534 51.139 79.5994 51.125 79.4314 51.097C79.2728 51.069 79.1048 51.0317 78.9274 50.985ZM88.8723 50.999V43.523H90.6223V48.451L94.7523 43.523H96.3483V50.999H94.5983V46.071L90.4823 50.999H88.8723ZM101.824 51.097C101.04 51.097 100.34 50.9337 99.7243 50.607C99.1177 50.271 98.6417 49.8137 98.2963 49.235C97.951 48.6564 97.7783 47.9984 97.7783 47.261C97.7783 46.5144 97.951 45.8564 98.2963 45.287C98.6417 44.7084 99.1177 44.2557 99.7243 43.929C100.34 43.6024 101.04 43.439 101.824 43.439C102.552 43.439 103.192 43.5884 103.742 43.887C104.302 44.1764 104.727 44.6057 105.016 45.175L103.672 45.959C103.448 45.6044 103.173 45.343 102.846 45.175C102.529 45.007 102.184 44.923 101.81 44.923C101.381 44.923 100.994 45.0164 100.648 45.203C100.303 45.3897 100.032 45.6604 99.8363 46.015C99.6403 46.3604 99.5423 46.7757 99.5423 47.261C99.5423 47.7464 99.6403 48.1664 99.8363 48.521C100.032 48.8664 100.303 49.1324 100.648 49.319C100.994 49.5057 101.381 49.599 101.81 49.599C102.184 49.599 102.529 49.515 102.846 49.347C103.173 49.179 103.448 48.9177 103.672 48.563L105.016 49.347C104.727 49.907 104.302 50.341 103.742 50.649C103.192 50.9477 102.552 51.097 101.824 51.097ZM107.763 50.999V44.587L108.169 45.007H105.131V43.523H112.131V45.007H109.107L109.513 44.587V50.999H107.763Z" fill="black"/>
</svg>
