<svg width="112" height="54" viewBox="0 0 112 54" fill="none" xmlns="http://www.w3.org/2000/svg">
<path fill-rule="evenodd" clip-rule="evenodd" d="M13.77 44.0776L26.0042 48.3389L0.0743667 53.9994L13.2163 30.5537L13.77 44.0776ZM11.6933 36.9152L12.0391 45.3617L19.455 47.9447L3.56685 51.4131L11.6933 36.9152Z" fill="#8E8E93"/>
<path d="M28.9692 14.14C28.2039 14.14 27.4712 14.0327 26.7712 13.818C26.0712 13.594 25.5159 13.3093 25.1052 12.964L25.7352 11.55C26.1272 11.858 26.6126 12.1147 27.1912 12.32C27.7699 12.5253 28.3626 12.628 28.9692 12.628C29.4826 12.628 29.8979 12.572 30.2152 12.46C30.5326 12.348 30.7659 12.1987 30.9152 12.012C31.0646 11.816 31.1392 11.5967 31.1392 11.354C31.1392 11.0553 31.0319 10.8173 30.8172 10.64C30.6026 10.4533 30.3226 10.3087 29.9772 10.206C29.6412 10.094 29.2632 9.99133 28.8432 9.898C28.4326 9.80467 28.0172 9.69733 27.5972 9.576C27.1866 9.44533 26.8086 9.282 26.4632 9.086C26.1272 8.88067 25.8519 8.61 25.6372 8.274C25.4226 7.938 25.3152 7.50867 25.3152 6.986C25.3152 6.454 25.4552 5.96867 25.7352 5.53C26.0246 5.082 26.4586 4.72733 27.0372 4.466C27.6252 4.19533 28.3672 4.06 29.2632 4.06C29.8512 4.06 30.4346 4.13467 31.0132 4.284C31.5919 4.43333 32.0959 4.648 32.5252 4.928L31.9512 6.342C31.5126 6.08067 31.0599 5.88933 30.5932 5.768C30.1266 5.63733 29.6786 5.572 29.2492 5.572C28.7452 5.572 28.3346 5.63267 28.0172 5.754C27.7092 5.87533 27.4806 6.034 27.3312 6.23C27.1912 6.426 27.1212 6.65 27.1212 6.902C27.1212 7.20067 27.2239 7.44333 27.4292 7.63C27.6439 7.80733 27.9192 7.94733 28.2552 8.05C28.6006 8.15267 28.9832 8.25533 29.4032 8.358C29.8232 8.45133 30.2386 8.55867 30.6492 8.68C31.0692 8.80133 31.4472 8.96 31.7832 9.156C32.1286 9.352 32.4039 9.618 32.6092 9.954C32.8239 10.29 32.9312 10.7147 32.9312 11.228C32.9312 11.7507 32.7866 12.236 32.4972 12.684C32.2172 13.1227 31.7832 13.4773 31.1952 13.748C30.6072 14.0093 29.8652 14.14 28.9692 14.14ZM36.1359 8.274H41.0079V9.772H36.1359V8.274ZM36.2759 12.474H41.8059V14H34.4559V4.2H41.6099V5.726H36.2759V12.474ZM48.1468 14.14C47.3815 14.14 46.6768 14.014 46.0328 13.762C45.3888 13.51 44.8288 13.16 44.3528 12.712C43.8768 12.2547 43.5082 11.7227 43.2468 11.116C42.9855 10.5 42.8548 9.828 42.8548 9.1C42.8548 8.372 42.9855 7.70467 43.2468 7.098C43.5082 6.482 43.8768 5.95 44.3528 5.502C44.8288 5.04467 45.3888 4.69 46.0328 4.438C46.6768 4.186 47.3768 4.06 48.1328 4.06C48.8982 4.06 49.5982 4.186 50.2328 4.438C50.8768 4.69 51.4368 5.04467 51.9128 5.502C52.3888 5.95 52.7575 6.482 53.0188 7.098C53.2802 7.70467 53.4108 8.372 53.4108 9.1C53.4108 9.828 53.2802 10.5 53.0188 11.116C52.7575 11.732 52.3888 12.264 51.9128 12.712C51.4368 13.16 50.8768 13.51 50.2328 13.762C49.5982 14.014 48.9028 14.14 48.1468 14.14ZM48.1328 12.544C48.6275 12.544 49.0848 12.46 49.5048 12.292C49.9248 12.124 50.2888 11.886 50.5968 11.578C50.9048 11.2607 51.1428 10.8967 51.3108 10.486C51.4882 10.066 51.5768 9.604 51.5768 9.1C51.5768 8.596 51.4882 8.13867 51.3108 7.728C51.1428 7.308 50.9048 6.944 50.5968 6.636C50.2888 6.31867 49.9248 6.076 49.5048 5.908C49.0848 5.74 48.6275 5.656 48.1328 5.656C47.6382 5.656 47.1808 5.74 46.7608 5.908C46.3502 6.076 45.9862 6.31867 45.6688 6.636C45.3608 6.944 45.1182 7.308 44.9408 7.728C44.7728 8.13867 44.6888 8.596 44.6888 9.1C44.6888 9.59467 44.7728 10.052 44.9408 10.472C45.1182 10.892 45.3608 11.2607 45.6688 11.578C45.9768 11.886 46.3408 12.124 46.7608 12.292C47.1808 12.46 47.6382 12.544 48.1328 12.544ZM29.1932 31.098C28.4092 31.098 27.7092 30.9347 27.0932 30.608C26.4866 30.272 26.0106 29.8147 25.6652 29.236C25.3199 28.6573 25.1472 27.9993 25.1472 27.262C25.1472 26.5153 25.3199 25.8573 25.6652 25.288C26.0106 24.7093 26.4866 24.2567 27.0932 23.93C27.7092 23.6033 28.4092 23.44 29.1932 23.44C29.9212 23.44 30.5606 23.5893 31.1112 23.888C31.6712 24.1773 32.0959 24.6067 32.3852 25.176L31.0412 25.96C30.8172 25.6053 30.5419 25.344 30.2152 25.176C29.8979 25.008 29.5526 24.924 29.1792 24.924C28.7499 24.924 28.3626 25.0173 28.0172 25.204C27.6719 25.3907 27.4012 25.6613 27.2052 26.016C27.0092 26.3613 26.9112 26.7767 26.9112 27.262C26.9112 27.7473 27.0092 28.1673 27.2052 28.522C27.4012 28.8673 27.6719 29.1333 28.0172 29.32C28.3626 29.5067 28.7499 29.6 29.1792 29.6C29.5526 29.6 29.8979 29.516 30.2152 29.348C30.5419 29.18 30.8172 28.9187 31.0412 28.564L32.3852 29.348C32.0959 29.908 31.6712 30.342 31.1112 30.65C30.5606 30.9487 29.9212 31.098 29.1932 31.098ZM33.646 31V23.524H40.814V31H39.078V24.602L39.484 25.008H34.99L35.396 24.602V31H33.646ZM46.3813 31.098C45.5506 31.098 44.8226 30.9347 44.1973 30.608C43.5813 30.272 43.1006 29.8147 42.7553 29.236C42.4193 28.6573 42.2513 27.9993 42.2513 27.262C42.2513 26.5153 42.4146 25.8573 42.7413 25.288C43.0773 24.7093 43.5346 24.2567 44.1133 23.93C44.7013 23.6033 45.3686 23.44 46.1153 23.44C46.8433 23.44 47.492 23.5987 48.0613 23.916C48.6306 24.2333 49.0786 24.6813 49.4053 25.26C49.732 25.8387 49.8953 26.52 49.8953 27.304C49.8953 27.3787 49.8906 27.4627 49.8813 27.556C49.8813 27.6493 49.8766 27.738 49.8673 27.822H43.6373V26.66H48.9433L48.2573 27.024C48.2666 26.5947 48.178 26.2167 47.9913 25.89C47.8046 25.5633 47.548 25.3067 47.2213 25.12C46.904 24.9333 46.5353 24.84 46.1153 24.84C45.686 24.84 45.308 24.9333 44.9813 25.12C44.664 25.3067 44.412 25.568 44.2253 25.904C44.048 26.2307 43.9593 26.618 43.9593 27.066V27.346C43.9593 27.794 44.062 28.1907 44.2673 28.536C44.4726 28.8813 44.762 29.1473 45.1353 29.334C45.5086 29.5207 45.938 29.614 46.4233 29.614C46.8433 29.614 47.2213 29.5487 47.5573 29.418C47.8933 29.2873 48.192 29.082 48.4533 28.802L49.3913 29.88C49.0553 30.272 48.6306 30.5753 48.1173 30.79C47.6133 30.9953 47.0346 31.098 46.3813 31.098ZM51.5294 31V23.524H53.2794V29.516H56.8494V23.524H58.5994V31H51.5294ZM58.0954 32.666V30.958L58.5014 31H56.8494V29.516H59.7334V32.666H58.0954ZM61.0111 31V23.524H62.7611V28.452L66.8911 23.524H68.4871V31H66.7371V26.072L62.6211 31H61.0111ZM75.0972 31V29.488L74.9992 29.166V26.52C74.9992 26.0067 74.8452 25.61 74.5372 25.33C74.2292 25.0407 73.7625 24.896 73.1372 24.896C72.7172 24.896 72.3018 24.9613 71.8912 25.092C71.4898 25.2227 71.1492 25.4047 70.8692 25.638L70.1832 24.364C70.5845 24.056 71.0605 23.8273 71.6112 23.678C72.1712 23.5193 72.7498 23.44 73.3472 23.44C74.4298 23.44 75.2652 23.7013 75.8532 24.224C76.4505 24.7373 76.7492 25.5353 76.7492 26.618V31H75.0972ZM72.7452 31.098C72.1852 31.098 71.6952 31.0047 71.2752 30.818C70.8552 30.622 70.5285 30.356 70.2952 30.02C70.0712 29.6747 69.9592 29.2873 69.9592 28.858C69.9592 28.438 70.0572 28.06 70.2532 27.724C70.4585 27.388 70.7898 27.122 71.2472 26.926C71.7045 26.73 72.3112 26.632 73.0672 26.632H75.2372V27.794H73.1932C72.5958 27.794 72.1945 27.892 71.9892 28.088C71.7838 28.2747 71.6812 28.508 71.6812 28.788C71.6812 29.1053 71.8072 29.3573 72.0592 29.544C72.3112 29.7307 72.6612 29.824 73.1092 29.824C73.5385 29.824 73.9212 29.726 74.2572 29.53C74.6025 29.334 74.8498 29.0447 74.9992 28.662L75.2932 29.712C75.1252 30.1507 74.8218 30.4913 74.3832 30.734C73.9538 30.9767 73.4078 31.098 72.7452 31.098ZM77.5427 30.986L77.6267 29.516C77.692 29.5253 77.7527 29.5347 77.8087 29.544C77.8647 29.5533 77.916 29.558 77.9627 29.558C78.252 29.558 78.476 29.4693 78.6347 29.292C78.7933 29.1147 78.91 28.8767 78.9847 28.578C79.0687 28.27 79.1247 27.9293 79.1527 27.556C79.19 27.1733 79.218 26.7907 79.2367 26.408L79.3627 23.524H85.4107V31H83.6607V24.532L84.0667 25.008H80.5107L80.8887 24.518L80.7907 26.492C80.7627 27.1547 80.7067 27.7707 80.6227 28.34C80.548 28.9 80.4267 29.39 80.2587 29.81C80.1 30.23 79.876 30.5567 79.5867 30.79C79.3067 31.0233 78.9473 31.14 78.5087 31.14C78.3687 31.14 78.2147 31.126 78.0467 31.098C77.888 31.07 77.72 31.0327 77.5427 30.986ZM87.4875 31V23.524H89.2375V28.452L93.3675 23.524H94.9635V31H93.2135V26.072L89.0975 31H87.4875ZM100.44 31.098C99.6556 31.098 98.9556 30.9347 98.3396 30.608C97.7329 30.272 97.2569 29.8147 96.9116 29.236C96.5662 28.6573 96.3936 27.9993 96.3936 27.262C96.3936 26.5153 96.5662 25.8573 96.9116 25.288C97.2569 24.7093 97.7329 24.2567 98.3396 23.93C98.9556 23.6033 99.6556 23.44 100.44 23.44C101.168 23.44 101.807 23.5893 102.358 23.888C102.918 24.1773 103.342 24.6067 103.632 25.176L102.288 25.96C102.064 25.6053 101.788 25.344 101.462 25.176C101.144 25.008 100.799 24.924 100.426 24.924C99.9962 24.924 99.6089 25.0173 99.2636 25.204C98.9182 25.3907 98.6476 25.6613 98.4516 26.016C98.2556 26.3613 98.1576 26.7767 98.1576 27.262C98.1576 27.7473 98.2556 28.1673 98.4516 28.522C98.6476 28.8673 98.9182 29.1333 99.2636 29.32C99.6089 29.5067 99.9962 29.6 100.426 29.6C100.799 29.6 101.144 29.516 101.462 29.348C101.788 29.18 102.064 28.9187 102.288 28.564L103.632 29.348C103.342 29.908 102.918 30.342 102.358 30.65C101.807 30.9487 101.168 31.098 100.44 31.098ZM106.378 31V24.588L106.784 25.008H103.746V23.524H110.746V25.008H107.722L108.128 24.588V31H106.378Z" fill="black"/>
</svg>
