<svg width="202" height="79" viewBox="0 0 202 79" fill="none" xmlns="http://www.w3.org/2000/svg">
<path fill-rule="evenodd" clip-rule="evenodd" d="M95.5521 16.6035L96.7523 29.5028L108.471 5.68967L82.5565 12.8199L95.5521 16.6035ZM89.0976 12.8683L97.2141 15.2314L97.9416 23.0505L105.122 8.45927L89.0976 12.8683Z" fill="#8E8E93"/>
<path fill-rule="evenodd" clip-rule="evenodd" d="M126.091 16.6035L127.291 29.5028L139.01 5.68967L113.096 12.8199L126.091 16.6035ZM119.637 12.8683L127.753 15.2314L128.481 23.0505L135.661 8.45927L119.637 12.8683Z" fill="#8E8E93"/>
<path fill-rule="evenodd" clip-rule="evenodd" d="M157.091 16.6035L158.291 29.5028L170.01 5.68967L144.096 12.8199L157.091 16.6035ZM150.637 12.8683L158.753 15.2314L159.481 23.0505L166.661 8.45927L150.637 12.8683Z" fill="#8E8E93"/>
<path fill-rule="evenodd" clip-rule="evenodd" d="M188.091 16.6035L189.291 29.5028L201.01 5.68967L175.096 12.8199L188.091 16.6035ZM181.637 12.8683L189.753 15.2314L190.481 23.0505L197.661 8.45927L181.637 12.8683Z" fill="#8E8E93"/>
<path d="M96.5259 61.4197V59.7446C95.426 59.7446 94.3369 59.9613 93.3208 60.3822C92.3046 60.8031 91.3813 61.42 90.6035 62.1978C89.0328 63.7685 88.1504 65.8988 88.1504 68.1202H89.8255C89.8255 66.3431 90.5314 64.6388 91.788 63.3822C93.0446 62.1257 94.7489 61.4197 96.5259 61.4197Z" fill="#166FF5"/>
<path d="M96.5259 75.6584V77.3335C95.426 77.3335 94.3369 77.1169 93.3208 76.6959C92.3046 76.275 91.3813 75.6581 90.6035 74.8804C89.0328 73.3096 88.1504 71.1793 88.1504 68.958H89.8255C89.8255 70.735 90.5314 72.4393 91.788 73.6959C93.0446 74.9525 94.7489 75.6584 96.5259 75.6584Z" fill="#DFDFDF"/>
<path d="M97.3627 61.4197V59.7446C98.4626 59.7446 99.5518 59.9613 100.568 60.3822C101.584 60.8031 102.507 61.42 103.285 62.1978C104.856 63.7685 105.738 65.8988 105.738 68.1202H104.063C104.063 66.3431 103.357 64.6388 102.101 63.3822C100.844 62.1257 99.1398 61.4197 97.3627 61.4197Z" fill="#DFDFDF"/>
<path d="M97.3627 75.6584V77.3335C98.4626 77.3335 99.5518 77.1169 100.568 76.6959C101.584 76.275 102.507 75.6581 103.285 74.8804C104.856 73.3096 105.738 71.1793 105.738 68.958H104.063C104.063 70.735 103.357 72.4393 102.101 73.6959C100.844 74.9525 99.1398 75.6584 97.3627 75.6584Z" fill="#DFDFDF"/>
<path d="M46.1729 36.14C45.4075 36.14 44.7029 36.014 44.0589 35.762C43.4149 35.51 42.8549 35.16 42.3789 34.712C41.9029 34.2547 41.5342 33.7227 41.2729 33.116C41.0115 32.5 40.8809 31.828 40.8809 31.1C40.8809 30.372 41.0115 29.7047 41.2729 29.098C41.5342 28.482 41.9029 27.95 42.3789 27.502C42.8549 27.0447 43.4149 26.69 44.0589 26.438C44.7029 26.186 45.4029 26.06 46.1589 26.06C46.9242 26.06 47.6242 26.186 48.2589 26.438C48.9029 26.69 49.4629 27.0447 49.9389 27.502C50.4149 27.95 50.7835 28.482 51.0449 29.098C51.3062 29.7047 51.4369 30.372 51.4369 31.1C51.4369 31.828 51.3062 32.5 51.0449 33.116C50.7835 33.732 50.4149 34.264 49.9389 34.712C49.4629 35.16 48.9029 35.51 48.2589 35.762C47.6242 36.014 46.9289 36.14 46.1729 36.14ZM46.1589 34.544C46.6535 34.544 47.1109 34.46 47.5309 34.292C47.9509 34.124 48.3149 33.886 48.6229 33.578C48.9309 33.2607 49.1689 32.8967 49.3369 32.486C49.5142 32.066 49.6029 31.604 49.6029 31.1C49.6029 30.596 49.5142 30.1387 49.3369 29.728C49.1689 29.308 48.9309 28.944 48.6229 28.636C48.3149 28.3187 47.9509 28.076 47.5309 27.908C47.1109 27.74 46.6535 27.656 46.1589 27.656C45.6642 27.656 45.2069 27.74 44.7869 27.908C44.3762 28.076 44.0122 28.3187 43.6949 28.636C43.3869 28.944 43.1442 29.308 42.9669 29.728C42.7989 30.1387 42.7149 30.596 42.7149 31.1C42.7149 31.5947 42.7989 32.052 42.9669 32.472C43.1442 32.892 43.3869 33.2607 43.6949 33.578C44.0029 33.886 44.3669 34.124 44.7869 34.292C45.2069 34.46 45.6642 34.544 46.1589 34.544ZM54.3903 36V29.588L54.7963 30.008H51.7583V28.524H58.7583V30.008H55.7343L56.1403 29.588V36H54.3903ZM64.3659 35.188V30.008H61.4959L61.4539 31.212C61.4352 31.6413 61.4072 32.0567 61.3699 32.458C61.3325 32.85 61.2719 33.214 61.1879 33.55C61.1039 33.8767 60.9825 34.1473 60.8239 34.362C60.6652 34.5767 60.4552 34.7167 60.1939 34.782L58.4579 34.516C58.7379 34.516 58.9619 34.4273 59.1299 34.25C59.3072 34.0633 59.4425 33.8113 59.5359 33.494C59.6385 33.1673 59.7132 32.7987 59.7599 32.388C59.8065 31.968 59.8392 31.534 59.8579 31.086L59.9559 28.524H66.1159V35.188H64.3659ZM58.1919 37.666V34.516H67.2219V37.666H65.5839V36H59.8159V37.666H58.1919ZM71.9908 36.098C71.1602 36.098 70.4322 35.9347 69.8068 35.608C69.1908 35.272 68.7102 34.8147 68.3648 34.236C68.0288 33.6573 67.8608 32.9993 67.8608 32.262C67.8608 31.5153 68.0242 30.8573 68.3508 30.288C68.6868 29.7093 69.1442 29.2567 69.7228 28.93C70.3108 28.6033 70.9782 28.44 71.7248 28.44C72.4528 28.44 73.1015 28.5987 73.6708 28.916C74.2402 29.2333 74.6882 29.6813 75.0148 30.26C75.3415 30.8387 75.5048 31.52 75.5048 32.304C75.5048 32.3787 75.5002 32.4627 75.4908 32.556C75.4908 32.6493 75.4862 32.738 75.4768 32.822H69.2468V31.66H74.5528L73.8668 32.024C73.8762 31.5947 73.7875 31.2167 73.6008 30.89C73.4142 30.5633 73.1575 30.3067 72.8308 30.12C72.5135 29.9333 72.1448 29.84 71.7248 29.84C71.2955 29.84 70.9175 29.9333 70.5908 30.12C70.2735 30.3067 70.0215 30.568 69.8348 30.904C69.6575 31.2307 69.5688 31.618 69.5688 32.066V32.346C69.5688 32.794 69.6715 33.1907 69.8768 33.536C70.0822 33.8813 70.3715 34.1473 70.7448 34.334C71.1182 34.5207 71.5475 34.614 72.0328 34.614C72.4528 34.614 72.8308 34.5487 73.1668 34.418C73.5028 34.2873 73.8015 34.082 74.0628 33.802L75.0008 34.88C74.6648 35.272 74.2402 35.5753 73.7268 35.79C73.2228 35.9953 72.6442 36.098 71.9908 36.098ZM75.9512 35.986L76.0352 34.516C76.1005 34.5253 76.1612 34.5347 76.2172 34.544C76.2732 34.5533 76.3245 34.558 76.3712 34.558C76.6605 34.558 76.8845 34.4693 77.0432 34.292C77.2019 34.1147 77.3185 33.8767 77.3932 33.578C77.4772 33.27 77.5332 32.9293 77.5612 32.556C77.5985 32.1733 77.6265 31.7907 77.6452 31.408L77.7712 28.524H83.8192V36H82.0692V29.532L82.4752 30.008H78.9192L79.2972 29.518L79.1992 31.492C79.1712 32.1547 79.1152 32.7707 79.0312 33.34C78.9565 33.9 78.8352 34.39 78.6672 34.81C78.5085 35.23 78.2845 35.5567 77.9952 35.79C77.7152 36.0233 77.3559 36.14 76.9172 36.14C76.7772 36.14 76.6232 36.126 76.4552 36.098C76.2965 36.07 76.1285 36.0327 75.9512 35.986ZM1.69529 53V45.524H8.86329V53H7.1273V46.602L7.5333 47.008H3.03929L3.44529 46.602V53H1.69529ZM14.2766 53.098C13.5113 53.098 12.8299 52.9347 12.2326 52.608C11.6353 52.272 11.1639 51.8147 10.8186 51.236C10.4733 50.6573 10.3006 49.9993 10.3006 49.262C10.3006 48.5153 10.4733 47.8573 10.8186 47.288C11.1639 46.7093 11.6353 46.2567 12.2326 45.93C12.8299 45.6033 13.5113 45.44 14.2766 45.44C15.0513 45.44 15.7373 45.6033 16.3346 45.93C16.9413 46.2567 17.4126 46.7047 17.7486 47.274C18.0939 47.8433 18.2666 48.506 18.2666 49.262C18.2666 49.9993 18.0939 50.6573 17.7486 51.236C17.4126 51.8147 16.9413 52.272 16.3346 52.608C15.7373 52.9347 15.0513 53.098 14.2766 53.098ZM14.2766 51.6C14.7059 51.6 15.0886 51.5067 15.4246 51.32C15.7606 51.1333 16.0219 50.8627 16.2086 50.508C16.4046 50.1533 16.5026 49.738 16.5026 49.262C16.5026 48.7767 16.4046 48.3613 16.2086 48.016C16.0219 47.6613 15.7606 47.3907 15.4246 47.204C15.0886 47.0173 14.7106 46.924 14.2906 46.924C13.8613 46.924 13.4786 47.0173 13.1426 47.204C12.8159 47.3907 12.5546 47.6613 12.3586 48.016C12.1626 48.3613 12.0646 48.7767 12.0646 49.262C12.0646 49.738 12.1626 50.1533 12.3586 50.508C12.5546 50.8627 12.8159 51.1333 13.1426 51.32C13.4786 51.5067 13.8566 51.6 14.2766 51.6ZM24.7573 52.188V47.008H21.8873L21.8453 48.212C21.8267 48.6413 21.7987 49.0567 21.7613 49.458C21.724 49.85 21.6633 50.214 21.5793 50.55C21.4953 50.8767 21.374 51.1473 21.2153 51.362C21.0567 51.5767 20.8467 51.7167 20.5853 51.782L18.8493 51.516C19.1293 51.516 19.3533 51.4273 19.5213 51.25C19.6987 51.0633 19.834 50.8113 19.9273 50.494C20.03 50.1673 20.1047 49.7987 20.1513 49.388C20.198 48.968 20.2307 48.534 20.2493 48.086L20.3473 45.524H26.5073V52.188H24.7573ZM18.5833 54.666V51.516H27.6133V54.666H25.9753V53H20.2073V54.666H18.5833ZM34.0203 52.188V47.008H31.1503L31.1083 48.212C31.0896 48.6413 31.0616 49.0567 31.0243 49.458C30.987 49.85 30.9263 50.214 30.8423 50.55C30.7583 50.8767 30.637 51.1473 30.4783 51.362C30.3196 51.5767 30.1096 51.7167 29.8483 51.782L28.1123 51.516C28.3923 51.516 28.6163 51.4273 28.7843 51.25C28.9616 51.0633 29.097 50.8113 29.1903 50.494C29.293 50.1673 29.3676 49.7987 29.4143 49.388C29.461 48.968 29.4936 48.534 29.5123 48.086L29.6103 45.524H35.7703V52.188H34.0203ZM27.8463 54.666V51.516H36.8763V54.666H35.2383V53H29.4703V54.666H27.8463ZM41.6453 53.098C40.8146 53.098 40.0866 52.9347 39.4613 52.608C38.8453 52.272 38.3646 51.8147 38.0193 51.236C37.6833 50.6573 37.5153 49.9993 37.5153 49.262C37.5153 48.5153 37.6786 47.8573 38.0053 47.288C38.3413 46.7093 38.7986 46.2567 39.3773 45.93C39.9653 45.6033 40.6326 45.44 41.3793 45.44C42.1073 45.44 42.7559 45.5987 43.3253 45.916C43.8946 46.2333 44.3426 46.6813 44.6693 47.26C44.9959 47.8387 45.1593 48.52 45.1593 49.304C45.1593 49.3787 45.1546 49.4627 45.1453 49.556C45.1453 49.6493 45.1406 49.738 45.1313 49.822H38.9013V48.66H44.2073L43.5213 49.024C43.5306 48.5947 43.4419 48.2167 43.2553 47.89C43.0686 47.5633 42.8119 47.3067 42.4853 47.12C42.1679 46.9333 41.7993 46.84 41.3793 46.84C40.9499 46.84 40.5719 46.9333 40.2453 47.12C39.9279 47.3067 39.6759 47.568 39.4893 47.904C39.3119 48.2307 39.2233 48.618 39.2233 49.066V49.346C39.2233 49.794 39.3259 50.1907 39.5313 50.536C39.7366 50.8813 40.0259 51.1473 40.3993 51.334C40.7726 51.5207 41.2019 51.614 41.6873 51.614C42.1073 51.614 42.4853 51.5487 42.8213 51.418C43.1573 51.2873 43.4559 51.082 43.7173 50.802L44.6553 51.88C44.3193 52.272 43.8946 52.5753 43.3813 52.79C42.8773 52.9953 42.2986 53.098 41.6453 53.098ZM50.9373 53.098C50.3307 53.098 49.7753 52.958 49.2713 52.678C48.7767 52.398 48.38 51.978 48.0813 51.418C47.792 50.8487 47.6473 50.13 47.6473 49.262C47.6473 48.3847 47.7873 47.666 48.0673 47.106C48.3567 46.546 48.7487 46.1307 49.2433 45.86C49.738 45.58 50.3027 45.44 50.9373 45.44C51.6747 45.44 52.3233 45.5987 52.8833 45.916C53.4527 46.2333 53.9007 46.6767 54.2273 47.246C54.5633 47.8153 54.7313 48.4873 54.7313 49.262C54.7313 50.0367 54.5633 50.7133 54.2273 51.292C53.9007 51.8613 53.4527 52.3047 52.8833 52.622C52.3233 52.9393 51.6747 53.098 50.9373 53.098ZM46.7933 55.716V45.524H48.4593V47.288L48.4033 49.276L48.5433 51.264V55.716H46.7933ZM50.7413 51.6C51.1613 51.6 51.5347 51.5067 51.8613 51.32C52.1973 51.1333 52.4633 50.8627 52.6593 50.508C52.8553 50.1533 52.9533 49.738 52.9533 49.262C52.9533 48.7767 52.8553 48.3613 52.6593 48.016C52.4633 47.6613 52.1973 47.3907 51.8613 47.204C51.5347 47.0173 51.1613 46.924 50.7413 46.924C50.3213 46.924 49.9433 47.0173 49.6073 47.204C49.2713 47.3907 49.0053 47.6613 48.8093 48.016C48.6133 48.3613 48.5153 48.7767 48.5153 49.262C48.5153 49.738 48.6133 50.1533 48.8093 50.508C49.0053 50.8627 49.2713 51.1333 49.6073 51.32C49.9433 51.5067 50.3213 51.6 50.7413 51.6ZM64.8649 53L62.6809 49.416L64.1089 48.534L66.9509 53H64.8649ZM61.2669 50.004V48.548H63.7729V50.004H61.2669ZM64.2769 49.472L62.6249 49.276L64.8929 45.524H66.7549L64.2769 49.472ZM56.9689 53H54.8969L57.7249 48.534L59.1529 49.416L56.9689 53ZM61.7849 53H60.0489V45.524H61.7849V53ZM60.5669 50.004H58.0749V48.548H60.5669V50.004ZM57.5569 49.472L55.0789 45.524H56.9409L59.1949 49.276L57.5569 49.472ZM73.3336 53L70.6316 49.416L72.0596 48.534L75.3916 53H73.3336ZM67.9716 53V45.524H69.7216V53H67.9716ZM69.2036 50.004V48.548H71.7376V50.004H69.2036ZM72.2276 49.472L70.5896 49.276L73.3336 45.524H75.2096L72.2276 49.472ZM76.3459 53V45.524H78.0959V50.452L82.2259 45.524H83.8219V53H82.0719V48.072L77.9559 53H76.3459Z" fill="black"/>
</svg>
