<svg width="174" height="59" viewBox="0 0 174 59" fill="none" xmlns="http://www.w3.org/2000/svg">
<path d="M46.1729 27.14C45.4075 27.14 44.7029 27.014 44.0589 26.762C43.4149 26.51 42.8549 26.16 42.3789 25.712C41.9029 25.2547 41.5342 24.7227 41.2729 24.116C41.0115 23.5 40.8809 22.828 40.8809 22.1C40.8809 21.372 41.0115 20.7047 41.2729 20.098C41.5342 19.482 41.9029 18.95 42.3789 18.502C42.8549 18.0447 43.4149 17.69 44.0589 17.438C44.7029 17.186 45.4029 17.06 46.1589 17.06C46.9242 17.06 47.6242 17.186 48.2589 17.438C48.9029 17.69 49.4629 18.0447 49.9389 18.502C50.4149 18.95 50.7835 19.482 51.0449 20.098C51.3062 20.7047 51.4369 21.372 51.4369 22.1C51.4369 22.828 51.3062 23.5 51.0449 24.116C50.7835 24.732 50.4149 25.264 49.9389 25.712C49.4629 26.16 48.9029 26.51 48.2589 26.762C47.6242 27.014 46.9289 27.14 46.1729 27.14ZM46.1589 25.544C46.6535 25.544 47.1109 25.46 47.5309 25.292C47.9509 25.124 48.3149 24.886 48.6229 24.578C48.9309 24.2607 49.1689 23.8967 49.3369 23.486C49.5142 23.066 49.6029 22.604 49.6029 22.1C49.6029 21.596 49.5142 21.1387 49.3369 20.728C49.1689 20.308 48.9309 19.944 48.6229 19.636C48.3149 19.3187 47.9509 19.076 47.5309 18.908C47.1109 18.74 46.6535 18.656 46.1589 18.656C45.6642 18.656 45.2069 18.74 44.7869 18.908C44.3762 19.076 44.0122 19.3187 43.6949 19.636C43.3869 19.944 43.1442 20.308 42.9669 20.728C42.7989 21.1387 42.7149 21.596 42.7149 22.1C42.7149 22.5947 42.7989 23.052 42.9669 23.472C43.1442 23.892 43.3869 24.2607 43.6949 24.578C44.0029 24.886 44.3669 25.124 44.7869 25.292C45.2069 25.46 45.6642 25.544 46.1589 25.544ZM54.3903 27V20.588L54.7963 21.008H51.7583V19.524H58.7583V21.008H55.7343L56.1403 20.588V27H54.3903ZM64.3659 26.188V21.008H61.4959L61.4539 22.212C61.4352 22.6413 61.4072 23.0567 61.3699 23.458C61.3325 23.85 61.2719 24.214 61.1879 24.55C61.1039 24.8767 60.9825 25.1473 60.8239 25.362C60.6652 25.5767 60.4552 25.7167 60.1939 25.782L58.4579 25.516C58.7379 25.516 58.9619 25.4273 59.1299 25.25C59.3072 25.0633 59.4425 24.8113 59.5359 24.494C59.6385 24.1673 59.7132 23.7987 59.7599 23.388C59.8065 22.968 59.8392 22.534 59.8579 22.086L59.9559 19.524H66.1159V26.188H64.3659ZM58.1919 28.666V25.516H67.2219V28.666H65.5839V27H59.8159V28.666H58.1919ZM71.9908 27.098C71.1602 27.098 70.4322 26.9347 69.8068 26.608C69.1908 26.272 68.7102 25.8147 68.3648 25.236C68.0288 24.6573 67.8608 23.9993 67.8608 23.262C67.8608 22.5153 68.0242 21.8573 68.3508 21.288C68.6868 20.7093 69.1442 20.2567 69.7228 19.93C70.3108 19.6033 70.9782 19.44 71.7248 19.44C72.4528 19.44 73.1015 19.5987 73.6708 19.916C74.2402 20.2333 74.6882 20.6813 75.0148 21.26C75.3415 21.8387 75.5048 22.52 75.5048 23.304C75.5048 23.3787 75.5002 23.4627 75.4908 23.556C75.4908 23.6493 75.4862 23.738 75.4768 23.822H69.2468V22.66H74.5528L73.8668 23.024C73.8762 22.5947 73.7875 22.2167 73.6008 21.89C73.4142 21.5633 73.1575 21.3067 72.8308 21.12C72.5135 20.9333 72.1448 20.84 71.7248 20.84C71.2955 20.84 70.9175 20.9333 70.5908 21.12C70.2735 21.3067 70.0215 21.568 69.8348 21.904C69.6575 22.2307 69.5688 22.618 69.5688 23.066V23.346C69.5688 23.794 69.6715 24.1907 69.8768 24.536C70.0822 24.8813 70.3715 25.1473 70.7448 25.334C71.1182 25.5207 71.5475 25.614 72.0328 25.614C72.4528 25.614 72.8308 25.5487 73.1668 25.418C73.5028 25.2873 73.8015 25.082 74.0628 24.802L75.0008 25.88C74.6648 26.272 74.2402 26.5753 73.7268 26.79C73.2228 26.9953 72.6442 27.098 71.9908 27.098ZM75.9512 26.986L76.0352 25.516C76.1005 25.5253 76.1612 25.5347 76.2172 25.544C76.2732 25.5533 76.3245 25.558 76.3712 25.558C76.6605 25.558 76.8845 25.4693 77.0432 25.292C77.2019 25.1147 77.3185 24.8767 77.3932 24.578C77.4772 24.27 77.5332 23.9293 77.5612 23.556C77.5985 23.1733 77.6265 22.7907 77.6452 22.408L77.7712 19.524H83.8192V27H82.0692V20.532L82.4752 21.008H78.9192L79.2972 20.518L79.1992 22.492C79.1712 23.1547 79.1152 23.7707 79.0312 24.34C78.9565 24.9 78.8352 25.39 78.6672 25.81C78.5085 26.23 78.2845 26.5567 77.9952 26.79C77.7152 27.0233 77.3559 27.14 76.9172 27.14C76.7772 27.14 76.6232 27.126 76.4552 27.098C76.2965 27.07 76.1285 27.0327 75.9512 26.986ZM1.69529 44V36.524H8.86329V44H7.1273V37.602L7.5333 38.008H3.03929L3.44529 37.602V44H1.69529ZM14.2766 44.098C13.5113 44.098 12.8299 43.9347 12.2326 43.608C11.6353 43.272 11.1639 42.8147 10.8186 42.236C10.4733 41.6573 10.3006 40.9993 10.3006 40.262C10.3006 39.5153 10.4733 38.8573 10.8186 38.288C11.1639 37.7093 11.6353 37.2567 12.2326 36.93C12.8299 36.6033 13.5113 36.44 14.2766 36.44C15.0513 36.44 15.7373 36.6033 16.3346 36.93C16.9413 37.2567 17.4126 37.7047 17.7486 38.274C18.0939 38.8433 18.2666 39.506 18.2666 40.262C18.2666 40.9993 18.0939 41.6573 17.7486 42.236C17.4126 42.8147 16.9413 43.272 16.3346 43.608C15.7373 43.9347 15.0513 44.098 14.2766 44.098ZM14.2766 42.6C14.7059 42.6 15.0886 42.5067 15.4246 42.32C15.7606 42.1333 16.0219 41.8627 16.2086 41.508C16.4046 41.1533 16.5026 40.738 16.5026 40.262C16.5026 39.7767 16.4046 39.3613 16.2086 39.016C16.0219 38.6613 15.7606 38.3907 15.4246 38.204C15.0886 38.0173 14.7106 37.924 14.2906 37.924C13.8613 37.924 13.4786 38.0173 13.1426 38.204C12.8159 38.3907 12.5546 38.6613 12.3586 39.016C12.1626 39.3613 12.0646 39.7767 12.0646 40.262C12.0646 40.738 12.1626 41.1533 12.3586 41.508C12.5546 41.8627 12.8159 42.1333 13.1426 42.32C13.4786 42.5067 13.8566 42.6 14.2766 42.6ZM24.7573 43.188V38.008H21.8873L21.8453 39.212C21.8267 39.6413 21.7987 40.0567 21.7613 40.458C21.724 40.85 21.6633 41.214 21.5793 41.55C21.4953 41.8767 21.374 42.1473 21.2153 42.362C21.0567 42.5767 20.8467 42.7167 20.5853 42.782L18.8493 42.516C19.1293 42.516 19.3533 42.4273 19.5213 42.25C19.6987 42.0633 19.834 41.8113 19.9273 41.494C20.03 41.1673 20.1047 40.7987 20.1513 40.388C20.198 39.968 20.2307 39.534 20.2493 39.086L20.3473 36.524H26.5073V43.188H24.7573ZM18.5833 45.666V42.516H27.6133V45.666H25.9753V44H20.2073V45.666H18.5833ZM34.0203 43.188V38.008H31.1503L31.1083 39.212C31.0896 39.6413 31.0616 40.0567 31.0243 40.458C30.987 40.85 30.9263 41.214 30.8423 41.55C30.7583 41.8767 30.637 42.1473 30.4783 42.362C30.3196 42.5767 30.1096 42.7167 29.8483 42.782L28.1123 42.516C28.3923 42.516 28.6163 42.4273 28.7843 42.25C28.9616 42.0633 29.097 41.8113 29.1903 41.494C29.293 41.1673 29.3676 40.7987 29.4143 40.388C29.461 39.968 29.4936 39.534 29.5123 39.086L29.6103 36.524H35.7703V43.188H34.0203ZM27.8463 45.666V42.516H36.8763V45.666H35.2383V44H29.4703V45.666H27.8463ZM41.6453 44.098C40.8146 44.098 40.0866 43.9347 39.4613 43.608C38.8453 43.272 38.3646 42.8147 38.0193 42.236C37.6833 41.6573 37.5153 40.9993 37.5153 40.262C37.5153 39.5153 37.6786 38.8573 38.0053 38.288C38.3413 37.7093 38.7986 37.2567 39.3773 36.93C39.9653 36.6033 40.6326 36.44 41.3793 36.44C42.1073 36.44 42.7559 36.5987 43.3253 36.916C43.8946 37.2333 44.3426 37.6813 44.6693 38.26C44.9959 38.8387 45.1593 39.52 45.1593 40.304C45.1593 40.3787 45.1546 40.4627 45.1453 40.556C45.1453 40.6493 45.1406 40.738 45.1313 40.822H38.9013V39.66H44.2073L43.5213 40.024C43.5306 39.5947 43.4419 39.2167 43.2553 38.89C43.0686 38.5633 42.8119 38.3067 42.4853 38.12C42.1679 37.9333 41.7993 37.84 41.3793 37.84C40.9499 37.84 40.5719 37.9333 40.2453 38.12C39.9279 38.3067 39.6759 38.568 39.4893 38.904C39.3119 39.2307 39.2233 39.618 39.2233 40.066V40.346C39.2233 40.794 39.3259 41.1907 39.5313 41.536C39.7366 41.8813 40.0259 42.1473 40.3993 42.334C40.7726 42.5207 41.2019 42.614 41.6873 42.614C42.1073 42.614 42.4853 42.5487 42.8213 42.418C43.1573 42.2873 43.4559 42.082 43.7173 41.802L44.6553 42.88C44.3193 43.272 43.8946 43.5753 43.3813 43.79C42.8773 43.9953 42.2986 44.098 41.6453 44.098ZM50.9373 44.098C50.3307 44.098 49.7753 43.958 49.2713 43.678C48.7767 43.398 48.38 42.978 48.0813 42.418C47.792 41.8487 47.6473 41.13 47.6473 40.262C47.6473 39.3847 47.7873 38.666 48.0673 38.106C48.3567 37.546 48.7487 37.1307 49.2433 36.86C49.738 36.58 50.3027 36.44 50.9373 36.44C51.6747 36.44 52.3233 36.5987 52.8833 36.916C53.4527 37.2333 53.9007 37.6767 54.2273 38.246C54.5633 38.8153 54.7313 39.4873 54.7313 40.262C54.7313 41.0367 54.5633 41.7133 54.2273 42.292C53.9007 42.8613 53.4527 43.3047 52.8833 43.622C52.3233 43.9393 51.6747 44.098 50.9373 44.098ZM46.7933 46.716V36.524H48.4593V38.288L48.4033 40.276L48.5433 42.264V46.716H46.7933ZM50.7413 42.6C51.1613 42.6 51.5347 42.5067 51.8613 42.32C52.1973 42.1333 52.4633 41.8627 52.6593 41.508C52.8553 41.1533 52.9533 40.738 52.9533 40.262C52.9533 39.7767 52.8553 39.3613 52.6593 39.016C52.4633 38.6613 52.1973 38.3907 51.8613 38.204C51.5347 38.0173 51.1613 37.924 50.7413 37.924C50.3213 37.924 49.9433 38.0173 49.6073 38.204C49.2713 38.3907 49.0053 38.6613 48.8093 39.016C48.6133 39.3613 48.5153 39.7767 48.5153 40.262C48.5153 40.738 48.6133 41.1533 48.8093 41.508C49.0053 41.8627 49.2713 42.1333 49.6073 42.32C49.9433 42.5067 50.3213 42.6 50.7413 42.6ZM64.8649 44L62.6809 40.416L64.1089 39.534L66.9509 44H64.8649ZM61.2669 41.004V39.548H63.7729V41.004H61.2669ZM64.2769 40.472L62.6249 40.276L64.8929 36.524H66.7549L64.2769 40.472ZM56.9689 44H54.8969L57.7249 39.534L59.1529 40.416L56.9689 44ZM61.7849 44H60.0489V36.524H61.7849V44ZM60.5669 41.004H58.0749V39.548H60.5669V41.004ZM57.5569 40.472L55.0789 36.524H56.9409L59.1949 40.276L57.5569 40.472ZM73.3336 44L70.6316 40.416L72.0596 39.534L75.3916 44H73.3336ZM67.9716 44V36.524H69.7216V44H67.9716ZM69.2036 41.004V39.548H71.7376V41.004H69.2036ZM72.2276 40.472L70.5896 40.276L73.3336 36.524H75.2096L72.2276 40.472ZM76.3459 44V36.524H78.0959V41.452L82.2259 36.524H83.8219V44H82.0719V39.072L77.9559 44H76.3459Z" fill="black"/>
<path fill-rule="evenodd" clip-rule="evenodd" d="M95.9034 12.2836L96.7914 21.8269L105.461 4.20936L86.289 9.48444L95.9034 12.2836ZM91.1282 9.52029L97.133 11.2686L97.6712 17.0533L102.984 6.25838L91.1282 9.52029Z" fill="#8E8E93"/>
<path fill-rule="evenodd" clip-rule="evenodd" d="M118.497 12.2836L119.385 21.8269L128.055 4.20936L108.883 9.48444L118.497 12.2836ZM113.722 9.52029L119.727 11.2686L120.265 17.0533L125.577 6.25838L113.722 9.52029Z" fill="#8E8E93"/>
<path fill-rule="evenodd" clip-rule="evenodd" d="M141.433 12.2836L142.321 21.8269L150.991 4.20936L131.818 9.48444L141.433 12.2836ZM136.657 9.52029L142.662 11.2686L143.201 17.0533L148.513 6.25838L136.657 9.52029Z" fill="#8E8E93"/>
<path fill-rule="evenodd" clip-rule="evenodd" d="M164.368 12.2836L165.256 21.8269L173.926 4.20936L154.754 9.48444L164.368 12.2836ZM159.593 9.52029L165.598 11.2686L166.136 17.0533L171.448 6.25838L159.593 9.52029Z" fill="#8E8E93"/>
<path d="M95.875 45.875V44.625C95.0542 44.625 94.2415 44.7867 93.4832 45.1008C92.7249 45.4148 92.0359 45.8752 91.4556 46.4556C90.2835 47.6277 89.625 49.2174 89.625 50.875H90.875C90.875 49.5489 91.4018 48.2771 92.3395 47.3395C93.2771 46.4018 94.5489 45.875 95.875 45.875Z" fill="#166FF5"/>
<path d="M95.875 56.5V57.75C95.0542 57.75 94.2415 57.5883 93.4832 57.2742C92.7249 56.9602 92.0359 56.4998 91.4556 55.9194C90.2835 54.7473 89.625 53.1576 89.625 51.5H90.875C90.875 52.8261 91.4018 54.0979 92.3395 55.0355C93.2771 55.9732 94.5489 56.5 95.875 56.5Z" fill="#DFDFDF"/>
<path d="M96.5 45.875V44.625C97.3208 44.625 98.1335 44.7867 98.8918 45.1008C99.6501 45.4148 100.339 45.8752 100.919 46.4556C102.092 47.6277 102.75 49.2174 102.75 50.875H101.5C101.5 49.5489 100.973 48.2771 100.036 47.3395C99.0979 46.4018 97.8261 45.875 96.5 45.875Z" fill="#DFDFDF"/>
<path d="M96.5 56.5V57.75C97.3208 57.75 98.1335 57.5883 98.8918 57.2742C99.6501 56.9602 100.339 56.4998 100.919 55.9194C102.092 54.7473 102.75 53.1576 102.75 51.5H101.5C101.5 52.8261 100.973 54.0979 100.036 55.0355C99.0979 55.9732 97.8261 56.5 96.5 56.5Z" fill="#DFDFDF"/>
</svg>
