<svg width="266" height="121" viewBox="0 0 266 121" fill="none" xmlns="http://www.w3.org/2000/svg">
<g clip-path="url(#clip0_247_472)">
<path d="M208.219 77.7958C211.495 77.7958 213.816 77.2072 215.545 75.9392V70.1883C213.77 71.4109 211.631 72.1808 208.628 72.1808C203.577 72.1808 201.484 68.2864 201.484 62.1279C201.484 55.6525 204.032 52.3468 208.674 52.3468C211.404 52.3468 214.089 53.2977 215.499 54.2034V48.226C213.998 47.4109 211.404 46.8223 207.855 46.8223C198.799 46.8223 194.112 53.2977 194.112 62.3543C194.158 72.2713 198.754 77.7958 208.219 77.7958ZM163.943 75.1694V69.4185C161.759 70.9128 158.028 72.226 154.615 72.226C149.427 72.226 147.471 69.7808 147.152 64.7996H164.262V61.0864C164.262 50.7166 159.666 46.8223 152.613 46.8223C143.967 46.8223 139.871 53.3883 139.871 62.3996C139.871 72.7694 145.013 77.7958 154.023 77.7958C158.528 77.7958 161.85 76.5732 163.943 75.1694ZM99.0088 47.3657V59.1392H89.5439V47.3657H82.4453V77.2072H89.5439V64.7543H99.0088V77.2072H106.107V47.3657H99.0088ZM138.097 71.5921H134.957V47.3657H114.298V49.9015C114.298 57.1921 113.843 66.6109 111.34 71.5921H109.065V83.9996H115.618V77.2072H131.499V83.9996H138.051V71.5921H138.097ZM186.559 77.2072H194.613L183.237 61.1317L193.248 47.3657H186.104L176.093 61.1317V47.3657H168.994V77.2072H176.093V62.5355L186.559 77.2072ZM152.431 52.3468C155.934 52.3468 157.027 55.2449 157.027 59.0034V59.5921H147.152C147.334 54.8374 149.063 52.3468 152.431 52.3468ZM127.858 71.5921H117.847C119.804 67.1091 120.35 58.9581 120.35 53.7958V52.8902H127.858V71.5921Z" fill="#8E8E93"/>
<path d="M76.53 77.2075H69.2948V41.5698H66.064C60.1485 41.5698 57.0542 44.5132 57.0542 48.9057C57.0542 53.8868 59.1929 56.1962 63.6068 59.1396L67.2471 61.5849L56.7812 77.2075H49L58.4193 63.2604C53.0044 59.4113 49.9556 55.6528 49.9556 49.3132C49.9556 41.3887 55.5071 36 66.0185 36H76.4845V77.2075H76.53Z" fill="#8E8E93"/>
</g>
<defs>
<clipPath id="clip0_247_472">
<rect width="167" height="48" fill="white" transform="translate(49 36)"/>
</clipPath>
</defs>
</svg>
