<svg width="266" height="121" viewBox="0 0 266 121" fill="none" xmlns="http://www.w3.org/2000/svg">
<path d="M118.488 64.7698C118.488 73.098 111.973 79.2349 103.978 79.2349C95.982 79.2349 89.4668 73.098 89.4668 64.7698C89.4668 56.3829 95.982 50.3047 103.978 50.3047C111.973 50.3047 118.488 56.3829 118.488 64.7698ZM112.136 64.7698C112.136 59.5655 108.36 56.0046 103.978 56.0046C99.595 56.0046 95.8189 59.5655 95.8189 64.7698C95.8189 69.9219 99.595 73.535 103.978 73.535C108.36 73.535 112.136 69.9154 112.136 64.7698Z" fill="#1c1c20"/>
<path d="M149.793 64.7698C149.793 73.098 143.278 79.2349 135.282 79.2349C127.287 79.2349 120.771 73.098 120.771 64.7698C120.771 56.3894 127.287 50.3047 135.282 50.3047C143.278 50.3047 149.793 56.3829 149.793 64.7698ZM143.441 64.7698C143.441 59.5655 139.665 56.0046 135.282 56.0046C130.9 56.0046 127.124 59.5655 127.124 64.7698C127.124 69.9219 130.9 73.535 135.282 73.535C139.665 73.535 143.441 69.9154 143.441 64.7698Z" fill="#1c1c20"/>
<path d="M179.793 51.1786V77.148C179.793 87.8305 173.493 92.1935 166.045 92.1935C159.034 92.1935 154.815 87.5044 153.223 83.6697L158.754 81.3675C159.739 83.7218 162.152 86.5001 166.038 86.5001C170.806 86.5001 173.76 83.5588 173.76 78.0219V75.9415H173.538C172.117 77.6958 169.378 79.2284 165.921 79.2284C158.689 79.2284 152.062 72.9284 152.062 64.822C152.062 56.6568 158.689 50.3047 165.921 50.3047C169.371 50.3047 172.11 51.8373 173.538 53.5394H173.76V51.1851H179.793V51.1786ZM174.21 64.822C174.21 59.7285 170.812 56.0046 166.488 56.0046C162.106 56.0046 158.434 59.7285 158.434 64.822C158.434 69.8632 162.106 73.5349 166.488 73.5349C170.812 73.5349 174.21 69.8632 174.21 64.822Z" fill="#1c1c20"/>
<path d="M189.738 35.9561V78.347H183.542V35.9561H189.738Z" fill="#1c1c20"/>
<path d="M213.881 69.5303L218.812 72.8172C217.22 75.1716 213.386 79.2281 206.76 79.2281C198.542 79.2281 192.405 72.8759 192.405 64.763C192.405 56.1609 198.594 50.2979 206.049 50.2979C213.555 50.2979 217.227 56.2717 218.427 59.5L219.086 61.1434L199.749 69.1521C201.229 72.0542 203.531 73.5346 206.76 73.5346C209.994 73.5346 212.238 71.9433 213.881 69.5303ZM198.705 64.326L211.631 58.9587C210.92 57.1521 208.781 55.8935 206.264 55.8935C203.036 55.8935 198.542 58.7434 198.705 64.326Z" fill="#1c1c20"/>
<path d="M66.0146 61.0064V54.8695H86.6949C86.8971 55.9391 87.0014 57.2043 87.0014 58.5739C87.0014 63.1782 85.7428 68.8716 81.6863 72.9281C77.7406 77.0368 72.6994 79.228 66.0212 79.228C53.643 79.228 43.2344 69.1455 43.2344 56.7673C43.2344 44.3892 53.643 34.3066 66.0212 34.3066C72.8689 34.3066 77.7472 36.9936 81.4124 40.4957L77.082 44.8261C74.4537 42.3609 70.8929 40.4436 66.0146 40.4436C56.9756 40.4436 49.9061 47.7283 49.9061 56.7673C49.9061 65.8064 56.9756 73.0911 66.0146 73.0911C71.8776 73.0911 75.2167 70.7368 77.3559 68.5977C79.0906 66.8629 80.2319 64.3847 80.6819 60.9999L66.0146 61.0064Z" fill="#1c1c20"/>
</svg>
