<svg width="266" height="121" viewBox="0 0 266 121" fill="none" xmlns="http://www.w3.org/2000/svg">
<g clip-path="url(#clip0_247_486)">
<path fill-rule="evenodd" clip-rule="evenodd" d="M109.559 60.3024C107.865 60.3024 106.49 61.6602 106.49 63.3333C106.49 65.01 107.865 66.3667 109.559 66.3667C111.255 66.3667 112.628 65.01 112.628 63.3333C112.628 61.6602 111.255 60.3024 109.559 60.3024ZM234.441 58.0767C236.453 58.0767 237.925 59.1898 238.89 60.3024V54.9277C237.309 53.8684 235.404 53.4443 233.748 53.4443C228.661 53.4443 224.241 57.0444 224.241 63.2378C224.241 69.1681 228.258 73.0338 233.827 73.0338C235.434 73.0338 237.201 72.7933 238.89 71.6569V66.3857C237.925 67.3672 236.401 68.4008 234.441 68.4008C231.444 68.4008 229.648 66.2045 229.648 63.3969C229.648 60.3525 231.55 58.0767 234.441 58.0767ZM224.816 53.9749H218.655L213.003 61.7557V53.9749H207.755L207.757 72.5038H213.003V64.5345L218.438 72.5038H225.004L217.691 62.9472L224.816 53.9749ZM192.254 65.0926V53.9749H187.192V72.5038H192.335L199.593 61.3855V72.5038H204.655V53.9749H199.511L192.254 65.0926ZM177.043 62.3114H175.546V58.0516H177.043C179.293 58.0516 179.613 59.2412 179.613 60.1683C179.613 60.962 179.373 62.3114 177.043 62.3114ZM178.194 53.9749H170.294V72.5038H175.546V66.3857H178.194C183.498 66.3857 185.025 62.7373 185.025 60.1683C185.025 57.6263 183.525 53.9749 178.194 53.9749ZM154.655 58.42H158.776V72.5038H164.028V58.42H168.151V53.9749H154.655V58.42ZM140.109 65.0926V53.9749H135.049V72.5038H140.192L147.447 61.3855V72.5038H152.51V53.9749H147.369L140.109 65.0926ZM124.469 68.7955H122.22V64.906H124.469C126.131 64.906 127.095 65.3833 127.095 66.8403C127.095 68.3212 126.105 68.7955 124.469 68.7955ZM124.979 61.2001H122.22V58.42H130.817V53.9749H116.972L116.971 72.5038L124.979 72.5038C126.344 72.5038 132.344 72.5552 132.344 66.7602C132.344 61.1738 126.399 61.2001 124.979 61.2001ZM87.5911 63.2378C87.5911 69.1681 91.6084 73.0338 97.1786 73.0338C98.7873 73.0338 100.554 72.7933 102.242 71.6569V66.3857C101.275 67.3672 99.7489 68.4008 97.7947 68.4008C94.7941 68.4008 93.001 66.2045 93.001 63.3969C93.001 60.3525 94.9019 58.0767 97.7947 58.0767C99.8027 58.0767 101.275 59.1898 102.242 60.3024V54.9277C100.658 53.8684 98.7588 53.4443 97.0981 53.4443C92.009 53.4443 87.5911 57.0444 87.5911 63.2378ZM76.6006 58.2358H79.468V72.5038H84.3163V53.9749H76.6006V58.2358Z" fill="#8E8E93"/>
<path fill-rule="evenodd" clip-rule="evenodd" d="M46.6121 41C45.0765 41 43.583 41.1707 42.144 41.4865V61.3862C42.144 63.8248 44.1558 65.8136 46.6238 65.8136C49.0907 65.8136 51.1018 63.8248 51.1018 61.3874C51.1018 59.0449 49.2498 57.1222 46.9217 56.9692V53.4254C51.2238 53.5797 54.6856 57.0971 54.6856 61.3874C54.6856 65.775 51.064 69.3561 46.6238 69.3561C42.1818 69.3561 38.5608 65.775 38.5608 61.3862V42.6125C38.0518 42.826 37.5546 43.0629 37.0673 43.3174V61.3862C37.068 66.5871 41.3614 70.8284 46.6238 70.8284C51.8869 70.8284 56.1785 66.5871 56.1785 61.3874C56.1785 56.2844 52.0485 52.1055 46.9217 51.9482V48.4057C54.0213 48.5642 59.7605 54.3348 59.7605 61.3874C59.7605 68.5398 53.859 74.3709 46.6238 74.3709C39.3868 74.3709 33.4835 68.5398 33.4835 61.3862V45.6673C28.9139 49.4019 26 55.0495 26 61.3709C26 72.6214 35.2283 81.7442 46.6127 81.7442C57.9989 81.7442 67.2248 72.6214 67.2248 61.3709C67.2248 50.1204 57.9989 41 46.6121 41Z" fill="#8E8E93"/>
</g>
<defs>
<clipPath id="clip0_247_486">
<rect width="213" height="41" fill="white" transform="translate(26 41)"/>
</clipPath>
</defs>
</svg>
