<svg width="266" height="121" viewBox="0 0 266 121" fill="none" xmlns="http://www.w3.org/2000/svg">
<path d="M194.592 74.9155H215.79V70.3222H201.819C203.746 62.7844 215.549 61.1355 215.549 52.7733C215.549 48.2978 212.418 45 205.793 45C201.698 45 198.085 46.1778 195.676 47.3556L197.121 51.5956C199.289 50.5356 201.819 49.5933 204.95 49.5933C207.359 49.5933 209.648 50.6533 209.648 53.3622C209.648 59.4867 195.796 59.9578 194.592 74.9155ZM216.393 67.6133H230.003V74.9155H235.423V67.6133H240V63.1378H235.423V45H231.448L216.393 64.08V67.6133ZM222.535 63.3733L230.244 53.2444C230.244 54.0689 230.003 56.66 230.003 59.0156V63.2556H226.39C225.306 63.2556 223.258 63.3733 222.535 63.3733Z" fill="#8E8E93"/>
<path d="M40.661 70.4404V61.1359H42.9495C44.9971 61.1359 46.6833 61.3715 47.8878 62.0782C49.0922 62.7848 49.8149 63.9626 49.8149 65.847C49.8149 69.027 47.8878 70.4404 43.3108 70.4404H40.661ZM35.1204 74.9159H43.1904C52.2239 74.9159 55.4759 71.0293 55.4759 65.6115C55.4759 61.9604 53.9101 59.4871 51.1398 58.0737C48.9718 56.8959 46.2015 56.5426 42.829 56.5426H40.661V49.4759H52.8261L54.2714 45.1182H35V74.9159H35.1204ZM59.2098 74.9159H64.5094L71.3749 65.2582C72.6998 63.4915 73.6633 61.7248 74.2656 60.7826H74.386C74.2656 62.0782 74.1451 63.7271 74.1451 65.3759V74.7982H79.5652V53.5982H74.2656L67.4001 63.2559C66.1957 65.0226 65.1116 66.7893 64.5094 67.7315H64.389C64.5094 66.4359 64.6298 64.787 64.6298 63.1382V53.7159H59.2098V74.9159ZM88.8396 74.9159H94.3801V58.0737H100.884L102.33 53.5982H82.215V58.0737H88.8396V74.9159ZM104.257 85.6337H109.677V74.9159C110.761 75.2693 111.845 75.387 113.049 75.387C119.915 75.387 124.371 70.7937 124.371 64.1982C124.371 57.3671 120.276 53.0093 112.447 53.0093C109.436 53.0093 106.545 53.5982 104.136 54.3048V85.6337H104.257ZM109.677 70.3226V57.8382C110.52 57.6026 111.243 57.4848 112.206 57.4848C116.181 57.4848 118.71 59.6048 118.71 64.1982C118.71 68.3204 116.663 70.9115 112.568 70.9115C111.484 70.9115 110.64 70.6759 109.677 70.3226ZM127.623 74.9159H132.923L139.788 65.2582C141.113 63.4915 142.077 61.7248 142.679 60.7826H142.8C142.679 62.0782 142.559 63.7271 142.559 65.3759V74.7982H147.979V53.5982H142.679L135.814 63.2559C134.609 65.0226 133.525 66.7893 132.923 67.7315H132.803C132.923 66.4359 133.043 64.787 133.043 63.1382V53.7159H127.623V74.9159ZM152.315 74.9159H157.855V66.0826H161.108C161.71 66.0826 162.312 66.6715 163.035 68.0848L165.805 74.9159H171.707L167.732 66.7893C167.009 65.3759 166.287 64.5515 165.203 64.1982V64.0804C167.009 63.0204 167.25 59.9582 168.334 58.4271C168.696 57.9559 169.177 57.7204 169.9 57.7204C170.261 57.7204 170.743 57.7204 171.105 57.9559V53.3626C170.502 53.1271 169.418 53.0093 168.816 53.0093C166.889 53.0093 165.684 53.7159 164.841 54.8937C163.035 57.4848 163.035 61.9604 160.385 61.9604H157.855V53.5982H152.315V74.9159ZM183.992 75.387C187.004 75.387 189.774 74.4448 191.46 73.267L189.894 69.6159C188.328 70.4404 186.883 71.0293 184.835 71.0293C181.102 71.0293 178.693 68.6737 178.693 64.3159C178.693 60.4293 181.102 57.3671 185.197 57.3671C187.365 57.3671 188.931 57.9559 190.496 59.0159V54.4226C189.292 53.7159 187.365 53.0093 184.595 53.0093C178.09 53.0093 173.032 57.7204 173.032 64.4337C173.032 70.5582 176.886 75.387 183.992 75.387Z" fill="#8E8E93"/>
</svg>
