<svg width="270" height="90" viewBox="0 0 270 90" fill="none" xmlns="http://www.w3.org/2000/svg">
<path d="M118.488 44.7698C118.488 53.098 111.973 59.2349 103.978 59.2349C95.982 59.2349 89.4668 53.098 89.4668 44.7698C89.4668 36.3829 95.982 30.3047 103.978 30.3047C111.973 30.3047 118.488 36.3829 118.488 44.7698ZM112.136 44.7698C112.136 39.5655 108.36 36.0046 103.978 36.0046C99.595 36.0046 95.8189 39.5655 95.8189 44.7698C95.8189 49.9219 99.595 53.535 103.978 53.535C108.36 53.535 112.136 49.9154 112.136 44.7698Z" fill="#1C1C20"/>
<path d="M149.793 44.7698C149.793 53.098 143.278 59.2349 135.282 59.2349C127.287 59.2349 120.771 53.098 120.771 44.7698C120.771 36.3894 127.287 30.3047 135.282 30.3047C143.278 30.3047 149.793 36.3829 149.793 44.7698ZM143.441 44.7698C143.441 39.5655 139.665 36.0046 135.282 36.0046C130.9 36.0046 127.124 39.5655 127.124 44.7698C127.124 49.9219 130.9 53.535 135.282 53.535C139.665 53.535 143.441 49.9154 143.441 44.7698Z" fill="#1C1C20"/>
<path d="M179.793 31.1786V57.148C179.793 67.8305 173.493 72.1935 166.045 72.1935C159.034 72.1935 154.815 67.5044 153.223 63.6697L158.754 61.3675C159.739 63.7218 162.152 66.5001 166.038 66.5001C170.806 66.5001 173.76 63.5588 173.76 58.0219V55.9415H173.538C172.117 57.6958 169.378 59.2284 165.921 59.2284C158.689 59.2284 152.062 52.9284 152.062 44.822C152.062 36.6568 158.689 30.3047 165.921 30.3047C169.371 30.3047 172.11 31.8373 173.538 33.5394H173.76V31.1851H179.793V31.1786ZM174.21 44.822C174.21 39.7285 170.812 36.0046 166.488 36.0046C162.106 36.0046 158.434 39.7285 158.434 44.822C158.434 49.8632 162.106 53.5349 166.488 53.5349C170.812 53.5349 174.21 49.8632 174.21 44.822Z" fill="#1C1C20"/>
<path d="M189.738 15.9561V58.347H183.542V15.9561H189.738Z" fill="#1C1C20"/>
<path d="M213.881 49.5303L218.812 52.8172C217.22 55.1716 213.386 59.2281 206.76 59.2281C198.542 59.2281 192.405 52.8759 192.405 44.763C192.405 36.1609 198.594 30.2979 206.049 30.2979C213.555 30.2979 217.227 36.2717 218.427 39.5L219.086 41.1434L199.749 49.1521C201.229 52.0542 203.531 53.5346 206.76 53.5346C209.994 53.5346 212.238 51.9433 213.881 49.5303ZM198.705 44.326L211.631 38.9587C210.92 37.1521 208.781 35.8935 206.264 35.8935C203.036 35.8935 198.542 38.7434 198.705 44.326Z" fill="#1C1C20"/>
<path d="M66.0146 41.0064V34.8695H86.6949C86.8971 35.9391 87.0014 37.2043 87.0014 38.5739C87.0014 43.1782 85.7428 48.8716 81.6863 52.9281C77.7406 57.0368 72.6994 59.228 66.0212 59.228C53.643 59.228 43.2344 49.1455 43.2344 36.7673C43.2344 24.3892 53.643 14.3066 66.0212 14.3066C72.8689 14.3066 77.7472 16.9936 81.4124 20.4957L77.082 24.8261C74.4537 22.3609 70.8929 20.4436 66.0146 20.4436C56.9756 20.4436 49.9061 27.7283 49.9061 36.7673C49.9061 45.8064 56.9756 53.0911 66.0146 53.0911C71.8776 53.0911 75.2167 50.7368 77.3559 48.5977C79.0906 46.8629 80.2319 44.3847 80.6819 40.9999L66.0146 41.0064Z" fill="#1C1C20"/>
</svg>
