<svg width="270" height="90" viewBox="0 0 270 90" fill="none" xmlns="http://www.w3.org/2000/svg">
  <path d="M196.592 55.9155H217.79V51.3222H203.819C205.746 43.7844 217.549 42.1355 217.549 33.7733C217.549 29.2978 214.418 26 207.793 26C203.698 26 200.085 27.1778 197.676 28.3556L199.121 32.5956C201.289 31.5356 203.819 30.5933 206.95 30.5933C209.359 30.5933 211.648 31.6533 211.648 34.3622C211.648 40.4867 197.796 40.9578 196.592 55.9155ZM218.393 48.6133H232.003V55.9155H237.423V48.6133H242V44.1378H237.423V26H233.448L218.393 45.08V48.6133ZM224.535 44.3733L232.244 34.2444C232.244 35.0689 232.003 37.66 232.003 40.0156V44.2556H228.39C227.306 44.2556 225.258 44.3733 224.535 44.3733Z" fill="#1C1C20" />
  <path d="M42.661 51.4404V42.1359H44.9495C46.9971 42.1359 48.6833 42.3715 49.8878 43.0782C51.0922 43.7848 51.8149 44.9626 51.8149 46.847C51.8149 50.027 49.8878 51.4404 45.3108 51.4404H42.661ZM37.1204 55.9159H45.1904C54.2239 55.9159 57.4759 52.0293 57.4759 46.6115C57.4759 42.9604 55.9101 40.4871 53.1398 39.0737C50.9718 37.8959 48.2015 37.5426 44.829 37.5426H42.661V30.4759H54.8261L56.2714 26.1182H37V55.9159H37.1204ZM61.2098 55.9159H66.5094L73.3749 46.2582C74.6998 44.4915 75.6633 42.7248 76.2656 41.7826H76.386C76.2656 43.0782 76.1451 44.7271 76.1451 46.3759V55.7982H81.5652V34.5982H76.2656L69.4001 44.2559C68.1957 46.0226 67.1116 47.7893 66.5094 48.7315H66.389C66.5094 47.4359 66.6298 45.787 66.6298 44.1382V34.7159H61.2098V55.9159ZM90.8396 55.9159H96.3801V39.0737H102.884L104.33 34.5982H84.215V39.0737H90.8396V55.9159ZM106.257 66.6337H111.677V55.9159C112.761 56.2693 113.845 56.387 115.049 56.387C121.915 56.387 126.371 51.7937 126.371 45.1982C126.371 38.3671 122.276 34.0093 114.447 34.0093C111.436 34.0093 108.545 34.5982 106.136 35.3048V66.6337H106.257ZM111.677 51.3226V38.8382C112.52 38.6026 113.243 38.4848 114.206 38.4848C118.181 38.4848 120.71 40.6048 120.71 45.1982C120.71 49.3204 118.663 51.9115 114.568 51.9115C113.484 51.9115 112.64 51.6759 111.677 51.3226ZM129.623 55.9159H134.923L141.788 46.2582C143.113 44.4915 144.077 42.7248 144.679 41.7826H144.8C144.679 43.0782 144.559 44.7271 144.559 46.3759V55.7982H149.979V34.5982H144.679L137.814 44.2559C136.609 46.0226 135.525 47.7893 134.923 48.7315H134.803C134.923 47.4359 135.043 45.787 135.043 44.1382V34.7159H129.623V55.9159ZM154.315 55.9159H159.855V47.0826H163.108C163.71 47.0826 164.312 47.6715 165.035 49.0848L167.805 55.9159H173.707L169.732 47.7893C169.009 46.3759 168.287 45.5515 167.203 45.1982V45.0804C169.009 44.0204 169.25 40.9582 170.334 39.4271C170.696 38.9559 171.177 38.7204 171.9 38.7204C172.261 38.7204 172.743 38.7204 173.105 38.9559V34.3626C172.502 34.1271 171.418 34.0093 170.816 34.0093C168.889 34.0093 167.684 34.7159 166.841 35.8937C165.035 38.4848 165.035 42.9604 162.385 42.9604H159.855V34.5982H154.315V55.9159ZM185.992 56.387C189.004 56.387 191.774 55.4448 193.46 54.267L191.894 50.6159C190.328 51.4404 188.883 52.0293 186.835 52.0293C183.102 52.0293 180.693 49.6737 180.693 45.3159C180.693 41.4293 183.102 38.3671 187.197 38.3671C189.365 38.3671 190.931 38.9559 192.496 40.0159V35.4226C191.292 34.7159 189.365 34.0093 186.595 34.0093C180.09 34.0093 175.032 38.7204 175.032 45.4337C175.032 51.5582 178.886 56.387 185.992 56.387Z" fill="#1C1C20" />
</svg>
