<svg width="270" height="90" viewBox="0 0 270 90" fill="none" xmlns="http://www.w3.org/2000/svg">
<g clip-path="url(#clip0_567_6)">
<path d="M211.219 65.7958C214.495 65.7958 216.816 65.2072 218.545 63.9392V58.1883C216.77 59.4109 214.631 60.1808 211.628 60.1808C206.577 60.1808 204.484 56.2864 204.484 50.1279C204.484 43.6525 207.032 40.3468 211.674 40.3468C214.404 40.3468 217.089 41.2977 218.499 42.2034V36.226C216.998 35.4109 214.404 34.8223 210.855 34.8223C201.799 34.8223 197.112 41.2977 197.112 50.3543C197.158 60.2713 201.754 65.7958 211.219 65.7958ZM166.943 63.1694V57.4185C164.759 58.9128 161.028 60.226 157.615 60.226C152.427 60.226 150.471 57.7808 150.152 52.7996H167.262V49.0864C167.262 38.7166 162.666 34.8223 155.613 34.8223C146.967 34.8223 142.871 41.3883 142.871 50.3996C142.871 60.7694 148.013 65.7958 157.023 65.7958C161.528 65.7958 164.85 64.5732 166.943 63.1694ZM102.009 35.3657V47.1392H92.5439V35.3657H85.4453V65.2072H92.5439V52.7543H102.009V65.2072H109.107V35.3657H102.009ZM141.097 59.5921H137.957V35.3657H117.298V37.9015C117.298 45.1921 116.843 54.6109 114.34 59.5921H112.065V71.9996H118.618V65.2072H134.499V71.9996H141.051V59.5921H141.097ZM189.559 65.2072H197.613L186.237 49.1317L196.248 35.3657H189.104L179.093 49.1317V35.3657H171.994V65.2072H179.093V50.5355L189.559 65.2072ZM155.431 40.3468C158.934 40.3468 160.027 43.2449 160.027 47.0034V47.5921H150.152C150.334 42.8374 152.063 40.3468 155.431 40.3468ZM130.858 59.5921H120.847C122.804 55.1091 123.35 46.9581 123.35 41.7958V40.8902H130.858V59.5921Z" fill="#1C1C20"/>
<path d="M79.53 65.2075H72.2948V29.5698H69.064C63.1485 29.5698 60.0542 32.5132 60.0542 36.9057C60.0542 41.8868 62.1929 44.1962 66.6068 47.1396L70.2471 49.5849L59.7812 65.2075H52L61.4193 51.2604C56.0044 47.4113 52.9556 43.6528 52.9556 37.3132C52.9556 29.3887 58.5071 24 69.0185 24H79.4845V65.2075H79.53Z" fill="#1C1C20"/>
</g>
<defs>
<clipPath id="clip0_567_6">
<rect width="167" height="48" fill="white" transform="translate(52 24)"/>
</clipPath>
</defs>
</svg>
