<svg width="270" height="90" viewBox="0 0 270 90" fill="none" xmlns="http://www.w3.org/2000/svg">
<g clip-path="url(#clip0_568_10)">
<path fill-rule="evenodd" clip-rule="evenodd" d="M107.559 42.3024C105.865 42.3024 104.49 43.6602 104.49 45.3333C104.49 47.01 105.865 48.3667 107.559 48.3667C109.255 48.3667 110.628 47.01 110.628 45.3333C110.628 43.6602 109.255 42.3024 107.559 42.3024ZM232.441 40.0767C234.453 40.0767 235.925 41.1898 236.89 42.3024V36.9277C235.309 35.8684 233.404 35.4443 231.748 35.4443C226.661 35.4443 222.241 39.0444 222.241 45.2378C222.241 51.1681 226.258 55.0338 231.827 55.0338C233.434 55.0338 235.201 54.7933 236.89 53.6569V48.3857C235.925 49.3672 234.401 50.4008 232.441 50.4008C229.444 50.4008 227.648 48.2045 227.648 45.3969C227.648 42.3525 229.55 40.0767 232.441 40.0767ZM222.816 35.9749H216.655L211.003 43.7557V35.9749H205.755L205.757 54.5038H211.003V46.5345L216.438 54.5038H223.004L215.691 44.9472L222.816 35.9749ZM190.254 47.0926V35.9749H185.192V54.5038H190.335L197.593 43.3855V54.5038H202.655V35.9749H197.511L190.254 47.0926ZM175.043 44.3114H173.546V40.0516H175.043C177.293 40.0516 177.613 41.2412 177.613 42.1683C177.613 42.962 177.373 44.3114 175.043 44.3114ZM176.194 35.9749H168.294V54.5038H173.546V48.3857H176.194C181.498 48.3857 183.025 44.7373 183.025 42.1683C183.025 39.6263 181.525 35.9749 176.194 35.9749ZM152.655 40.42H156.776V54.5038H162.028V40.42H166.151V35.9749H152.655V40.42ZM138.109 47.0926V35.9749H133.049V54.5038H138.192L145.447 43.3855V54.5038H150.51V35.9749H145.369L138.109 47.0926ZM122.469 50.7955H120.22V46.906H122.469C124.131 46.906 125.095 47.3833 125.095 48.8403C125.095 50.3212 124.105 50.7955 122.469 50.7955ZM122.979 43.2001H120.22V40.42H128.817V35.9749H114.972L114.971 54.5038L122.979 54.5038C124.344 54.5038 130.344 54.5552 130.344 48.7602C130.344 43.1738 124.399 43.2001 122.979 43.2001ZM85.5911 45.2378C85.5911 51.1681 89.6084 55.0338 95.1786 55.0338C96.7873 55.0338 98.5544 54.7933 100.242 53.6569V48.3857C99.2752 49.3672 97.7489 50.4008 95.7947 50.4008C92.7941 50.4008 91.001 48.2045 91.001 45.3969C91.001 42.3525 92.9019 40.0767 95.7947 40.0767C97.8027 40.0767 99.2752 41.1898 100.242 42.3024V36.9277C98.6584 35.8684 96.7588 35.4443 95.0981 35.4443C90.009 35.4443 85.5911 39.0444 85.5911 45.2378ZM74.6006 40.2358H77.468V54.5038H82.3163V35.9749H74.6006V40.2358Z" fill="#1C1C20"/>
<path fill-rule="evenodd" clip-rule="evenodd" d="M44.6121 23C43.0765 23 41.583 23.1707 40.144 23.4865V43.3862C40.144 45.8248 42.1558 47.8136 44.6238 47.8136C47.0907 47.8136 49.1018 45.8248 49.1018 43.3874C49.1018 41.0449 47.2498 39.1222 44.9217 38.9692V35.4254C49.2238 35.5797 52.6856 39.0971 52.6856 43.3874C52.6856 47.775 49.064 51.3561 44.6238 51.3561C40.1818 51.3561 36.5608 47.775 36.5608 43.3862V24.6125C36.0518 24.826 35.5546 25.0629 35.0673 25.3174V43.3862C35.068 48.5871 39.3614 52.8284 44.6238 52.8284C49.8869 52.8284 54.1785 48.5871 54.1785 43.3874C54.1785 38.2844 50.0485 34.1055 44.9217 33.9482V30.4057C52.0213 30.5642 57.7605 36.3348 57.7605 43.3874C57.7605 50.5398 51.859 56.3709 44.6238 56.3709C37.3868 56.3709 31.4835 50.5398 31.4835 43.3862V27.6673C26.9139 31.4019 24 37.0495 24 43.3709C24 54.6214 33.2283 63.7442 44.6127 63.7442C55.9989 63.7442 65.2248 54.6214 65.2248 43.3709C65.2248 32.1204 55.9989 23 44.6121 23Z" fill="#1C1C20"/>
</g>
<defs>
<clipPath id="clip0_568_10">
<rect width="213" height="41" fill="white" transform="translate(24 23)"/>
</clipPath>
</defs>
</svg>
