<svg width="32" height="32" viewBox="0 0 32 32" fill="none" xmlns="http://www.w3.org/2000/svg"><path d="M24.8 8.827c-1.92 0-3.733.747-5.027 2.04l-9.373 8.32a4.486 4.486 0 0 1-3.2 1.32c-2.493 0-4.533-2.013-4.533-4.507 0-2.493 2.04-4.506 4.533-4.506 1.213 0 2.347.466 3.253 1.373L11.96 14.2 14 12.415l-1.707-1.48A7.161 7.161 0 0 0 7.2 8.827C3.227 8.827 0 12.054 0 16c0 3.947 3.227 7.174 7.2 7.174 1.92 0 3.733-.747 5.027-2.04l9.373-8.32a4.486 4.486 0 0 1 3.2-1.32c2.493 0 4.533 2.013 4.533 4.506 0 2.494-2.04 4.507-4.533 4.507-1.2 0-2.347-.466-3.253-1.373L20 17.787l-2 1.787 1.707 1.493A7.18 7.18 0 0 0 24.8 23.16c3.973 0 7.2-3.213 7.2-7.16 0-4-3.227-7.173-7.2-7.173Z" fill="#818181"/></svg>