<svg width="32" height="32" viewBox="0 0 32 32" fill="none" xmlns="http://www.w3.org/2000/svg"><path d="M25.335 13.334c0 1.84-2.827 3.333-4.667 3.333-1.84 0-3.667-1.493-3.667-3.333h-2c0 1.84-1.826 3.333-3.666 3.333-1.84 0-4.667-1.493-4.667-3.333h-1A10.984 10.984 0 0 0 5.335 16a10.667 10.667 0 1 0 21.333 0c0-.92-.12-1.813-.333-2.666h-1Zm-9.334-8c-3.946 0-7.4 2.146-9.24 5.333h18.48a10.663 10.663 0 0 0-9.24-5.333ZM29.335 16a13.333 13.333 0 1 1-26.667 0 13.333 13.333 0 0 1 26.667 0ZM16 22.974c-2.333 0-4.386-.974-5.586-2.414l1.893-1.893c.6.96 2.027 1.64 3.693 1.64 1.667 0 3.094-.68 3.694-1.64l1.893 1.893c-1.2 1.44-3.253 2.414-5.587 2.414Z" fill="#818181"/></svg>