<svg width="123" height="49" viewBox="0 0 123 49" fill="none" xmlns="http://www.w3.org/2000/svg"><path d="M1.386 28v-9.8h8.666V28H8.26v-8.708l.42.448H2.758l.42-.448V28H1.386Zm15.097.098c-.606 0-1.162-.14-1.666-.42-.494-.28-.891-.7-1.19-1.26-.289-.57-.434-1.288-.434-2.156 0-.877.14-1.596.42-2.156.29-.56.682-.975 1.176-1.246.495-.28 1.06-.42 1.694-.42.738 0 1.386.159 1.946.476.57.317 1.018.76 1.344 1.33.336.57.504 1.241.504 2.016 0 .775-.168 1.451-.504 2.03a3.473 3.473 0 0 1-1.344 1.33c-.56.317-1.208.476-1.946.476Zm-4.144 2.618V20.524h1.666v1.764l-.056 1.988.14 1.988v4.452h-1.75Zm3.948-4.116c.42 0 .794-.093 1.12-.28.336-.187.602-.457.798-.812.196-.355.294-.77.294-1.246 0-.485-.098-.9-.294-1.246a2.026 2.026 0 0 0-.798-.812c-.326-.187-.7-.28-1.12-.28-.42 0-.798.093-1.134.28a2.026 2.026 0 0 0-.798.812c-.196.345-.294.76-.294 1.246 0 .476.098.891.294 1.246.196.355.462.625.798.812.336.187.714.28 1.134.28Zm8.784 1.498c-.765 0-1.447-.163-2.044-.49a3.767 3.767 0 0 1-1.414-1.372c-.345-.579-.518-1.237-.518-1.974 0-.747.173-1.405.518-1.974a3.663 3.663 0 0 1 1.414-1.358c.597-.327 1.279-.49 2.044-.49.775 0 1.46.163 2.058.49a3.569 3.569 0 0 1 1.414 1.344c.345.57.518 1.232.518 1.988 0 .737-.173 1.395-.518 1.974a3.635 3.635 0 0 1-1.414 1.372c-.597.327-1.283.49-2.058.49Zm0-1.498c.43 0 .812-.093 1.148-.28.336-.187.597-.457.784-.812.196-.355.294-.77.294-1.246 0-.485-.098-.9-.294-1.246a1.936 1.936 0 0 0-.784-.812 2.295 2.295 0 0 0-1.134-.28c-.43 0-.812.093-1.148.28a2.055 2.055 0 0 0-.784.812c-.196.345-.294.76-.294 1.246 0 .476.098.891.294 1.246.196.355.457.625.784.812.336.187.714.28 1.134.28ZM30.51 28v-7.476h5.74v1.484h-4.396l.406-.392V28h-1.75Zm10.878.098c-.607 0-1.163-.14-1.666-.42-.495-.28-.892-.7-1.19-1.26-.29-.57-.434-1.288-.434-2.156 0-.877.14-1.596.42-2.156.289-.56.68-.975 1.175-1.246.495-.28 1.06-.42 1.695-.42.737 0 1.386.159 1.946.476a3.46 3.46 0 0 1 1.343 1.33c.337.57.505 1.241.505 2.016 0 .775-.169 1.451-.505 2.03a3.473 3.473 0 0 1-1.343 1.33c-.56.317-1.21.476-1.947.476Zm-4.145 2.618V20.524h1.666v1.764l-.056 1.988.14 1.988v4.452h-1.75Zm3.948-4.116c.42 0 .794-.093 1.12-.28a2.02 2.02 0 0 0 .798-.812c.197-.355.294-.77.294-1.246 0-.485-.097-.9-.294-1.246a2.026 2.026 0 0 0-.797-.812c-.327-.187-.7-.28-1.12-.28-.42 0-.798.093-1.135.28a2.026 2.026 0 0 0-.797.812c-.197.345-.294.76-.294 1.246 0 .476.097.891.294 1.246.196.355.462.625.797.812.337.187.715.28 1.134.28Zm9.892 1.4v-1.512l-.097-.322V23.52c0-.513-.154-.91-.462-1.19-.309-.29-.775-.434-1.4-.434-.42 0-.836.065-1.247.196-.4.13-.742.313-1.022.546l-.685-1.274a4.062 4.062 0 0 1 1.427-.686 6.336 6.336 0 0 1 1.736-.238c1.083 0 1.919.261 2.507.784.597.513.895 1.311.895 2.394V28h-1.651Zm-2.352.098c-.56 0-1.05-.093-1.47-.28a2.391 2.391 0 0 1-.98-.798 2.09 2.09 0 0 1-.335-1.162c0-.42.098-.798.294-1.134.205-.336.536-.602.993-.798.458-.196 1.065-.294 1.82-.294h2.17v1.162H49.18c-.597 0-.998.098-1.204.294a.907.907 0 0 0-.308.7c0 .317.127.57.378.756.252.187.602.28 1.05.28.43 0 .813-.098 1.148-.294a1.66 1.66 0 0 0 .742-.868l.294 1.05a1.94 1.94 0 0 1-.91 1.022c-.429.243-.975.364-1.638.364Zm5.89-.098v-7.476h1.834l3.01 5.306h-.728l3.164-5.306h1.638L63.553 28h-1.582v-5.6l.28.182-2.8 4.634h-.756l-2.814-4.76.336-.084V28h-1.596Zm11 0v-7.476h1.833l3.01 5.306h-.728l3.164-5.306h1.638L74.552 28H72.97v-5.6l.28.182-2.8 4.634h-.756l-2.814-4.76.336-.084V28H65.62Zm10.999 0v-7.476h1.75v4.928l4.13-4.928h1.596V28h-1.75v-4.928L78.23 28h-1.61Zm12.952.098c-.784 0-1.484-.163-2.1-.49a3.737 3.737 0 0 1-1.428-1.372c-.346-.579-.518-1.237-.518-1.974 0-.747.172-1.405.518-1.974a3.636 3.636 0 0 1 1.428-1.358c.616-.327 1.316-.49 2.1-.49.728 0 1.367.15 1.918.448.56.29.984.719 1.274 1.288l-1.344.784a2.134 2.134 0 0 0-1.862-1.036c-.43 0-.817.093-1.162.28a2 2 0 0 0-.812.812c-.196.345-.294.76-.294 1.246 0 .485.098.905.294 1.26.196.345.466.611.812.798.345.187.732.28 1.162.28a2.134 2.134 0 0 0 1.862-1.036l1.344.784c-.29.56-.714.994-1.274 1.302-.551.299-1.19.448-1.918.448ZM95.51 28v-6.412l.406.42h-3.038v-1.484h7v1.484h-3.024l.406-.42V28h-1.75Z" fill="#000"/><path fill-rule="evenodd" clip-rule="evenodd" d="m111.903 36.137.888-9.544 8.67 17.618-19.172-5.275 9.614-2.8Zm-4.775 2.763 6.005-1.748.538-5.785 5.313 10.795-11.856-3.262Z" fill="#8E8E93"/><path d="m120.625 5.25-9.5 9-4.354-4.125 1.116-1.058 3.238 3.06 8.384-7.935 1.116 1.058Z" fill="#166FF5"/></svg>