<svg width="112" height="54" viewBox="0 0 112 54" fill="none" xmlns="http://www.w3.org/2000/svg"><path fill-rule="evenodd" clip-rule="evenodd" d="m13.77 44.078 12.234 4.26L.074 54l13.142-23.445.554 13.524Zm-2.077-7.163.346 8.447 7.416 2.583-15.888 3.468 8.126-14.498Z" fill="#8E8E93"/><path d="M28.97 14.14a7.454 7.454 0 0 1-2.199-.322c-.7-.224-1.255-.509-1.666-.854l.63-1.414c.392.308.878.565 1.456.77a5.28 5.28 0 0 0 1.778.308c.514 0 .929-.056 1.246-.168.318-.112.55-.261.7-.448.15-.196.224-.415.224-.658a.878.878 0 0 0-.322-.714 2.23 2.23 0 0 0-.84-.434 11.477 11.477 0 0 0-1.134-.308c-.41-.093-.826-.2-1.246-.322a5.94 5.94 0 0 1-1.134-.49 2.543 2.543 0 0 1-.826-.812c-.214-.336-.322-.765-.322-1.288 0-.532.14-1.017.42-1.456.29-.448.724-.803 1.302-1.064.588-.27 1.33-.406 2.226-.406.588 0 1.172.075 1.75.224.579.15 1.083.364 1.512.644l-.574 1.414a5.204 5.204 0 0 0-1.358-.574 4.98 4.98 0 0 0-1.344-.196c-.504 0-.914.06-1.232.182-.308.121-.536.28-.686.476-.14.196-.21.42-.21.672a.94.94 0 0 0 .308.728c.215.177.49.317.826.42.346.103.728.205 1.148.308.42.093.836.2 1.246.322.42.121.798.28 1.134.476.346.196.62.462.826.798.215.336.322.76.322 1.274 0 .523-.144 1.008-.434 1.456-.28.439-.714.793-1.302 1.064-.588.261-1.33.392-2.226.392Zm7.166-5.866h4.872v1.498h-4.872V8.274Zm.14 4.2h5.53V14h-7.35V4.2h7.154v1.526h-5.334v6.748Zm11.87 1.666c-.764 0-1.47-.126-2.113-.378a5.172 5.172 0 0 1-1.68-1.05 4.856 4.856 0 0 1-1.106-1.596 5.11 5.11 0 0 1-.392-2.016c0-.728.13-1.395.392-2.002a4.67 4.67 0 0 1 1.106-1.596 5.054 5.054 0 0 1 1.68-1.064 5.713 5.713 0 0 1 2.1-.378c.765 0 1.465.126 2.1.378a5.054 5.054 0 0 1 1.68 1.064c.476.448.845.98 1.106 1.596.261.607.392 1.274.392 2.002 0 .728-.13 1.4-.392 2.016a4.669 4.669 0 0 1-1.106 1.596 5.172 5.172 0 0 1-1.68 1.05 5.603 5.603 0 0 1-2.086.378Zm-.013-1.596a3.66 3.66 0 0 0 1.372-.252c.42-.168.784-.406 1.092-.714.308-.317.546-.681.714-1.092.177-.42.266-.882.266-1.386 0-.504-.089-.961-.266-1.372a3.213 3.213 0 0 0-.714-1.092 3.115 3.115 0 0 0-1.092-.728 3.66 3.66 0 0 0-1.372-.252 3.66 3.66 0 0 0-1.372.252c-.41.168-.775.41-1.092.728-.308.308-.55.672-.728 1.092a3.59 3.59 0 0 0-.252 1.372c0 .495.084.952.252 1.372.177.42.42.789.728 1.106.308.308.672.546 1.092.714.42.168.877.252 1.372.252Zm-18.94 18.554c-.784 0-1.484-.163-2.1-.49a3.739 3.739 0 0 1-1.428-1.372c-.345-.579-.518-1.237-.518-1.974 0-.747.173-1.405.518-1.974a3.638 3.638 0 0 1 1.428-1.358c.616-.327 1.316-.49 2.1-.49.728 0 1.368.15 1.918.448.56.29.985.719 1.274 1.288l-1.344.784a2.134 2.134 0 0 0-1.862-1.036 2.4 2.4 0 0 0-1.162.28 2.001 2.001 0 0 0-.812.812c-.196.345-.294.76-.294 1.246 0 .485.098.905.294 1.26.196.345.467.611.812.798.346.187.733.28 1.162.28a2.134 2.134 0 0 0 1.862-1.036l1.344.784a3.06 3.06 0 0 1-1.274 1.302c-.55.299-1.19.448-1.918.448ZM33.646 31v-7.476h7.168V31h-1.736v-6.398l.406.406H34.99l.406-.406V31h-1.75Zm12.735.098c-.83 0-1.558-.163-2.184-.49a3.711 3.711 0 0 1-1.442-1.372c-.336-.579-.504-1.237-.504-1.974 0-.747.164-1.405.49-1.974a3.616 3.616 0 0 1 1.372-1.358c.588-.327 1.256-.49 2.002-.49.728 0 1.377.159 1.946.476.57.317 1.018.765 1.344 1.344.327.579.49 1.26.49 2.044 0 .075-.004.159-.014.252 0 .093-.004.182-.014.266h-6.23V26.66h5.306l-.686.364c.01-.43-.079-.807-.266-1.134a2.034 2.034 0 0 0-.77-.77 2.14 2.14 0 0 0-1.106-.28c-.429 0-.807.093-1.134.28a2.044 2.044 0 0 0-.756.784c-.177.327-.266.714-.266 1.162v.28c0 .448.103.845.308 1.19.206.345.495.611.868.798.374.187.803.28 1.288.28a3.1 3.1 0 0 0 1.134-.196c.336-.13.635-.336.896-.616l.938 1.078c-.336.392-.76.695-1.274.91-.504.205-1.082.308-1.736.308ZM51.53 31v-7.476h1.75v5.992h3.57v-5.992h1.75V31h-7.07Zm6.566 1.666v-1.708l.406.042H56.85v-1.484h2.884v3.15h-1.638ZM61.011 31v-7.476h1.75v4.928l4.13-4.928h1.596V31h-1.75v-4.928L62.621 31h-1.61Zm14.086 0v-1.512L75 29.166V26.52c0-.513-.154-.91-.462-1.19-.308-.29-.775-.434-1.4-.434-.42 0-.835.065-1.246.196a3.05 3.05 0 0 0-1.022.546l-.686-1.274a4.062 4.062 0 0 1 1.428-.686 6.336 6.336 0 0 1 1.736-.238c1.083 0 1.918.261 2.506.784.598.513.896 1.311.896 2.394V31h-1.652Zm-2.352.098c-.56 0-1.05-.093-1.47-.28a2.391 2.391 0 0 1-.98-.798 2.09 2.09 0 0 1-.336-1.162c0-.42.098-.798.294-1.134.206-.336.537-.602.994-.798.457-.196 1.064-.294 1.82-.294h2.17v1.162h-2.044c-.597 0-.998.098-1.204.294a.907.907 0 0 0-.308.7c0 .317.126.57.378.756.252.187.602.28 1.05.28.43 0 .812-.098 1.148-.294a1.66 1.66 0 0 0 .742-.868l.294 1.05a1.94 1.94 0 0 1-.91 1.022c-.43.243-.975.364-1.638.364Zm4.798-.112.084-1.47.182.028c.056.01.107.014.154.014.289 0 .513-.089.672-.266.158-.177.275-.415.35-.714.084-.308.14-.649.168-1.022.037-.383.065-.765.084-1.148l.126-2.884h6.048V31h-1.75v-6.468l.406.476H80.51l.378-.49-.098 1.974a17.86 17.86 0 0 1-.168 1.848 6.158 6.158 0 0 1-.364 1.47c-.159.42-.383.747-.672.98-.28.233-.64.35-1.078.35-.14 0-.294-.014-.462-.042a6.245 6.245 0 0 1-.504-.112Zm9.944.014v-7.476h1.75v4.928l4.13-4.928h1.596V31h-1.75v-4.928L89.099 31h-1.61Zm12.953.098c-.784 0-1.484-.163-2.1-.49a3.737 3.737 0 0 1-1.428-1.372c-.346-.579-.518-1.237-.518-1.974 0-.747.172-1.405.518-1.974a3.636 3.636 0 0 1 1.428-1.358c.616-.327 1.316-.49 2.1-.49.728 0 1.367.15 1.918.448.56.29.984.719 1.274 1.288l-1.344.784a2.138 2.138 0 0 0-1.862-1.036c-.43 0-.817.093-1.162.28a2 2 0 0 0-.812.812c-.196.345-.294.76-.294 1.246 0 .485.098.905.294 1.26.196.345.466.611.812.798.345.187.732.28 1.162.28a2.138 2.138 0 0 0 1.862-1.036l1.344.784c-.29.56-.714.994-1.274 1.302-.551.299-1.19.448-1.918.448Zm5.938-.098v-6.412l.406.42h-3.038v-1.484h7v1.484h-3.024l.406-.42V31h-1.75Z" fill="#000"/></svg>