<svg width="113" height="76" viewBox="0 0 113 76" fill="none" xmlns="http://www.w3.org/2000/svg"><path fill-rule="evenodd" clip-rule="evenodd" d="m15.155 9.921 12.234-4.26L1.459 0l13.142 23.445.554-13.524Zm-2.077 7.163.346-8.447 7.416-2.583L4.952 2.586l8.126 14.498Z" fill="#8E8E93"/><path d="M21.828 57.486 9.355 69.96l-5.717-5.717 1.465-1.466 4.252 4.241L20.363 56.02l1.465 1.466Z" fill="#166FF5"/><path d="M30.354 34.139a7.454 7.454 0 0 1-2.198-.322c-.7-.224-1.255-.509-1.666-.854l.63-1.414c.392.308.877.565 1.456.77a5.278 5.278 0 0 0 1.778.308c.513 0 .929-.056 1.246-.168.317-.112.55-.261.7-.448a1.06 1.06 0 0 0 .224-.658.879.879 0 0 0-.322-.714 2.233 2.233 0 0 0-.84-.434 11.497 11.497 0 0 0-1.134-.308c-.41-.093-.826-.2-1.246-.322a5.93 5.93 0 0 1-1.134-.49 2.542 2.542 0 0 1-.826-.812c-.215-.336-.322-.765-.322-1.288 0-.532.14-1.017.42-1.456.29-.448.723-.803 1.302-1.064.588-.27 1.33-.406 2.226-.406.588 0 1.171.075 1.75.224.579.15 1.083.364 1.512.644l-.574 1.414a5.21 5.21 0 0 0-1.358-.574 4.984 4.984 0 0 0-1.344-.196c-.504 0-.915.06-1.232.182-.308.121-.537.28-.686.476-.14.196-.21.42-.21.672a.94.94 0 0 0 .308.728c.215.177.49.317.826.42.345.103.728.205 1.148.308.42.093.835.2 1.246.322.42.121.798.28 1.134.476.345.196.62.462.826.798.215.336.322.76.322 1.274 0 .523-.145 1.008-.434 1.456-.28.439-.714.793-1.302 1.064-.588.261-1.33.392-2.226.392Zm7.167-5.866h4.872v1.498H37.52v-1.498Zm.14 4.2h5.53v1.526h-7.35v-9.8h7.154v1.526H37.66v6.748Zm11.87 1.666c-.765 0-1.47-.126-2.113-.378a5.172 5.172 0 0 1-1.68-1.05 4.854 4.854 0 0 1-1.106-1.596 5.11 5.11 0 0 1-.392-2.016c0-.728.13-1.395.392-2.002a4.669 4.669 0 0 1 1.106-1.596 5.054 5.054 0 0 1 1.68-1.064 5.713 5.713 0 0 1 2.1-.378c.765 0 1.465.126 2.1.378a5.054 5.054 0 0 1 1.68 1.064c.476.448.844.98 1.106 1.596.26.607.392 1.274.392 2.002 0 .728-.131 1.4-.392 2.016a4.669 4.669 0 0 1-1.106 1.596 5.172 5.172 0 0 1-1.68 1.05 5.604 5.604 0 0 1-2.086.378Zm-.013-1.596a3.66 3.66 0 0 0 1.372-.252c.42-.168.784-.406 1.092-.714.308-.317.546-.681.714-1.092.177-.42.266-.882.266-1.386 0-.504-.09-.961-.266-1.372a3.213 3.213 0 0 0-.714-1.092 3.116 3.116 0 0 0-1.092-.728 3.66 3.66 0 0 0-1.372-.252 3.66 3.66 0 0 0-1.372.252c-.411.168-.775.41-1.092.728a3.387 3.387 0 0 0-.728 1.092 3.59 3.59 0 0 0-.252 1.372c0 .495.084.952.252 1.372.177.42.42.789.728 1.106.308.308.672.546 1.092.714.42.168.877.252 1.372.252Zm-18.94 18.554c-.784 0-1.484-.163-2.1-.49a3.737 3.737 0 0 1-1.428-1.372c-.345-.579-.518-1.237-.518-1.974 0-.747.173-1.405.518-1.974a3.637 3.637 0 0 1 1.428-1.358c.616-.327 1.316-.49 2.1-.49.728 0 1.367.15 1.918.448.56.29.985.719 1.274 1.288l-1.344.784a2.134 2.134 0 0 0-1.862-1.036c-.43 0-.817.093-1.162.28a2.002 2.002 0 0 0-.812.812c-.196.345-.294.76-.294 1.246 0 .485.098.905.294 1.26.196.345.467.611.812.798a2.4 2.4 0 0 0 1.162.28 2.134 2.134 0 0 0 1.862-1.036l1.344.784a3.06 3.06 0 0 1-1.274 1.302c-.55.299-1.19.448-1.918.448Zm4.453-.098v-7.476h7.168v7.476h-1.736v-6.398l.406.406h-4.494l.406-.406v6.398h-1.75Zm12.735.098c-.83 0-1.559-.163-2.184-.49a3.711 3.711 0 0 1-1.442-1.372c-.336-.579-.504-1.237-.504-1.974 0-.747.163-1.405.49-1.974a3.617 3.617 0 0 1 1.372-1.358c.588-.327 1.255-.49 2.002-.49.728 0 1.377.159 1.946.476a3.44 3.44 0 0 1 1.344 1.344c.327.579.49 1.26.49 2.044 0 .075-.005.159-.014.252a2.5 2.5 0 0 1-.014.266h-6.23v-1.162h5.306l-.686.364a2.15 2.15 0 0 0-.266-1.134 2.035 2.035 0 0 0-.77-.77 2.142 2.142 0 0 0-1.106-.28c-.43 0-.807.093-1.134.28-.317.187-.57.448-.756.784-.177.327-.266.714-.266 1.162v.28c0 .448.103.845.308 1.19.205.345.495.611.868.798.373.187.803.28 1.288.28a3.1 3.1 0 0 0 1.134-.196c.336-.13.635-.336.896-.616l.938 1.078c-.336.392-.76.695-1.274.91-.504.205-1.083.308-1.736.308Zm5.148-.098v-7.476h1.75v5.992h3.57v-5.992h1.75v7.476h-7.07Zm6.566 1.666v-1.708l.406.042h-1.652v-1.484h2.884v3.15H59.48Zm2.916-1.666v-7.476h1.75v4.928l4.13-4.928h1.596v7.476h-1.75v-4.928l-4.116 4.928h-1.61Zm14.086 0v-1.512l-.098-.322v-2.646c0-.513-.154-.91-.462-1.19-.308-.29-.775-.434-1.4-.434-.42 0-.835.065-1.246.196a3.05 3.05 0 0 0-1.022.546l-.686-1.274a4.066 4.066 0 0 1 1.428-.686 6.34 6.34 0 0 1 1.736-.238c1.083 0 1.918.261 2.506.784.597.513.896 1.311.896 2.394v4.382h-1.652Zm-2.352.098c-.56 0-1.05-.093-1.47-.28a2.392 2.392 0 0 1-.98-.798 2.089 2.089 0 0 1-.336-1.162c0-.42.098-.798.294-1.134.205-.336.537-.602.994-.798.457-.196 1.064-.294 1.82-.294h2.17v1.162h-2.044c-.597 0-.999.098-1.204.294a.907.907 0 0 0-.308.7c0 .317.126.57.378.756.252.187.602.28 1.05.28.43 0 .812-.098 1.148-.294.345-.196.593-.485.742-.868l.294 1.05c-.168.439-.471.78-.91 1.022-.43.243-.975.364-1.638.364Zm4.797-.112.084-1.47.182.028a.88.88 0 0 0 .154.014c.29 0 .514-.089.672-.266.16-.177.276-.415.35-.714.084-.308.14-.649.168-1.022.038-.383.066-.765.084-1.148l.126-2.884h6.048v7.476h-1.75v-6.468l.406.476h-3.556l.378-.49-.098 1.974a17.86 17.86 0 0 1-.168 1.848 6.154 6.154 0 0 1-.364 1.47c-.158.42-.382.747-.672.98-.28.233-.639.35-1.078.35-.14 0-.294-.014-.462-.042a6.264 6.264 0 0 1-.504-.112Zm9.945.014v-7.476h1.75v4.928l4.13-4.928h1.596v7.476h-1.75v-4.928l-4.116 4.928h-1.61Zm12.952.098c-.784 0-1.484-.163-2.1-.49a3.739 3.739 0 0 1-1.428-1.372c-.345-.579-.518-1.237-.518-1.974 0-.747.173-1.405.518-1.974a3.638 3.638 0 0 1 1.428-1.358c.616-.327 1.316-.49 2.1-.49.728 0 1.368.15 1.918.448.56.29.985.719 1.274 1.288l-1.344.784a2.132 2.132 0 0 0-1.862-1.036c-.429 0-.816.093-1.162.28a2.001 2.001 0 0 0-.812.812c-.196.345-.294.76-.294 1.246 0 .485.098.905.294 1.26.196.345.467.611.812.798.346.187.733.28 1.162.28a2.137 2.137 0 0 0 1.862-1.036l1.344.784a3.06 3.06 0 0 1-1.274 1.302c-.55.299-1.19.448-1.918.448Zm5.939-.098v-6.412l.406.42h-3.038v-1.484h7v1.484h-3.024l.406-.42v6.412h-1.75Z" fill="#000"/></svg>