<svg xmlns="http://www.w3.org/2000/svg" width="1925" height="1267"><path d="M0 0h555c-3.352 4.19-4.91 5.87-9.234 8.46l-3.141 1.905-3.375 2.01a2215.49 2215.49 0 0 0-3.516 2.127 2866.034 2866.034 0 0 1-5.414 3.276c-5.815 3.508-11.57 7.108-17.32 10.722-13.711 8.592-27.502 17.055-41.291 25.52-12.588 7.73-25.153 15.492-37.67 23.336-8.413 5.266-16.864 10.467-25.321 15.66a2823.51 2823.51 0 0 0-21.906 13.609c-8.794 5.515-17.642 10.937-26.52 16.317-5.97 3.625-11.898 7.31-17.792 11.058a1126.892 1126.892 0 0 1-20.688 12.813 1822.101 1822.101 0 0 0-23.625 14.562c-10.607 6.651-21.262 13.223-31.93 19.777-8.25 5.07-16.482 10.17-24.713 15.271-4.347 2.694-8.695 5.385-13.044 8.077l-5.25 3.25-73.5 45.5-2.624 1.624-5.262 3.258c-4.313 2.67-8.626 5.34-12.938 8.013a7941.009 7941.009 0 0 1-25.438 15.702 3709.679 3709.679 0 0 0-28.675 17.778 2121.08 2121.08 0 0 1-26.365 16.238C33.216 325.108 18.098 334.539 3 344c7.873 9.222 16.038 18.135 24.343 26.968a1471.51 1471.51 0 0 1 13.993 15.118C50.818 396.458 60.404 406.734 70 417c7.15 7.65 14.293 15.305 21.385 23.01 4.073 4.418 8.186 8.8 12.302 13.178 3.98 4.234 7.943 8.476 11.813 12.812 5.73 6.419 11.656 12.656 17.55 18.924 14.68 15.621 14.68 15.621 20.325 21.951 4.773 5.342 9.7 10.535 14.618 15.743a1227.805 1227.805 0 0 1 14.16 15.284c3.455 3.774 6.966 7.496 10.472 11.223a789.145 789.145 0 0 1 13.945 15.195c3.872 4.27 7.831 8.456 11.78 12.654a1291.44 1291.44 0 0 1 13.798 14.928c2.189 2.392 4.41 4.75 6.641 7.102l1.959 2.072a892.565 892.565 0 0 0 3.834 4.026l1.742 1.843 1.565 1.641C249 610 249 610 249 612l3 1c1.554 1.56 1.554 1.56 3.207 3.55 3.691 4.35 7.554 8.5 11.48 12.638a1719.134 1719.134 0 0 1 15.872 16.996c3.815 4.145 7.656 8.264 11.503 12.379a2054.07 2054.07 0 0 1 15.239 16.488c10.094 11.03 20.293 21.962 30.506 32.881a2608.67 2608.67 0 0 1 20.35 21.974c3.257 3.554 6.55 7.073 9.843 10.594a1916.118 1916.118 0 0 1 15.148 16.398c3.3 3.6 6.64 7.162 9.977 10.727a913.674 913.674 0 0 1 13.66 14.906c6.063 6.759 12.146 13.48 18.621 19.848 2.316 2.355 4.45 4.853 6.61 7.351 7.3 8.35 14.96 16.39 22.558 24.467a715.26 715.26 0 0 1 12.512 13.705c2.338 2.562 4.79 4.986 7.262 7.418 1.646 1.674 3.184 3.4 4.714 5.18 3.55 4.112 7.234 8.09 10.938 12.063l1.762 1.894c2.935 3.14 5.907 6.23 8.957 9.258 2.366 2.35 4.627 4.736 6.781 7.285 2.753 3.196 5.646 6.172 8.656 9.125 1.78 1.81 3.446 3.676 5.102 5.602 3.606 4.147 7.34 8.156 11.117 12.148 4.26 4.519 8.493 9.051 12.625 13.688 2.968 3.33 6.035 6.503 9.22 9.625 1.76 1.791 3.404 3.64 5.042 5.542 3.547 4.08 7.213 8.029 10.926 11.957l3.925 4.18a3718.51 3718.51 0 0 0 5.728 6.083 1814.11 1814.11 0 0 1 5.034 5.362l1.532 1.615c2.203 2.362 3.557 3.966 4.593 7.073h2c1.456 1.462 1.456 1.462 3.145 3.488 3.714 4.368 7.597 8.54 11.543 12.7l4.203 4.457c1.998 2.118 3.997 4.236 5.998 6.353 1.687 1.788 3.369 3.581 5.048 5.377l1.52 1.602c2.188 2.349 3.514 3.935 4.543 7.023l3 1c1.547 1.553 1.547 1.553 3.195 3.54 3.752 4.42 7.687 8.631 11.68 12.835 4.955 5.239 9.854 10.512 14.648 15.898 4.142 4.56 8.39 9.022 12.631 13.489 3.87 4.088 7.626 8.25 11.314 12.501 1.765 2 3.613 3.884 5.532 5.737 2.48 2.447 4.854 4.921 7.125 7.563 5.746 6.669 11.85 13.02 17.875 19.437a60229.326 60229.326 0 0 1 9.527 10.152 2518.17 2518.17 0 0 1 15.995 17.245 2071.43 2071.43 0 0 0 4.677 5.052l1.6 1.728a1637.42 1637.42 0 0 0 3.11 3.34 117.726 117.726 0 0 1 7.466 8.858L763 1165c5.15-.23 9.469-2.343 14.07-4.473l2.368-1.074c2.565-1.166 5.126-2.34 7.687-3.515 2.712-1.235 5.424-2.466 8.137-3.698 1.852-.84 3.704-1.683 5.555-2.525 8.932-4.065 17.898-8.053 26.87-12.027l8.954-3.973 2.17-.963c6.717-2.983 13.423-5.99 20.126-9.002a8348.61 8348.61 0 0 1 33.97-15.148 9126.765 9126.765 0 0 0 49.145-21.975 6539.138 6539.138 0 0 1 37.15-16.604 6666.656 6666.656 0 0 0 36.36-16.273 6508.625 6508.625 0 0 1 36.222-16.213c8.749-3.88 17.487-7.787 26.222-11.698 4.847-2.17 9.695-4.338 14.543-6.506a11868.4 11868.4 0 0 0 12.633-5.656c4.218-1.89 8.438-3.778 12.659-5.662 1.599-.715 3.198-1.432 4.796-2.15 2.208-.99 4.418-1.977 6.629-2.963l1.989-.897c4.517-2.005 4.517-2.005 6.745-2.005-3.346-6.389-6.744-12.692-10.563-18.813-5.744-9.21-11.139-18.625-16.59-28.01-2.943-5.063-5.895-10.12-8.847-15.177a115083.012 115083.012 0 0 1-10.395-17.824 9138.524 9138.524 0 0 0-19.043-32.551l-1.083-1.846a3497.682 3497.682 0 0 1-15.229-26.216 2330.332 2330.332 0 0 0-15.198-26.03 5347.919 5347.919 0 0 1-13.49-22.908l-1.098-1.874a12484.46 12484.46 0 0 1-16.144-27.635c-3.578-6.14-7.17-12.27-10.772-18.396-2.9-4.934-5.793-9.873-8.679-14.816a1825.633 1825.633 0 0 0-5.982-10.158 4105.68 4105.68 0 0 1-2.512-4.308l-1.128-1.874c-1.446-2.514-2.311-4.032-1.958-6.966L980 723c5.442 2.385 9.569 5.704 14.063 9.5l2.258 1.883a2270.051 2270.051 0 0 1 15.212 12.849c3.952 3.354 7.974 6.609 12.033 9.83 8.146 6.485 16.14 13.163 24.174 19.784a3745.69 3745.69 0 0 0 11.76 9.654c4.677 3.821 9.34 7.66 14 11.5a5375.514 5375.514 0 0 0 29.587 24.195A5014.767 5014.767 0 0 1 1120 836l5.5 4.5 11 9 2.77 2.266 5.304 4.343c4.67 3.826 9.348 7.64 14.036 11.444a3767.224 3767.224 0 0 1 23.48 19.224c4.958 4.089 9.933 8.158 14.91 12.223a6522.17 6522.17 0 0 1 21.728 17.835A5535.885 5535.885 0 0 0 1236 931l2.55 2.09c4.678 3.832 9.364 7.653 14.06 11.463a4126.247 4126.247 0 0 1 25.529 20.913c7.62 6.28 15.283 12.505 22.948 18.729A5014.767 5014.767 0 0 1 1318 998l5.5 4.5 231 189 2.742 2.242c1.861 1.524 3.72 3.05 5.578 4.578 5.66 4.65 11.37 9.219 17.18 13.68 2.285-2.89 4.04-5.807 5.715-9.086l1.56-3.034 1.662-3.255c4.224-8.197 8.5-16.355 12.938-24.438 8.614-15.698 17.048-31.493 25.438-47.312l1.092-2.06 4.38-8.26a2102.03 2102.03 0 0 1 14.548-26.97c5.05-9.226 9.944-18.532 14.853-27.832 4.996-9.463 10.042-18.892 15.197-28.269 4.628-8.447 9.12-16.966 13.617-25.484 5.415-10.26 10.87-20.492 16.455-30.66 4.402-8.033 8.694-16.122 12.983-24.215a3381.763 3381.763 0 0 1 16.751-31.254 4075.26 4075.26 0 0 0 12.248-22.746 14066.846 14066.846 0 0 1 19.82-36.89c1.772-3.288 3.54-6.578 5.31-9.868l3.558-6.617 1.764-3.28a2549.13 2549.13 0 0 1 9.696-17.84c5.326-9.708 10.484-19.492 15.569-29.33 3.915-7.556 7.946-15.04 12.045-22.5 4.512-8.225 8.91-16.51 13.301-24.8 4.76-8.988 9.54-17.96 14.438-26.875 5.12-9.323 10.097-18.719 15.062-28.125 6.06-11.48 12.174-22.928 18.422-34.309l1.248-2.276a965.57 965.57 0 0 1 2.988-5.38l1.67-3.008 1.544-2.762c1.277-2.142 1.277-2.142 1.128-4.265l-1.883-.94a176329.38 176329.38 0 0 1-45.635-22.793c-7.356-3.676-14.713-7.35-22.07-11.023-6.422-3.206-12.844-6.414-19.264-9.623-3.391-1.695-6.783-3.39-10.175-5.082-12.372-6.173-24.732-12.357-36.943-18.845-9.525-5.045-19.183-9.826-28.83-14.631-3.544-1.766-7.088-3.535-10.63-5.304A49509.42 49509.42 0 0 0 1689 539.5c-8.131-4.055-16.262-8.11-24.391-12.169-4.057-2.025-8.114-4.047-12.172-6.069-9.34-4.66-18.663-9.34-27.882-14.235-11.191-5.941-22.535-11.573-33.876-17.222-3.085-1.537-6.17-3.078-9.254-4.618-7.807-3.898-15.616-7.793-23.425-11.687a51841.83 51841.83 0 0 1-25.315-12.63 8647.918 8647.918 0 0 0-9.145-4.562c-11.515-5.737-23.001-11.507-34.364-17.54-9.575-5.067-19.28-9.875-28.976-14.705-3.544-1.766-7.088-3.535-10.63-5.304A49509.42 49509.42 0 0 0 1427 407.5c-8.131-4.055-16.262-8.11-24.391-12.169-4.057-2.025-8.114-4.047-12.172-6.069-10.14-5.058-20.237-10.174-30.246-15.487-9.458-5.004-19.043-9.757-28.62-14.527a12316.36 12316.36 0 0 1-10.43-5.203A45631.9 45631.9 0 0 0 1299 343c-8.568-4.272-17.136-8.546-25.702-12.823-3.388-1.69-6.777-3.38-10.166-5.067-9.221-4.6-18.422-9.222-27.523-14.055-11.341-6.022-22.84-11.726-34.334-17.452-3.141-1.565-6.281-3.134-9.422-4.702-7.95-3.97-15.901-7.935-23.853-11.901-8.593-4.286-17.186-8.572-25.777-12.862-3.104-1.55-6.207-3.098-9.312-4.645-11.636-5.798-23.246-11.624-34.728-17.722-9.699-5.133-19.531-10-29.353-14.894-3.612-1.799-7.222-3.601-10.833-5.404-7.664-3.827-15.33-7.65-22.997-11.473a49935.69 49935.69 0 0 1-24.853-12.4 14323 14323 0 0 0-12.406-6.185c-10.263-5.12-20.488-10.294-30.62-15.671-10.32-5.462-20.776-10.654-31.219-15.877l-6.764-3.387c-4.68-2.343-9.36-4.684-14.04-7.024-5.409-2.704-10.815-5.412-16.22-8.122-5.233-2.624-10.469-5.244-15.706-7.862-2.217-1.11-4.435-2.22-6.651-3.333a5029.95 5029.95 0 0 0-9.232-4.616l-2.778-1.398-2.526-1.256-2.199-1.1c-1.768-.9-1.768-.9-3.786-.769l-.622 1.7c-10.868 29.671-21.842 59.3-33.003 88.862l-.812 2.151a253775.9 253775.9 0 0 1-4.106 10.876l-.83 2.2-1.668 4.417c-6.495 17.2-12.957 34.413-19.413 51.629l-2.513 6.7a37299.883 37299.883 0 0 0-5.544 14.783 3784.537 3784.537 0 0 0-9.065 24.4l-2.667 7.24a2938.39 2938.39 0 0 0-2.517 6.882l-1.55 4.206-1.357 3.711c-1.219 2.964-2.6 5.555-4.333 8.243-3.452-3.261-6.068-6.383-8.46-10.48l-1.906-3.238-2.009-3.47c-.707-1.208-1.414-2.416-2.123-3.624A2612.712 2612.712 0 0 1 745 327l-1.982-3.422a6696.962 6696.962 0 0 1-9.366-16.238c-5.263-9.149-10.593-18.26-15.918-27.372C714.82 274.98 711.91 269.99 709 265l-3.512-6.02c-2.295-3.934-4.59-7.869-6.883-11.804-6.353-10.9-12.722-21.793-19.105-32.676-6.95-11.85-13.881-23.711-20.798-35.58A686336.376 686336.376 0 0 1 644.75 155l-5.25-9-1.75-3-3.502-6.004c-2.903-4.977-5.806-9.952-8.713-14.926a5599.245 5599.245 0 0 1-18.347-31.632c-4.239-7.365-8.51-14.702-12.917-21.967-3.096-5.128-6.061-10.326-9.021-15.534-6.803-11.966-13.712-23.884-20.896-35.627l-1.612-2.642-1.45-2.355C558.792 7.84 558 5.257 558 0h1367v1267H0V0Z" fill="#fff"/></svg>