<svg width="612" height="379" viewBox="0 0 612 379" fill="none" xmlns="http://www.w3.org/2000/svg"><path d="M0 111.398 180.051 0l189.118 323.831-121.761 54.403L0 111.398Z" fill="#FFE2FC"/><path d="m501.288 377.363 110.71-170.471L277.092 38.16 230.32 163.051l270.968 214.312Z" fill="#FFE2FC"/><path d="M383.453 198.257c-.622 0-1.103-.167-1.445-.501-.342-.334-.514-.812-.514-1.434v-5.666h1.12v5.62c0 .334.081.59.245.769.171.179.411.268.722.268.35 0 .642-.097.875-.291l.349.804a1.608 1.608 0 0 1-.617.326c-.234.07-.478.105-.735.105Zm-3.008-5.327v-.921h3.941v.921h-3.941Zm-3.059 5.251v-6.727c0-.606.175-1.088.524-1.445.358-.365.863-.548 1.516-.548.241 0 .47.031.688.093.225.055.416.144.571.268l-.338.851a1.235 1.235 0 0 0-.396-.21 1.349 1.349 0 0 0-.467-.081c-.326 0-.575.093-.746.28-.171.178-.256.447-.256.804v.828l.023.513v5.374h-1.119Zm-1.05-5.258v-.921h3.941v.921h-3.941Zm-2.372 5.265v-6.178h1.119v6.178h-1.119Zm.559-7.368a.763.763 0 0 1-.547-.209.698.698 0 0 1-.21-.513c0-.21.07-.385.21-.525.147-.14.33-.21.547-.21.218 0 .397.07.537.21a.645.645 0 0 1 .221.501c0 .21-.07.389-.21.537a.738.738 0 0 1-.548.209Zm-9.738 7.366-2.297-6.178h1.061l2.04 5.596h-.501l2.122-5.596h.944l2.075 5.596h-.489l2.086-5.596h1.003l-2.309 6.178h-1.072l-1.947-5.106h.327l-1.971 5.106h-1.072Zm-5.887.091a5.687 5.687 0 0 1-1.783-.28c-.568-.195-1.015-.443-1.342-.746l.432-.91c.311.273.707.498 1.189.677a4.31 4.31 0 0 0 1.504.268c.474 0 .859-.055 1.154-.164.295-.108.513-.256.653-.443.14-.194.21-.411.21-.652a.879.879 0 0 0-.28-.677 1.92 1.92 0 0 0-.711-.408 7.013 7.013 0 0 0-.956-.279 19.866 19.866 0 0 1-1.061-.268 5.24 5.24 0 0 1-.968-.408 2.027 2.027 0 0 1-.699-.653c-.178-.28-.268-.638-.268-1.073 0-.42.108-.804.326-1.154.225-.358.567-.641 1.026-.851.466-.218 1.058-.326 1.773-.326.474 0 .943.062 1.41.186.466.125.87.303 1.212.536l-.385.933a3.63 3.63 0 0 0-1.106-.501 4.183 4.183 0 0 0-1.131-.163c-.459 0-.836.058-1.131.174-.296.117-.513.272-.653.467a1.135 1.135 0 0 0-.198.653c0 .287.088.516.267.687.187.171.425.307.712.408.295.102.617.195.967.28.35.078.7.167 1.049.268.358.101.681.234.968.397.296.163.532.38.711.652.179.273.268.622.268 1.05 0 .412-.113.796-.338 1.154-.225.349-.575.633-1.049.851-.466.21-1.057.315-1.772.315Zm-8.758 1.636.583-2.355.152.676a.82.82 0 0 1-.571-.21c-.148-.14-.222-.33-.222-.571a.77.77 0 0 1 .222-.571.782.782 0 0 1 .559-.222c.226 0 .408.078.548.233.14.148.21.335.21.56 0 .078-.008.155-.023.233-.008.07-.028.156-.059.257a3.054 3.054 0 0 1-.116.349l-.548 1.621h-.735Zm-4.23-1.727v-6.179h1.073v1.679l-.105-.419c.171-.428.459-.754.863-.98.404-.225.901-.338 1.492-.338v1.084a.943.943 0 0 0-.14-.011h-.117c-.598 0-1.072.179-1.422.536-.35.358-.525.874-.525 1.55v3.078h-1.119Zm-4.385.07c-.661 0-1.244-.136-1.749-.408a2.996 2.996 0 0 1-1.166-1.119c-.272-.474-.407-1.018-.407-1.632 0-.614.132-1.158.396-1.632a2.916 2.916 0 0 1 1.107-1.108 3.152 3.152 0 0 1 1.597-.408c.599 0 1.127.132 1.586.397.459.264.816.637 1.072 1.119.265.474.397 1.03.397 1.667 0 .046-.004.101-.012.163 0 .062-.004.121-.011.175h-5.258v-.804h4.675l-.455.279a2.07 2.07 0 0 0-.245-1.06 1.819 1.819 0 0 0-.711-.723 1.961 1.961 0 0 0-1.038-.268 2 2 0 0 0-1.037.268c-.303.171-.54.416-.711.734a2.192 2.192 0 0 0-.257 1.073v.186c0 .412.094.781.28 1.108.194.318.462.567.804.746.342.179.735.268 1.178.268.365 0 .696-.062.991-.187.303-.124.567-.31.793-.559l.617.722a2.682 2.682 0 0 1-1.048.747 3.591 3.591 0 0 1-1.388.256Zm-5.252.001c-.621 0-1.103-.167-1.445-.501-.342-.334-.513-.812-.513-1.434v-5.666h1.119v5.62c0 .334.082.59.245.769.171.179.412.268.723.268.349 0 .641-.097.874-.291l.35.804a1.605 1.605 0 0 1-.618.326c-.233.07-.478.105-.735.105Zm-3.007-5.327v-.921h3.94v.921h-3.94Zm-1.672 5.327c-.622 0-1.104-.167-1.446-.501-.342-.334-.513-.812-.513-1.434v-5.666h1.119v5.62c0 .334.082.59.245.769.171.179.412.268.723.268.35 0 .641-.097.874-.291l.35.804a1.605 1.605 0 0 1-.618.326 2.54 2.54 0 0 1-.734.105Zm-3.008-5.327v-.921h3.94v.921h-3.94Zm-4.401 5.326c-.528 0-.994-.097-1.398-.291a2.14 2.14 0 0 1-.934-.886c-.217-.404-.326-.909-.326-1.515v-3.556h1.119v3.427c0 .606.144 1.061.431 1.364.296.303.708.455 1.237.455.388 0 .726-.078 1.014-.233.288-.163.508-.397.664-.7.155-.311.233-.684.233-1.119v-3.194h1.119v6.178h-1.061v-1.667l.175.444c-.202.411-.505.73-.909.955a2.743 2.743 0 0 1-1.364.338Zm-5.861-.067v-8.65h1.119v8.65h-1.119Zm-6.185-4.303h4.209v1.003h-4.209v-1.003Zm.117 4.302h-1.166v-8.161h5.759v1.014h-4.593v7.147Zm-7.545 1.725.582-2.355.152.676a.822.822 0 0 1-.571-.21c-.148-.14-.222-.33-.222-.571a.77.77 0 0 1 .222-.571.782.782 0 0 1 .559-.222c.226 0 .409.078.548.233.14.148.21.335.21.56 0 .078-.008.155-.023.233a3.306 3.306 0 0 1-.175.606l-.548 1.621h-.734Zm-2.691-1.727v-1.306l-.058-.244v-2.227c0-.474-.14-.839-.42-1.096-.272-.264-.684-.396-1.235-.396-.366 0-.723.062-1.073.186-.35.117-.645.276-.886.478l-.466-.839a3.313 3.313 0 0 1 1.142-.583 4.73 4.73 0 0 1 1.411-.21c.847 0 1.5.206 1.958.618.459.412.688 1.042.688 1.889v3.73h-1.061Zm-2.028.07c-.459 0-.863-.077-1.213-.233a1.863 1.863 0 0 1-.792-.641 1.662 1.662 0 0 1-.28-.944c0-.335.078-.638.233-.91.163-.272.424-.489.781-.653.365-.163.855-.244 1.469-.244h1.959v.804h-1.912c-.56 0-.937.093-1.131.28a.904.904 0 0 0-.292.676c0 .303.121.548.362.734.241.179.575.268 1.002.268.42 0 .785-.093 1.096-.279.319-.187.548-.459.688-.816l.222.769a1.768 1.768 0 0 1-.781.874c-.374.21-.844.315-1.411.315Zm-6.498-.07-2.705-6.178h1.166l2.401 5.596h-.559l2.448-5.596h1.096l-2.705 6.178h-1.142Zm-4.642 0v-1.306l-.058-.244v-2.227c0-.474-.14-.839-.419-1.096-.273-.264-.684-.396-1.236-.396-.366 0-.723.062-1.073.186-.35.117-.645.276-.886.478l-.466-.839a3.31 3.31 0 0 1 1.143-.583c.45-.14.92-.21 1.41-.21.847 0 1.5.206 1.958.618.459.412.688 1.042.688 1.889v3.73h-1.061Zm-2.028.07c-.459 0-.863-.077-1.213-.233a1.87 1.87 0 0 1-.792-.641 1.662 1.662 0 0 1-.28-.944c0-.335.078-.638.233-.91.163-.272.424-.489.781-.653.366-.163.855-.244 1.469-.244h1.959v.804h-1.912c-.56 0-.937.093-1.131.28a.904.904 0 0 0-.292.676c0 .303.121.548.362.734.241.179.575.268 1.002.268.42 0 .785-.093 1.096-.279.319-.187.548-.459.688-.816l.222.769a1.768 1.768 0 0 1-.781.874c-.373.21-.844.315-1.411.315Zm-6.567.025c-.482 0-.933-.101-1.352-.303a2.603 2.603 0 0 1-1.026-.874l.676-.793c.225.311.478.552.758.723.287.163.602.244.944.244.933 0 1.399-.551 1.399-1.655v-4.582h-2.949v-1.014h4.103v5.538c0 .909-.217 1.589-.653 2.04-.427.451-1.061.676-1.9.676Zm-8.909-.093 1.003-8.161h.827l-1.002 8.161h-.828Zm-4.383-2.099v-.851h7.193v.851h-7.193Zm1.352 2.099 1.014-8.161h.828l-1.014 8.161h-.828Zm-.979-5.211v-.851h7.193v.851h-7.193Zm-9.453 7.474h-1.061a9.816 9.816 0 0 0 1.038-2.576c.217-.902.326-1.862.326-2.88a12.13 12.13 0 0 0-.326-2.868 9.77 9.77 0 0 0-1.038-2.588h1.061c.459.692.804 1.508 1.038 2.448.241.933.361 1.935.361 3.008 0 1.072-.12 2.075-.361 3.008-.234.925-.579 1.74-1.038 2.448Zm-3.941 0h-1.061a9.779 9.779 0 0 0 1.037-2.576c.218-.902.327-1.862.327-2.88 0-1.018-.109-1.974-.327-2.868a9.733 9.733 0 0 0-1.037-2.588h1.061c.458.692.804 1.508 1.037 2.448.241.933.362 1.935.362 3.008 0 1.072-.121 2.075-.362 3.008-.233.925-.579 1.74-1.037 2.448Zm-7.699-2.268v-.792l3.322-3.206c.296-.28.513-.525.653-.735.148-.217.245-.415.291-.594a1.9 1.9 0 0 0 .082-.536c0-.42-.148-.751-.443-.991-.295-.241-.727-.362-1.294-.362a2.99 2.99 0 0 0-1.177.222c-.35.14-.653.361-.91.664l-.792-.688c.31-.396.726-.699 1.247-.909a4.508 4.508 0 0 1 1.737-.326c.567 0 1.061.093 1.481.279.419.179.742.439.967.781.233.342.35.746.35 1.213 0 .264-.035.525-.105.781-.07.256-.202.528-.396.816a6.53 6.53 0 0 1-.84.968l-2.961 2.856-.28-.455h4.932v1.014h-5.864Zm-1.991.074c-.622 0-1.104-.167-1.446-.501-.342-.334-.513-.812-.513-1.434v-5.666h1.119v5.62c0 .334.082.59.245.769.171.179.412.268.723.268.35 0 .641-.097.874-.291l.35.804a1.605 1.605 0 0 1-.618.326 2.54 2.54 0 0 1-.734.105Zm-3.008-5.327v-.921h3.941v.921h-3.941Zm-3.181 5.326a5.08 5.08 0 0 1-1.469-.21c-.459-.14-.82-.311-1.084-.513l.466-.886c.264.179.591.331.979.455.389.124.785.186 1.19.186.52 0 .893-.073 1.119-.221a.695.695 0 0 0 .349-.618.54.54 0 0 0-.209-.454 1.429 1.429 0 0 0-.56-.245 7.74 7.74 0 0 0-.758-.14 16.756 16.756 0 0 1-.839-.163 3.804 3.804 0 0 1-.77-.28 1.521 1.521 0 0 1-.559-.501c-.14-.218-.21-.506-.21-.863 0-.373.105-.7.315-.979.21-.28.505-.494.886-.641.388-.156.847-.234 1.375-.234.404 0 .813.051 1.225.152.419.093.761.229 1.025.408l-.478.886a2.625 2.625 0 0 0-.874-.385 4.027 4.027 0 0 0-.909-.105c-.49 0-.855.082-1.096.245-.241.155-.362.358-.362.606 0 .21.07.373.21.49.148.109.335.194.56.256.233.063.49.117.769.164.28.038.56.093.84.163.28.062.532.151.758.268.233.116.419.28.559.489.148.21.221.49.221.84 0 .373-.108.696-.326.967-.217.272-.524.486-.921.642-.396.147-.87.221-1.422.221Zm-5.035-.068v-6.178h1.119v6.178h-1.119Zm.56-7.368a.765.765 0 0 1-.548-.209.698.698 0 0 1-.21-.513c0-.21.07-.385.21-.525.148-.14.33-.21.548-.21.218 0 .396.07.536.21a.642.642 0 0 1 .222.501c0 .21-.07.389-.21.537a.741.741 0 0 1-.548.209Zm-3.817 7.369v-8.65h1.12v8.65h-1.12Zm-6.886.721v-.722h5.829v.722h-5.829Zm-5.036 1.608c-.295 0-.583-.05-.863-.151a1.98 1.98 0 0 1-.722-.42l.477-.839c.156.147.327.26.514.338.186.077.384.116.594.116.272 0 .497-.07.676-.21.179-.14.346-.388.502-.746l.384-.851.117-.14 2.425-5.607h1.095l-2.996 6.797c-.178.435-.38.777-.606 1.025a1.83 1.83 0 0 1-.723.525 2.268 2.268 0 0 1-.874.163Zm1.469-2.133-2.821-6.377h1.166l2.401 5.502-.746.875Zm-6.212-6.436c.498 0 .937.097 1.317.292.381.194.677.489.887.886.217.396.326.897.326 1.504v3.555h-1.119v-3.427c0-.599-.14-1.05-.42-1.353-.28-.303-.672-.454-1.177-.454-.373 0-.7.077-.98.233a1.605 1.605 0 0 0-.653.688c-.147.303-.221.68-.221 1.131v3.182h-1.119v-3.427c0-.599-.14-1.05-.42-1.353-.272-.303-.664-.454-1.177-.454-.366 0-.688.077-.968.233-.28.155-.497.385-.653.688-.155.303-.233.68-.233 1.131v3.182h-1.119v-6.179h1.073v1.644l-.175-.419a2.11 2.11 0 0 1 .897-.945c.404-.225.875-.338 1.411-.338.591 0 1.1.148 1.527.443.427.288.707.727.839 1.317l-.454-.186c.186-.474.513-.855.979-1.142.466-.288 1.01-.432 1.632-.432Zm-10.224 8.502c-.444-.708-.786-1.523-1.026-2.448a11.997 11.997 0 0 1-.362-3.008c0-1.073.121-2.075.362-3.008.24-.94.582-1.756 1.026-2.448h1.06a9.974 9.974 0 0 0-1.025 2.588c-.218.894-.327 1.85-.327 2.868 0 1.018.109 1.978.327 2.88.217.893.559 1.752 1.025 2.576h-1.06Zm-6.069-8.502c.505 0 .948.097 1.329.292.389.194.692.489.909.886.218.396.327.897.327 1.504v3.555h-1.119v-3.427c0-.599-.148-1.05-.444-1.353-.287-.303-.695-.454-1.224-.454-.396 0-.742.077-1.037.233a1.625 1.625 0 0 0-.688.688c-.155.303-.233.68-.233 1.131v3.182h-1.119v-6.179h1.072v1.668l-.175-.443a2.15 2.15 0 0 1 .933-.945c.42-.225.909-.338 1.469-.338Zm-6.554 6.239v-6.178h1.119v6.178h-1.119Zm.559-7.368a.765.765 0 0 1-.548-.209.698.698 0 0 1-.21-.513c0-.21.07-.385.21-.525.148-.14.33-.21.548-.21.218 0 .396.07.536.21a.642.642 0 0 1 .222.501c0 .21-.07.389-.21.537a.74.74 0 0 1-.548.209Zm-5.31 7.436c-.621 0-1.173-.136-1.655-.408a3.03 3.03 0 0 1-1.142-1.119 3.189 3.189 0 0 1-.42-1.632c0-.614.14-1.158.42-1.632.279-.474.66-.844 1.142-1.108.482-.272 1.034-.408 1.655-.408.614 0 1.162.136 1.644.408.49.264.871.634 1.143 1.108.279.466.419 1.01.419 1.632 0 .614-.14 1.158-.419 1.632a2.929 2.929 0 0 1-1.143 1.119c-.482.272-1.03.408-1.644.408Zm0-.979c.397 0 .75-.089 1.061-.268a1.89 1.89 0 0 0 .746-.758c.179-.334.268-.719.268-1.154 0-.443-.089-.824-.268-1.142a1.877 1.877 0 0 0-.746-.758 2.086 2.086 0 0 0-1.061-.268c-.396 0-.75.089-1.06.268-.311.178-.56.431-.747.758-.186.318-.279.699-.279 1.142 0 .435.093.82.279 1.154.187.326.436.579.747.758.31.179.664.268 1.06.268Zm-6.755 3.243c-.257 0-.502-.031-.735-.093a1.707 1.707 0 0 1-.606-.28l.362-.863c.233.195.536.292.909.292.295 0 .521-.094.676-.28.163-.179.245-.447.245-.804v-6.482h1.119v6.458c0 .63-.171 1.127-.513 1.492-.334.373-.82.56-1.457.56Zm1.41-9.7a.767.767 0 0 1-.548-.209.7.7 0 0 1-.209-.513c0-.21.07-.385.209-.525a.768.768 0 0 1 .548-.21c.218 0 .397.07.537.21a.645.645 0 0 1 .221.501c0 .21-.07.389-.21.537a.74.74 0 0 1-.548.209Zm-3.107 7.437a.785.785 0 0 1-.559-.221.79.79 0 0 1-.233-.583.75.75 0 0 1 .233-.571.782.782 0 0 1 .559-.222c.21 0 .389.074.537.222a.753.753 0 0 1 .233.571.794.794 0 0 1-.233.583.734.734 0 0 1-.537.221Zm-4.441-5.082-.07-3.148h.979l-.081 3.148h-.828Zm2.11 0-.07-3.148h.979l-.081 3.148h-.828Zm-8.067 6.738.583-2.355.151.676a.822.822 0 0 1-.571-.21c-.148-.14-.221-.33-.221-.571a.77.77 0 0 1 .221-.571.782.782 0 0 1 .559-.222c.226 0 .408.078.549.233a.787.787 0 0 1 .209.56c0 .078-.008.155-.023.233a1.47 1.47 0 0 1-.058.257 3.09 3.09 0 0 1-.117.349l-.548 1.621h-.734Zm-3.731-6.738-.07-3.148h.98l-.082 3.148h-.828Zm2.11 0-.07-3.148h.98l-.082 3.148h-.828Zm-4.351 7.276c-.443-.708-.785-1.523-1.026-2.448a11.998 11.998 0 0 1-.361-3.008c0-1.073.12-2.075.361-3.008.241-.94.583-1.756 1.026-2.448h1.061a10.012 10.012 0 0 0-1.026 2.588c-.218.894-.326 1.85-.326 2.868 0 1.018.108 1.978.326 2.88.218.893.56 1.752 1.026 2.576h-1.061Zm-4.137-2.194c-.622 0-1.104-.167-1.446-.501-.342-.334-.513-.812-.513-1.434v-5.666h1.119v5.62c0 .334.082.59.245.769.171.179.412.268.723.268.35 0 .641-.097.874-.291l.35.804a1.605 1.605 0 0 1-.618.326 2.54 2.54 0 0 1-.734.105Zm-3.008-5.327v-.921h3.94v.921h-3.94Zm-3.752-.981c.506 0 .948.097 1.329.292.389.194.692.489.91.886.217.396.326.897.326 1.504v3.555h-1.119v-3.427c0-.599-.148-1.05-.443-1.353-.288-.303-.696-.454-1.224-.454-.396 0-.742.077-1.038.233a1.636 1.636 0 0 0-.688.688c-.155.303-.233.68-.233 1.131v3.182h-1.119v-6.179h1.073v1.668l-.175-.443c.202-.404.513-.719.932-.945.42-.225.91-.338 1.469-.338Zm-6.546 6.239v-6.178h1.119v6.178h-1.119Zm.56-7.368a.765.765 0 0 1-.548-.209.698.698 0 0 1-.21-.513c0-.21.07-.385.21-.525.148-.14.33-.21.548-.21.217 0 .396.07.536.21a.642.642 0 0 1 .222.501c0 .21-.07.389-.21.537a.741.741 0 0 1-.548.209Zm-5.266 7.366v-6.179h1.072v1.679l-.104-.419a1.9 1.9 0 0 1 .862-.98c.404-.225.902-.338 1.493-.338v1.084a.954.954 0 0 0-.14-.011h-.117c-.598 0-1.072.179-1.422.536-.35.358-.525.874-.525 1.55v3.078h-1.119Zm-4.669.07c-.513 0-.984-.116-1.411-.35a2.667 2.667 0 0 1-1.014-1.06c-.249-.467-.373-1.05-.373-1.749 0-.7.12-1.283.361-1.749.249-.466.583-.816 1.003-1.049.427-.233.905-.35 1.434-.35.606 0 1.142.132 1.608.397.467.264.836.633 1.108 1.107.272.467.408 1.014.408 1.644 0 .63-.136 1.181-.408 1.655a2.918 2.918 0 0 1-1.108 1.108c-.466.264-1.002.396-1.608.396Zm-3.276 2.192v-8.441h1.072v1.668l-.07 1.433.117 1.434v3.906h-1.119Zm3.182-3.171c.397 0 .75-.089 1.061-.268a1.89 1.89 0 0 0 .746-.758c.187-.334.28-.719.28-1.154 0-.443-.093-.824-.28-1.142a1.877 1.877 0 0 0-.746-.758 2.086 2.086 0 0 0-1.061-.268c-.388 0-.742.089-1.06.268-.311.178-.56.431-.747.758-.178.318-.268.699-.268 1.142 0 .435.09.82.268 1.154.187.326.436.579.747.758.318.179.672.268 1.06.268Zm306.674-17.46v-5.106h.979v5.106h-.979Zm-2.122-2.087v-.921h5.223v.921h-5.223Zm-4.663 2.087v-5.106h.979v5.106h-.979Zm-2.122-2.087v-.921h5.223v.921h-5.223Zm-4.335 3.711a4.788 4.788 0 0 1-1.725-.303 4.227 4.227 0 0 1-1.364-.875 4.21 4.21 0 0 1-.898-1.329 4.163 4.163 0 0 1-.326-1.667c0-.606.108-1.162.326-1.667.218-.505.521-.944.909-1.317a3.983 3.983 0 0 1 1.364-.874 4.635 4.635 0 0 1 1.726-.315c.629 0 1.208.108 1.737.326.536.21.991.525 1.364.944l-.758.735a2.966 2.966 0 0 0-1.049-.723 3.197 3.197 0 0 0-1.248-.245c-.458 0-.886.078-1.282.233a3.01 3.01 0 0 0-1.691 1.656 3.276 3.276 0 0 0-.233 1.247c0 .451.078.871.233 1.259a3.043 3.043 0 0 0 1.691 1.644c.396.155.824.233 1.282.233a3.34 3.34 0 0 0 1.248-.233 3.035 3.035 0 0 0 1.049-.746l.758.735a3.617 3.617 0 0 1-1.364.955 4.548 4.548 0 0 1-1.749.327Zm-10.025 1.636.583-2.355.152.676a.82.82 0 0 1-.571-.21c-.148-.14-.222-.33-.222-.571a.77.77 0 0 1 .222-.571.782.782 0 0 1 .559-.222c.225 0 .408.078.548.234a.78.78 0 0 1 .21.559c0 .078-.008.156-.024.233-.007.07-.027.156-.058.257a3.054 3.054 0 0 1-.116.349l-.548 1.621h-.735Zm-2.378-1.664c-.622 0-1.104-.167-1.446-.501-.342-.334-.513-.812-.513-1.434v-5.666h1.119v5.62c0 .334.082.59.245.769.171.179.412.268.723.268.35 0 .641-.097.874-.291l.35.804a1.62 1.62 0 0 1-.618.327 2.573 2.573 0 0 1-.734.104Zm-3.008-5.327v-.921h3.94v.921h-3.94Zm-3.783 5.331c-.513 0-.983-.117-1.41-.35a2.679 2.679 0 0 1-1.015-1.061c-.248-.466-.373-1.049-.373-1.749 0-.699.121-1.282.362-1.749a2.51 2.51 0 0 1 1.002-1.049 2.95 2.95 0 0 1 1.434-.35c.606 0 1.143.133 1.609.397.466.264.835.633 1.107 1.107.273.467.408 1.014.408 1.644 0 .63-.135 1.181-.408 1.656a2.913 2.913 0 0 1-1.107 1.107c-.466.264-1.003.397-1.609.397Zm-3.276 2.191v-8.44h1.073v1.667l-.07 1.434.116 1.434v3.905h-1.119Zm3.183-3.171c.396 0 .75-.089 1.061-.268.318-.179.567-.431.746-.758.187-.334.28-.719.28-1.154 0-.443-.093-.824-.28-1.142a1.896 1.896 0 0 0-.746-.758 2.089 2.089 0 0 0-1.061-.268c-.389 0-.742.089-1.061.268a1.997 1.997 0 0 0-.746.758c-.179.318-.268.699-.268 1.142 0 .435.089.82.268 1.154.187.327.435.579.746.758.319.179.672.268 1.061.268Zm-6.438.908v-6.179h1.119v6.179h-1.119Zm.56-7.368c-.218 0-.4-.07-.548-.21a.698.698 0 0 1-.21-.513c0-.21.07-.385.21-.525a.765.765 0 0 1 .548-.209c.217 0 .396.069.536.209a.644.644 0 0 1 .222.502c0 .209-.07.388-.21.536a.742.742 0 0 1-.548.21Zm-5.266 7.37v-6.179h1.073v1.679l-.105-.42c.171-.428.459-.754.863-.979.404-.226.901-.339 1.492-.339v1.085a.827.827 0 0 0-.14-.012h-.116c-.599 0-1.073.179-1.423.536-.349.358-.525.875-.525 1.551v3.078h-1.119Zm-3.966.07c-.629 0-1.193-.137-1.69-.409a3.005 3.005 0 0 1-1.154-1.119c-.28-.474-.42-1.018-.42-1.632 0-.614.14-1.158.42-1.632a2.93 2.93 0 0 1 1.154-1.108c.497-.272 1.061-.408 1.69-.408.56 0 1.057.113 1.492.339.443.217.785.544 1.026.979l-.851.548a1.847 1.847 0 0 0-.746-.665 2.016 2.016 0 0 0-.932-.221c-.405 0-.766.089-1.085.268a1.97 1.97 0 0 0-.757.758c-.187.318-.28.699-.28 1.142 0 .443.093.828.28 1.154.186.327.439.579.757.758.319.179.68.268 1.085.268.334 0 .645-.07.932-.21a1.93 1.93 0 0 0 .746-.676l.851.536a2.47 2.47 0 0 1-1.026.991c-.435.226-.932.339-1.492.339Zm-7.39.024a5.687 5.687 0 0 1-1.783-.28c-.568-.194-1.015-.443-1.341-.746l.431-.909c.311.272.708.497 1.189.676a4.31 4.31 0 0 0 1.504.268c.474 0 .859-.055 1.154-.163.296-.109.513-.257.653-.443.14-.195.21-.412.21-.653a.872.872 0 0 0-.28-.676 1.899 1.899 0 0 0-.711-.408 6.968 6.968 0 0 0-.956-.28 19.866 19.866 0 0 1-1.061-.268 5.201 5.201 0 0 1-.967-.408 2.012 2.012 0 0 1-.7-.653c-.179-.28-.268-.637-.268-1.073 0-.419.109-.804.326-1.154.226-.357.568-.641 1.026-.851.467-.218 1.057-.326 1.772-.326.474 0 .945.062 1.411.186.466.125.87.303 1.212.537l-.384.932a3.64 3.64 0 0 0-1.108-.501 4.172 4.172 0 0 0-1.131-.163c-.458 0-.835.058-1.13.174-.296.117-.513.273-.653.467a1.135 1.135 0 0 0-.198.653c0 .287.089.517.268.687.186.172.423.307.711.408.295.102.618.195.968.28a17 17 0 0 1 1.049.269c.357.1.68.233.967.396.296.163.533.381.711.653.179.272.269.621.269 1.049 0 .412-.113.796-.339 1.154-.225.35-.575.634-1.049.851-.466.21-1.057.315-1.772.315Zm-5.674-.094v-1.306l-.058-.245v-2.227c0-.474-.14-.839-.42-1.095-.272-.265-.684-.397-1.236-.397-.365 0-.723.062-1.072.187-.35.116-.645.275-.886.478l-.467-.84c.319-.256.7-.451 1.143-.583.451-.14.921-.21 1.41-.21.848 0 1.501.206 1.959.618.458.412.688 1.042.688 1.889v3.731h-1.061Zm-2.029.07c-.458 0-.862-.078-1.212-.234a1.873 1.873 0 0 1-.793-.641 1.667 1.667 0 0 1-.279-.944 1.8 1.8 0 0 1 .233-.91c.163-.272.423-.489.781-.652.365-.163.855-.245 1.469-.245h1.958v.804h-1.912c-.559 0-.936.093-1.13.28a.9.9 0 0 0-.292.676c0 .303.12.548.362.735.24.178.575.268 1.002.268.42 0 .785-.094 1.096-.28.319-.187.548-.459.688-.816l.221.769c-.147.366-.408.657-.781.875-.373.21-.843.315-1.411.315Zm-6.506-.074-2.704-6.179h1.166l2.401 5.596h-.559l2.448-5.596h1.096l-2.705 6.179h-1.143Zm-4.637.004v-1.306l-.058-.245v-2.227c0-.474-.14-.839-.42-1.095-.272-.265-.684-.397-1.236-.397-.365 0-.722.062-1.072.187-.35.116-.645.275-.886.478l-.466-.84a3.304 3.304 0 0 1 1.142-.583 4.73 4.73 0 0 1 1.411-.21c.847 0 1.5.206 1.958.618.459.412.688 1.042.688 1.889v3.731h-1.061Zm-2.028.07c-.459 0-.863-.078-1.213-.234a1.863 1.863 0 0 1-.792-.641 1.66 1.66 0 0 1-.28-.944 1.8 1.8 0 0 1 .233-.91c.163-.272.423-.489.781-.652.365-.163.855-.245 1.469-.245h1.958v.804h-1.912c-.559 0-.936.093-1.13.28a.9.9 0 0 0-.292.676c0 .303.121.548.361.735.242.178.576.268 1.003.268.42 0 .785-.094 1.096-.28.319-.187.548-.459.688-.816l.221.769c-.147.366-.408.657-.781.875-.373.21-.843.315-1.41.315Zm-6.567.02c-.482 0-.933-.101-1.353-.303a2.599 2.599 0 0 1-1.025-.874l.676-.793c.225.311.477.552.757.723.288.163.603.245.945.245.932 0 1.399-.552 1.399-1.656v-4.581h-2.95v-1.014h4.104v5.537c0 .91-.218 1.59-.653 2.04-.427.451-1.061.676-1.9.676Zm-7.437 1.64.582-2.355.152.676a.822.822 0 0 1-.571-.21c-.148-.14-.222-.33-.222-.571a.77.77 0 0 1 .222-.571.782.782 0 0 1 .559-.222.7.7 0 0 1 .548.234.78.78 0 0 1 .21.559c0 .078-.007.156-.023.233a3.306 3.306 0 0 1-.175.606l-.548 1.621h-.734Zm-4.189-7.968c.505 0 .948.098 1.329.292.389.194.692.489.909.886.218.396.327.898.327 1.504v3.556H347.8v-3.428c0-.598-.148-1.049-.443-1.352-.288-.303-.696-.455-1.225-.455a2.2 2.2 0 0 0-1.037.233 1.636 1.636 0 0 0-.688.688c-.155.303-.233.68-.233 1.131v3.183h-1.119v-6.179h1.072v1.667l-.175-.443c.202-.404.513-.719.933-.944.42-.226.909-.339 1.469-.339Zm-8.055 6.308c-.621 0-1.173-.137-1.655-.409a3.03 3.03 0 0 1-1.142-1.119 3.189 3.189 0 0 1-.42-1.632c0-.614.14-1.158.42-1.632.279-.474.66-.843 1.142-1.108.482-.272 1.034-.408 1.655-.408.614 0 1.162.136 1.644.408.49.265.871.634 1.143 1.108.28.466.419 1.01.419 1.632 0 .614-.139 1.158-.419 1.632a2.929 2.929 0 0 1-1.143 1.119c-.482.272-1.03.409-1.644.409Zm0-.98c.397 0 .75-.089 1.061-.268.319-.179.568-.431.746-.758.179-.334.269-.719.269-1.154 0-.443-.09-.824-.269-1.142a1.884 1.884 0 0 0-.746-.758 2.086 2.086 0 0 0-1.061-.268c-.396 0-.75.089-1.06.268a2 2 0 0 0-.747.758c-.186.318-.279.699-.279 1.142 0 .435.093.82.279 1.154a2 2 0 0 0 .747.758c.31.179.664.268 1.06.268Zm-7.281-5.332c.505 0 .948.097 1.329.291.389.194.692.49.909.886.218.396.327.898.327 1.504v3.556h-1.12v-3.428c0-.598-.147-1.049-.442-1.352-.288-.303-.696-.455-1.225-.455a2.2 2.2 0 0 0-1.037.233 1.636 1.636 0 0 0-.688.688c-.155.303-.233.68-.233 1.131v3.183h-1.119v-8.651h1.119v4.139l-.222-.443c.203-.404.513-.719.933-.944.42-.226.909-.338 1.469-.338Zm-5.999 6.308c-.621 0-1.103-.167-1.445-.501-.342-.334-.513-.812-.513-1.434v-5.666h1.119v5.62c0 .334.082.59.245.769.171.179.412.268.723.268.349 0 .641-.097.874-.291l.35.804a1.62 1.62 0 0 1-.618.327 2.575 2.575 0 0 1-.735.104Zm-3.007-5.327v-.921h3.94v.921h-3.94Zm-5.536 7.588c-.295 0-.583-.05-.863-.151a1.974 1.974 0 0 1-.722-.42l.478-.839c.155.147.326.26.513.338.186.077.384.116.594.116.272 0 .497-.07.676-.21.179-.139.346-.388.502-.746l.384-.851.117-.14 2.425-5.607h1.096l-2.997 6.797c-.178.435-.38.777-.606 1.025a1.823 1.823 0 0 1-.723.525 2.268 2.268 0 0 1-.874.163Zm1.469-2.133-2.821-6.377h1.166l2.401 5.503-.746.874Zm-9.906-.197v-8.16h3.183c.715 0 1.325.112 1.83.338.505.225.894.551 1.166.979.272.427.408.936.408 1.527 0 .591-.136 1.1-.408 1.527-.272.42-.661.746-1.166.98-.505.225-1.115.338-1.83.338h-2.542l.525-.548v3.019h-1.166Zm1.166-2.903-.525-.583h2.507c.746 0 1.309-.159 1.69-.478.389-.318.583-.769.583-1.352 0-.583-.194-1.033-.583-1.352-.381-.319-.944-.478-1.69-.478h-2.507l.525-.583v4.826Zm-8.843 2.976c-.661 0-1.244-.137-1.749-.409a2.99 2.99 0 0 1-1.166-1.119c-.272-.474-.408-1.018-.408-1.632 0-.614.132-1.158.396-1.632a2.918 2.918 0 0 1 1.108-1.108 3.15 3.15 0 0 1 1.597-.408c.598 0 1.127.133 1.585.397a2.75 2.75 0 0 1 1.073 1.119c.264.474.396 1.03.396 1.667 0 .047-.003.101-.011.163 0 .063-.004.121-.012.175h-5.258v-.804h4.675l-.454.28a2.085 2.085 0 0 0-.245-1.061 1.815 1.815 0 0 0-.712-.723 1.96 1.96 0 0 0-1.037-.268c-.389 0-.735.089-1.038.268-.303.171-.54.416-.711.734a2.191 2.191 0 0 0-.256 1.073v.186c0 .412.093.781.28 1.108.194.318.462.567.804.746.342.179.734.268 1.178.268.365 0 .695-.062.99-.186.303-.125.568-.311.793-.56l.618.723a2.7 2.7 0 0 1-1.049.746 3.59 3.59 0 0 1-1.387.257Zm-7.401-.07v-6.179h1.072v1.679l-.104-.42c.17-.428.458-.754.862-.979.404-.226.902-.339 1.492-.339v1.085a.816.816 0 0 0-.139-.012h-.117c-.598 0-1.073.179-1.422.536-.35.358-.525.875-.525 1.551v3.078h-1.119Zm-3.128 0v-1.306l-.058-.245v-2.227c0-.474-.14-.839-.42-1.095-.272-.265-.684-.397-1.236-.397-.365 0-.722.062-1.072.187-.35.116-.645.275-.886.478l-.466-.84a3.304 3.304 0 0 1 1.142-.583 4.73 4.73 0 0 1 1.411-.21c.847 0 1.499.206 1.958.618.459.412.688 1.042.688 1.889v3.731h-1.061Zm-2.028.07c-.459 0-.863-.078-1.213-.234a1.873 1.873 0 0 1-.793-.641 1.667 1.667 0 0 1-.279-.944 1.8 1.8 0 0 1 .233-.91c.163-.272.423-.489.781-.652.365-.163.855-.245 1.469-.245h1.958v.804h-1.912c-.559 0-.936.093-1.131.28a.903.903 0 0 0-.291.676c0 .303.121.548.362.735.24.178.575.268 1.002.268.42 0 .785-.094 1.096-.28.319-.187.548-.459.688-.816l.221.769c-.147.366-.408.657-.781.875-.373.21-.843.315-1.41.315Zm-9.006 0c-.513 0-1.002-.07-1.469-.211-.458-.139-.82-.31-1.084-.512l.466-.886c.265.178.591.33.98.454.388.125.785.187 1.189.187.521 0 .894-.074 1.119-.222a.693.693 0 0 0 .35-.617.543.543 0 0 0-.21-.455 1.429 1.429 0 0 0-.56-.245 7.99 7.99 0 0 0-.758-.14 16.756 16.756 0 0 1-.839-.163 3.715 3.715 0 0 1-.769-.28 1.508 1.508 0 0 1-.56-.501c-.14-.218-.21-.505-.21-.863 0-.373.105-.699.315-.979.21-.28.505-.494.886-.641.389-.156.847-.234 1.376-.234.404 0 .812.051 1.224.152.419.093.761.229 1.026.408l-.478.886a2.66 2.66 0 0 0-.875-.385 4.083 4.083 0 0 0-.909-.104c-.49 0-.855.081-1.096.244-.241.156-.361.358-.361.606 0 .21.07.373.21.49.147.109.334.194.559.256.233.063.49.117.77.164.28.039.559.093.839.163.28.062.532.152.758.268.233.117.42.28.559.49.148.21.222.489.222.839 0 .373-.109.696-.326.968-.218.272-.525.486-.922.641-.396.148-.87.222-1.422.222Zm-6.16 0c-.661 0-1.244-.137-1.749-.409a2.996 2.996 0 0 1-1.166-1.119c-.271-.474-.408-1.018-.408-1.632 0-.614.133-1.158.397-1.632a2.923 2.923 0 0 1 1.107-1.108 3.156 3.156 0 0 1 1.598-.408c.598 0 1.126.133 1.585.397.459.264.816.637 1.072 1.119.265.474.397 1.03.397 1.667 0 .047-.004.101-.012.163 0 .063-.004.121-.011.175h-5.258v-.804h4.675l-.455.28a2.074 2.074 0 0 0-.245-1.061 1.819 1.819 0 0 0-.711-.723 1.96 1.96 0 0 0-1.037-.268c-.389 0-.735.089-1.038.268-.303.171-.54.416-.711.734a2.192 2.192 0 0 0-.257 1.073v.186c0 .412.094.781.28 1.108.194.318.463.567.804.746.342.179.735.268 1.178.268.365 0 .696-.062.991-.186.303-.125.567-.311.793-.56l.617.723a2.693 2.693 0 0 1-1.049.746 3.586 3.586 0 0 1-1.387.257Zm-8.097 2.261a5.66 5.66 0 0 1-1.656-.245c-.528-.155-.96-.381-1.294-.676l.536-.863c.288.249.642.443 1.061.583.42.148.859.222 1.318.222.73 0 1.266-.171 1.608-.513.342-.342.513-.863.513-1.562v-1.306l.117-1.224-.058-1.236v-1.69h1.061v5.339c0 1.088-.273 1.889-.817 2.402-.544.513-1.34.769-2.389.769Zm-.14-2.588c-.599 0-1.135-.124-1.609-.373a2.992 2.992 0 0 1-1.119-1.061c-.272-.451-.408-.972-.408-1.562 0-.598.136-1.119.408-1.562a2.903 2.903 0 0 1 1.119-1.05 3.418 3.418 0 0 1 1.609-.373c.528 0 1.01.109 1.445.327.436.21.781.536 1.038.979.264.443.396 1.003.396 1.679 0 .668-.132 1.224-.396 1.667a2.529 2.529 0 0 1-1.038 1.003 3.193 3.193 0 0 1-1.445.326Zm.128-.979c.412 0 .777-.086 1.096-.257.318-.171.567-.408.746-.711.186-.303.28-.653.28-1.049 0-.397-.094-.746-.28-1.049a1.806 1.806 0 0 0-.746-.7 2.283 2.283 0 0 0-1.096-.256c-.412 0-.781.085-1.108.256a1.878 1.878 0 0 0-.757.7 2.021 2.021 0 0 0-.268 1.049c0 .396.089.746.268 1.049.186.303.439.54.757.711.327.171.696.257 1.108.257Zm-5.822 1.236v-1.306l-.058-.245v-2.227c0-.474-.14-.839-.42-1.095-.272-.265-.684-.397-1.236-.397-.365 0-.722.062-1.072.187-.35.116-.645.275-.886.478l-.466-.84a3.304 3.304 0 0 1 1.142-.583 4.73 4.73 0 0 1 1.411-.21c.847 0 1.499.206 1.958.618.459.412.688 1.042.688 1.889v3.731h-1.061Zm-2.028.07c-.459 0-.863-.078-1.213-.234a1.873 1.873 0 0 1-.793-.641 1.667 1.667 0 0 1-.279-.944 1.8 1.8 0 0 1 .233-.91c.163-.272.423-.489.781-.652.365-.163.855-.245 1.469-.245h1.958v.804h-1.912c-.559 0-.936.093-1.131.28a.903.903 0 0 0-.291.676c0 .303.121.548.361.735.241.178.576.268 1.003.268.42 0 .785-.094 1.096-.28.319-.187.548-.459.688-.816l.221.769c-.147.366-.408.657-.781.875-.373.21-.843.315-1.41.315Zm-7.104-.004c-.529 0-.995-.097-1.399-.292a2.138 2.138 0 0 1-.933-.886c-.217-.404-.326-.909-.326-1.515v-3.556h1.119v3.427c0 .607.144 1.061.431 1.364.296.304.708.455 1.236.455.389 0 .727-.078 1.014-.233.288-.163.509-.397.665-.7.155-.31.233-.683.233-1.119v-3.194h1.119v6.179h-1.061v-1.668l.175.444c-.202.412-.505.73-.909.955a2.746 2.746 0 0 1-1.364.339Zm-7.941 2.265a5.659 5.659 0 0 1-1.655-.245c-.529-.155-.96-.381-1.294-.676l.536-.863c.288.249.641.443 1.061.583.42.148.859.222 1.317.222.731 0 1.267-.171 1.609-.513.342-.342.513-.863.513-1.562v-1.306l.117-1.224-.059-1.236v-1.69h1.061v5.339c0 1.088-.272 1.889-.816 2.402-.544.513-1.341.769-2.39.769Zm-.14-2.588c-.598 0-1.134-.124-1.608-.373a2.995 2.995 0 0 1-1.12-1.061c-.272-.451-.408-.972-.408-1.562 0-.598.136-1.119.408-1.562.28-.451.653-.801 1.12-1.05a3.417 3.417 0 0 1 1.608-.373c.529 0 1.011.109 1.446.327.435.21.781.536 1.038.979.264.443.396 1.003.396 1.679 0 .668-.132 1.224-.396 1.667a2.535 2.535 0 0 1-1.038 1.003 3.194 3.194 0 0 1-1.446.326Zm.129-.979c.412 0 .777-.086 1.095-.257.319-.171.568-.408.747-.711.186-.303.279-.653.279-1.049 0-.397-.093-.746-.279-1.049a1.802 1.802 0 0 0-.747-.7 2.276 2.276 0 0 0-1.095-.256 2.35 2.35 0 0 0-1.108.256 1.88 1.88 0 0 0-.758.7 2.031 2.031 0 0 0-.268 1.049c0 .396.09.746.268 1.049.187.303.439.54.758.711.326.171.696.257 1.108.257Zm-7.333-5.002c.505 0 .948.098 1.329.292.389.194.692.489.909.886.218.396.327.898.327 1.504v3.556h-1.119v-3.428c0-.598-.148-1.049-.443-1.352-.288-.303-.696-.455-1.224-.455-.397 0-.743.078-1.038.233a1.642 1.642 0 0 0-.688.688c-.155.303-.233.68-.233 1.131v3.183h-1.119v-6.179h1.073v1.667l-.175-.443c.202-.404.513-.719.932-.944.42-.226.91-.339 1.469-.339Zm-6.431 6.238v-1.306l-.058-.245v-2.227c0-.474-.14-.839-.42-1.095-.272-.265-.684-.397-1.236-.397-.365 0-.722.062-1.072.187-.35.116-.645.275-.886.478l-.466-.84a3.304 3.304 0 0 1 1.142-.583 4.73 4.73 0 0 1 1.411-.21c.847 0 1.5.206 1.958.618.459.412.688 1.042.688 1.889v3.731h-1.061Zm-2.028.07c-.459 0-.863-.078-1.212-.234a1.866 1.866 0 0 1-.793-.641 1.66 1.66 0 0 1-.28-.944c0-.334.078-.637.233-.91.163-.272.424-.489.781-.652.365-.163.855-.245 1.469-.245h1.958v.804h-1.911c-.56 0-.937.093-1.131.28a.9.9 0 0 0-.292.676c0 .303.121.548.362.735.241.178.575.268 1.002.268.42 0 .785-.094 1.096-.28.319-.187.548-.459.688-.816l.222.769a1.772 1.772 0 0 1-.782.875c-.373.21-.843.315-1.41.315Zm-8.566-.073v-8.16h1.165v7.146h4.419v1.014h-5.584Zm-8.639 2.334a5.659 5.659 0 0 1-1.655-.245c-.529-.155-.96-.381-1.294-.676l.536-.863c.288.249.641.443 1.061.583.42.148.859.222 1.317.222.731 0 1.267-.171 1.609-.513.342-.342.513-.863.513-1.562v-1.306l.117-1.224-.059-1.236v-1.69h1.061v5.339c0 1.088-.272 1.889-.816 2.402-.544.513-1.341.769-2.39.769Zm-.14-2.588c-.598 0-1.134-.124-1.608-.373a2.995 2.995 0 0 1-1.12-1.061c-.272-.451-.407-.972-.407-1.562 0-.598.135-1.119.407-1.562.28-.451.653-.801 1.12-1.05a3.417 3.417 0 0 1 1.608-.373c.529 0 1.011.109 1.446.327.435.21.781.536 1.038.979.264.443.396 1.003.396 1.679 0 .668-.132 1.224-.396 1.667a2.535 2.535 0 0 1-1.038 1.003 3.194 3.194 0 0 1-1.446.326Zm.129-.979c.411 0 .777-.086 1.095-.257.319-.171.568-.408.747-.711.186-.303.279-.653.279-1.049 0-.397-.093-.746-.279-1.049a1.802 1.802 0 0 0-.747-.7 2.279 2.279 0 0 0-1.095-.256c-.412 0-.781.085-1.108.256a1.887 1.887 0 0 0-.758.7 2.031 2.031 0 0 0-.268 1.049c0 .396.09.746.268 1.049.187.303.44.54.758.711.327.171.696.257 1.108.257Zm-7.328-5.002c.505 0 .948.098 1.328.292.389.194.692.489.91.886.217.396.326.898.326 1.504v3.556h-1.119v-3.428c0-.598-.148-1.049-.443-1.352-.287-.303-.696-.455-1.224-.455-.396 0-.742.078-1.038.233a1.642 1.642 0 0 0-.688.688c-.155.303-.233.68-.233 1.131v3.183h-1.119v-6.179h1.073v1.667l-.175-.443c.202-.404.513-.719.933-.944.419-.226.909-.339 1.469-.339Zm-6.551 6.236v-6.179h1.12v6.179h-1.12Zm.56-7.368c-.218 0-.4-.07-.548-.21a.698.698 0 0 1-.21-.513c0-.21.07-.385.21-.525a.765.765 0 0 1 .548-.209c.218 0 .396.069.536.209a.644.644 0 0 1 .222.502c0 .209-.07.388-.21.536a.742.742 0 0 1-.548.21Zm-5.154 1.132c.498 0 .937.098 1.318.292.38.194.676.489.886.886.217.396.326.898.326 1.504v3.556h-1.119v-3.428c0-.598-.14-1.049-.42-1.352-.279-.303-.672-.455-1.177-.455-.373 0-.7.078-.98.233a1.602 1.602 0 0 0-.652.688c-.148.303-.222.68-.222 1.131v3.183h-1.119v-3.428c0-.598-.14-1.049-.42-1.352-.272-.303-.664-.455-1.177-.455-.365 0-.688.078-.968.233a1.602 1.602 0 0 0-.652.688c-.156.303-.234.68-.234 1.131v3.183h-1.119v-6.179h1.073v1.644l-.175-.42a2.1 2.1 0 0 1 .898-.944c.404-.226.874-.339 1.41-.339.591 0 1.1.148 1.527.443.428.288.708.727.84 1.318l-.455-.187c.187-.474.513-.855.979-1.142.467-.288 1.011-.432 1.632-.432Zm-12.32 0c.497 0 .937.098 1.317.292.381.194.677.489.886.886.218.396.327.898.327 1.504v3.556h-1.119v-3.428c0-.598-.14-1.049-.42-1.352-.28-.303-.672-.455-1.177-.455-.373 0-.7.078-.98.233-.28.156-.497.385-.653.688-.147.303-.221.68-.221 1.131v3.183h-1.119v-3.428c0-.598-.14-1.049-.42-1.352-.272-.303-.664-.455-1.177-.455-.366 0-.688.078-.968.233-.28.156-.497.385-.653.688-.155.303-.233.68-.233 1.131v3.183h-1.119v-6.179h1.072v1.644l-.174-.42c.194-.404.493-.719.897-.944.404-.226.875-.339 1.411-.339.59 0 1.1.148 1.527.443.427.288.707.727.839 1.318l-.454-.187c.186-.474.513-.855.979-1.142.466-.288 1.01-.432 1.632-.432Zm-10.857 6.238v-1.306l-.059-.245v-2.227c0-.474-.139-.839-.419-1.095-.272-.265-.684-.397-1.236-.397-.365 0-.723.062-1.072.187-.35.116-.645.275-.887.478l-.466-.84c.319-.256.7-.451 1.143-.583.45-.14.921-.21 1.41-.21.847 0 1.5.206 1.959.618.458.412.688 1.042.688 1.889v3.731h-1.061Zm-2.029.07c-.458 0-.862-.078-1.212-.234a1.873 1.873 0 0 1-.793-.641 1.667 1.667 0 0 1-.28-.944c0-.334.078-.637.233-.91.164-.272.424-.489.782-.652.365-.163.855-.245 1.468-.245h1.959v.804h-1.912c-.559 0-.936.093-1.131.28a.903.903 0 0 0-.291.676c0 .303.12.548.361.735.241.178.575.268 1.003.268.42 0 .785-.094 1.096-.28.318-.187.548-.459.687-.816l.222.769a1.77 1.77 0 0 1-.781.875c-.373.21-.843.315-1.411.315Zm-6.054-.07v-6.179h1.072v1.679l-.105-.42a1.9 1.9 0 0 1 .863-.979c.404-.226.902-.339 1.493-.339v1.085a.836.836 0 0 0-.14-.012h-.117c-.599 0-1.073.179-1.422.536-.35.358-.525.875-.525 1.551v3.078h-1.119Zm-5.342 2.331a5.659 5.659 0 0 1-1.655-.245c-.528-.155-.96-.381-1.294-.676l.536-.863c.288.249.641.443 1.061.583.42.148.859.222 1.317.222.731 0 1.267-.171 1.609-.513.342-.342.513-.863.513-1.562v-1.306l.117-1.224-.059-1.236v-1.69h1.061v5.339c0 1.088-.272 1.889-.816 2.402-.544.513-1.34.769-2.39.769Zm-.139-2.588c-.599 0-1.135-.124-1.609-.373a2.992 2.992 0 0 1-1.119-1.061c-.272-.451-.408-.972-.408-1.562 0-.598.136-1.119.408-1.562a2.903 2.903 0 0 1 1.119-1.05 3.418 3.418 0 0 1 1.609-.373c.528 0 1.01.109 1.445.327.435.21.781.536 1.038.979.264.443.396 1.003.396 1.679 0 .668-.132 1.224-.396 1.667a2.535 2.535 0 0 1-1.038 1.003 3.193 3.193 0 0 1-1.445.326Zm.128-.979c.412 0 .777-.086 1.096-.257.318-.171.567-.408.746-.711.186-.303.28-.653.28-1.049 0-.397-.094-.746-.28-1.049a1.806 1.806 0 0 0-.746-.7 2.283 2.283 0 0 0-1.096-.256c-.412 0-.781.085-1.108.256a1.878 1.878 0 0 0-.757.7 2.022 2.022 0 0 0-.269 1.049c0 .396.09.746.269 1.049.186.303.439.54.757.711.327.171.696.257 1.108.257Zm-7.453 1.306c-.622 0-1.173-.137-1.655-.409a3.04 3.04 0 0 1-1.143-1.119 3.189 3.189 0 0 1-.42-1.632c0-.614.14-1.158.42-1.632a2.96 2.96 0 0 1 1.143-1.108c.482-.272 1.033-.408 1.655-.408.614 0 1.162.136 1.644.408.489.265.87.634 1.142 1.108.28.466.42 1.01.42 1.632 0 .614-.14 1.158-.42 1.632a2.933 2.933 0 0 1-1.142 1.119c-.482.272-1.03.409-1.644.409Zm0-.98c.396 0 .75-.089 1.061-.268a1.89 1.89 0 0 0 .746-.758c.179-.334.268-.719.268-1.154 0-.443-.089-.824-.268-1.142a1.89 1.89 0 0 0-.746-.758 2.089 2.089 0 0 0-1.061-.268c-.396 0-.75.089-1.061.268a1.997 1.997 0 0 0-.746.758c-.186.318-.28.699-.28 1.142 0 .435.094.82.28 1.154.187.327.435.579.746.758.311.179.665.268 1.061.268Zm-7.288.91v-6.179h1.072v1.679l-.104-.42c.171-.428.458-.754.862-.979.404-.226.902-.339 1.493-.339v1.085a.836.836 0 0 0-.14-.012h-.117c-.598 0-1.072.179-1.422.536-.35.358-.525.875-.525 1.551v3.078h-1.119Zm-8.035-.003v-8.16h3.182c.715 0 1.326.112 1.831.338.505.225.894.551 1.166.979.271.427.408.936.408 1.527 0 .591-.137 1.1-.408 1.527-.272.42-.661.746-1.166.98-.505.225-1.116.338-1.831.338h-2.541l.525-.548v3.019h-1.166Zm1.166-2.903-.525-.583h2.506c.746 0 1.31-.159 1.691-.478.388-.318.583-.769.583-1.352 0-.583-.195-1.033-.583-1.352-.381-.319-.945-.478-1.691-.478h-2.506l.525-.583v4.826Zm354.922-11.674h-1.061a9.788 9.788 0 0 0 1.038-2.576c.218-.902.326-1.861.326-2.88 0-1.018-.108-1.974-.326-2.867a9.776 9.776 0 0 0-1.038-2.589h1.061c.459.692.805 1.508 1.038 2.449.241.932.361 1.935.361 3.007 0 1.073-.12 2.076-.361 3.008-.233.925-.579 1.741-1.038 2.448Zm-3.812-2.263v-7.694l.501.548h-2.343v-1.014h2.996v8.16h-1.154Zm-3.362.074c-.622 0-1.104-.168-1.446-.502-.342-.334-.512-.812-.512-1.434v-5.665h1.119v5.619c0 .334.081.59.244.769.171.179.412.268.723.268.35 0 .641-.097.874-.291l.35.804a1.62 1.62 0 0 1-.618.327 2.54 2.54 0 0 1-.734.105Zm-3.008-5.328v-.921h3.941v.921h-3.941Zm-3.189 5.323a5.08 5.08 0 0 1-1.469-.21c-.458-.14-.82-.311-1.084-.513l.466-.886c.264.179.591.33.979.454.389.125.785.187 1.19.187.52 0 .893-.074 1.119-.222a.693.693 0 0 0 .35-.617.543.543 0 0 0-.21-.455 1.443 1.443 0 0 0-.56-.245 7.99 7.99 0 0 0-.758-.14 15.696 15.696 0 0 1-.839-.163 3.715 3.715 0 0 1-.769-.28 1.508 1.508 0 0 1-.56-.501c-.14-.218-.21-.505-.21-.863 0-.373.105-.699.315-.979.21-.28.505-.493.886-.641.388-.156.847-.233 1.376-.233.404 0 .812.05 1.224.151.419.093.761.23 1.025.408l-.477.886a2.636 2.636 0 0 0-.875-.384 4.027 4.027 0 0 0-.909-.105c-.49 0-.855.081-1.096.244-.241.156-.361.358-.361.607 0 .209.07.373.209.489.148.109.335.195.56.257.233.062.49.116.769.163.28.039.56.093.84.163.28.062.532.152.758.268.233.117.419.28.559.49.148.21.222.489.222.839 0 .373-.109.696-.327.968-.217.272-.524.486-.921.641-.396.148-.87.222-1.422.222Zm-5.027-.064v-6.179h1.12v6.179h-1.12Zm.56-7.368c-.217 0-.4-.07-.547-.21a.699.699 0 0 1-.211-.513c0-.21.071-.385.211-.525a.767.767 0 0 1 .547-.209.73.73 0 0 1 .537.209c.147.133.221.3.221.502 0 .209-.07.388-.21.536a.739.739 0 0 1-.548.21Zm-3.816 7.365v-8.651h1.119v8.651h-1.119Zm-6.887.725v-.723h5.829v.723h-5.829Zm-5.032 1.607c-.295 0-.583-.05-.863-.151a1.96 1.96 0 0 1-.722-.42l.478-.839c.155.147.326.26.512.338.187.078.385.116.595.116.272 0 .497-.07.676-.209.179-.14.346-.389.501-.746l.385-.852.117-.139 2.425-5.608h1.096l-2.997 6.797c-.178.435-.38.777-.606 1.026a1.83 1.83 0 0 1-.723.524 2.268 2.268 0 0 1-.874.163Zm1.469-2.133-2.821-6.377h1.166l2.401 5.503-.746.874Zm-6.216-6.439c.498 0 .937.097 1.318.291.38.194.676.49.886.886.217.396.326.898.326 1.504v3.556h-1.119v-3.428c0-.598-.14-1.049-.42-1.352-.28-.303-.672-.455-1.177-.455-.373 0-.7.078-.98.233a1.602 1.602 0 0 0-.652.688c-.148.303-.222.68-.222 1.131v3.183h-1.119v-3.428c0-.598-.14-1.049-.42-1.352-.272-.303-.664-.455-1.177-.455-.365 0-.688.078-.968.233-.28.156-.497.385-.653.688-.155.303-.233.68-.233 1.131v3.183h-1.119v-6.179h1.073v1.644l-.175-.42c.194-.404.493-.719.897-.944.405-.226.875-.338 1.411-.338.591 0 1.1.147 1.527.443.428.287.707.726.84 1.317l-.455-.187c.186-.474.513-.854.979-1.142.466-.288 1.011-.431 1.632-.431Zm-10.221 8.501c-.443-.707-.785-1.523-1.026-2.448a11.986 11.986 0 0 1-.361-3.008c0-1.072.12-2.075.361-3.007.241-.941.583-1.757 1.026-2.449h1.061a10.019 10.019 0 0 0-1.026 2.589 12.116 12.116 0 0 0-.326 2.867c0 1.019.109 1.978.326 2.88.218.894.56 1.753 1.026 2.576h-1.061Zm-6.072-8.501c.505 0 .948.097 1.329.291.389.194.692.49.909.886.218.396.327.898.327 1.504v3.556h-1.119v-3.428c0-.598-.148-1.049-.443-1.352-.288-.303-.696-.455-1.225-.455a2.2 2.2 0 0 0-1.037.233 1.636 1.636 0 0 0-.688.688c-.155.303-.233.68-.233 1.131v3.183h-1.119v-6.179h1.072v1.667l-.175-.443c.203-.404.513-.719.933-.944.42-.226.909-.338 1.469-.338Zm-6.551 6.243v-6.179h1.119v6.179h-1.119Zm.56-7.368c-.218 0-.4-.07-.548-.21a.698.698 0 0 1-.21-.513c0-.21.07-.385.21-.525a.77.77 0 0 1 .548-.209c.218 0 .396.07.536.209.148.133.221.3.221.502 0 .209-.07.388-.21.536a.736.736 0 0 1-.547.21Zm-5.314 7.432c-.622 0-1.174-.137-1.656-.409a3.036 3.036 0 0 1-1.142-1.119 3.186 3.186 0 0 1-.419-1.632c0-.614.139-1.158.419-1.632.28-.474.661-.843 1.142-1.107.482-.273 1.034-.408 1.656-.408.614 0 1.162.135 1.644.408.489.264.87.633 1.142 1.107.28.466.42 1.011.42 1.632 0 .614-.14 1.158-.42 1.632a2.926 2.926 0 0 1-1.142 1.119c-.482.272-1.03.409-1.644.409Zm0-.98c.396 0 .75-.089 1.061-.268.318-.179.567-.431.746-.758.179-.334.268-.718.268-1.154 0-.443-.089-.824-.268-1.142a1.896 1.896 0 0 0-.746-.758 2.089 2.089 0 0 0-1.061-.268c-.397 0-.75.089-1.061.268a1.997 1.997 0 0 0-.746.758c-.187.318-.279.699-.279 1.142 0 .436.092.82.279 1.154.187.327.435.579.746.758.311.179.664.268 1.061.268Zm-6.751 3.247c-.257 0-.502-.031-.735-.093a1.682 1.682 0 0 1-.606-.28l.361-.862c.234.194.537.291.91.291.295 0 .52-.093.676-.28.163-.179.245-.447.245-.804v-6.482h1.119v6.458c0 .63-.171 1.127-.513 1.493-.334.373-.82.559-1.457.559Zm1.41-9.699c-.217 0-.4-.07-.548-.21a.7.7 0 0 1-.209-.513c0-.21.07-.385.209-.525a.771.771 0 0 1 .548-.209c.218 0 .397.07.536.209.148.133.222.3.222.502 0 .209-.07.388-.21.536a.74.74 0 0 1-.548.21Zm-3.107 7.436a.78.78 0 0 1-.559-.221.79.79 0 0 1-.233-.583.75.75 0 0 1 .233-.571.782.782 0 0 1 .559-.222c.21 0 .389.074.537.222a.754.754 0 0 1 .233.571.794.794 0 0 1-.233.583.73.73 0 0 1-.537.221Zm-4.441-5.086-.07-3.147h.979l-.081 3.147h-.828Zm2.11 0-.07-3.147h.979l-.081 3.147h-.828Zm-8.071 6.742.583-2.355.151.676a.824.824 0 0 1-.571-.21c-.148-.14-.221-.33-.221-.571 0-.233.073-.423.221-.571a.784.784 0 0 1 .56-.222c.225 0 .408.078.548.234a.783.783 0 0 1 .209.559c0 .078-.007.156-.023.233a1.47 1.47 0 0 1-.058.257c-.023.093-.062.21-.117.349l-.548 1.621h-.734Zm-3.727-6.742-.07-3.147h.979l-.082 3.147h-.827Zm2.11 0-.07-3.147h.979l-.081 3.147h-.828Zm-8.071 6.742.583-2.355.152.676a.822.822 0 0 1-.571-.21c-.148-.14-.222-.33-.222-.571 0-.233.074-.423.222-.571a.782.782 0 0 1 .559-.222.7.7 0 0 1 .548.234.78.78 0 0 1 .21.559c0 .078-.008.156-.023.233-.008.07-.028.156-.059.257-.023.093-.062.21-.116.349l-.548 1.621h-.735Zm-7.5-6.742-.07-3.147h.98l-.082 3.147h-.828Zm2.11 0-.07-3.147h.98l-.082 3.147h-.828Z" fill="#1C1C20"/><path d="M381.022 164.573c-.661 0-1.244-.137-1.749-.409a2.99 2.99 0 0 1-1.166-1.119c-.272-.474-.408-1.018-.408-1.632 0-.614.132-1.158.397-1.632a2.906 2.906 0 0 1 1.107-1.107 3.14 3.14 0 0 1 1.597-.408c.599 0 1.127.132 1.586.396.458.264.816.637 1.072 1.119.264.474.397 1.03.397 1.667 0 .047-.004.101-.012.163 0 .063-.004.121-.012.175h-5.258v-.804h4.675l-.454.28a2.085 2.085 0 0 0-.245-1.061 1.819 1.819 0 0 0-.711-.723 1.966 1.966 0 0 0-1.038-.268c-.389 0-.734.089-1.038.268a1.81 1.81 0 0 0-.711.734c-.17.311-.256.669-.256 1.073v.187c0 .411.093.781.28 1.107.194.319.462.567.804.746.342.179.735.268 1.178.268.365 0 .695-.062.991-.186.303-.125.567-.311.792-.56l.618.723a2.7 2.7 0 0 1-1.049.746 3.586 3.586 0 0 1-1.387.257Zm-7.397-.07v-6.179h1.073v1.679l-.105-.42c.171-.428.458-.754.862-.979.404-.226.902-.338 1.492-.338v1.084a.816.816 0 0 0-.139-.012h-.117c-.598 0-1.072.179-1.422.536-.35.358-.525.875-.525 1.551v3.078h-1.119Zm-3.132 0v-1.306l-.058-.245v-2.227c0-.474-.14-.839-.42-1.095-.272-.265-.684-.397-1.236-.397-.365 0-.723.062-1.072.187a2.67 2.67 0 0 0-.886.478l-.467-.84c.319-.256.7-.45 1.143-.583a4.762 4.762 0 0 1 1.411-.209c.847 0 1.5.205 1.958.617.459.412.688 1.042.688 1.889v3.731h-1.061Zm-2.028.07c-.459 0-.863-.078-1.213-.234a1.873 1.873 0 0 1-.793-.641 1.667 1.667 0 0 1-.279-.944c0-.334.077-.637.233-.909.163-.273.423-.49.781-.653.365-.163.855-.245 1.469-.245h1.958v.804h-1.912c-.559 0-.936.094-1.13.28a.902.902 0 0 0-.292.676c0 .303.121.548.362.735.241.179.575.268 1.002.268.42 0 .785-.093 1.096-.28.319-.186.548-.459.688-.816l.221.769c-.147.366-.408.657-.781.875-.373.21-.843.315-1.41.315Zm-9.01 0c-.512 0-1.002-.07-1.468-.21-.459-.14-.82-.311-1.085-.513l.467-.886c.265.179.59.33.979.454.389.125.785.187 1.189.187.521 0 .894-.074 1.119-.222a.693.693 0 0 0 .35-.617.543.543 0 0 0-.21-.455 1.438 1.438 0 0 0-.559-.245 8.05 8.05 0 0 0-.758-.14c-.28-.046-.559-.101-.839-.163a3.724 3.724 0 0 1-.77-.28 1.513 1.513 0 0 1-.559-.501c-.14-.218-.21-.505-.21-.863 0-.373.105-.699.314-.979.21-.28.506-.493.887-.641.389-.156.846-.233 1.375-.233.404 0 .812.05 1.224.151.42.093.762.23 1.026.408l-.478.886a2.631 2.631 0 0 0-.874-.384 4.027 4.027 0 0 0-.909-.105c-.49 0-.855.081-1.096.244-.241.156-.362.358-.362.607 0 .209.07.373.21.489.148.109.334.195.56.257.233.062.489.116.769.163.28.039.56.093.839.163.28.062.533.152.759.268.233.117.419.28.559.49.147.21.221.489.221.839 0 .373-.109.696-.326.968-.218.272-.524.486-.921.641-.396.148-.871.222-1.423.222Zm-6.156 0c-.661 0-1.243-.137-1.749-.409a2.98 2.98 0 0 1-1.165-1.119c-.273-.474-.408-1.018-.408-1.632 0-.614.132-1.158.396-1.632a2.913 2.913 0 0 1 1.107-1.107 3.142 3.142 0 0 1 1.597-.408c.599 0 1.128.132 1.586.396.458.264.816.637 1.072 1.119.265.474.397 1.03.397 1.667 0 .047-.004.101-.012.163 0 .063-.004.121-.012.175h-5.257v-.804h4.675l-.455.28a2.074 2.074 0 0 0-.245-1.061 1.819 1.819 0 0 0-.711-.723 1.961 1.961 0 0 0-1.038-.268 2 2 0 0 0-1.037.268c-.303.171-.54.416-.711.734a2.192 2.192 0 0 0-.257 1.073v.187c0 .411.094.781.28 1.107.194.319.463.567.805.746a2.5 2.5 0 0 0 1.177.268c.365 0 .695-.062.991-.186.303-.125.567-.311.793-.56l.617.723a2.693 2.693 0 0 1-1.049.746 3.586 3.586 0 0 1-1.387.257Zm-8.094 2.261a5.637 5.637 0 0 1-1.656-.245c-.528-.155-.959-.381-1.294-.676l.537-.862a3.12 3.12 0 0 0 1.061.582c.42.148.858.222 1.317.222.731 0 1.267-.171 1.609-.513.342-.342.513-.863.513-1.562v-1.306l.116-1.224-.058-1.236v-1.69h1.061v5.339c0 1.088-.272 1.889-.816 2.402-.544.513-1.341.769-2.39.769Zm-.14-2.588c-.598 0-1.134-.124-1.608-.373a2.995 2.995 0 0 1-1.12-1.061c-.272-.451-.407-.971-.407-1.562 0-.598.135-1.119.407-1.562.28-.451.654-.801 1.12-1.049.474-.249 1.01-.373 1.608-.373.529 0 1.01.108 1.446.326.435.21.781.536 1.037.979.264.443.397 1.003.397 1.679 0 .668-.133 1.224-.397 1.667a2.526 2.526 0 0 1-1.037 1.003 3.197 3.197 0 0 1-1.446.326Zm.128-.979a2.28 2.28 0 0 0 1.096-.257c.319-.171.568-.408.747-.711.186-.303.279-.653.279-1.049 0-.396-.093-.746-.279-1.049a1.809 1.809 0 0 0-.747-.7 2.28 2.28 0 0 0-1.096-.256c-.412 0-.781.085-1.107.256a1.887 1.887 0 0 0-.758.7 2.023 2.023 0 0 0-.267 1.049c0 .396.088.746.267 1.049.187.303.439.54.758.711.326.171.695.257 1.107.257Zm-5.829 1.236v-1.306l-.058-.245v-2.227c0-.474-.14-.839-.42-1.095-.272-.265-.684-.397-1.236-.397-.365 0-.722.062-1.072.187a2.67 2.67 0 0 0-.886.478l-.466-.84c.318-.256.699-.45 1.142-.583a4.762 4.762 0 0 1 1.411-.209c.847 0 1.5.205 1.958.617.459.412.688 1.042.688 1.889v3.731h-1.061Zm-2.028.07c-.459 0-.863-.078-1.213-.234a1.863 1.863 0 0 1-.792-.641 1.66 1.66 0 0 1-.28-.944c0-.334.077-.637.233-.909.163-.273.424-.49.781-.653.365-.163.855-.245 1.469-.245h1.958v.804h-1.912c-.559 0-.936.094-1.13.28a.902.902 0 0 0-.292.676c0 .303.121.548.362.735.241.179.575.268 1.002.268.42 0 .785-.093 1.096-.28.319-.186.548-.459.688-.816l.221.769c-.147.366-.408.657-.781.875-.373.21-.843.315-1.41.315Zm-7.096.004c-.529 0-.995-.097-1.399-.292a2.138 2.138 0 0 1-.933-.886c-.217-.404-.326-.909-.326-1.515v-3.556h1.119v3.428c0 .606.144 1.061.431 1.364.296.303.708.454 1.236.454.389 0 .727-.077 1.014-.233.288-.163.509-.396.665-.7.155-.31.233-.683.233-1.119v-3.194h1.119v6.179h-1.061v-1.667l.175.443c-.202.412-.505.73-.909.956a2.756 2.756 0 0 1-1.364.338Zm-7.945 2.257a5.626 5.626 0 0 1-1.655-.245c-.528-.155-.96-.381-1.294-.676l.536-.862c.288.248.641.442 1.061.582.42.148.859.222 1.318.222.73 0 1.266-.171 1.608-.513.342-.342.513-.863.513-1.562v-1.306l.117-1.224-.058-1.236v-1.69h1.06v5.339c0 1.088-.272 1.889-.816 2.402-.544.513-1.34.769-2.39.769Zm-.139-2.588c-.599 0-1.135-.124-1.609-.373a2.977 2.977 0 0 1-1.119-1.061c-.272-.451-.408-.971-.408-1.562 0-.598.136-1.119.408-1.562a2.886 2.886 0 0 1 1.119-1.049c.474-.249 1.01-.373 1.609-.373.528 0 1.01.108 1.445.326.435.21.781.536 1.038.979.264.443.396 1.003.396 1.679 0 .668-.132 1.224-.396 1.667a2.535 2.535 0 0 1-1.038 1.003 3.193 3.193 0 0 1-1.445.326Zm.128-.979c.412 0 .777-.086 1.096-.257.318-.171.567-.408.746-.711.186-.303.28-.653.28-1.049 0-.396-.094-.746-.28-1.049a1.812 1.812 0 0 0-.746-.7 2.283 2.283 0 0 0-1.096-.256c-.412 0-.781.085-1.108.256a1.894 1.894 0 0 0-.758.7 2.034 2.034 0 0 0-.268 1.049c0 .396.09.746.268 1.049.187.303.44.54.758.711.327.171.696.257 1.108.257Zm-7.329-5.001c.505 0 .949.097 1.329.291.389.194.692.49.91.886.217.396.326.898.326 1.504v3.556h-1.119v-3.428c0-.598-.148-1.049-.443-1.352-.288-.303-.696-.455-1.224-.455-.397 0-.742.078-1.038.233a1.642 1.642 0 0 0-.688.688c-.155.303-.233.68-.233 1.131v3.183h-1.119v-6.179h1.073v1.667l-.175-.443c.202-.404.513-.719.933-.944.419-.226.909-.338 1.468-.338Zm-6.431 6.237v-1.306l-.058-.245v-2.227c0-.474-.14-.839-.42-1.095-.272-.265-.683-.397-1.235-.397-.366 0-.723.062-1.073.187a2.67 2.67 0 0 0-.886.478l-.466-.84c.318-.256.699-.45 1.142-.583a4.762 4.762 0 0 1 1.411-.209c.847 0 1.5.205 1.958.617.459.412.688 1.042.688 1.889v3.731h-1.061Zm-2.028.07c-.459 0-.863-.078-1.212-.234a1.866 1.866 0 0 1-.793-.641 1.66 1.66 0 0 1-.28-.944c0-.334.078-.637.233-.909.163-.273.424-.49.781-.653.366-.163.855-.245 1.469-.245h1.959v.804h-1.912c-.56 0-.937.094-1.131.28a.905.905 0 0 0-.292.676c0 .303.121.548.362.735.241.179.575.268 1.003.268.419 0 .784-.093 1.095-.28.319-.186.548-.459.688-.816l.222.769a1.767 1.767 0 0 1-.782.875c-.373.21-.843.315-1.41.315Zm-8.562-.069v-8.16h1.166v7.146h4.418v1.014h-5.584Zm-8.642 2.33c-.568 0-1.12-.081-1.656-.245-.528-.155-.96-.381-1.294-.676l.536-.862a3.12 3.12 0 0 0 1.061.582c.42.148.859.222 1.318.222.73 0 1.266-.171 1.608-.513.342-.342.513-.863.513-1.562v-1.306l.117-1.224-.058-1.236v-1.69h1.061v5.339c0 1.088-.273 1.889-.817 2.402-.544.513-1.34.769-2.389.769Zm-.14-2.588c-.599 0-1.135-.124-1.609-.373a2.984 2.984 0 0 1-1.119-1.061c-.272-.451-.408-.971-.408-1.562 0-.598.136-1.119.408-1.562a2.893 2.893 0 0 1 1.119-1.049c.474-.249 1.01-.373 1.609-.373.528 0 1.01.108 1.445.326.436.21.781.536 1.038.979.264.443.396 1.003.396 1.679 0 .668-.132 1.224-.396 1.667a2.529 2.529 0 0 1-1.038 1.003 3.193 3.193 0 0 1-1.445.326Zm.128-.979c.412 0 .777-.086 1.096-.257.318-.171.567-.408.746-.711.186-.303.28-.653.28-1.049 0-.396-.094-.746-.28-1.049a1.812 1.812 0 0 0-.746-.7 2.283 2.283 0 0 0-1.096-.256c-.412 0-.781.085-1.108.256a1.885 1.885 0 0 0-.757.7 2.024 2.024 0 0 0-.268 1.049c0 .396.089.746.268 1.049.186.303.439.54.757.711.327.171.696.257 1.108.257Zm-7.328-5.001c.505 0 .948.097 1.329.291.388.194.691.49.909.886.217.396.326.898.326 1.504v3.556h-1.119v-3.428c0-.598-.148-1.049-.443-1.352-.287-.303-.695-.455-1.224-.455a2.2 2.2 0 0 0-1.037.233 1.63 1.63 0 0 0-.688.688c-.156.303-.234.68-.234 1.131v3.183h-1.119v-6.179h1.073v1.667l-.175-.443c.202-.404.513-.719.933-.944.419-.226.909-.338 1.469-.338Zm-6.559 6.243v-6.179h1.12v6.179h-1.12Zm.56-7.368c-.218 0-.4-.07-.548-.21a.698.698 0 0 1-.21-.513c0-.21.07-.385.21-.525a.77.77 0 0 1 .548-.209c.218 0 .396.07.536.209.148.133.222.3.222.502 0 .209-.07.388-.21.536a.742.742 0 0 1-.548.21Zm-5.15 1.125c.498 0 .937.097 1.318.291.381.194.676.49.886.886.217.396.326.898.326 1.504v3.556h-1.119v-3.428c0-.598-.14-1.049-.42-1.352-.28-.303-.672-.455-1.177-.455-.373 0-.7.078-.979.233-.28.156-.498.385-.653.688-.148.303-.222.68-.222 1.131v3.183h-1.119v-3.428c0-.598-.14-1.049-.42-1.352-.272-.303-.664-.455-1.177-.455-.365 0-.688.078-.968.233-.28.156-.497.385-.653.688-.155.303-.233.68-.233 1.131v3.183h-1.119v-6.179h1.073v1.644l-.175-.42c.194-.404.493-.719.897-.944.405-.226.875-.338 1.411-.338.591 0 1.1.147 1.527.443.428.287.708.726.84 1.317l-.455-.187c.186-.474.513-.854.979-1.142.467-.288 1.011-.431 1.632-.431Zm-12.316 0c.497 0 .936.097 1.317.291.381.194.676.49.886.886.218.396.327.898.327 1.504v3.556h-1.119v-3.428c0-.598-.14-1.049-.42-1.352-.28-.303-.672-.455-1.178-.455-.373 0-.699.078-.979.233-.28.156-.497.385-.653.688-.147.303-.221.68-.221 1.131v3.183h-1.119v-3.428c0-.598-.14-1.049-.42-1.352-.272-.303-.664-.455-1.178-.455-.365 0-.687.078-.967.233-.28.156-.498.385-.653.688-.155.303-.233.68-.233 1.131v3.183h-1.119v-6.179h1.072v1.644l-.175-.42a2.11 2.11 0 0 1 .898-.944c.404-.226.874-.338 1.411-.338.59 0 1.099.147 1.527.443.427.287.707.726.839 1.317l-.454-.187c.186-.474.513-.854.979-1.142.466-.288 1.01-.431 1.632-.431Zm-10.857 6.237v-1.306l-.058-.245v-2.227c0-.474-.14-.839-.42-1.095-.272-.265-.684-.397-1.236-.397-.365 0-.723.062-1.072.187a2.67 2.67 0 0 0-.886.478l-.467-.84c.319-.256.7-.45 1.143-.583a4.762 4.762 0 0 1 1.411-.209c.847 0 1.499.205 1.958.617.459.412.688 1.042.688 1.889v3.731h-1.061Zm-2.029.07c-.458 0-.862-.078-1.212-.234a1.873 1.873 0 0 1-.793-.641 1.667 1.667 0 0 1-.28-.944c0-.334.078-.637.234-.909.163-.273.423-.49.781-.653.365-.163.855-.245 1.469-.245h1.958v.804h-1.912c-.559 0-.936.094-1.131.28a.904.904 0 0 0-.291.676c0 .303.12.548.361.735.241.179.576.268 1.003.268.42 0 .785-.093 1.096-.28.318-.186.548-.459.688-.816l.221.769a1.77 1.77 0 0 1-.781.875c-.373.21-.843.315-1.411.315Zm-6.054-.07v-6.179h1.072v1.679l-.105-.42c.171-.428.459-.754.863-.979.404-.226.902-.338 1.492-.338v1.084a.818.818 0 0 0-.14-.012h-.116c-.599 0-1.073.179-1.422.536-.35.358-.525.875-.525 1.551v3.078h-1.119Zm-5.349 2.331c-.568 0-1.12-.081-1.656-.245-.528-.155-.959-.381-1.294-.676l.537-.862c.287.248.641.442 1.06.582.42.148.859.222 1.318.222.73 0 1.267-.171 1.609-.513.342-.342.512-.863.512-1.562v-1.306l.117-1.224-.058-1.236v-1.69h1.061v5.339c0 1.088-.272 1.889-.816 2.402-.544.513-1.341.769-2.39.769Zm-.14-2.588c-.599 0-1.135-.124-1.609-.373a2.992 2.992 0 0 1-1.119-1.061c-.272-.451-.408-.971-.408-1.562 0-.598.136-1.119.408-1.562a2.9 2.9 0 0 1 1.119-1.049c.474-.249 1.01-.373 1.609-.373.528 0 1.01.108 1.445.326.436.21.781.536 1.038.979.264.443.396 1.003.396 1.679 0 .668-.132 1.224-.396 1.667a2.529 2.529 0 0 1-1.038 1.003 3.193 3.193 0 0 1-1.445.326Zm.128-.979c.412 0 .777-.086 1.096-.257a1.957 1.957 0 0 0 1.026-1.76c0-.396-.093-.746-.28-1.049a1.812 1.812 0 0 0-.746-.7 2.283 2.283 0 0 0-1.096-.256c-.412 0-.781.085-1.108.256a1.885 1.885 0 0 0-.757.7 2.024 2.024 0 0 0-.268 1.049c0 .396.089.746.268 1.049.186.303.439.54.757.711.327.171.696.257 1.108.257Zm-7.445 1.306c-.622 0-1.173-.137-1.655-.409a3.032 3.032 0 0 1-1.143-1.119 3.186 3.186 0 0 1-.42-1.632c0-.614.14-1.158.42-1.632.28-.474.661-.843 1.143-1.107.482-.273 1.033-.408 1.655-.408.614 0 1.162.135 1.644.408.489.264.87.633 1.142 1.107.28.466.42 1.011.42 1.632 0 .614-.14 1.158-.42 1.632a2.926 2.926 0 0 1-1.142 1.119c-.482.272-1.03.409-1.644.409Zm0-.98c.396 0 .75-.089 1.061-.268a1.89 1.89 0 0 0 .746-.758c.179-.334.268-.718.268-1.154 0-.443-.089-.824-.268-1.142a1.89 1.89 0 0 0-.746-.758 2.089 2.089 0 0 0-1.061-.268c-.396 0-.75.089-1.061.268a1.997 1.997 0 0 0-.746.758c-.186.318-.28.699-.28 1.142 0 .436.094.82.28 1.154.187.327.435.579.746.758.311.179.665.268 1.061.268Zm-7.292.91v-6.179h1.073v1.679l-.105-.42c.171-.428.458-.754.862-.979.405-.226.902-.338 1.493-.338v1.084a.836.836 0 0 0-.14-.012h-.117c-.598 0-1.072.179-1.422.536-.35.358-.525.875-.525 1.551v3.078h-1.119Zm-8.035.001v-8.16h3.183c.715 0 1.325.113 1.83.338.505.225.894.552 1.166.979.272.428.408.937.408 1.527 0 .591-.136 1.1-.408 1.528-.272.419-.661.746-1.166.979-.505.225-1.115.338-1.83.338h-2.542l.525-.548v3.019h-1.166Zm1.166-2.902-.525-.583h2.507c.746 0 1.309-.16 1.69-.478.388-.319.583-.77.583-1.353 0-.582-.195-1.033-.583-1.352-.381-.319-.944-.478-1.69-.478h-2.507l.525-.583v4.827Zm-8.843 2.971c-.661 0-1.244-.137-1.749-.409a2.983 2.983 0 0 1-1.166-1.119c-.272-.474-.408-1.018-.408-1.632 0-.614.132-1.158.396-1.632a2.909 2.909 0 0 1 1.108-1.107 3.14 3.14 0 0 1 1.597-.408c.599 0 1.127.132 1.585.396.459.264.816.637 1.073 1.119.264.474.396 1.03.396 1.667 0 .047-.004.101-.012.163 0 .063-.003.121-.011.175h-5.258v-.804h4.675l-.455.28a2.084 2.084 0 0 0-.244-1.061 1.815 1.815 0 0 0-.712-.723 1.96 1.96 0 0 0-1.037-.268c-.389 0-.735.089-1.038.268-.303.171-.54.416-.711.734a2.191 2.191 0 0 0-.256 1.073v.187c0 .411.093.781.28 1.107.194.319.462.567.804.746.342.179.734.268 1.178.268.365 0 .695-.062.99-.186.303-.125.568-.311.793-.56l.618.723c-.28.326-.63.575-1.049.746a3.59 3.59 0 0 1-1.387.257Zm-5.253.005c-.622 0-1.103-.168-1.445-.502-.342-.334-.513-.812-.513-1.434v-5.665h1.119v5.619c0 .334.082.59.245.769.171.179.412.268.723.268.349 0 .641-.097.874-.291l.35.804a1.62 1.62 0 0 1-.618.327c-.233.07-.478.105-.735.105Zm-3.007-5.328v-.921h3.94v.921h-3.94Zm-2.372 5.259v-6.179h1.119v6.179h-1.119Zm.559-7.368c-.218 0-.4-.07-.548-.21a.698.698 0 0 1-.21-.513c0-.21.07-.385.21-.525a.77.77 0 0 1 .548-.209c.218 0 .396.07.536.209.148.133.222.3.222.502 0 .209-.07.388-.21.536a.742.742 0 0 1-.548.21Zm-5.262 7.362v-6.179h1.073v1.679l-.105-.42a1.89 1.89 0 0 1 .863-.979c.404-.226.901-.338 1.492-.338v1.084a.827.827 0 0 0-.14-.012h-.117c-.598 0-1.072.179-1.422.536-.35.358-.525.875-.525 1.551v3.078h-1.119Zm-5.287.074c-.529 0-.995-.097-1.399-.292a2.138 2.138 0 0 1-.933-.886c-.217-.404-.326-.909-.326-1.515v-3.556h1.119v3.428c0 .606.144 1.061.431 1.364.296.303.708.454 1.236.454.389 0 .727-.077 1.014-.233.288-.163.509-.396.665-.7.155-.31.233-.683.233-1.119v-3.194h1.119v6.179h-1.061v-1.667l.175.443c-.202.412-.505.73-.909.956a2.756 2.756 0 0 1-1.364.338Zm-7.351-.004c-.621 0-1.173-.137-1.655-.409a3.032 3.032 0 0 1-1.143-1.119 3.196 3.196 0 0 1-.419-1.632c0-.614.14-1.158.419-1.632.28-.474.661-.843 1.143-1.107.482-.273 1.034-.408 1.655-.408.614 0 1.162.135 1.644.408.49.264.871.633 1.143 1.107.28.466.419 1.011.419 1.632 0 .614-.139 1.158-.419 1.632a2.922 2.922 0 0 1-1.143 1.119c-.482.272-1.03.409-1.644.409Zm0-.98c.397 0 .75-.089 1.061-.268.319-.179.568-.431.746-.758.179-.334.268-.718.268-1.154 0-.443-.089-.824-.268-1.142a1.884 1.884 0 0 0-.746-.758 2.086 2.086 0 0 0-1.061-.268c-.396 0-.75.089-1.061.268-.31.179-.559.431-.746.758-.186.318-.279.699-.279 1.142 0 .436.093.82.279 1.154.187.327.436.579.746.758.311.179.665.268 1.061.268Zm-7.372.914-2.704-6.179h1.165l2.402 5.596h-.56l2.448-5.596h1.096l-2.704 6.179h-1.143Zm-4.637-.004v-1.306l-.058-.245v-2.227c0-.474-.14-.839-.42-1.095-.272-.265-.684-.397-1.236-.397-.365 0-.723.062-1.072.187a2.67 2.67 0 0 0-.886.478l-.467-.84c.319-.256.7-.45 1.143-.583a4.762 4.762 0 0 1 1.411-.209c.847 0 1.499.205 1.958.617.459.412.688 1.042.688 1.889v3.731h-1.061Zm-2.029.07c-.458 0-.862-.078-1.212-.234a1.873 1.873 0 0 1-.793-.641 1.667 1.667 0 0 1-.28-.944c0-.334.078-.637.234-.909.163-.273.423-.49.781-.653.365-.163.855-.245 1.469-.245h1.958v.804h-1.912c-.559 0-.936.094-1.131.28a.904.904 0 0 0-.291.676c0 .303.121.548.361.735.241.179.576.268 1.003.268.42 0 .785-.093 1.096-.28.318-.186.548-.459.688-.816l.221.769a1.77 1.77 0 0 1-.781.875c-.373.21-.843.315-1.411.315Zm-5.642-.068v-6.726c0-.606.175-1.088.525-1.446.358-.365.863-.548 1.516-.548.24 0 .47.031.687.093.226.055.416.144.572.269l-.339.851a1.196 1.196 0 0 0-.396-.21 1.321 1.321 0 0 0-.466-.082c-.327 0-.575.094-.746.28-.171.179-.257.447-.257.804v.828l.023.513v5.374h-1.119Zm-1.049-5.257v-.921h3.94v.921h-3.94Zm-8.485 7.59c-.295 0-.583-.05-.862-.151a1.957 1.957 0 0 1-.723-.42l.478-.839c.155.147.326.26.513.338.186.078.385.116.594.116.272 0 .498-.07.676-.209.179-.14.346-.389.502-.746l.385-.852.116-.139 2.425-5.608h1.096l-2.996 6.797c-.179.435-.381.777-.606 1.026a1.844 1.844 0 0 1-.723.524 2.273 2.273 0 0 1-.875.163Zm1.469-2.133-2.821-6.377h1.166l2.401 5.503-.746.874Zm-12.707-.201v-8.16h.957l3.66 6.167h-.513l3.614-6.167h.956l.012 8.16h-1.119l-.012-6.4h.268l-3.218 5.41h-.536l-3.241-5.41h.292v6.4h-1.12Z" fill="#166FF5"/><path d="m130.335 159.491-.069-3.147h.979l-.082 3.147h-.828Zm2.111 0-.07-3.147h.979l-.082 3.147h-.827Zm61.259-11.823v-7.694l.502.548h-2.344v-1.014h2.996v8.16h-1.154Zm-8.39.069c-.661 0-1.244-.136-1.749-.408a2.992 2.992 0 0 1-1.166-1.12c-.272-.474-.408-1.018-.408-1.632 0-.614.132-1.158.397-1.632a2.913 2.913 0 0 1 1.107-1.107 3.152 3.152 0 0 1 1.597-.408c.599 0 1.127.132 1.586.396.458.264.816.637 1.072 1.119.265.474.397 1.03.397 1.667 0 .047-.004.101-.012.163 0 .063-.004.121-.012.175h-5.257v-.804h4.674l-.454.28a2.085 2.085 0 0 0-.245-1.061 1.819 1.819 0 0 0-.711-.723 1.961 1.961 0 0 0-1.038-.268 2 2 0 0 0-1.037.268 1.797 1.797 0 0 0-.711.734 2.192 2.192 0 0 0-.257 1.073v.187c0 .412.093.781.28 1.107.194.319.462.567.804.746.342.179.735.268 1.178.268.365 0 .695-.062.991-.186a2.16 2.16 0 0 0 .792-.56l.618.723a2.69 2.69 0 0 1-1.049.746 3.586 3.586 0 0 1-1.387.257Zm-6.01-.067v-8.65h1.119v8.65h-1.119Zm-4.666.067c-.513 0-.983-.117-1.41-.35a2.679 2.679 0 0 1-1.015-1.061c-.248-.466-.373-1.049-.373-1.749 0-.699.121-1.282.362-1.748a2.513 2.513 0 0 1 1.002-1.05 2.95 2.95 0 0 1 1.434-.349c.606 0 1.143.132 1.609.396.466.264.835.634 1.107 1.108.273.466.408 1.014.408 1.643 0 .63-.135 1.182-.408 1.656a2.913 2.913 0 0 1-1.107 1.107c-.466.264-1.003.397-1.609.397Zm-3.276 2.191v-8.44h1.073v1.667l-.07 1.434.116 1.434v3.905h-1.119Zm3.183-3.171c.396 0 .75-.089 1.061-.268a1.9 1.9 0 0 0 .746-.757c.187-.335.28-.719.28-1.155 0-.443-.093-.824-.28-1.142a1.896 1.896 0 0 0-.746-.758 2.089 2.089 0 0 0-1.061-.268c-.389 0-.742.089-1.061.268a1.997 1.997 0 0 0-.746.758c-.179.318-.268.699-.268 1.142 0 .436.089.82.268 1.155.187.326.435.578.746.757.319.179.672.268 1.061.268Zm-7.774-5.327c.498 0 .937.097 1.318.291.38.194.676.49.886.886.217.396.327.898.327 1.504v3.556h-1.12v-3.428c0-.598-.139-1.049-.419-1.352-.28-.303-.673-.455-1.178-.455-.373 0-.7.078-.98.233a1.602 1.602 0 0 0-.652.688c-.148.303-.221.68-.221 1.131v3.183h-1.12v-3.428c0-.598-.139-1.049-.419-1.352-.272-.303-.665-.455-1.178-.455-.365 0-.687.078-.967.233-.28.156-.497.385-.653.688-.155.303-.233.68-.233 1.131v3.183h-1.12v-6.179h1.073v1.644l-.175-.42c.195-.404.493-.719.897-.944.405-.226.875-.338 1.412-.338.59 0 1.099.147 1.526.443.428.287.708.726.84 1.317l-.455-.187c.187-.473.514-.854.98-1.142.466-.288 1.01-.431 1.631-.431Zm-10.861 6.237v-1.306l-.058-.245v-2.226c0-.475-.14-.84-.42-1.096-.272-.264-.684-.397-1.236-.397-.365 0-.723.063-1.072.187a2.67 2.67 0 0 0-.886.478l-.467-.839a3.32 3.32 0 0 1 1.143-.584 4.762 4.762 0 0 1 1.411-.209c.847 0 1.5.206 1.958.618.459.412.688 1.041.688 1.888v3.731h-1.061Zm-2.029.07c-.458 0-.862-.078-1.212-.233a1.882 1.882 0 0 1-.793-.642 1.667 1.667 0 0 1-.279-.944c0-.334.077-.637.233-.909.163-.272.423-.49.781-.653.365-.163.855-.245 1.469-.245h1.958v.804h-1.911c-.56 0-.937.094-1.131.28a.902.902 0 0 0-.292.676c0 .303.12.548.362.735.24.179.575.268 1.002.268.42 0 .785-.093 1.096-.28a1.58 1.58 0 0 0 .688-.816l.221.769c-.147.366-.408.657-.781.875-.373.21-.843.315-1.411.315Zm-9.023-.07 2.658-3.451-.011.572-2.53-3.3h1.247l1.936 2.542h-.478l1.935-2.542h1.224l-2.565 3.323.012-.595 2.681 3.451h-1.271l-2.04-2.705.455.07-2.005 2.635h-1.248Zm-3.318.07c-.66 0-1.243-.136-1.749-.408a2.983 2.983 0 0 1-1.165-1.12c-.272-.474-.408-1.018-.408-1.632 0-.614.132-1.158.396-1.632a2.913 2.913 0 0 1 1.107-1.107 3.156 3.156 0 0 1 1.598-.408c.598 0 1.127.132 1.585.396.459.264.816.637 1.073 1.119.264.474.396 1.03.396 1.667 0 .047-.004.101-.012.163 0 .063-.004.121-.011.175h-5.258v-.804h4.675l-.455.28a2.074 2.074 0 0 0-.245-1.061 1.819 1.819 0 0 0-.711-.723 1.96 1.96 0 0 0-1.037-.268c-.389 0-.735.089-1.038.268-.303.171-.54.416-.711.734a2.192 2.192 0 0 0-.257 1.073v.187c0 .412.094.781.28 1.107.195.319.463.567.805.746a2.5 2.5 0 0 0 1.177.268c.365 0 .696-.062.991-.186.303-.124.567-.311.793-.56l.618.723c-.28.327-.63.575-1.05.746a3.586 3.586 0 0 1-1.387.257Zm-7.314-.069 1.003-8.16h.828l-1.003 8.16h-.828Zm-4.383-2.098v-.851h7.193v.851h-7.193Zm1.352 2.098 1.014-8.16h.828l-1.014 8.16h-.828Zm-.979-5.211v-.851h7.193v.851h-7.193Zm194.294-9.369h-2.437v-.921h1.318v-9.07h-1.318v-.921h2.437v10.912Zm-6.5-7.272-.07-3.148h.98l-.082 3.148h-.828Zm2.11 0-.07-3.148h.98l-.082 3.148h-.828Z" fill="#1C1C20"/><path d="M315.566 130.894c-.621 0-1.103-.167-1.445-.502-.342-.334-.513-.811-.513-1.433v-5.666h1.119v5.619c0 .334.082.591.245.769.171.179.412.269.723.269.349 0 .641-.098.874-.292l.35.804a1.62 1.62 0 0 1-.618.327c-.233.07-.478.105-.735.105Zm-3.007-5.328v-.921h3.94v.921h-3.94Zm-3.061 5.264v-6.727c0-.606.175-1.088.525-1.446.358-.365.863-.548 1.515-.548.242 0 .471.031.688.094.226.054.416.143.572.268l-.338.851a1.23 1.23 0 0 0-.397-.21 1.348 1.348 0 0 0-.466-.082c-.327 0-.575.094-.746.28-.171.179-.257.447-.257.805v.827l.024.513v5.375h-1.12Zm-1.049-5.258v-.921h3.941v.921h-3.941Zm-2.368 5.257v-6.179h1.119v6.179h-1.119Zm.56-7.368a.764.764 0 0 1-.548-.21.698.698 0 0 1-.21-.513c0-.21.07-.385.21-.524.147-.14.33-.21.548-.21.217 0 .396.07.536.21a.641.641 0 0 1 .221.501.75.75 0 0 1-.209.536.742.742 0 0 1-.548.21Zm-9.743 7.37-2.296-6.179h1.06l2.04 5.596h-.501l2.122-5.596h.944l2.075 5.596h-.489l2.086-5.596h1.003l-2.308 6.179h-1.073l-1.947-5.106h.327l-1.97 5.106h-1.073Zm-5.887.09a5.665 5.665 0 0 1-1.784-.28c-.567-.194-1.014-.442-1.34-.746l.431-.909c.311.272.707.498 1.189.676.482.179.983.268 1.504.268.474 0 .859-.054 1.154-.163.296-.109.513-.256.653-.443.14-.194.21-.412.21-.653a.873.873 0 0 0-.28-.676 1.907 1.907 0 0 0-.711-.408 7.01 7.01 0 0 0-.956-.28c-.35-.077-.703-.167-1.061-.268a5.211 5.211 0 0 1-.968-.408 2.017 2.017 0 0 1-.699-.653c-.179-.28-.268-.637-.268-1.072 0-.42.109-.805.326-1.154.226-.358.568-.641 1.026-.851.467-.218 1.057-.327 1.772-.327.474 0 .945.062 1.411.187.466.124.87.303 1.212.536l-.384.933a3.62 3.62 0 0 0-1.108-.502 4.183 4.183 0 0 0-1.131-.163c-.458 0-.835.058-1.131.175-.295.117-.513.272-.653.466a1.145 1.145 0 0 0-.198.653c0 .288.09.517.268.688.187.171.424.307.712.408.295.101.618.194.967.28.35.078.7.167 1.049.268.358.101.681.233.968.396.295.164.532.381.711.653.179.272.268.622.268 1.049 0 .412-.112.797-.338 1.154-.225.35-.575.634-1.049.852-.466.209-1.057.314-1.772.314Z" fill="#166FF5"/><path d="m283.656 125.816-.07-3.148h.979l-.081 3.148h-.828Zm2.11 0-.07-3.148h.979l-.081 3.148h-.828Zm-8.067 6.741.583-2.355.152.677a.824.824 0 0 1-.572-.21c-.147-.14-.221-.331-.221-.571 0-.234.074-.424.221-.572a.787.787 0 0 1 .56-.221c.225 0 .408.078.548.233.14.148.21.334.21.56 0 .077-.008.155-.024.233-.007.07-.027.155-.058.256-.023.093-.062.21-.117.35l-.547 1.62h-.735Zm-3.731-6.741-.07-3.148h.98l-.082 3.148h-.828Zm2.111 0-.071-3.148h.98l-.082 3.148h-.827Z" fill="#1C1C20"/><path d="M269.445 130.827v-6.179h1.073v1.679l-.105-.42c.171-.427.458-.754.863-.979.404-.225.901-.338 1.492-.338v1.084a.826.826 0 0 0-.14-.011h-.117c-.598 0-1.072.178-1.422.536-.35.357-.525.874-.525 1.55v3.078h-1.119Zm-4.388.07c-.661 0-1.243-.136-1.749-.408a2.996 2.996 0 0 1-1.166-1.119c-.272-.474-.408-1.019-.408-1.632 0-.614.133-1.159.397-1.632a2.909 2.909 0 0 1 1.107-1.108 3.153 3.153 0 0 1 1.598-.408c.598 0 1.126.132 1.585.396.459.265.816.638 1.072 1.12.265.473.397 1.029.397 1.667 0 .046-.004.101-.012.163 0 .062-.004.12-.012.175h-5.257v-.805h4.675l-.455.28a2.077 2.077 0 0 0-.245-1.061 1.819 1.819 0 0 0-.711-.723 1.97 1.97 0 0 0-1.037-.268c-.389 0-.735.09-1.038.268a1.8 1.8 0 0 0-.711.735 2.188 2.188 0 0 0-.257 1.072v.187c0 .412.094.781.28 1.107.194.319.462.568.804.747.342.178.735.268 1.178.268.365 0 .696-.063.991-.187.303-.124.567-.311.793-.56l.617.723a2.683 2.683 0 0 1-1.049.746 3.586 3.586 0 0 1-1.387.257Zm-5.252-.003c-.622 0-1.104-.167-1.446-.502-.342-.334-.513-.811-.513-1.433v-5.666h1.119v5.619c0 .334.082.591.245.769.171.179.412.269.723.269.35 0 .641-.098.874-.292l.35.804a1.62 1.62 0 0 1-.618.327 2.54 2.54 0 0 1-.734.105Zm-3.008-5.328v-.921h3.94v.921h-3.94Zm-1.672 5.328c-.622 0-1.104-.167-1.446-.502-.342-.334-.513-.811-.513-1.433v-5.666h1.119v5.619c0 .334.082.591.245.769.171.179.412.269.723.269.35 0 .641-.098.874-.292l.35.804a1.62 1.62 0 0 1-.618.327 2.54 2.54 0 0 1-.734.105Zm-3.008-5.328v-.921h3.94v.921h-3.94Zm-4.404 5.335c-.529 0-.995-.097-1.399-.292a2.127 2.127 0 0 1-.933-.886c-.218-.404-.326-.909-.326-1.515v-3.556h1.119v3.428c0 .606.144 1.06.431 1.364.295.303.707.454 1.236.454.389 0 .727-.078 1.014-.233a1.65 1.65 0 0 0 .665-.699c.155-.311.233-.684.233-1.119v-3.195h1.119v6.179h-1.061v-1.667l.175.443c-.202.412-.505.73-.909.956a2.76 2.76 0 0 1-1.364.338Zm-5.854-.075v-8.65h1.12v8.65h-1.12Zm-6.189-4.299h4.209v1.002h-4.209v-1.002Zm.117 4.301h-1.166v-8.16h5.759v1.014h-4.593v7.146Z" fill="#166FF5"/><path d="m229.648 125.816-.07-3.148h.979l-.081 3.148h-.828Zm2.11 0-.07-3.148h.979l-.081 3.148h-.828Zm-8.075 6.741.583-2.355.152.677a.82.82 0 0 1-.571-.21c-.148-.14-.222-.331-.222-.571 0-.234.074-.424.222-.572a.785.785 0 0 1 .559-.221c.225 0 .408.078.548.233.14.148.21.334.21.56 0 .077-.008.155-.024.233-.007.07-.027.155-.058.256a3.06 3.06 0 0 1-.116.35l-.548 1.62h-.735Zm-3.73-6.741-.07-3.148h.979l-.082 3.148h-.827Zm2.11 0-.07-3.148h.979l-.082 3.148h-.827Z" fill="#1C1C20"/><path d="M217.079 130.827v-1.306l-.058-.244v-2.227c0-.474-.14-.84-.42-1.096-.272-.264-.684-.397-1.236-.397-.365 0-.723.063-1.072.187-.35.117-.645.276-.886.478l-.467-.839a3.3 3.3 0 0 1 1.143-.583 4.73 4.73 0 0 1 1.411-.21c.847 0 1.5.206 1.958.618.459.412.688 1.041.688 1.888v3.731h-1.061Zm-2.029.07c-.458 0-.862-.078-1.212-.233a1.88 1.88 0 0 1-.793-.641 1.67 1.67 0 0 1-.279-.945c0-.334.077-.637.233-.909.163-.272.423-.49.781-.653.365-.163.855-.245 1.469-.245h1.958v.805h-1.912c-.559 0-.936.093-1.13.279a.902.902 0 0 0-.292.677c0 .303.12.548.362.734.24.179.575.268 1.002.268.42 0 .785-.093 1.096-.28a1.58 1.58 0 0 0 .688-.816l.221.77a1.763 1.763 0 0 1-.781.874c-.373.21-.843.315-1.411.315Zm-6.502-.066-2.704-6.179h1.165l2.402 5.596h-.56l2.449-5.596h1.095l-2.704 6.179h-1.143Zm-4.645-.004v-1.306l-.058-.244v-2.227c0-.474-.14-.84-.42-1.096-.272-.264-.684-.397-1.236-.397-.365 0-.722.063-1.072.187-.35.117-.645.276-.886.478l-.466-.839a3.287 3.287 0 0 1 1.142-.583 4.73 4.73 0 0 1 1.411-.21c.847 0 1.5.206 1.958.618.459.412.688 1.041.688 1.888v3.731h-1.061Zm-2.028.07a2.97 2.97 0 0 1-1.213-.233 1.87 1.87 0 0 1-.792-.641 1.663 1.663 0 0 1-.28-.945c0-.334.077-.637.233-.909.163-.272.423-.49.781-.653.365-.163.855-.245 1.469-.245h1.958v.805h-1.912c-.559 0-.936.093-1.13.279a.902.902 0 0 0-.292.677c0 .303.121.548.362.734.241.179.575.268 1.002.268.42 0 .785-.093 1.096-.28a1.58 1.58 0 0 0 .688-.816l.221.77a1.763 1.763 0 0 1-.781.874c-.373.21-.843.315-1.41.315Zm-6.567.025c-.482 0-.933-.101-1.352-.303a2.597 2.597 0 0 1-1.026-.875l.676-.792c.225.31.478.551.757.722.288.163.603.245.945.245.932 0 1.399-.552 1.399-1.655v-4.582h-2.95v-1.014h4.104v5.538c0 .909-.218 1.589-.653 2.04-.427.45-1.061.676-1.9.676Z" fill="#166FF5"/><path d="m189.285 125.816-.07-3.148h.979l-.082 3.148h-.827Zm2.11 0-.07-3.148h.979l-.081 3.148h-.828Zm-5.661 7.272v-10.912h2.437v.921h-1.317v9.07h1.317v.921h-2.437Zm-7.23-7.261v-.921h5.223v.921h-5.223Zm0 2.763v-.921h5.223v.921h-5.223Zm-7.045 2.238v-.793l3.323-3.206a4.55 4.55 0 0 0 .653-.734 1.985 1.985 0 0 0 .373-1.131c0-.42-.148-.75-.443-.991-.295-.241-.727-.361-1.294-.361-.435 0-.828.074-1.178.221a2.31 2.31 0 0 0-.909.665l-.793-.688c.311-.396.727-.699 1.248-.909a4.508 4.508 0 0 1 1.737-.327c.567 0 1.06.093 1.48.28.42.179.742.439.968.781.233.342.35.746.35 1.213 0 .264-.035.524-.105.781-.07.256-.202.528-.397.816-.194.287-.474.61-.839.967l-2.961 2.856-.28-.454h4.931v1.014h-5.864Zm-1.998.066c-.622 0-1.104-.167-1.446-.502-.342-.334-.513-.811-.513-1.433v-5.666h1.119v5.619c0 .334.082.591.245.769.171.179.412.269.723.269.35 0 .641-.098.874-.292l.35.804a1.62 1.62 0 0 1-.618.327 2.54 2.54 0 0 1-.734.105Zm-3.008-5.328v-.921h3.94v.921h-3.94Zm-3.177 5.331a5.08 5.08 0 0 1-1.469-.21c-.459-.14-.82-.311-1.084-.513l.466-.886c.264.179.591.33.979.455a3.89 3.89 0 0 0 1.189.186c.521 0 .894-.074 1.119-.221a.696.696 0 0 0 .35-.618.545.545 0 0 0-.21-.455 1.438 1.438 0 0 0-.559-.245 7.756 7.756 0 0 0-.758-.139 15.33 15.33 0 0 1-.839-.164 3.781 3.781 0 0 1-.77-.279 1.524 1.524 0 0 1-.559-.502c-.14-.217-.21-.505-.21-.862 0-.373.105-.7.314-.98.21-.28.506-.493.887-.641.388-.155.847-.233 1.375-.233.404 0 .812.051 1.224.152.42.093.762.229 1.026.407l-.478.887a2.634 2.634 0 0 0-.874-.385 4.027 4.027 0 0 0-.909-.105c-.49 0-.855.081-1.096.245-.241.155-.362.357-.362.606 0 .21.07.373.21.49.148.108.334.194.56.256.233.062.489.117.769.163.28.039.56.093.839.164.28.062.533.151.758.268.233.116.42.279.56.489.147.21.221.49.221.839 0 .374-.109.696-.326.968-.218.272-.525.486-.921.641-.396.148-.87.222-1.422.222Zm-5.031-.068v-6.179h1.119v6.179h-1.119Zm.56-7.368c-.218 0-.4-.07-.548-.21a.698.698 0 0 1-.21-.513c0-.21.07-.385.21-.524.148-.14.33-.21.548-.21.217 0 .396.07.536.21a.641.641 0 0 1 .221.501.75.75 0 0 1-.209.536.742.742 0 0 1-.548.21Zm-3.817 7.365v-8.65h1.119v8.65h-1.119Zm-6.89.729v-.723h5.828v.723h-5.828Zm-5.032 1.608c-.295 0-.583-.051-.863-.152a1.973 1.973 0 0 1-.723-.42l.479-.839c.155.147.326.26.512.338.187.078.385.117.595.117.272 0 .497-.07.676-.21.179-.14.346-.389.501-.746l.385-.851.117-.14 2.425-5.608h1.095l-2.996 6.797c-.178.435-.38.777-.606 1.026a1.83 1.83 0 0 1-.723.524 2.268 2.268 0 0 1-.874.164Zm1.469-2.134-2.821-6.377h1.165l2.402 5.503-.746.874Zm-6.212-6.439c.497 0 .936.097 1.317.291.381.195.676.49.886.887.218.396.327.897.327 1.503v3.556h-1.119v-3.428c0-.598-.14-1.049-.42-1.352-.28-.303-.672-.455-1.177-.455-.373 0-.7.078-.98.234-.28.155-.497.384-.653.688-.147.303-.221.68-.221 1.13v3.183h-1.119v-3.428c0-.598-.14-1.049-.42-1.352-.272-.303-.665-.455-1.177-.455-.366 0-.688.078-.968.234-.28.155-.497.384-.653.688-.155.303-.233.68-.233 1.13v3.183h-1.119v-6.179h1.072v1.644l-.175-.42a2.11 2.11 0 0 1 .898-.944c.404-.225.874-.338 1.411-.338.59 0 1.1.148 1.527.443.427.288.707.727.839 1.317l-.454-.186c.186-.474.513-.855.979-1.143.466-.287 1.01-.431 1.632-.431Zm206.305-8.338h-2.437v-.921h1.318v-9.07h-1.318v-.921h2.437v10.912Zm-6.495-7.276-.071-3.148h.98l-.082 3.148h-.827Zm2.11 0-.07-3.148h.979l-.082 3.148h-.827Z" fill="#1C1C20"/><path d="M333.447 112.462v-5.107h.978v5.107h-.978Zm-2.123-2.087v-.921h5.223v.921h-5.223Zm-4.667 2.087v-5.107h.979v5.107h-.979Zm-2.122-2.087v-.921h5.223v.921h-5.223Zm-4.331 3.707a4.82 4.82 0 0 1-1.726-.303 4.25 4.25 0 0 1-1.363-.875 4.232 4.232 0 0 1-.898-1.329 4.163 4.163 0 0 1-.326-1.667c0-.606.108-1.162.326-1.667.218-.505.521-.944.909-1.317a3.995 3.995 0 0 1 1.364-.875 4.635 4.635 0 0 1 1.726-.315c.629 0 1.208.109 1.737.327.536.21.991.524 1.364.944l-.758.735a2.953 2.953 0 0 0-1.049-.723 3.197 3.197 0 0 0-1.248-.245c-.458 0-.886.078-1.282.233a2.994 2.994 0 0 0-1.69 1.656c-.156.38-.234.796-.234 1.247 0 .451.078.87.234 1.259a3.025 3.025 0 0 0 1.69 1.644c.396.155.824.233 1.282.233a3.34 3.34 0 0 0 1.248-.233 3.035 3.035 0 0 0 1.049-.746l.758.734a3.62 3.62 0 0 1-1.364.956 4.548 4.548 0 0 1-1.749.327Z" fill="#166FF5"/><path d="m311.582 108.976-.07-3.148h.979l-.082 3.148h-.827Zm2.11 0-.07-3.148h.979l-.082 3.148h-.827Zm-4.302 6.737.583-2.354.152.676a.82.82 0 0 1-.571-.21c-.148-.14-.222-.331-.222-.571 0-.233.074-.424.222-.572a.785.785 0 0 1 .559-.221c.225 0 .408.078.548.233.14.148.21.334.21.56 0 .077-.008.155-.023.233-.008.07-.028.155-.059.256a3.06 3.06 0 0 1-.116.35l-.548 1.62h-.735Zm-3.73-6.737-.07-3.148h.979l-.082 3.148h-.827Zm2.11 0-.07-3.148h.979l-.081 3.148h-.828Z" fill="#1C1C20"/><path d="M303.211 114.054c-.622 0-1.104-.167-1.446-.501-.342-.334-.513-.812-.513-1.434v-5.666h1.119v5.619c0 .335.082.591.245.77.171.178.412.268.723.268.35 0 .641-.097.874-.292l.35.805a1.619 1.619 0 0 1-.618.326 2.54 2.54 0 0 1-.734.105Zm-3.008-5.328v-.92h3.94v.92h-3.94Zm-3.779 5.331c-.512 0-.983-.117-1.41-.35a2.663 2.663 0 0 1-1.014-1.061c-.249-.466-.374-1.049-.374-1.748 0-.7.121-1.283.362-1.749.249-.466.583-.816 1.002-1.049a2.95 2.95 0 0 1 1.434-.35c.607 0 1.143.132 1.609.396.466.265.836.634 1.108 1.108.272.466.408 1.014.408 1.644 0 .629-.136 1.181-.408 1.655a2.925 2.925 0 0 1-1.108 1.108c-.466.264-1.002.396-1.609.396Zm-3.276 2.191v-8.44h1.073v1.667l-.07 1.434.117 1.434v3.905h-1.12Zm3.183-3.17c.396 0 .75-.09 1.061-.269.319-.178.567-.431.746-.757.187-.335.28-.719.28-1.154 0-.443-.093-.824-.28-1.143a1.896 1.896 0 0 0-.746-.758 2.089 2.089 0 0 0-1.061-.268c-.388 0-.742.089-1.061.268a2.005 2.005 0 0 0-.746.758c-.179.319-.268.7-.268 1.143 0 .435.089.819.268 1.154.187.326.435.579.746.757.319.179.673.269 1.061.269Zm-6.442.911v-6.179h1.12v6.179h-1.12Zm.56-7.368c-.218 0-.4-.07-.548-.21a.696.696 0 0 1-.21-.513c0-.209.07-.384.21-.524.148-.14.33-.21.548-.21.218 0 .397.07.536.21a.642.642 0 0 1 .222.501.75.75 0 0 1-.21.536.742.742 0 0 1-.548.21Zm-5.265 7.366v-6.179h1.072v1.679l-.105-.42c.171-.427.459-.754.863-.979.404-.225.901-.338 1.492-.338v1.084a.827.827 0 0 0-.14-.012h-.116c-.599 0-1.073.179-1.423.537-.349.357-.524.874-.524 1.55v3.078h-1.119Zm-3.963.07c-.629 0-1.193-.136-1.69-.408a3.005 3.005 0 0 1-1.154-1.119c-.28-.474-.42-1.018-.42-1.632 0-.614.14-1.158.42-1.633a2.92 2.92 0 0 1 1.154-1.107c.497-.272 1.061-.408 1.69-.408.56 0 1.057.113 1.492.338.443.218.785.544 1.026.979l-.851.548a1.838 1.838 0 0 0-.746-.664 2.006 2.006 0 0 0-.933-.222c-.404 0-.765.089-1.084.268a1.985 1.985 0 0 0-.758.758c-.186.319-.279.7-.279 1.143 0 .443.093.827.279 1.154.187.326.44.579.758.757.319.179.68.269 1.084.269a2.1 2.1 0 0 0 .933-.21 1.93 1.93 0 0 0 .746-.676l.851.536a2.476 2.476 0 0 1-1.026.991c-.435.225-.932.338-1.492.338Zm-7.394.025a5.687 5.687 0 0 1-1.783-.28c-.568-.195-1.015-.443-1.341-.746l.431-.91c.311.272.708.498 1.189.676.482.179.984.269 1.504.269.474 0 .859-.055 1.154-.164.296-.109.513-.256.653-.443.14-.194.21-.412.21-.653a.873.873 0 0 0-.28-.676 1.89 1.89 0 0 0-.711-.408 6.972 6.972 0 0 0-.956-.279 20.873 20.873 0 0 1-1.061-.268 5.137 5.137 0 0 1-.967-.409 2.009 2.009 0 0 1-.7-.652c-.178-.28-.268-.638-.268-1.073 0-.42.109-.804.327-1.154.225-.358.567-.641 1.026-.851.466-.218 1.057-.327 1.772-.327.474 0 .944.063 1.41.187.466.124.871.303 1.212.536l-.384.933a3.64 3.64 0 0 0-1.108-.501 4.173 4.173 0 0 0-1.13-.164c-.459 0-.836.059-1.131.175-.296.117-.513.272-.653.467a1.134 1.134 0 0 0-.198.652c0 .288.089.517.268.688.186.171.423.307.711.408.295.101.618.194.968.28.349.078.699.167 1.049.268.357.101.68.233.967.396.296.164.533.381.711.653.179.272.269.622.269 1.049 0 .412-.113.797-.339 1.155-.225.349-.575.633-1.049.851-.466.21-1.057.315-1.772.315Zm-5.67-.095v-1.306l-.058-.245v-2.226c0-.474-.14-.84-.42-1.096-.272-.264-.684-.396-1.236-.396-.365 0-.722.062-1.072.186-.35.117-.645.276-.886.478l-.466-.839a3.287 3.287 0 0 1 1.142-.583 4.73 4.73 0 0 1 1.411-.21c.847 0 1.5.206 1.958.618.459.412.688 1.041.688 1.888v3.731h-1.061Zm-2.028.07a2.97 2.97 0 0 1-1.213-.233 1.878 1.878 0 0 1-.792-.641 1.663 1.663 0 0 1-.28-.945c0-.334.078-.637.233-.909.163-.272.424-.49.781-.653.365-.163.855-.245 1.469-.245h1.958v.805h-1.911c-.56 0-.937.093-1.131.28a.899.899 0 0 0-.292.676c0 .303.121.547.362.734.241.179.575.268 1.002.268.42 0 .785-.093 1.096-.28a1.58 1.58 0 0 0 .688-.816l.221.77c-.147.365-.408.656-.781.874-.373.21-.843.315-1.41.315Zm-6.506-.07-2.705-6.178h1.166l2.401 5.595h-.559l2.448-5.595h1.096l-2.705 6.178h-1.142Zm-4.646 0v-1.306l-.058-.245v-2.226c0-.474-.14-.84-.42-1.096-.272-.264-.684-.396-1.235-.396-.366 0-.723.062-1.073.186-.35.117-.645.276-.886.478l-.466-.839a3.296 3.296 0 0 1 1.142-.583 4.73 4.73 0 0 1 1.411-.21c.847 0 1.5.206 1.958.618.459.412.688 1.041.688 1.888v3.731h-1.061Zm-2.028.07a2.97 2.97 0 0 1-1.213-.233 1.878 1.878 0 0 1-.792-.641 1.663 1.663 0 0 1-.28-.945c0-.334.078-.637.233-.909.163-.272.424-.49.781-.653.365-.163.855-.245 1.469-.245h1.959v.805h-1.912c-.56 0-.937.093-1.131.28a.902.902 0 0 0-.292.676c0 .303.121.547.362.734.241.179.575.268 1.002.268.42 0 .785-.093 1.096-.28a1.58 1.58 0 0 0 .688-.816l.222.77a1.772 1.772 0 0 1-.781.874c-.373.21-.844.315-1.411.315Zm-6.567.025c-.482 0-.933-.101-1.352-.303a2.603 2.603 0 0 1-1.026-.874l.676-.793c.225.311.478.552.758.723.287.163.602.244.944.244.933 0 1.399-.551 1.399-1.655v-4.581h-2.949v-1.015h4.103v5.538c0 .909-.217 1.589-.653 2.04-.427.451-1.061.676-1.9.676Z" fill="#166FF5"/><path d="m240.359 108.976-.07-3.148h.979l-.081 3.148h-.828Zm2.11 0-.07-3.148h.979l-.081 3.148h-.828Zm-4.297 6.737.582-2.354.152.676a.82.82 0 0 1-.571-.21c-.148-.14-.222-.331-.222-.571 0-.233.074-.424.222-.572a.785.785 0 0 1 .559-.221c.226 0 .408.078.548.233.14.148.21.334.21.56 0 .077-.008.155-.023.233a1.39 1.39 0 0 1-.059.256 3.06 3.06 0 0 1-.116.35l-.548 1.62h-.734Zm-3.735-6.737-.07-3.148h.98l-.082 3.148h-.828Zm2.11 0-.07-3.148h.98l-.082 3.148h-.828Z" fill="#1C1C20"/><path d="M230.057 107.75c.505 0 .948.097 1.329.291.389.195.692.49.909.886.218.397.327.898.327 1.504v3.556h-1.119v-3.428c0-.598-.148-1.049-.443-1.352-.288-.303-.696-.454-1.224-.454-.397 0-.743.077-1.038.233a1.63 1.63 0 0 0-.688.688c-.155.303-.233.68-.233 1.13v3.183h-1.119v-6.179h1.072v1.667l-.174-.443c.202-.404.513-.719.932-.944.42-.225.909-.338 1.469-.338Zm-8.046 6.307c-.622 0-1.174-.136-1.655-.408a3.04 3.04 0 0 1-1.143-1.119 3.189 3.189 0 0 1-.42-1.632c0-.614.14-1.158.42-1.633.28-.474.661-.843 1.143-1.107.481-.272 1.033-.408 1.655-.408.614 0 1.161.136 1.643.408.49.264.871.633 1.143 1.107.28.467.419 1.011.419 1.633 0 .614-.139 1.158-.419 1.632a2.929 2.929 0 0 1-1.143 1.119c-.482.272-1.029.408-1.643.408Zm0-.979c.396 0 .75-.09 1.061-.269.319-.178.567-.431.746-.757.179-.335.267-.719.267-1.154 0-.443-.088-.824-.267-1.143a1.896 1.896 0 0 0-.746-.758 2.089 2.089 0 0 0-1.061-.268c-.396 0-.75.089-1.061.268a2.005 2.005 0 0 0-.746.758c-.186.319-.28.7-.28 1.143 0 .435.094.819.28 1.154.187.326.435.579.746.757a2.09 2.09 0 0 0 1.061.269Zm-7.29-5.325c.505 0 .948.097 1.329.291.389.195.692.49.909.887.218.396.327.897.327 1.504v3.555h-1.119v-3.427c0-.599-.148-1.05-.443-1.353-.288-.303-.696-.454-1.224-.454-.397 0-.743.077-1.038.233a1.63 1.63 0 0 0-.688.688c-.155.303-.233.68-.233 1.131v3.182h-1.119v-8.65h1.119v4.138l-.221-.442c.201-.405.512-.719.932-.945.42-.225.91-.338 1.469-.338Zm-6.002 6.301c-.622 0-1.104-.167-1.446-.501-.342-.334-.513-.812-.513-1.434v-5.666h1.119v5.619c0 .335.082.591.245.77.171.178.412.268.723.268.35 0 .641-.097.874-.292l.35.805a1.619 1.619 0 0 1-.618.326 2.54 2.54 0 0 1-.734.105Zm-3.008-5.328v-.92h3.941v.92h-3.941Zm-5.528 7.593c-.295 0-.583-.051-.863-.152a1.964 1.964 0 0 1-.722-.419l.477-.84c.156.148.327.261.514.338.186.078.384.117.594.117.272 0 .498-.07.676-.21.179-.14.346-.389.502-.746l.384-.851.117-.14 2.425-5.607h1.095l-2.996 6.796c-.178.435-.38.777-.606 1.026a1.835 1.835 0 0 1-.722.525 2.295 2.295 0 0 1-.875.163Zm1.469-2.134-2.821-6.376h1.166l2.401 5.502-.746.874Zm-9.91-.196v-8.161h3.183c.715 0 1.325.113 1.83.338.505.226.894.552 1.166.98.272.427.408.936.408 1.527 0 .59-.136 1.099-.408 1.527-.272.42-.661.746-1.166.979-.505.226-1.115.338-1.83.338h-2.541l.524-.548v3.02h-1.166Zm1.166-2.903-.524-.583h2.506c.746 0 1.309-.159 1.69-.478.389-.318.583-.769.583-1.352 0-.583-.194-1.034-.583-1.353-.381-.318-.944-.477-1.69-.477h-2.506l.524-.584v4.827Z" fill="#166FF5"/><path d="m186.769 108.976-.07-3.148h.98l-.082 3.148h-.828Zm2.11 0-.07-3.148h.98l-.082 3.148h-.828Zm-5.664 7.276V105.34h2.436v.921h-1.317v9.07h1.317v.921h-2.436Zm-7.227-7.261v-.921h5.223v.921h-5.223Zm0 2.763v-.921h5.223v.921h-5.223Zm-3.162 2.235v-7.695l.501.549h-2.343v-1.015h2.996v8.161h-1.154Zm-3.365.065c-.622 0-1.104-.167-1.446-.501-.342-.334-.513-.812-.513-1.434v-5.666h1.119v5.619c0 .335.082.591.245.77.171.178.412.268.723.268.35 0 .641-.097.874-.292l.35.805a1.619 1.619 0 0 1-.618.326 2.54 2.54 0 0 1-.734.105Zm-3.008-5.328v-.92h3.94v.92h-3.94Zm-3.177 5.331a5.08 5.08 0 0 1-1.469-.21c-.459-.14-.82-.311-1.084-.513l.466-.886c.264.179.591.33.979.455a3.89 3.89 0 0 0 1.189.186c.521 0 .894-.074 1.119-.221a.696.696 0 0 0 .35-.618.545.545 0 0 0-.21-.455 1.423 1.423 0 0 0-.559-.244 7.454 7.454 0 0 0-.758-.14c-.28-.047-.56-.102-.839-.164a3.724 3.724 0 0 1-.77-.28 1.513 1.513 0 0 1-.559-.501c-.14-.217-.21-.505-.21-.862 0-.374.105-.7.314-.98.21-.279.506-.493.887-.641.388-.155.847-.233 1.375-.233.404 0 .812.05 1.224.152.42.093.762.229 1.026.408l-.478.885a2.652 2.652 0 0 0-.874-.384 4.027 4.027 0 0 0-.909-.105c-.49 0-.855.081-1.096.245-.241.155-.362.357-.362.606 0 .21.07.373.21.49.148.108.334.194.56.256.233.062.489.117.769.163.28.039.56.093.839.163.28.063.533.152.758.269.233.116.42.279.56.489.147.21.221.49.221.84 0 .373-.109.695-.326.967-.218.272-.525.486-.921.641-.396.148-.87.222-1.422.222Zm-5.031-.068v-6.179h1.119v6.179h-1.119Zm.56-7.368c-.218 0-.4-.07-.548-.21a.696.696 0 0 1-.21-.513c0-.209.07-.384.21-.524.148-.14.33-.21.548-.21.217 0 .396.07.536.21a.641.641 0 0 1 .221.501c0 .21-.069.389-.209.536a.742.742 0 0 1-.548.21Zm-3.817 7.369v-8.65h1.119v8.65h-1.119Zm-6.89.721v-.723h5.828v.723h-5.828Zm-5.032 1.608c-.295 0-.583-.051-.863-.152a1.985 1.985 0 0 1-.723-.419l.479-.84c.155.148.326.261.512.338.187.078.385.117.595.117.272 0 .497-.07.676-.21.179-.14.346-.389.501-.746l.385-.851.117-.14 2.425-5.607h1.095l-2.996 6.796c-.178.435-.38.777-.606 1.026a1.823 1.823 0 0 1-.723.525 2.286 2.286 0 0 1-.874.163Zm1.469-2.134-2.821-6.376h1.165l2.402 5.502-.746.874Zm-6.212-6.435c.497 0 .936.097 1.317.291.381.195.676.49.886.886.218.397.327.898.327 1.504v3.556h-1.119v-3.428c0-.598-.14-1.049-.42-1.352-.28-.303-.672-.454-1.177-.454-.373 0-.7.077-.98.233-.28.155-.497.384-.653.688-.147.303-.221.68-.221 1.13v3.183h-1.119v-3.428c0-.598-.14-1.049-.42-1.352-.272-.303-.665-.454-1.177-.454-.366 0-.688.077-.968.233-.28.155-.497.384-.653.688-.155.303-.233.68-.233 1.13v3.183h-1.119v-6.179h1.072v1.644l-.175-.42a2.11 2.11 0 0 1 .898-.944c.404-.225.874-.338 1.411-.338.59 0 1.1.148 1.527.443.427.287.707.727.839 1.317l-.454-.186c.186-.474.513-.855.979-1.143.466-.287 1.01-.431 1.632-.431Zm296.572-8.546 16.784-4.618-8.417-2.45-.777-8.355-7.59 15.423Zm-18.446 9.175h11.023v11.023h-11.023v-11.023Z" fill="#1C1C20"/><path d="m593.323 166.449-164.569 61.02.675 1.822 164.569-61.02-.675-1.822ZM118.529 52.46l-47.29 87.274 1.708.926 47.29-87.275-1.708-.926Z" fill="#166FF5"/></svg>