<svg width="963" height="634" viewBox="0 0 963 634" fill="none" xmlns="http://www.w3.org/2000/svg"><path d="M0 172 278 0l292 500-188 84L0 172Z" fill="#FFE2FC"/><path d="m790.456 607.545 154.481-288.103L427.839 58.917l-72.215 192.834 434.832 355.794Z" fill="#FFE2FC"/><path d="M488.188 256.927c.712 0 1.341.139 1.887.417.546.279.969.702 1.27 1.27.311.568.467 1.286.467 2.155v5.094h-1.603v-4.911c0-.857-.201-1.503-.602-1.937-.4-.434-.963-.651-1.687-.651-.534 0-1.002.111-1.403.333a2.288 2.288 0 0 0-.935.986c-.212.434-.318.974-.318 1.62v4.56h-1.603v-4.911c0-.857-.2-1.503-.601-1.937-.39-.434-.953-.651-1.687-.651-.524 0-.986.111-1.387.333a2.294 2.294 0 0 0-.935.986c-.223.434-.334.974-.334 1.62v4.56h-1.604v-8.853h1.537v2.356l-.251-.602a3.023 3.023 0 0 1 1.286-1.353c.579-.323 1.253-.484 2.022-.484.846 0 1.575.211 2.188.635.612.412 1.013 1.041 1.202 1.887l-.651-.267c.267-.68.735-1.225 1.403-1.637.668-.412 1.448-.618 2.339-.618Zm6.794 12.277c-.423 0-.835-.072-1.236-.217a2.832 2.832 0 0 1-1.036-.601l.685-1.203c.223.211.468.373.735.484.267.112.551.167.852.167.39 0 .713-.1.969-.3.256-.201.495-.557.718-1.069l.551-1.22.167-.2 3.475-8.035h1.57l-4.293 9.738c-.256.624-.545 1.114-.869 1.47-.311.357-.656.607-1.035.752a3.259 3.259 0 0 1-1.253.234Zm2.105-3.057-4.042-9.137h1.67l3.441 7.884-1.069 1.253Zm5.11.751v-1.036h8.352v1.036h-8.352Zm9.871-1.035v-12.394h1.603v12.394h-1.603Zm4.666 0v-8.853h1.603v8.853h-1.603Zm.802-10.556c-.312 0-.574-.101-.786-.301-.2-.201-.3-.445-.3-.735 0-.301.1-.551.3-.752.212-.2.474-.3.786-.3.311 0 .567.1.768.3.211.19.317.429.317.719 0 .3-.1.557-.301.768-.2.2-.462.301-.784.301Zm6.403 10.657a7.295 7.295 0 0 1-2.104-.301c-.657-.201-1.175-.445-1.554-.735l.669-1.269c.378.256.846.473 1.402.651a5.565 5.565 0 0 0 1.704.267c.746 0 1.281-.106 1.604-.317.334-.212.501-.507.501-.886 0-.278-.1-.495-.301-.651-.2-.156-.467-.273-.802-.351a11.263 11.263 0 0 0-1.085-.2 23.187 23.187 0 0 1-1.203-.234 5.35 5.35 0 0 1-1.102-.401 2.167 2.167 0 0 1-.802-.718c-.201-.312-.301-.724-.301-1.236 0-.535.151-1.002.451-1.403.301-.401.724-.707 1.27-.919.556-.223 1.213-.334 1.971-.334.579 0 1.163.072 1.754.217.601.134 1.091.329 1.469.585l-.685 1.269a3.775 3.775 0 0 0-1.252-.551c-.435-.1-.869-.15-1.303-.15-.701 0-1.225.116-1.57.35-.345.223-.518.513-.518.869 0 .301.1.535.301.702.211.155.479.278.802.367.333.089.701.167 1.102.234.401.055.802.133 1.203.234.4.089.762.217 1.085.384.334.167.601.401.802.701.212.301.318.702.318 1.203 0 .535-.157.997-.468 1.387-.312.389-.752.695-1.32.918-.568.212-1.247.318-2.038.318Zm8.87-.002c-.891 0-1.581-.24-2.071-.719-.49-.479-.735-1.163-.735-2.054v-8.118h1.603v8.051c0 .479.117.846.351 1.103.245.256.59.384 1.036.384.501 0 .918-.14 1.252-.418l.501 1.152c-.245.212-.54.368-.885.468a3.616 3.616 0 0 1-1.052.151Zm-4.31-7.634v-1.319h5.646v1.319h-5.646Zm9.128 7.536V254.84l.718.785h-3.357v-1.453h4.292v11.692h-1.653Zm4.528-7.168v-1.32h7.483v1.32h-7.483Zm0 3.958v-1.319h7.483v1.319h-7.483Zm10.356 6.45v-15.635h3.491v1.32h-1.888v12.995h1.888v1.32h-3.491Zm5.091-10.422-.1-4.51h1.403l-.117 4.51h-1.186Zm3.024 0-.101-4.51h1.404l-.118 4.51h-1.185Zm4.104 7.182v-11.692h4.56c1.025 0 1.899.161 2.622.484.724.323 1.281.791 1.671 1.403.39.613.585 1.342.585 2.188 0 .847-.195 1.576-.585 2.189-.39.601-.947 1.069-1.671 1.403-.723.323-1.597.484-2.622.484h-3.641l.751-.785v4.326h-1.67Zm1.67-4.159-.751-.835h3.591c1.069 0 1.876-.228 2.422-.685.557-.456.835-1.102.835-1.938 0-.835-.278-1.481-.835-1.937-.546-.457-1.353-.685-2.422-.685h-3.591l.751-.835v6.915Zm10.422 7.499a3.61 3.61 0 0 1-1.237-.217 2.82 2.82 0 0 1-1.035-.601l.685-1.203c.222.211.467.373.735.484.267.112.551.167.852.167.389 0 .712-.1.968-.3.256-.201.496-.557.719-1.069l.551-1.22.167-.2 3.474-8.035h1.57l-4.292 9.738c-.257.624-.546 1.114-.869 1.47-.312.357-.657.607-1.036.752a3.254 3.254 0 0 1-1.252.234Zm2.104-3.057-4.042-9.137h1.67l3.441 7.884-1.069 1.253Zm10.126-.185c-.891 0-1.582-.24-2.072-.719s-.734-1.163-.734-2.054v-8.118h1.603v8.051c0 .479.117.846.351 1.103.245.256.59.384 1.036.384.5 0 .918-.14 1.252-.418l.501 1.152c-.245.212-.54.368-.885.468a3.616 3.616 0 0 1-1.052.151Zm-4.31-7.634v-1.319h5.646v1.319h-5.646Zm12.912-1.401c.724 0 1.359.139 1.904.417a2.99 2.99 0 0 1 1.303 1.27c.312.568.468 1.286.468 2.155v5.094h-1.604v-4.911c0-.857-.211-1.503-.635-1.937-.411-.434-.996-.651-1.753-.651-.568 0-1.064.111-1.487.333a2.344 2.344 0 0 0-.986.986c-.222.434-.333.974-.333 1.62v4.56h-1.604v-12.394h1.604v5.93l-.318-.635c.29-.579.735-1.03 1.336-1.353.602-.323 1.303-.484 2.105-.484Zm10.436 9.037c-.891 0-1.682-.195-2.372-.585a4.346 4.346 0 0 1-1.637-1.604c-.401-.69-.602-1.47-.602-2.338 0-.88.201-1.659.602-2.339a4.222 4.222 0 0 1 1.637-1.586c.69-.39 1.481-.585 2.372-.585.88 0 1.664.195 2.354.585a4.08 4.08 0 0 1 1.638 1.586c.401.669.6 1.448.6 2.339 0 .88-.199 1.659-.6 2.338a4.197 4.197 0 0 1-1.638 1.604c-.69.39-1.474.585-2.354.585Zm0-1.404c.568 0 1.075-.128 1.52-.384a2.712 2.712 0 0 0 1.069-1.086c.256-.478.383-1.029.383-1.653 0-.635-.127-1.181-.383-1.637a2.712 2.712 0 0 0-1.069-1.086 2.994 2.994 0 0 0-1.52-.384c-.568 0-1.075.128-1.52.384a2.86 2.86 0 0 0-1.069 1.086c-.267.456-.401 1.002-.401 1.637 0 .624.134 1.175.401 1.653.267.468.624.83 1.069 1.086.445.256.952.384 1.52.384Zm11.534-7.633c.724 0 1.359.139 1.905.417a2.99 2.99 0 0 1 1.303 1.27c.311.568.467 1.286.467 2.155v5.094h-1.603v-4.911c0-.857-.212-1.503-.635-1.937-.412-.434-.997-.651-1.754-.651-.568 0-1.063.111-1.486.333a2.339 2.339 0 0 0-.986.986c-.223.434-.334.974-.334 1.62v4.56h-1.604v-8.853h1.537v2.389l-.25-.635a3.074 3.074 0 0 1 1.336-1.353c.601-.323 1.303-.484 2.104-.484Zm6.277 1.755-.1-4.51h1.403l-.117 4.51h-1.186Zm3.024 0-.101-4.51h1.404l-.117 4.51h-1.186Zm2.322 9.655.835-3.374.217.969c-.323 0-.596-.1-.818-.301-.212-.2-.318-.473-.318-.818 0-.334.106-.607.318-.819.222-.211.489-.317.801-.317.323 0 .585.111.785.334.2.211.301.479.301.802 0 .111-.011.222-.034.334-.011.1-.038.223-.083.367a4.214 4.214 0 0 1-.167.501l-.785 2.322h-1.052Zm3.137-9.655-.1-4.51h1.403l-.117 4.51h-1.186Zm3.023 0-.1-4.51h1.403l-.117 4.51h-1.186Zm5.605 7.316c-.69 0-1.336-.145-1.937-.434a3.728 3.728 0 0 1-1.47-1.253l.968-1.136c.323.445.685.79 1.086 1.036.412.234.863.35 1.353.35 1.336 0 2.004-.79 2.004-2.372v-6.564h-4.225v-1.453h5.879v7.934c0 1.303-.312 2.277-.935 2.923-.613.646-1.52.969-2.723.969Zm12.321-.135v-1.871l-.084-.35v-3.191c0-.679-.2-1.202-.601-1.57-.39-.379-.98-.568-1.771-.568-.523 0-1.035.09-1.536.268a3.851 3.851 0 0 0-1.27.684l-.668-1.202a4.724 4.724 0 0 1 1.637-.835 6.764 6.764 0 0 1 2.021-.301c1.214 0 2.149.295 2.806.885.657.591.986 1.492.986 2.706v5.345h-1.52Zm-2.907.101c-.657 0-1.236-.112-1.737-.335-.49-.222-.868-.529-1.136-.918a2.386 2.386 0 0 1-.4-1.353c0-.479.111-.913.334-1.303.234-.39.607-.702 1.119-.935.523-.234 1.225-.351 2.104-.351h2.807v1.152h-2.74c-.802 0-1.341.134-1.62.401-.278.268-.418.59-.418.969 0 .434.173.785.518 1.052.345.257.824.385 1.437.385.601 0 1.124-.134 1.57-.401.456-.268.785-.658.985-1.17l.318 1.103c-.212.523-.585.941-1.119 1.252-.535.301-1.209.452-2.022.452Zm9.556-.101-3.876-8.853h1.671l3.441 8.018h-.802l3.508-8.018h1.57l-3.875 8.853h-1.637Zm12.226 0v-1.871l-.084-.35v-3.191c0-.679-.2-1.202-.601-1.57-.39-.379-.98-.568-1.771-.568-.523 0-1.035.09-1.536.268a3.851 3.851 0 0 0-1.27.684l-.668-1.202a4.724 4.724 0 0 1 1.637-.835 6.764 6.764 0 0 1 2.021-.301c1.214 0 2.149.295 2.806.885.657.591.986 1.492.986 2.706v5.345h-1.52Zm-2.907.101c-.657 0-1.236-.112-1.737-.335-.49-.222-.868-.529-1.136-.918a2.387 2.387 0 0 1-.401-1.353c0-.479.112-.913.335-1.303.233-.39.606-.702 1.118-.935.524-.234 1.226-.351 2.105-.351h2.806v1.152h-2.739c-.802 0-1.342.134-1.62.401-.279.268-.418.59-.418.969 0 .434.173.785.518 1.052.345.257.824.385 1.437.385.601 0 1.124-.134 1.57-.401.456-.268.785-.658.985-1.17l.318 1.103c-.212.523-.585.941-1.12 1.252-.534.301-1.208.452-2.021.452Zm11.038.034a8.14 8.14 0 0 1-2.556-.401c-.813-.278-1.453-.635-1.921-1.069l.618-1.303c.446.39 1.013.713 1.704.969.69.256 1.409.384 2.155.384.679 0 1.23-.078 1.653-.234.423-.156.735-.367.936-.635.2-.278.3-.59.3-.935 0-.401-.133-.724-.401-.969-.256-.245-.595-.44-1.019-.584a9.944 9.944 0 0 0-1.369-.401 27.965 27.965 0 0 1-1.52-.384 7.436 7.436 0 0 1-1.387-.585 2.89 2.89 0 0 1-1.002-.935c-.256-.401-.384-.914-.384-1.537 0-.601.156-1.153.468-1.654.322-.512.812-.919 1.47-1.219.668-.312 1.514-.468 2.539-.468.679 0 1.352.089 2.021.267a5.634 5.634 0 0 1 1.737.769l-.551 1.336a5.215 5.215 0 0 0-1.587-.718 5.996 5.996 0 0 0-1.62-.234c-.658 0-1.197.084-1.621.251-.423.167-.735.389-.935.668a1.62 1.62 0 0 0-.284.935c0 .412.128.74.384.986.267.244.607.439 1.019.584.423.145.885.278 1.387.401.501.111 1.002.239 1.503.384.512.145.974.334 1.386.568a2.85 2.85 0 0 1 1.019.935c.256.39.384.891.384 1.504 0 .59-.161 1.141-.484 1.653-.323.502-.824.908-1.504 1.22-.668.3-1.514.451-2.538.451Zm10.589-.034c-.902 0-1.71-.195-2.422-.585a4.314 4.314 0 0 1-1.654-1.604c-.401-.679-.601-1.458-.601-2.338 0-.88.2-1.659.601-2.339a4.193 4.193 0 0 1 1.654-1.586c.712-.39 1.52-.585 2.422-.585.802 0 1.514.161 2.138.484.634.312 1.124.78 1.47 1.403l-1.22.786a2.632 2.632 0 0 0-1.069-.953 2.888 2.888 0 0 0-1.336-.317c-.579 0-1.097.128-1.553.384a2.82 2.82 0 0 0-1.086 1.086c-.268.456-.401 1.002-.401 1.637 0 .634.133 1.186.401 1.653.267.468.629.83 1.086 1.086.456.256.974.384 1.553.384.479 0 .924-.1 1.336-.3.424-.212.78-.535 1.069-.969l1.22.768a3.55 3.55 0 0 1-1.47 1.42c-.624.323-1.336.485-2.138.485Zm5.683-.101v-8.853h1.536v2.406l-.15-.602a2.721 2.721 0 0 1 1.236-1.403c.579-.323 1.292-.484 2.138-.484v1.553a1.238 1.238 0 0 0-.201-.016h-.167c-.857 0-1.536.256-2.037.768-.501.512-.752 1.253-.752 2.222v4.409h-1.603Zm6.739 0v-8.853h1.604v8.853h-1.604Zm.802-10.556a1.1 1.1 0 0 1-.785-.301 1.002 1.002 0 0 1-.301-.735c0-.301.101-.551.301-.752.212-.2.473-.3.785-.3.312 0 .568.1.768.3.212.19.318.429.318.719 0 .3-.101.557-.301.768-.2.2-.462.301-.785.301Zm8.556 10.657a4.14 4.14 0 0 1-2.021-.502c-.601-.345-1.086-.852-1.453-1.52-.357-.668-.535-1.503-.535-2.505s.173-1.837.518-2.506c.356-.668.835-1.169 1.436-1.503.613-.334 1.298-.501 2.055-.501.869 0 1.637.189 2.305.568a4.185 4.185 0 0 1 1.587 1.587c.39.668.585 1.453.585 2.355 0 .902-.195 1.693-.585 2.372a4.185 4.185 0 0 1-1.587 1.587c-.668.378-1.436.568-2.305.568Zm-4.694 3.14V257.01h1.537v2.389l-.1 2.055.167 2.054v5.596h-1.604Zm4.56-4.544c.568 0 1.075-.128 1.52-.384a2.706 2.706 0 0 0 1.069-1.086c.268-.478.401-1.029.401-1.653 0-.635-.133-1.181-.401-1.637a2.706 2.706 0 0 0-1.069-1.086 2.994 2.994 0 0 0-1.52-.384c-.556 0-1.063.128-1.52.384a2.867 2.867 0 0 0-1.069 1.086c-.256.456-.384 1.002-.384 1.637 0 .624.128 1.175.384 1.653.268.468.624.83 1.069 1.086.457.256.964.384 1.52.384Zm9.867 1.402c-.89 0-1.581-.24-2.071-.719-.49-.479-.735-1.163-.735-2.054v-8.118h1.604v8.051c0 .479.117.846.35 1.103.246.256.591.384 1.036.384.501 0 .919-.14 1.253-.418l.501 1.152c-.245.212-.54.368-.885.468a3.618 3.618 0 0 1-1.053.151Zm-4.309-7.634v-1.319h5.646v1.319h-5.646Zm7.817.354-.1-4.51h1.403l-.117 4.51h-1.186Zm3.024 0-.101-4.51h1.403l-.117 4.51h-1.185Zm2.32 9.655.835-3.374.218.969c-.323 0-.596-.1-.819-.301-.211-.2-.317-.473-.317-.818 0-.334.106-.607.317-.819.223-.211.49-.317.802-.317.323 0 .584.111.785.334.2.211.301.479.301.802 0 .111-.012.222-.034.334-.011.1-.039.223-.083.367a4.406 4.406 0 0 1-.167.501l-.785 2.322h-1.053Zm3.139-9.655-.101-4.51h1.404l-.117 4.51h-1.186Zm3.023 0-.1-4.51h1.403l-.117 4.51h-1.186Zm9.331 7.316a6.884 6.884 0 0 1-2.473-.434 6.079 6.079 0 0 1-1.954-1.253 6.07 6.07 0 0 1-1.286-1.905c-.312-.723-.467-1.519-.467-2.388 0-.868.155-1.665.467-2.388a5.724 5.724 0 0 1 1.303-1.888 5.716 5.716 0 0 1 1.954-1.253 6.66 6.66 0 0 1 2.473-.451c.901 0 1.731.156 2.488.468.769.3 1.42.752 1.955 1.353l-1.086 1.052a4.237 4.237 0 0 0-1.503-1.035 4.569 4.569 0 0 0-1.788-.351 4.98 4.98 0 0 0-1.837.334 4.388 4.388 0 0 0-1.453.935c-.412.401-.735.88-.969 1.437a4.675 4.675 0 0 0-.334 1.787c0 .646.111 1.247.334 1.804a4.36 4.36 0 0 0 .969 1.42c.412.401.896.713 1.453.935a4.98 4.98 0 0 0 1.837.334c.635 0 1.231-.111 1.788-.334a4.352 4.352 0 0 0 1.503-1.069l1.086 1.052a5.179 5.179 0 0 1-1.955 1.37c-.757.312-1.592.468-2.505.468Zm9.246-2.324v-7.316h1.403v7.316h-1.403Zm-3.04-2.99v-1.319h7.483v1.319h-7.483Zm12.762 2.99v-7.316h1.402v7.316h-1.402Zm-3.041-2.99v-1.319h7.484v1.319h-7.484Zm9.758-2.002-.1-4.51h1.403l-.117 4.51h-1.186Zm3.023 0-.1-4.51h1.403l-.117 4.51h-1.186Zm6.287 10.422h-3.491v-1.32h1.888v-12.995h-1.888v-1.32h3.491v15.635Zm-295.593 11.95c.712 0 1.341.139 1.887.418a2.91 2.91 0 0 1 1.27 1.269c.311.568.467 1.286.467 2.155v5.094h-1.603v-4.91c0-.858-.201-1.504-.602-1.938-.4-.434-.963-.651-1.687-.651-.534 0-1.002.111-1.403.334a2.28 2.28 0 0 0-.935.985c-.212.435-.318.975-.318 1.62v4.56h-1.603v-4.91c0-.858-.2-1.504-.601-1.938-.39-.434-.953-.651-1.687-.651-.524 0-.986.111-1.387.334a2.286 2.286 0 0 0-.935.985c-.223.435-.334.975-.334 1.62v4.56h-1.604v-8.852h1.537v2.355l-.251-.602a3.016 3.016 0 0 1 1.286-1.352c.579-.323 1.253-.485 2.022-.485.846 0 1.575.212 2.188.635.612.412 1.013 1.041 1.202 1.887l-.651-.267c.267-.679.735-1.225 1.403-1.637.668-.412 1.448-.618 2.339-.618Zm6.794 12.277c-.423 0-.835-.072-1.236-.217a2.832 2.832 0 0 1-1.036-.601l.685-1.203c.223.211.468.373.735.484.267.112.551.168.852.168.39 0 .713-.101.969-.301.256-.201.495-.557.718-1.069l.551-1.219.167-.201 3.475-8.034h1.57l-4.293 9.738c-.256.623-.545 1.113-.869 1.47-.311.356-.656.606-1.035.751a3.259 3.259 0 0 1-1.253.234Zm2.105-3.057-4.042-9.136h1.67l3.441 7.884-1.069 1.252Zm5.11.751v-1.036h8.352v1.036h-8.352Zm9.871-1.035v-12.394h1.603v12.394h-1.603Zm4.666 0v-8.852h1.603v8.852h-1.603Zm.802-10.556c-.312 0-.574-.1-.786-.301a1 1 0 0 1-.3-.735c0-.3.1-.551.3-.751.212-.201.474-.301.786-.301.311 0 .567.1.768.301a.922.922 0 0 1 .317.718c0 .3-.1.557-.301.768-.2.201-.462.301-.784.301Zm6.403 10.657c-.735 0-1.436-.1-2.104-.301-.657-.2-1.175-.446-1.554-.735l.669-1.27c.378.257.846.474 1.402.652a5.565 5.565 0 0 0 1.704.267c.746 0 1.281-.106 1.604-.317.334-.212.501-.507.501-.885 0-.279-.1-.496-.301-.652-.2-.156-.467-.273-.802-.351a11.263 11.263 0 0 0-1.085-.2 23.187 23.187 0 0 1-1.203-.234 5.35 5.35 0 0 1-1.102-.401 2.167 2.167 0 0 1-.802-.718c-.201-.312-.301-.724-.301-1.236 0-.534.151-1.002.451-1.403.301-.401.724-.707 1.27-.919.556-.223 1.213-.334 1.971-.334.579 0 1.163.073 1.754.217.601.134 1.091.329 1.469.585l-.685 1.269a3.775 3.775 0 0 0-1.252-.551c-.435-.1-.869-.15-1.303-.15-.701 0-1.225.117-1.57.351-.345.222-.518.512-.518.868 0 .301.1.535.301.702.211.156.479.278.802.367.333.089.701.167 1.102.234a11.6 11.6 0 0 1 1.203.234c.4.089.762.217 1.085.384.334.167.601.401.802.701.212.301.318.702.318 1.203 0 .535-.157.997-.468 1.386-.312.391-.752.697-1.32.919-.568.212-1.247.318-2.038.318Zm8.87-.002c-.891 0-1.581-.239-2.071-.719-.49-.478-.735-1.163-.735-2.054v-8.118h1.603v8.051c0 .479.117.847.351 1.103.245.256.59.384 1.036.384.501 0 .918-.139 1.252-.418l.501 1.153c-.245.211-.54.367-.885.468-.334.1-.685.15-1.052.15Zm-4.31-7.634v-1.319h5.646v1.319h-5.646Zm7.17 7.536v-1.135l4.76-4.594c.424-.401.735-.752.936-1.052.211-.312.35-.596.417-.852.078-.267.117-.523.117-.768 0-.602-.211-1.075-.635-1.42-.423-.345-1.041-.518-1.854-.518-.623 0-1.185.106-1.687.317a3.295 3.295 0 0 0-1.302.952l-1.136-.985c.445-.568 1.041-1.002 1.787-1.303.757-.312 1.587-.468 2.489-.468.813 0 1.52.134 2.121.401.601.256 1.064.629 1.387 1.119.333.49.501 1.069.501 1.738 0 .378-.05.751-.151 1.119-.1.367-.289.757-.568 1.169-.278.412-.679.874-1.202 1.386l-4.243 4.092-.401-.651h7.066v1.453h-8.402Zm10.091-7.168v-1.32h7.484v1.32h-7.484Zm0 3.959v-1.32h7.484v1.32h-7.484Zm10.357 6.449v-15.635h3.491v1.32h-1.888v12.995h1.888v1.32h-3.491Zm5.091-10.422-.1-4.51h1.403l-.117 4.51h-1.186Zm3.024 0-.1-4.51h1.402l-.116 4.51h-1.186Zm5.606 7.316a4.414 4.414 0 0 1-1.938-.434 3.734 3.734 0 0 1-1.47-1.253l.969-1.136a3.81 3.81 0 0 0 1.085 1.036 2.71 2.71 0 0 0 1.354.351c1.336 0 2.004-.791 2.004-2.372v-6.565h-4.226v-1.453h5.88v7.934c0 1.303-.312 2.277-.936 2.923-.612.646-1.52.969-2.722.969Zm12.32-.135v-1.87l-.083-.351v-3.191c0-.679-.201-1.202-.602-1.569-.389-.379-.98-.569-1.77-.569-.523 0-1.036.089-1.537.268a3.83 3.83 0 0 0-1.269.685l-.668-1.203a4.72 4.72 0 0 1 1.636-.835 6.766 6.766 0 0 1 2.022-.301c1.213 0 2.149.295 2.806.886.657.589.985 1.492.985 2.705v5.345h-1.52Zm-2.906.101c-.657 0-1.236-.112-1.737-.334-.49-.223-.869-.529-1.136-.919a2.387 2.387 0 0 1-.401-1.353c0-.479.111-.913.334-1.303.234-.39.607-.702 1.119-.935.523-.234 1.225-.351 2.105-.351h2.806v1.152h-2.739c-.802 0-1.342.134-1.62.401-.279.267-.418.59-.418.969 0 .434.172.785.517 1.052.346.256.825.384 1.437.384.602 0 1.125-.133 1.57-.4.457-.268.785-.657.986-1.169l.317 1.102c-.212.523-.584.941-1.119 1.253-.534.3-1.208.451-2.021.451Zm9.554-.101-3.875-8.852h1.67l3.441 8.017h-.802l3.508-8.017h1.57l-3.875 8.852h-1.637Zm12.227 0v-1.87l-.084-.351v-3.191c0-.679-.2-1.202-.601-1.569-.39-.379-.98-.569-1.771-.569-.523 0-1.035.089-1.536.268a3.835 3.835 0 0 0-1.27.685l-.668-1.203a4.724 4.724 0 0 1 1.637-.835 6.764 6.764 0 0 1 2.021-.301c1.214 0 2.149.295 2.806.886.657.589.986 1.492.986 2.705v5.345h-1.52Zm-2.907.101c-.657 0-1.236-.112-1.737-.334-.49-.223-.868-.529-1.136-.919a2.386 2.386 0 0 1-.4-1.353c0-.479.111-.913.333-1.303.234-.39.608-.702 1.12-.935.523-.234 1.225-.351 2.104-.351h2.806v1.152h-2.739c-.802 0-1.342.134-1.62.401s-.418.59-.418.969c0 .434.173.785.518 1.052.345.256.824.384 1.436.384.602 0 1.125-.133 1.571-.4.456-.268.785-.657.985-1.169l.318 1.102c-.212.523-.585.941-1.12 1.253-.534.3-1.208.451-2.021.451Zm7.027-7.282-.1-4.51h1.403l-.117 4.51h-1.186Zm3.023 0-.1-4.51h1.403l-.117 4.51h-1.186Zm2.321 9.656.835-3.375.217.969c-.322 0-.595-.1-.818-.301-.212-.2-.317-.473-.317-.818 0-.334.105-.607.317-.819.223-.211.49-.317.802-.317.323 0 .584.112.785.334.2.212.3.479.3.802 0 .111-.011.223-.033.334a2.11 2.11 0 0 1-.083.368c-.034.133-.09.3-.167.501l-.786 2.322h-1.052Zm8.535-9.656-.099-4.51h1.402l-.116 4.51h-1.187Zm3.024 0-.1-4.51h1.403l-.117 4.51h-1.186Zm5.608 1.019h6.03v1.436h-6.03v-1.436Zm.166 6.163h-1.67v-11.692h8.252v1.453h-6.582v10.239Zm8.697-.001v-12.394h1.604v12.394h-1.604Zm8.39.101c-.757 0-1.425-.139-2.004-.418a3.054 3.054 0 0 1-1.336-1.27c-.312-.579-.468-1.302-.468-2.171v-5.094h1.604v4.91c0 .869.205 1.52.618 1.955.423.434 1.013.651 1.77.651.557 0 1.041-.111 1.453-.334.412-.234.73-.568.952-1.002.223-.445.335-.98.335-1.604v-4.576h1.603v8.852h-1.52v-2.388l.25.635a3.093 3.093 0 0 1-1.302 1.369c-.58.323-1.231.485-1.955.485Zm10.623-.002c-.891 0-1.581-.239-2.071-.719-.49-.478-.735-1.163-.735-2.054v-8.118h1.603v8.051c0 .479.117.847.351 1.103.245.256.59.384 1.036.384.501 0 .918-.139 1.252-.418l.502 1.153a2.357 2.357 0 0 1-.886.468c-.334.1-.685.15-1.052.15Zm-4.31-7.634v-1.319h5.646v1.319h-5.646Zm11.012 7.634c-.891 0-1.582-.239-2.072-.719-.49-.478-.735-1.163-.735-2.054v-8.118h1.604v8.051c0 .479.117.847.351 1.103.245.256.59.384 1.035.384.501 0 .919-.139 1.253-.418l.501 1.153c-.245.211-.54.367-.885.468-.334.1-.685.15-1.052.15Zm-4.31-7.634v-1.319h5.646v1.319h-5.646Zm11.836 7.636c-.946 0-1.781-.195-2.505-.585a4.29 4.29 0 0 1-1.671-1.603c-.389-.68-.584-1.459-.584-2.339 0-.88.189-1.659.568-2.338a4.157 4.157 0 0 1 1.587-1.587c.679-.39 1.442-.585 2.288-.585.857 0 1.614.189 2.272.568a3.946 3.946 0 0 1 1.536 1.604c.379.679.568 1.475.568 2.388 0 .067-.005.145-.016.234 0 .089-.006.173-.017.25h-7.534v-1.152h6.699l-.652.401c.011-.568-.106-1.075-.351-1.52a2.598 2.598 0 0 0-1.019-1.036c-.423-.256-.918-.384-1.486-.384-.557 0-1.052.128-1.487.384a2.58 2.58 0 0 0-1.019 1.053c-.245.445-.367.957-.367 1.536v.267c0 .591.133 1.12.401 1.588.278.456.662.812 1.152 1.069.49.256 1.053.384 1.687.384.524 0 .997-.09 1.42-.268a3.106 3.106 0 0 0 1.136-.801l.885 1.035a3.865 3.865 0 0 1-1.503 1.069c-.59.245-1.253.368-1.988.368Zm6.285-.101v-8.852h1.537v2.405l-.15-.601a2.714 2.714 0 0 1 1.236-1.403c.579-.323 1.292-.485 2.138-.485v1.554a1.137 1.137 0 0 0-.201-.017h-.167c-.857 0-1.536.256-2.037.768-.502.512-.752 1.253-.752 2.222v4.409h-1.604Zm6.483-7.181-.1-4.51h1.403l-.117 4.51h-1.186Zm3.024 0-.101-4.51h1.403l-.117 4.51h-1.185Zm2.321 9.656.836-3.375.217.969c-.323 0-.596-.1-.819-.301-.211-.2-.317-.473-.317-.818 0-.334.106-.607.317-.819.223-.211.49-.317.802-.317.323 0 .584.112.785.334.2.212.301.479.301.802 0 .111-.012.223-.034.334a2.11 2.11 0 0 1-.083.368 4.54 4.54 0 0 1-.167.501l-.785 2.322h-1.053Zm8.535-9.656-.1-4.51h1.403l-.117 4.51h-1.186Zm3.023 0-.1-4.51h1.403l-.117 4.51h-1.186Zm7.512 7.316a8.14 8.14 0 0 1-2.556-.401c-.813-.278-1.453-.634-1.92-1.069l.618-1.303c.445.39 1.013.713 1.703.969a6.153 6.153 0 0 0 2.155.384c.679 0 1.231-.078 1.654-.233.423-.157.735-.368.935-.635.201-.279.301-.591.301-.936 0-.401-.134-.724-.401-.968-.256-.246-.596-.441-1.019-.585a9.96 9.96 0 0 0-1.37-.401 29.173 29.173 0 0 1-1.52-.384 7.398 7.398 0 0 1-1.386-.585 2.88 2.88 0 0 1-1.002-.935c-.256-.401-.384-.913-.384-1.537 0-.601.155-1.152.467-1.654.323-.512.813-.918 1.47-1.219.668-.312 1.515-.468 2.539-.468.679 0 1.353.089 2.021.268a5.633 5.633 0 0 1 1.737.768l-.551 1.336a5.215 5.215 0 0 0-1.587-.718 5.996 5.996 0 0 0-1.62-.234c-.657 0-1.197.084-1.62.251-.423.167-.735.39-.936.668-.189.278-.284.59-.284.935 0 .412.129.741.385.986.267.245.607.439 1.018.584.424.145.886.279 1.387.401.501.112 1.002.24 1.503.385.512.144.975.333 1.386.567.424.234.763.546 1.019.936.257.389.385.891.385 1.503 0 .59-.162 1.141-.485 1.654-.323.501-.824.907-1.503 1.219-.668.301-1.515.451-2.539.451Zm8.442-.135-3.291-8.852h1.52l2.923 8.017h-.718l3.04-8.017h1.353l2.973 8.017h-.701l2.99-8.017h1.436l-3.307 8.852h-1.537l-2.789-7.316h.468l-2.823 7.316h-1.537Zm13.153 0v-8.852h1.603v8.852h-1.603Zm.802-10.556c-.312 0-.574-.1-.786-.301a1 1 0 0 1-.3-.735c0-.3.1-.551.3-.751.212-.201.474-.301.786-.301.312 0 .568.1.768.301a.919.919 0 0 1 .317.718c0 .3-.1.557-.3.768-.201.201-.463.301-.785.301Zm4.097 10.555v-9.638c0-.869.25-1.559.751-2.072.513-.523 1.236-.785 2.172-.785.345 0 .673.045.985.134.323.078.596.206.819.384l-.485 1.22a1.736 1.736 0 0 0-.567-.301 1.922 1.922 0 0 0-.669-.117c-.468 0-.824.133-1.069.401-.245.256-.367.64-.367 1.153v1.185l.033.735v7.701h-1.603Zm-1.504-7.534v-1.319h5.646v1.319h-5.646Zm10.197 7.634c-.891 0-1.581-.239-2.071-.719-.49-.478-.735-1.163-.735-2.054v-8.118h1.603v8.051c0 .479.117.847.351 1.103.245.256.59.384 1.036.384.501 0 .918-.139 1.252-.418l.502 1.153a2.357 2.357 0 0 1-.886.468c-.334.1-.685.15-1.052.15Zm-4.31-7.634v-1.319h5.646v1.319h-5.646Zm7.817.354-.1-4.51h1.403l-.116 4.51h-1.187Zm3.024 0-.1-4.51h1.403l-.117 4.51h-1.186Zm6.291 10.422h-3.491v-1.32h1.887v-12.995h-1.887v-1.32h3.491v15.635Zm-272.637 20.888 1.437-11.693h1.186l-1.436 11.693h-1.187Zm-6.28-3.007v-1.219h10.306v1.219h-10.306Zm1.938 3.007 1.453-11.693h1.186l-1.453 11.693h-1.186Zm-1.404-7.467v-1.219h10.307v1.219h-10.307Zm16.222 7.566c-.947 0-1.782-.195-2.506-.585a4.28 4.28 0 0 1-1.67-1.603c-.39-.679-.585-1.459-.585-2.339 0-.879.189-1.659.568-2.338a4.178 4.178 0 0 1 1.587-1.587c.679-.39 1.442-.585 2.288-.585.858 0 1.615.19 2.272.568a3.946 3.946 0 0 1 1.536 1.604c.379.679.569 1.475.569 2.388 0 .067-.006.145-.017.234a1.8 1.8 0 0 1-.017.251h-7.533v-1.153h6.698l-.651.401c.01-.568-.106-1.074-.351-1.52a2.618 2.618 0 0 0-1.019-1.036c-.423-.256-.919-.384-1.487-.384-.557 0-1.052.128-1.486.384a2.58 2.58 0 0 0-1.019 1.053c-.245.445-.368.957-.368 1.536v.268c0 .59.134 1.119.401 1.586.278.457.663.813 1.152 1.069.49.257 1.053.385 1.688.385.523 0 .996-.089 1.42-.267a3.125 3.125 0 0 0 1.135-.802l.885 1.035a3.85 3.85 0 0 1-1.503 1.069c-.59.245-1.253.368-1.987.368Zm4.754-.101 3.809-4.944-.017.819-3.625-4.727h1.788l2.773 3.641h-.685l2.772-3.641h1.754l-3.674 4.76.016-.852 3.842 4.944h-1.821l-2.923-3.875.652.101-2.873 3.774h-1.788Zm15.833 0v-1.87l-.083-.351v-3.19c0-.68-.201-1.203-.602-1.57-.389-.379-.98-.568-1.77-.568-.523 0-1.036.089-1.537.267a3.83 3.83 0 0 0-1.269.685l-.668-1.203a4.733 4.733 0 0 1 1.637-.835 6.792 6.792 0 0 1 2.021-.301c1.214 0 2.149.295 2.806.885.657.591.986 1.493.986 2.706v5.345h-1.521Zm-2.906.101c-.657 0-1.236-.111-1.737-.334-.49-.223-.869-.529-1.136-.919a2.387 2.387 0 0 1-.401-1.353c0-.479.111-.913.334-1.303.234-.389.607-.701 1.119-.935.524-.234 1.225-.351 2.105-.351h2.806v1.153h-2.739c-.802 0-1.342.133-1.62.4a1.295 1.295 0 0 0-.418.969c0 .434.172.785.518 1.053.345.256.824.384 1.436.384.602 0 1.125-.134 1.57-.401a2.27 2.27 0 0 0 .986-1.169l.317 1.102c-.211.524-.584.941-1.119 1.253-.534.301-1.208.451-2.021.451Zm18.469-9.037c.712 0 1.341.139 1.887.418.546.278.969.701 1.269 1.269.312.568.469 1.286.469 2.155v5.094h-1.604v-4.91c0-.858-.2-1.504-.601-1.938-.401-.434-.964-.651-1.688-.651-.534 0-1.002.111-1.403.334a2.28 2.28 0 0 0-.935.985c-.212.434-.317.975-.317 1.621v4.559h-1.604v-4.91c0-.858-.199-1.504-.6-1.938-.39-.434-.953-.651-1.688-.651-.523 0-.985.111-1.386.334a2.286 2.286 0 0 0-.935.985c-.223.434-.334.975-.334 1.621v4.559h-1.605v-8.852h1.537v2.355l-.25-.601a3.023 3.023 0 0 1 1.286-1.353c.579-.323 1.253-.485 2.022-.485.846 0 1.574.212 2.187.635.612.412 1.014 1.041 1.203 1.887l-.651-.267c.267-.679.735-1.225 1.403-1.637.668-.412 1.447-.618 2.338-.618Zm11.269 9.037a4.15 4.15 0 0 1-2.021-.501c-.602-.346-1.086-.852-1.453-1.52-.357-.668-.535-1.504-.535-2.506 0-1.002.173-1.837.518-2.505.356-.668.835-1.17 1.436-1.504.613-.334 1.298-.501 2.055-.501.868 0 1.637.19 2.305.568a4.185 4.185 0 0 1 1.587 1.587c.39.668.584 1.453.584 2.355 0 .902-.194 1.693-.584 2.372a4.185 4.185 0 0 1-1.587 1.587c-.668.378-1.437.568-2.305.568Zm-4.694 3.14v-12.093h1.537v2.389l-.1 2.054.167 2.054v5.596h-1.604Zm4.56-4.543c.568 0 1.075-.128 1.52-.385a2.71 2.71 0 0 0 1.069-1.085c.268-.479.401-1.03.401-1.654 0-.635-.133-1.18-.401-1.637a2.71 2.71 0 0 0-1.069-1.085 2.994 2.994 0 0 0-1.52-.384c-.557 0-1.063.128-1.52.384a2.864 2.864 0 0 0-1.069 1.085c-.256.457-.384 1.002-.384 1.637 0 .624.128 1.175.384 1.654.267.467.624.829 1.069 1.085.457.257.963.385 1.52.385Zm6.826 1.302v-12.393h1.604v12.393h-1.604Zm8.61.101c-.947 0-1.782-.195-2.505-.585a4.29 4.29 0 0 1-1.671-1.603c-.39-.679-.585-1.459-.585-2.339 0-.879.19-1.659.569-2.338a4.168 4.168 0 0 1 1.586-1.587c.68-.39 1.442-.585 2.289-.585.857 0 1.614.19 2.271.568a3.954 3.954 0 0 1 1.537 1.604c.379.679.568 1.475.568 2.388 0 .067-.006.145-.017.234 0 .089-.005.173-.017.251h-7.533v-1.153h6.698l-.651.401c.011-.568-.106-1.074-.351-1.52a2.611 2.611 0 0 0-1.019-1.036c-.423-.256-.918-.384-1.486-.384-.557 0-1.053.128-1.487.384a2.586 2.586 0 0 0-1.019 1.053c-.245.445-.367.957-.367 1.536v.268c0 .59.133 1.119.4 1.586.279.457.663.813 1.153 1.069.49.257 1.052.385 1.687.385.524 0 .997-.089 1.42-.267a3.129 3.129 0 0 0 1.136-.802l.885 1.035a3.865 3.865 0 0 1-1.503 1.069c-.591.245-1.253.368-1.988.368Zm12.023-.099v-11.025l.718.785h-3.357v-1.453h4.292v11.693h-1.653Z" fill="#1C1C20"/><path d="m853.031 318.845-235.793 87.428.968 2.611 235.793-87.429-.968-2.61ZM183.758 64 116 189.046l2.448 1.326 67.757-125.047-2.447-1.327Z" fill="#166FF5"/><path d="M210.854 368.565h96.076a.756.756 0 0 0 0-1.51h-96.076a.754.754 0 1 0 0 1.51Zm0 19.346h96.076a.755.755 0 1 0 0-1.509h-96.076a.754.754 0 0 0 0 1.509Zm113.473-59.714h96.076a.755.755 0 1 0 0-1.509h-96.076a.755.755 0 1 0 0 1.509Zm0 19.343h96.076a.755.755 0 1 0 0-1.509h-96.076a.755.755 0 1 0 0 1.509Z" fill="#1C1C20" stroke="#1C1C20" stroke-width=".5" stroke-miterlimit="22.926"/><path d="M425.235 301.656v-.756H211.283V145.509h213.198v156.147h1.509V144.754a.762.762 0 0 0-.22-.534.76.76 0 0 0-.535-.22H210.528a.758.758 0 0 0-.755.754v156.902a.753.753 0 0 0 .755.754h214.707c.2 0 .395-.08.535-.221a.76.76 0 0 0 .22-.533h-.755Z" fill="#166FF5"/><path d="M425.235 301.656v-.756H211.283V145.509h213.198v156.147h.754Zm0 0h.755m0 0V144.754a.762.762 0 0 0-.22-.534.76.76 0 0 0-.535-.22H210.528a.758.758 0 0 0-.755.754v156.902a.753.753 0 0 0 .755.754h214.707c.2 0 .395-.08.535-.221a.76.76 0 0 0 .22-.533Z" stroke="#166FF5" stroke-miterlimit="22.926"/><path d="m425.234 207.942.381-.652-29.493-17.18a.755.755 0 0 0-.94.148l-53.886 59.743-45.499-22.167a.758.758 0 0 0-.822.107l-84.94 73.144a.758.758 0 0 0-.215.833c.11.295.394.492.708.492h214.706c.2 0 .395-.08.535-.22a.765.765 0 0 0 .221-.535v-93.713a.755.755 0 0 0-.375-.652l-.381.652h-.754V300.9H212.56l83.023-71.49 45.562 22.195a.75.75 0 0 0 .89-.171l53.858-59.711 28.963 16.873.378-.654Z" fill="#166FF5"/><path d="m425.234 207.942.381-.652m-.381.652h-.754V300.9H212.56l83.023-71.49 45.562 22.195a.75.75 0 0 0 .89-.171l53.858-59.711 28.963 16.873.378-.654Zm.381-.652-29.493-17.18a.755.755 0 0 0-.94.148l-53.886 59.743-45.499-22.167a.759.759 0 0 0-.822.107l-84.94 73.144a.758.758 0 0 0-.215.833c.11.295.394.492.708.492h214.706c.2 0 .395-.08.535-.22a.765.765 0 0 0 .221-.535v-93.713a.753.753 0 0 0-.375-.652Z" stroke="#166FF5" stroke-miterlimit="22.926"/><path d="M273.051 183.682h-.754a20.418 20.418 0 0 1-5.999 14.481 20.418 20.418 0 0 1-14.483 5.998 20.415 20.415 0 0 1-14.481-5.998 20.41 20.41 0 0 1-5.999-14.481 20.407 20.407 0 0 1 5.999-14.482 20.411 20.411 0 0 1 14.481-5.999 20.414 20.414 0 0 1 14.483 5.999 20.415 20.415 0 0 1 5.999 14.482h1.508c0-12.145-9.845-21.991-21.99-21.991-12.144 0-21.989 9.846-21.989 21.991 0 12.144 9.845 21.989 21.989 21.989 12.145 0 21.99-9.845 21.99-21.989h-.754Z" fill="#166FF5"/><path d="M272.297 183.682h1.508m-1.508 0a20.418 20.418 0 0 1-5.999 14.481 20.418 20.418 0 0 1-14.483 5.998 20.415 20.415 0 0 1-14.481-5.998 20.41 20.41 0 0 1-5.999-14.481 20.407 20.407 0 0 1 5.999-14.482 20.411 20.411 0 0 1 14.481-5.999 20.414 20.414 0 0 1 14.483 5.999 20.415 20.415 0 0 1 5.999 14.482Zm0 0h1.508m0 0c0-12.145-9.845-21.991-21.99-21.991-12.144 0-21.989 9.846-21.989 21.991 0 12.144 9.845 21.989 21.989 21.989 12.145 0 21.99-9.845 21.99-21.989Z" stroke="#166FF5" stroke-miterlimit="22.926"/><path d="M798.302 329.088v2.209h-2.209a.736.736 0 1 0 0 1.472h2.946a.739.739 0 0 0 .735-.736v-2.945a.736.736 0 1 0-1.472 0Zm-129.298 2.209h-5.994a.737.737 0 0 0 0 1.473h5.994a.736.736 0 1 0 0-1.473Zm-11.987 0h-5.994a.737.737 0 0 0 0 1.473h5.994a.737.737 0 1 0 0-1.473Zm-11.987 0h-5.995a.737.737 0 0 0 0 1.473h5.995a.736.736 0 1 0 0-1.473Zm-11.987 0h-5.995a.737.737 0 0 0 0 1.473h5.995a.736.736 0 1 0 0-1.473Zm-11.989 0h-5.993a.737.737 0 0 0 0 1.473h5.993a.736.736 0 1 0 0-1.473Zm-11.987 0h-5.993a.738.738 0 0 0 0 1.473h5.993a.736.736 0 0 0 0-1.473Zm-11.988 0h-5.992a.736.736 0 1 0 0 1.473h5.992a.735.735 0 1 0 0-1.473Zm-11.987 0h-5.994a.737.737 0 0 0 0 1.473h5.994a.735.735 0 1 0 0-1.473Zm-11.988 0h-5.994a.736.736 0 0 0 0 1.473h5.994a.736.736 0 1 0 0-1.473Zm-11.987 0h-5.994a.736.736 0 0 0 0 1.473h5.994a.736.736 0 1 0 0-1.473Zm-11.989 0h-5.993a.737.737 0 0 0 0 1.473h5.993a.736.736 0 1 0 0-1.473Zm-11.986 0h-5.993a.737.737 0 0 0 0 1.473h5.993a.737.737 0 0 0 0-1.473Zm-11.988 0h-5.993a.736.736 0 1 0 0 1.473h5.993a.735.735 0 1 0 0-1.473Zm-11.987 0h-5.994a.737.737 0 0 0 0 1.473h5.994a.736.736 0 0 0 0-1.473Zm-11.988 0h-5.993a.737.737 0 0 0 0 1.473h5.993a.736.736 0 1 0 0-1.473Zm-11.986 0h-5.995a.736.736 0 0 0 0 1.473h5.995a.736.736 0 0 0 0-1.473Zm-11.988 0h-5.995a.736.736 0 0 0 0 1.473h5.995a.735.735 0 1 0 0-1.473Zm-11.989 0h-2.208v-2.209a.736.736 0 0 0-1.473 0v2.945c0 .195.08.384.216.521a.744.744 0 0 0 .52.215h2.945a.733.733 0 0 0 .736-.736.735.735 0 0 0-.736-.736Zm-2.208-8.081v-5.874a.737.737 0 0 0-1.473 0v5.874a.737.737 0 1 0 1.473 0Zm0-11.747v-5.872a.736.736 0 0 0-1.473 0v5.872a.736.736 0 1 0 1.473 0Zm0-11.745v-5.874a.736.736 0 1 0-1.473 0v5.874a.737.737 0 0 0 1.473 0Zm0-11.747v-5.873a.736.736 0 0 0-1.473 0v5.873a.737.737 0 1 0 1.473 0Zm0-11.747v-5.872a.735.735 0 1 0-1.473 0v5.872a.737.737 0 1 0 1.473 0Zm0-11.746v-5.873a.736.736 0 1 0-1.473 0v5.873a.737.737 0 1 0 1.473 0Zm0-11.747v-5.872a.736.736 0 0 0-1.473 0v5.872a.736.736 0 1 0 1.473 0Zm0-11.747v-2.209h2.208a.734.734 0 0 0 .736-.736.734.734 0 0 0-.736-.736h-2.945a.741.741 0 0 0-.736.736v2.945a.737.737 0 0 0 1.473 0Zm8.202-2.209h5.995a.735.735 0 1 0 0-1.472h-5.995a.735.735 0 0 0 0 1.472Zm11.988 0h5.995a.735.735 0 0 0 0-1.472h-5.995a.735.735 0 1 0 0 1.472Zm11.988 0h5.993a.736.736 0 1 0 0-1.472h-5.993a.736.736 0 1 0 0 1.472Zm11.988 0h5.993a.735.735 0 0 0 0-1.472h-5.993a.735.735 0 0 0-.736.736c0 .407.328.736.736.736Zm11.987 0h5.993a.735.735 0 1 0 0-1.472h-5.993a.736.736 0 1 0 0 1.472Zm11.988 0h5.993a.735.735 0 1 0 0-1.472h-5.993a.736.736 0 1 0 0 1.472Zm11.986 0h5.995a.736.736 0 1 0 0-1.472h-5.995a.737.737 0 0 0 0 1.472Zm11.988 0h5.994a.736.736 0 1 0 0-1.472h-5.994a.735.735 0 1 0 0 1.472Zm11.987 0h5.994a.736.736 0 1 0 0-1.472h-5.994a.735.735 0 0 0 0 1.472Zm11.988 0h5.994a.735.735 0 1 0 0-1.472h-5.994a.736.736 0 1 0 0 1.472Zm11.989 0h5.992a.735.735 0 1 0 0-1.472h-5.992a.735.735 0 1 0 0 1.472Zm11.987 0h5.993a.734.734 0 0 0 .735-.736.734.734 0 0 0-.735-.736h-5.993a.737.737 0 1 0 0 1.472Zm11.987 0h5.994a.735.735 0 1 0 0-1.472h-5.994a.736.736 0 1 0 0 1.472Zm11.987 0h5.995a.736.736 0 1 0 0-1.472h-5.995a.736.736 0 1 0 0 1.472Zm11.987 0h5.995a.736.736 0 1 0 0-1.472h-5.995a.736.736 0 1 0 0 1.472Zm11.988 0h5.994a.737.737 0 1 0 0-1.472h-5.994a.736.736 0 1 0 0 1.472Zm11.988 0h5.993a.736.736 0 1 0 0-1.472h-5.993a.734.734 0 0 0-.735.736c0 .407.328.736.735.736Zm133.082 0h2.209v2.209a.736.736 0 1 0 1.472 0v-2.945a.738.738 0 0 0-.735-.736h-2.946a.735.735 0 1 0 0 1.472Zm2.208 8.084v5.874a.736.736 0 1 0 1.472 0v-5.874a.736.736 0 1 0-1.472 0Zm0 11.746v5.873a.736.736 0 1 0 1.472 0v-5.873a.735.735 0 1 0-1.472 0Zm0 11.747v5.872a.736.736 0 1 0 1.472 0v-5.872a.734.734 0 0 0-.735-.736.734.734 0 0 0-.737.736Zm0 11.746v5.873a.736.736 0 1 0 1.472 0v-5.873a.736.736 0 1 0-1.472 0Zm0 11.746v5.874a.736.736 0 1 0 1.472 0v-5.874a.735.735 0 1 0-1.472 0Zm0 11.747v5.872a.735.735 0 1 0 1.472 0v-5.872a.736.736 0 1 0-1.472 0Zm0 11.745v5.874a.736.736 0 1 0 1.472 0v-5.874a.736.736 0 0 0-1.472 0Zm-122.807-78.561h5.994a.735.735 0 1 0 0-1.472h-5.994a.735.735 0 1 0 0 1.472Zm11.987 0h5.995a.736.736 0 1 0 0-1.472h-5.995a.736.736 0 1 0 0 1.472Zm11.988 0h5.993a.736.736 0 1 0 0-1.472h-5.993a.736.736 0 1 0 0 1.472Zm11.988 0h5.993a.736.736 0 1 0 0-1.472h-5.993a.735.735 0 0 0-.736.736c0 .407.328.736.736.736Zm11.988 0h5.992a.735.735 0 1 0 0-1.472h-5.992a.736.736 0 1 0 0 1.472Zm11.987 0h5.993a.735.735 0 0 0 .736-.736.735.735 0 0 0-.736-.736h-5.993a.737.737 0 1 0 0 1.472Zm11.987 0h5.995a.735.735 0 0 0 0-1.472h-5.995a.736.736 0 1 0 0 1.472Zm11.987 0h5.995a.736.736 0 1 0 0-1.472h-5.995a.736.736 0 1 0 0 1.472Zm11.988 0h5.994a.735.735 0 1 0 0-1.472h-5.994a.735.735 0 1 0 0 1.472Zm11.987 0h5.994a.736.736 0 1 0 0-1.472h-5.994a.737.737 0 1 0 0 1.472Zm5.994 92.513h-5.994a.737.737 0 1 0 0 1.473h5.994a.736.736 0 1 0 0-1.473Zm-11.987 0h-5.994a.737.737 0 0 0 0 1.473h5.994a.735.735 0 1 0 0-1.473Zm-11.987 0h-5.995a.737.737 0 0 0 0 1.473h5.995a.736.736 0 1 0 0-1.473Zm-11.99 0h-5.992a.737.737 0 0 0 0 1.473h5.992a.736.736 0 1 0 0-1.473Zm-11.986 0h-5.993a.737.737 0 1 0 0 1.473h5.993a.737.737 0 0 0 0-1.473Zm-11.988 0h-5.992a.736.736 0 1 0 0 1.473h5.992a.735.735 0 1 0 0-1.473Zm-11.987 0h-5.994a.738.738 0 0 0 0 1.473h5.994a.736.736 0 1 0 0-1.473Zm-11.988 0h-5.993a.738.738 0 0 0 0 1.473h5.993a.736.736 0 1 0 0-1.473Zm-11.986 0h-5.995a.737.737 0 0 0 0 1.473h5.995a.736.736 0 1 0 0-1.473Zm-11.988 0h-5.994a.737.737 0 0 0 0 1.473h5.994a.735.735 0 1 0 0-1.473Z" fill="#1C1C20" stroke="#1C1C20" stroke-width=".5" stroke-miterlimit="22.926"/><path d="m620.748 352.344-24.049 6.616 12.06 3.512 1.114 11.969 10.875-22.097Zm8.488-13.152h15.794v-15.794h-15.794v15.794Z" fill="#1C1C20"/><path d="M425.619 397.445v38.426a1.226 1.226 0 0 1-1.219 1.218H323.363a1.205 1.205 0 0 1-.857-.355 1.213 1.213 0 0 1-.361-.863v-38.426a1.212 1.212 0 0 1 .359-.862 1.23 1.23 0 0 1 .859-.356H424.4a1.245 1.245 0 0 1 .863.356 1.24 1.24 0 0 1 .356.862Z" fill="#166FF5"/><path d="m442.934 456.551 24.048 6.616-12.06 3.512-1.113 11.969-10.875-22.097Zm-26.426-13.148h15.794v-15.794h-15.794v15.794Z" fill="#1C1C20"/></svg>