<svg width="360" height="168" viewBox="0 0 360 168" fill="none" xmlns="http://www.w3.org/2000/svg">
<rect width="360" height="168" fill="white"/>
<g clip-path="url(#clip0_676_3)">
<mask id="mask0_676_3" style="mask-type:luminance" maskUnits="userSpaceOnUse" x="85" y="54" width="175" height="59">
<path d="M260 54H85V113H260V54Z" fill="white"/>
</mask>
<g mask="url(#mask0_676_3)">
<path d="M181.09 72.259V89.8304C181.09 94.164 183.199 96.8063 186.308 96.8063C188.048 96.8063 189.419 95.5379 188.891 94.0054C188.285 92.2086 185.623 93.3977 185.623 88.6414V72.259C185.623 70.7793 184.806 69.8545 183.357 69.8545C181.907 69.8545 181.09 70.7793 181.09 72.259ZM160.453 87.4524C160.453 92.6842 164.275 96.8063 170.574 96.8063C174.58 96.8063 178.006 95.4322 178.006 93.3184C178.006 92.1558 177.268 91.5217 176.293 91.5217C175.002 91.5217 173.315 92.8428 170.468 92.8428C167.912 92.8428 165.883 91.733 165.145 89.487H171.681C175.423 89.487 178.454 87.7166 178.454 84.2288C178.454 81.005 175.845 77.4643 170.337 77.4643C164.538 77.4643 160.453 81.4279 160.453 87.4524ZM164.934 86.1841C165.435 82.9077 167.859 81.4279 170.6 81.4279C172.656 81.4279 174 82.432 174 83.7795C174 85.3385 172.893 86.1841 170.363 86.1841H164.934ZM190.367 90.5703C190.367 94.0846 192.818 96.8063 196.825 96.8063C199.618 96.8063 202.228 95.4851 203.756 93.0012C204.152 94.7453 205.206 96.8063 207.657 96.8063C209.054 96.8063 210.029 96.0136 210.029 94.9302C210.029 92.9748 207.473 93.4241 207.473 91.3365V85.55C207.473 80.5823 204.573 77.4643 198.801 77.4643C194.4 77.4643 191.158 78.7063 191.158 80.6881C191.158 81.8507 191.949 82.5112 192.95 82.5112C194.453 82.5112 196.139 81.4279 198.907 81.4279C201.121 81.4279 202.649 82.3528 202.886 84.8629H196.877C192.766 84.8629 190.367 87.558 190.367 90.5703ZM194.848 90.7552C194.821 89.487 195.823 88.1659 197.826 88.1659H202.886C202.517 91.3365 199.75 93.2127 197.51 93.2127C195.928 93.2127 194.874 92.2614 194.848 90.7552ZM212.269 94.4809C212.269 95.8021 213.086 96.8063 214.536 96.8063C215.986 96.8063 216.803 95.8021 216.803 94.4809V85.55C216.803 82.432 218.41 81.375 220.018 81.375C221.52 81.375 222.469 82.432 222.469 84.5722V94.4809C222.469 95.8021 223.26 96.8063 224.709 96.8063C226.159 96.8063 226.976 95.8021 226.976 94.4809L227.029 85.55C227.055 82.432 228.61 81.375 230.218 81.375C231.72 81.375 232.669 82.432 232.669 84.5194L232.695 94.4809C232.695 95.8021 233.486 96.8063 234.935 96.8063C236.385 96.8063 237.202 95.8021 237.202 94.4809V83.7267C237.202 79.7368 235.277 77.4909 232.247 77.4909C230.06 77.4909 227.819 78.7591 226.607 80.9258C225.869 78.7063 224.13 77.4909 221.916 77.4909C219.939 77.4909 218.041 78.6535 216.803 80.5031V79.6047C216.803 78.4685 215.986 77.4643 214.536 77.4643C213.086 77.4643 212.269 78.4685 212.269 79.7896V94.4809ZM240.154 90.5703C240.154 94.0846 242.605 96.8063 246.611 96.8063C249.405 96.8063 252.014 95.4851 253.543 93.0012C253.939 94.7453 254.993 96.8063 257.443 96.8063C258.84 96.8063 259.816 96.0136 259.816 94.9302C259.816 92.9748 257.259 93.4241 257.259 91.3365V85.55C257.259 80.5823 254.36 77.4643 248.588 77.4643C244.186 77.4643 240.944 78.7063 240.944 80.6881C240.944 81.8507 241.736 82.5112 242.737 82.5112C244.24 82.5112 245.926 81.4279 248.693 81.4279C250.907 81.4279 252.436 82.3528 252.674 84.8629H246.664C242.552 84.8629 240.154 87.558 240.154 90.5703ZM244.634 90.7552C244.609 89.487 245.61 88.1659 247.614 88.1659H252.674C252.304 91.3365 249.537 93.2127 247.296 93.2127C245.715 93.2127 244.661 92.2614 244.634 90.7552Z" fill="#1c1c20"/>
<mask id="mask1_676_3" style="mask-type:luminance" maskUnits="userSpaceOnUse" x="85" y="54" width="60" height="59">
<path d="M144.322 54H85V113H144.322V54Z" fill="white"/>
</mask>
<g mask="url(#mask1_676_3)">
<path d="M114.662 113C115.86 113 117.041 112.929 118.201 112.792L131.717 82.025L124.302 63.5875L111.696 61.375L101.314 63.5875L99.0898 68.75L102.797 105.625L104.281 110.05C104.395 110.093 104.462 111.21 104.577 111.251C107.725 112.383 111.121 113 114.662 113Z" fill="white"/>
<path fill-rule="evenodd" clip-rule="evenodd" d="M117.502 112.115C117.434 112.5 117.753 112.844 118.142 112.799C132.883 111.085 144.322 98.6211 144.322 83.5C144.322 67.2076 131.042 54 114.661 54C98.2797 54 85 67.2076 85 83.5C85 96.298 93.1941 107.193 104.649 111.277C104.964 111.389 105.307 111.213 105.402 110.895C105.717 109.84 105.981 108.885 106.092 108.317C106.69 105.227 107.7 99.6282 108.028 95.4447C108.309 91.6281 108.327 87.6095 107.594 83.8341C107.551 83.6159 107.497 83.3382 107.467 83.1283C107.342 82.2465 107.391 81.3489 107.611 80.4861C107.832 79.6236 108.221 78.813 108.754 78.1009C109.288 77.3888 109.956 76.7892 110.721 76.3361C111.485 75.8831 112.332 75.5856 113.211 75.4608C114.882 75.1701 125.204 73.5763 125.204 76.4682C125.204 76.5907 124.894 76.5162 124.554 76.4343C124.285 76.3696 123.997 76.3002 123.83 76.3209C122.606 76.4731 122.786 77.9823 124.205 77.9227C125.097 77.8829 126.585 78.182 126.834 78.9586C128.077 82.8367 125.523 85.9523 121.956 87.1543C121.227 87.4267 120.489 87.6627 119.75 87.8987C119.327 88.034 118.904 88.1691 118.483 88.3113C118.091 88.4942 118.043 88.7287 118.107 89.2257C118.345 91.0772 118.423 91.8348 118.429 91.8936L118.43 91.9016C118.975 98.3024 118.723 104.746 117.678 111.085C117.621 111.43 117.562 111.776 117.502 112.115ZM110.883 66.7546C111.807 64.9906 112.632 63.8242 113.684 64.0112L113.685 64.0128L113.686 64.0144C114.741 64.2044 115.048 65.9356 114.589 67.484C114.227 69.0121 113.958 70.5609 113.784 72.1216C113.7 73.2362 112.614 74.0659 111.52 73.8514C110.469 73.6632 109.842 72.9753 109.826 71.6015C109.785 69.9242 110.148 68.2618 110.883 66.7546ZM107.584 74.6077C107.164 72.6981 106.901 70.7575 106.795 68.805C106.757 66.5175 106.309 64.6682 105.028 64.9485C103.794 65.2174 103.013 67.0236 102.69 69.295C102.459 71.2661 102.656 73.2635 103.265 75.1515C103.53 76.1105 104.212 77.9199 105.964 77.4644C107.539 77.0551 107.786 75.7088 107.584 74.6077Z" fill="#1c1c20"/>
<path d="M113.855 79.0272C113.6 78.857 113.301 78.7663 112.995 78.7666L112.993 78.7679L112.992 78.7693C112.582 78.77 112.189 78.9336 111.899 79.2241C111.609 79.5152 111.446 79.9096 111.445 80.321C111.445 80.6285 111.536 80.9292 111.707 81.1849C111.877 81.4406 112.12 81.6399 112.403 81.7575C112.686 81.875 112.999 81.9055 113.299 81.8454C113.6 81.7852 113.876 81.637 114.093 81.4192C114.31 81.2015 114.457 80.9244 114.517 80.6226C114.576 80.321 114.545 80.0083 114.427 79.7243C114.31 79.4402 114.111 79.1977 113.855 79.0272Z" fill="#1c1c20"/>
</g>
</g>
</g>
<defs>
<clipPath id="clip0_676_3">
<rect width="175" height="59" fill="white" transform="translate(85 54)"/>
</clipPath>
</defs>
</svg>
