<svg width="360" height="168" viewBox="0 0 360 168" fill="none" xmlns="http://www.w3.org/2000/svg">
<rect width="360" height="168" fill="white"/>
<path d="M112.908 94.2157C115.946 90.5158 117.607 85.8767 117.607 81.0893C117.607 76.3019 115.946 71.6627 112.908 67.9629L99.7656 81.0916L112.908 94.2157Z" fill="#1c1c20"/>
<path d="M110.037 97.0865L96.9125 83.9531L83.7885 97.0865L79.4805 101.394C84.3329 105.561 90.517 107.851 96.9125 107.851C103.308 107.851 109.492 105.561 114.345 101.394L110.037 97.0865ZM96.8799 90.2942L102.291 95.7373H91.4647L96.8799 90.2942Z" fill="#1c1c20"/>
<path d="M96.9152 60.3985C92.9962 60.3993 89.1579 61.5131 85.8471 63.6102C82.5362 65.7073 79.889 68.7014 78.2134 72.2442C76.5377 75.787 75.9026 79.7328 76.3819 83.6225C76.8612 87.5122 78.4352 91.1858 80.9208 94.2158L110.044 65.0973C106.346 62.0535 101.704 60.3921 96.9152 60.3985Z" fill="#1c1c20"/>
<path d="M141.172 69.2492C144.076 69.1457 146.904 70.1942 149.039 72.1662L147.178 75.0459C145.548 73.6631 143.495 72.8771 141.358 72.8175C136.855 72.8175 134.193 76.1578 134.193 80.1262C134.193 84.1784 136.924 87.756 141.372 87.756C143.703 87.6728 145.915 86.7065 147.559 85.053L149.602 87.8443C148.513 88.9583 147.21 89.8392 145.77 90.4335C144.33 91.0277 142.785 91.3229 141.228 91.301C139.761 91.3424 138.302 91.0826 136.94 90.5375C135.578 89.9924 134.342 89.1737 133.309 88.1319C132.276 87.0902 131.467 85.8476 130.934 84.481C130.4 83.1143 130.153 81.6528 130.206 80.1867C130.178 78.7402 130.443 77.303 130.984 75.9614C131.526 74.6198 132.333 73.4015 133.357 72.3798C134.381 71.3581 135.602 70.5541 136.945 70.0161C138.288 69.4781 139.725 69.2172 141.172 69.2492Z" fill="#1c1c20"/>
<path d="M160.462 81.3264H160.97V81.117C160.97 79.1026 159.709 78.414 158.029 78.414C156.524 78.5043 155.074 79.0135 153.842 79.8842L152.4 77.1486C154.151 75.9147 156.241 75.2547 158.383 75.2598C162.407 75.2598 164.752 77.4789 164.752 81.3543V90.9612H161.239V89.7005C161.239 89.3384 161.258 88.9766 161.295 88.6165H161.239C160.807 89.4677 160.138 90.176 159.313 90.6563C158.487 91.1366 157.541 91.3685 156.587 91.3241C153.852 91.3241 151.391 89.6121 151.391 86.5462C151.404 81.6567 157.969 81.3264 160.462 81.3264ZM157.545 88.3048C159.56 88.3048 161.002 86.1415 161.002 84.2806V83.9223H160.341C158.387 83.9223 155.224 84.1922 155.224 86.3229C155.23 86.6119 155.296 86.8965 155.42 87.158C155.543 87.4196 155.719 87.6523 155.938 87.841C156.157 88.0297 156.414 88.1702 156.691 88.2533C156.967 88.3364 157.259 88.3603 157.545 88.3234V88.3048Z" fill="#1c1c20"/>
<path d="M168.43 69.6113H172.212V85.5919C172.212 87.2714 172.784 87.6947 173.775 87.6947C173.966 87.694 174.157 87.6832 174.347 87.6621V90.9978C173.948 91.0545 173.546 91.0841 173.142 91.0862C171.044 91.0862 168.43 90.5466 168.43 86.1595V69.6113Z" fill="#1c1c20"/>
<path d="M176.961 69.6113H180.743V85.5919C180.743 87.2714 181.315 87.6947 182.306 87.6947C182.498 87.694 182.689 87.6832 182.879 87.6621V90.9978C182.479 91.0545 182.077 91.0841 181.674 91.0862C179.571 91.0862 176.961 90.5466 176.961 86.1595V69.6113Z" fill="#1c1c20"/>
<path d="M186.299 78.8926H184.312V75.8593H186.387V71.4443H190.109V75.8593H193.594V78.8926H190.109V84.8382C190.082 85.237 190.143 85.6368 190.288 86.0092C190.433 86.3816 190.659 86.7174 190.948 86.9928C191.238 87.2682 191.585 87.4764 191.964 87.6026C192.343 87.7287 192.746 87.7697 193.143 87.7226C193.373 87.7255 193.604 87.7052 193.831 87.6622V90.9978C193.444 91.0615 193.051 91.091 192.659 91.0862C190.528 91.0862 186.294 90.4582 186.294 85.3221L186.299 78.8926Z" fill="#1c1c20"/>
<path d="M204.208 75.2598C208.893 75.2598 212.647 78.5908 212.647 83.2803C212.647 87.9698 208.893 91.3008 204.236 91.3008C199.579 91.3008 195.797 87.993 195.797 83.2803C195.797 78.5675 199.551 75.2598 204.208 75.2598ZM204.236 88.0535C204.852 88.0519 205.46 87.9254 206.025 87.6819C206.591 87.4384 207.101 87.0829 207.525 86.6367C207.949 86.1906 208.278 85.6632 208.492 85.0863C208.707 84.5094 208.802 83.895 208.772 83.2803C208.802 82.6641 208.707 82.0482 208.492 81.4699C208.277 80.8917 207.946 80.3631 207.521 79.9163C207.096 79.4696 206.584 79.1139 206.017 78.8708C205.45 78.6278 204.839 78.5025 204.222 78.5025C203.605 78.5025 202.995 78.6278 202.428 78.8708C201.861 79.1139 201.349 79.4696 200.923 79.9163C200.498 80.3631 200.168 80.8917 199.952 81.4699C199.737 82.0482 199.642 82.6641 199.672 83.2803C199.645 83.8967 199.743 84.5122 199.96 85.0897C200.177 85.6672 200.509 86.1949 200.936 86.6408C201.362 87.0868 201.874 87.4418 202.441 87.6846C203.009 87.9274 203.619 88.0529 204.236 88.0535Z" fill="#1c1c20"/>
<path d="M215.609 75.6084H219.424V84.6803C219.424 86.5412 219.889 87.8067 221.797 87.8067C224.56 87.8067 226.091 85.3735 226.091 82.638V75.6084H229.906V90.9609H226.24V89.2209C226.24 88.8587 226.26 88.4968 226.3 88.1369H226.24C225.736 89.1086 224.972 89.921 224.033 90.4837C223.094 91.0464 222.017 91.3373 220.922 91.3237C217.666 91.3237 215.609 89.6722 215.609 85.4944V75.6084Z" fill="#1c1c20"/>
<path d="M241.217 75.259C242.303 75.2079 243.388 75.3842 244.402 75.7768C245.417 76.1693 246.338 76.7694 247.107 77.5386L245.422 80.1532C244.343 79.1263 242.92 78.5376 241.431 78.5017C240.808 78.4867 240.188 78.6 239.611 78.8344C239.034 79.0688 238.511 79.4193 238.074 79.8643C237.638 80.3093 237.298 80.8391 237.075 81.421C236.852 82.0029 236.751 82.6244 236.779 83.247C236.737 84.4802 237.188 85.6792 238.031 86.5803C238.874 87.4813 240.04 88.0107 241.273 88.0519C241.366 88.055 241.459 88.0553 241.552 88.0529C243.239 87.9643 244.839 87.2725 246.06 86.1035L247.53 88.8065C246.698 89.6224 245.711 90.2634 244.628 90.6917C243.545 91.12 242.386 91.3269 241.221 91.3002C236.146 91.3002 232.903 87.7226 232.903 83.2796C232.888 82.197 233.094 81.1227 233.51 80.1231C233.926 79.1235 234.543 78.2199 235.322 77.4682C236.102 76.7164 237.027 76.1325 238.041 75.7525C239.054 75.3726 240.135 75.2046 241.217 75.259Z" fill="#1c1c20"/>
<path d="M250.383 69.6113H254.221V77.0038C254.222 77.4356 254.202 77.8673 254.16 78.2971H254.221C254.743 77.3577 255.511 76.5786 256.443 76.044C257.376 75.5095 258.436 75.2397 259.511 75.2638C262.902 75.2638 264.823 77.0364 264.823 81.0885V90.9606H261.041V81.8887C261.041 80.0278 260.576 78.767 258.608 78.767C257.664 78.7691 256.746 79.0818 255.997 79.6569C255.248 80.2319 254.709 81.0374 254.463 81.9492C254.286 82.5944 254.204 83.2622 254.221 83.9311V90.9606H250.406L250.383 69.6113Z" fill="#1c1c20"/>
</svg>
