<svg width="360" height="168" viewBox="0 0 360 168" fill="none" xmlns="http://www.w3.org/2000/svg">
<rect width="360" height="168" fill="white"/>
<g clip-path="url(#clip0_676_2)">
<path fill-rule="evenodd" clip-rule="evenodd" d="M131.598 77.4349C131.598 77.4349 131.075 75.2787 129.802 73.9993C128.529 72.7199 126.424 72.5902 126.424 72.5902C126.424 72.5902 124.304 72.3036 120.41 72.1296C120.41 72.1296 116.607 72 114.359 72C106.65 72 102.748 72.5902 102.748 72.5902C102.748 72.5902 100.858 72.7199 99.5827 73.9993C98.3075 75.2787 97.784 77.4349 97.784 77.4349C97.784 77.4349 97 80.8569 97 86.4113C97 87.7555 97.122 90.1301 97.122 90.1301C97.2165 91.8771 97.438 93.6148 97.7847 95.3296C97.7847 95.3296 98.3079 97.7315 99.5834 99.0109C100.859 100.29 102.958 100.42 102.958 100.42C107.093 100.831 111.247 101.024 115.402 101C123.189 101 126.807 100.417 126.807 100.417C128.058 100.248 129.211 99.6442 130.062 98.7107C131.053 97.6906 131.634 95.3296 131.634 95.3296C131.981 93.5663 132.193 91.7791 132.269 89.9834C132.269 89.9834 132.375 87.6532 132.375 86.2578C132.377 80.3657 131.598 77.4349 131.598 77.4349ZM124.146 82.5423L123.733 90.4167C123.562 93.7261 122.728 94.7292 122.457 95.0601C121.608 96.0905 120.347 96.6159 118.714 96.6159H109.681C105.77 96.6159 105.108 94.2447 105.306 90.4167L105.718 82.5423C105.838 80.2769 106.232 78.7178 106.892 77.899C107.642 76.9778 108.974 76.483 110.732 76.483H119.764C121.431 76.483 122.635 77.0119 123.341 78.0456C123.991 78.9941 124.257 80.468 124.147 82.5423H124.146ZM219.678 77.4349C219.678 77.4349 219.155 75.2787 217.882 73.9993C216.61 72.7199 214.504 72.5902 214.504 72.5902C214.504 72.5902 212.384 72.3036 208.49 72.1296C208.49 72.1296 204.687 72 202.439 72C194.731 72 190.828 72.5902 190.828 72.5902C190.828 72.5902 188.938 72.7199 187.663 73.9993C186.388 75.2787 185.864 77.4349 185.864 77.4349C185.864 77.4349 185.08 80.8569 185.08 86.4113C185.08 87.7555 185.202 90.1301 185.202 90.1301C185.296 91.8771 185.518 93.6149 185.865 95.3296C185.865 95.3296 186.388 97.7315 187.664 99.0109C188.939 100.29 191.038 100.42 191.038 100.42C195.173 100.831 199.327 101.024 203.483 101C211.269 101 214.888 100.417 214.888 100.417C216.139 100.248 217.291 99.6442 218.143 98.7107C219.134 97.6906 219.714 95.3296 219.714 95.3296C220.061 93.5663 220.274 91.779 220.35 89.9834C220.35 89.9834 220.456 87.6532 220.456 86.2578C220.458 80.3657 219.679 77.4349 219.679 77.4349H219.678ZM212.226 82.5423L211.813 90.4167C211.643 93.7261 210.808 94.7292 210.537 95.0601C209.688 96.0905 208.427 96.6159 206.794 96.6159H197.761C193.85 96.6159 193.188 94.2447 193.386 90.4167L193.798 82.5423C193.918 80.2769 194.312 78.7178 194.972 77.899C195.722 76.9778 197.054 76.483 198.812 76.483H207.845C209.511 76.483 210.715 77.0119 211.421 78.0456C212.071 78.9941 212.338 80.468 212.228 82.5423H212.226ZM175.552 72.9382C175.552 72.9382 171.335 83.4942 169.368 88.4242C169.348 88.4766 169.312 88.5218 169.266 88.5542C169.22 88.5866 169.166 88.6049 169.11 88.6067C169.053 88.6085 168.998 88.5938 168.95 88.5644C168.902 88.535 168.863 88.4922 168.839 88.4413C166.682 82.904 163.116 73.7332 163.116 73.7332C162.918 73.0031 162.222 72.4094 161.118 72.4094H156.131C155.151 72.4094 154.658 73.1327 154.361 74.0266C154.361 74.0266 150.871 82.9723 148.732 88.4788C148.713 88.5286 148.679 88.5712 148.634 88.601C148.59 88.6307 148.538 88.6461 148.485 88.6449C148.431 88.6438 148.38 88.6263 148.337 88.5947C148.294 88.5631 148.262 88.5191 148.245 88.4686C146.33 83.6614 142.075 72.9382 142.075 72.9382C142.013 72.7746 141.9 72.6352 141.753 72.5402C141.605 72.4451 141.432 72.3993 141.257 72.4094H132.804L143.821 99.3317C144.171 100.219 144.758 100.942 145.912 100.942H150.82C151.286 100.973 151.747 100.843 152.129 100.574C152.51 100.305 152.788 99.9136 152.916 99.4647C152.916 99.4647 156.346 90.6726 158.537 85.05C158.563 85.0033 158.601 84.9646 158.648 84.938C158.694 84.9114 158.747 84.8979 158.8 84.8989C158.854 84.9 158.906 84.9155 158.951 84.944C158.996 84.9724 159.033 85.0126 159.057 85.0602C161.228 90.6248 164.623 99.3317 164.623 99.3317C164.97 100.219 165.556 100.942 166.711 100.942H171.713L171.721 100.932C172.169 100.942 172.607 100.803 172.967 100.538C173.328 100.272 173.591 99.895 173.715 99.4647L184.787 72.4094H176.371C176.195 72.3906 176.017 72.4329 175.868 72.5291C175.72 72.6253 175.608 72.7697 175.552 72.9382ZM262.627 72.5834H251.359C251.359 72.5834 244.949 78.38 242.238 80.8296C242.09 80.9017 241.927 80.937 241.762 80.9322C241.598 80.9275 241.437 80.8829 241.293 80.8024C238.569 78.3391 232.203 72.5834 232.203 72.5834H220.955C220.866 72.5749 220.778 72.6017 220.708 72.6578C220.639 72.7139 220.594 72.795 220.584 72.8837C220.584 72.8837 232.983 84.0981 235.514 86.3874C235.568 86.4686 235.595 86.5649 235.591 86.6624C235.587 86.7599 235.552 86.8536 235.491 86.9299C232.948 89.2294 222.638 98.5538 220.598 100.4C220.372 100.604 220.864 100.717 220.864 100.717H232.2C232.2 100.717 238.665 94.869 241.351 92.433C241.484 92.3647 241.632 92.33 241.782 92.3318C241.931 92.3336 242.078 92.3718 242.21 92.4433C244.911 94.8827 251.356 100.717 251.356 100.717H262.543C262.543 100.717 263.084 100.519 262.702 100.178C260.208 97.9192 250.62 89.2397 248.067 86.9299C248.007 86.8606 247.969 86.7746 247.958 86.6833C247.947 86.592 247.964 86.4996 248.007 86.4181C250.546 84.122 260.864 74.7874 262.937 72.9143C263.174 72.6994 262.626 72.5834 262.626 72.5834H262.627Z" fill="#1c1c20"/>
</g>
<defs>
<clipPath id="clip0_676_2">
<rect width="166" height="29" fill="white" transform="translate(97 72)"/>
</clipPath>
</defs>
</svg>
