<svg width="360" height="168" viewBox="0 0 360 168" fill="none" xmlns="http://www.w3.org/2000/svg">
<rect width="360" height="168" fill="white"/>
<path d="M209.219 69.7673H230.016V63.2188H209.219V69.7673ZM250.088 91.8003C248.9 93.0282 247.446 93.7103 245.73 93.7103C244.146 93.7103 242.56 93.0282 241.505 91.8003C240.251 90.5042 239.656 88.9352 239.656 87.1617C239.656 85.4564 240.251 83.751 241.505 82.5233C242.626 81.2271 244.146 80.6132 245.73 80.6132C247.446 80.6132 248.9 81.2954 250.088 82.5233C251.209 83.751 251.804 85.3882 251.804 87.0936C251.87 88.7988 251.276 90.5042 250.088 91.8003ZM245.664 74.4058C238.467 74.4058 232.723 80.0675 232.723 87.0936C232.723 94.1195 238.467 99.7812 245.664 99.7812C252.927 99.7812 258.671 94.1877 258.671 87.0936C258.737 80.1357 252.927 74.4058 245.664 74.4058ZM209.219 81.6364H215.888V99.1674H222.754V81.6364H230.016V75.0879H209.219V81.6364ZM196.213 91.732C195.09 92.9599 193.572 93.642 191.921 93.642C190.271 93.642 188.752 92.9599 187.564 91.732C186.441 90.436 185.781 88.8671 185.781 87.0936C185.781 85.3882 186.441 83.6828 187.564 82.455C188.752 81.2271 190.271 80.545 191.921 80.545C193.572 80.545 195.09 81.2271 196.213 82.455C197.401 83.6828 197.995 85.3199 197.995 87.0936C197.995 88.7988 197.401 90.436 196.213 91.732ZM199.118 77.4072C196.939 75.4972 194.1 74.4058 191.063 74.4058C184.13 74.4058 178.585 79.9994 178.585 87.0936C178.585 94.1195 184.13 99.7812 191.063 99.7812C194.1 99.7812 196.939 98.6899 199.118 96.7798V99.0991H204.862V75.1562H199.646L199.118 77.4072ZM166.502 91.6639C165.38 92.8917 163.861 93.5738 162.211 93.5738C160.56 93.5738 158.976 92.8917 157.853 91.6639C156.731 90.436 156.071 88.7988 156.071 87.0253C156.071 85.3199 156.731 83.6828 157.853 82.3868C158.976 81.159 160.56 80.4767 162.211 80.4767C163.861 80.4767 165.38 81.159 166.502 82.3868C167.625 83.6828 168.285 85.2518 168.285 87.0253C168.285 88.7306 167.625 90.436 166.502 91.6639ZM163.069 74.2694C159.702 74.2694 156.599 75.6337 154.354 77.8847V63.2188H147.422V99.0991H154.354V96.166C156.599 98.417 159.702 99.7812 163.069 99.7812C169.936 99.7812 175.482 94.1195 175.482 87.0253C175.415 79.9994 169.87 74.2694 163.069 74.2694ZM134.415 99.0991H141.282V63.2188H134.415V99.0991ZM119.956 91.732C118.834 92.9599 117.315 93.642 115.665 93.642C114.014 93.642 112.496 92.9599 111.307 91.732C110.185 90.436 109.525 88.8671 109.525 87.0936C109.525 85.3882 110.185 83.6828 111.307 82.455C112.496 81.2271 114.014 80.545 115.665 80.545C117.315 80.545 118.834 81.2271 119.956 82.455C121.145 83.6828 121.739 85.3199 121.739 87.0936C121.739 88.7988 121.145 90.436 119.956 91.732ZM122.861 77.4072C120.683 75.4972 117.844 74.4058 114.806 74.4058C107.874 74.4058 102.328 80.0675 102.328 87.0936C102.328 94.1195 107.874 99.7812 114.806 99.7812C117.844 99.7812 120.683 98.6899 122.861 96.7798V99.0991H128.605V75.1562H123.389L122.861 77.4072Z" fill="#1c1c20"/>
</svg>
