<svg width="266" height="121" viewBox="0 0 266 121" fill="none" xmlns="http://www.w3.org/2000/svg"><path d="M194.592 74.915h21.198v-4.593h-13.971c1.927-7.538 13.73-9.187 13.73-17.549 0-4.475-3.131-7.773-9.756-7.773-4.095 0-7.708 1.178-10.117 2.356l1.445 4.24c2.168-1.06 4.698-2.003 7.829-2.003 2.409 0 4.698 1.06 4.698 3.77 0 6.124-13.852 6.595-15.056 21.552Zm21.801-7.302h13.61v7.302h5.42v-7.302H240v-4.475h-4.577V45h-3.975l-15.055 19.08v3.533Zm6.142-4.24 7.709-10.129c0 .825-.241 3.416-.241 5.772v4.24h-3.613c-1.084 0-3.132.117-3.855.117ZM40.661 70.44v-9.304h2.288c2.048 0 3.734.235 4.939.942 1.204.707 1.927 1.885 1.927 3.769 0 3.18-1.927 4.593-6.504 4.593h-2.65Zm-5.54 4.476h8.07c9.033 0 12.285-3.887 12.285-9.304 0-3.652-1.566-6.125-4.336-7.538-2.168-1.178-4.938-1.531-8.311-1.531h-2.168v-7.067h12.165l1.445-4.358H35v29.798h.12Zm24.089 0h5.3l6.865-9.658c1.325-1.766 2.288-3.533 2.89-4.475h.121c-.12 1.295-.24 2.944-.24 4.593v9.422h5.42v-21.2h-5.3L67.4 63.256c-1.204 1.767-2.288 3.533-2.89 4.475h-.121c.12-1.295.24-2.944.24-4.593v-9.422h-5.42v21.2Zm29.63 0h5.54V58.074h6.504l1.446-4.476H82.215v4.476h6.625v16.842Zm15.417 10.718h5.42V74.916c1.084.353 2.168.471 3.372.471 6.866 0 11.322-4.593 11.322-11.189 0-6.83-4.095-11.189-11.924-11.189-3.011 0-5.902.59-8.311 1.296v31.329h.121Zm5.42-15.311V57.838a8.738 8.738 0 0 1 2.529-.353c3.975 0 6.504 2.12 6.504 6.713 0 4.122-2.047 6.714-6.142 6.714-1.084 0-1.928-.236-2.891-.59Zm17.946 4.593h5.3l6.865-9.658c1.325-1.766 2.289-3.533 2.891-4.475h.121c-.121 1.295-.241 2.944-.241 4.593v9.422h5.42v-21.2h-5.3l-6.865 9.658c-1.205 1.767-2.289 3.533-2.891 4.475h-.12c.12-1.295.24-2.944.24-4.593v-9.422h-5.42v21.2Zm24.692 0h5.54v-8.833h3.253c.602 0 1.204.588 1.927 2.002l2.77 6.83h5.902l-3.975-8.126c-.723-1.413-1.445-2.237-2.529-2.59v-.119c1.806-1.06 2.047-4.122 3.131-5.653.362-.471.843-.707 1.566-.707.361 0 .843 0 1.205.236v-4.593c-.603-.236-1.687-.354-2.289-.354-1.927 0-3.132.707-3.975 1.885-1.806 2.59-1.806 7.066-4.456 7.066h-2.53v-8.362h-5.54v21.318Zm31.677.471c3.012 0 5.782-.942 7.468-2.12l-1.566-3.651c-1.566.824-3.011 1.413-5.059 1.413-3.733 0-6.142-2.355-6.142-6.713 0-3.887 2.409-6.949 6.504-6.949 2.168 0 3.734.589 5.299 1.649v-4.593c-1.204-.707-3.131-1.414-5.901-1.414-6.505 0-11.563 4.711-11.563 11.425 0 6.124 3.854 10.953 10.96 10.953Z" fill="#1c1c20"/></svg>