<svg width="133" height="34" viewBox="0 0 133 34" fill="none" xmlns="http://www.w3.org/2000/svg">
  <path fill-rule="evenodd" clip-rule="evenodd" d="M59.8193 23.4502L61.5109 26.4109H64.8647L53.979 7.36133L43.0938 26.4109H46.4471L48.1388 23.4502H59.8193ZM58.1353 20.5036L53.979 13.2297L49.8228 20.5036H58.1353Z" fill="white" />
  <path d="M86.8409 7.36133V10.3186H93.9785V26.3911H97.3763V10.3186H104.514V7.36133H86.8409Z" fill="white" />
  <path fill-rule="evenodd" clip-rule="evenodd" d="M77.4078 10.332H71.4789L69.4814 10.3186L67.3809 7.38806H77.8061C81.0905 7.38806 83.7775 9.58942 83.7775 12.8915C83.7775 15.3448 82.3273 17.2413 79.6541 18.05L84.8865 26.3912H81.0619L76.0143 18.3286H71.4789V26.3912H68.081V15.451H71.4789H77.4078C78.9009 15.451 80.4364 14.4827 80.4364 12.8915C80.4364 11.3931 79.0286 10.332 77.4078 10.332Z" fill="white" />
  <path d="M0 33.3986L19.4207 0L24.2759 8.34965L19.4207 16.6993H29.131L38.8414 33.3986H0Z" fill="#166FF5" />
  <path fill-rule="evenodd" clip-rule="evenodd" d="M133 29.0732V4.55078H117.606L104.677 21.6306L110.583 29.0732H133Z" fill="white" />
  <path fill-rule="evenodd" clip-rule="evenodd" d="M123.508 26.0762C126.804 26.0762 129.476 23.4043 129.476 20.1075C129.476 19.8149 129.455 19.5277 129.414 19.2462H129.41C128.993 16.3576 126.508 14.1385 123.503 14.1385H119.856L124.42 8.46553L125.145 7.56445H121.366L116.162 14.0329C115.067 15.3939 113.451 17.4937 113.198 19.2462H113.194C113.153 19.5277 113.132 19.8149 113.132 20.1075C113.132 23.4043 115.804 26.0762 119.101 26.0762H123.508ZM123.39 16.8939H123.503V16.8959C125.226 16.9557 126.605 18.3703 126.605 20.1075H126.609C126.609 21.8447 125.23 23.2593 123.508 23.3191V23.321H123.395H119.214H119.101V23.3191C117.378 23.2593 116 21.8447 116 20.1075H116.004C116.004 18.3703 117.382 16.9557 119.105 16.8959V16.8939H119.218H123.39Z" fill="#1C1C20" />
</svg>
