<svg width="121" height="64" viewBox="0 0 121 64" fill="none" xmlns="http://www.w3.org/2000/svg"><path d="M0 51h13v13H0V51Z" fill="#1C1C20"/><path d="M39.042 14V4.2h1.484l4.298 7.154h-.798L48.254 4.2h1.484l.028 9.8H48.03l-.014-7.098h.364l-3.584 5.978h-.812l-3.64-5.978h.42V14h-1.722Zm16.477.098c-.83 0-1.559-.163-2.184-.49a3.712 3.712 0 0 1-1.442-1.372c-.336-.579-.504-1.237-.504-1.974 0-.747.163-1.405.49-1.974A3.617 3.617 0 0 1 53.25 6.93c.588-.327 1.255-.49 2.002-.49.728 0 1.376.159 1.946.476a3.44 3.44 0 0 1 1.344 1.344c.326.579.49 1.26.49 2.044 0 .075-.005.159-.014.252a2.5 2.5 0 0 1-.014.266h-6.23V9.66h5.306l-.686.364c.01-.43-.08-.807-.266-1.134a2.033 2.033 0 0 0-.77-.77 2.14 2.14 0 0 0-1.106-.28c-.43 0-.808.093-1.134.28a2.03 2.03 0 0 0-.756.784c-.178.327-.266.714-.266 1.162v.28c0 .448.102.845.308 1.19.205.345.494.611.868.798.373.187.802.28 1.288.28a3.1 3.1 0 0 0 1.134-.196c.336-.13.634-.336.896-.616l.938 1.078c-.336.392-.76.695-1.274.91-.504.205-1.083.308-1.736.308ZM60.667 14V6.524h1.75v3.038h3.766V6.524h1.75V14h-1.75v-2.954h-3.766V14h-1.75Zm12.817.098c-.83 0-1.559-.163-2.184-.49a3.711 3.711 0 0 1-1.442-1.372c-.336-.579-.504-1.237-.504-1.974 0-.747.163-1.405.49-1.974a3.616 3.616 0 0 1 1.372-1.358c.588-.327 1.255-.49 2.002-.49.728 0 1.377.159 1.946.476a3.44 3.44 0 0 1 1.344 1.344c.327.579.49 1.26.49 2.044 0 .075-.005.159-.014.252a2.5 2.5 0 0 1-.014.266h-6.23V9.66h5.306l-.686.364c.01-.43-.08-.807-.266-1.134a2.034 2.034 0 0 0-.77-.77 2.14 2.14 0 0 0-1.106-.28c-.43 0-.807.093-1.134.28-.317.187-.57.448-.756.784-.177.327-.266.714-.266 1.162v.28c0 .448.103.845.308 1.19.205.345.495.611.868.798.373.187.803.28 1.288.28a3.1 3.1 0 0 0 1.134-.196c.336-.13.635-.336.896-.616l.938 1.078c-.336.392-.76.695-1.274.91-.504.205-1.083.308-1.736.308Zm10.177-.91v-5.18h-2.87l-.042 1.204c-.02.43-.047.845-.084 1.246a7.407 7.407 0 0 1-.183 1.092 2.33 2.33 0 0 1-.364.812 1.088 1.088 0 0 1-.63.42l-1.736-.266c.28 0 .505-.089.672-.266.178-.187.313-.439.406-.756a5.94 5.94 0 0 0 .225-1.106c.046-.42.079-.854.097-1.302l.099-2.562h6.16v6.664h-1.75Zm-6.174 2.478v-3.15h9.03v3.15h-1.638V14H79.11v1.666h-1.623ZM96.717 14l-2.184-3.584 1.428-.882L98.803 14h-2.086Zm-3.598-2.996V9.548h2.506v1.456H93.12Zm3.01-.532-1.652-.196 2.268-3.752h1.862l-2.478 3.948ZM88.821 14H86.75l2.828-4.466 1.428.882L88.821 14Zm4.816 0h-1.736V6.524h1.736V14Zm-1.218-2.996h-2.492V9.548h2.492v1.456Zm-3.01-.532-2.478-3.948h1.862l2.254 3.752-1.638.196Zm13.655 3.626c-.831 0-1.559-.163-2.184-.49a3.712 3.712 0 0 1-1.442-1.372c-.336-.579-.504-1.237-.504-1.974 0-.747.163-1.405.49-1.974a3.614 3.614 0 0 1 1.372-1.358c.588-.327 1.255-.49 2.002-.49.728 0 1.377.159 1.946.476a3.45 3.45 0 0 1 1.344 1.344c.327.579.49 1.26.49 2.044 0 .075-.005.159-.014.252a2.5 2.5 0 0 1-.014.266h-6.23V9.66h5.306l-.686.364a2.148 2.148 0 0 0-.266-1.134 2.034 2.034 0 0 0-.77-.77 2.14 2.14 0 0 0-1.106-.28c-.429 0-.807.093-1.134.28a2.041 2.041 0 0 0-.756.784c-.177.327-.266.714-.266 1.162v.28c0 .448.103.845.308 1.19.205.345.495.611.868.798.373.187.803.28 1.288.28a3.1 3.1 0 0 0 1.134-.196c.336-.13.635-.336.896-.616l.938 1.078a3.351 3.351 0 0 1-1.274.91c-.504.205-1.083.308-1.736.308Zm9.292 0c-.607 0-1.162-.14-1.666-.42-.495-.28-.891-.7-1.19-1.26-.289-.57-.434-1.288-.434-2.156 0-.877.14-1.596.42-2.156.289-.56.681-.975 1.176-1.246.495-.28 1.059-.42 1.694-.42.737 0 1.386.159 1.946.476a3.47 3.47 0 0 1 1.344 1.33c.336.57.504 1.241.504 2.016 0 .775-.168 1.451-.504 2.03a3.477 3.477 0 0 1-1.344 1.33c-.56.317-1.209.476-1.946.476Zm-4.144 2.618V6.524h1.666v1.764l-.056 1.988.14 1.988v4.452h-1.75Zm3.948-4.116c.42 0 .793-.093 1.12-.28.336-.187.602-.457.798-.812.196-.355.294-.77.294-1.246 0-.485-.098-.9-.294-1.246a2.026 2.026 0 0 0-.798-.812c-.327-.187-.7-.28-1.12-.28-.42 0-.798.093-1.134.28a2.026 2.026 0 0 0-.798.812c-.196.345-.294.76-.294 1.246 0 .476.098.891.294 1.246.196.355.462.625.798.812.336.187.714.28 1.134.28ZM38.832 31v-7.476H46V31h-1.736v-6.398l.406.406h-4.494l.406-.406V31h-1.75Zm13.393.098c-.606 0-1.162-.14-1.666-.42-.494-.28-.89-.7-1.19-1.26-.289-.57-.434-1.288-.434-2.156 0-.877.14-1.596.42-2.156.29-.56.682-.975 1.177-1.246.494-.28 1.059-.42 1.694-.42.737 0 1.386.159 1.946.476a3.47 3.47 0 0 1 1.344 1.33c.336.57.504 1.241.504 2.016 0 .775-.169 1.451-.505 2.03a3.472 3.472 0 0 1-1.343 1.33c-.56.317-1.21.476-1.947.476Zm-4.144 2.618V23.524h1.666v1.764l-.056 1.988.14 1.988v4.452h-1.75ZM52.03 29.6c.42 0 .794-.093 1.12-.28a2.02 2.02 0 0 0 .798-.812c.197-.355.294-.77.294-1.246 0-.485-.097-.9-.294-1.246a2.026 2.026 0 0 0-.797-.812c-.327-.187-.7-.28-1.12-.28-.42 0-.799.093-1.135.28a2.026 2.026 0 0 0-.798.812c-.196.345-.294.76-.294 1.246 0 .476.099.891.294 1.246.197.355.462.625.798.812.336.187.714.28 1.134.28Zm8.784 1.498c-.765 0-1.446-.163-2.044-.49a3.767 3.767 0 0 1-1.414-1.372c-.345-.579-.518-1.237-.518-1.974 0-.747.173-1.405.518-1.974a3.663 3.663 0 0 1 1.414-1.358c.598-.327 1.279-.49 2.044-.49.775 0 1.46.163 2.058.49a3.569 3.569 0 0 1 1.414 1.344c.346.57.518 1.232.518 1.988 0 .737-.172 1.395-.518 1.974a3.635 3.635 0 0 1-1.414 1.372c-.597.327-1.283.49-2.058.49Zm0-1.498c.43 0 .812-.093 1.148-.28.336-.187.598-.457.784-.812.196-.355.294-.77.294-1.246 0-.485-.098-.9-.294-1.246a1.936 1.936 0 0 0-.784-.812 2.295 2.295 0 0 0-1.134-.28c-.43 0-.812.093-1.148.28a2.055 2.055 0 0 0-.784.812c-.196.345-.294.76-.294 1.246 0 .476.098.891.294 1.246.196.355.458.625.784.812.336.187.714.28 1.134.28Zm8.925 1.498c-.83 0-1.559-.163-2.184-.49a3.711 3.711 0 0 1-1.442-1.372c-.336-.579-.504-1.237-.504-1.974 0-.747.163-1.405.49-1.974a3.616 3.616 0 0 1 1.372-1.358c.588-.327 1.255-.49 2.002-.49.728 0 1.377.159 1.946.476a3.44 3.44 0 0 1 1.344 1.344c.327.579.49 1.26.49 2.044 0 .075-.005.159-.014.252a2.5 2.5 0 0 1-.014.266h-6.23V26.66H72.3l-.686.364c.01-.43-.08-.807-.266-1.134a2.034 2.034 0 0 0-.77-.77 2.14 2.14 0 0 0-1.106-.28c-.43 0-.807.093-1.134.28-.317.187-.57.448-.756.784-.177.327-.266.714-.266 1.162v.28c0 .448.103.845.308 1.19.205.345.495.611.868.798.373.187.803.28 1.288.28a3.1 3.1 0 0 0 1.134-.196c.336-.13.635-.336.896-.616l.938 1.078c-.336.392-.76.695-1.274.91-.504.205-1.083.308-1.736.308ZM80.248 31l-2.702-3.584 1.428-.882L82.306 31h-2.058Zm-5.362 0v-7.476h1.75V31h-1.75Zm1.232-2.996v-1.456h2.534v1.456h-2.534Zm3.024-.532-1.638-.196 2.744-3.752h1.876l-2.982 3.948ZM84.72 31v-6.412l.406.42h-3.038v-1.484h7v1.484h-3.024l.406-.42V31h-1.75Zm9.893 0v-1.512l-.098-.322V26.52c0-.513-.154-.91-.462-1.19-.308-.29-.775-.434-1.4-.434-.42 0-.835.065-1.246.196a3.05 3.05 0 0 0-1.022.546l-.686-1.274a4.062 4.062 0 0 1 1.428-.686 6.336 6.336 0 0 1 1.736-.238c1.083 0 1.918.261 2.506.784.597.513.896 1.311.896 2.394V31h-1.652Zm-2.352.098c-.56 0-1.05-.093-1.47-.28a2.391 2.391 0 0 1-.98-.798 2.09 2.09 0 0 1-.336-1.162c0-.42.098-.798.294-1.134.205-.336.537-.602.994-.798.457-.196 1.064-.294 1.82-.294h2.17v1.162h-2.044c-.597 0-.999.098-1.204.294a.907.907 0 0 0-.308.7c0 .317.126.57.378.756.252.187.602.28 1.05.28.43 0 .812-.098 1.148-.294a1.66 1.66 0 0 0 .742-.868l.294 1.05a1.94 1.94 0 0 1-.91 1.022c-.43.243-.975.364-1.638.364Z" fill="#000"/><path d="m23.002 42.074 15.52-4.27-7.783-2.266-.719-7.726-7.018 14.262Z" fill="#1C1C20"/></svg>