<svg width="174" height="59" viewBox="0 0 174 59" fill="none" xmlns="http://www.w3.org/2000/svg"><path d="M46.173 27.14a5.75 5.75 0 0 1-2.114-.378 5.172 5.172 0 0 1-1.68-1.05 4.854 4.854 0 0 1-1.106-1.596 5.108 5.108 0 0 1-.392-2.016c0-.728.13-1.395.392-2.002a4.669 4.669 0 0 1 1.106-1.596 5.054 5.054 0 0 1 1.68-1.064 5.713 5.713 0 0 1 2.1-.378c.765 0 1.465.126 2.1.378a5.054 5.054 0 0 1 1.68 1.064c.476.448.844.98 1.106 1.596.261.607.392 1.274.392 2.002 0 .728-.13 1.4-.392 2.016a4.67 4.67 0 0 1-1.106 1.596 5.172 5.172 0 0 1-1.68 1.05 5.604 5.604 0 0 1-2.086.378Zm-.014-1.596a3.66 3.66 0 0 0 1.372-.252c.42-.168.784-.406 1.092-.714.308-.317.546-.681.714-1.092.177-.42.266-.882.266-1.386 0-.504-.089-.961-.266-1.372a3.213 3.213 0 0 0-.714-1.092 3.116 3.116 0 0 0-1.092-.728 3.661 3.661 0 0 0-1.372-.252 3.66 3.66 0 0 0-1.372.252c-.41.168-.775.41-1.092.728-.308.308-.55.672-.728 1.092a3.59 3.59 0 0 0-.252 1.372c0 .495.084.952.252 1.372.177.42.42.789.728 1.106.308.308.672.546 1.092.714.42.168.877.252 1.372.252ZM54.39 27v-6.412l.406.42h-3.038v-1.484h7v1.484h-3.024l.406-.42V27h-1.75Zm9.976-.812v-5.18h-2.87l-.042 1.204c-.019.43-.047.845-.084 1.246a7.407 7.407 0 0 1-.182 1.092 2.33 2.33 0 0 1-.364.812 1.088 1.088 0 0 1-.63.42l-1.736-.266c.28 0 .504-.089.672-.266.177-.187.313-.439.406-.756a5.94 5.94 0 0 0 .224-1.106c.047-.42.08-.854.098-1.302l.098-2.562h6.16v6.664h-1.75Zm-6.174 2.478v-3.15h9.03v3.15h-1.638V27h-5.768v1.666h-1.624Zm13.799-1.568c-.83 0-1.559-.163-2.184-.49a3.712 3.712 0 0 1-1.442-1.372c-.336-.579-.504-1.237-.504-1.974 0-.747.163-1.405.49-1.974a3.617 3.617 0 0 1 1.372-1.358c.588-.327 1.255-.49 2.002-.49.728 0 1.377.159 1.946.476a3.44 3.44 0 0 1 1.344 1.344c.326.579.49 1.26.49 2.044 0 .075-.005.159-.014.252a2.5 2.5 0 0 1-.014.266h-6.23V22.66h5.306l-.686.364c.01-.43-.08-.807-.266-1.134a2.033 2.033 0 0 0-.77-.77 2.14 2.14 0 0 0-1.106-.28c-.43 0-.807.093-1.134.28-.317.187-.57.448-.756.784-.177.327-.266.714-.266 1.162v.28c0 .448.102.845.308 1.19.205.345.495.611.868.798.373.187.802.28 1.288.28a3.1 3.1 0 0 0 1.134-.196c.336-.13.635-.336.896-.616L75 25.88c-.336.392-.76.695-1.274.91-.504.205-1.083.308-1.736.308Zm3.96-.112.084-1.47.182.028a.88.88 0 0 0 .154.014c.29 0 .514-.089.672-.266.159-.177.275-.415.35-.714.084-.308.14-.649.168-1.022.037-.383.065-.765.084-1.148l.126-2.884h6.048V27h-1.75v-6.468l.406.476H78.92l.378-.49-.098 1.974a17.86 17.86 0 0 1-.168 1.848 6.158 6.158 0 0 1-.364 1.47c-.159.42-.383.747-.672.98-.28.233-.64.35-1.078.35-.14 0-.294-.014-.462-.042a6.245 6.245 0 0 1-.504-.112ZM1.695 44v-7.476h7.168V44H7.127v-6.398l.406.406H3.04l.406-.406V44h-1.75Zm12.582.098c-.766 0-1.447-.163-2.044-.49a3.766 3.766 0 0 1-1.414-1.372c-.346-.579-.518-1.237-.518-1.974 0-.747.172-1.405.518-1.974a3.662 3.662 0 0 1 1.414-1.358c.597-.327 1.278-.49 2.044-.49.774 0 1.46.163 2.058.49a3.569 3.569 0 0 1 1.414 1.344c.345.57.518 1.232.518 1.988 0 .737-.173 1.395-.518 1.974a3.635 3.635 0 0 1-1.414 1.372c-.598.327-1.284.49-2.058.49Zm0-1.498c.429 0 .812-.093 1.148-.28.336-.187.597-.457.784-.812.196-.355.294-.77.294-1.246 0-.485-.098-.9-.294-1.246a1.937 1.937 0 0 0-.784-.812 2.295 2.295 0 0 0-1.134-.28c-.43 0-.812.093-1.148.28a2.054 2.054 0 0 0-.784.812c-.196.345-.294.76-.294 1.246 0 .476.098.891.294 1.246.196.355.457.625.784.812.336.187.714.28 1.134.28Zm10.48.588v-5.18h-2.87l-.042 1.204c-.018.43-.046.845-.084 1.246a7.394 7.394 0 0 1-.182 1.092 2.329 2.329 0 0 1-.364.812 1.088 1.088 0 0 1-.63.42l-1.736-.266c.28 0 .504-.089.672-.266.178-.187.313-.439.406-.756.103-.327.178-.695.224-1.106.047-.42.08-.854.098-1.302l.098-2.562h6.16v6.664h-1.75Zm-6.174 2.478v-3.15h9.03v3.15h-1.638V44h-5.768v1.666h-1.624Zm15.437-2.478v-5.18h-2.87l-.042 1.204c-.018.43-.046.845-.084 1.246a7.394 7.394 0 0 1-.182 1.092 2.329 2.329 0 0 1-.364.812 1.088 1.088 0 0 1-.63.42l-1.736-.266c.28 0 .504-.089.672-.266.178-.187.313-.439.406-.756.103-.327.178-.695.224-1.106.047-.42.08-.854.098-1.302l.098-2.562h6.16v6.664h-1.75Zm-6.174 2.478v-3.15h9.03v3.15h-1.638V44H29.47v1.666h-1.624Zm13.8-1.568c-.831 0-1.56-.163-2.185-.49a3.711 3.711 0 0 1-1.442-1.372c-.336-.579-.504-1.237-.504-1.974 0-.747.164-1.405.49-1.974a3.616 3.616 0 0 1 1.372-1.358c.588-.327 1.256-.49 2.002-.49.728 0 1.377.159 1.946.476.57.317 1.018.765 1.344 1.344.327.579.49 1.26.49 2.044 0 .075-.004.159-.014.252 0 .093-.004.182-.014.266h-6.23V39.66h5.306l-.686.364a2.15 2.15 0 0 0-.266-1.134 2.034 2.034 0 0 0-.77-.77 2.14 2.14 0 0 0-1.106-.28c-.43 0-.807.093-1.134.28-.317.187-.57.448-.756.784-.177.327-.266.714-.266 1.162v.28c0 .448.103.845.308 1.19.206.345.495.611.868.798.374.187.803.28 1.288.28a3.1 3.1 0 0 0 1.134-.196c.336-.13.635-.336.896-.616l.938 1.078c-.336.392-.76.695-1.274.91-.504.205-1.082.308-1.736.308Zm9.291 0c-.606 0-1.162-.14-1.666-.42-.494-.28-.891-.7-1.19-1.26-.289-.57-.434-1.288-.434-2.156 0-.877.14-1.596.42-2.156.29-.56.682-.975 1.176-1.246.495-.28 1.06-.42 1.694-.42.738 0 1.386.159 1.946.476.57.317 1.018.76 1.344 1.33.336.57.504 1.241.504 2.016 0 .775-.168 1.451-.504 2.03a3.472 3.472 0 0 1-1.344 1.33c-.56.317-1.208.476-1.946.476Zm-4.144 2.618V36.524h1.666v1.764l-.056 1.988.14 1.988v4.452h-1.75Zm3.948-4.116c.42 0 .794-.093 1.12-.28.336-.187.602-.457.798-.812.196-.355.294-.77.294-1.246 0-.485-.098-.9-.294-1.246a2.026 2.026 0 0 0-.798-.812c-.326-.187-.7-.28-1.12-.28-.42 0-.798.093-1.134.28a2.026 2.026 0 0 0-.798.812c-.196.345-.294.76-.294 1.246 0 .476.098.891.294 1.246.196.355.462.625.798.812.336.187.714.28 1.134.28ZM64.865 44l-2.184-3.584 1.428-.882L66.95 44h-2.086Zm-3.598-2.996v-1.456h2.506v1.456h-2.506Zm3.01-.532-1.652-.196 2.268-3.752h1.862l-2.478 3.948ZM56.969 44h-2.072l2.828-4.466 1.428.882L56.969 44Zm4.816 0h-1.736v-7.476h1.736V44Zm-1.218-2.996h-2.492v-1.456h2.492v1.456Zm-3.01-.532-2.478-3.948h1.862l2.254 3.752-1.638.196ZM73.334 44l-2.702-3.584 1.428-.882L75.392 44h-2.058Zm-5.362 0v-7.476h1.75V44h-1.75Zm1.232-2.996v-1.456h2.534v1.456h-2.534Zm3.024-.532-1.638-.196 2.744-3.752h1.876l-2.982 3.948ZM76.346 44v-7.476h1.75v4.928l4.13-4.928h1.596V44h-1.75v-4.928L77.956 44h-1.61Z" fill="#000"/><path fill-rule="evenodd" clip-rule="evenodd" d="m95.903 12.284.888 9.543 8.67-17.618-19.172 5.275 9.614 2.8ZM91.128 9.52l6.005 1.749.538 5.784 5.313-10.795L91.128 9.52Zm27.369 2.764.888 9.543 8.67-17.618-19.172 5.275 9.614 2.8Zm-4.775-2.764 6.005 1.749.538 5.784 5.312-10.795-11.855 3.262Zm27.711 2.764.888 9.543 8.67-17.618-19.173 5.275 9.615 2.8Zm-4.776-2.764 6.005 1.749.539 5.784 5.312-10.795-11.856 3.262Zm27.711 2.764.888 9.543 8.67-17.618-19.172 5.275 9.614 2.8Zm-4.775-2.764 6.005 1.749.538 5.784 5.312-10.795-11.855 3.262Z" fill="#8E8E93"/><path d="M95.875 45.875v-1.25a6.25 6.25 0 0 0-6.25 6.25h1.25a5 5 0 0 1 5-5Z" fill="#166FF5"/><path d="M95.875 56.5v1.25a6.25 6.25 0 0 1-6.25-6.25h1.25a5 5 0 0 0 5 5Zm.625-10.625v-1.25a6.25 6.25 0 0 1 6.25 6.25h-1.25a5.002 5.002 0 0 0-5-5Zm0 10.625v1.25a6.25 6.25 0 0 0 6.25-6.25h-1.25a5.002 5.002 0 0 1-5 5Z" fill="#DFDFDF"/></svg>