<svg width="114" height="56" viewBox="0 0 114 56" fill="none" xmlns="http://www.w3.org/2000/svg"><path d="M27.88 28.14a5.867 5.867 0 0 1-2.086-.364 5.208 5.208 0 0 1-1.666-1.05 4.918 4.918 0 0 1-1.092-1.61 5.11 5.11 0 0 1-.392-2.016c0-.728.13-1.4.392-2.016a4.669 4.669 0 0 1 1.106-1.596 4.906 4.906 0 0 1 1.666-1.05 5.604 5.604 0 0 1 2.086-.378c.803 0 1.535.14 2.198.42a4.29 4.29 0 0 1 1.68 1.218l-1.176 1.106a3.472 3.472 0 0 0-1.19-.854 3.46 3.46 0 0 0-1.428-.294c-.513 0-.985.084-1.414.252-.42.168-.789.406-1.106.714-.308.308-.55.672-.728 1.092a3.7 3.7 0 0 0-.252 1.386c0 .504.084.966.252 1.386.177.42.42.784.728 1.092.317.308.686.546 1.106.714.43.168.9.252 1.414.252.513 0 .99-.093 1.428-.28.439-.196.835-.49 1.19-.882l1.176 1.12a4.483 4.483 0 0 1-1.68 1.218c-.663.28-1.4.42-2.212.42Zm5.106-.14v-7.476h7.168V28h-1.736v-6.398l.406.406H34.33l.406-.406V28h-1.75Zm12.735.098c-.83 0-1.558-.163-2.184-.49a3.712 3.712 0 0 1-1.442-1.372c-.336-.579-.504-1.237-.504-1.974 0-.747.163-1.405.49-1.974a3.617 3.617 0 0 1 1.372-1.358c.588-.327 1.255-.49 2.002-.49.728 0 1.377.159 1.946.476a3.44 3.44 0 0 1 1.344 1.344c.327.579.49 1.26.49 2.044 0 .075-.005.159-.014.252 0 .093-.004.182-.014.266h-6.23V23.66h5.306l-.686.364c.01-.43-.08-.807-.266-1.134a2.033 2.033 0 0 0-.77-.77 2.14 2.14 0 0 0-1.106-.28c-.43 0-.807.093-1.134.28-.317.187-.57.448-.756.784-.177.327-.266.714-.266 1.162v.28c0 .448.103.845.308 1.19.206.345.495.611.868.798.373.187.803.28 1.288.28a3.1 3.1 0 0 0 1.134-.196c.336-.13.635-.336.896-.616l.938 1.078c-.336.392-.76.695-1.274.91-.504.205-1.083.308-1.736.308ZM50.87 28v-7.476h1.75v5.992h3.57v-5.992h1.75V28h-7.07Zm6.566 1.666v-1.708l.406.042H56.19v-1.484h2.884v3.15h-1.638ZM60.351 28v-7.476h1.75v4.928l4.13-4.928h1.596V28h-1.75v-4.928L61.96 28h-1.61Zm14.086 0v-1.512l-.098-.322V23.52c0-.513-.154-.91-.462-1.19-.308-.29-.775-.434-1.4-.434-.42 0-.835.065-1.246.196a3.05 3.05 0 0 0-1.022.546l-.686-1.274a4.062 4.062 0 0 1 1.428-.686 6.336 6.336 0 0 1 1.736-.238c1.083 0 1.918.261 2.506.784.597.513.896 1.311.896 2.394V28h-1.652Zm-2.352.098c-.56 0-1.05-.093-1.47-.28a2.391 2.391 0 0 1-.98-.798 2.09 2.09 0 0 1-.336-1.162c0-.42.098-.798.294-1.134.205-.336.537-.602.994-.798.457-.196 1.064-.294 1.82-.294h2.17v1.162h-2.044c-.597 0-.999.098-1.204.294a.907.907 0 0 0-.308.7c0 .317.126.57.378.756.252.187.602.28 1.05.28.43 0 .812-.098 1.148-.294.345-.196.593-.485.742-.868l.294 1.05c-.168.439-.471.78-.91 1.022-.43.243-.975.364-1.638.364Zm4.797-.112.084-1.47.183.028a.86.86 0 0 0 .153.014c.29 0 .514-.089.672-.266.16-.177.276-.415.35-.714.085-.308.14-.649.169-1.022.037-.383.065-.765.084-1.148l.126-2.884h6.047V28H83v-6.468l.406.476H79.85l.379-.49-.099 1.974a17.86 17.86 0 0 1-.167 1.848 6.158 6.158 0 0 1-.364 1.47c-.16.42-.383.747-.672.98-.28.233-.64.35-1.079.35-.14 0-.293-.014-.462-.042a6.245 6.245 0 0 1-.504-.112Zm9.945.014v-7.476h1.75v4.928l4.13-4.928h1.596V28h-1.75v-4.928L88.437 28h-1.61Zm12.952.098c-.784 0-1.484-.163-2.1-.49a3.737 3.737 0 0 1-1.428-1.372c-.345-.579-.518-1.237-.518-1.974 0-.747.173-1.405.518-1.974a3.636 3.636 0 0 1 1.428-1.358c.616-.327 1.316-.49 2.1-.49.728 0 1.368.15 1.918.448.56.29.985.719 1.274 1.288l-1.344.784a2.131 2.131 0 0 0-.826-.784 2.177 2.177 0 0 0-1.036-.252c-.429 0-.816.093-1.162.28a2.001 2.001 0 0 0-.812.812c-.196.345-.294.76-.294 1.246 0 .485.098.905.294 1.26.196.345.467.611.812.798.346.187.733.28 1.162.28a2.137 2.137 0 0 0 1.862-1.036l1.344.784a3.06 3.06 0 0 1-1.274 1.302c-.55.299-1.19.448-1.918.448Zm5.939-.098v-6.412l.406.42h-3.038v-1.484h7v1.484h-3.024l.406-.42V28h-1.75ZM23.176 45v-7.476h7.168V45h-1.736v-6.398l.406.406H24.52l.406-.406V45h-1.75Zm12.581.098c-.765 0-1.446-.163-2.044-.49a3.766 3.766 0 0 1-1.414-1.372c-.345-.579-.518-1.237-.518-1.974 0-.747.173-1.405.518-1.974a3.662 3.662 0 0 1 1.414-1.358c.598-.327 1.279-.49 2.044-.49.775 0 1.461.163 2.058.49a3.569 3.569 0 0 1 1.414 1.344c.346.57.518 1.232.518 1.988 0 .737-.172 1.395-.518 1.974a3.635 3.635 0 0 1-1.414 1.372c-.597.327-1.283.49-2.058.49Zm0-1.498c.43 0 .812-.093 1.148-.28.336-.187.598-.457.784-.812.196-.355.294-.77.294-1.246 0-.485-.098-.9-.294-1.246a1.937 1.937 0 0 0-.784-.812 2.295 2.295 0 0 0-1.134-.28c-.429 0-.812.093-1.148.28a2.054 2.054 0 0 0-.784.812c-.196.345-.294.76-.294 1.246 0 .476.098.891.294 1.246.196.355.458.625.784.812.336.187.714.28 1.134.28Zm13.172 1.498c-.606 0-1.162-.14-1.666-.42-.494-.28-.891-.7-1.19-1.26-.29-.57-.434-1.288-.434-2.156 0-.877.14-1.596.42-2.156.29-.56.682-.975 1.176-1.246.495-.28 1.06-.42 1.694-.42.738 0 1.386.159 1.946.476.57.317 1.018.76 1.344 1.33.336.57.504 1.241.504 2.016 0 .775-.168 1.451-.504 2.03a3.472 3.472 0 0 1-1.344 1.33c-.56.317-1.208.476-1.946.476Zm-4.144 2.618V37.524h1.666v1.764l-.056 1.988.14 1.988v4.452h-1.75Zm3.948-4.116c.42 0 .794-.093 1.12-.28.336-.187.602-.457.798-.812.196-.355.294-.77.294-1.246 0-.485-.098-.9-.294-1.246a2.026 2.026 0 0 0-.798-.812c-.326-.187-.7-.28-1.12-.28-.42 0-.798.093-1.134.28a2.026 2.026 0 0 0-.798.812c-.196.345-.294.76-.294 1.246 0 .476.098.891.294 1.246.196.355.462.625.798.812.336.187.714.28 1.134.28Zm8.938 1.498c-.83 0-1.559-.163-2.184-.49a3.711 3.711 0 0 1-1.442-1.372c-.336-.579-.504-1.237-.504-1.974 0-.747.163-1.405.49-1.974a3.616 3.616 0 0 1 1.372-1.358c.588-.327 1.255-.49 2.002-.49.728 0 1.377.159 1.946.476a3.44 3.44 0 0 1 1.344 1.344c.327.579.49 1.26.49 2.044 0 .075-.005.159-.014.252a2.5 2.5 0 0 1-.014.266h-6.23V40.66h5.306l-.686.364c.01-.43-.08-.807-.266-1.134a2.034 2.034 0 0 0-.77-.77 2.14 2.14 0 0 0-1.106-.28c-.43 0-.807.093-1.134.28-.317.187-.57.448-.756.784-.177.327-.266.714-.266 1.162v.28c0 .448.103.845.308 1.19.205.345.495.611.868.798.373.187.803.28 1.288.28a3.1 3.1 0 0 0 1.134-.196c.336-.13.635-.336.896-.616l.938 1.078c-.336.392-.76.695-1.274.91-.504.205-1.083.308-1.736.308ZM68.18 45l-2.702-3.584 1.428-.882L70.239 45h-2.058Zm-5.362 0v-7.476h1.75V45h-1.75Zm1.232-2.996v-1.456h2.534v1.456H64.05Zm3.024-.532-1.638-.196 2.744-3.752h1.876l-2.982 3.948Zm3.026 3.514.084-1.47.182.028a.88.88 0 0 0 .154.014c.29 0 .514-.089.672-.266.159-.177.276-.415.35-.714.084-.308.14-.649.168-1.022.038-.383.066-.765.084-1.148l.126-2.884h6.048V45h-1.75v-6.468l.406.476H73.07l.378-.49-.098 1.974a17.86 17.86 0 0 1-.168 1.848 6.158 6.158 0 0 1-.364 1.47c-.158.42-.382.747-.672.98-.28.233-.64.35-1.078.35-.14 0-.294-.014-.462-.042a6.245 6.245 0 0 1-.504-.112ZM84.582 45v-1.512l-.098-.322V40.52c0-.513-.154-.91-.462-1.19-.308-.29-.775-.434-1.4-.434-.42 0-.835.065-1.246.196a3.05 3.05 0 0 0-1.022.546l-.686-1.274a4.062 4.062 0 0 1 1.428-.686 6.336 6.336 0 0 1 1.736-.238c1.083 0 1.918.261 2.506.784.597.513.896 1.311.896 2.394V45h-1.652Zm-2.352.098c-.56 0-1.05-.093-1.47-.28a2.391 2.391 0 0 1-.98-.798 2.09 2.09 0 0 1-.336-1.162c0-.42.098-.798.294-1.134.205-.336.537-.602.994-.798.457-.196 1.064-.294 1.82-.294h2.17v1.162h-2.044c-.597 0-.999.098-1.204.294a.907.907 0 0 0-.308.7c0 .317.126.57.378.756.252.187.602.28 1.05.28.43 0 .812-.098 1.148-.294a1.66 1.66 0 0 0 .742-.868l.294 1.05a1.94 1.94 0 0 1-.91 1.022c-.43.243-.975.364-1.638.364ZM88.12 45v-7.476h1.834l3.01 5.306h-.728l3.164-5.306h1.638L97.052 45H95.47v-5.6l.28.182-2.8 4.634h-.756l-2.814-4.76.336-.084V45H88.12Zm14.485.098c-.831 0-1.559-.163-2.184-.49a3.71 3.71 0 0 1-1.442-1.372c-.336-.579-.504-1.237-.504-1.974 0-.747.163-1.405.49-1.974a3.616 3.616 0 0 1 1.372-1.358c.588-.327 1.255-.49 2.002-.49.728 0 1.377.159 1.946.476a3.45 3.45 0 0 1 1.344 1.344c.327.579.49 1.26.49 2.044 0 .075-.005.159-.014.252a2.5 2.5 0 0 1-.014.266h-6.23V40.66h5.306l-.686.364a2.148 2.148 0 0 0-.266-1.134 2.034 2.034 0 0 0-.77-.77 2.14 2.14 0 0 0-1.106-.28c-.429 0-.807.093-1.134.28a2.042 2.042 0 0 0-.756.784c-.177.327-.266.714-.266 1.162v.28c0 .448.103.845.308 1.19.205.345.495.611.868.798.373.187.803.28 1.288.28a3.1 3.1 0 0 0 1.134-.196c.336-.13.635-.336.896-.616l.938 1.078a3.351 3.351 0 0 1-1.274.91c-.504.205-1.083.308-1.736.308Z" fill="#000"/><path fill-rule="evenodd" clip-rule="evenodd" d="m10.187 7.34 9.052-3.152L.055 0l9.723 17.346.41-10.006Zm-1.536 5.3.256-6.25 5.486-1.91L2.64 1.912 8.65 12.64Z" fill="#8E8E93"/><path d="m15.75 42.542-9 9.5-4.125-4.354 1.058-1.117 3.067 3.23 7.943-8.376 1.057 1.117Z" fill="#166FF5"/></svg>