<svg width="360" height="168" viewBox="0 0 360 168" fill="none" xmlns="http://www.w3.org/2000/svg"><path fill="#fff" d="M0 0h360v168H0z"/><g clip-path="url(#a)"><mask id="b" style="mask-type:luminance" maskUnits="userSpaceOnUse" x="85" y="54" width="175" height="59"><path d="M260 54H85v59h175V54Z" fill="#fff"/></mask><g mask="url(#b)"><path d="M181.09 72.259V89.83c0 4.334 2.109 6.976 5.218 6.976 1.74 0 3.111-1.268 2.583-2.8-.606-1.797-3.268-.608-3.268-5.365V72.26c0-1.48-.817-2.404-2.266-2.404-1.45 0-2.267.924-2.267 2.404Zm-20.637 15.193c0 5.232 3.822 9.354 10.121 9.354 4.006 0 7.432-1.374 7.432-3.488 0-1.162-.738-1.796-1.713-1.796-1.291 0-2.978 1.32-5.825 1.32-2.556 0-4.585-1.109-5.323-3.355h6.536c3.742 0 6.773-1.77 6.773-5.258 0-3.224-2.609-6.765-8.117-6.765-5.799 0-9.884 3.964-9.884 9.988Zm4.481-1.268c.501-3.276 2.925-4.756 5.666-4.756 2.056 0 3.4 1.004 3.4 2.352 0 1.558-1.107 2.404-3.637 2.404h-5.429Zm25.433 4.386c0 3.515 2.451 6.236 6.458 6.236 2.793 0 5.403-1.32 6.931-3.805.396 1.744 1.45 3.805 3.901 3.805 1.397 0 2.372-.792 2.372-1.876 0-1.955-2.556-1.506-2.556-3.594V85.55c0-4.968-2.9-8.086-8.672-8.086-4.401 0-7.643 1.242-7.643 3.224 0 1.163.791 1.823 1.792 1.823 1.503 0 3.189-1.083 5.957-1.083 2.214 0 3.742.925 3.979 3.435h-6.009c-4.111 0-6.51 2.695-6.51 5.707Zm4.481.185c-.027-1.268.975-2.59 2.978-2.59h5.06c-.369 3.171-3.136 5.048-5.376 5.048-1.582 0-2.636-.952-2.662-2.458Zm17.421 3.726c0 1.321.817 2.325 2.267 2.325s2.267-1.004 2.267-2.325V85.55c0-3.118 1.607-4.175 3.215-4.175 1.502 0 2.451 1.057 2.451 3.197v9.909c0 1.321.791 2.325 2.24 2.325 1.45 0 2.267-1.004 2.267-2.325l.053-8.931c.026-3.118 1.581-4.175 3.189-4.175 1.502 0 2.451 1.057 2.451 3.144l.026 9.962c0 1.321.791 2.325 2.24 2.325 1.45 0 2.267-1.004 2.267-2.325V83.727c0-3.99-1.925-6.236-4.955-6.236-2.187 0-4.428 1.268-5.64 3.435-.738-2.22-2.477-3.435-4.691-3.435-1.977 0-3.875 1.162-5.113 3.012v-.898c0-1.136-.817-2.14-2.267-2.14s-2.267 1.004-2.267 2.325v14.69Zm27.885-3.91c0 3.514 2.451 6.235 6.457 6.235 2.794 0 5.403-1.32 6.932-3.805.396 1.744 1.45 3.805 3.9 3.805 1.397 0 2.373-.792 2.373-1.876 0-1.955-2.557-1.506-2.557-3.594V85.55c0-4.968-2.899-8.086-8.671-8.086-4.402 0-7.644 1.242-7.644 3.224 0 1.163.792 1.823 1.793 1.823 1.503 0 3.189-1.083 5.956-1.083 2.214 0 3.743.925 3.981 3.435h-6.01c-4.112 0-6.51 2.695-6.51 5.707Zm4.48.184c-.025-1.268.976-2.59 2.98-2.59h5.06c-.37 3.171-3.137 5.048-5.378 5.048-1.581 0-2.635-.952-2.662-2.458Z" fill="#1c1c20"/><mask id="c" style="mask-type:luminance" maskUnits="userSpaceOnUse" x="85" y="54" width="60" height="59"><path d="M144.322 54H85v59h59.322V54Z" fill="#fff"/></mask><g mask="url(#c)"><path d="M114.662 113c1.198 0 2.379-.071 3.539-.208l13.516-30.767-7.415-18.438-12.606-2.212-10.382 2.212-2.224 5.163 3.707 36.875 1.484 4.425c.114.043.181 1.16.296 1.201A29.748 29.748 0 0 0 114.662 113Z" fill="#fff"/><path fill-rule="evenodd" clip-rule="evenodd" d="M117.502 112.115a.584.584 0 0 0 .64.684c14.741-1.714 26.18-14.178 26.18-29.299 0-16.292-13.28-29.5-29.661-29.5S85 67.208 85 83.5c0 12.798 8.194 23.693 19.649 27.777a.583.583 0 0 0 .753-.382c.315-1.055.579-2.01.69-2.578.598-3.09 1.608-8.689 1.936-12.872.281-3.817.299-7.835-.434-11.61a15.138 15.138 0 0 1-.127-.707 6.798 6.798 0 0 1 1.287-5.027 6.773 6.773 0 0 1 4.457-2.64c1.671-.29 11.993-1.885 11.993 1.007 0 .123-.31.048-.65-.034-.269-.064-.557-.134-.724-.113-1.224.152-1.044 1.661.375 1.602.892-.04 2.38.259 2.629 1.036 1.243 3.878-1.311 6.993-4.878 8.195-.729.273-1.467.509-2.206.745-.423.135-.846.27-1.267.412-.392.183-.44.418-.376.915.238 1.851.316 2.609.322 2.668l.001.008a77.508 77.508 0 0 1-.928 20.213Zm-6.619-45.36c.924-1.764 1.749-2.93 2.801-2.744l.001.002.001.001c1.055.19 1.362 1.922.903 3.47a38.74 38.74 0 0 0-.805 4.638c-.084 1.114-1.17 1.944-2.264 1.73-1.051-.189-1.678-.877-1.694-2.25a10.475 10.475 0 0 1 1.057-4.847Zm-3.299 7.853a36.13 36.13 0 0 1-.789-5.803c-.038-2.288-.486-4.137-1.767-3.857-1.234.27-2.015 2.076-2.338 4.347a13.833 13.833 0 0 0 .575 5.856c.265.96.947 2.769 2.699 2.313 1.575-.409 1.822-1.755 1.62-2.856Z" fill="#1c1c20"/><path d="M113.855 79.027a1.546 1.546 0 0 0-.86-.26h-.002l-.001.002a1.548 1.548 0 0 0-1.547 1.552 1.554 1.554 0 0 0 1.854 1.524 1.55 1.55 0 0 0 1.218-1.222 1.56 1.56 0 0 0-.662-1.596Z" fill="#1c1c20"/></g></g></g><defs><clipPath id="a"><path fill="#fff" transform="translate(85 54)" d="M0 0h175v59H0z"/></clipPath></defs></svg>