<svg width="360" height="168" viewBox="0 0 360 168" fill="none" xmlns="http://www.w3.org/2000/svg"><path fill="#fff" d="M0 0h360v168H0z"/><path d="M112.908 94.216a20.685 20.685 0 0 0 0-26.253L99.766 81.092l13.142 13.124Zm-2.871 2.871L96.912 83.953 83.788 97.086l-4.307 4.308a26.756 26.756 0 0 0 34.864 0l-4.308-4.308ZM96.88 90.293l5.411 5.443H91.465l5.415-5.443Zm.035-29.895a20.692 20.692 0 0 0-15.994 33.818l29.123-29.119A20.616 20.616 0 0 0 96.915 60.4Zm44.257 8.852a11.017 11.017 0 0 1 7.867 2.916l-1.861 2.88a9.402 9.402 0 0 0-5.82-2.229c-4.503 0-7.165 3.34-7.165 7.31 0 4.051 2.731 7.629 7.179 7.629a9.187 9.187 0 0 0 6.187-2.703l2.043 2.791a11.486 11.486 0 0 1-8.374 3.457 10.724 10.724 0 0 1-11.022-11.114 10.743 10.743 0 0 1 3.151-7.807 10.729 10.729 0 0 1 7.815-3.13Zm19.29 12.076h.508v-.209c0-2.014-1.261-2.703-2.941-2.703-1.505.09-2.955.6-4.187 1.47L152.4 77.15a10.343 10.343 0 0 1 5.983-1.89c4.024 0 6.369 2.22 6.369 6.095v9.607h-3.513v-1.26c0-.363.019-.724.056-1.084h-.056a4.956 4.956 0 0 1-4.652 2.707c-2.735 0-5.196-1.712-5.196-4.778.013-4.89 6.578-5.22 9.071-5.22Zm-2.917 6.979c2.015 0 3.457-2.164 3.457-4.024v-.359h-.661c-1.954 0-5.117.27-5.117 2.4a2.055 2.055 0 0 0 2.321 2v-.017Zm10.885-18.694h3.782v15.98c0 1.68.572 2.104 1.563 2.104.191-.001.382-.012.572-.033v3.336a8.887 8.887 0 0 1-1.205.088c-2.098 0-4.712-.54-4.712-4.927V69.611Zm8.531 0h3.782v15.98c0 1.68.572 2.104 1.563 2.104.192-.001.383-.012.573-.033v3.336a8.91 8.91 0 0 1-1.205.088c-2.103 0-4.713-.54-4.713-4.927V69.611Zm9.338 9.282h-1.987v-3.034h2.075v-4.415h3.722v4.415h3.485v3.034h-3.485v5.945a2.72 2.72 0 0 0 3.034 2.885c.23.002.461-.018.688-.06v3.335c-.387.063-.78.093-1.172.088-2.131 0-6.365-.628-6.365-5.764l.005-6.43Zm17.909-3.633c4.685 0 8.439 3.33 8.439 8.02 0 4.69-3.754 8.02-8.411 8.02s-8.439-3.307-8.439-8.02c0-4.713 3.754-8.02 8.411-8.02Zm.028 12.793a4.548 4.548 0 0 0 3.289-1.416 4.545 4.545 0 0 0 1.247-3.357 4.559 4.559 0 0 0-2.755-4.41 4.558 4.558 0 0 0-6.345 4.41 4.575 4.575 0 0 0 4.564 4.773Zm11.373-12.445h3.815v9.072c0 1.861.465 3.127 2.373 3.127 2.763 0 4.294-2.433 4.294-5.169v-7.03h3.815v15.353h-3.666v-1.74c0-.362.02-.724.06-1.084h-.06a5.906 5.906 0 0 1-5.318 3.187c-3.256 0-5.313-1.652-5.313-5.83v-9.886Zm25.608-.349a7.806 7.806 0 0 1 5.89 2.28l-1.685 2.614a6 6 0 0 0-3.991-1.651 4.547 4.547 0 0 0-4.652 4.745 4.648 4.648 0 0 0 4.494 4.805c.093.003.186.003.279 0a7.054 7.054 0 0 0 4.508-1.949l1.47 2.704a8.731 8.731 0 0 1-6.309 2.493c-5.075 0-8.318-3.577-8.318-8.02a7.929 7.929 0 0 1 2.419-5.812 7.925 7.925 0 0 1 5.895-2.209Zm9.166-5.648h3.838v7.393c.001.432-.019.863-.061 1.293h.061a5.901 5.901 0 0 1 5.29-3.033c3.391 0 5.312 1.772 5.312 5.825v9.872h-3.782v-9.072c0-1.861-.465-3.122-2.433-3.122a4.304 4.304 0 0 0-4.145 3.182 6.836 6.836 0 0 0-.242 1.982v7.03h-3.815l-.023-21.35Z" fill="#1c1c20"/></svg>