<svg width="97" height="49" viewBox="0 0 97 49" fill="none" xmlns="http://www.w3.org/2000/svg"><path d="M7.882 27.16v-7.42H4.046l-.07 1.736a35.9 35.9 0 0 1-.126 1.862 10.675 10.675 0 0 1-.238 1.582c-.103.476-.247.873-.434 1.19-.187.317-.415.527-.686.63l-1.96-.28c.355.019.644-.103.868-.364.233-.261.415-.625.546-1.092.13-.467.229-1.013.294-1.638.065-.635.112-1.32.14-2.058l.112-3.108h7.182v8.96H7.882ZM.196 30.086.21 26.46h10.878v3.626h-1.68V28H1.89v2.086H.196ZM12.326 28v-7.476h1.75v4.928l4.13-4.928h1.596V28h-1.75v-4.928L13.936 28h-1.61Zm11.82.126c-.57 0-1.134-.065-1.694-.196a6.111 6.111 0 0 1-1.498-.588l.49-1.302c.364.205.775.364 1.232.476a5.75 5.75 0 0 0 1.372.168c.392 0 .728-.037 1.008-.112.28-.084.495-.205.644-.364a.751.751 0 0 0 .238-.546.727.727 0 0 0-.392-.672c-.252-.159-.616-.238-1.092-.238h-1.442v-1.176h1.302c.299 0 .55-.033.756-.098.215-.065.378-.163.49-.294a.687.687 0 0 0 .168-.462.612.612 0 0 0-.21-.462c-.13-.14-.322-.243-.574-.308a3.23 3.23 0 0 0-.91-.112c-.373 0-.76.047-1.162.14a7.315 7.315 0 0 0-1.204.406l-.448-1.288a8.242 8.242 0 0 1 1.386-.49 5.75 5.75 0 0 1 1.358-.196c.681-.028 1.288.042 1.82.21.532.168.952.41 1.26.728.308.317.462.69.462 1.12 0 .355-.112.677-.336.966-.215.28-.513.5-.896.658a3.268 3.268 0 0 1-1.288.238l.056-.378c.83 0 1.484.168 1.96.504.476.327.714.775.714 1.344 0 .457-.154.863-.462 1.218-.308.345-.733.616-1.274.812-.532.196-1.143.294-1.834.294ZM33.774 28v-1.512l-.098-.322V23.52c0-.513-.154-.91-.462-1.19-.308-.29-.774-.434-1.4-.434-.42 0-.835.065-1.246.196a3.05 3.05 0 0 0-1.022.546l-.686-1.274a4.064 4.064 0 0 1 1.428-.686 6.336 6.336 0 0 1 1.736-.238c1.083 0 1.918.261 2.506.784.598.513.896 1.311.896 2.394V28h-1.652Zm-2.352.098c-.56 0-1.05-.093-1.47-.28a2.392 2.392 0 0 1-.98-.798 2.09 2.09 0 0 1-.336-1.162c0-.42.098-.798.294-1.134.206-.336.537-.602.994-.798.458-.196 1.064-.294 1.82-.294h2.17v1.162H31.87c-.597 0-.998.098-1.204.294a.907.907 0 0 0-.308.7c0 .317.126.57.378.756.252.187.602.28 1.05.28.43 0 .812-.098 1.148-.294.346-.196.593-.485.742-.868l.294 1.05c-.168.439-.471.78-.91 1.022-.429.243-.975.364-1.638.364Zm5.89-.098v-7.476h1.75v4.928l4.13-4.928h1.596V28h-1.75v-4.928L38.922 28h-1.61Zm3.626-8.358c-.747 0-1.32-.173-1.722-.518-.401-.355-.607-.868-.616-1.54h1.162c.01.336.112.602.308.798.205.196.49.294.854.294.355 0 .635-.098.84-.294.214-.196.326-.462.336-.798h1.19c-.01.672-.22 1.185-.63 1.54-.401.345-.975.518-1.722.518ZM46.862 28v-7.476h1.75v3.038h3.766v-3.038h1.75V28h-1.75v-2.954h-3.766V28h-1.75Zm12.817.098c-.83 0-1.558-.163-2.184-.49a3.711 3.711 0 0 1-1.442-1.372c-.336-.579-.504-1.237-.504-1.974 0-.747.164-1.405.49-1.974a3.616 3.616 0 0 1 1.372-1.358c.588-.327 1.256-.49 2.002-.49.728 0 1.377.159 1.946.476.57.317 1.018.765 1.344 1.344.327.579.49 1.26.49 2.044 0 .075-.004.159-.014.252 0 .093-.004.182-.014.266h-6.23V23.66h5.306l-.686.364a2.15 2.15 0 0 0-.266-1.134 2.034 2.034 0 0 0-.77-.77 2.14 2.14 0 0 0-1.106-.28c-.43 0-.807.093-1.134.28-.317.187-.57.448-.756.784-.177.327-.266.714-.266 1.162v.28c0 .448.103.845.308 1.19.206.345.495.611.868.798.374.187.803.28 1.288.28a3.1 3.1 0 0 0 1.134-.196c.336-.13.635-.336.896-.616l.938 1.078c-.336.392-.76.695-1.274.91-.504.205-1.082.308-1.736.308Zm9.292 0c-.606 0-1.162-.14-1.666-.42-.494-.28-.891-.7-1.19-1.26-.289-.57-.434-1.288-.434-2.156 0-.877.14-1.596.42-2.156.29-.56.682-.975 1.176-1.246.495-.28 1.06-.42 1.694-.42.738 0 1.386.159 1.946.476.57.317 1.018.76 1.344 1.33.336.57.504 1.241.504 2.016 0 .775-.168 1.451-.504 2.03a3.472 3.472 0 0 1-1.344 1.33c-.56.317-1.208.476-1.946.476Zm-4.144 2.618V20.524h1.666v1.764l-.056 1.988.14 1.988v4.452h-1.75Zm3.948-4.116c.42 0 .794-.093 1.12-.28.336-.187.602-.457.798-.812.196-.355.294-.77.294-1.246 0-.485-.098-.9-.294-1.246a2.026 2.026 0 0 0-.798-.812c-.326-.187-.7-.28-1.12-.28-.42 0-.798.093-1.134.28a2.026 2.026 0 0 0-.798.812c-.196.345-.294.76-.294 1.246 0 .476.098.891.294 1.246.196.355.462.625.798.812.336.187.714.28 1.134.28Z" fill="#000"/><path fill-rule="evenodd" clip-rule="evenodd" d="m85.903 36.546.888-9.543 8.67 17.618-19.172-5.275 9.614-2.8Zm-4.775 2.764 6.005-1.748.538-5.785 5.313 10.795-11.856-3.262Z" fill="#8E8E93"/><path d="m94.625 5.25-9.5 9-4.354-4.125 1.116-1.058 3.238 3.06 8.384-7.935 1.116 1.058Z" fill="#166FF5"/></svg>