<svg width="122" height="69" viewBox="0 0 122 69" fill="none" xmlns="http://www.w3.org/2000/svg"><path d="M0 56h13v13H0V56Z" fill="#1C1C20"/><path d="M40.386 14V4.2h1.484l4.298 7.154h-.798L49.598 4.2h1.484l.028 9.8h-1.736l-.014-7.098h.364L46.14 12.88h-.812l-3.64-5.978h.42V14h-1.722Zm16.476.098c-.83 0-1.558-.163-2.184-.49a3.711 3.711 0 0 1-1.441-1.372c-.337-.579-.505-1.237-.505-1.974 0-.747.164-1.405.49-1.974a3.616 3.616 0 0 1 1.372-1.358c.588-.327 1.256-.49 2.002-.49.729 0 1.377.159 1.947.476a3.437 3.437 0 0 1 1.343 1.344c.327.579.49 1.26.49 2.044 0 .075-.004.159-.014.252 0 .093-.004.182-.014.266h-6.23V9.66h5.306l-.685.364a2.15 2.15 0 0 0-.267-1.134 2.034 2.034 0 0 0-.77-.77 2.14 2.14 0 0 0-1.105-.28c-.43 0-.808.093-1.135.28a2.044 2.044 0 0 0-.756.784c-.177.327-.266.714-.266 1.162v.28c0 .448.103.845.309 1.19.205.345.494.611.867.798.374.187.803.28 1.288.28a3.1 3.1 0 0 0 1.134-.196c.337-.13.635-.336.897-.616l.938 1.078a3.362 3.362 0 0 1-1.274.91c-.505.205-1.083.308-1.736.308ZM62.01 14V6.524h1.75v3.038h3.767V6.524h1.75V14h-1.75v-2.954H63.76V14h-1.75Zm12.818.098c-.83 0-1.559-.163-2.184-.49a3.711 3.711 0 0 1-1.442-1.372c-.336-.579-.504-1.237-.504-1.974 0-.747.163-1.405.49-1.974A3.616 3.616 0 0 1 72.56 6.93c.588-.327 1.255-.49 2.002-.49.728 0 1.377.159 1.946.476a3.44 3.44 0 0 1 1.344 1.344c.326.579.49 1.26.49 2.044 0 .075-.005.159-.014.252a2.5 2.5 0 0 1-.014.266h-6.23V9.66h5.306l-.686.364a2.15 2.15 0 0 0-.266-1.134 2.034 2.034 0 0 0-.77-.77 2.14 2.14 0 0 0-1.106-.28c-.43 0-.808.093-1.134.28-.317.187-.57.448-.756.784-.177.327-.266.714-.266 1.162v.28c0 .448.102.845.308 1.19.205.345.495.611.868.798.373.187.803.28 1.288.28a3.1 3.1 0 0 0 1.134-.196c.336-.13.634-.336.896-.616l.938 1.078c-.336.392-.76.695-1.274.91-.504.205-1.083.308-1.736.308Zm10.176-.91v-5.18h-2.87l-.042 1.204c-.018.43-.046.845-.084 1.246a7.394 7.394 0 0 1-.182 1.092 2.329 2.329 0 0 1-.364.812 1.088 1.088 0 0 1-.63.42l-1.736-.266c.28 0 .504-.089.672-.266.178-.187.313-.439.406-.756.103-.327.178-.695.224-1.106.047-.42.08-.854.098-1.302l.098-2.562h6.16v6.664h-1.75Zm-6.174 2.478v-3.15h9.03v3.15h-1.638V14h-5.768v1.666H78.83ZM98.061 14l-2.184-3.584 1.428-.882L100.147 14h-2.086Zm-3.598-2.996V9.548h2.506v1.456h-2.506Zm3.01-.532-1.652-.196 2.268-3.752h1.862l-2.478 3.948ZM90.165 14h-2.072l2.828-4.466 1.428.882L90.165 14Zm4.816 0h-1.736V6.524h1.736V14Zm-1.218-2.996h-2.492V9.548h2.492v1.456Zm-3.01-.532-2.478-3.948h1.862l2.254 3.752-1.638.196Zm13.655 3.626c-.831 0-1.559-.163-2.184-.49a3.71 3.71 0 0 1-1.442-1.372c-.336-.579-.504-1.237-.504-1.974 0-.747.163-1.405.49-1.974a3.614 3.614 0 0 1 1.372-1.358c.588-.327 1.255-.49 2.002-.49.728 0 1.376.159 1.946.476a3.45 3.45 0 0 1 1.344 1.344c.326.579.49 1.26.49 2.044 0 .075-.005.159-.014.252a2.5 2.5 0 0 1-.014.266h-6.23V9.66h5.306l-.686.364c.009-.43-.08-.807-.266-1.134a2.04 2.04 0 0 0-.77-.77 2.142 2.142 0 0 0-1.106-.28c-.43 0-.808.093-1.134.28a2.03 2.03 0 0 0-.756.784c-.178.327-.266.714-.266 1.162v.28c0 .448.102.845.308 1.19.205.345.494.611.868.798.373.187.802.28 1.288.28a3.1 3.1 0 0 0 1.134-.196 2.42 2.42 0 0 0 .896-.616l.938 1.078a3.351 3.351 0 0 1-1.274.91c-.504.205-1.083.308-1.736.308Zm9.292 0c-.607 0-1.162-.14-1.666-.42-.495-.28-.891-.7-1.19-1.26-.289-.57-.434-1.288-.434-2.156 0-.877.14-1.596.42-2.156.289-.56.681-.975 1.176-1.246.495-.28 1.059-.42 1.694-.42.737 0 1.386.159 1.946.476a3.47 3.47 0 0 1 1.344 1.33c.336.57.504 1.241.504 2.016 0 .775-.168 1.451-.504 2.03a3.477 3.477 0 0 1-1.344 1.33c-.56.317-1.209.476-1.946.476Zm-4.144 2.618V6.524h1.666v1.764l-.056 1.988.14 1.988v4.452h-1.75Zm3.948-4.116c.42 0 .793-.093 1.12-.28.336-.187.602-.457.798-.812.196-.355.294-.77.294-1.246 0-.485-.098-.9-.294-1.246a2.026 2.026 0 0 0-.798-.812c-.327-.187-.7-.28-1.12-.28-.42 0-.798.093-1.134.28a2.026 2.026 0 0 0-.798.812c-.196.345-.294.76-.294 1.246 0 .476.098.891.294 1.246.196.355.462.625.798.812.336.187.714.28 1.134.28ZM40.176 31v-7.476h7.168V31h-1.736v-6.398l.406.406H41.52l.406-.406V31h-1.75Zm13.393.098c-.606 0-1.162-.14-1.666-.42-.494-.28-.891-.7-1.19-1.26-.289-.57-.434-1.288-.434-2.156 0-.877.14-1.596.42-2.156.29-.56.682-.975 1.176-1.246.495-.28 1.06-.42 1.694-.42.738 0 1.386.159 1.946.476.57.317 1.018.76 1.344 1.33.336.57.504 1.241.504 2.016 0 .775-.168 1.451-.504 2.03a3.473 3.473 0 0 1-1.344 1.33c-.56.317-1.208.476-1.946.476Zm-4.144 2.618V23.524h1.666v1.764l-.056 1.988.14 1.988v4.452h-1.75Zm3.948-4.116c.42 0 .794-.093 1.12-.28.336-.187.602-.457.798-.812.196-.355.294-.77.294-1.246 0-.485-.098-.9-.294-1.246a2.026 2.026 0 0 0-.798-.812c-.326-.187-.7-.28-1.12-.28-.42 0-.798.093-1.134.28a2.026 2.026 0 0 0-.798.812c-.196.345-.294.76-.294 1.246 0 .476.098.891.294 1.246.196.355.462.625.798.812.336.187.714.28 1.134.28Zm8.784 1.498c-.765 0-1.447-.163-2.044-.49a3.766 3.766 0 0 1-1.414-1.372c-.345-.579-.518-1.237-.518-1.974 0-.747.173-1.405.518-1.974a3.662 3.662 0 0 1 1.414-1.358c.597-.327 1.279-.49 2.044-.49.775 0 1.46.163 2.058.49a3.569 3.569 0 0 1 1.414 1.344c.345.57.518 1.232.518 1.988 0 .737-.173 1.395-.518 1.974a3.635 3.635 0 0 1-1.414 1.372c-.597.327-1.283.49-2.058.49Zm0-1.498c.43 0 .812-.093 1.148-.28.336-.187.597-.457.784-.812.196-.355.294-.77.294-1.246 0-.485-.098-.9-.294-1.246a1.937 1.937 0 0 0-.784-.812 2.295 2.295 0 0 0-1.134-.28c-.43 0-.812.093-1.148.28a2.054 2.054 0 0 0-.784.812c-.196.345-.294.76-.294 1.246 0 .476.098.891.294 1.246.196.355.457.625.784.812.336.187.714.28 1.134.28Zm8.925 1.498c-.83 0-1.559-.163-2.184-.49a3.711 3.711 0 0 1-1.442-1.372c-.336-.579-.504-1.237-.504-1.974 0-.747.163-1.405.49-1.974a3.616 3.616 0 0 1 1.372-1.358c.588-.327 1.255-.49 2.002-.49.728 0 1.376.159 1.946.476a3.44 3.44 0 0 1 1.344 1.344c.326.579.49 1.26.49 2.044 0 .075-.005.159-.014.252a2.5 2.5 0 0 1-.014.266h-6.23V26.66h5.306l-.686.364a2.15 2.15 0 0 0-.266-1.134 2.034 2.034 0 0 0-.77-.77 2.14 2.14 0 0 0-1.106-.28c-.43 0-.808.093-1.134.28a2.03 2.03 0 0 0-.756.784c-.178.327-.266.714-.266 1.162v.28c0 .448.102.845.308 1.19.205.345.494.611.868.798.373.187.802.28 1.288.28a3.1 3.1 0 0 0 1.134-.196c.336-.13.634-.336.896-.616l.938 1.078c-.336.392-.76.695-1.274.91-.504.205-1.083.308-1.736.308ZM81.592 31l-2.702-3.584 1.428-.882L83.65 31h-2.058Zm-5.362 0v-7.476h1.75V31h-1.75Zm1.232-2.996v-1.456h2.534v1.456h-2.534Zm3.024-.532-1.638-.196 2.744-3.752h1.876l-2.982 3.948ZM86.062 31v-6.412l.406.42H83.43v-1.484h7v1.484h-3.024l.406-.42V31h-1.75Zm9.894 0v-1.512l-.098-.322V26.52c0-.513-.154-.91-.462-1.19-.308-.29-.775-.434-1.4-.434-.42 0-.835.065-1.246.196a3.05 3.05 0 0 0-1.022.546l-.686-1.274a4.064 4.064 0 0 1 1.428-.686 6.336 6.336 0 0 1 1.736-.238c1.082 0 1.918.261 2.506.784.597.513.896 1.311.896 2.394V31h-1.652Zm-2.352.098c-.56 0-1.05-.093-1.47-.28a2.392 2.392 0 0 1-.98-.798 2.09 2.09 0 0 1-.336-1.162c0-.42.098-.798.294-1.134.205-.336.537-.602.994-.798.457-.196 1.064-.294 1.82-.294h2.17v1.162h-2.044c-.598 0-.999.098-1.204.294a.907.907 0 0 0-.308.7c0 .317.126.57.378.756.252.187.602.28 1.05.28.43 0 .812-.098 1.148-.294.345-.196.593-.485.742-.868l.294 1.05c-.168.439-.472.78-.91 1.022-.43.243-.976.364-1.638.364Z" fill="#000"/><path d="m22 45.62 19.172-5.274-9.614-2.8-.888-9.543L22 45.621Z" fill="#1C1C20"/></svg>