<svg width="901" height="589" viewBox="0 0 901 589" fill="none" xmlns="http://www.w3.org/2000/svg">
<path d="M0 172L278 0L570 500L382 584L0 172Z" fill="#FFE2FC"/>
<path d="M714 588.997L865 210.997L427.84 58.9141L355.625 251.748L714 588.997Z" fill="#FFE2FC"/>
<path d="M338.14 125.522H434.01C434.426 125.522 434.763 125.184 434.763 124.768C434.763 124.353 434.426 124.016 434.01 124.016H338.14C337.724 124.016 337.387 124.353 337.387 124.768C337.387 125.184 337.724 125.522 338.14 125.522Z" fill="#1C1C20" stroke="#1C1C20" stroke-width="0.500031" stroke-miterlimit="22.9256"/>
<path d="M577.631 372.606V330.448V158.842H325.612V168.862H323.18V157.626C323.18 157.468 323.212 157.309 323.273 157.161C323.333 157.015 323.424 156.88 323.538 156.765C323.651 156.653 323.787 156.564 323.932 156.504C324.08 156.443 324.238 156.41 324.396 156.41H578.846C579.005 156.41 579.163 156.443 579.311 156.504C579.459 156.564 579.595 156.654 579.707 156.765C579.821 156.882 579.911 157.017 579.97 157.164C580.03 157.311 580.062 157.468 580.062 157.626V373.823C580.062 373.98 580.029 374.139 579.969 374.287C579.909 374.432 579.82 374.567 579.707 374.68C579.595 374.794 579.459 374.883 579.312 374.944C579.165 375.006 579.006 375.038 578.846 375.038H577.631V372.606ZM325.612 484.349H324.396C324.237 484.349 324.077 484.316 323.93 484.255C323.788 484.196 323.654 484.107 323.54 483.994C323.424 483.881 323.334 483.745 323.273 483.599C323.212 483.452 323.18 483.292 323.18 483.133V363.557H325.612V439.759V481.916V484.349Z" fill="#1C1C20"/>
<path d="M899.288 309.001L664 396.242L664.966 398.847L900.254 311.606L899.288 309.001Z" fill="#166FF5"/>
<path d="M256.613 59.0014L189 183.781L191.443 185.105L259.055 60.3249L256.613 59.0014Z" fill="#166FF5"/>
<path d="M325.612 143.007H511.524V107.096H325.612V143.007ZM513.956 105.88V144.223C513.956 144.381 513.923 144.54 513.862 144.687C513.802 144.833 513.714 144.968 513.6 145.081C513.488 145.195 513.353 145.284 513.206 145.345C513.059 145.407 512.899 145.439 512.74 145.439H324.396C324.237 145.439 324.077 145.407 323.93 145.345C323.788 145.286 323.654 145.198 323.54 145.085C323.424 144.971 323.334 144.836 323.273 144.69C323.212 144.542 323.18 144.382 323.18 144.223V105.88C323.18 105.722 323.212 105.563 323.273 105.415C323.333 105.269 323.424 105.134 323.538 105.019C323.651 104.907 323.787 104.818 323.932 104.758C324.08 104.697 324.238 104.664 324.396 104.664H512.74C512.898 104.664 513.057 104.697 513.204 104.758C513.352 104.818 513.489 104.908 513.6 105.019C513.714 105.136 513.804 105.271 513.864 105.418C513.923 105.565 513.956 105.722 513.956 105.88Z" fill="#166FF5"/>
<path d="M343.226 376.632H517.238C517.993 376.632 518.605 376.294 518.605 375.878C518.605 375.462 517.993 375.125 517.238 375.125H343.226C342.471 375.125 341.859 375.462 341.859 375.878C341.859 376.294 342.471 376.632 343.226 376.632Z" fill="#1C1C20" stroke="#1C1C20" stroke-width="0.500031" stroke-miterlimit="22.9256"/>
<path d="M343.226 395.935H517.238C517.993 395.935 518.605 395.598 518.605 395.182C518.605 394.767 517.993 394.43 517.238 394.43H343.226C342.471 394.43 341.859 394.767 341.859 395.182C341.859 395.598 342.471 395.935 343.226 395.935Z" fill="#1C1C20" stroke="#1C1C20" stroke-width="0.500031" stroke-miterlimit="22.9256"/>
<path d="M343.226 416.327H479.697C480.45 416.327 481.062 415.989 481.062 415.573C481.062 415.158 480.45 414.82 479.697 414.82H343.226C342.471 414.82 341.859 415.158 341.859 415.573C341.859 415.989 342.471 416.327 343.226 416.327Z" fill="#1C1C20" stroke="#1C1C20" stroke-width="0.500031" stroke-miterlimit="22.9256"/>
<path d="M343.226 435.631H443.589C444.343 435.631 444.955 435.294 444.955 434.878C444.955 434.462 444.343 434.125 443.589 434.125H343.226C342.471 434.125 341.859 434.462 341.859 434.878C341.859 435.294 342.471 435.631 343.226 435.631Z" fill="#1C1C20" stroke="#1C1C20" stroke-width="0.500031" stroke-miterlimit="22.9256"/>
<path d="M264.874 228.402H503.477V177.334H264.874V228.402ZM505.909 176.118V229.619C505.909 229.777 505.876 229.936 505.815 230.083C505.755 230.229 505.667 230.364 505.553 230.477C505.441 230.591 505.306 230.68 505.159 230.741C505.012 230.803 504.852 230.835 504.693 230.835H263.657C263.498 230.835 263.339 230.802 263.192 230.741C263.049 230.682 262.915 230.594 262.802 230.481C262.686 230.367 262.596 230.231 262.535 230.085C262.474 229.938 262.441 229.778 262.441 229.619V176.118C262.441 175.96 262.474 175.801 262.535 175.653C262.595 175.507 262.685 175.372 262.8 175.258C262.913 175.145 263.048 175.056 263.194 174.996C263.342 174.935 263.5 174.902 263.657 174.902H504.693C504.851 174.902 505.009 174.935 505.157 174.996C505.305 175.057 505.442 175.146 505.553 175.258C505.667 175.374 505.757 175.51 505.817 175.656C505.876 175.803 505.909 175.961 505.909 176.118Z" fill="#166FF5"/>
<path d="M286.745 291.004H525.348V239.936H286.745V291.004ZM527.78 238.72V292.221C527.78 292.378 527.747 292.537 527.686 292.685C527.626 292.83 527.538 292.966 527.424 293.079C527.312 293.192 527.177 293.282 527.03 293.342C526.883 293.404 526.723 293.437 526.564 293.437H285.528C285.369 293.437 285.21 293.404 285.063 293.343C284.92 293.284 284.786 293.195 284.673 293.082C284.557 292.968 284.467 292.833 284.406 292.687C284.345 292.539 284.312 292.38 284.312 292.221V238.72C284.312 238.562 284.345 238.403 284.406 238.255C284.466 238.109 284.556 237.974 284.671 237.859C284.784 237.747 284.919 237.658 285.065 237.597C285.213 237.536 285.371 237.504 285.528 237.504H526.564C526.722 237.504 526.881 237.537 527.028 237.597C527.176 237.658 527.313 237.747 527.424 237.859C527.539 237.976 527.628 238.111 527.688 238.257C527.747 238.405 527.78 238.562 527.78 238.72Z" fill="#166FF5"/>
<path d="M303.663 352.949H309.01H355.39H542.266V301.881H355.39H309.01H303.663V352.949ZM544.698 300.665V354.166C544.698 354.324 544.665 354.482 544.604 354.63C544.544 354.776 544.456 354.911 544.342 355.024C544.23 355.138 544.095 355.227 543.948 355.287C543.801 355.349 543.641 355.382 543.482 355.382H302.446C302.287 355.382 302.128 355.349 301.981 355.288C301.838 355.229 301.704 355.14 301.591 355.027C301.475 354.914 301.385 354.778 301.324 354.632C301.263 354.485 301.23 354.325 301.23 354.166V300.665C301.23 300.507 301.263 300.348 301.324 300.2C301.384 300.054 301.474 299.919 301.589 299.804C301.702 299.692 301.837 299.603 301.983 299.543C302.131 299.482 302.289 299.449 302.446 299.449H543.482C543.64 299.449 543.798 299.482 543.946 299.543C544.094 299.604 544.231 299.693 544.342 299.804C544.456 299.921 544.546 300.056 544.606 300.203C544.665 300.35 544.698 300.508 544.698 300.665Z" fill="#166FF5"/>
<path d="M594.19 312.742H718.455V158.842H594.19V312.742ZM720.887 157.626V313.959C720.887 314.117 720.854 314.276 720.794 314.423C720.734 314.569 720.645 314.704 720.532 314.817C720.419 314.931 720.284 315.02 720.137 315.081C719.99 315.142 719.831 315.175 719.671 315.175H592.974C592.815 315.175 592.655 315.142 592.509 315.081C592.366 315.022 592.232 314.934 592.118 314.82C592.002 314.707 591.912 314.571 591.852 314.425C591.79 314.278 591.758 314.118 591.758 313.959V157.626C591.758 157.468 591.79 157.309 591.852 157.161C591.911 157.015 592.002 156.88 592.117 156.765C592.23 156.653 592.365 156.564 592.511 156.504C592.658 156.443 592.816 156.41 592.974 156.41H719.671C719.829 156.41 719.988 156.443 720.136 156.504C720.284 156.564 720.42 156.654 720.532 156.765C720.646 156.882 720.736 157.017 720.795 157.164C720.854 157.311 720.887 157.468 720.887 157.626Z" fill="#166FF5"/>
<path d="M759.43 230.892V232.551H757.771C757.466 232.551 757.219 232.799 757.219 233.104C757.219 233.411 757.466 233.657 757.771 233.657H759.983C760.128 233.657 760.27 233.598 760.373 233.495C760.476 233.392 760.535 233.25 760.535 233.104V230.892C760.535 230.588 760.288 230.34 759.983 230.34C759.676 230.34 759.43 230.588 759.43 230.892Z" fill="#1C1C20" stroke="#1C1C20" stroke-width="0.500031" stroke-miterlimit="22.9256"/>
<path d="M753.268 232.551H748.767C748.463 232.551 748.214 232.799 748.214 233.104C748.214 233.41 748.463 233.656 748.767 233.656H753.268C753.573 233.656 753.821 233.41 753.821 233.104C753.821 232.799 753.573 232.551 753.268 232.551ZM744.268 232.551H739.767C739.462 232.551 739.214 232.799 739.214 233.104C739.214 233.41 739.462 233.656 739.767 233.656H744.268C744.573 233.656 744.821 233.41 744.821 233.104C744.821 232.799 744.573 232.551 744.268 232.551ZM735.268 232.551H730.767C730.462 232.551 730.215 232.799 730.215 233.104C730.215 233.41 730.462 233.656 730.767 233.656H735.268C735.573 233.656 735.821 233.41 735.821 233.104C735.821 232.799 735.573 232.551 735.268 232.551ZM726.268 232.551H721.767C721.462 232.551 721.214 232.799 721.214 233.104C721.214 233.41 721.462 233.656 721.767 233.656H726.268C726.573 233.656 726.82 233.41 726.82 233.104C726.82 232.799 726.573 232.551 726.268 232.551ZM717.267 232.551H712.767C712.462 232.551 712.214 232.799 712.214 233.104C712.214 233.41 712.462 233.656 712.767 233.656H717.267C717.573 233.656 717.819 233.41 717.819 233.104C717.819 232.799 717.573 232.551 717.267 232.551ZM708.267 232.551H703.767C703.462 232.551 703.214 232.799 703.214 233.104C703.214 233.41 703.462 233.656 703.767 233.656H708.267C708.572 233.656 708.819 233.41 708.819 233.104C708.819 232.799 708.572 232.551 708.267 232.551ZM699.266 232.551H694.767C694.46 232.551 694.214 232.799 694.214 233.104C694.214 233.41 694.46 233.656 694.767 233.656H699.266C699.571 233.656 699.819 233.41 699.819 233.104C699.819 232.799 699.571 232.551 699.266 232.551ZM690.266 232.551H685.766C685.461 232.551 685.212 232.799 685.212 233.104C685.212 233.41 685.461 233.656 685.766 233.656H690.266C690.572 233.656 690.819 233.41 690.819 233.104C690.819 232.799 690.572 232.551 690.266 232.551ZM681.266 232.551H676.765C676.46 232.551 676.213 232.799 676.213 233.104C676.213 233.41 676.46 233.656 676.765 233.656H681.266C681.572 233.656 681.819 233.41 681.819 233.104C681.819 232.799 681.572 232.551 681.266 232.551ZM672.266 232.551H667.765C667.46 232.551 667.213 232.799 667.213 233.104C667.213 233.41 667.46 233.656 667.765 233.656H672.266C672.571 233.656 672.819 233.41 672.819 233.104C672.819 232.799 672.571 232.551 672.266 232.551ZM663.264 232.551H658.765C658.461 232.551 658.212 232.799 658.212 233.104C658.212 233.41 658.461 233.656 658.765 233.656H663.264C663.571 233.656 663.818 233.41 663.818 233.104C663.818 232.799 663.571 232.551 663.264 232.551ZM654.265 232.551H649.765C649.46 232.551 649.212 232.799 649.212 233.104C649.212 233.41 649.46 233.656 649.765 233.656H654.265C654.569 233.656 654.817 233.41 654.817 233.104C654.817 232.799 654.569 232.551 654.265 232.551ZM645.265 232.551H640.765C640.458 232.551 640.212 232.799 640.212 233.104C640.212 233.41 640.458 233.656 640.765 233.656H645.265C645.57 233.656 645.817 233.41 645.817 233.104C645.817 232.799 645.57 232.551 645.265 232.551ZM636.264 232.551H631.764C631.458 232.551 631.211 232.799 631.211 233.104C631.211 233.41 631.458 233.656 631.764 233.656H636.264C636.569 233.656 636.817 233.41 636.817 233.104C636.817 232.799 636.569 232.551 636.264 232.551ZM627.264 232.551H622.764C622.459 232.551 622.211 232.799 622.211 233.104C622.211 233.41 622.459 233.656 622.764 233.656H627.264C627.57 233.656 627.817 233.41 627.817 233.104C627.817 232.799 627.57 232.551 627.264 232.551ZM618.264 232.551H613.764C613.458 232.551 613.211 232.799 613.211 233.104C613.211 233.41 613.458 233.656 613.764 233.656H618.264C618.569 233.656 618.817 233.41 618.817 233.104C618.817 232.799 618.569 232.551 618.264 232.551ZM609.264 232.551H604.763C604.458 232.551 604.211 232.799 604.211 233.104C604.211 233.41 604.458 233.656 604.763 233.656H609.264C609.569 233.656 609.817 233.41 609.817 233.104C609.817 232.799 609.569 232.551 609.264 232.551Z" fill="#1C1C20" stroke="#1C1C20" stroke-width="0.500031" stroke-miterlimit="22.9256"/>
<path d="M600.26 232.551H598.602V230.892C598.602 230.588 598.355 230.34 598.048 230.34C597.743 230.34 597.496 230.588 597.496 230.892V233.104C597.496 233.25 597.556 233.392 597.658 233.495C597.761 233.598 597.904 233.657 598.048 233.657H600.26C600.566 233.657 600.812 233.411 600.812 233.104C600.812 232.799 600.566 232.551 600.26 232.551Z" fill="#1C1C20" stroke="#1C1C20" stroke-width="0.500031" stroke-miterlimit="22.9256"/>
<path d="M598.602 226.483V222.073C598.602 221.768 598.355 221.52 598.048 221.52C597.743 221.52 597.496 221.768 597.496 222.073V226.483C597.496 226.788 597.743 227.036 598.048 227.036C598.355 227.036 598.602 226.788 598.602 226.483ZM598.602 217.663V213.255C598.602 212.949 598.355 212.702 598.048 212.702C597.743 212.702 597.496 212.949 597.496 213.255V217.663C597.496 217.968 597.743 218.216 598.048 218.216C598.355 218.216 598.602 217.968 598.602 217.663ZM598.602 208.845V204.434C598.602 204.129 598.355 203.882 598.048 203.882C597.743 203.882 597.496 204.129 597.496 204.434V208.845C597.496 209.15 597.743 209.397 598.048 209.397C598.355 209.397 598.602 209.15 598.602 208.845ZM598.602 200.025V195.616C598.602 195.311 598.355 195.063 598.048 195.063C597.743 195.063 597.496 195.311 597.496 195.616V200.025C597.496 200.331 597.743 200.578 598.048 200.578C598.355 200.578 598.602 200.331 598.602 200.025ZM598.602 191.206V186.797C598.602 186.49 598.355 186.244 598.048 186.244C597.743 186.244 597.496 186.49 597.496 186.797V191.206C597.496 191.511 597.743 191.759 598.048 191.759C598.355 191.759 598.602 191.511 598.602 191.206ZM598.602 182.387V177.977C598.602 177.672 598.355 177.424 598.048 177.424C597.743 177.424 597.496 177.672 597.496 177.977V182.387C597.496 182.692 597.743 182.94 598.048 182.94C598.355 182.94 598.602 182.692 598.602 182.387ZM598.602 173.567V169.158C598.602 168.853 598.355 168.605 598.048 168.605C597.743 168.605 597.496 168.853 597.496 169.158V173.567C597.496 173.873 597.743 174.12 598.048 174.12C598.355 174.12 598.602 173.873 598.602 173.567Z" fill="#1C1C20" stroke="#1C1C20" stroke-width="0.500031" stroke-miterlimit="22.9256"/>
<path d="M598.602 164.748V163.09H600.26C600.566 163.09 600.812 162.843 600.812 162.537C600.812 162.232 600.566 161.984 600.26 161.984H598.048C597.904 161.984 597.761 162.043 597.658 162.147C597.556 162.25 597.496 162.391 597.496 162.537V164.748C597.496 165.053 597.743 165.301 598.048 165.301C598.355 165.301 598.602 165.053 598.602 164.748Z" fill="#1C1C20" stroke="#1C1C20" stroke-width="0.500031" stroke-miterlimit="22.9256"/>
<path d="M604.763 163.09H609.264C609.569 163.09 609.817 162.843 609.817 162.537C609.817 162.232 609.569 161.984 609.264 161.984H604.763C604.458 161.984 604.211 162.232 604.211 162.537C604.211 162.843 604.458 163.09 604.763 163.09ZM613.764 163.09H618.264C618.569 163.09 618.817 162.843 618.817 162.537C618.817 162.232 618.569 161.984 618.264 161.984H613.764C613.458 161.984 613.211 162.232 613.211 162.537C613.211 162.843 613.458 163.09 613.764 163.09ZM622.764 163.09H627.264C627.57 163.09 627.817 162.843 627.817 162.537C627.817 162.232 627.57 161.984 627.264 161.984H622.764C622.459 161.984 622.211 162.232 622.211 162.537C622.211 162.843 622.459 163.09 622.764 163.09ZM631.765 163.09H636.264C636.569 163.09 636.817 162.843 636.817 162.537C636.817 162.232 636.569 161.984 636.264 161.984H631.765C631.458 161.984 631.212 162.232 631.212 162.537C631.212 162.843 631.458 163.09 631.765 163.09ZM640.765 163.09H645.265C645.57 163.09 645.817 162.843 645.817 162.537C645.817 162.232 645.57 161.984 645.265 161.984H640.765C640.46 161.984 640.212 162.232 640.212 162.537C640.212 162.843 640.46 163.09 640.765 163.09ZM649.765 163.09H654.265C654.571 163.09 654.817 162.843 654.817 162.537C654.817 162.232 654.571 161.984 654.265 161.984H649.765C649.46 161.984 649.212 162.232 649.212 162.537C649.212 162.843 649.46 163.09 649.765 163.09ZM658.765 163.09H663.266C663.571 163.09 663.818 162.843 663.818 162.537C663.818 162.232 663.571 161.984 663.266 161.984H658.765C658.461 161.984 658.212 162.232 658.212 162.537C658.212 162.843 658.461 163.09 658.765 163.09ZM667.765 163.09H672.266C672.571 163.09 672.819 162.843 672.819 162.537C672.819 162.232 672.571 161.984 672.266 161.984H667.765C667.46 161.984 667.213 162.232 667.213 162.537C667.213 162.843 667.46 163.09 667.765 163.09ZM676.765 163.09H681.266C681.572 163.09 681.819 162.843 681.819 162.537C681.819 162.232 681.572 161.984 681.266 161.984H676.765C676.46 161.984 676.213 162.232 676.213 162.537C676.213 162.843 676.46 163.09 676.765 163.09ZM685.766 163.09H690.266C690.572 163.09 690.819 162.843 690.819 162.537C690.819 162.232 690.572 161.984 690.266 161.984H685.766C685.461 161.984 685.212 162.232 685.212 162.537C685.212 162.843 685.461 163.09 685.766 163.09ZM694.767 163.09H699.266C699.571 163.09 699.819 162.843 699.819 162.537C699.819 162.232 699.571 161.984 699.266 161.984H694.767C694.46 161.984 694.214 162.232 694.214 162.537C694.214 162.843 694.46 163.09 694.767 163.09ZM703.767 163.09H708.267C708.572 163.09 708.819 162.843 708.819 162.537C708.819 162.232 708.572 161.984 708.267 161.984H703.767C703.462 161.984 703.214 162.232 703.214 162.537C703.214 162.843 703.462 163.09 703.767 163.09ZM712.767 163.09H717.268C717.573 163.09 717.82 162.843 717.82 162.537C717.82 162.232 717.573 161.984 717.268 161.984H712.767C712.462 161.984 712.214 162.232 712.214 162.537C712.214 162.843 712.462 163.09 712.767 163.09ZM721.767 163.09H726.268C726.573 163.09 726.82 162.843 726.82 162.537C726.82 162.232 726.573 161.984 726.268 161.984H721.767C721.462 161.984 721.214 162.232 721.214 162.537C721.214 162.843 721.462 163.09 721.767 163.09ZM730.767 163.09H735.268C735.573 163.09 735.821 162.843 735.821 162.537C735.821 162.232 735.573 161.984 735.268 161.984H730.767C730.462 161.984 730.215 162.232 730.215 162.537C730.215 162.843 730.462 163.09 730.767 163.09ZM739.767 163.09H744.268C744.573 163.09 744.821 162.843 744.821 162.537C744.821 162.232 744.573 161.984 744.268 161.984H739.767C739.462 161.984 739.214 162.232 739.214 162.537C739.214 162.843 739.462 163.09 739.767 163.09ZM748.768 163.09H753.268C753.573 163.09 753.821 162.843 753.821 162.537C753.821 162.232 753.573 161.984 753.268 161.984H748.768C748.463 161.984 748.216 162.232 748.216 162.537C748.216 162.843 748.463 163.09 748.768 163.09Z" fill="#1C1C20" stroke="#1C1C20" stroke-width="0.500031" stroke-miterlimit="22.9256"/>
<path d="M757.771 163.09H759.43V164.748C759.43 165.053 759.676 165.301 759.983 165.301C760.288 165.301 760.535 165.053 760.535 164.748V162.537C760.535 162.391 760.476 162.25 760.373 162.147C760.27 162.043 760.128 161.984 759.983 161.984H757.771C757.466 161.984 757.219 162.232 757.219 162.537C757.219 162.843 757.466 163.09 757.771 163.09Z" fill="#1C1C20" stroke="#1C1C20" stroke-width="0.500031" stroke-miterlimit="22.9256"/>
<path d="M759.426 169.158V173.568C759.426 173.873 759.673 174.121 759.979 174.121C760.284 174.121 760.531 173.873 760.531 173.568V169.158C760.531 168.853 760.284 168.605 759.979 168.605C759.673 168.605 759.426 168.853 759.426 169.158ZM759.426 177.977V182.387C759.426 182.692 759.673 182.94 759.979 182.94C760.284 182.94 760.531 182.692 760.531 182.387V177.977C760.531 177.672 760.284 177.424 759.979 177.424C759.673 177.424 759.426 177.672 759.426 177.977ZM759.426 186.797V191.206C759.426 191.511 759.673 191.759 759.979 191.759C760.284 191.759 760.531 191.511 760.531 191.206V186.797C760.531 186.49 760.284 186.244 759.979 186.244C759.673 186.244 759.426 186.49 759.426 186.797ZM759.426 195.616V200.025C759.426 200.331 759.673 200.578 759.979 200.578C760.284 200.578 760.531 200.331 760.531 200.025V195.616C760.531 195.311 760.284 195.063 759.979 195.063C759.673 195.063 759.426 195.311 759.426 195.616ZM759.426 204.434V208.845C759.426 209.15 759.673 209.397 759.979 209.397C760.284 209.397 760.531 209.15 760.531 208.845V204.434C760.531 204.129 760.284 203.882 759.979 203.882C759.673 203.882 759.426 204.129 759.426 204.434ZM759.426 213.255V217.663C759.426 217.969 759.673 218.216 759.979 218.216C760.284 218.216 760.531 217.969 760.531 217.663V213.255C760.531 212.949 760.284 212.702 759.979 212.702C759.673 212.702 759.426 212.949 759.426 213.255ZM759.426 222.073V226.483C759.426 226.788 759.673 227.036 759.979 227.036C760.284 227.036 760.531 226.788 760.531 226.483V222.073C760.531 221.768 760.284 221.52 759.979 221.52C759.673 221.52 759.426 221.768 759.426 222.073Z" fill="#1C1C20" stroke="#1C1C20" stroke-width="0.500031" stroke-miterlimit="22.9256"/>
<path d="M278.498 193.789L275.016 195.891L275.933 191.928L272.859 189.261L276.915 188.919L278.498 185.178L280.081 188.919L284.137 189.261L281.063 191.928L281.979 195.891L278.498 193.789ZM287.757 188.095L281.1 187.53L278.498 181.391L275.896 187.53L269.238 188.095L274.285 192.474L272.776 198.984L278.498 195.53L284.22 198.984L282.702 192.474L287.757 188.095Z" fill="black"/>
<path d="M300.92 256.668L297.438 258.77L298.355 254.807L295.281 252.14L299.337 251.798L300.92 248.057L302.503 251.798L306.559 252.14L303.484 254.807L304.401 258.77L300.92 256.668ZM310.179 250.974L303.522 250.409L300.92 244.27L298.318 250.409L291.66 250.974L296.706 255.353L295.197 261.863L300.92 258.409L306.642 261.863L305.123 255.353L310.179 250.974Z" fill="black"/>
<path d="M317.314 318.574L313.833 320.676L314.749 316.713L311.675 314.046L315.731 313.704L317.314 309.963L318.897 313.704L322.953 314.046L319.879 316.713L320.796 320.676L317.314 318.574ZM326.574 312.88L319.916 312.315L317.314 306.176L314.712 312.315L308.055 312.88L313.101 317.259L311.592 323.769L317.314 320.315L323.037 323.769L321.518 317.259L326.574 312.88Z" fill="black"/>
<path d="M645.754 253.551L669.751 260.153L657.717 263.657L656.606 275.601L645.754 253.551Z" fill="#1C1C20"/>
<path d="M619.387 240.428H635.147V224.668H619.387V240.428Z" fill="#1C1C20"/>
<path d="M686.753 224.671L670.352 210.549L646.495 222.171C646.283 222.273 646.051 222.3 645.833 222.259C645.611 222.216 645.405 222.104 645.246 221.927L616.944 190.551L605.488 197.226V194.777L616.624 188.29C616.84 188.165 617.085 188.125 617.318 188.161C617.553 188.199 617.772 188.312 617.94 188.498L646.283 219.919L670.05 208.34C670.238 208.251 670.446 208.219 670.647 208.245C670.85 208.271 671.044 208.354 671.201 208.49L689.992 224.671H686.753Z" fill="#166FF5"/>
<path d="M683.501 185.438C683.501 186.827 683.776 188.149 684.274 189.352C684.792 190.606 685.555 191.734 686.498 192.679C687.444 193.624 688.572 194.385 689.823 194.903C691.027 195.402 692.351 195.677 693.742 195.677C695.133 195.677 696.456 195.402 697.66 194.903C698.91 194.385 700.038 193.624 700.984 192.679C701.929 191.732 702.692 190.604 703.208 189.356C703.707 188.152 703.982 186.828 703.982 185.438C703.982 184.046 703.707 182.722 703.208 181.519C702.692 180.27 701.929 179.142 700.983 178.196C700.04 177.252 698.911 176.49 697.657 175.97C696.455 175.471 695.132 175.196 693.742 175.196C692.353 175.196 691.029 175.471 689.826 175.97C688.572 176.488 687.444 177.25 686.498 178.195C685.554 179.142 684.791 180.27 684.274 181.519C683.776 182.725 683.501 184.048 683.501 185.438ZM681.383 185.438C681.383 182.025 682.767 178.935 685.003 176.698C687.239 174.462 690.33 173.078 693.742 173.078C697.154 173.078 700.243 174.462 702.48 176.698C704.716 178.935 706.1 182.025 706.1 185.438C706.1 188.849 704.716 191.939 702.48 194.175C700.243 196.411 697.154 197.795 693.742 197.795C690.33 197.795 687.239 196.411 685.003 194.175C682.767 191.939 681.383 188.849 681.383 185.438Z" fill="#166FF5"/>
</svg>
