<svg width="945" height="608" viewBox="0 0 945 608" fill="none" xmlns="http://www.w3.org/2000/svg">
<path d="M0 172L278 0L570 500L382 584L0 172Z" fill="#FFE2FC"/>
<path d="M790.453 607.549L944.935 319.446L427.836 58.9219L355.621 251.756L790.453 607.549Z" fill="#FFE2FC"/>
<path d="M916.096 282L662 376.215L663.043 379.028L917.139 284.813L916.096 282Z" fill="#166FF5"/>
<path d="M183.017 80.9998L110 215.754L112.638 217.183L185.655 82.4292L183.017 80.9998Z" fill="#166FF5"/>
<path d="M404.886 404.191H398.426C397.988 404.191 397.633 404.547 397.633 404.985C397.633 405.424 397.988 405.778 398.426 405.778H404.886C405.324 405.778 405.679 405.424 405.679 404.985C405.679 404.547 405.324 404.191 404.886 404.191Z" fill="#1C1C20" stroke="#1C1C20" stroke-width="0.500031" stroke-miterlimit="22.9256"/>
<path d="M417.804 404.191H411.344C410.906 404.191 410.551 404.547 410.551 404.985C410.551 405.424 410.906 405.778 411.344 405.778H417.804C418.242 405.778 418.597 405.424 418.597 404.985C418.597 404.547 418.242 404.191 417.804 404.191Z" fill="#1C1C20" stroke="#1C1C20" stroke-width="0.500031" stroke-miterlimit="22.9256"/>
<path d="M430.722 404.191H424.263C423.825 404.191 423.469 404.547 423.469 404.985C423.469 405.424 423.825 405.778 424.263 405.778H430.722C431.161 405.778 431.516 405.424 431.516 404.985C431.516 404.547 431.161 404.191 430.722 404.191Z" fill="#1C1C20" stroke="#1C1C20" stroke-width="0.500031" stroke-miterlimit="22.9256"/>
<path d="M443.64 404.191H437.181C436.742 404.191 436.387 404.547 436.387 404.985C436.387 405.424 436.742 405.778 437.181 405.778H443.64C444.078 405.778 444.433 405.424 444.433 404.985C444.433 404.547 444.078 404.191 443.64 404.191Z" fill="#1C1C20" stroke="#1C1C20" stroke-width="0.500031" stroke-miterlimit="22.9256"/>
<path d="M456.556 404.191H450.098C449.658 404.191 449.305 404.547 449.305 404.985C449.305 405.424 449.658 405.778 450.098 405.778H456.556C456.994 405.778 457.349 405.424 457.349 404.985C457.349 404.547 456.994 404.191 456.556 404.191Z" fill="#1C1C20" stroke="#1C1C20" stroke-width="0.500031" stroke-miterlimit="22.9256"/>
<path d="M469.475 404.191H463.017C462.579 404.191 462.223 404.547 462.223 404.985C462.223 405.424 462.579 405.778 463.017 405.778H469.475C469.912 405.778 470.268 405.424 470.268 404.985C470.268 404.547 469.912 404.191 469.475 404.191Z" fill="#1C1C20" stroke="#1C1C20" stroke-width="0.500031" stroke-miterlimit="22.9256"/>
<path d="M482.392 404.191H475.934C475.497 404.191 475.141 404.547 475.141 404.985C475.141 405.424 475.497 405.778 475.934 405.778H482.392C482.832 405.778 483.186 405.424 483.186 404.985C483.186 404.547 482.832 404.191 482.392 404.191Z" fill="#1C1C20" stroke="#1C1C20" stroke-width="0.500031" stroke-miterlimit="22.9256"/>
<path d="M495.312 404.191H488.852C488.414 404.191 488.059 404.547 488.059 404.985C488.059 405.424 488.414 405.778 488.852 405.778H495.312C495.75 405.778 496.105 405.424 496.105 404.985C496.105 404.547 495.75 404.191 495.312 404.191Z" fill="#1C1C20" stroke="#1C1C20" stroke-width="0.500031" stroke-miterlimit="22.9256"/>
<path d="M508.229 404.191H501.77C501.331 404.191 500.977 404.547 500.977 404.985C500.977 405.424 501.331 405.778 501.77 405.778H508.229C508.667 405.778 509.022 405.424 509.022 404.985C509.022 404.547 508.667 404.191 508.229 404.191Z" fill="#1C1C20" stroke="#1C1C20" stroke-width="0.500031" stroke-miterlimit="22.9256"/>
<path d="M501.77 341.587H508.229C508.667 341.587 509.022 341.232 509.022 340.794C509.022 340.355 508.667 340 508.229 340H501.77C501.331 340 500.977 340.355 500.977 340.794C500.977 341.232 501.331 341.587 501.77 341.587Z" fill="#1C1C20" stroke="#1C1C20" stroke-width="0.500031" stroke-miterlimit="22.9256"/>
<path d="M488.852 341.587H495.312C495.75 341.587 496.105 341.232 496.105 340.794C496.105 340.355 495.75 340 495.312 340H488.852C488.414 340 488.059 340.355 488.059 340.794C488.059 341.232 488.414 341.587 488.852 341.587Z" fill="#1C1C20" stroke="#1C1C20" stroke-width="0.500031" stroke-miterlimit="22.9256"/>
<path d="M475.934 341.587H482.394C482.832 341.587 483.187 341.232 483.187 340.794C483.187 340.355 482.832 340 482.394 340H475.934C475.497 340 475.141 340.355 475.141 340.794C475.141 341.232 475.497 341.587 475.934 341.587Z" fill="#1C1C20" stroke="#1C1C20" stroke-width="0.500031" stroke-miterlimit="22.9256"/>
<path d="M463.017 341.587H469.475C469.914 341.587 470.268 341.232 470.268 340.794C470.268 340.355 469.914 340 469.475 340H463.017C462.579 340 462.223 340.355 462.223 340.794C462.223 341.232 462.579 341.587 463.017 341.587Z" fill="#1C1C20" stroke="#1C1C20" stroke-width="0.500031" stroke-miterlimit="22.9256"/>
<path d="M450.098 341.587H456.556C456.994 341.587 457.349 341.232 457.349 340.794C457.349 340.355 456.994 340 456.556 340H450.098C449.66 340 449.305 340.355 449.305 340.794C449.305 341.232 449.66 341.587 450.098 341.587Z" fill="#1C1C20" stroke="#1C1C20" stroke-width="0.500031" stroke-miterlimit="22.9256"/>
<path d="M437.18 341.587H443.638C444.076 341.587 444.431 341.232 444.431 340.794C444.431 340.355 444.076 340 443.638 340H437.18C436.74 340 436.387 340.355 436.387 340.794C436.387 341.232 436.74 341.587 437.18 341.587Z" fill="#1C1C20" stroke="#1C1C20" stroke-width="0.500031" stroke-miterlimit="22.9256"/>
<path d="M424.263 341.587H430.722C431.161 341.587 431.516 341.232 431.516 340.794C431.516 340.355 431.161 340 430.722 340H424.263C423.825 340 423.469 340.355 423.469 340.794C423.469 341.232 423.825 341.587 424.263 341.587Z" fill="#1C1C20" stroke="#1C1C20" stroke-width="0.500031" stroke-miterlimit="22.9256"/>
<path d="M411.344 341.587H417.804C418.242 341.587 418.597 341.232 418.597 340.794C418.597 340.355 418.242 340 417.804 340H411.344C410.906 340 410.551 340.355 410.551 340.794C410.551 341.232 410.906 341.587 411.344 341.587Z" fill="#1C1C20" stroke="#1C1C20" stroke-width="0.500031" stroke-miterlimit="22.9256"/>
<path d="M398.426 341.587H404.886C405.324 341.587 405.679 341.232 405.679 340.794C405.679 340.355 405.324 340 404.886 340H398.426C397.988 340 397.633 340.355 397.633 340.794C397.633 341.232 397.988 341.587 398.426 341.587Z" fill="#1C1C20" stroke="#1C1C20" stroke-width="0.500031" stroke-miterlimit="22.9256"/>
<path d="M391.967 404.194H389.587V401.813C389.587 401.376 389.233 401.02 388.793 401.02C388.355 401.02 388 401.376 388 401.813V404.987C388 405.197 388.086 405.401 388.233 405.549C388.381 405.696 388.586 405.78 388.793 405.78H391.967C392.407 405.78 392.76 405.427 392.76 404.987C392.76 404.549 392.407 404.194 391.967 404.194Z" fill="#1C1C20" stroke="#1C1C20" stroke-width="0.500031" stroke-miterlimit="22.9256"/>
<path d="M389.587 356.625V350.297C389.587 349.859 389.233 349.504 388.793 349.504C388.355 349.504 388 349.859 388 350.297V356.625C388 357.065 388.355 357.419 388.793 357.419C389.233 357.419 389.587 357.065 389.587 356.625Z" fill="#1C1C20" stroke="#1C1C20" stroke-width="0.500031" stroke-miterlimit="22.9256"/>
<path d="M389.587 369.287V362.957C389.587 362.519 389.233 362.164 388.793 362.164C388.355 362.164 388 362.519 388 362.957V369.287C388 369.725 388.355 370.08 388.793 370.08C389.233 370.08 389.587 369.725 389.587 369.287Z" fill="#1C1C20" stroke="#1C1C20" stroke-width="0.500031" stroke-miterlimit="22.9256"/>
<path d="M389.587 381.941V375.614C389.587 375.174 389.233 374.82 388.793 374.82C388.355 374.82 388 375.174 388 375.614V381.941C388 382.379 388.355 382.735 388.793 382.735C389.233 382.735 389.587 382.379 389.587 381.941Z" fill="#1C1C20" stroke="#1C1C20" stroke-width="0.500031" stroke-miterlimit="22.9256"/>
<path d="M389.587 394.603V388.275C389.587 387.837 389.233 387.48 388.793 387.48C388.355 387.48 388 387.837 388 388.275V394.603C388 395.041 388.355 395.397 388.793 395.397C389.233 395.397 389.587 395.041 389.587 394.603Z" fill="#1C1C20" stroke="#1C1C20" stroke-width="0.500031" stroke-miterlimit="22.9256"/>
<path d="M389.587 343.967V341.587H391.967C392.407 341.587 392.76 341.232 392.76 340.794C392.76 340.355 392.407 340 391.967 340H388.793C388.586 340 388.381 340.084 388.233 340.234C388.086 340.381 388 340.584 388 340.794V343.967C388 344.405 388.355 344.76 388.793 344.76C389.233 344.76 389.587 344.405 389.587 343.967Z" fill="#1C1C20" stroke="#1C1C20" stroke-width="0.500031" stroke-miterlimit="22.9256"/>
<path d="M515.124 341.587H517.504V343.967C517.504 344.405 517.858 344.76 518.298 344.76C518.736 344.76 519.091 344.405 519.091 343.967V340.794C519.091 340.584 519.005 340.381 518.858 340.234C518.71 340.084 518.506 340 518.298 340H515.124C514.081 340 514.081 341.587 515.124 341.587Z" fill="#1C1C20" stroke="#1C1C20" stroke-width="0.500031" stroke-miterlimit="22.9256"/>
<path d="M517.504 388.275V394.603C517.504 395.041 517.858 395.397 518.298 395.397C518.736 395.397 519.091 395.041 519.091 394.603V388.275C519.091 387.837 518.736 387.48 518.298 387.48C517.858 387.48 517.504 387.837 517.504 388.275Z" fill="#1C1C20" stroke="#1C1C20" stroke-width="0.500031" stroke-miterlimit="22.9256"/>
<path d="M517.504 375.614V381.941C517.504 382.379 517.858 382.735 518.298 382.735C518.736 382.735 519.091 382.379 519.091 381.941V375.614C519.091 375.174 518.736 374.82 518.298 374.82C517.858 374.82 517.504 375.174 517.504 375.614Z" fill="#1C1C20" stroke="#1C1C20" stroke-width="0.500031" stroke-miterlimit="22.9256"/>
<path d="M517.504 362.957V369.287C517.504 369.725 517.858 370.08 518.298 370.08C518.736 370.08 519.091 369.725 519.091 369.287V362.957C519.091 362.519 518.736 362.164 518.298 362.164C517.858 362.164 517.504 362.519 517.504 362.957Z" fill="#1C1C20" stroke="#1C1C20" stroke-width="0.500031" stroke-miterlimit="22.9256"/>
<path d="M517.504 350.297V356.627C517.504 357.065 517.858 357.42 518.298 357.42C518.736 357.42 519.091 357.065 519.091 356.627V350.297C519.091 349.859 518.736 349.504 518.298 349.504C517.858 349.504 517.504 349.859 517.504 350.297Z" fill="#1C1C20" stroke="#1C1C20" stroke-width="0.500031" stroke-miterlimit="22.9256"/>
<path d="M517.505 401.813V404.194H515.125C514.686 404.194 514.332 404.549 514.332 404.987C514.332 405.427 514.686 405.78 515.125 405.78H518.299C518.507 405.78 518.711 405.696 518.859 405.549C519.006 405.401 519.092 405.197 519.092 404.987V401.813C519.092 401.376 518.737 401.02 518.299 401.02C517.859 401.02 517.505 401.376 517.505 401.813Z" fill="#1C1C20" stroke="#1C1C20" stroke-width="0.500031" stroke-miterlimit="22.9256"/>
<path d="M434.426 383.565C432.352 383.565 430.539 383.137 428.989 382.281C427.438 381.424 426.23 380.216 425.364 378.656C424.508 377.086 424.08 375.255 424.08 373.162C424.08 371.64 424.332 370.247 424.836 368.981C425.35 367.707 426.068 366.603 426.991 365.671C427.923 364.739 429.022 364.016 430.287 363.502C431.553 362.988 432.942 362.731 434.454 362.731C435.976 362.731 437.289 362.922 438.392 363.302C439.505 363.683 440.476 364.225 441.303 364.929L439.648 367.54C439.02 366.96 438.288 366.527 437.451 366.242C436.614 365.956 435.691 365.814 434.682 365.814C433.569 365.814 432.566 365.985 431.672 366.327C430.777 366.67 430.012 367.16 429.374 367.797C428.746 368.425 428.261 369.191 427.919 370.094C427.586 370.989 427.419 372.002 427.419 373.134C427.419 374.675 427.719 375.992 428.318 377.086C428.927 378.18 429.783 379.018 430.887 379.598C432 380.169 433.313 380.454 434.825 380.454C435.833 380.454 436.804 380.307 437.736 380.012C438.678 379.707 439.558 379.217 440.376 378.542L441.86 381.239C440.899 381.99 439.8 382.566 438.564 382.965C437.336 383.365 435.957 383.565 434.426 383.565ZM451.728 383.565C450.348 383.565 448.997 383.37 447.675 382.98C446.362 382.58 445.254 382.009 444.35 381.267L445.92 378.827C446.396 379.236 446.947 379.588 447.575 379.883C448.213 380.178 448.888 380.407 449.602 380.568C450.315 380.72 451.028 380.797 451.742 380.797C453.045 380.797 454.096 380.549 454.895 380.055C455.704 379.56 456.108 378.837 456.108 377.886C456.108 377.172 455.832 376.568 455.281 376.073C454.738 375.579 453.73 375.122 452.256 374.703L450.201 374.104C448.317 373.562 446.943 372.844 446.077 371.949C445.221 371.055 444.793 369.942 444.793 368.61C444.793 367.726 444.969 366.927 445.321 366.213C445.682 365.5 446.186 364.881 446.833 364.358C447.49 363.835 448.26 363.435 449.145 363.16C450.03 362.884 451 362.746 452.056 362.746C453.397 362.746 454.643 362.941 455.794 363.331C456.945 363.721 457.897 364.244 458.648 364.9L457.022 367.269C456.613 366.898 456.132 366.579 455.58 366.313C455.038 366.047 454.453 365.842 453.825 365.699C453.197 365.557 452.56 365.485 451.913 365.485C451.114 365.485 450.405 365.604 449.787 365.842C449.178 366.07 448.703 366.403 448.36 366.841C448.018 367.279 447.846 367.811 447.846 368.439C447.846 368.896 447.961 369.295 448.189 369.638C448.417 369.98 448.807 370.294 449.359 370.58C449.92 370.856 450.691 371.136 451.671 371.422L453.84 372.064C455.685 372.606 457.036 373.315 457.892 374.19C458.748 375.055 459.176 376.183 459.176 377.572C459.176 378.761 458.881 379.807 458.292 380.711C457.711 381.605 456.865 382.304 455.752 382.809C454.639 383.313 453.297 383.565 451.728 383.565ZM469.648 383.565C468.269 383.565 466.918 383.37 465.596 382.98C464.283 382.58 463.174 382.009 462.271 381.267L463.84 378.827C464.316 379.236 464.868 379.588 465.496 379.883C466.133 380.178 466.808 380.407 467.522 380.568C468.235 380.72 468.949 380.797 469.662 380.797C470.966 380.797 472.017 380.549 472.816 380.055C473.624 379.56 474.029 378.837 474.029 377.886C474.029 377.172 473.753 376.568 473.201 376.073C472.659 375.579 471.651 375.122 470.176 374.703L468.121 374.104C466.238 373.562 464.863 372.844 463.997 371.949C463.141 371.055 462.713 369.942 462.713 368.61C462.713 367.726 462.889 366.927 463.241 366.213C463.603 365.5 464.107 364.881 464.754 364.358C465.41 363.835 466.181 363.435 467.065 363.16C467.95 362.884 468.92 362.746 469.976 362.746C471.318 362.746 472.564 362.941 473.715 363.331C474.866 363.721 475.817 364.244 476.569 364.9L474.942 367.269C474.533 366.898 474.053 366.579 473.501 366.313C472.959 366.047 472.373 365.842 471.746 365.699C471.118 365.557 470.48 365.485 469.834 365.485C469.034 365.485 468.326 365.604 467.707 365.842C467.099 366.07 466.623 366.403 466.28 366.841C465.938 367.279 465.767 367.811 465.767 368.439C465.767 368.896 465.881 369.295 466.109 369.638C466.338 369.98 466.728 370.294 467.279 370.58C467.841 370.856 468.611 371.136 469.591 371.422L471.76 372.064C473.605 372.606 474.956 373.315 475.812 374.19C476.669 375.055 477.097 376.183 477.097 377.572C477.097 378.761 476.802 379.807 476.212 380.711C475.632 381.605 474.785 382.304 473.672 382.809C472.559 383.313 471.218 383.565 469.648 383.565Z" fill="#2B2A29"/>
<path d="M242.768 109.403L228.969 103.809V101.541L242.753 95.9897L243.681 98.2585L232.594 102.668L243.681 107.12L242.768 109.403Z" fill="#2B2A29"/>
<path d="M261.261 109.403L260.348 107.12L271.421 102.711L260.348 98.2585L261.247 95.9897L275.045 101.583V103.838L261.261 109.403Z" fill="#2B2A29"/>
<path d="M248.132 115.282L245.506 114.255L255.895 89.0262L258.506 90.0536L248.132 115.282Z" fill="#2B2A29"/>
<path d="M519 292.895V321.105C519 321.221 518.976 321.338 518.932 321.447C518.889 321.554 518.824 321.653 518.742 321.737C518.66 321.82 518.562 321.886 518.455 321.93C518.348 321.976 518.233 322 518.117 322H444.883C444.768 322 444.652 321.976 444.545 321.931C444.442 321.887 444.344 321.822 444.262 321.739C444.178 321.655 444.112 321.556 444.068 321.448C444.024 321.34 444 321.222 444 321.105V292.895C444 292.778 444.024 292.661 444.068 292.553C444.112 292.445 444.177 292.346 444.261 292.261C444.343 292.179 444.441 292.113 444.547 292.069C444.654 292.024 444.769 292 444.883 292H518.117C518.232 292 518.347 292.024 518.454 292.069C518.562 292.114 518.661 292.179 518.742 292.261C518.825 292.347 518.89 292.447 518.933 292.554C518.976 292.663 519 292.779 519 292.895Z" fill="#166FF5"/>
<path d="M499.258 313.644V300.207H501.408V311.667H507.262V313.644H499.258Z" fill="white"/>
<path d="M481.713 313.644V300.207H483.796L489.276 309.123L488.441 309.133L493.72 300.207H495.764V313.644H493.662L493.691 303.067L494.104 303.211L489.535 310.745H487.961L483.306 303.211L483.652 303.067L483.68 313.644H481.713Z" fill="white"/>
<path d="M473.524 313.644V302.175H469.742V300.207H479.455V302.175H475.674V313.644H473.524Z" fill="white"/>
<path d="M456.668 313.644V300.207H458.818V305.543H465.325V300.207H467.475V313.644H465.325V307.52H458.818V313.644H456.668Z" fill="white"/>
<path d="M346.163 298.739H437.098V300.9H345.083C344.485 300.9 344 300.418 344 299.82V85.0802C344 84.4826 344.485 84 345.083 84H618.91C619.507 84 619.99 84.4826 619.99 85.0802V202.51H617.829V86.1611H346.163V298.739ZM524.411 298.739H587.827V300.9H524.411V298.739Z" fill="black"/>
<path d="M346.164 113.403H617.829V86.1611H346.164V113.403ZM618.91 115.564H345.083C344.485 115.564 344 115.079 344 114.483V85.0802C344 84.4826 344.485 84 345.083 84H618.91C619.507 84 619.99 84.4826 619.99 85.0802V114.483C619.99 115.079 619.507 115.564 618.91 115.564Z" fill="black"/>
<path d="M619.989 113.403H661.785V86.1611H619.989V113.403ZM662.868 115.564H618.909C618.313 115.564 617.828 115.079 617.828 114.483V85.0802C617.828 84.4826 618.313 84 618.909 84H662.868C663.463 84 663.948 84.4826 663.948 85.0802V114.483C663.948 115.079 663.463 115.564 662.868 115.564Z" fill="black"/>
<path d="M637.263 92.4424C634.096 92.4424 631.521 95.0181 631.521 98.185C631.521 101.349 634.096 103.925 637.263 103.925C640.427 103.925 643.003 101.349 643.003 98.185C643.003 95.0181 640.427 92.4424 637.263 92.4424ZM637.263 106.086C632.905 106.086 629.359 102.541 629.359 98.185C629.359 93.8265 632.905 90.2812 637.263 90.2812C641.619 90.2812 645.164 93.8265 645.164 98.185C645.164 102.541 641.619 106.086 637.263 106.086Z" fill="#166FF5"/>
<path d="M561.328 152.547H465.181C464.585 152.547 464.1 152.061 464.1 151.466C464.1 150.868 464.585 150.383 465.181 150.383H561.328C561.924 150.383 562.409 150.868 562.409 151.466C562.409 152.061 561.924 152.547 561.328 152.547Z" fill="black"/>
<path d="M513.255 176.935H465.181C464.585 176.935 464.1 176.45 464.1 175.854C464.1 175.256 464.585 174.773 465.181 174.773H513.255C513.851 174.773 514.336 175.256 514.336 175.854C514.336 176.45 513.851 176.935 513.255 176.935Z" fill="black"/>
<path d="M435.353 263.757H387.278C386.683 263.757 386.197 263.272 386.197 262.676C386.197 262.078 386.683 261.594 387.278 261.594H435.353C435.949 261.594 436.434 262.078 436.434 262.676C436.434 263.272 435.949 263.757 435.353 263.757Z" fill="black"/>
<path d="M536.263 238.306H386.276C385.678 238.306 385.195 237.823 385.195 237.225C385.195 236.629 385.678 236.145 386.276 236.145H536.263C536.862 236.145 537.344 236.629 537.344 237.225C537.344 237.823 536.862 238.306 536.263 238.306Z" fill="black"/>
<path d="M652.478 108.439C652.272 108.439 652.066 108.381 651.883 108.259L642.874 102.312C642.376 101.982 642.238 101.313 642.569 100.815C642.898 100.315 643.569 100.179 644.065 100.507L653.073 106.457C653.572 106.785 653.709 107.456 653.379 107.954C653.171 108.268 652.828 108.439 652.478 108.439Z" fill="#166FF5"/>
<path d="M600.534 319.803H625.035V212.095H600.534V319.803ZM626.118 321.964H599.454C598.858 321.964 598.373 321.478 598.373 320.883V211.015C598.373 210.416 598.858 209.934 599.454 209.934H626.118C626.713 209.934 627.198 210.416 627.198 211.015V320.883C627.198 321.478 626.713 321.964 626.118 321.964Z" fill="#166FF5"/>
<path d="M684.485 319.803H708.986V198.021H684.485V319.803ZM710.067 321.964H683.404C682.807 321.964 682.324 321.479 682.324 320.883V196.94C682.324 196.342 682.807 195.859 683.404 195.859H710.067C710.664 195.859 711.147 196.342 711.147 196.94V320.883C711.147 321.479 710.664 321.964 710.067 321.964Z" fill="#166FF5"/>
<path d="M641.97 319.803H666.47V254.949H641.97V319.803ZM667.551 321.964H640.887C640.291 321.964 639.807 321.478 639.807 320.883V253.866C639.807 253.27 640.291 252.785 640.887 252.785H667.551C668.147 252.785 668.632 253.27 668.632 253.866V320.883C668.632 321.478 668.147 321.964 667.551 321.964Z" fill="#166FF5"/>
<path d="M394.677 215.05L390.918 217.319L391.908 213.04L388.588 210.16L392.968 209.79L394.677 205.75L396.387 209.79L400.767 210.16L397.447 213.04L398.437 217.319L394.677 215.05ZM404.677 208.9L397.487 208.29L394.677 201.66L391.868 208.29L384.678 208.9L390.127 213.63L388.498 220.66L394.677 216.93L400.857 220.66L399.217 213.63L404.677 208.9Z" fill="#166FF5"/>
<path d="M427.191 215.05L423.431 217.319L424.421 213.04L421.101 210.16L425.481 209.79L427.191 205.75L428.901 209.79L433.281 210.16L429.961 213.04L430.951 217.319L427.191 215.05ZM437.191 208.9L430.001 208.29L427.191 201.66L424.381 208.29L417.191 208.9L422.641 213.63L421.011 220.66L427.191 216.93L433.371 220.66L431.731 213.63L437.191 208.9Z" fill="#166FF5"/>
<path d="M457.992 215.05L454.232 217.319L455.222 213.04L451.902 210.16L456.282 209.79L457.992 205.75L459.702 209.79L464.082 210.16L460.762 213.04L461.752 217.319L457.992 215.05ZM467.992 208.9L460.802 208.29L457.992 201.66L455.182 208.29L447.992 208.9L453.442 213.63L451.812 220.66L457.992 216.93L464.172 220.66L462.532 213.63L467.992 208.9Z" fill="#166FF5"/>
</svg>
