<svg width="963" height="634" viewBox="0 0 963 634" fill="none" xmlns="http://www.w3.org/2000/svg">
<path d="M0 172L278 0L570 500L382 584L0 172Z" fill="#FFE2FC"/>
<path d="M790.456 607.545L944.937 319.442L427.839 58.9172L355.624 251.751L790.456 607.545Z" fill="#FFE2FC"/>
<path d="M488.188 256.927C488.9 256.927 489.529 257.066 490.075 257.344C490.621 257.623 491.044 258.046 491.345 258.614C491.656 259.182 491.812 259.9 491.812 260.769V265.863H490.209V260.952C490.209 260.095 490.008 259.449 489.607 259.015C489.207 258.581 488.644 258.364 487.92 258.364C487.386 258.364 486.918 258.475 486.517 258.697C486.116 258.92 485.804 259.249 485.582 259.683C485.37 260.117 485.264 260.657 485.264 261.303V265.863H483.661V260.952C483.661 260.095 483.461 259.449 483.06 259.015C482.67 258.581 482.107 258.364 481.373 258.364C480.849 258.364 480.387 258.475 479.986 258.697C479.585 258.92 479.274 259.249 479.051 259.683C478.828 260.117 478.717 260.657 478.717 261.303V265.863H477.113V257.01H478.65V259.366L478.399 258.764C478.678 258.185 479.106 257.734 479.685 257.411C480.264 257.088 480.938 256.927 481.707 256.927C482.553 256.927 483.282 257.138 483.895 257.562C484.507 257.974 484.908 258.603 485.097 259.449L484.446 259.182C484.713 258.502 485.181 257.957 485.849 257.545C486.517 257.133 487.297 256.927 488.188 256.927ZM494.982 269.204C494.559 269.204 494.147 269.132 493.746 268.987C493.345 268.853 493 268.653 492.71 268.386L493.395 267.183C493.618 267.394 493.863 267.556 494.13 267.667C494.397 267.779 494.681 267.834 494.982 267.834C495.372 267.834 495.695 267.734 495.951 267.534C496.207 267.333 496.446 266.977 496.669 266.465L497.22 265.245L497.387 265.045L500.862 257.01H502.432L498.139 266.748C497.883 267.372 497.594 267.862 497.27 268.218C496.959 268.575 496.614 268.825 496.235 268.97C495.856 269.126 495.439 269.204 494.982 269.204ZM497.087 266.147L493.045 257.01H494.715L498.156 264.894L497.087 266.147ZM502.197 266.898V265.862H510.549V266.898H502.197ZM512.068 265.863V253.469H513.671V265.863H512.068ZM516.734 265.863V257.01H518.337V265.863H516.734ZM517.536 255.307C517.224 255.307 516.962 255.206 516.75 255.006C516.55 254.805 516.45 254.561 516.45 254.271C516.45 253.97 516.55 253.72 516.75 253.519C516.962 253.319 517.224 253.219 517.536 253.219C517.847 253.219 518.103 253.319 518.304 253.519C518.515 253.709 518.621 253.948 518.621 254.238C518.621 254.538 518.521 254.795 518.32 255.006C518.12 255.206 517.858 255.307 517.536 255.307ZM523.939 265.964C523.204 265.964 522.503 265.863 521.835 265.663C521.178 265.462 520.66 265.218 520.281 264.928L520.95 263.659C521.328 263.915 521.796 264.132 522.352 264.31C522.909 264.488 523.477 264.577 524.056 264.577C524.802 264.577 525.337 264.471 525.66 264.26C525.994 264.048 526.161 263.753 526.161 263.374C526.161 263.096 526.061 262.879 525.86 262.723C525.66 262.567 525.393 262.45 525.058 262.372C524.736 262.294 524.374 262.228 523.973 262.172C523.572 262.105 523.171 262.027 522.77 261.938C522.369 261.838 522.002 261.704 521.668 261.537C521.334 261.359 521.066 261.12 520.866 260.819C520.665 260.507 520.565 260.095 520.565 259.583C520.565 259.048 520.716 258.581 521.016 258.18C521.317 257.779 521.74 257.473 522.286 257.261C522.842 257.038 523.499 256.927 524.257 256.927C524.836 256.927 525.42 256.999 526.011 257.144C526.612 257.278 527.102 257.473 527.48 257.729L526.795 258.998C526.395 258.731 525.977 258.547 525.543 258.447C525.108 258.347 524.674 258.297 524.24 258.297C523.539 258.297 523.015 258.413 522.67 258.647C522.325 258.87 522.152 259.16 522.152 259.516C522.152 259.817 522.252 260.051 522.453 260.218C522.664 260.373 522.932 260.496 523.255 260.585C523.588 260.674 523.956 260.752 524.357 260.819C524.758 260.874 525.159 260.952 525.56 261.053C525.96 261.142 526.322 261.27 526.645 261.437C526.979 261.604 527.246 261.838 527.447 262.138C527.659 262.439 527.765 262.84 527.765 263.341C527.765 263.876 527.608 264.338 527.297 264.728C526.985 265.117 526.545 265.423 525.977 265.646C525.409 265.858 524.73 265.964 523.939 265.964ZM532.809 265.962C531.918 265.962 531.228 265.722 530.738 265.243C530.248 264.764 530.003 264.08 530.003 263.189V255.071H531.606V263.122C531.606 263.601 531.723 263.968 531.957 264.225C532.202 264.481 532.547 264.609 532.993 264.609C533.494 264.609 533.911 264.469 534.245 264.191L534.746 265.343C534.501 265.555 534.206 265.711 533.861 265.811C533.527 265.912 533.176 265.962 532.809 265.962ZM528.499 258.328V257.009H534.145V258.328H528.499ZM537.627 265.864V254.84L538.345 255.625H534.988V254.172H539.28V265.864H537.627ZM542.155 258.696V257.376H549.638V258.696H542.155ZM542.155 262.654V261.335H549.638V262.654H542.155ZM552.511 269.104V253.469H556.002V254.789H554.114V267.784H556.002V269.104H552.511ZM557.602 258.682L557.502 254.172H558.905L558.788 258.682H557.602ZM560.626 258.682L560.525 254.172H561.929L561.811 258.682H560.626ZM564.73 265.864V254.172H569.29C570.315 254.172 571.189 254.333 571.912 254.656C572.636 254.979 573.193 255.447 573.583 256.059C573.973 256.672 574.168 257.401 574.168 258.247C574.168 259.094 573.973 259.823 573.583 260.436C573.193 261.037 572.636 261.505 571.912 261.839C571.189 262.162 570.315 262.323 569.29 262.323H565.649L566.4 261.538V265.864H564.73ZM566.4 261.705L565.649 260.87H569.24C570.309 260.87 571.116 260.642 571.662 260.185C572.219 259.729 572.497 259.083 572.497 258.247C572.497 257.412 572.219 256.766 571.662 256.31C571.116 255.853 570.309 255.625 569.24 255.625H565.649L566.4 254.79V261.705ZM576.822 269.204C576.398 269.204 575.986 269.132 575.585 268.987C575.184 268.853 574.839 268.653 574.55 268.386L575.235 267.183C575.457 267.394 575.702 267.556 575.97 267.667C576.237 267.779 576.521 267.834 576.822 267.834C577.211 267.834 577.534 267.734 577.79 267.534C578.046 267.333 578.286 266.977 578.509 266.465L579.06 265.245L579.227 265.045L582.701 257.01H584.271L579.979 266.748C579.722 267.372 579.433 267.862 579.11 268.218C578.798 268.575 578.453 268.825 578.074 268.97C577.696 269.126 577.278 269.204 576.822 269.204ZM578.926 266.147L574.884 257.01H576.554L579.995 264.894L578.926 266.147ZM589.052 265.962C588.161 265.962 587.47 265.722 586.98 265.243C586.49 264.764 586.246 264.08 586.246 263.189V255.071H587.849V263.122C587.849 263.601 587.966 263.968 588.2 264.225C588.445 264.481 588.79 264.609 589.236 264.609C589.736 264.609 590.154 264.469 590.488 264.191L590.989 265.343C590.744 265.555 590.449 265.711 590.104 265.811C589.77 265.912 589.419 265.962 589.052 265.962ZM584.742 258.328V257.009H590.388V258.328H584.742ZM597.654 256.927C598.378 256.927 599.013 257.066 599.558 257.344C600.115 257.623 600.549 258.046 600.861 258.614C601.173 259.182 601.329 259.9 601.329 260.769V265.863H599.725V260.952C599.725 260.095 599.514 259.449 599.09 259.015C598.679 258.581 598.094 258.364 597.337 258.364C596.769 258.364 596.273 258.475 595.85 258.697C595.427 258.92 595.098 259.249 594.864 259.683C594.642 260.117 594.531 260.657 594.531 261.303V265.863H592.927V253.469H594.531V259.399L594.213 258.764C594.503 258.185 594.948 257.734 595.549 257.411C596.151 257.088 596.852 256.927 597.654 256.927ZM608.09 265.964C607.199 265.964 606.408 265.769 605.718 265.379C605.027 264.989 604.482 264.455 604.081 263.775C603.68 263.085 603.479 262.305 603.479 261.437C603.479 260.557 603.68 259.778 604.081 259.098C604.482 258.419 605.027 257.89 605.718 257.512C606.408 257.122 607.199 256.927 608.09 256.927C608.97 256.927 609.754 257.122 610.444 257.512C611.146 257.89 611.692 258.419 612.082 259.098C612.483 259.767 612.682 260.546 612.682 261.437C612.682 262.317 612.483 263.096 612.082 263.775C611.692 264.455 611.146 264.989 610.444 265.379C609.754 265.769 608.97 265.964 608.09 265.964ZM608.09 264.56C608.658 264.56 609.165 264.432 609.61 264.176C610.066 263.92 610.423 263.558 610.679 263.09C610.935 262.612 611.062 262.061 611.062 261.437C611.062 260.802 610.935 260.256 610.679 259.8C610.423 259.332 610.066 258.97 609.61 258.714C609.165 258.458 608.658 258.33 608.09 258.33C607.522 258.33 607.015 258.458 606.57 258.714C606.125 258.97 605.768 259.332 605.501 259.8C605.234 260.256 605.1 260.802 605.1 261.437C605.1 262.061 605.234 262.612 605.501 263.09C605.768 263.558 606.125 263.92 606.57 264.176C607.015 264.432 607.522 264.56 608.09 264.56ZM619.624 256.927C620.348 256.927 620.983 257.066 621.529 257.344C622.086 257.623 622.52 258.046 622.832 258.614C623.143 259.182 623.299 259.9 623.299 260.769V265.863H621.696V260.952C621.696 260.095 621.484 259.449 621.061 259.015C620.649 258.581 620.064 258.364 619.307 258.364C618.739 258.364 618.244 258.475 617.821 258.697C617.397 258.92 617.069 259.249 616.835 259.683C616.612 260.117 616.501 260.657 616.501 261.303V265.863H614.897V257.01H616.434V259.399L616.184 258.764C616.473 258.185 616.919 257.734 617.52 257.411C618.121 257.088 618.823 256.927 619.624 256.927ZM625.901 258.682L625.801 254.172H627.204L627.087 258.682H625.901ZM628.925 258.682L628.824 254.172H630.228L630.111 258.682H628.925ZM631.247 268.337L632.082 264.963L632.299 265.932C631.976 265.932 631.703 265.832 631.481 265.631C631.269 265.431 631.163 265.158 631.163 264.813C631.163 264.479 631.269 264.206 631.481 263.994C631.703 263.783 631.97 263.677 632.282 263.677C632.605 263.677 632.867 263.788 633.067 264.011C633.267 264.222 633.368 264.49 633.368 264.813C633.368 264.924 633.357 265.035 633.334 265.147C633.323 265.247 633.296 265.37 633.251 265.514C633.218 265.648 633.162 265.815 633.084 266.015L632.299 268.337H631.247ZM634.384 258.682L634.284 254.172H635.687L635.57 258.682H634.384ZM637.407 258.682L637.307 254.172H638.71L638.593 258.682H637.407ZM643.012 265.998C642.322 265.998 641.676 265.853 641.075 265.564C640.473 265.274 639.983 264.856 639.605 264.311L640.573 263.175C640.896 263.62 641.258 263.965 641.659 264.211C642.071 264.445 642.522 264.561 643.012 264.561C644.348 264.561 645.016 263.771 645.016 262.189V255.625H640.791V254.172H646.67V262.106C646.67 263.409 646.358 264.383 645.735 265.029C645.122 265.675 644.215 265.998 643.012 265.998ZM655.333 265.863V263.992L655.249 263.642V260.451C655.249 259.772 655.049 259.249 654.648 258.881C654.258 258.502 653.668 258.313 652.877 258.313C652.354 258.313 651.842 258.403 651.341 258.581C650.84 258.748 650.416 258.976 650.071 259.265L649.403 258.063C649.86 257.695 650.405 257.417 651.04 257.228C651.686 257.027 652.36 256.927 653.061 256.927C654.275 256.927 655.21 257.222 655.867 257.812C656.524 258.403 656.853 259.304 656.853 260.518V265.863H655.333ZM652.426 265.964C651.769 265.964 651.19 265.852 650.689 265.629C650.199 265.407 649.821 265.1 649.553 264.711C649.286 264.31 649.153 263.859 649.153 263.358C649.153 262.879 649.264 262.445 649.487 262.055C649.721 261.665 650.094 261.353 650.606 261.12C651.129 260.886 651.831 260.769 652.71 260.769H655.517V261.921H652.777C651.975 261.921 651.436 262.055 651.157 262.322C650.879 262.59 650.739 262.912 650.739 263.291C650.739 263.725 650.912 264.076 651.257 264.343C651.602 264.6 652.081 264.728 652.694 264.728C653.295 264.728 653.818 264.594 654.264 264.327C654.72 264.059 655.049 263.669 655.249 263.157L655.567 264.26C655.355 264.783 654.982 265.201 654.448 265.512C653.913 265.813 653.239 265.964 652.426 265.964ZM661.982 265.863L658.106 257.01H659.777L663.218 265.028H662.416L665.924 257.01H667.494L663.619 265.863H661.982ZM674.208 265.863V263.992L674.124 263.642V260.451C674.124 259.772 673.924 259.249 673.523 258.881C673.133 258.502 672.543 258.313 671.752 258.313C671.229 258.313 670.717 258.403 670.216 258.581C669.714 258.748 669.292 258.976 668.946 259.265L668.278 258.063C668.735 257.695 669.28 257.417 669.915 257.228C670.561 257.027 671.235 256.927 671.936 256.927C673.15 256.927 674.085 257.222 674.742 257.812C675.399 258.403 675.728 259.304 675.728 260.518V265.863H674.208ZM671.301 265.964C670.644 265.964 670.065 265.852 669.564 265.629C669.074 265.407 668.696 265.1 668.428 264.711C668.161 264.31 668.027 263.859 668.027 263.358C668.027 262.879 668.139 262.445 668.362 262.055C668.595 261.665 668.968 261.353 669.48 261.12C670.004 260.886 670.706 260.769 671.585 260.769H674.391V261.921H671.652C670.85 261.921 670.31 262.055 670.032 262.322C669.753 262.59 669.614 262.912 669.614 263.291C669.614 263.725 669.787 264.076 670.132 264.343C670.477 264.6 670.956 264.728 671.569 264.728C672.17 264.728 672.693 264.594 673.139 264.327C673.595 264.059 673.924 263.669 674.124 263.157L674.442 264.26C674.23 264.783 673.857 265.201 673.322 265.512C672.788 265.813 672.114 265.964 671.301 265.964ZM682.339 265.998C681.448 265.998 680.596 265.864 679.783 265.597C678.97 265.319 678.33 264.962 677.862 264.528L678.48 263.225C678.926 263.615 679.493 263.938 680.184 264.194C680.874 264.45 681.593 264.578 682.339 264.578C683.018 264.578 683.569 264.5 683.992 264.344C684.415 264.188 684.727 263.977 684.928 263.709C685.128 263.431 685.228 263.119 685.228 262.774C685.228 262.373 685.095 262.05 684.827 261.805C684.571 261.56 684.232 261.365 683.808 261.221C683.396 261.065 682.94 260.931 682.439 260.82C681.938 260.709 681.431 260.58 680.919 260.436C680.418 260.28 679.956 260.085 679.532 259.851C679.12 259.617 678.786 259.305 678.53 258.916C678.274 258.515 678.146 258.002 678.146 257.379C678.146 256.778 678.302 256.226 678.614 255.725C678.936 255.213 679.426 254.806 680.084 254.506C680.752 254.194 681.598 254.038 682.623 254.038C683.302 254.038 683.975 254.127 684.644 254.305C685.312 254.483 685.891 254.74 686.381 255.074L685.83 256.41C685.329 256.076 684.8 255.837 684.243 255.692C683.686 255.536 683.146 255.458 682.623 255.458C681.965 255.458 681.426 255.542 681.002 255.709C680.579 255.876 680.267 256.098 680.067 256.377C679.877 256.655 679.783 256.967 679.783 257.312C679.783 257.724 679.911 258.052 680.167 258.298C680.434 258.542 680.774 258.737 681.186 258.882C681.609 259.027 682.071 259.16 682.573 259.283C683.074 259.394 683.575 259.522 684.076 259.667C684.588 259.812 685.05 260.001 685.462 260.235C685.885 260.469 686.225 260.781 686.481 261.17C686.737 261.56 686.865 262.061 686.865 262.674C686.865 263.264 686.704 263.815 686.381 264.327C686.058 264.829 685.557 265.235 684.877 265.547C684.209 265.847 683.363 265.998 682.339 265.998ZM692.928 265.964C692.026 265.964 691.218 265.769 690.506 265.379C689.804 264.989 689.253 264.455 688.852 263.775C688.451 263.096 688.251 262.317 688.251 261.437C688.251 260.557 688.451 259.778 688.852 259.098C689.253 258.419 689.804 257.89 690.506 257.512C691.218 257.122 692.026 256.927 692.928 256.927C693.73 256.927 694.442 257.088 695.066 257.411C695.7 257.723 696.19 258.191 696.536 258.814L695.316 259.6C695.027 259.165 694.671 258.848 694.247 258.647C693.835 258.436 693.39 258.33 692.911 258.33C692.332 258.33 691.814 258.458 691.358 258.714C690.901 258.97 690.539 259.332 690.272 259.8C690.004 260.256 689.871 260.802 689.871 261.437C689.871 262.071 690.004 262.623 690.272 263.09C690.539 263.558 690.901 263.92 691.358 264.176C691.814 264.432 692.332 264.56 692.911 264.56C693.39 264.56 693.835 264.46 694.247 264.26C694.671 264.048 695.027 263.725 695.316 263.291L696.536 264.059C696.19 264.672 695.7 265.145 695.066 265.479C694.442 265.802 693.73 265.964 692.928 265.964ZM698.611 265.863V257.01H700.147V259.416L699.997 258.814C700.242 258.202 700.654 257.734 701.233 257.411C701.812 257.088 702.525 256.927 703.371 256.927V258.48C703.304 258.469 703.237 258.464 703.17 258.464C703.115 258.464 703.059 258.464 703.003 258.464C702.146 258.464 701.467 258.72 700.966 259.232C700.465 259.744 700.214 260.485 700.214 261.454V265.863H698.611ZM705.35 265.863V257.01H706.954V265.863H705.35ZM706.152 255.307C705.84 255.307 705.579 255.206 705.367 255.006C705.167 254.805 705.066 254.561 705.066 254.271C705.066 253.97 705.167 253.72 705.367 253.519C705.579 253.319 705.84 253.219 706.152 253.219C706.464 253.219 706.72 253.319 706.92 253.519C707.132 253.709 707.238 253.948 707.238 254.238C707.238 254.538 707.137 254.795 706.937 255.006C706.737 255.206 706.475 255.307 706.152 255.307ZM714.708 265.964C713.973 265.964 713.299 265.797 712.687 265.462C712.086 265.117 711.601 264.61 711.234 263.942C710.877 263.274 710.699 262.439 710.699 261.437C710.699 260.435 710.872 259.6 711.217 258.931C711.573 258.263 712.052 257.762 712.653 257.428C713.266 257.094 713.951 256.927 714.708 256.927C715.577 256.927 716.345 257.116 717.013 257.495C717.681 257.874 718.21 258.403 718.6 259.082C718.99 259.75 719.185 260.535 719.185 261.437C719.185 262.339 718.99 263.13 718.6 263.809C718.21 264.488 717.681 265.017 717.013 265.396C716.345 265.774 715.577 265.964 714.708 265.964ZM710.014 269.104V257.01H711.551V259.399L711.451 261.454L711.618 263.508V269.104H710.014ZM714.574 264.56C715.142 264.56 715.649 264.432 716.094 264.176C716.551 263.92 716.907 263.558 717.163 263.09C717.431 262.612 717.564 262.061 717.564 261.437C717.564 260.802 717.431 260.256 717.163 259.8C716.907 259.332 716.551 258.97 716.094 258.714C715.649 258.458 715.142 258.33 714.574 258.33C714.018 258.33 713.511 258.458 713.054 258.714C712.609 258.97 712.253 259.332 711.985 259.8C711.729 260.256 711.601 260.802 711.601 261.437C711.601 262.061 711.729 262.612 711.985 263.09C712.253 263.558 712.609 263.92 713.054 264.176C713.511 264.432 714.018 264.56 714.574 264.56ZM724.441 265.962C723.551 265.962 722.86 265.722 722.37 265.243C721.88 264.764 721.635 264.08 721.635 263.189V255.071H723.239V263.122C723.239 263.601 723.356 263.968 723.589 264.225C723.835 264.481 724.18 264.609 724.625 264.609C725.126 264.609 725.544 264.469 725.878 264.191L726.379 265.343C726.134 265.555 725.839 265.711 725.494 265.811C725.16 265.912 724.809 265.962 724.441 265.962ZM720.132 258.328V257.009H725.778V258.328H720.132ZM727.949 258.682L727.849 254.172H729.252L729.135 258.682H727.949ZM730.973 258.682L730.872 254.172H732.275L732.158 258.682H730.973ZM733.293 268.337L734.128 264.963L734.346 265.932C734.023 265.932 733.75 265.832 733.527 265.631C733.316 265.431 733.21 265.158 733.21 264.813C733.21 264.479 733.316 264.206 733.527 263.994C733.75 263.783 734.017 263.677 734.329 263.677C734.652 263.677 734.913 263.788 735.114 264.011C735.314 264.222 735.415 264.49 735.415 264.813C735.415 264.924 735.403 265.035 735.381 265.147C735.37 265.247 735.342 265.37 735.298 265.514C735.264 265.648 735.209 265.815 735.131 266.015L734.346 268.337H733.293ZM736.432 258.682L736.331 254.172H737.735L737.618 258.682H736.432ZM739.455 258.682L739.355 254.172H740.758L740.641 258.682H739.455ZM748.786 265.998C747.895 265.998 747.071 265.853 746.313 265.564C745.567 265.263 744.916 264.845 744.359 264.311C743.814 263.765 743.385 263.13 743.073 262.406C742.761 261.683 742.606 260.887 742.606 260.018C742.606 259.15 742.761 258.353 743.073 257.63C743.385 256.906 743.819 256.276 744.376 255.742C744.933 255.196 745.584 254.779 746.33 254.489C747.088 254.189 747.912 254.038 748.803 254.038C749.704 254.038 750.534 254.194 751.291 254.506C752.06 254.806 752.711 255.258 753.246 255.859L752.16 256.911C751.714 256.443 751.213 256.098 750.657 255.876C750.1 255.642 749.504 255.525 748.869 255.525C748.212 255.525 747.6 255.636 747.032 255.859C746.475 256.081 745.991 256.393 745.579 256.794C745.167 257.195 744.844 257.674 744.61 258.231C744.387 258.776 744.276 259.372 744.276 260.018C744.276 260.664 744.387 261.265 744.61 261.822C744.844 262.367 745.167 262.841 745.579 263.242C745.991 263.643 746.475 263.955 747.032 264.177C747.6 264.4 748.212 264.511 748.869 264.511C749.504 264.511 750.1 264.4 750.657 264.177C751.213 263.943 751.714 263.587 752.16 263.108L753.246 264.16C752.711 264.762 752.06 265.218 751.291 265.53C750.534 265.842 749.699 265.998 748.786 265.998ZM758.032 263.674V256.358H759.435V263.674H758.032ZM754.992 260.684V259.365H762.475V260.684H754.992ZM767.754 263.674V256.358H769.156V263.674H767.754ZM764.713 260.684V259.365H772.197V260.684H764.713ZM774.471 258.682L774.371 254.172H775.774L775.657 258.682H774.471ZM777.494 258.682L777.394 254.172H778.797L778.68 258.682H777.494ZM783.781 269.104H780.29V267.784H782.178V254.789H780.29V253.469H783.781V269.104ZM488.188 281.054C488.9 281.054 489.529 281.193 490.075 281.472C490.621 281.75 491.044 282.173 491.345 282.741C491.656 283.309 491.812 284.027 491.812 284.896V289.99H490.209V285.08C490.209 284.222 490.008 283.576 489.607 283.142C489.207 282.708 488.644 282.491 487.92 282.491C487.386 282.491 486.918 282.602 486.517 282.825C486.116 283.047 485.804 283.376 485.582 283.81C485.37 284.245 485.264 284.785 485.264 285.43V289.99H483.661V285.08C483.661 284.222 483.461 283.576 483.06 283.142C482.67 282.708 482.107 282.491 481.373 282.491C480.849 282.491 480.387 282.602 479.986 282.825C479.585 283.047 479.274 283.376 479.051 283.81C478.828 284.245 478.717 284.785 478.717 285.43V289.99H477.113V281.138H478.65V283.493L478.399 282.891C478.678 282.312 479.106 281.861 479.685 281.539C480.264 281.216 480.938 281.054 481.707 281.054C482.553 281.054 483.282 281.266 483.895 281.689C484.507 282.101 484.908 282.73 485.097 283.576L484.446 283.309C484.713 282.63 485.181 282.084 485.849 281.672C486.517 281.26 487.297 281.054 488.188 281.054ZM494.982 293.331C494.559 293.331 494.147 293.259 493.746 293.114C493.345 292.98 493 292.78 492.71 292.513L493.395 291.31C493.618 291.521 493.863 291.683 494.13 291.794C494.397 291.906 494.681 291.962 494.982 291.962C495.372 291.962 495.695 291.861 495.951 291.661C496.207 291.46 496.446 291.104 496.669 290.592L497.22 289.373L497.387 289.172L500.862 281.138H502.432L498.139 290.876C497.883 291.499 497.594 291.989 497.27 292.346C496.959 292.702 496.614 292.952 496.235 293.097C495.856 293.253 495.439 293.331 494.982 293.331ZM497.087 290.274L493.045 281.138H494.715L498.156 289.022L497.087 290.274ZM502.197 291.025V289.989H510.549V291.025H502.197ZM512.068 289.99V277.596H513.671V289.99H512.068ZM516.734 289.99V281.138H518.337V289.99H516.734ZM517.536 279.434C517.224 279.434 516.962 279.334 516.75 279.133C516.55 278.933 516.45 278.688 516.45 278.398C516.45 278.098 516.55 277.847 516.75 277.647C516.962 277.446 517.224 277.346 517.536 277.346C517.847 277.346 518.103 277.446 518.304 277.647C518.515 277.836 518.621 278.075 518.621 278.365C518.621 278.665 518.521 278.922 518.32 279.133C518.12 279.334 517.858 279.434 517.536 279.434ZM523.939 290.091C523.204 290.091 522.503 289.991 521.835 289.79C521.178 289.59 520.66 289.344 520.281 289.055L520.95 287.785C521.328 288.042 521.796 288.259 522.352 288.437C522.909 288.615 523.477 288.704 524.056 288.704C524.802 288.704 525.337 288.598 525.66 288.387C525.994 288.175 526.161 287.88 526.161 287.502C526.161 287.223 526.061 287.006 525.86 286.85C525.66 286.694 525.393 286.577 525.058 286.499C524.736 286.422 524.374 286.354 523.973 286.299C523.572 286.232 523.171 286.154 522.77 286.065C522.369 285.965 522.002 285.831 521.668 285.664C521.334 285.486 521.066 285.247 520.866 284.946C520.665 284.634 520.565 284.222 520.565 283.71C520.565 283.176 520.716 282.708 521.016 282.307C521.317 281.906 521.74 281.6 522.286 281.388C522.842 281.165 523.499 281.054 524.257 281.054C524.836 281.054 525.42 281.127 526.011 281.271C526.612 281.405 527.102 281.6 527.48 281.856L526.795 283.125C526.395 282.858 525.977 282.674 525.543 282.574C525.108 282.474 524.674 282.424 524.24 282.424C523.539 282.424 523.015 282.541 522.67 282.775C522.325 282.997 522.152 283.287 522.152 283.643C522.152 283.944 522.252 284.178 522.453 284.345C522.664 284.501 522.932 284.623 523.255 284.712C523.588 284.801 523.956 284.879 524.357 284.946C524.758 285.002 525.159 285.08 525.56 285.18C525.96 285.269 526.322 285.397 526.645 285.564C526.979 285.731 527.246 285.965 527.447 286.265C527.659 286.566 527.765 286.967 527.765 287.468C527.765 288.003 527.608 288.465 527.297 288.854C526.985 289.245 526.545 289.551 525.977 289.773C525.409 289.985 524.73 290.091 523.939 290.091ZM532.809 290.089C531.918 290.089 531.228 289.85 530.738 289.37C530.248 288.892 530.003 288.207 530.003 287.316V279.198H531.606V287.249C531.606 287.728 531.723 288.096 531.957 288.352C532.202 288.608 532.547 288.736 532.993 288.736C533.494 288.736 533.911 288.597 534.245 288.318L534.746 289.471C534.501 289.682 534.206 289.838 533.861 289.939C533.527 290.039 533.176 290.089 532.809 290.089ZM528.499 282.455V281.136H534.145V282.455H528.499ZM535.669 289.991V288.856L540.429 284.262C540.853 283.861 541.164 283.51 541.365 283.21C541.576 282.898 541.715 282.614 541.782 282.358C541.86 282.091 541.899 281.835 541.899 281.59C541.899 280.988 541.688 280.515 541.264 280.17C540.841 279.825 540.223 279.652 539.41 279.652C538.787 279.652 538.225 279.758 537.723 279.969C537.222 280.17 536.788 280.487 536.421 280.921L535.285 279.936C535.73 279.368 536.326 278.934 537.072 278.633C537.829 278.321 538.659 278.165 539.561 278.165C540.374 278.165 541.081 278.299 541.682 278.566C542.283 278.822 542.746 279.195 543.069 279.685C543.402 280.175 543.57 280.754 543.57 281.423C543.57 281.801 543.52 282.174 543.419 282.542C543.319 282.909 543.13 283.299 542.851 283.711C542.573 284.123 542.172 284.585 541.649 285.097L537.406 289.189L537.005 288.538H544.071V289.991H535.669ZM545.76 282.823V281.503H553.244V282.823H545.76ZM545.76 286.782V285.462H553.244V286.782H545.76ZM556.117 293.231V277.596H559.608V278.916H557.72V291.911H559.608V293.231H556.117ZM561.208 282.809L561.108 278.299H562.511L562.394 282.809H561.208ZM564.232 282.809L564.132 278.299H565.534L565.418 282.809H564.232ZM569.838 290.125C569.147 290.125 568.501 289.98 567.9 289.691C567.299 289.401 566.809 288.984 566.43 288.438L567.399 287.302C567.722 287.748 568.084 288.093 568.484 288.338C568.897 288.571 569.348 288.689 569.838 288.689C571.174 288.689 571.842 287.898 571.842 286.317V279.752H567.616V278.299H573.496V286.233C573.496 287.536 573.184 288.51 572.56 289.156C571.948 289.802 571.04 290.125 569.838 290.125ZM582.158 289.99V288.12L582.075 287.769V284.578C582.075 283.899 581.874 283.376 581.473 283.009C581.084 282.63 580.493 282.44 579.703 282.44C579.18 282.44 578.667 282.529 578.166 282.708C577.665 282.875 577.242 283.103 576.897 283.393L576.229 282.19C576.685 281.822 577.231 281.544 577.865 281.355C578.511 281.154 579.185 281.054 579.887 281.054C581.1 281.054 582.036 281.349 582.693 281.94C583.35 282.529 583.678 283.432 583.678 284.645V289.99H582.158ZM579.252 290.091C578.595 290.091 578.016 289.979 577.515 289.757C577.025 289.534 576.646 289.228 576.379 288.838C576.112 288.437 575.978 287.986 575.978 287.485C575.978 287.006 576.089 286.572 576.312 286.182C576.546 285.792 576.919 285.48 577.431 285.247C577.954 285.013 578.656 284.896 579.536 284.896H582.342V286.048H579.603C578.801 286.048 578.261 286.182 577.983 286.449C577.704 286.716 577.565 287.039 577.565 287.418C577.565 287.852 577.737 288.203 578.082 288.47C578.428 288.726 578.907 288.854 579.519 288.854C580.121 288.854 580.644 288.721 581.089 288.454C581.546 288.186 581.874 287.797 582.075 287.285L582.392 288.387C582.18 288.91 581.808 289.328 581.273 289.64C580.739 289.94 580.065 290.091 579.252 290.091ZM588.806 289.99L584.931 281.138H586.601L590.042 289.155H589.24L592.748 281.138H594.318L590.443 289.99H588.806ZM601.033 289.99V288.12L600.949 287.769V284.578C600.949 283.899 600.749 283.376 600.348 283.009C599.958 282.63 599.368 282.44 598.577 282.44C598.054 282.44 597.542 282.529 597.041 282.708C596.54 282.875 596.116 283.103 595.771 283.393L595.103 282.19C595.56 281.822 596.105 281.544 596.74 281.355C597.386 281.154 598.06 281.054 598.761 281.054C599.975 281.054 600.91 281.349 601.567 281.94C602.224 282.529 602.553 283.432 602.553 284.645V289.99H601.033ZM598.126 290.091C597.469 290.091 596.89 289.979 596.389 289.757C595.899 289.534 595.521 289.228 595.253 288.838C594.986 288.437 594.853 287.986 594.853 287.485C594.853 287.006 594.964 286.572 595.186 286.182C595.42 285.792 595.794 285.48 596.306 285.247C596.829 285.013 597.531 284.896 598.41 284.896H601.216V286.048H598.477C597.675 286.048 597.135 286.182 596.857 286.449C596.579 286.716 596.439 287.039 596.439 287.418C596.439 287.852 596.612 288.203 596.957 288.47C597.302 288.726 597.781 288.854 598.393 288.854C598.995 288.854 599.518 288.721 599.964 288.454C600.42 288.186 600.749 287.797 600.949 287.285L601.267 288.387C601.055 288.91 600.682 289.328 600.147 289.64C599.613 289.94 598.939 290.091 598.126 290.091ZM605.153 282.809L605.053 278.299H606.456L606.339 282.809H605.153ZM608.176 282.809L608.076 278.299H609.479L609.362 282.809H608.176ZM610.497 292.465L611.332 289.09L611.549 290.059C611.227 290.059 610.954 289.959 610.731 289.758C610.519 289.558 610.414 289.285 610.414 288.94C610.414 288.606 610.519 288.333 610.731 288.121C610.954 287.91 611.221 287.804 611.533 287.804C611.856 287.804 612.117 287.916 612.318 288.138C612.518 288.35 612.618 288.617 612.618 288.94C612.618 289.051 612.607 289.163 612.585 289.274C612.574 289.374 612.546 289.497 612.502 289.642C612.468 289.775 612.412 289.942 612.335 290.143L611.549 292.465H610.497ZM619.032 282.809L618.933 278.299H620.335L620.219 282.809H619.032ZM622.056 282.809L621.956 278.299H623.359L623.242 282.809H622.056ZM627.664 283.828H633.694V285.264H627.664V283.828ZM627.83 289.991H626.16V278.299H634.412V279.752H627.83V289.991ZM636.527 289.99V277.596H638.131V289.99H636.527ZM644.917 290.091C644.16 290.091 643.492 289.952 642.913 289.673C642.345 289.395 641.9 288.972 641.577 288.403C641.265 287.824 641.109 287.101 641.109 286.232V281.138H642.713V286.048C642.713 286.917 642.918 287.568 643.331 288.003C643.754 288.437 644.344 288.654 645.101 288.654C645.658 288.654 646.142 288.543 646.554 288.32C646.966 288.086 647.284 287.752 647.506 287.318C647.729 286.873 647.841 286.338 647.841 285.714V281.138H649.444V289.99H647.924V287.602L648.174 288.237C647.885 288.827 647.451 289.283 646.872 289.606C646.292 289.929 645.641 290.091 644.917 290.091ZM655.54 290.089C654.649 290.089 653.959 289.85 653.469 289.37C652.979 288.892 652.734 288.207 652.734 287.316V279.198H654.337V287.249C654.337 287.728 654.454 288.096 654.688 288.352C654.933 288.608 655.278 288.736 655.724 288.736C656.225 288.736 656.642 288.597 656.976 288.318L657.478 289.471C657.232 289.682 656.937 289.838 656.592 289.939C656.258 290.039 655.907 290.089 655.54 290.089ZM651.23 282.455V281.136H656.876V282.455H651.23ZM662.242 290.089C661.351 290.089 660.66 289.85 660.17 289.37C659.68 288.892 659.435 288.207 659.435 287.316V279.198H661.039V287.249C661.039 287.728 661.156 288.096 661.39 288.352C661.635 288.608 661.98 288.736 662.425 288.736C662.926 288.736 663.344 288.597 663.678 288.318L664.179 289.471C663.934 289.682 663.639 289.838 663.294 289.939C662.96 290.039 662.609 290.089 662.242 290.089ZM657.932 282.455V281.136H663.578V282.455H657.932ZM669.768 290.091C668.822 290.091 667.987 289.896 667.263 289.506C666.55 289.116 665.993 288.582 665.592 287.903C665.203 287.223 665.008 286.444 665.008 285.564C665.008 284.684 665.197 283.905 665.576 283.226C665.965 282.546 666.494 282.017 667.163 281.639C667.842 281.249 668.605 281.054 669.451 281.054C670.308 281.054 671.065 281.243 671.723 281.622C672.38 282.001 672.892 282.535 673.259 283.226C673.638 283.905 673.827 284.701 673.827 285.614C673.827 285.681 673.822 285.759 673.811 285.848C673.811 285.937 673.805 286.021 673.794 286.098H666.26V284.946H672.959L672.307 285.347C672.318 284.779 672.201 284.272 671.956 283.827C671.711 283.381 671.372 283.036 670.937 282.791C670.514 282.535 670.019 282.407 669.451 282.407C668.894 282.407 668.399 282.535 667.964 282.791C667.53 283.036 667.19 283.387 666.945 283.844C666.7 284.289 666.578 284.801 666.578 285.38V285.647C666.578 286.238 666.711 286.767 666.979 287.235C667.257 287.691 667.641 288.047 668.131 288.304C668.621 288.56 669.184 288.688 669.818 288.688C670.342 288.688 670.815 288.598 671.238 288.42C671.673 288.242 672.051 287.975 672.374 287.619L673.259 288.654C672.858 289.122 672.357 289.478 671.756 289.723C671.166 289.968 670.503 290.091 669.768 290.091ZM676.053 289.99V281.138H677.59V283.543L677.44 282.942C677.685 282.329 678.097 281.861 678.676 281.539C679.255 281.216 679.968 281.054 680.814 281.054V282.608C680.747 282.596 680.68 282.591 680.613 282.591C680.558 282.591 680.502 282.591 680.446 282.591C679.589 282.591 678.91 282.847 678.409 283.359C677.907 283.871 677.657 284.612 677.657 285.581V289.99H676.053ZM682.536 282.809L682.436 278.299H683.839L683.722 282.809H682.536ZM685.56 282.809L685.459 278.299H686.862L686.745 282.809H685.56ZM687.881 292.465L688.717 289.09L688.934 290.059C688.611 290.059 688.338 289.959 688.115 289.758C687.904 289.558 687.798 289.285 687.798 288.94C687.798 288.606 687.904 288.333 688.115 288.121C688.338 287.91 688.605 287.804 688.917 287.804C689.24 287.804 689.501 287.916 689.702 288.138C689.902 288.35 690.003 288.617 690.003 288.94C690.003 289.051 689.991 289.163 689.969 289.274C689.958 289.374 689.93 289.497 689.886 289.642C689.852 289.775 689.797 289.942 689.719 290.143L688.934 292.465H687.881ZM696.416 282.809L696.316 278.299H697.719L697.602 282.809H696.416ZM699.439 282.809L699.339 278.299H700.742L700.625 282.809H699.439ZM706.951 290.125C706.06 290.125 705.208 289.991 704.395 289.724C703.582 289.446 702.942 289.09 702.475 288.655L703.093 287.352C703.538 287.742 704.106 288.065 704.796 288.321C705.487 288.577 706.205 288.705 706.951 288.705C707.63 288.705 708.182 288.627 708.605 288.472C709.028 288.315 709.34 288.104 709.54 287.837C709.741 287.558 709.841 287.246 709.841 286.901C709.841 286.5 709.707 286.177 709.44 285.933C709.184 285.687 708.844 285.492 708.421 285.348C708.009 285.192 707.552 285.058 707.051 284.947C706.55 284.835 706.044 284.707 705.531 284.563C705.03 284.407 704.568 284.212 704.145 283.978C703.733 283.744 703.399 283.433 703.143 283.043C702.887 282.642 702.759 282.13 702.759 281.506C702.759 280.905 702.914 280.354 703.226 279.852C703.549 279.34 704.039 278.934 704.696 278.633C705.364 278.321 706.211 278.165 707.235 278.165C707.914 278.165 708.588 278.254 709.256 278.433C709.924 278.611 710.503 278.867 710.993 279.201L710.442 280.537C709.941 280.203 709.412 279.964 708.855 279.819C708.298 279.663 707.758 279.585 707.235 279.585C706.578 279.585 706.038 279.669 705.615 279.836C705.192 280.003 704.88 280.226 704.679 280.504C704.49 280.782 704.395 281.094 704.395 281.439C704.395 281.851 704.524 282.18 704.78 282.425C705.047 282.67 705.387 282.864 705.798 283.009C706.222 283.154 706.684 283.288 707.185 283.41C707.686 283.522 708.187 283.65 708.688 283.795C709.2 283.939 709.663 284.128 710.074 284.362C710.498 284.596 710.837 284.908 711.093 285.298C711.35 285.687 711.478 286.189 711.478 286.801C711.478 287.391 711.316 287.942 710.993 288.455C710.67 288.956 710.169 289.362 709.49 289.674C708.822 289.975 707.975 290.125 706.951 290.125ZM715.393 289.99L712.102 281.138H713.622L716.545 289.155H715.827L718.867 281.138H720.22L723.193 289.155H722.492L725.482 281.138H726.918L723.611 289.99H722.074L719.285 282.674H719.753L716.93 289.99H715.393ZM728.546 289.99V281.138H730.149V289.99H728.546ZM729.348 279.434C729.036 279.434 728.774 279.334 728.562 279.133C728.362 278.933 728.262 278.688 728.262 278.398C728.262 278.098 728.362 277.847 728.562 277.647C728.774 277.446 729.036 277.346 729.348 277.346C729.66 277.346 729.916 277.446 730.116 277.647C730.328 277.836 730.433 278.075 730.433 278.365C730.433 278.665 730.333 278.922 730.133 279.133C729.932 279.334 729.67 279.434 729.348 279.434ZM733.445 289.989V280.351C733.445 279.482 733.695 278.792 734.196 278.279C734.709 277.756 735.432 277.494 736.368 277.494C736.713 277.494 737.041 277.539 737.353 277.628C737.676 277.706 737.949 277.834 738.172 278.012L737.687 279.232C737.52 279.098 737.331 278.998 737.12 278.931C736.908 278.853 736.685 278.814 736.451 278.814C735.983 278.814 735.627 278.947 735.382 279.215C735.137 279.471 735.015 279.855 735.015 280.368V281.553L735.048 282.288V289.989H733.445ZM731.941 282.455V281.136H737.587V282.455H731.941ZM742.138 290.089C741.247 290.089 740.557 289.85 740.067 289.37C739.577 288.892 739.332 288.207 739.332 287.316V279.198H740.935V287.249C740.935 287.728 741.052 288.096 741.286 288.352C741.531 288.608 741.876 288.736 742.322 288.736C742.823 288.736 743.24 288.597 743.574 288.318L744.076 289.471C743.83 289.682 743.535 289.838 743.19 289.939C742.856 290.039 742.505 290.089 742.138 290.089ZM737.828 282.455V281.136H743.474V282.455H737.828ZM745.645 282.809L745.545 278.299H746.948L746.832 282.809H745.645ZM748.669 282.809L748.569 278.299H749.972L749.855 282.809H748.669ZM754.96 293.231H751.469V291.911H753.356V278.916H751.469V277.596H754.96V293.231ZM482.323 314.119L483.76 302.426H484.946L483.51 314.119H482.323ZM476.043 311.112V309.893H486.349V311.112H476.043ZM477.981 314.119L479.434 302.426H480.62L479.167 314.119H477.981ZM476.577 306.652V305.433H486.884V306.652H476.577ZM492.799 314.218C491.852 314.218 491.017 314.023 490.293 313.633C489.58 313.243 489.023 312.709 488.623 312.03C488.233 311.351 488.038 310.571 488.038 309.691C488.038 308.812 488.227 308.032 488.606 307.353C488.996 306.674 489.525 306.144 490.193 305.766C490.872 305.376 491.635 305.181 492.481 305.181C493.339 305.181 494.096 305.371 494.753 305.749C495.41 306.128 495.922 306.662 496.289 307.353C496.668 308.032 496.858 308.828 496.858 309.741C496.858 309.808 496.852 309.886 496.841 309.975C496.841 310.064 496.835 310.148 496.824 310.226H489.291V309.073H495.989L495.338 309.474C495.348 308.906 495.232 308.4 494.987 307.954C494.742 307.509 494.402 307.164 493.968 306.918C493.545 306.662 493.049 306.534 492.481 306.534C491.924 306.534 491.429 306.662 490.995 306.918C490.56 307.164 490.221 307.514 489.976 307.971C489.731 308.416 489.608 308.928 489.608 309.507V309.775C489.608 310.365 489.742 310.894 490.009 311.361C490.287 311.818 490.672 312.174 491.161 312.43C491.651 312.687 492.214 312.815 492.849 312.815C493.372 312.815 493.845 312.726 494.269 312.548C494.703 312.369 495.081 312.102 495.404 311.746L496.289 312.781C495.889 313.249 495.388 313.605 494.786 313.85C494.196 314.095 493.533 314.218 492.799 314.218ZM497.553 314.117L501.362 309.173L501.345 309.992L497.72 305.265H499.508L502.281 308.906H501.596L504.368 305.265H506.122L502.448 310.025L502.464 309.173L506.306 314.117H504.485L501.562 310.242L502.214 310.343L499.341 314.117H497.553ZM513.386 314.117V312.247L513.303 311.896V308.706C513.303 308.026 513.102 307.503 512.701 307.136C512.312 306.757 511.721 306.568 510.931 306.568C510.408 306.568 509.895 306.657 509.394 306.835C508.893 307.002 508.47 307.23 508.125 307.52L507.457 306.317C507.913 305.95 508.459 305.671 509.094 305.482C509.74 305.282 510.413 305.181 511.115 305.181C512.329 305.181 513.264 305.476 513.921 306.066C514.578 306.657 514.907 307.559 514.907 308.772V314.117H513.386ZM510.48 314.218C509.823 314.218 509.244 314.107 508.743 313.884C508.253 313.661 507.874 313.355 507.607 312.965C507.34 312.564 507.206 312.113 507.206 311.612C507.206 311.133 507.317 310.699 507.54 310.309C507.774 309.92 508.147 309.608 508.659 309.374C509.183 309.14 509.884 309.023 510.764 309.023H513.57V310.176H510.831C510.029 310.176 509.489 310.309 509.211 310.576C508.932 310.844 508.793 311.167 508.793 311.545C508.793 311.979 508.965 312.33 509.311 312.598C509.656 312.854 510.135 312.982 510.747 312.982C511.349 312.982 511.872 312.848 512.317 312.581C512.774 312.314 513.102 311.924 513.303 311.412L513.62 312.514C513.409 313.038 513.036 313.455 512.501 313.767C511.967 314.068 511.293 314.218 510.48 314.218ZM528.949 305.181C529.661 305.181 530.29 305.32 530.836 305.599C531.382 305.877 531.805 306.3 532.105 306.868C532.417 307.436 532.574 308.154 532.574 309.023V314.117H530.97V309.207C530.97 308.349 530.77 307.703 530.369 307.269C529.968 306.835 529.405 306.618 528.681 306.618C528.147 306.618 527.679 306.729 527.278 306.952C526.877 307.174 526.565 307.503 526.343 307.937C526.131 308.371 526.026 308.912 526.026 309.558V314.117H524.422V309.207C524.422 308.349 524.223 307.703 523.822 307.269C523.432 306.835 522.869 306.618 522.134 306.618C521.611 306.618 521.149 306.729 520.748 306.952C520.347 307.174 520.036 307.503 519.813 307.937C519.59 308.371 519.479 308.912 519.479 309.558V314.117H517.874V305.265H519.411V307.62L519.161 307.019C519.44 306.44 519.868 305.989 520.447 305.666C521.026 305.343 521.7 305.181 522.469 305.181C523.315 305.181 524.043 305.393 524.656 305.816C525.268 306.228 525.67 306.857 525.859 307.703L525.208 307.436C525.475 306.757 525.943 306.211 526.611 305.799C527.279 305.387 528.058 305.181 528.949 305.181ZM540.218 314.218C539.483 314.218 538.809 314.051 538.197 313.717C537.595 313.371 537.111 312.865 536.744 312.197C536.387 311.529 536.209 310.693 536.209 309.691C536.209 308.689 536.382 307.854 536.727 307.186C537.083 306.518 537.562 306.016 538.163 305.682C538.776 305.348 539.461 305.181 540.218 305.181C541.086 305.181 541.855 305.371 542.523 305.749C543.191 306.128 543.72 306.657 544.11 307.336C544.5 308.004 544.694 308.789 544.694 309.691C544.694 310.593 544.5 311.384 544.11 312.063C543.72 312.742 543.191 313.271 542.523 313.65C541.855 314.028 541.086 314.218 540.218 314.218ZM535.524 317.358V305.265H537.061V307.654L536.961 309.708L537.128 311.762V317.358H535.524ZM540.084 312.815C540.652 312.815 541.159 312.687 541.604 312.43C542.061 312.174 542.417 311.812 542.673 311.345C542.941 310.866 543.074 310.315 543.074 309.691C543.074 309.056 542.941 308.511 542.673 308.054C542.417 307.587 542.061 307.225 541.604 306.969C541.159 306.713 540.652 306.585 540.084 306.585C539.527 306.585 539.021 306.713 538.564 306.969C538.119 307.225 537.762 307.587 537.495 308.054C537.239 308.511 537.111 309.056 537.111 309.691C537.111 310.315 537.239 310.866 537.495 311.345C537.762 311.812 538.119 312.174 538.564 312.43C539.021 312.687 539.527 312.815 540.084 312.815ZM546.91 314.117V301.724H548.514V314.117H546.91ZM555.52 314.218C554.573 314.218 553.738 314.023 553.015 313.633C552.302 313.243 551.745 312.709 551.344 312.03C550.954 311.351 550.759 310.571 550.759 309.691C550.759 308.812 550.949 308.032 551.328 307.353C551.717 306.674 552.246 306.144 552.914 305.766C553.594 305.376 554.356 305.181 555.203 305.181C556.06 305.181 556.817 305.371 557.474 305.749C558.131 306.128 558.643 306.662 559.011 307.353C559.39 308.032 559.579 308.828 559.579 309.741C559.579 309.808 559.573 309.886 559.562 309.975C559.562 310.064 559.557 310.148 559.545 310.226H552.012V309.073H558.71L558.059 309.474C558.07 308.906 557.953 308.4 557.708 307.954C557.463 307.509 557.124 307.164 556.689 306.918C556.266 306.662 555.771 306.534 555.203 306.534C554.646 306.534 554.15 306.662 553.716 306.918C553.282 307.164 552.942 307.514 552.697 307.971C552.452 308.416 552.33 308.928 552.33 309.507V309.775C552.33 310.365 552.463 310.894 552.73 311.361C553.009 311.818 553.393 312.174 553.883 312.43C554.373 312.687 554.935 312.815 555.57 312.815C556.094 312.815 556.567 312.726 556.99 312.548C557.424 312.369 557.803 312.102 558.126 311.746L559.011 312.781C558.61 313.249 558.109 313.605 557.508 313.85C556.917 314.095 556.255 314.218 555.52 314.218ZM567.543 314.119V303.094L568.261 303.879H564.904V302.426H569.196V314.119H567.543Z" fill="#1C1C20"/>
<path d="M853.031 318.845L617.238 406.273L618.206 408.884L853.999 321.455L853.031 318.845Z" fill="#166FF5"/>
<path d="M183.758 63.9993L116 189.047L118.448 190.373L186.205 65.3257L183.758 63.9993Z" fill="#166FF5"/>
<path d="M210.854 368.565H306.93C307.347 368.565 307.685 368.226 307.685 367.809C307.685 367.393 307.347 367.055 306.93 367.055H210.854C210.437 367.055 210.1 367.393 210.1 367.809C210.1 368.226 210.437 368.565 210.854 368.565Z" fill="#1C1C20" stroke="#1C1C20" stroke-width="0.500031" stroke-miterlimit="22.9256"/>
<path d="M210.854 387.911H306.93C307.347 387.911 307.685 387.573 307.685 387.157C307.685 386.74 307.347 386.402 306.93 386.402H210.854C210.437 386.402 210.1 386.74 210.1 387.157C210.1 387.573 210.437 387.911 210.854 387.911Z" fill="#1C1C20" stroke="#1C1C20" stroke-width="0.500031" stroke-miterlimit="22.9256"/>
<path d="M324.327 328.197H420.403C420.82 328.197 421.158 327.859 421.158 327.442C421.158 327.026 420.82 326.688 420.403 326.688H324.327C323.91 326.688 323.572 327.026 323.572 327.442C323.572 327.859 323.91 328.197 324.327 328.197Z" fill="#1C1C20" stroke="#1C1C20" stroke-width="0.500031" stroke-miterlimit="22.9256"/>
<path d="M324.327 347.54H420.403C420.82 347.54 421.158 347.202 421.158 346.786C421.158 346.369 420.82 346.031 420.403 346.031H324.327C323.91 346.031 323.572 346.369 323.572 346.786C323.572 347.202 323.91 347.54 324.327 347.54Z" fill="#1C1C20" stroke="#1C1C20" stroke-width="0.500031" stroke-miterlimit="22.9256"/>
<path d="M425.235 301.656V300.9H211.283V145.509H424.481V301.656H425.235H425.99V144.754C425.99 144.555 425.91 144.361 425.77 144.22C425.63 144.08 425.435 144 425.235 144H210.528C210.329 144 210.135 144.08 209.995 144.22C209.853 144.361 209.773 144.555 209.773 144.754V301.656C209.773 301.854 209.853 302.049 209.995 302.189C210.135 302.33 210.329 302.41 210.528 302.41H425.235C425.435 302.41 425.63 302.33 425.77 302.189C425.91 302.049 425.99 301.854 425.99 301.656H425.235Z" fill="#166FF5"/>
<path d="M425.235 301.656V300.9H211.283V145.509H424.481V301.656H425.235ZM425.235 301.656H425.99M425.99 301.656V144.754C425.99 144.555 425.91 144.361 425.77 144.22C425.63 144.08 425.435 144 425.235 144H210.528C210.329 144 210.135 144.08 209.995 144.22C209.853 144.361 209.773 144.555 209.773 144.754V301.656C209.773 301.854 209.853 302.049 209.995 302.189C210.135 302.33 210.329 302.41 210.528 302.41H425.235C425.435 302.41 425.63 302.33 425.77 302.189C425.91 302.049 425.99 301.854 425.99 301.656Z" stroke="#166FF5" stroke-width="1.00006" stroke-miterlimit="22.9256"/>
<path d="M425.234 207.942L425.615 207.29L396.122 190.11C395.812 189.931 395.422 189.992 395.182 190.258L341.296 250.001L295.797 227.834C295.527 227.704 295.203 227.745 294.975 227.941L210.035 301.085C209.798 301.29 209.711 301.624 209.82 301.918C209.93 302.213 210.214 302.41 210.528 302.41H425.234C425.434 302.41 425.629 302.33 425.769 302.19C425.909 302.049 425.99 301.854 425.99 301.655V207.942C425.99 207.673 425.847 207.426 425.615 207.29L425.234 207.942H424.48V300.9H212.56L295.583 229.41L341.145 251.605C341.448 251.754 341.811 251.684 342.035 251.434L395.893 191.723L424.856 208.596L425.234 207.942Z" fill="#166FF5"/>
<path d="M425.234 207.942L425.615 207.29M425.234 207.942H424.48V300.9H212.56L295.583 229.41L341.145 251.605C341.448 251.754 341.811 251.684 342.035 251.434L395.893 191.723L424.856 208.596L425.234 207.942ZM425.615 207.29L396.122 190.11C395.812 189.931 395.422 189.992 395.182 190.258L341.296 250.001L295.797 227.834C295.528 227.704 295.203 227.745 294.975 227.941L210.035 301.085C209.798 301.29 209.711 301.624 209.82 301.918C209.93 302.213 210.214 302.41 210.528 302.41H425.234C425.434 302.41 425.629 302.33 425.769 302.19C425.909 302.049 425.99 301.854 425.99 301.655V207.942C425.99 207.673 425.848 207.426 425.615 207.29Z" stroke="#166FF5" stroke-width="1.00006" stroke-miterlimit="22.9256"/>
<path d="M273.051 183.682H272.297C272.297 189.339 270.004 194.454 266.298 198.163C262.588 201.87 257.473 204.161 251.815 204.161C246.158 204.161 241.044 201.87 237.334 198.163C233.626 194.454 231.335 189.339 231.335 183.682C231.335 178.023 233.626 172.908 237.334 169.2C241.044 165.492 246.158 163.201 251.815 163.201C257.473 163.201 262.588 165.492 266.298 169.2C270.004 172.908 272.297 178.023 272.297 183.682H273.805C273.805 171.537 263.96 161.691 251.815 161.691C239.671 161.691 229.826 171.537 229.826 183.682C229.826 195.826 239.671 205.671 251.815 205.671C263.96 205.671 273.805 195.826 273.805 183.682H273.051Z" fill="#166FF5"/>
<path d="M272.297 183.682H273.051H273.805M272.297 183.682C272.297 189.339 270.004 194.454 266.298 198.163C262.588 201.87 257.473 204.161 251.815 204.161C246.158 204.161 241.044 201.87 237.334 198.163C233.626 194.454 231.335 189.339 231.335 183.682C231.335 178.023 233.626 172.908 237.334 169.2C241.044 165.492 246.158 163.201 251.815 163.201C257.473 163.201 262.588 165.492 266.298 169.2C270.004 172.908 272.297 178.023 272.297 183.682ZM272.297 183.682H273.805M273.805 183.682C273.805 171.537 263.96 161.691 251.815 161.691C239.671 161.691 229.826 171.537 229.826 183.682C229.826 195.826 239.671 205.671 251.815 205.671C263.96 205.671 273.805 195.826 273.805 183.682Z" stroke="#166FF5" stroke-width="1.00006" stroke-miterlimit="22.9256"/>
<path d="M798.302 329.088V331.297H796.093C795.686 331.297 795.357 331.627 795.357 332.033C795.357 332.441 795.686 332.769 796.093 332.769H799.039C799.232 332.769 799.421 332.691 799.558 332.554C799.695 332.417 799.774 332.228 799.774 332.033V329.088C799.774 328.682 799.445 328.352 799.039 328.352C798.63 328.352 798.302 328.682 798.302 329.088Z" fill="#1C1C20" stroke="#1C1C20" stroke-width="0.500031" stroke-miterlimit="22.9256"/>
<path d="M669.004 331.297H663.01C662.604 331.297 662.274 331.627 662.274 332.034C662.274 332.441 662.604 332.77 663.01 332.77H669.004C669.411 332.77 669.741 332.441 669.741 332.034C669.741 331.627 669.411 331.297 669.004 331.297ZM657.017 331.297H651.023C650.616 331.297 650.286 331.627 650.286 332.034C650.286 332.441 650.616 332.77 651.023 332.77H657.017C657.423 332.77 657.754 332.441 657.754 332.034C657.754 331.627 657.423 331.297 657.017 331.297ZM645.03 331.297H639.035C638.629 331.297 638.299 331.627 638.299 332.034C638.299 332.441 638.629 332.77 639.035 332.77H645.03C645.436 332.77 645.766 332.441 645.766 332.034C645.766 331.627 645.436 331.297 645.03 331.297ZM633.043 331.297H627.048C626.642 331.297 626.312 331.627 626.312 332.034C626.312 332.441 626.642 332.77 627.048 332.77H633.043C633.449 332.77 633.779 332.441 633.779 332.034C633.779 331.627 633.449 331.297 633.043 331.297ZM621.054 331.297H615.061C614.655 331.297 614.325 331.627 614.325 332.034C614.325 332.441 614.655 332.77 615.061 332.77H621.054C621.462 332.77 621.79 332.441 621.79 332.034C621.79 331.627 621.462 331.297 621.054 331.297ZM609.067 331.297H603.074C602.668 331.297 602.337 331.627 602.337 332.034C602.337 332.441 602.668 332.77 603.074 332.77H609.067C609.473 332.77 609.802 332.441 609.802 332.034C609.802 331.627 609.473 331.297 609.067 331.297ZM597.079 331.297H591.087C590.678 331.297 590.35 331.627 590.35 332.034C590.35 332.441 590.678 332.77 591.087 332.77H597.079C597.486 332.77 597.815 332.441 597.815 332.034C597.815 331.627 597.486 331.297 597.079 331.297ZM585.092 331.297H579.098C578.691 331.297 578.361 331.627 578.361 332.034C578.361 332.441 578.691 332.77 579.098 332.77H585.092C585.499 332.77 585.828 332.441 585.828 332.034C585.828 331.627 585.499 331.297 585.092 331.297ZM573.104 331.297H567.11C566.704 331.297 566.375 331.627 566.375 332.034C566.375 332.441 566.704 332.77 567.11 332.77H573.104C573.512 332.77 573.841 332.441 573.841 332.034C573.841 331.627 573.512 331.297 573.104 331.297ZM561.117 331.297H555.123C554.716 331.297 554.387 331.627 554.387 332.034C554.387 332.441 554.716 332.77 555.123 332.77H561.117C561.524 332.77 561.854 332.441 561.854 332.034C561.854 331.627 561.524 331.297 561.117 331.297ZM549.128 331.297H543.135C542.73 331.297 542.399 331.627 542.399 332.034C542.399 332.441 542.73 332.77 543.135 332.77H549.128C549.536 332.77 549.865 332.441 549.865 332.034C549.865 331.627 549.536 331.297 549.128 331.297ZM537.142 331.297H531.149C530.742 331.297 530.412 331.627 530.412 332.034C530.412 332.441 530.742 332.77 531.149 332.77H537.142C537.547 332.77 537.878 332.441 537.878 332.034C537.878 331.627 537.547 331.297 537.142 331.297ZM525.154 331.297H519.161C518.753 331.297 518.425 331.627 518.425 332.034C518.425 332.441 518.753 332.77 519.161 332.77H525.154C525.561 332.77 525.89 332.441 525.89 332.034C525.89 331.627 525.561 331.297 525.154 331.297ZM513.167 331.297H507.173C506.766 331.297 506.436 331.627 506.436 332.034C506.436 332.441 506.766 332.77 507.173 332.77H513.167C513.573 332.77 513.902 332.441 513.902 332.034C513.902 331.627 513.573 331.297 513.167 331.297ZM501.179 331.297H495.186C494.779 331.297 494.449 331.627 494.449 332.034C494.449 332.441 494.779 332.77 495.186 332.77H501.179C501.587 332.77 501.916 332.441 501.916 332.034C501.916 331.627 501.587 331.297 501.179 331.297ZM489.193 331.297H483.198C482.791 331.297 482.462 331.627 482.462 332.034C482.462 332.441 482.791 332.77 483.198 332.77H489.193C489.599 332.77 489.928 332.441 489.928 332.034C489.928 331.627 489.599 331.297 489.193 331.297ZM477.205 331.297H471.21C470.804 331.297 470.475 331.627 470.475 332.034C470.475 332.441 470.804 332.77 471.21 332.77H477.205C477.612 332.77 477.941 332.441 477.941 332.034C477.941 331.627 477.612 331.297 477.205 331.297Z" fill="#1C1C20" stroke="#1C1C20" stroke-width="0.500031" stroke-miterlimit="22.9256"/>
<path d="M465.216 331.297H463.008V329.088C463.008 328.682 462.679 328.352 462.271 328.352C461.865 328.352 461.535 328.682 461.535 329.088V332.033C461.535 332.228 461.615 332.417 461.751 332.554C461.889 332.691 462.079 332.769 462.271 332.769H465.216C465.625 332.769 465.952 332.441 465.952 332.033C465.952 331.627 465.625 331.297 465.216 331.297Z" fill="#1C1C20" stroke="#1C1C20" stroke-width="0.500031" stroke-miterlimit="22.9256"/>
<path d="M463.008 323.216V317.342C463.008 316.937 462.679 316.606 462.271 316.606C461.865 316.606 461.535 316.937 461.535 317.342V323.216C461.535 323.623 461.865 323.953 462.271 323.953C462.679 323.953 463.008 323.623 463.008 323.216ZM463.008 311.469V305.597C463.008 305.191 462.679 304.861 462.271 304.861C461.865 304.861 461.535 305.191 461.535 305.597V311.469C461.535 311.876 461.865 312.205 462.271 312.205C462.679 312.205 463.008 311.876 463.008 311.469ZM463.008 299.724V293.85C463.008 293.443 462.679 293.114 462.271 293.114C461.865 293.114 461.535 293.443 461.535 293.85V299.724C461.535 300.13 461.865 300.46 462.271 300.46C462.679 300.46 463.008 300.13 463.008 299.724ZM463.008 287.977V282.104C463.008 281.698 462.679 281.368 462.271 281.368C461.865 281.368 461.535 281.698 461.535 282.104V287.977C461.535 288.384 461.865 288.714 462.271 288.714C462.679 288.714 463.008 288.384 463.008 287.977ZM463.008 276.23V270.358C463.008 269.95 462.679 269.622 462.271 269.622C461.865 269.622 461.535 269.95 461.535 270.358V276.23C461.535 276.637 461.865 276.967 462.271 276.967C462.679 276.967 463.008 276.637 463.008 276.23ZM463.008 264.484V258.611C463.008 258.204 462.679 257.875 462.271 257.875C461.865 257.875 461.535 258.204 461.535 258.611V264.484C461.535 264.891 461.865 265.221 462.271 265.221C462.679 265.221 463.008 264.891 463.008 264.484ZM463.008 252.737V246.865C463.008 246.459 462.679 246.129 462.271 246.129C461.865 246.129 461.535 246.459 461.535 246.865V252.737C461.535 253.145 461.865 253.474 462.271 253.474C462.679 253.474 463.008 253.145 463.008 252.737Z" fill="#1C1C20" stroke="#1C1C20" stroke-width="0.500031" stroke-miterlimit="22.9256"/>
<path d="M463.008 240.99V238.781H465.216C465.625 238.781 465.952 238.452 465.952 238.045C465.952 237.638 465.625 237.309 465.216 237.309H462.271C462.079 237.309 461.889 237.387 461.751 237.525C461.615 237.662 461.535 237.85 461.535 238.045V240.99C461.535 241.396 461.865 241.726 462.271 241.726C462.679 241.726 463.008 241.396 463.008 240.99Z" fill="#1C1C20" stroke="#1C1C20" stroke-width="0.500031" stroke-miterlimit="22.9256"/>
<path d="M471.21 238.781H477.205C477.612 238.781 477.941 238.452 477.941 238.045C477.941 237.638 477.612 237.309 477.205 237.309H471.21C470.804 237.309 470.475 237.638 470.475 238.045C470.475 238.452 470.804 238.781 471.21 238.781ZM483.198 238.781H489.193C489.599 238.781 489.928 238.452 489.928 238.045C489.928 237.638 489.599 237.309 489.193 237.309H483.198C482.791 237.309 482.462 237.638 482.462 238.045C482.462 238.452 482.791 238.781 483.198 238.781ZM495.186 238.781H501.179C501.587 238.781 501.916 238.452 501.916 238.045C501.916 237.638 501.587 237.309 501.179 237.309H495.186C494.779 237.309 494.449 237.638 494.449 238.045C494.449 238.452 494.779 238.781 495.186 238.781ZM507.174 238.781H513.167C513.573 238.781 513.902 238.452 513.902 238.045C513.902 237.638 513.573 237.309 513.167 237.309H507.174C506.766 237.309 506.438 237.638 506.438 238.045C506.438 238.452 506.766 238.781 507.174 238.781ZM519.161 238.781H525.154C525.561 238.781 525.89 238.452 525.89 238.045C525.89 237.638 525.561 237.309 525.154 237.309H519.161C518.755 237.309 518.425 237.638 518.425 238.045C518.425 238.452 518.755 238.781 519.161 238.781ZM531.149 238.781H537.142C537.549 238.781 537.878 238.452 537.878 238.045C537.878 237.638 537.549 237.309 537.142 237.309H531.149C530.742 237.309 530.412 237.638 530.412 238.045C530.412 238.452 530.742 238.781 531.149 238.781ZM543.135 238.781H549.13C549.536 238.781 549.866 238.452 549.866 238.045C549.866 237.638 549.536 237.309 549.13 237.309H543.135C542.73 237.309 542.399 237.638 542.399 238.045C542.399 238.452 542.73 238.781 543.135 238.781ZM555.123 238.781H561.117C561.524 238.781 561.854 238.452 561.854 238.045C561.854 237.638 561.524 237.309 561.117 237.309H555.123C554.716 237.309 554.387 237.638 554.387 238.045C554.387 238.452 554.716 238.781 555.123 238.781ZM567.11 238.781H573.104C573.512 238.781 573.841 238.452 573.841 238.045C573.841 237.638 573.512 237.309 573.104 237.309H567.11C566.704 237.309 566.375 237.638 566.375 238.045C566.375 238.452 566.704 238.781 567.11 238.781ZM579.098 238.781H585.092C585.499 238.781 585.828 238.452 585.828 238.045C585.828 237.638 585.499 237.309 585.092 237.309H579.098C578.691 237.309 578.361 237.638 578.361 238.045C578.361 238.452 578.691 238.781 579.098 238.781ZM591.087 238.781H597.079C597.486 238.781 597.815 238.452 597.815 238.045C597.815 237.638 597.486 237.309 597.079 237.309H591.087C590.678 237.309 590.35 237.638 590.35 238.045C590.35 238.452 590.678 238.781 591.087 238.781ZM603.074 238.781H609.067C609.474 238.781 609.802 238.452 609.802 238.045C609.802 237.638 609.474 237.309 609.067 237.309H603.074C602.668 237.309 602.337 237.638 602.337 238.045C602.337 238.452 602.668 238.781 603.074 238.781ZM615.061 238.781H621.055C621.462 238.781 621.791 238.452 621.791 238.045C621.791 237.638 621.462 237.309 621.055 237.309H615.061C614.655 237.309 614.325 237.638 614.325 238.045C614.325 238.452 614.655 238.781 615.061 238.781ZM627.048 238.781H633.043C633.449 238.781 633.779 238.452 633.779 238.045C633.779 237.638 633.449 237.309 633.043 237.309H627.048C626.642 237.309 626.312 237.638 626.312 238.045C626.312 238.452 626.642 238.781 627.048 238.781ZM639.035 238.781H645.03C645.436 238.781 645.766 238.452 645.766 238.045C645.766 237.638 645.436 237.309 645.03 237.309H639.035C638.629 237.309 638.299 237.638 638.299 238.045C638.299 238.452 638.629 238.781 639.035 238.781ZM651.023 238.781H657.017C657.423 238.781 657.754 238.452 657.754 238.045C657.754 237.638 657.423 237.309 657.017 237.309H651.023C650.616 237.309 650.286 237.638 650.286 238.045C650.286 238.452 650.616 238.781 651.023 238.781ZM663.011 238.781H669.004C669.411 238.781 669.741 238.452 669.741 238.045C669.741 237.638 669.411 237.309 669.004 237.309H663.011C662.604 237.309 662.276 237.638 662.276 238.045C662.276 238.452 662.604 238.781 663.011 238.781Z" fill="#1C1C20" stroke="#1C1C20" stroke-width="0.500031" stroke-miterlimit="22.9256"/>
<path d="M796.093 238.781H798.302V240.99C798.302 241.396 798.63 241.726 799.039 241.726C799.445 241.726 799.774 241.396 799.774 240.99V238.045C799.774 237.85 799.695 237.662 799.558 237.525C799.421 237.387 799.232 237.309 799.039 237.309H796.093C795.686 237.309 795.357 237.638 795.357 238.045C795.357 238.452 795.686 238.781 796.093 238.781Z" fill="#1C1C20" stroke="#1C1C20" stroke-width="0.500031" stroke-miterlimit="22.9256"/>
<path d="M798.301 246.865V252.739C798.301 253.145 798.629 253.475 799.038 253.475C799.444 253.475 799.773 253.145 799.773 252.739V246.865C799.773 246.459 799.444 246.129 799.038 246.129C798.629 246.129 798.301 246.459 798.301 246.865ZM798.301 258.611V264.484C798.301 264.891 798.629 265.221 799.038 265.221C799.444 265.221 799.773 264.891 799.773 264.484V258.611C799.773 258.204 799.444 257.875 799.038 257.875C798.629 257.875 798.301 258.204 798.301 258.611ZM798.301 270.358V276.23C798.301 276.637 798.629 276.967 799.038 276.967C799.444 276.967 799.773 276.637 799.773 276.23V270.358C799.773 269.95 799.444 269.622 799.038 269.622C798.629 269.622 798.301 269.95 798.301 270.358ZM798.301 282.104V287.977C798.301 288.384 798.629 288.714 799.038 288.714C799.444 288.714 799.773 288.384 799.773 287.977V282.104C799.773 281.698 799.444 281.368 799.038 281.368C798.629 281.368 798.301 281.698 798.301 282.104ZM798.301 293.85V299.724C798.301 300.13 798.629 300.46 799.038 300.46C799.444 300.46 799.773 300.13 799.773 299.724V293.85C799.773 293.443 799.444 293.114 799.038 293.114C798.629 293.114 798.301 293.443 798.301 293.85ZM798.301 305.597V311.469C798.301 311.876 798.629 312.205 799.038 312.205C799.444 312.205 799.773 311.876 799.773 311.469V305.597C799.773 305.191 799.444 304.861 799.038 304.861C798.629 304.861 798.301 305.191 798.301 305.597ZM798.301 317.342V323.216C798.301 323.623 798.629 323.953 799.038 323.953C799.444 323.953 799.773 323.623 799.773 323.216V317.342C799.773 316.937 799.444 316.606 799.038 316.606C798.629 316.606 798.301 316.937 798.301 317.342Z" fill="#1C1C20" stroke="#1C1C20" stroke-width="0.500031" stroke-miterlimit="22.9256"/>
<path d="M675.494 238.781H681.488C681.895 238.781 682.224 238.452 682.224 238.045C682.224 237.638 681.895 237.309 681.488 237.309H675.494C675.087 237.309 674.758 237.638 674.758 238.045C674.758 238.452 675.087 238.781 675.494 238.781ZM687.481 238.781H693.476C693.882 238.781 694.212 238.452 694.212 238.045C694.212 237.638 693.882 237.309 693.476 237.309H687.481C687.075 237.309 686.745 237.638 686.745 238.045C686.745 238.452 687.075 238.781 687.481 238.781ZM699.469 238.781H705.462C705.87 238.781 706.199 238.452 706.199 238.045C706.199 237.638 705.87 237.309 705.462 237.309H699.469C699.062 237.309 698.732 237.638 698.732 238.045C698.732 238.452 699.062 238.781 699.469 238.781ZM711.457 238.781H717.45C717.856 238.781 718.186 238.452 718.186 238.045C718.186 237.638 717.856 237.309 717.45 237.309H711.457C711.049 237.309 710.721 237.638 710.721 238.045C710.721 238.452 711.049 238.781 711.457 238.781ZM723.445 238.781H729.437C729.844 238.781 730.173 238.452 730.173 238.045C730.173 237.638 729.844 237.309 729.437 237.309H723.445C723.038 237.309 722.708 237.638 722.708 238.045C722.708 238.452 723.038 238.781 723.445 238.781ZM735.432 238.781H741.425C741.833 238.781 742.161 238.452 742.161 238.045C742.161 237.638 741.833 237.309 741.425 237.309H735.432C735.026 237.309 734.695 237.638 734.695 238.045C734.695 238.452 735.026 238.781 735.432 238.781ZM747.419 238.781H753.414C753.82 238.781 754.149 238.452 754.149 238.045C754.149 237.638 753.82 237.309 753.414 237.309H747.419C747.013 237.309 746.683 237.638 746.683 238.045C746.683 238.452 747.013 238.781 747.419 238.781ZM759.406 238.781H765.401C765.807 238.781 766.137 238.452 766.137 238.045C766.137 237.638 765.807 237.309 765.401 237.309H759.406C759 237.309 758.67 237.638 758.67 238.045C758.67 238.452 759 238.781 759.406 238.781ZM771.394 238.781H777.388C777.795 238.781 778.124 238.452 778.124 238.045C778.124 237.638 777.795 237.309 777.388 237.309H771.394C770.987 237.309 770.658 237.638 770.658 238.045C770.658 238.452 770.987 238.781 771.394 238.781ZM783.381 238.781H789.375C789.782 238.781 790.112 238.452 790.112 238.045C790.112 237.638 789.782 237.309 789.375 237.309H783.381C782.975 237.309 782.644 237.638 782.644 238.045C782.644 238.452 782.975 238.781 783.381 238.781ZM789.375 331.294H783.381C782.975 331.294 782.644 331.625 782.644 332.031C782.644 332.438 782.975 332.767 783.381 332.767H789.375C789.782 332.767 790.112 332.438 790.112 332.031C790.112 331.625 789.782 331.294 789.375 331.294ZM777.388 331.294H771.394C770.987 331.294 770.658 331.625 770.658 332.031C770.658 332.438 770.987 332.767 771.394 332.767H777.388C777.795 332.767 778.124 332.438 778.124 332.031C778.124 331.625 777.795 331.294 777.388 331.294ZM765.401 331.294H759.406C759 331.294 758.67 331.625 758.67 332.031C758.67 332.438 759 332.767 759.406 332.767H765.401C765.807 332.767 766.137 332.438 766.137 332.031C766.137 331.625 765.807 331.294 765.401 331.294ZM753.411 331.294H747.419C747.013 331.294 746.683 331.625 746.683 332.031C746.683 332.438 747.013 332.767 747.419 332.767H753.411C753.82 332.767 754.148 332.438 754.148 332.031C754.148 331.625 753.82 331.294 753.411 331.294ZM741.425 331.294H735.432C735.026 331.294 734.695 331.625 734.695 332.031C734.695 332.438 735.026 332.767 735.432 332.767H741.425C741.83 332.767 742.161 332.438 742.161 332.031C742.161 331.625 741.83 331.294 741.425 331.294ZM729.437 331.294H723.445C723.036 331.294 722.708 331.625 722.708 332.031C722.708 332.438 723.036 332.767 723.445 332.767H729.437C729.844 332.767 730.173 332.438 730.173 332.031C730.173 331.625 729.844 331.294 729.437 331.294ZM717.45 331.294H711.456C711.049 331.294 710.719 331.625 710.719 332.031C710.719 332.438 711.049 332.767 711.456 332.767H717.45C717.856 332.767 718.186 332.438 718.186 332.031C718.186 331.625 717.856 331.294 717.45 331.294ZM705.462 331.294H699.469C699.062 331.294 698.732 331.625 698.732 332.031C698.732 332.438 699.062 332.767 699.469 332.767H705.462C705.87 332.767 706.199 332.438 706.199 332.031C706.199 331.625 705.87 331.294 705.462 331.294ZM693.476 331.294H687.481C687.075 331.294 686.745 331.625 686.745 332.031C686.745 332.438 687.075 332.767 687.481 332.767H693.476C693.882 332.767 694.212 332.438 694.212 332.031C694.212 331.625 693.882 331.294 693.476 331.294ZM681.488 331.294H675.494C675.087 331.294 674.758 331.625 674.758 332.031C674.758 332.438 675.087 332.767 675.494 332.767H681.488C681.895 332.767 682.224 332.438 682.224 332.031C682.224 331.625 681.895 331.294 681.488 331.294Z" fill="#1C1C20" stroke="#1C1C20" stroke-width="0.500031" stroke-miterlimit="22.9256"/>
<path d="M620.748 352.344L596.699 358.96L608.759 362.472L609.873 374.441L620.748 352.344Z" fill="#1C1C20"/>
<path d="M629.236 339.192H645.03V323.398H629.236V339.192Z" fill="#1C1C20"/>
<path d="M425.619 397.445V435.871C425.619 436.029 425.586 436.188 425.525 436.336C425.465 436.482 425.376 436.617 425.263 436.73C425.15 436.844 425.015 436.934 424.868 436.995C424.72 437.057 424.56 437.089 424.4 437.089H323.363C323.204 437.089 323.044 437.057 322.897 436.995C322.754 436.936 322.619 436.847 322.506 436.734C322.39 436.62 322.299 436.484 322.239 436.338C322.177 436.19 322.145 436.03 322.145 435.871V397.445C322.145 397.286 322.177 397.128 322.239 396.979C322.298 396.833 322.389 396.697 322.504 396.583C322.617 396.47 322.753 396.381 322.899 396.32C323.047 396.259 323.205 396.227 323.363 396.227H424.4C424.559 396.227 424.718 396.26 424.866 396.32C425.014 396.381 425.151 396.471 425.263 396.583C425.377 396.699 425.467 396.835 425.527 396.982C425.586 397.129 425.619 397.287 425.619 397.445Z" fill="#166FF5"/>
<path d="M442.934 456.551L466.982 463.167L454.922 466.679L453.809 478.648L442.934 456.551Z" fill="#1C1C20"/>
<path d="M416.508 443.403H432.302V427.609H416.508V443.403Z" fill="#1C1C20"/>
</svg>
