<svg width="133" height="34" viewBox="0 0 133 34" fill="none" xmlns="http://www.w3.org/2000/svg"><path fill-rule="evenodd" clip-rule="evenodd" d="m59.82 23.45 1.69 2.96h3.355L53.979 7.362l-10.885 19.05h3.353l1.692-2.96h11.68Zm-1.685-2.946L53.98 13.23l-4.156 7.274h8.312Z" fill="#fff"/><path d="M86.84 7.361v2.958h7.138V26.39h3.398V10.32h7.138V7.36H86.841Z" fill="#fff"/><path fill-rule="evenodd" clip-rule="evenodd" d="M77.408 10.332h-5.93l-1.997-.013-2.1-2.93h10.425c3.285 0 5.972 2.2 5.972 5.503 0 2.453-1.45 4.35-4.124 5.158l5.233 8.341h-3.825l-5.048-8.062H71.48v8.062h-3.4v-10.94h9.327c1.493 0 3.028-.968 3.028-2.56 0-1.498-1.407-2.559-3.028-2.559Z" fill="#fff"/><path d="M0 33.399 19.42 0l4.856 8.35-4.855 8.35h9.71l9.71 16.699H0Z" fill="#166FF5"/><path fill-rule="evenodd" clip-rule="evenodd" d="M133 29.073V4.551h-15.394l-12.929 17.08 5.906 7.442H133Z" fill="#fff"/><path fill-rule="evenodd" clip-rule="evenodd" d="M123.508 26.076a5.968 5.968 0 0 0 5.906-6.83h-.004a5.969 5.969 0 0 0-5.907-5.107h-3.647l4.564-5.673.725-.902h-3.779l-5.204 6.469c-1.095 1.36-2.711 3.46-2.964 5.213h-.004a5.968 5.968 0 0 0 5.907 6.83h4.407Zm-.118-9.182h.113v.002a3.215 3.215 0 0 1 3.102 3.212h.004a3.214 3.214 0 0 1-3.101 3.211v.002h-4.407v-.002A3.214 3.214 0 0 1 116 20.108h.004a3.214 3.214 0 0 1 3.101-3.212v-.002h4.285Z" fill="#1C1C20"/></svg>