<svg width="360" height="168" viewBox="0 0 360 168" fill="none" xmlns="http://www.w3.org/2000/svg"><path fill="#fff" d="M0 0h360v168H0z"/><path d="M209.219 69.767h20.797V63.22h-20.797v6.548ZM250.088 91.8c-1.188 1.228-2.642 1.91-4.358 1.91-1.584 0-3.17-.682-4.225-1.91-1.254-1.296-1.849-2.865-1.849-4.638 0-1.706.595-3.411 1.849-4.639 1.121-1.296 2.641-1.91 4.225-1.91 1.716 0 3.17.682 4.358 1.91 1.121 1.228 1.716 2.865 1.716 4.57a6.593 6.593 0 0 1-1.716 4.707Zm-4.424-17.394c-7.197 0-12.941 5.661-12.941 12.688 0 7.026 5.744 12.687 12.941 12.687 7.263 0 13.007-5.593 13.007-12.687.066-6.958-5.744-12.688-13.007-12.688Zm-36.445 7.23h6.669v17.531h6.866v-17.53h7.262v-6.55h-20.797v6.55Zm-13.006 10.096c-1.123 1.228-2.641 1.91-4.292 1.91-1.65 0-3.169-.682-4.357-1.91-1.123-1.296-1.783-2.865-1.783-4.638 0-1.706.66-3.411 1.783-4.639 1.188-1.228 2.707-1.91 4.357-1.91 1.651 0 3.169.682 4.292 1.91 1.188 1.228 1.782 2.865 1.782 4.639 0 1.705-.594 3.342-1.782 4.638Zm2.905-14.325c-2.179-1.91-5.018-3.001-8.055-3.001-6.933 0-12.478 5.593-12.478 12.688 0 7.026 5.545 12.687 12.478 12.687 3.037 0 5.876-1.091 8.055-3.001v2.32h5.744V75.155h-5.216l-.528 2.251Zm-32.616 14.257c-1.122 1.228-2.641 1.91-4.291 1.91a5.897 5.897 0 0 1-4.358-1.91 6.853 6.853 0 0 1-1.782-4.639c0-1.705.66-3.342 1.782-4.638a5.897 5.897 0 0 1 4.358-1.91c1.65 0 3.169.682 4.291 1.91 1.123 1.296 1.783 2.865 1.783 4.638 0 1.706-.66 3.411-1.783 4.639Zm-3.433-17.395c-3.367 0-6.47 1.365-8.715 3.616V63.219h-6.932v35.88h6.932v-2.933a12.295 12.295 0 0 0 8.715 3.615c6.867 0 12.413-5.662 12.413-12.756-.067-7.026-5.612-12.756-12.413-12.756ZM134.415 99.1h6.867V63.22h-6.867V99.1Zm-14.459-7.367c-1.122 1.228-2.641 1.91-4.291 1.91-1.651 0-3.169-.682-4.358-1.91-1.122-1.296-1.782-2.865-1.782-4.638 0-1.706.66-3.411 1.782-4.639 1.189-1.228 2.707-1.91 4.358-1.91 1.65 0 3.169.682 4.291 1.91 1.189 1.228 1.783 2.865 1.783 4.639 0 1.705-.594 3.342-1.783 4.638Zm2.905-14.325c-2.178-1.91-5.017-3.001-8.055-3.001-6.932 0-12.478 5.661-12.478 12.688 0 7.026 5.546 12.687 12.478 12.687 3.038 0 5.877-1.091 8.055-3.001v2.32h5.744V75.155h-5.216l-.528 2.251Z" fill="#1c1c20"/></svg>