<svg width="360" height="168" viewBox="0 0 360 168" fill="none" xmlns="http://www.w3.org/2000/svg"><path fill="#fff" d="M0 0h360v168H0z"/><g clip-path="url(#a)"><path fill-rule="evenodd" clip-rule="evenodd" d="M131.598 77.435s-.523-2.156-1.796-3.436c-1.273-1.28-3.378-1.409-3.378-1.409s-2.12-.286-6.014-.46c0 0-3.803-.13-6.051-.13-7.709 0-11.611.59-11.611.59s-1.89.13-3.165 1.41c-1.275 1.279-1.799 3.435-1.799 3.435S97 80.857 97 86.41c0 1.344.122 3.72.122 3.72a35.97 35.97 0 0 0 .663 5.199s.523 2.401 1.798 3.68c1.276 1.28 3.375 1.41 3.375 1.41 4.135.411 8.289.604 12.444.58 7.787 0 11.405-.583 11.405-.583a5.38 5.38 0 0 0 3.255-1.706c.991-1.02 1.572-3.381 1.572-3.381.347-1.764.559-3.55.635-5.347 0 0 .106-2.33.106-3.725.002-5.892-.777-8.823-.777-8.823Zm-7.452 5.107-.413 7.875c-.171 3.31-1.005 4.312-1.276 4.643-.849 1.03-2.11 1.556-3.743 1.556h-9.033c-3.911 0-4.573-2.371-4.375-6.2l.412-7.874c.12-2.265.514-3.824 1.174-4.643.75-.921 2.082-1.416 3.84-1.416h9.032c1.667 0 2.871.529 3.577 1.563.65.948.916 2.422.806 4.496h-.001Zm95.532-5.107s-.523-2.156-1.796-3.436c-1.272-1.28-3.378-1.409-3.378-1.409s-2.12-.286-6.014-.46c0 0-3.803-.13-6.051-.13-7.708 0-11.611.59-11.611.59s-1.89.13-3.165 1.41c-1.275 1.279-1.799 3.435-1.799 3.435s-.784 3.422-.784 8.976c0 1.344.122 3.72.122 3.72a35.97 35.97 0 0 0 .663 5.199s.523 2.401 1.799 3.68c1.275 1.28 3.374 1.41 3.374 1.41 4.135.411 8.289.604 12.445.58 7.786 0 11.405-.583 11.405-.583a5.382 5.382 0 0 0 3.255-1.706c.991-1.02 1.571-3.381 1.571-3.381a35.47 35.47 0 0 0 .636-5.347s.106-2.33.106-3.725c.002-5.892-.777-8.823-.777-8.823h-.001Zm-7.452 5.107-.413 7.875c-.17 3.31-1.005 4.312-1.276 4.643-.849 1.03-2.11 1.556-3.743 1.556h-9.033c-3.911 0-4.573-2.371-4.375-6.2l.412-7.874c.12-2.265.514-3.824 1.174-4.643.75-.921 2.082-1.416 3.84-1.416h9.033c1.666 0 2.87.529 3.576 1.563.65.948.917 2.422.807 4.496h-.002Zm-36.674-9.604s-4.217 10.556-6.184 15.486a.287.287 0 0 1-.418.14.29.29 0 0 1-.111-.123c-2.157-5.537-5.723-14.708-5.723-14.708-.198-.73-.894-1.324-1.998-1.324h-4.987c-.98 0-1.473.724-1.77 1.618 0 0-3.49 8.945-5.629 14.452a.256.256 0 0 1-.098.122.256.256 0 0 1-.297-.006.259.259 0 0 1-.092-.126c-1.915-4.808-6.17-15.53-6.17-15.53a.82.82 0 0 0-.818-.53h-8.453l11.017 26.923c.35.887.937 1.61 2.091 1.61h4.908a2.037 2.037 0 0 0 2.096-1.477s3.43-8.792 5.621-14.415a.294.294 0 0 1 .52.01l5.566 14.272c.347.887.933 1.61 2.088 1.61h5.002l.008-.01a2.026 2.026 0 0 0 1.994-1.467l11.072-27.056h-8.416a.777.777 0 0 0-.819.53Zm87.075-.355h-11.268l-9.121 8.247a1.018 1.018 0 0 1-.945-.028l-9.09-8.219h-11.248a.342.342 0 0 0-.371.3l14.93 13.504a.463.463 0 0 1-.023.543l-14.893 13.47c-.226.204.266.317.266.317H232.2s6.465-5.848 9.151-8.284a.92.92 0 0 1 .859.01c2.701 2.44 9.146 8.274 9.146 8.274h11.187s.541-.198.159-.539a72739.108 72739.108 0 0 0-14.635-13.248.461.461 0 0 1-.06-.512l14.93-13.504c.237-.215-.311-.33-.311-.33h.001Z" fill="#1c1c20"/></g><defs><clipPath id="a"><path fill="#fff" transform="translate(97 72)" d="M0 0h166v29H0z"/></clipPath></defs></svg>