<?xml version="1.0" encoding="UTF-8"?>
<svg version="1.1" xmlns="http://www.w3.org/2000/svg" width="1925" height="1267">
<path d="M0 0 C183.15 0 366.3 0 555 0 C551.64827499 4.18965626 550.08952483 5.86979373 545.765625 8.4609375 C544.21101562 9.40356445 544.21101562 9.40356445 542.625 10.36523438 C540.954375 11.36006836 540.954375 11.36006836 539.25 12.375 C538.07746257 13.08288829 536.90559753 13.7918914 535.734375 14.50195312 C533.93048385 15.59547216 532.12624801 16.68835948 530.31994629 17.77789307 C524.50530447 21.28632301 518.7496343 24.88615036 513 28.5 C499.28887553 37.09234989 485.49836808 45.55456274 471.70898438 54.02050781 C459.1213312 61.750359 446.55570777 69.51212409 434.03857422 77.35571289 C425.6264489 82.62174474 417.17530483 87.82283629 408.7175293 93.01513672 C401.39305461 97.51585598 394.09554218 102.05758796 386.8125 106.625 C378.01754916 112.13998806 369.17042455 117.56212722 360.29223633 122.94189453 C354.32150623 126.5668891 348.39424512 130.25206279 342.5 134 C335.65312499 138.35368009 328.75174014 142.60764464 321.8125 146.8125 C313.89983042 151.60785689 306.02623406 156.45969657 298.1875 161.375 C287.58008892 168.02629739 276.92533448 174.5979967 266.2578125 181.15234375 C258.00727844 186.22211636 249.77548694 191.32202498 241.54443359 196.42333984 C237.19723357 199.11708555 232.84852823 201.80839917 228.5 204.5 C226.74999307 205.58332213 224.99999306 206.66665546 223.25 207.75 C186.5 230.5 186.5 230.5 149.75 253.25 C148.45122925 254.05401245 148.45122925 254.05401245 147.1262207 254.87426758 C145.37217943 255.96008712 143.61811031 257.0458617 141.86401367 258.1315918 C137.5506184 260.80152229 133.23767324 263.47217356 128.92578125 266.14453125 C120.45534583 271.39296865 111.97842087 276.63040572 103.48828125 281.84692383 C93.90541507 287.73485795 84.3414414 293.6501467 74.8125 299.625 C66.06620065 305.10775482 57.27357251 310.50831792 48.44824219 315.86279297 C33.21639811 325.10826558 18.09880559 334.53922083 3 344 C10.87296443 353.22196063 19.03781152 362.13525066 27.34277344 370.96777344 C32.04609964 375.97256471 36.70308475 381.01576532 41.3359375 386.0859375 C50.81816081 396.45798822 60.40353207 406.73376768 70 417 C77.15046657 424.64951767 84.2929422 432.30534079 91.38452148 440.00952148 C95.4579614 444.42820246 99.57080615 448.80913672 103.6875 453.1875 C107.66748062 457.42172268 111.63045455 461.66406866 115.5 466 C121.2305167 472.41860877 127.15558284 478.6560989 133.04931641 484.92431641 C147.72968667 500.54540627 147.72968667 500.54540627 153.375 506.875 C158.14753372 512.21738849 163.07553392 517.41034704 167.9934082 522.6184082 C172.76087191 527.67119528 177.47125917 532.76938976 182.15234375 537.90234375 C185.60770333 541.67646804 189.11923381 545.39777147 192.625 549.125 C197.33702066 554.13615948 201.99059998 559.18757809 206.5703125 564.3203125 C210.44154361 568.58986964 214.4011095 572.77613955 218.34936523 576.97436523 C222.99098362 581.91330735 227.58506397 586.89090485 232.1484375 591.90234375 C234.33672191 594.29395032 236.55797046 596.65219962 238.7890625 599.00390625 C239.75863892 600.02955688 239.75863892 600.02955688 240.74780273 601.07592773 C242.02183738 602.42180222 243.29988208 603.76389417 244.58227539 605.10180664 C245.44453735 606.01434204 245.44453735 606.01434204 246.32421875 606.9453125 C246.84072998 607.48687988 247.35724121 608.02844727 247.8894043 608.58642578 C249 610 249 610 249 612 C249.99 612.33 250.98 612.66 252 613 C253.55395508 614.55981445 253.55395508 614.55981445 255.20703125 616.55078125 C258.89840658 620.90046637 262.76142464 625.04988004 266.6875 629.1875 C272.01265781 634.82193178 277.31064491 640.47817133 282.55908203 646.18408203 C286.37379298 650.32882543 290.21484352 654.44833917 294.0625 658.5625 C299.1737165 664.03005404 304.24965303 669.5277228 309.30078125 675.05078125 C319.39535614 686.08030953 329.59396206 697.01251226 339.80712891 707.93212891 C346.627017 715.22400709 353.42047883 722.5365239 360.15625 729.90625 C363.4136476 733.45977465 366.70704512 736.97945429 370 740.5 C375.08404449 745.93542554 380.12803335 751.4041309 385.1484375 756.8984375 C388.44801748 760.49819249 391.78787442 764.06009036 395.125 767.625 C399.73119715 772.54796988 404.28880517 777.50739405 408.78515625 782.53125 C414.84836665 789.28953744 420.9310866 796.01064413 427.40625 802.37890625 C429.72160839 804.73398892 431.85674387 807.23247133 434.015625 809.73046875 C441.31661615 818.08061807 448.97529346 826.11935628 456.57421875 834.19702148 C460.81173382 838.70917016 464.96685094 843.28187024 469.0859375 847.90234375 C471.42353399 850.46415868 473.87655419 852.88843428 476.34765625 855.3203125 C477.99379791 856.99369527 479.53158393 858.72093045 481.0625 860.5 C484.61149972 864.61233301 488.29600373 868.59028163 492 872.5625 C492.58144775 873.18769531 493.16289551 873.81289063 493.76196289 874.45703125 C496.69699791 877.59697038 499.6685374 880.68641838 502.71875 883.71484375 C505.08525669 886.06517315 507.34612154 888.45051122 509.5 891 C512.25321001 894.19569019 515.14627439 897.17182391 518.15576172 900.12451172 C519.93665279 901.93557939 521.60193148 903.80117664 523.2578125 905.7265625 C526.86364411 909.87393624 530.5983997 913.88341947 534.375 917.875 C538.63457957 922.39399048 542.86799912 926.92642341 547 931.5625 C549.96834168 934.89215668 553.03538455 938.06629577 556.21948242 941.18847656 C557.9794826 942.97912531 559.62403691 944.82777889 561.26171875 946.73046875 C564.80902226 950.80911941 568.47548518 954.75900825 572.1875 958.6875 C573.49633852 960.08049923 574.80492847 961.47373204 576.11328125 962.8671875 C578.02078416 964.89660741 579.92925026 966.92506643 581.84130859 968.95019531 C583.52361906 970.73354684 585.19991201 972.52236687 586.875 974.3125 C587.3805542 974.84512451 587.8861084 975.37774902 588.40698242 975.92651367 C590.60952058 978.28909652 591.96439254 979.89317763 593 983 C593.66 983 594.32 983 595 983 C596.45629883 984.4621582 596.45629883 984.4621582 598.14453125 986.48828125 C601.85946432 990.85613614 605.7418173 995.02839327 609.6875 999.1875 C611.08888159 1000.67285645 612.48991948 1002.15853724 613.890625 1003.64453125 C615.88905851 1005.76307641 617.88779237 1007.88132331 619.88867188 1009.99755859 C621.57642454 1011.78559667 623.25781528 1013.57938573 624.9375 1015.375 C625.43918701 1015.90375732 625.94087402 1016.43251465 626.45776367 1016.97729492 C628.64523586 1019.32551405 629.97073496 1020.91220489 631 1024 C631.99 1024.33 632.98 1024.66 634 1025 C635.54736328 1026.55322266 635.54736328 1026.55322266 637.1953125 1028.5390625 C640.94717104 1032.96054409 644.88248101 1037.17113496 648.875 1041.375 C653.82996153 1046.61400391 658.7290158 1051.88665482 663.5234375 1057.2734375 C667.66524286 1061.83334309 671.91225619 1066.29512346 676.15429688 1070.76171875 C680.02435625 1074.8495406 683.7796888 1079.01115116 687.46826172 1083.26318359 C689.23265425 1085.26380337 691.08124774 1087.14741161 693 1089 C695.47963329 1091.44663437 697.85440376 1093.92107774 700.125 1096.5625 C705.87130225 1103.2318508 711.97556286 1109.58313133 718 1116 C720.54187921 1118.70813396 723.08362184 1121.41639583 725.625 1124.125 C726.25253174 1124.79378174 726.88006348 1125.46256348 727.52661133 1126.15161133 C732.88936488 1131.87174218 738.21291279 1137.62703814 743.52197266 1143.39697266 C745.07765941 1145.08422724 746.63793303 1146.76714453 748.19921875 1148.44921875 C748.99138794 1149.30422974 748.99138794 1149.30422974 749.79956055 1150.17651367 C750.834119 1151.29187445 751.8706801 1152.40538165 752.90942383 1153.5168457 C755.55933191 1156.36804615 758.01736142 1159.28059936 760.375 1162.375 C761.24125 1163.24125 762.1075 1164.1075 763 1165 C768.15003044 1164.76977558 772.46867265 1162.65742618 777.0703125 1160.52734375 C777.85173111 1160.17275085 778.63314972 1159.81815796 779.43824768 1159.45281982 C782.00341922 1158.28734736 784.5640924 1157.11230795 787.125 1155.9375 C789.83665369 1154.70328951 792.54947483 1153.47166909 795.26231384 1152.24006653 C797.11414191 1151.39909016 798.96558944 1150.55727538 800.81666565 1149.71464539 C809.74909988 1145.64999437 818.71466644 1141.66196744 827.6875 1137.6875 C830.67214299 1136.36388482 833.65644878 1135.03951092 836.640625 1133.71484375 C837.71501579 1133.23799385 837.71501579 1133.23799385 838.81111145 1132.75151062 C845.52788874 1129.76876884 852.23362072 1126.76160952 858.9375 1123.75 C870.24692541 1118.66997603 881.57462106 1113.63188061 892.90655518 1108.60229492 C909.30886066 1101.32218067 925.69307536 1094.00408519 942.05215454 1086.62734985 C954.41770963 1081.05200976 966.80239869 1075.52171658 979.20239258 1070.0234375 C991.34096917 1064.63987986 1003.45631804 1059.20598777 1015.5625 1053.75 C1027.62278965 1048.31490432 1039.69045008 1042.89858968 1051.78369141 1037.53710938 C1060.533042 1033.65674393 1069.27055806 1029.75034053 1078.00592041 1025.83862305 C1082.85283304 1023.66865057 1087.70079984 1021.50103409 1092.54870605 1019.33328247 C1096.7606383 1017.4496981 1100.97193404 1015.564711 1105.18212891 1013.67724609 C1109.40016651 1011.78640763 1113.61981946 1009.89921858 1117.84060669 1008.01452637 C1119.4398945 1007.29962642 1121.03859467 1006.58341034 1122.63668823 1005.86584473 C1124.84481989 1004.87458224 1127.05494699 1003.88791152 1129.265625 1002.90234375 C1129.92206497 1002.60635788 1130.57850494 1002.31037201 1131.25483704 1002.00541687 C1135.77189141 1000 1135.77189141 1000 1138 1000 C1134.65414037 993.61149927 1131.25647521 987.30775832 1127.4375 981.1875 C1121.69258614 971.97792711 1116.29813232 962.5623687 1110.84667969 953.17724609 C1107.90409818 948.11448093 1104.95175252 943.0574217 1102 938 C1100.8293663 935.99352504 1099.65879344 933.98701459 1098.48828125 931.98046875 C1097.91029785 930.98966309 1097.33231445 929.99885742 1096.73681641 928.97802734 C1095.0258164 926.04426601 1093.31554174 923.11008302 1091.60546875 920.17578125 C1086.70219879 911.76394922 1081.79732186 903.35315255 1076.8671875 894.95703125 C1075.43224667 892.51304725 1073.99732727 890.06905067 1072.5625 887.625 C1072.02615433 886.71143738 1072.02615433 886.71143738 1071.47897339 885.77941895 C1066.36324204 877.06282064 1061.29001219 868.32315973 1056.25 859.5625 C1051.23845272 850.85293427 1046.17526291 842.17695053 1041.05151367 833.53295898 C1036.53323995 825.90978511 1032.04281215 818.27051959 1027.5625 810.625 C1027.20013245 810.00668304 1026.83776489 809.38836609 1026.4644165 808.75131226 C1021.07071482 799.54653965 1015.68991188 790.33429512 1010.31982422 781.11572266 C1006.74178058 774.97622975 1003.14938759 768.84536564 999.54772949 762.7197113 C996.6472879 757.78568795 993.75526578 752.84679429 990.8692627 747.90431213 C988.88710104 744.51101151 986.89074399 741.12651361 984.88671875 737.74609375 C984.04865003 736.3103795 983.21132411 734.87423121 982.375 733.4375 C982.00270264 732.81939453 981.63040527 732.20128906 981.24682617 731.56445312 C979.80130399 729.04974486 978.93602329 727.53169836 979.2890625 724.59765625 C979.52367187 724.07042969 979.75828125 723.54320312 980 723 C985.44240034 725.38477636 989.56875848 728.70360718 994.0625 732.5 C995.18023804 733.43223389 995.18023804 733.43223389 996.32055664 734.38330078 C1001.41416053 738.63896513 1006.47688997 742.93176044 1011.53295898 747.23193359 C1015.48460638 750.5863186 1019.50654101 753.84059094 1023.56640625 757.0625 C1031.71175618 763.54740139 1039.70558479 770.22530589 1047.74047852 776.84619141 C1051.65472608 780.07101988 1055.57267871 783.29109114 1059.5 786.5 C1064.17669831 790.32120472 1068.83922143 794.15941289 1073.5 798 C1083.33302695 806.10112814 1093.1965514 814.16357783 1103.08691406 822.19458008 C1108.7359559 826.7825763 1114.37098572 831.38745415 1120 836 C1121.83321648 837.50014281 1123.66655146 839.00014082 1125.5 840.5 C1129.16666667 843.5 1132.83333333 846.5 1136.5 849.5 C1137.41394531 850.24765625 1138.32789063 850.9953125 1139.26953125 851.765625 C1141.03822795 853.21297051 1142.80648543 854.66085301 1144.57421875 856.109375 C1149.24408223 859.93461444 1153.92177186 863.74987249 1158.60986328 867.55273438 C1166.46576542 873.92578026 1174.2855478 880.34123957 1182.08984375 886.77734375 C1187.04810104 890.86602472 1192.02261845 894.93462315 1197 899 C1204.25719387 904.92745959 1211.49596879 910.87677481 1218.72753906 916.83544922 C1224.47455272 921.56986936 1230.23392721 926.28880564 1236 931 C1236.84175781 931.68964844 1237.68351562 932.37929688 1238.55078125 933.08984375 C1243.22822331 936.92188146 1247.91387365 940.74346566 1252.60986328 944.55273438 C1261.15313087 951.48340069 1269.65113831 958.4675652 1278.13867188 965.46630859 C1285.75876082 971.74508597 1293.4220268 977.9706701 1301.08691406 984.19458008 C1306.7359559 988.7825763 1312.37098572 993.38745415 1318 998 C1319.83321648 999.50014281 1321.66655146 1001.00014082 1323.5 1002.5 C1439 1097 1439 1097 1554.5 1191.5 C1555.85738281 1192.60988281 1555.85738281 1192.60988281 1557.2421875 1193.7421875 C1559.10341528 1195.26596888 1560.9627483 1196.79206716 1562.8203125 1198.3203125 C1568.47955003 1202.97066089 1574.19036836 1207.53877669 1580 1212 C1582.28509732 1209.11060368 1584.04094021 1206.19273203 1585.71484375 1202.9140625 C1586.48707275 1201.41202271 1586.48707275 1201.41202271 1587.27490234 1199.87963867 C1587.82355957 1198.80560791 1588.3722168 1197.73157715 1588.9375 1196.625 C1593.16107525 1188.42848054 1597.43617662 1180.26959389 1601.875 1172.1875 C1610.48902555 1156.48930898 1618.92324454 1140.6942571 1627.3125 1124.875 C1627.67309509 1124.19505981 1628.03369019 1123.51511963 1628.4052124 1122.8145752 C1630.59511068 1118.6850556 1630.59511068 1118.6850556 1632.78479004 1114.55541992 C1637.57166007 1105.53003593 1642.41477417 1096.53925809 1647.33276367 1087.58447266 C1652.38229781 1078.35928016 1657.27737136 1069.05298831 1662.18624878 1059.75250244 C1667.1818253 1050.29023052 1672.22839285 1040.86134182 1677.3828125 1031.484375 C1682.01129518 1023.0367618 1686.50386376 1014.51849578 1691 1006 C1696.41532358 995.74034071 1701.86985939 985.50773715 1707.45532227 975.33935547 C1711.85691017 967.30704096 1716.14921911 959.21814913 1720.4375 951.125 C1725.97248855 940.6799385 1731.54518651 930.25767176 1737.18945312 919.87109375 C1741.2998733 912.30383573 1745.37493125 904.71804012 1749.4375 897.125 C1756.02343096 884.81728176 1762.63478129 872.52341174 1769.25732422 860.23535156 C1771.02863801 856.94683232 1772.79781145 853.65716975 1774.56640625 850.3671875 C1775.75251962 848.16141287 1776.93871715 845.95568349 1778.125 843.75 C1778.70701172 842.66775146 1779.28902344 841.58550293 1779.88867188 840.47045898 C1783.09753884 834.51055582 1786.32921857 828.56402564 1789.58544922 822.62988281 C1794.91144346 812.9216077 1800.06922626 803.13765822 1805.15356445 793.30078125 C1809.06877172 785.74375068 1813.09986753 778.25916959 1817.19921875 770.80078125 C1821.71066185 762.57472137 1826.10932904 754.29088757 1830.5 746 C1835.26036438 737.01240387 1840.04027036 728.03905845 1844.9375 719.125 C1850.05792262 709.80210167 1855.03499075 700.40620548 1860 691 C1866.06044322 679.51910266 1872.17357315 668.07157163 1878.421875 656.69140625 C1878.83373047 655.94004395 1879.24558594 655.18868164 1879.66992188 654.41455078 C1880.65969955 652.61776274 1881.65699367 650.82511114 1882.65820312 649.03466797 C1883.48481445 647.54604248 1883.48481445 647.54604248 1884.328125 646.02734375 C1884.83762695 645.115896 1885.34712891 644.20444824 1885.87207031 643.26538086 C1887.14856932 641.12338175 1887.14856932 641.12338175 1887 639 C1886.37845126 638.68968653 1885.75690252 638.37937305 1885.11651897 638.05965614 C1869.90372424 630.46436238 1854.69207489 622.86677994 1839.48165417 615.26673317 C1832.12560635 611.59127351 1824.76919079 607.91655372 1817.41186523 604.24365234 C1810.98973205 601.03761237 1804.56833363 597.83010601 1798.14776784 594.62092817 C1794.75675038 592.92606408 1791.36540037 591.23187414 1787.97316551 589.53944778 C1775.60097123 583.36630316 1763.24116475 577.18235653 1751.03029919 570.69389534 C1741.5054398 565.64912329 1731.84736162 560.86819688 1722.20031738 556.06257629 C1718.65566399 554.29675513 1715.11232052 552.52832124 1711.56933594 550.75915527 C1704.04743051 547.00368343 1696.52381748 543.25163935 1689 539.5 C1680.86864572 535.44542149 1672.73762387 531.39018349 1664.6085701 527.33099413 C1660.55236556 525.30572285 1656.49460362 523.28359468 1652.43652344 521.26208496 C1643.09611711 516.6026179 1633.77396928 511.92283606 1624.5546875 507.02734375 C1613.36394186 501.08584914 1602.01978334 495.45431254 1590.6792984 489.80541801 C1587.59375423 488.26774408 1584.50958095 486.72732541 1581.42529297 485.18713379 C1573.61806745 481.28900487 1565.80913522 477.39430146 1558 473.5 C1549.56069126 469.29144022 1541.12171288 465.08222484 1532.68470192 460.86906004 C1529.63725006 459.34738451 1526.58939088 457.82653838 1523.54046631 456.30781555 C1512.02539164 450.57084552 1500.538834 444.80136912 1489.17611694 438.7677002 C1479.60122318 433.70086983 1469.89620063 428.89252576 1460.20031738 424.06257629 C1456.65566399 422.29675513 1453.11232052 420.52832124 1449.56933594 418.75915527 C1442.04743051 415.00368343 1434.52381748 411.25163935 1427 407.5 C1418.86864572 403.44542149 1410.73762387 399.39018349 1402.6085701 395.33099413 C1398.55236556 393.30572285 1394.49460362 391.28359468 1390.43652344 389.26208496 C1380.29701888 384.20398614 1370.19970939 379.08816119 1360.19129944 373.77529144 C1350.7327829 368.77138985 1341.14833792 364.01846104 1331.57070923 359.24777222 C1328.09326342 357.51555809 1324.6171624 355.78067004 1321.14135742 354.04516602 C1313.76211207 350.36102264 1306.38115865 346.68030822 1299 343 C1290.43179121 338.72781853 1281.86430051 334.45420882 1273.29849243 330.17721558 C1269.91035971 328.48633776 1266.52101179 326.79791471 1263.1315918 325.10961914 C1253.91096592 320.51011036 1244.71019005 315.88762285 1235.609375 311.0546875 C1224.26759544 305.03343698 1212.76862493 299.3288451 1201.27544022 293.60348892 C1198.13384255 292.03778584 1194.99361404 290.46934155 1191.85327148 288.90112305 C1183.90338595 284.93166552 1175.95179412 280.96563245 1168 277 C1159.40671398 272.71444968 1150.81375736 268.42824559 1142.22276783 264.13809299 C1139.11942439 262.58847238 1136.01567303 261.03968209 1132.91085815 259.49301147 C1121.27483459 253.69540082 1109.66505309 247.86929851 1098.18328857 241.77128601 C1088.48431418 236.63826518 1078.65152847 231.77030435 1068.82992554 226.87738037 C1065.21806237 225.0779512 1061.6075103 223.27591537 1057.99731445 221.47314453 C1050.33274897 217.64634417 1042.66647634 213.82297043 1035 210 C1026.7146685 205.86843082 1018.42966838 201.73620414 1010.14663601 197.60002708 C1006.01271974 195.53590131 1001.8772462 193.47491829 997.74145508 191.41455078 C987.4777144 186.29429559 977.25299868 181.12107973 967.12136936 175.74394417 C956.8017173 170.28169069 946.3445194 165.09005016 935.90234375 159.8671875 C933.6473972 158.73810346 931.39247932 157.60896217 929.1375885 156.47976685 C924.45823201 154.13712286 919.77807496 151.79608733 915.09741211 149.45605469 C909.68930281 146.75204628 904.28326725 144.04393677 898.8783111 141.33363235 C893.64478137 138.70956139 888.40906224 136.08988493 883.17248726 133.47189713 C880.95457313 132.36234917 878.73730909 131.25150076 876.52070427 130.13933945 C873.44528136 128.59676357 870.36739931 127.05921047 867.28881836 125.52294922 C866.37208344 125.061772 865.45534851 124.60059479 864.51083374 124.1254425 C863.67729874 123.71077225 862.84376373 123.29610199 861.98497009 122.86886597 C861.25930816 122.50576262 860.53364622 122.14265926 859.78599453 121.76855278 C858.01786905 120.86824087 858.01786905 120.86824087 856 121 C855.7946463 121.56087814 855.5892926 122.12175629 855.37771606 122.69963074 C844.51044564 152.371324 833.53578559 181.99993078 822.375 211.5625 C822.10710033 212.27215534 821.83920067 212.98181068 821.56318283 213.71297073 C820.19449185 217.33848627 818.82565944 220.96394841 817.45680237 224.58940125 C817.04559741 225.67850076 817.04559741 225.67850076 816.62608528 226.78960228 C816.07029173 228.26160971 815.51446868 229.733606 814.95861626 231.2055912 C808.46369978 248.40616451 802.00169908 265.61904992 795.54645538 282.83454514 C794.70874827 285.06834024 793.87075467 287.30202764 793.03265381 289.53567505 C791.70222622 293.08149221 790.37245355 296.62755438 789.04310608 300.17377663 C788.52512969 301.55526994 788.00695369 302.93668843 787.48857117 304.3180294 C784.44028122 312.44152584 781.41666853 320.57349501 778.42431641 328.71777344 C777.53544456 331.13140224 776.64625172 333.54491258 775.75699806 335.95840073 C774.91428556 338.25094714 774.07715062 340.54547881 773.24015808 342.84011841 C772.72393297 344.24230714 772.20745171 345.64440161 771.69067383 347.04638672 C771.24250809 348.27090546 770.79434235 349.49542419 770.33259583 350.75704956 C769.11445656 353.72146322 767.73359746 356.31154653 766 359 C762.54774969 355.73855719 759.93183292 352.61675531 757.5390625 348.51953125 C756.9104834 347.45130127 756.2819043 346.38307129 755.63427734 345.2824707 C754.96431453 344.12593178 754.29456096 342.96927162 753.625 341.8125 C752.91807257 340.60406424 752.21054244 339.39598087 751.50244141 338.18823242 C749.32359953 334.4653765 747.16037278 330.73359548 745 327 C744.34580078 325.87078125 743.69160156 324.7415625 743.01757812 323.578125 C739.88748731 318.17014824 736.76696753 312.75674106 733.65234375 307.33984375 C728.38868014 298.19106177 723.05946618 289.08059854 717.73388672 279.96777344 C714.81989158 274.98009041 711.91019972 269.98989816 709 265 C707.82943724 262.99348366 706.65886434 260.98697323 705.48828125 258.98046875 C703.19316064 255.04606768 700.89894529 251.11114091 698.60546875 247.17578125 C692.25165958 236.27520956 685.88345043 225.38323043 679.5 214.5 C672.54955067 202.65008551 665.61894228 190.78874751 658.70166016 178.91943359 C655.80247974 173.9454882 652.90111308 168.9728183 650 164 C648.83332322 162.0000059 647.66665654 160.00000591 646.5 158 C645.9225 157.01 645.345 156.02 644.75 155 C643 152 641.25 149 639.5 146 C638.92258057 145.01016113 638.34516113 144.02032227 637.75024414 143.00048828 C636.58268272 140.99890789 635.41520236 138.99728023 634.24780273 136.99560547 C631.34548584 132.01939608 628.44180084 127.04399545 625.53515625 122.0703125 C619.38626139 111.54479533 613.26753294 101.00296535 607.1875 90.4375 C602.94911039 83.07294897 598.67765649 75.73586588 594.27124023 68.47070312 C591.17484471 63.34344701 588.20985114 58.1445132 585.25 52.9375 C578.44655879 40.9708993 571.53815859 29.05332809 564.35449219 17.31005859 C563.82243164 16.43816895 563.29037109 15.5662793 562.7421875 14.66796875 C562.26378418 13.89090576 561.78538086 13.11384277 561.29248047 12.31323242 C558.7926882 7.83919922 558 5.25734845 558 0 C1009.11 0 1460.22 0 1925 0 C1925 418.11 1925 836.22 1925 1267 C1289.75 1267 654.5 1267 0 1267 C0 848.89 0 430.78 0 0 Z " fill="#fff" transform="translate(0,0)"/>
</svg>
